  0
SECTION
  2
HEADER
  9
$ACADVER
  1
AC1014
  9
$HANDSEED
  5
FFFF
  9
$MEASUREMENT
 70
     1
  0
ENDSEC
  0
SECTION
  2
TABLES
  0
TABLE
  2
VPORT
  5
8
330
0
100
AcDbSymbolTable
 70
     4
  0
VPORT
  5
2E
330
8
100
AcDbSymbolTableRecord
100
AcDbViewportTableRecord
  2
*ACTIVE
 70
     0
 10
0.0
 20
0.0
 11
1.0
 21
1.0
 12
210.0
 22
148.5
 13
0.0
 23
0.0
 14
10.0
 24
10.0
 15
10.0
 25
10.0
 16
0.0
 26
0.0
 36
1.0
 17
0.0
 27
0.0
 37
0.0
 40
341.0
 41
1.24
 42
50.0
 43
0.0
 44
0.0
 50
0.0
 51
0.0
 71
     0
 72
   100
 73
     1
 74
     3
 75
     0
 76
     0
 77
     0
 78
     0
  0
ENDTAB
  0
TABLE
  2
LTYPE
  5
5
330
0
100
AcDbSymbolTable
 70
     1
  0
LTYPE
  5
14
330
5
100
AcDbSymbolTableRecord
100
AcDbLinetypeTableRecord
  2
BYBLOCK
 70
     0
  3

 72
    65
 73
     0
 40
0.0
  0
LTYPE
  5
15
330
5
100
AcDbSymbolTableRecord
100
AcDbLinetypeTableRecord
  2
BYLAYER
 70
     0
  3

 72
    65
 73
     0
 40
0.0
  0
LTYPE
  5
16
330
5
100
AcDbSymbolTableRecord
100
AcDbLinetypeTableRecord
  2
CONTINUOUS
 70
     0
  3
Solid line
 72
    65
 73
     0
 40
0.0
  0
ENDTAB
  0
TABLE
  2
LAYER
  5
2
100
AcDbSymbolTable
 70
2
  0
LAYER
  5
50
100
AcDbSymbolTableRecord
100
AcDbLayerTableRecord
  2
0
 70
0
  6
CONTINUOUS
  0
LAYER
  5
51
100
AcDbSymbolTableRecord
100
AcDbLayerTableRecord
  2
Layer_1
 70
0
  6
CONTINUOUS
  0
ENDTAB
  0
TABLE
  2
STYLE
  5
3
330
0
100
AcDbSymbolTable
 70
     1
  0
STYLE
  5
11
330
3
100
AcDbSymbolTableRecord
100
AcDbTextStyleTableRecord
  2
STANDARD
 70
     0
 40
0.0
 41
1.0
 50
0.0
 71
     0
 42
2.5
  3
txt
  4

  0
ENDTAB
  0
TABLE
  2
VIEW
  5
6
330
0
100
AcDbSymbolTable
 70
     0
  0
ENDTAB
  0
TABLE
  2
UCS
  5
7
330
0
100
AcDbSymbolTable
 70
     0
  0
ENDTAB
  0
TABLE
  2
APPID
  5
9
330
0
100
AcDbSymbolTable
 70
     2
  0
APPID
  5
12
330
9
100
AcDbSymbolTableRecord
100
AcDbRegAppTableRecord
  2
ACAD
 70
     0
  0
ENDTAB
  0
TABLE
  2
DIMSTYLE
  5
A
330
0
100
AcDbSymbolTable
 70
     1
  0
DIMSTYLE
105
27
330
A
100
AcDbSymbolTableRecord
100
AcDbDimStyleTableRecord
  2
ISO-25
 70
     0
  3

  4

  5

  6

  7

 40
1.0
 41
2.5
 42
0.625
 43
3.75
 44
1.25
 45
0.0
 46
0.0
 47
0.0
 48
0.0
140
2.5
141
2.5
142
0.0
143
0.03937007874016
144
1.0
145
0.0
146
1.0
147
0.625
 71
     0
 72
     0
 73
     0
 74
     0
 75
     0
 76
     0
 77
     1
 78
     8
170
     0
171
     3
172
     1
173
     0
174
     0
175
     0
176
     0
177
     0
178
     0
270
     2
271
     2
272
     2
273
     2
274
     3
340
11
275
     0
280
     0
281
     0
282
     0
283
     0
284
     8
285
     0
286
     0
287
     3
288
     0
  0
ENDTAB
  0
TABLE
  2
BLOCK_RECORD
  5
1
330
0
100
AcDbSymbolTable
 70
     1
  0
BLOCK_RECORD
  5
1F
330
1
100
AcDbSymbolTableRecord
100
AcDbBlockTableRecord
  2
*MODEL_SPACE
  0
BLOCK_RECORD
  5
1B
330
1
100
AcDbSymbolTableRecord
100
AcDbBlockTableRecord
  2
*PAPER_SPACE
  0
ENDTAB
  0
ENDSEC
  0
SECTION
  2
BLOCKS
  0
BLOCK
  5
20
330
1F
100
AcDbEntity
  8
0
100
AcDbBlockBegin
  2
*MODEL_SPACE
 70
     0
 10
0.0
 20
0.0
 30
0.0
  3
*MODEL_SPACE
  1

  0
ENDBLK
  5
21
330
1F
100
AcDbEntity
  8
0
100
AcDbBlockEnd
  0
BLOCK
  5
1C
330
1B
100
AcDbEntity
 67
     1
  8
0
100
AcDbBlockBegin
  2
*PAPER_SPACE
  1

  0
ENDBLK
  5
1D
330
1B
100
AcDbEntity
 67
     1
  8
0
100
AcDbBlockEnd
  0
ENDSEC
  0
SECTION
  2
ENTITIES
  0
LWPOLYLINE
  5
100
100
AcDbEntity
  8
Layer_1
 62
7
100
AcDbPolyline
 90
2
 70
0
 10
-223.440790
 20
288.906300
 30
0.0
 10
-223.440790
 20
289.420326
 30
0.0
  0
LWPOLYLINE
  5
101
100
AcDbEntity
  8
Layer_1
 62
7
100
AcDbPolyline
 90
2
 70
0
 10
-223.440790
 20
289.511036
 30
0.0
 10
-223.440790
 20
289.601746
 30
0.0
  0
LWPOLYLINE
  5
102
100
AcDbEntity
  8
Layer_1
 62
7
100
AcDbPolyline
 90
2
 70
0
 10
-223.440790
 20
289.677338
 30
0.0
 10
-223.440790
 20
290.115772
 30
0.0
  0
LWPOLYLINE
  5
103
100
AcDbEntity
  8
Layer_1
 62
7
100
AcDbPolyline
 90
2
 70
0
 10
-223.440790
 20
290.206482
 30
0.0
 10
-223.440790
 20
290.282074
 30
0.0
  0
LWPOLYLINE
  5
104
100
AcDbEntity
  8
Layer_1
 62
7
100
AcDbPolyline
 90
2
 70
0
 10
-223.440790
 20
290.372784
 30
0.0
 10
-223.440790
 20
290.811219
 30
0.0
  0
LWPOLYLINE
  5
105
100
AcDbEntity
  8
Layer_1
 62
7
100
AcDbPolyline
 90
2
 70
0
 10
-223.440790
 20
290.901929
 30
0.0
 10
-223.440790
 20
290.977521
 30
0.0
  0
LWPOLYLINE
  5
106
100
AcDbEntity
  8
Layer_1
 62
7
100
AcDbPolyline
 90
2
 70
0
 10
-223.440790
 20
291.068231
 30
0.0
 10
-223.440790
 20
291.506665
 30
0.0
  0
LWPOLYLINE
  5
107
100
AcDbEntity
  8
Layer_1
 62
7
100
AcDbPolyline
 90
2
 70
0
 10
-223.440790
 20
291.582257
 30
0.0
 10
-223.440790
 20
291.672967
 30
0.0
  0
LWPOLYLINE
  5
108
100
AcDbEntity
  8
Layer_1
 62
7
100
AcDbPolyline
 90
2
 70
0
 10
-223.440790
 20
291.763677
 30
0.0
 10
-223.440790
 20
292.186993
 30
0.0
  0
LWPOLYLINE
  5
109
100
AcDbEntity
  8
Layer_1
 62
7
100
AcDbPolyline
 90
2
 70
0
 10
-223.440790
 20
292.277703
 30
0.0
 10
-223.440790
 20
292.368413
 30
0.0
  0
LWPOLYLINE
  5
10a
100
AcDbEntity
  8
Layer_1
 62
7
100
AcDbPolyline
 90
2
 70
0
 10
-223.440790
 20
292.459123
 30
0.0
 10
-223.440790
 20
292.882439
 30
0.0
  0
LWPOLYLINE
  5
10b
100
AcDbEntity
  8
Layer_1
 62
7
100
AcDbPolyline
 90
2
 70
0
 10
-223.440790
 20
292.973149
 30
0.0
 10
-223.440790
 20
293.063859
 30
0.0
  0
LWPOLYLINE
  5
10c
100
AcDbEntity
  8
Layer_1
 62
7
100
AcDbPolyline
 90
2
 70
0
 10
-223.440790
 20
293.139451
 30
0.0
 10
-223.440790
 20
293.577886
 30
0.0
  0
LWPOLYLINE
  5
10d
100
AcDbEntity
  8
Layer_1
 62
7
100
AcDbPolyline
 90
2
 70
0
 10
-223.440790
 20
293.668596
 30
0.0
 10
-223.440790
 20
293.744188
 30
0.0
  0
LWPOLYLINE
  5
10e
100
AcDbEntity
  8
Layer_1
 62
7
100
AcDbPolyline
 90
2
 70
0
 10
-223.440790
 20
293.834898
 30
0.0
 10
-223.440790
 20
294.273332
 30
0.0
  0
LWPOLYLINE
  5
10f
100
AcDbEntity
  8
Layer_1
 62
7
100
AcDbPolyline
 90
2
 70
0
 10
-223.440790
 20
294.348924
 30
0.0
 10
-223.440790
 20
294.439634
 30
0.0
  0
LWPOLYLINE
  5
110
100
AcDbEntity
  8
Layer_1
 62
7
100
AcDbPolyline
 90
2
 70
0
 10
-223.440790
 20
294.530344
 30
0.0
 10
-223.440790
 20
294.953660
 30
0.0
  0
LWPOLYLINE
  5
111
100
AcDbEntity
  8
Layer_1
 62
7
100
AcDbPolyline
 90
2
 70
0
 10
-223.440790
 20
295.044370
 30
0.0
 10
-223.440790
 20
295.135080
 30
0.0
  0
LWPOLYLINE
  5
112
100
AcDbEntity
  8
Layer_1
 62
7
100
AcDbPolyline
 90
2
 70
0
 10
-227.129680
 20
289.752933
 30
0.0
 10
-219.751900
 20
289.752933
 30
0.0
  0
LWPOLYLINE
  5
113
100
AcDbEntity
  8
Layer_1
 62
7
100
AcDbPolyline
 90
2
 70
0
 10
-220.341520
 20
289.133079
 30
0.0
 10
-226.524940
 20
289.133079
 30
0.0
  0
LWPOLYLINE
  5
114
100
AcDbEntity
  8
Layer_1
 62
7
100
AcDbPolyline
 90
2
 70
0
 10
-226.524940
 20
289.254026
 30
0.0
 10
-220.341520
 20
289.254026
 30
0.0
  0
LWPOLYLINE
  5
115
100
AcDbEntity
  8
Layer_1
 62
7
100
AcDbPolyline
 90
2
 70
0
 10
-225.179400
 20
294.091913
 30
0.0
 10
-225.179400
 20
294.636175
 30
0.0
  0
LWPOLYLINE
  5
116
100
AcDbEntity
  8
Layer_1
 62
7
100
AcDbPolyline
 90
2
 70
0
 10
-225.134050
 20
294.742004
 30
0.0
 10
-225.134050
 20
294.137268
 30
0.0
  0
LWPOLYLINE
  5
117
100
AcDbEntity
  8
Layer_1
 62
7
100
AcDbPolyline
 90
2
 70
0
 10
-225.784140
 20
294.636175
 30
0.0
 10
-225.784140
 20
294.091913
 30
0.0
  0
LWPOLYLINE
  5
118
100
AcDbEntity
  8
Layer_1
 62
7
100
AcDbPolyline
 90
2
 70
0
 10
-227.129680
 20
289.752933
 30
0.0
 10
-227.129680
 20
294.530347
 30
0.0
  0
LWPOLYLINE
  5
119
100
AcDbEntity
  8
Layer_1
 62
7
100
AcDbPolyline
 90
2
 70
0
 10
-226.872660
 20
289.752933
 30
0.0
 10
-226.872660
 20
294.530347
 30
0.0
  0
LWPOLYLINE
  5
11a
100
AcDbEntity
  8
Layer_1
 62
7
100
AcDbPolyline
 90
2
 70
0
 10
-226.736600
 20
289.299381
 30
0.0
 10
-226.736600
 20
294.817596
 30
0.0
  0
LWPOLYLINE
  5
11b
100
AcDbEntity
  8
Layer_1
 62
7
100
AcDbPolyline
 90
2
 70
0
 10
-225.481770
 20
292.050930
 30
0.0
 10
-225.481770
 20
291.295009
 30
0.0
  0
LWPOLYLINE
  5
11c
100
AcDbEntity
  8
Layer_1
 62
7
100
AcDbPolyline
 90
2
 70
0
 10
-226.131860
 20
291.295009
 30
0.0
 10
-226.131860
 20
292.050930
 30
0.0
  0
LWPOLYLINE
  5
11d
100
AcDbEntity
  8
Layer_1
 62
7
100
AcDbPolyline
 90
2
 70
0
 10
-227.280860
 20
289.117960
 30
0.0
 10
-226.918020
 20
289.616867
 30
0.0
  0
LWPOLYLINE
  5
11e
100
AcDbEntity
  8
Layer_1
 62
7
100
AcDbPolyline
 90
3
 70
0
 10
-227.129680
 20
289.752931
 30
0.0
 10
-227.477400
 20
289.254023
 30
0.0
 10
-227.280860
 20
289.117958
 30
0.0
  0
LWPOLYLINE
  5
11f
100
AcDbEntity
  8
Layer_1
 62
7
100
AcDbPolyline
 90
2
 70
0
 10
-227.159920
 20
289.284260
 30
0.0
 10
-227.356460
 20
289.420326
 30
0.0
  0
LWPOLYLINE
  5
120
100
AcDbEntity
  8
Layer_1
 62
7
100
AcDbPolyline
 90
2
 70
0
 10
-227.129680
 20
289.752931
 30
0.0
 10
-226.918020
 20
289.616865
 30
0.0
  0
LWPOLYLINE
  5
121
100
AcDbEntity
  8
Layer_1
 62
7
100
AcDbPolyline
 90
2
 70
0
 10
-226.524940
 20
289.133076
 30
0.0
 10
-226.524940
 20
289.254023
 30
0.0
  0
LWPOLYLINE
  5
122
100
AcDbEntity
  8
Layer_1
 62
7
100
AcDbPolyline
 90
2
 70
0
 10
-225.481770
 20
290.282075
 30
0.0
 10
-226.131860
 20
290.282075
 30
0.0
  0
LWPOLYLINE
  5
123
100
AcDbEntity
  8
Layer_1
 62
7
100
AcDbPolyline
 90
2
 70
0
 10
-225.481770
 20
290.372785
 30
0.0
 10
-226.131860
 20
290.372785
 30
0.0
  0
LWPOLYLINE
  5
124
100
AcDbEntity
  8
Layer_1
 62
7
100
AcDbPolyline
 90
2
 70
0
 10
-225.481770
 20
290.493732
 30
0.0
 10
-226.131860
 20
290.493732
 30
0.0
  0
LWPOLYLINE
  5
125
100
AcDbEntity
  8
Layer_1
 62
7
100
AcDbPolyline
 90
2
 70
0
 10
-225.481770
 20
290.675153
 30
0.0
 10
-226.131860
 20
290.675153
 30
0.0
  0
LWPOLYLINE
  5
126
100
AcDbEntity
  8
Layer_1
 62
7
100
AcDbPolyline
 90
2
 70
0
 10
-225.481770
 20
290.750745
 30
0.0
 10
-226.131860
 20
290.750745
 30
0.0
  0
LWPOLYLINE
  5
127
100
AcDbEntity
  8
Layer_1
 62
7
100
AcDbPolyline
 90
2
 70
0
 10
-226.177260
 20
290.750745
 30
0.0
 10
-226.177260
 20
291.174060
 30
0.0
  0
LWPOLYLINE
  5
128
100
AcDbEntity
  8
Layer_1
 62
7
100
AcDbPolyline
 90
2
 70
0
 10
-226.071430
 20
290.750745
 30
0.0
 10
-226.071430
 20
291.174060
 30
0.0
  0
LWPOLYLINE
  5
129
100
AcDbEntity
  8
Layer_1
 62
7
100
AcDbPolyline
 90
4
 70
0
 10
-226.207460
 20
291.295007
 30
0.0
 10
-226.207460
 20
290.750745
 30
0.0
 10
-226.131860
 20
290.750745
 30
0.0
 10
-226.131860
 20
290.282075
 30
0.0
  0
LWPOLYLINE
  5
12a
100
AcDbEntity
  8
Layer_1
 62
7
100
AcDbPolyline
 90
2
 70
0
 10
-226.207460
 20
291.295007
 30
0.0
 10
-226.131860
 20
291.295007
 30
0.0
  0
LWPOLYLINE
  5
12b
100
AcDbEntity
  8
Layer_1
 62
7
100
AcDbPolyline
 90
2
 70
0
 10
-226.071360
 20
291.174060
 30
0.0
 10
-226.207430
 20
291.174060
 30
0.0
  0
LWPOLYLINE
  5
12c
100
AcDbEntity
  8
Layer_1
 62
7
100
AcDbPolyline
 90
2
 70
0
 10
-225.406150
 20
291.295007
 30
0.0
 10
-225.406150
 20
290.750745
 30
0.0
  0
LWPOLYLINE
  5
12d
100
AcDbEntity
  8
Layer_1
 62
7
100
AcDbPolyline
 90
3
 70
0
 10
-225.481770
 20
290.282075
 30
0.0
 10
-225.481770
 20
290.750745
 30
0.0
 10
-225.406170
 20
290.750745
 30
0.0
  0
LWPOLYLINE
  5
12e
100
AcDbEntity
  8
Layer_1
 62
7
100
AcDbPolyline
 90
2
 70
0
 10
-225.481770
 20
291.295009
 30
0.0
 10
-225.406170
 20
291.295009
 30
0.0
  0
LWPOLYLINE
  5
12f
100
AcDbEntity
  8
Layer_1
 62
7
100
AcDbPolyline
 90
2
 70
0
 10
-225.632950
 20
292.186995
 30
0.0
 10
-225.980680
 20
292.186995
 30
0.0
  0
LWPOLYLINE
  5
130
100
AcDbEntity
  8
Layer_1
 62
7
100
AcDbPolyline
 90
2
 70
0
 10
-225.678310
 20
293.986084
 30
0.0
 10
-225.285230
 20
293.986084
 30
0.0
  0
LWPOLYLINE
  5
131
100
AcDbEntity
  8
Layer_1
 62
7
100
AcDbPolyline
 90
2
 70
0
 10
-225.829490
 20
294.636175
 30
0.0
 10
-225.179400
 20
294.636175
 30
0.0
  0
LWPOLYLINE
  5
132
100
AcDbEntity
  8
Layer_1
 62
7
100
AcDbPolyline
 90
2
 70
0
 10
-225.784140
 20
294.439636
 30
0.0
 10
-225.829440
 20
294.439636
 30
0.0
  0
LWPOLYLINE
  5
133
100
AcDbEntity
  8
Layer_1
 62
7
100
AcDbPolyline
 90
2
 70
0
 10
-221.747530
 20
294.742004
 30
0.0
 10
-225.134050
 20
294.742004
 30
0.0
  0
LWPOLYLINE
  5
134
100
AcDbEntity
  8
Layer_1
 62
7
100
AcDbPolyline
 90
2
 70
0
 10
-221.702170
 20
294.439636
 30
0.0
 10
-225.179400
 20
294.439636
 30
0.0
  0
LWPOLYLINE
  5
135
100
AcDbEntity
  8
Layer_1
 62
7
100
AcDbPolyline
 90
3
 70
0
 10
-225.829500
 20
294.137267
 30
0.0
 10
-225.829500
 20
294.742003
 30
0.0
 10
-226.812190
 20
294.742003
 30
0.0
  0
LWPOLYLINE
  5
136
100
AcDbEntity
  8
Layer_1
 62
7
100
AcDbPolyline
 90
2
 70
0
 10
-227.129680
 20
289.752931
 30
0.0
 10
-227.129680
 20
294.681529
 30
0.0
  0
LWPOLYLINE
  5
137
100
AcDbEntity
  8
Layer_1
 62
7
100
AcDbPolyline
 90
2
 70
0
 10
-226.872670
 20
289.752931
 30
0.0
 10
-226.872670
 20
294.681529
 30
0.0
  0
LWPOLYLINE
  5
138
100
AcDbEntity
  8
Layer_1
 62
7
100
AcDbPolyline
 90
3
 70
0
 10
-226.676130
 20
294.742003
 30
0.0
 10
-225.935330
 20
294.742003
 30
0.0
 10
-225.935330
 20
294.983897
 30
0.0
  0
LWPOLYLINE
  5
139
100
AcDbEntity
  8
Layer_1
 62
7
100
AcDbPolyline
 90
3
 70
0
 10
-226.540060
 20
294.742003
 30
0.0
 10
-226.555160
 20
294.757121
 30
0.0
 10
-226.570260
 20
294.772239
 30
0.0
  0
LWPOLYLINE
  5
13a
100
AcDbEntity
  8
Layer_1
 62
7
100
AcDbPolyline
 90
5
 70
0
 10
-226.781960
 20
294.772239
 30
0.0
 10
-226.797060
 20
294.772239
 30
0.0
 10
-226.797060
 20
294.757121
 30
0.0
 10
-226.812160
 20
294.757121
 30
0.0
 10
-226.812160
 20
294.742003
 30
0.0
  0
LWPOLYLINE
  5
13b
100
AcDbEntity
  8
Layer_1
 62
7
100
AcDbPolyline
 90
2
 70
0
 10
-225.935320
 20
294.983899
 30
0.0
 10
-226.827310
 20
294.983899
 30
0.0
  0
LWPOLYLINE
  5
13c
100
AcDbEntity
  8
Layer_1
 62
7
100
AcDbPolyline
 90
2
 70
0
 10
-225.935320
 20
294.742004
 30
0.0
 10
-226.827310
 20
294.742004
 30
0.0
  0
LWPOLYLINE
  5
13d
100
AcDbEntity
  8
Layer_1
 62
7
100
AcDbPolyline
 90
3
 70
0
 10
-223.304720
 20
294.757121
 30
0.0
 10
-223.576860
 20
294.757121
 30
0.0
 10
-223.576860
 20
294.742003
 30
0.0
  0
LWPOLYLINE
  5
13e
100
AcDbEntity
  8
Layer_1
 62
7
100
AcDbPolyline
 90
2
 70
0
 10
-223.954820
 20
294.757121
 30
0.0
 10
-223.954820
 20
294.742003
 30
0.0
  0
LWPOLYLINE
  5
13f
100
AcDbEntity
  8
Layer_1
 62
7
100
AcDbPolyline
 90
2
 70
0
 10
-224.226950
 20
294.757121
 30
0.0
 10
-224.226950
 20
294.742003
 30
0.0
  0
LWPOLYLINE
  5
140
100
AcDbEntity
  8
Layer_1
 62
7
100
AcDbPolyline
 90
2
 70
0
 10
-224.604910
 20
294.757121
 30
0.0
 10
-224.604910
 20
294.742003
 30
0.0
  0
LWPOLYLINE
  5
141
100
AcDbEntity
  8
Layer_1
 62
7
100
AcDbPolyline
 90
2
 70
0
 10
-224.877040
 20
294.757121
 30
0.0
 10
-224.877040
 20
294.742003
 30
0.0
  0
LWPOLYLINE
  5
142
100
AcDbEntity
  8
Layer_1
 62
7
100
AcDbPolyline
 90
4
 70
0
 10
-226.736600
 20
289.420326
 30
0.0
 10
-226.691200
 20
289.329616
 30
0.0
 10
-226.615600
 20
289.284261
 30
0.0
 10
-226.524900
 20
289.254024
 30
0.0
  0
LWPOLYLINE
  5
143
100
AcDbEntity
  8
Layer_1
 62
7
100
AcDbPolyline
 90
4
 70
0
 10
-226.736600
 20
289.299379
 30
0.0
 10
-226.691200
 20
289.208669
 30
0.0
 10
-226.630700
 20
289.148195
 30
0.0
 10
-226.524870
 20
289.133077
 30
0.0
  0
LWPOLYLINE
  5
144
100
AcDbEntity
  8
Layer_1
 62
7
100
AcDbPolyline
 90
2
 70
0
 10
-226.918020
 20
289.616865
 30
0.0
 10
-226.872620
 20
289.752931
 30
0.0
  0
LWPOLYLINE
  5
145
100
AcDbEntity
  8
Layer_1
 62
7
100
AcDbPolyline
 90
6
 70
0
 10
-226.207460
 20
291.174060
 30
0.0
 10
-226.146960
 20
291.189178
 30
0.0
 10
-226.086460
 20
291.234533
 30
0.0
 10
-226.071360
 20
291.310125
 30
0.0
 10
-226.086460
 20
291.370599
 30
0.0
 10
-226.131760
 20
291.431073
 30
0.0
  0
LWPOLYLINE
  5
146
100
AcDbEntity
  8
Layer_1
 62
7
100
AcDbPolyline
 90
4
 70
0
 10
-225.481770
 20
292.050927
 30
0.0
 10
-225.511970
 20
292.126519
 30
0.0
 10
-225.557370
 20
292.171874
 30
0.0
 10
-225.632970
 20
292.186992
 30
0.0
  0
LWPOLYLINE
  5
147
100
AcDbEntity
  8
Layer_1
 62
7
100
AcDbPolyline
 90
4
 70
0
 10
-225.980680
 20
292.186993
 30
0.0
 10
-226.056280
 20
292.171875
 30
0.0
 10
-226.116780
 20
292.126520
 30
0.0
 10
-226.131880
 20
292.050928
 30
0.0
  0
LWPOLYLINE
  5
148
100
AcDbEntity
  8
Layer_1
 62
7
100
AcDbPolyline
 90
5
 70
0
 10
-226.827310
 20
294.983897
 30
0.0
 10
-226.948260
 20
294.953660
 30
0.0
 10
-227.038960
 20
294.893186
 30
0.0
 10
-227.099460
 20
294.802476
 30
0.0
 10
-227.129660
 20
294.681529
 30
0.0
  0
LWPOLYLINE
  5
149
100
AcDbEntity
  8
Layer_1
 62
7
100
AcDbPolyline
 90
3
 70
0
 10
-226.827310
 20
294.742003
 30
0.0
 10
-226.857510
 20
294.726885
 30
0.0
 10
-226.872610
 20
294.681530
 30
0.0
  0
LWPOLYLINE
  5
14a
100
AcDbEntity
  8
Layer_1
 62
7
100
AcDbPolyline
 90
4
 70
0
 10
-226.570300
 20
294.772239
 30
0.0
 10
-226.630800
 20
294.817594
 30
0.0
 10
-226.721500
 20
294.817594
 30
0.0
 10
-226.782000
 20
294.772239
 30
0.0
  0
LWPOLYLINE
  5
14b
100
AcDbEntity
  8
Layer_1
 62
7
100
AcDbPolyline
 90
3
 70
0
 10
-225.784140
 20
294.091911
 30
0.0
 10
-225.753940
 20
294.016319
 30
0.0
 10
-225.678340
 20
293.986082
 30
0.0
  0
LWPOLYLINE
  5
14c
100
AcDbEntity
  8
Layer_1
 62
7
100
AcDbPolyline
 90
4
 70
0
 10
-225.829500
 20
294.137267
 30
0.0
 10
-225.814400
 20
294.061675
 30
0.0
 10
-225.753900
 20
294.016320
 30
0.0
 10
-225.678300
 20
293.986083
 30
0.0
  0
LWPOLYLINE
  5
14d
100
AcDbEntity
  8
Layer_1
 62
7
100
AcDbPolyline
 90
3
 70
0
 10
-225.285230
 20
293.986083
 30
0.0
 10
-225.209630
 20
294.016320
 30
0.0
 10
-225.179430
 20
294.091912
 30
0.0
  0
LWPOLYLINE
  5
14e
100
AcDbEntity
  8
Layer_1
 62
7
100
AcDbPolyline
 90
4
 70
0
 10
-225.285230
 20
293.986083
 30
0.0
 10
-225.209630
 20
294.016320
 30
0.0
 10
-225.149130
 20
294.061675
 30
0.0
 10
-225.134030
 20
294.137267
 30
0.0
  0
LWPOLYLINE
  5
14f
100
AcDbEntity
  8
Layer_1
 62
7
100
AcDbPolyline
 90
2
 70
0
 10
-221.702170
 20
294.091911
 30
0.0
 10
-221.702170
 20
294.636174
 30
0.0
  0
LWPOLYLINE
  5
150
100
AcDbEntity
  8
Layer_1
 62
7
100
AcDbPolyline
 90
2
 70
0
 10
-221.747570
 20
294.742003
 30
0.0
 10
-221.747570
 20
294.137267
 30
0.0
  0
LWPOLYLINE
  5
151
100
AcDbEntity
  8
Layer_1
 62
7
100
AcDbPolyline
 90
2
 70
0
 10
-221.097480
 20
294.636174
 30
0.0
 10
-221.097480
 20
294.091911
 30
0.0
  0
LWPOLYLINE
  5
152
100
AcDbEntity
  8
Layer_1
 62
7
100
AcDbPolyline
 90
2
 70
0
 10
-219.751940
 20
289.752931
 30
0.0
 10
-219.751940
 20
294.530345
 30
0.0
  0
LWPOLYLINE
  5
153
100
AcDbEntity
  8
Layer_1
 62
7
100
AcDbPolyline
 90
2
 70
0
 10
-220.008950
 20
289.752931
 30
0.0
 10
-220.008950
 20
294.530345
 30
0.0
  0
LWPOLYLINE
  5
154
100
AcDbEntity
  8
Layer_1
 62
7
100
AcDbPolyline
 90
2
 70
0
 10
-220.145020
 20
289.299379
 30
0.0
 10
-220.145020
 20
294.817595
 30
0.0
  0
LWPOLYLINE
  5
155
100
AcDbEntity
  8
Layer_1
 62
7
100
AcDbPolyline
 90
2
 70
0
 10
-221.399850
 20
292.050927
 30
0.0
 10
-221.399850
 20
291.295007
 30
0.0
  0
LWPOLYLINE
  5
156
100
AcDbEntity
  8
Layer_1
 62
7
100
AcDbPolyline
 90
2
 70
0
 10
-220.749750
 20
291.295007
 30
0.0
 10
-220.749750
 20
292.050927
 30
0.0
  0
LWPOLYLINE
  5
157
100
AcDbEntity
  8
Layer_1
 62
7
100
AcDbPolyline
 90
2
 70
0
 10
-219.600760
 20
289.117958
 30
0.0
 10
-219.963600
 20
289.616865
 30
0.0
  0
LWPOLYLINE
  5
158
100
AcDbEntity
  8
Layer_1
 62
7
100
AcDbPolyline
 90
3
 70
0
 10
-219.751900
 20
289.752931
 30
0.0
 10
-219.404180
 20
289.254023
 30
0.0
 10
-219.600720
 20
289.117958
 30
0.0
  0
LWPOLYLINE
  5
159
100
AcDbEntity
  8
Layer_1
 62
7
100
AcDbPolyline
 90
2
 70
0
 10
-219.721660
 20
289.284260
 30
0.0
 10
-219.525120
 20
289.420326
 30
0.0
  0
LWPOLYLINE
  5
15a
100
AcDbEntity
  8
Layer_1
 62
7
100
AcDbPolyline
 90
2
 70
0
 10
-219.751900
 20
289.752931
 30
0.0
 10
-219.963560
 20
289.616865
 30
0.0
  0
LWPOLYLINE
  5
15b
100
AcDbEntity
  8
Layer_1
 62
7
100
AcDbPolyline
 90
2
 70
0
 10
-220.341520
 20
289.133076
 30
0.0
 10
-220.341520
 20
289.254023
 30
0.0
  0
LWPOLYLINE
  5
15c
100
AcDbEntity
  8
Layer_1
 62
7
100
AcDbPolyline
 90
2
 70
0
 10
-221.399810
 20
290.282075
 30
0.0
 10
-220.749710
 20
290.282075
 30
0.0
  0
LWPOLYLINE
  5
15d
100
AcDbEntity
  8
Layer_1
 62
7
100
AcDbPolyline
 90
2
 70
0
 10
-221.399810
 20
290.372785
 30
0.0
 10
-220.749710
 20
290.372785
 30
0.0
  0
LWPOLYLINE
  5
15e
100
AcDbEntity
  8
Layer_1
 62
7
100
AcDbPolyline
 90
2
 70
0
 10
-221.399810
 20
290.493732
 30
0.0
 10
-220.749710
 20
290.493732
 30
0.0
  0
LWPOLYLINE
  5
15f
100
AcDbEntity
  8
Layer_1
 62
7
100
AcDbPolyline
 90
2
 70
0
 10
-221.399810
 20
290.675153
 30
0.0
 10
-220.749710
 20
290.675153
 30
0.0
  0
LWPOLYLINE
  5
160
100
AcDbEntity
  8
Layer_1
 62
7
100
AcDbPolyline
 90
2
 70
0
 10
-221.399810
 20
290.750745
 30
0.0
 10
-220.749710
 20
290.750745
 30
0.0
  0
LWPOLYLINE
  5
161
100
AcDbEntity
  8
Layer_1
 62
7
100
AcDbPolyline
 90
2
 70
0
 10
-220.704410
 20
290.750745
 30
0.0
 10
-220.704410
 20
291.174060
 30
0.0
  0
LWPOLYLINE
  5
162
100
AcDbEntity
  8
Layer_1
 62
7
100
AcDbPolyline
 90
2
 70
0
 10
-220.810240
 20
290.750745
 30
0.0
 10
-220.810240
 20
291.174060
 30
0.0
  0
LWPOLYLINE
  5
163
100
AcDbEntity
  8
Layer_1
 62
7
100
AcDbPolyline
 90
4
 70
0
 10
-220.674120
 20
291.295007
 30
0.0
 10
-220.674120
 20
290.750745
 30
0.0
 10
-220.749720
 20
290.750745
 30
0.0
 10
-220.749720
 20
290.282075
 30
0.0
  0
LWPOLYLINE
  5
164
100
AcDbEntity
  8
Layer_1
 62
7
100
AcDbPolyline
 90
2
 70
0
 10
-220.674120
 20
291.295007
 30
0.0
 10
-220.749720
 20
291.295007
 30
0.0
  0
LWPOLYLINE
  5
165
100
AcDbEntity
  8
Layer_1
 62
7
100
AcDbPolyline
 90
2
 70
0
 10
-220.810220
 20
291.174060
 30
0.0
 10
-220.674150
 20
291.174060
 30
0.0
  0
LWPOLYLINE
  5
166
100
AcDbEntity
  8
Layer_1
 62
7
100
AcDbPolyline
 90
2
 70
0
 10
-221.475400
 20
291.295007
 30
0.0
 10
-221.475400
 20
290.750745
 30
0.0
  0
LWPOLYLINE
  5
167
100
AcDbEntity
  8
Layer_1
 62
7
100
AcDbPolyline
 90
3
 70
0
 10
-221.399810
 20
290.282075
 30
0.0
 10
-221.399810
 20
290.750745
 30
0.0
 10
-221.475410
 20
290.750745
 30
0.0
  0
LWPOLYLINE
  5
168
100
AcDbEntity
  8
Layer_1
 62
7
100
AcDbPolyline
 90
2
 70
0
 10
-221.399810
 20
291.295007
 30
0.0
 10
-221.475410
 20
291.295007
 30
0.0
  0
LWPOLYLINE
  5
169
100
AcDbEntity
  8
Layer_1
 62
7
100
AcDbPolyline
 90
2
 70
0
 10
-221.248630
 20
292.186993
 30
0.0
 10
-220.900910
 20
292.186993
 30
0.0
  0
LWPOLYLINE
  5
16a
100
AcDbEntity
  8
Layer_1
 62
7
100
AcDbPolyline
 90
2
 70
0
 10
-221.188160
 20
293.986083
 30
0.0
 10
-221.596350
 20
293.986083
 30
0.0
  0
LWPOLYLINE
  5
16b
100
AcDbEntity
  8
Layer_1
 62
7
100
AcDbPolyline
 90
2
 70
0
 10
-221.052090
 20
294.636174
 30
0.0
 10
-221.702180
 20
294.636174
 30
0.0
  0
LWPOLYLINE
  5
16c
100
AcDbEntity
  8
Layer_1
 62
7
100
AcDbPolyline
 90
2
 70
0
 10
-221.097450
 20
294.439635
 30
0.0
 10
-221.052050
 20
294.439635
 30
0.0
  0
LWPOLYLINE
  5
16d
100
AcDbEntity
  8
Layer_1
 62
7
100
AcDbPolyline
 90
3
 70
0
 10
-221.052080
 20
294.137267
 30
0.0
 10
-221.052080
 20
294.742003
 30
0.0
 10
-220.069390
 20
294.742003
 30
0.0
  0
LWPOLYLINE
  5
16e
100
AcDbEntity
  8
Layer_1
 62
7
100
AcDbPolyline
 90
2
 70
0
 10
-219.751900
 20
289.752931
 30
0.0
 10
-219.751900
 20
294.681529
 30
0.0
  0
LWPOLYLINE
  5
16f
100
AcDbEntity
  8
Layer_1
 62
7
100
AcDbPolyline
 90
2
 70
0
 10
-220.008910
 20
289.752931
 30
0.0
 10
-220.008910
 20
294.681529
 30
0.0
  0
LWPOLYLINE
  5
170
100
AcDbEntity
  8
Layer_1
 62
7
100
AcDbPolyline
 90
3
 70
0
 10
-220.205450
 20
294.742003
 30
0.0
 10
-220.946250
 20
294.742003
 30
0.0
 10
-220.946250
 20
294.983897
 30
0.0
  0
LWPOLYLINE
  5
171
100
AcDbEntity
  8
Layer_1
 62
7
100
AcDbPolyline
 90
3
 70
0
 10
-220.341520
 20
294.742003
 30
0.0
 10
-220.326420
 20
294.757121
 30
0.0
 10
-220.311320
 20
294.772239
 30
0.0
  0
LWPOLYLINE
  5
172
100
AcDbEntity
  8
Layer_1
 62
7
100
AcDbPolyline
 90
5
 70
0
 10
-220.099620
 20
294.772239
 30
0.0
 10
-220.084520
 20
294.772239
 30
0.0
 10
-220.084520
 20
294.757121
 30
0.0
 10
-220.069420
 20
294.757121
 30
0.0
 10
-220.069420
 20
294.742003
 30
0.0
  0
LWPOLYLINE
  5
173
100
AcDbEntity
  8
Layer_1
 62
7
100
AcDbPolyline
 90
2
 70
0
 10
-220.946250
 20
294.983897
 30
0.0
 10
-220.054270
 20
294.983897
 30
0.0
  0
LWPOLYLINE
  5
174
100
AcDbEntity
  8
Layer_1
 62
7
100
AcDbPolyline
 90
2
 70
0
 10
-220.946250
 20
294.742003
 30
0.0
 10
-220.054270
 20
294.742003
 30
0.0
  0
LWPOLYLINE
  5
175
100
AcDbEntity
  8
Layer_1
 62
7
100
AcDbPolyline
 90
2
 70
0
 10
-222.276670
 20
294.757121
 30
0.0
 10
-222.004540
 20
294.757121
 30
0.0
  0
LWPOLYLINE
  5
176
100
AcDbEntity
  8
Layer_1
 62
7
100
AcDbPolyline
 90
2
 70
0
 10
-222.926760
 20
294.757121
 30
0.0
 10
-222.654630
 20
294.757121
 30
0.0
  0
LWPOLYLINE
  5
177
100
AcDbEntity
  8
Layer_1
 62
7
100
AcDbPolyline
 90
2
 70
0
 10
-223.304720
 20
294.757121
 30
0.0
 10
-223.304720
 20
294.742003
 30
0.0
  0
LWPOLYLINE
  5
178
100
AcDbEntity
  8
Layer_1
 62
7
100
AcDbPolyline
 90
2
 70
0
 10
-222.926760
 20
294.757121
 30
0.0
 10
-222.926760
 20
294.742003
 30
0.0
  0
LWPOLYLINE
  5
179
100
AcDbEntity
  8
Layer_1
 62
7
100
AcDbPolyline
 90
2
 70
0
 10
-222.654630
 20
294.757121
 30
0.0
 10
-222.654630
 20
294.742003
 30
0.0
  0
LWPOLYLINE
  5
17a
100
AcDbEntity
  8
Layer_1
 62
7
100
AcDbPolyline
 90
2
 70
0
 10
-222.276670
 20
294.757121
 30
0.0
 10
-222.276670
 20
294.742003
 30
0.0
  0
LWPOLYLINE
  5
17b
100
AcDbEntity
  8
Layer_1
 62
7
100
AcDbPolyline
 90
2
 70
0
 10
-222.004540
 20
294.757121
 30
0.0
 10
-222.004540
 20
294.742003
 30
0.0
  0
LWPOLYLINE
  5
17c
100
AcDbEntity
  8
Layer_1
 62
7
100
AcDbPolyline
 90
4
 70
0
 10
-220.341520
 20
289.254023
 30
0.0
 10
-220.265920
 20
289.284260
 30
0.0
 10
-220.190320
 20
289.329615
 30
0.0
 10
-220.145020
 20
289.420325
 30
0.0
  0
LWPOLYLINE
  5
17d
100
AcDbEntity
  8
Layer_1
 62
7
100
AcDbPolyline
 90
4
 70
0
 10
-220.341520
 20
289.133076
 30
0.0
 10
-220.250820
 20
289.148194
 30
0.0
 10
-220.175220
 20
289.208668
 30
0.0
 10
-220.145020
 20
289.299378
 30
0.0
  0
LWPOLYLINE
  5
17e
100
AcDbEntity
  8
Layer_1
 62
7
100
AcDbPolyline
 90
2
 70
0
 10
-220.008910
 20
289.752931
 30
0.0
 10
-219.963610
 20
289.616865
 30
0.0
  0
LWPOLYLINE
  5
17f
100
AcDbEntity
  8
Layer_1
 62
7
100
AcDbPolyline
 90
6
 70
0
 10
-220.749710
 20
291.431073
 30
0.0
 10
-220.795110
 20
291.370599
 30
0.0
 10
-220.810210
 20
291.310125
 30
0.0
 10
-220.795110
 20
291.234533
 30
0.0
 10
-220.734610
 20
291.189178
 30
0.0
 10
-220.674110
 20
291.174060
 30
0.0
  0
LWPOLYLINE
  5
180
100
AcDbEntity
  8
Layer_1
 62
7
100
AcDbPolyline
 90
4
 70
0
 10
-221.248620
 20
292.186993
 30
0.0
 10
-221.324220
 20
292.171875
 30
0.0
 10
-221.369620
 20
292.126520
 30
0.0
 10
-221.399820
 20
292.050928
 30
0.0
  0
LWPOLYLINE
  5
181
100
AcDbEntity
  8
Layer_1
 62
7
100
AcDbPolyline
 90
4
 70
0
 10
-220.749710
 20
292.050927
 30
0.0
 10
-220.764810
 20
292.126519
 30
0.0
 10
-220.825310
 20
292.171874
 30
0.0
 10
-220.900910
 20
292.186992
 30
0.0
  0
LWPOLYLINE
  5
182
100
AcDbEntity
  8
Layer_1
 62
7
100
AcDbPolyline
 90
5
 70
0
 10
-219.751900
 20
294.681529
 30
0.0
 10
-219.782100
 20
294.802476
 30
0.0
 10
-219.842600
 20
294.893186
 30
0.0
 10
-219.933300
 20
294.953660
 30
0.0
 10
-220.054250
 20
294.983897
 30
0.0
  0
LWPOLYLINE
  5
183
100
AcDbEntity
  8
Layer_1
 62
7
100
AcDbPolyline
 90
3
 70
0
 10
-220.008910
 20
294.681529
 30
0.0
 10
-220.008910
 20
294.726884
 30
0.0
 10
-220.054310
 20
294.742002
 30
0.0
  0
LWPOLYLINE
  5
184
100
AcDbEntity
  8
Layer_1
 62
7
100
AcDbPolyline
 90
4
 70
0
 10
-220.099620
 20
294.772239
 30
0.0
 10
-220.160120
 20
294.817594
 30
0.0
 10
-220.235720
 20
294.817594
 30
0.0
 10
-220.311320
 20
294.772239
 30
0.0
  0
LWPOLYLINE
  5
185
100
AcDbEntity
  8
Layer_1
 62
7
100
AcDbPolyline
 90
3
 70
0
 10
-221.188150
 20
293.986083
 30
0.0
 10
-221.127650
 20
294.016320
 30
0.0
 10
-221.097450
 20
294.091912
 30
0.0
  0
LWPOLYLINE
  5
186
100
AcDbEntity
  8
Layer_1
 62
7
100
AcDbPolyline
 90
4
 70
0
 10
-221.188150
 20
293.986083
 30
0.0
 10
-221.127650
 20
294.016320
 30
0.0
 10
-221.067150
 20
294.061675
 30
0.0
 10
-221.052050
 20
294.137267
 30
0.0
  0
LWPOLYLINE
  5
187
100
AcDbEntity
  8
Layer_1
 62
7
100
AcDbPolyline
 90
3
 70
0
 10
-221.702170
 20
294.091911
 30
0.0
 10
-221.671970
 20
294.016319
 30
0.0
 10
-221.596370
 20
293.986082
 30
0.0
  0
LWPOLYLINE
  5
188
100
AcDbEntity
  8
Layer_1
 62
7
100
AcDbPolyline
 90
4
 70
0
 10
-221.747530
 20
294.137267
 30
0.0
 10
-221.717330
 20
294.061675
 30
0.0
 10
-221.672030
 20
294.016320
 30
0.0
 10
-221.596430
 20
293.986083
 30
0.0
  0
LWPOLYLINE
  5
189
100
AcDbEntity
  8
Layer_1
 62
7
100
AcDbPolyline
 90
2
 70
0
 10
-227.311100
 20
289.752931
 30
0.0
 10
-227.915840
 20
289.752931
 30
0.0
  0
LWPOLYLINE
  5
18a
100
AcDbEntity
  8
Layer_1
 62
7
100
AcDbPolyline
 90
2
 70
0
 10
-227.008730
 20
294.983897
 30
0.0
 10
-227.915840
 20
294.983897
 30
0.0
  0
LWPOLYLINE
  5
18b
100
AcDbEntity
  8
Layer_1
 62
7
100
AcDbPolyline
 90
2
 70
0
 10
-227.734420
 20
290.100654
 30
0.0
 10
-227.734420
 20
294.636174
 30
0.0
  0
LWPOLYLINE
  5
18c
100
AcDbEntity
  8
Layer_1
 62
7
100
AcDbPolyline
 90
3
 70
1
 10
-227.794890
 20
290.100656
 30
0.0
 10
-227.689060
 20
290.100656
 30
0.0
 10
-227.734360
 20
289.752933
 30
0.0
  0
LWPOLYLINE
  5
18d
100
AcDbEntity
  8
Layer_1
 62
7
100
AcDbPolyline
 90
3
 70
1
 10
-227.794890
 20
294.636175
 30
0.0
 10
-227.689060
 20
294.636175
 30
0.0
 10
-227.734360
 20
294.983899
 30
0.0
  0
LWPOLYLINE
  5
18e
100
AcDbEntity
  8
Layer_1
 62
7
100
AcDbPolyline
 90
17
 70
0
 10
-228.263560
 20
292.035809
 30
0.0
 10
-228.263560
 20
291.869507
 30
0.0
 10
-228.112380
 20
291.854389
 30
0.0
 10
-228.127480
 20
291.869507
 30
0.0
 10
-228.142580
 20
291.929981
 30
0.0
 10
-228.142580
 20
291.975336
 30
0.0
 10
-228.127480
 20
292.020691
 30
0.0
 10
-228.097280
 20
292.050928
 30
0.0
 10
-228.051880
 20
292.081165
 30
0.0
 10
-228.006580
 20
292.081165
 30
0.0
 10
-227.961180
 20
292.050928
 30
0.0
 10
-227.930980
 20
292.020691
 30
0.0
 10
-227.915880
 20
291.975336
 30
0.0
 10
-227.915880
 20
291.929981
 30
0.0
 10
-227.930980
 20
291.869507
 30
0.0
 10
-227.946080
 20
291.854389
 30
0.0
 10
-227.976280
 20
291.839271
 30
0.0
  0
LWPOLYLINE
  5
18f
100
AcDbEntity
  8
Layer_1
 62
7
100
AcDbPolyline
 90
4
 70
1
 10
-227.946070
 20
292.202111
 30
0.0
 10
-227.930970
 20
292.186993
 30
0.0
 10
-227.915870
 20
292.202111
 30
0.0
 10
-227.930970
 20
292.217229
 30
0.0
  0
LWPOLYLINE
  5
190
100
AcDbEntity
  8
Layer_1
 62
7
100
AcDbPolyline
 90
14
 70
0
 10
-228.172850
 20
292.353295
 30
0.0
 10
-228.187950
 20
292.353295
 30
0.0
 10
-228.233250
 20
292.368413
 30
0.0
 10
-228.248350
 20
292.383531
 30
0.0
 10
-228.263450
 20
292.413768
 30
0.0
 10
-228.263450
 20
292.489361
 30
0.0
 10
-228.248350
 20
292.519598
 30
0.0
 10
-228.233250
 20
292.534716
 30
0.0
 10
-228.187950
 20
292.549834
 30
0.0
 10
-228.157750
 20
292.549834
 30
0.0
 10
-228.127550
 20
292.534716
 30
0.0
 10
-228.082250
 20
292.504479
 30
0.0
 10
-227.915950
 20
292.338177
 30
0.0
 10
-227.915950
 20
292.564953
 30
0.0
  0
LWPOLYLINE
  5
191
100
AcDbEntity
  8
Layer_1
 62
7
100
AcDbPolyline
 90
17
 70
0
 10
-228.263560
 20
292.867321
 30
0.0
 10
-228.263560
 20
292.701019
 30
0.0
 10
-228.112380
 20
292.685901
 30
0.0
 10
-228.127480
 20
292.701019
 30
0.0
 10
-228.142580
 20
292.746374
 30
0.0
 10
-228.142580
 20
292.791729
 30
0.0
 10
-228.127480
 20
292.852203
 30
0.0
 10
-228.097280
 20
292.882440
 30
0.0
 10
-228.051880
 20
292.897558
 30
0.0
 10
-228.006580
 20
292.897558
 30
0.0
 10
-227.961180
 20
292.882440
 30
0.0
 10
-227.930980
 20
292.852203
 30
0.0
 10
-227.915880
 20
292.791729
 30
0.0
 10
-227.915880
 20
292.746374
 30
0.0
 10
-227.930980
 20
292.701019
 30
0.0
 10
-227.946080
 20
292.685901
 30
0.0
 10
-227.976280
 20
292.670783
 30
0.0
  0
LWPOLYLINE
  5
192
100
AcDbEntity
  8
Layer_1
 62
7
100
AcDbPolyline
 90
2
 70
0
 10
-225.814380
 20
289.843641
 30
0.0
 10
-225.814380
 20
287.893367
 30
0.0
  0
LWPOLYLINE
  5
193
100
AcDbEntity
  8
Layer_1
 62
7
100
AcDbPolyline
 90
2
 70
0
 10
-221.067200
 20
289.843641
 30
0.0
 10
-221.067200
 20
287.893367
 30
0.0
  0
LWPOLYLINE
  5
194
100
AcDbEntity
  8
Layer_1
 62
7
100
AcDbPolyline
 90
2
 70
0
 10
-225.466660
 20
288.074788
 30
0.0
 10
-221.414920
 20
288.074788
 30
0.0
  0
LWPOLYLINE
  5
195
100
AcDbEntity
  8
Layer_1
 62
7
100
AcDbPolyline
 90
3
 70
1
 10
-225.466650
 20
288.120146
 30
0.0
 10
-225.466650
 20
288.014317
 30
0.0
 10
-225.814370
 20
288.074791
 30
0.0
  0
LWPOLYLINE
  5
196
100
AcDbEntity
  8
Layer_1
 62
7
100
AcDbPolyline
 90
3
 70
1
 10
-221.414920
 20
288.120146
 30
0.0
 10
-221.414920
 20
288.014317
 30
0.0
 10
-221.067200
 20
288.074791
 30
0.0
  0
LWPOLYLINE
  5
197
100
AcDbEntity
  8
Layer_1
 62
7
100
AcDbPolyline
 90
3
 70
0
 10
-223.803630
 20
288.588814
 30
0.0
 10
-223.969930
 20
288.362038
 30
0.0
 10
-223.712920
 20
288.362038
 30
0.0
  0
LWPOLYLINE
  5
198
100
AcDbEntity
  8
Layer_1
 62
7
100
AcDbPolyline
 90
2
 70
0
 10
-223.803630
 20
288.588814
 30
0.0
 10
-223.803630
 20
288.241091
 30
0.0
  0
LWPOLYLINE
  5
199
100
AcDbEntity
  8
Layer_1
 62
7
100
AcDbPolyline
 90
4
 70
1
 10
-223.607090
 20
288.271327
 30
0.0
 10
-223.622190
 20
288.256209
 30
0.0
 10
-223.607090
 20
288.241091
 30
0.0
 10
-223.591990
 20
288.256209
 30
0.0
  0
LWPOLYLINE
  5
19a
100
AcDbEntity
  8
Layer_1
 62
7
100
AcDbPolyline
 90
3
 70
0
 10
-223.410550
 20
288.241091
 30
0.0
 10
-223.244250
 20
288.588814
 30
0.0
 10
-223.471030
 20
288.588814
 30
0.0
  0
LWPOLYLINE
  5
19b
100
AcDbEntity
  8
Layer_1
 62
7
100
AcDbPolyline
 90
17
 70
0
 10
-222.941880
 20
288.588814
 30
0.0
 10
-223.108180
 20
288.588814
 30
0.0
 10
-223.123280
 20
288.437630
 30
0.0
 10
-223.108180
 20
288.452748
 30
0.0
 10
-223.062780
 20
288.467866
 30
0.0
 10
-223.017380
 20
288.467866
 30
0.0
 10
-222.956880
 20
288.452748
 30
0.0
 10
-222.926680
 20
288.422511
 30
0.0
 10
-222.911580
 20
288.377156
 30
0.0
 10
-222.911580
 20
288.346919
 30
0.0
 10
-222.926680
 20
288.286445
 30
0.0
 10
-222.956880
 20
288.256208
 30
0.0
 10
-223.017380
 20
288.241090
 30
0.0
 10
-223.062780
 20
288.241090
 30
0.0
 10
-223.108180
 20
288.256208
 30
0.0
 10
-223.123280
 20
288.271326
 30
0.0
 10
-223.138380
 20
288.301563
 30
0.0
  0
LWPOLYLINE
  5
19c
100
AcDbEntity
  8
Layer_1
 62
7
100
AcDbPolyline
 90
2
 70
0
 10
-219.434410
 20
289.117958
 30
0.0
 10
-217.907460
 20
289.117958
 30
0.0
  0
LWPOLYLINE
  5
19d
100
AcDbEntity
  8
Layer_1
 62
7
100
AcDbPolyline
 90
2
 70
0
 10
-219.872850
 20
294.742003
 30
0.0
 10
-217.907460
 20
294.742003
 30
0.0
  0
LWPOLYLINE
  5
19e
100
AcDbEntity
  8
Layer_1
 62
7
100
AcDbPolyline
 90
2
 70
0
 10
-218.073760
 20
289.465681
 30
0.0
 10
-218.073760
 20
294.394279
 30
0.0
  0
LWPOLYLINE
  5
19f
100
AcDbEntity
  8
Layer_1
 62
7
100
AcDbPolyline
 90
3
 70
1
 10
-218.134230
 20
289.465683
 30
0.0
 10
-218.028400
 20
289.465683
 30
0.0
 10
-218.073800
 20
289.117960
 30
0.0
  0
LWPOLYLINE
  5
1a0
100
AcDbEntity
  8
Layer_1
 62
7
100
AcDbPolyline
 90
3
 70
1
 10
-218.134230
 20
294.394281
 30
0.0
 10
-218.028400
 20
294.394281
 30
0.0
 10
-218.073800
 20
294.742004
 30
0.0
  0
LWPOLYLINE
  5
1a1
100
AcDbEntity
  8
Layer_1
 62
7
100
AcDbPolyline
 90
17
 70
0
 10
-218.602900
 20
291.597375
 30
0.0
 10
-218.602900
 20
291.431073
 30
0.0
 10
-218.451720
 20
291.415955
 30
0.0
 10
-218.466820
 20
291.431073
 30
0.0
 10
-218.481920
 20
291.476428
 30
0.0
 10
-218.481920
 20
291.536902
 30
0.0
 10
-218.466820
 20
291.582257
 30
0.0
 10
-218.436620
 20
291.612494
 30
0.0
 10
-218.391220
 20
291.627612
 30
0.0
 10
-218.345820
 20
291.627612
 30
0.0
 10
-218.300420
 20
291.612494
 30
0.0
 10
-218.270220
 20
291.582257
 30
0.0
 10
-218.255120
 20
291.536902
 30
0.0
 10
-218.255120
 20
291.476428
 30
0.0
 10
-218.270220
 20
291.431073
 30
0.0
 10
-218.285320
 20
291.415955
 30
0.0
 10
-218.315520
 20
291.400837
 30
0.0
  0
LWPOLYLINE
  5
1a2
100
AcDbEntity
  8
Layer_1
 62
7
100
AcDbPolyline
 90
4
 70
1
 10
-218.285420
 20
291.763678
 30
0.0
 10
-218.270320
 20
291.748560
 30
0.0
 10
-218.255220
 20
291.763678
 30
0.0
 10
-218.270320
 20
291.778796
 30
0.0
  0
LWPOLYLINE
  5
1a3
100
AcDbEntity
  8
Layer_1
 62
7
100
AcDbPolyline
 90
23
 70
0
 10
-218.557550
 20
292.111401
 30
0.0
 10
-218.587750
 20
292.096283
 30
0.0
 10
-218.602850
 20
292.035809
 30
0.0
 10
-218.602850
 20
292.005572
 30
0.0
 10
-218.587750
 20
291.960217
 30
0.0
 10
-218.527250
 20
291.929980
 30
0.0
 10
-218.451650
 20
291.914862
 30
0.0
 10
-218.376050
 20
291.914862
 30
0.0
 10
-218.300450
 20
291.929980
 30
0.0
 10
-218.270250
 20
291.960217
 30
0.0
 10
-218.255150
 20
292.005572
 30
0.0
 10
-218.255150
 20
292.020690
 30
0.0
 10
-218.270250
 20
292.081164
 30
0.0
 10
-218.300450
 20
292.111401
 30
0.0
 10
-218.345850
 20
292.126519
 30
0.0
 10
-218.376050
 20
292.126519
 30
0.0
 10
-218.421450
 20
292.111401
 30
0.0
 10
-218.451650
 20
292.081164
 30
0.0
 10
-218.466750
 20
292.020690
 30
0.0
 10
-218.466750
 20
292.005572
 30
0.0
 10
-218.451650
 20
291.960217
 30
0.0
 10
-218.421450
 20
291.929980
 30
0.0
 10
-218.376050
 20
291.914862
 30
0.0
  0
LWPOLYLINE
  5
1a4
100
AcDbEntity
  8
Layer_1
 62
7
100
AcDbPolyline
 90
15
 70
0
 10
-218.602900
 20
292.262585
 30
0.0
 10
-218.602900
 20
292.444006
 30
0.0
 10
-218.466840
 20
292.338177
 30
0.0
 10
-218.466840
 20
292.383532
 30
0.0
 10
-218.451740
 20
292.413769
 30
0.0
 10
-218.436640
 20
292.444006
 30
0.0
 10
-218.391240
 20
292.459124
 30
0.0
 10
-218.345840
 20
292.459124
 30
0.0
 10
-218.300440
 20
292.444006
 30
0.0
 10
-218.270240
 20
292.398651
 30
0.0
 10
-218.255140
 20
292.353296
 30
0.0
 10
-218.255140
 20
292.307941
 30
0.0
 10
-218.270240
 20
292.262586
 30
0.0
 10
-218.285340
 20
292.232349
 30
0.0
 10
-218.315540
 20
292.217231
 30
0.0
  0
LWPOLYLINE
  5
1a5
100
AcDbEntity
  8
Layer_1
 62
7
100
AcDbPolyline
 90
2
 70
0
 10
-219.570480
 20
289.752931
 30
0.0
 10
-218.738970
 20
289.752931
 30
0.0
  0
LWPOLYLINE
  5
1a6
100
AcDbEntity
  8
Layer_1
 62
7
100
AcDbPolyline
 90
2
 70
0
 10
-219.872850
 20
294.742003
 30
0.0
 10
-218.738970
 20
294.742003
 30
0.0
  0
LWPOLYLINE
  5
1a7
100
AcDbEntity
  8
Layer_1
 62
7
100
AcDbPolyline
 90
2
 70
0
 10
-218.905270
 20
290.100654
 30
0.0
 10
-218.905270
 20
294.394279
 30
0.0
  0
LWPOLYLINE
  5
1a8
100
AcDbEntity
  8
Layer_1
 62
7
100
AcDbPolyline
 90
3
 70
1
 10
-218.965740
 20
290.100656
 30
0.0
 10
-218.859910
 20
290.100656
 30
0.0
 10
-218.905310
 20
289.752933
 30
0.0
  0
LWPOLYLINE
  5
1a9
100
AcDbEntity
  8
Layer_1
 62
7
100
AcDbPolyline
 90
3
 70
1
 10
-218.965740
 20
294.394281
 30
0.0
 10
-218.859910
 20
294.394281
 30
0.0
 10
-218.905310
 20
294.742004
 30
0.0
  0
LWPOLYLINE
  5
1aa
100
AcDbEntity
  8
Layer_1
 62
7
100
AcDbPolyline
 90
17
 70
0
 10
-219.434410
 20
291.128705
 30
0.0
 10
-219.434410
 20
290.962403
 30
0.0
 10
-219.283230
 20
290.947285
 30
0.0
 10
-219.298330
 20
290.962403
 30
0.0
 10
-219.313430
 20
291.007758
 30
0.0
 10
-219.313430
 20
291.053113
 30
0.0
 10
-219.298330
 20
291.113587
 30
0.0
 10
-219.268130
 20
291.143824
 30
0.0
 10
-219.222730
 20
291.158942
 30
0.0
 10
-219.177330
 20
291.158942
 30
0.0
 10
-219.131930
 20
291.143824
 30
0.0
 10
-219.101730
 20
291.113587
 30
0.0
 10
-219.086630
 20
291.053113
 30
0.0
 10
-219.086630
 20
291.007758
 30
0.0
 10
-219.101730
 20
290.962403
 30
0.0
 10
-219.116830
 20
290.947285
 30
0.0
 10
-219.147030
 20
290.932167
 30
0.0
  0
LWPOLYLINE
  5
1ab
100
AcDbEntity
  8
Layer_1
 62
7
100
AcDbPolyline
 90
4
 70
1
 10
-219.116930
 20
291.295007
 30
0.0
 10
-219.101830
 20
291.279889
 30
0.0
 10
-219.086730
 20
291.295007
 30
0.0
 10
-219.101830
 20
291.310125
 30
0.0
  0
LWPOLYLINE
  5
1ac
100
AcDbEntity
  8
Layer_1
 62
7
100
AcDbPolyline
 90
16
 70
1
 10
-219.434410
 20
291.521783
 30
0.0
 10
-219.419310
 20
291.476428
 30
0.0
 10
-219.358810
 20
291.446191
 30
0.0
 10
-219.283210
 20
291.415954
 30
0.0
 10
-219.237810
 20
291.415954
 30
0.0
 10
-219.147110
 20
291.446191
 30
0.0
 10
-219.101710
 20
291.476428
 30
0.0
 10
-219.086610
 20
291.521783
 30
0.0
 10
-219.086610
 20
291.552020
 30
0.0
 10
-219.101710
 20
291.597375
 30
0.0
 10
-219.147110
 20
291.642730
 30
0.0
 10
-219.237810
 20
291.657848
 30
0.0
 10
-219.283210
 20
291.657848
 30
0.0
 10
-219.358810
 20
291.642730
 30
0.0
 10
-219.419310
 20
291.597375
 30
0.0
 10
-219.434410
 20
291.552020
 30
0.0
  0
LWPOLYLINE
  5
1ad
100
AcDbEntity
  8
Layer_1
 62
7
100
AcDbPolyline
 90
16
 70
1
 10
-219.434410
 20
291.854388
 30
0.0
 10
-219.419310
 20
291.793914
 30
0.0
 10
-219.358810
 20
291.763677
 30
0.0
 10
-219.283210
 20
291.748559
 30
0.0
 10
-219.237810
 20
291.748559
 30
0.0
 10
-219.147110
 20
291.763677
 30
0.0
 10
-219.101710
 20
291.793914
 30
0.0
 10
-219.086610
 20
291.854388
 30
0.0
 10
-219.086610
 20
291.884625
 30
0.0
 10
-219.101710
 20
291.929980
 30
0.0
 10
-219.147110
 20
291.960217
 30
0.0
 10
-219.237810
 20
291.975335
 30
0.0
 10
-219.283210
 20
291.975335
 30
0.0
 10
-219.358810
 20
291.960217
 30
0.0
 10
-219.419310
 20
291.929980
 30
0.0
 10
-219.434410
 20
291.884625
 30
0.0
  0
LWPOLYLINE
  5
1ae
100
AcDbEntity
  8
Layer_1
 62
7
100
AcDbPolyline
 90
2
 70
0
 10
-219.434410
 20
292.247467
 30
0.0
 10
-219.132050
 20
292.247467
 30
0.0
  0
LWPOLYLINE
  5
1af
100
AcDbEntity
  8
Layer_1
 62
7
100
AcDbPolyline
 90
2
 70
0
 10
-219.283230
 20
292.096283
 30
0.0
 10
-219.283230
 20
292.398651
 30
0.0
  0
LWPOLYLINE
  5
1b0
100
AcDbEntity
  8
Layer_1
 62
7
100
AcDbPolyline
 90
2
 70
0
 10
-219.101810
 20
292.096283
 30
0.0
 10
-219.101810
 20
292.398651
 30
0.0
  0
LWPOLYLINE
  5
1b1
100
AcDbEntity
  8
Layer_1
 62
7
100
AcDbPolyline
 90
16
 70
1
 10
-219.434410
 20
292.610308
 30
0.0
 10
-219.419310
 20
292.564953
 30
0.0
 10
-219.358810
 20
292.519598
 30
0.0
 10
-219.283210
 20
292.504480
 30
0.0
 10
-219.237810
 20
292.504480
 30
0.0
 10
-219.147110
 20
292.519598
 30
0.0
 10
-219.101710
 20
292.564953
 30
0.0
 10
-219.086610
 20
292.610308
 30
0.0
 10
-219.086610
 20
292.640545
 30
0.0
 10
-219.101710
 20
292.685900
 30
0.0
 10
-219.147110
 20
292.731255
 30
0.0
 10
-219.237810
 20
292.746373
 30
0.0
 10
-219.283210
 20
292.746373
 30
0.0
 10
-219.358810
 20
292.731255
 30
0.0
 10
-219.419310
 20
292.685900
 30
0.0
 10
-219.434410
 20
292.640545
 30
0.0
  0
LWPOLYLINE
  5
1b2
100
AcDbEntity
  8
Layer_1
 62
7
100
AcDbPolyline
 90
4
 70
1
 10
-219.116930
 20
292.867321
 30
0.0
 10
-219.101830
 20
292.852203
 30
0.0
 10
-219.086730
 20
292.867321
 30
0.0
 10
-219.101830
 20
292.882439
 30
0.0
  0
LWPOLYLINE
  5
1b3
100
AcDbEntity
  8
Layer_1
 62
7
100
AcDbPolyline
 90
15
 70
0
 10
-219.434410
 20
293.033623
 30
0.0
 10
-219.434410
 20
293.215044
 30
0.0
 10
-219.298350
 20
293.124334
 30
0.0
 10
-219.298350
 20
293.169689
 30
0.0
 10
-219.283250
 20
293.199926
 30
0.0
 10
-219.268150
 20
293.215044
 30
0.0
 10
-219.222750
 20
293.230162
 30
0.0
 10
-219.177350
 20
293.230162
 30
0.0
 10
-219.131950
 20
293.215044
 30
0.0
 10
-219.101750
 20
293.184807
 30
0.0
 10
-219.086650
 20
293.139452
 30
0.0
 10
-219.086650
 20
293.094097
 30
0.0
 10
-219.101750
 20
293.033623
 30
0.0
 10
-219.116850
 20
293.018505
 30
0.0
 10
-219.147050
 20
293.003387
 30
0.0
  0
LWPOLYLINE
  5
1b4
100
AcDbEntity
  8
Layer_1
 62
7
100
AcDbPolyline
 90
16
 70
1
 10
-219.434410
 20
293.426702
 30
0.0
 10
-219.419310
 20
293.381347
 30
0.0
 10
-219.358810
 20
293.351110
 30
0.0
 10
-219.283210
 20
293.335992
 30
0.0
 10
-219.237810
 20
293.335992
 30
0.0
 10
-219.147110
 20
293.351110
 30
0.0
 10
-219.101710
 20
293.381347
 30
0.0
 10
-219.086610
 20
293.426702
 30
0.0
 10
-219.086610
 20
293.472057
 30
0.0
 10
-219.101710
 20
293.517412
 30
0.0
 10
-219.147110
 20
293.547649
 30
0.0
 10
-219.237810
 20
293.562767
 30
0.0
 10
-219.283210
 20
293.562767
 30
0.0
 10
-219.358810
 20
293.547649
 30
0.0
 10
-219.419310
 20
293.517412
 30
0.0
 10
-219.434410
 20
293.472057
 30
0.0
  0
ENDSEC
  0
SECTION
  2
OBJECTS
  0
DICTIONARY
  5
C
330
0
100
AcDbDictionary
  3
ACAD_GROUP
350
D
  3
ACAD_MLINESTYLE
350
17
  0
DICTIONARY
  5
D
330
C
100
AcDbDictionary
  0
DICTIONARY
  5
1A
330
C
100
AcDbDictionary
  0
DICTIONARY
  5
17
330
C
100
AcDbDictionary
  3
STANDARD
350
18
  0
DICTIONARY
  5
19
330
C
100
AcDbDictionary
  0
ENDSEC
  0
EOF
