  0
SECTION
  2
HEADER
  9
$ACADVER
  1
AC1014
  9
$HANDSEED
  5
FFFF
  9
$MEASUREMENT
 70
     1
  0
ENDSEC
  0
SECTION
  2
TABLES
  0
TABLE
  2
VPORT
  5
8
330
0
100
AcDbSymbolTable
 70
     4
  0
VPORT
  5
2E
330
8
100
AcDbSymbolTableRecord
100
AcDbViewportTableRecord
  2
*ACTIVE
 70
     0
 10
0.0
 20
0.0
 11
1.0
 21
1.0
 12
210.0
 22
148.5
 13
0.0
 23
0.0
 14
10.0
 24
10.0
 15
10.0
 25
10.0
 16
0.0
 26
0.0
 36
1.0
 17
0.0
 27
0.0
 37
0.0
 40
341.0
 41
1.24
 42
50.0
 43
0.0
 44
0.0
 50
0.0
 51
0.0
 71
     0
 72
   100
 73
     1
 74
     3
 75
     0
 76
     0
 77
     0
 78
     0
  0
ENDTAB
  0
TABLE
  2
LTYPE
  5
5
330
0
100
AcDbSymbolTable
 70
     1
  0
LTYPE
  5
14
330
5
100
AcDbSymbolTableRecord
100
AcDbLinetypeTableRecord
  2
BYBLOCK
 70
     0
  3

 72
    65
 73
     0
 40
0.0
  0
LTYPE
  5
15
330
5
100
AcDbSymbolTableRecord
100
AcDbLinetypeTableRecord
  2
BYLAYER
 70
     0
  3

 72
    65
 73
     0
 40
0.0
  0
LTYPE
  5
16
330
5
100
AcDbSymbolTableRecord
100
AcDbLinetypeTableRecord
  2
CONTINUOUS
 70
     0
  3
Solid line
 72
    65
 73
     0
 40
0.0
  0
ENDTAB
  0
TABLE
  2
LAYER
  5
2
100
AcDbSymbolTable
 70
1
  0
LAYER
  5
50
100
AcDbSymbolTableRecord
100
AcDbLayerTableRecord
  2
0
 70
0
  6
CONTINUOUS
  0
ENDTAB
  0
TABLE
  2
STYLE
  5
3
330
0
100
AcDbSymbolTable
 70
     1
  0
STYLE
  5
11
330
3
100
AcDbSymbolTableRecord
100
AcDbTextStyleTableRecord
  2
STANDARD
 70
     0
 40
0.0
 41
1.0
 50
0.0
 71
     0
 42
2.5
  3
txt
  4

  0
ENDTAB
  0
TABLE
  2
VIEW
  5
6
330
0
100
AcDbSymbolTable
 70
     0
  0
ENDTAB
  0
TABLE
  2
UCS
  5
7
330
0
100
AcDbSymbolTable
 70
     0
  0
ENDTAB
  0
TABLE
  2
APPID
  5
9
330
0
100
AcDbSymbolTable
 70
     2
  0
APPID
  5
12
330
9
100
AcDbSymbolTableRecord
100
AcDbRegAppTableRecord
  2
ACAD
 70
     0
  0
ENDTAB
  0
TABLE
  2
DIMSTYLE
  5
A
330
0
100
AcDbSymbolTable
 70
     1
  0
DIMSTYLE
105
27
330
A
100
AcDbSymbolTableRecord
100
AcDbDimStyleTableRecord
  2
ISO-25
 70
     0
  3

  4

  5

  6

  7

 40
1.0
 41
2.5
 42
0.625
 43
3.75
 44
1.25
 45
0.0
 46
0.0
 47
0.0
 48
0.0
140
2.5
141
2.5
142
0.0
143
0.03937007874016
144
1.0
145
0.0
146
1.0
147
0.625
 71
     0
 72
     0
 73
     0
 74
     0
 75
     0
 76
     0
 77
     1
 78
     8
170
     0
171
     3
172
     1
173
     0
174
     0
175
     0
176
     0
177
     0
178
     0
270
     2
271
     2
272
     2
273
     2
274
     3
340
11
275
     0
280
     0
281
     0
282
     0
283
     0
284
     8
285
     0
286
     0
287
     3
288
     0
  0
ENDTAB
  0
TABLE
  2
BLOCK_RECORD
  5
1
330
0
100
AcDbSymbolTable
 70
     1
  0
BLOCK_RECORD
  5
1F
330
1
100
AcDbSymbolTableRecord
100
AcDbBlockTableRecord
  2
*MODEL_SPACE
  0
BLOCK_RECORD
  5
1B
330
1
100
AcDbSymbolTableRecord
100
AcDbBlockTableRecord
  2
*PAPER_SPACE
  0
ENDTAB
  0
ENDSEC
  0
SECTION
  2
BLOCKS
  0
BLOCK
  5
20
330
1F
100
AcDbEntity
  8
0
100
AcDbBlockBegin
  2
*MODEL_SPACE
 70
     0
 10
0.0
 20
0.0
 30
0.0
  3
*MODEL_SPACE
  1

  0
ENDBLK
  5
21
330
1F
100
AcDbEntity
  8
0
100
AcDbBlockEnd
  0
BLOCK
  5
1C
330
1B
100
AcDbEntity
 67
     1
  8
0
100
AcDbBlockBegin
  2
*PAPER_SPACE
  1

  0
ENDBLK
  5
1D
330
1B
100
AcDbEntity
 67
     1
  8
0
100
AcDbBlockEnd
  0
ENDSEC
  0
SECTION
  2
ENTITIES
  0
LWPOLYLINE
  5
100
100
AcDbEntity
  8
0
 62
7
100
AcDbPolyline
 90
45
 70
1
 10
2.594674
 20
3.857831
 30
0.0
 10
2.367297
 20
3.258902
 30
0.0
 10
2.091345
 20
2.530263
 30
0.0
 10
1.814876
 20
1.801627
 30
0.0
 10
2.012280
 20
1.801627
 30
0.0
 10
2.210201
 20
1.801627
 30
0.0
 10
2.407088
 20
1.801627
 30
0.0
 10
2.604492
 20
1.801627
 30
0.0
 10
2.801896
 20
1.801627
 30
0.0
 10
2.859774
 20
1.957173
 30
0.0
 10
2.917135
 20
2.113235
 30
0.0
 10
2.975012
 20
2.268265
 30
0.0
 10
3.032890
 20
2.424327
 30
0.0
 10
3.090251
 20
2.579873
 30
0.0
 10
3.366203
 20
2.579873
 30
0.0
 10
3.642155
 20
2.579873
 30
0.0
 10
3.917590
 20
2.579873
 30
0.0
 10
4.193026
 20
2.579873
 30
0.0
 10
4.468978
 20
2.579873
 30
0.0
 10
4.521688
 20
2.424327
 30
0.0
 10
4.574915
 20
2.268265
 30
0.0
 10
4.627624
 20
2.113235
 30
0.0
 10
4.680334
 20
1.957173
 30
0.0
 10
4.733561
 20
1.801627
 30
0.0
 10
4.944918
 20
1.801627
 30
0.0
 10
5.156791
 20
1.801627
 30
0.0
 10
5.368148
 20
1.801627
 30
0.0
 10
5.580021
 20
1.801627
 30
0.0
 10
5.791895
 20
1.801627
 30
0.0
 10
5.510775
 20
2.530782
 30
0.0
 10
5.229655
 20
3.259418
 30
0.0
 10
4.998661
 20
3.857831
 30
0.0
 10
4.047298
 20
3.857831
 30
0.0
 10
4.053499
 20
3.838194
 30
0.0
 10
4.140833
 20
3.552941
 30
0.0
 10
4.228166
 20
3.267686
 30
0.0
 10
4.046781
 20
3.267686
 30
0.0
 10
3.864880
 20
3.267686
 30
0.0
 10
3.683496
 20
3.267686
 30
0.0
 10
3.502112
 20
3.267686
 30
0.0
 10
3.320727
 20
3.267686
 30
0.0
 10
3.414779
 20
3.552423
 30
0.0
 10
3.508830
 20
3.838194
 30
0.0
 10
3.515548
 20
3.857831
 30
0.0
 10
2.594674
 20
3.857831
 30
0.0
  0
LWPOLYLINE
  5
101
100
AcDbEntity
  8
0
 62
7
100
AcDbPolyline
 90
20
 70
1
 10
3.196187
 20
5.445331
 30
0.0
 10
2.919718
 20
4.716177
 30
0.0
 10
2.643766
 20
3.987541
 30
0.0
 10
2.594674
 20
3.857831
 30
0.0
 10
3.515548
 20
3.857831
 30
0.0
 10
3.602881
 20
4.123449
 30
0.0
 10
3.697449
 20
4.408702
 30
0.0
 10
3.791500
 20
4.693957
 30
0.0
 10
3.878833
 20
4.408702
 30
0.0
 10
3.966166
 20
4.123449
 30
0.0
 10
4.047298
 20
3.857831
 30
0.0
 10
4.998661
 20
3.857831
 30
0.0
 10
4.948535
 20
3.988057
 30
0.0
 10
4.667932
 20
4.716695
 30
0.0
 10
4.386812
 20
5.445331
 30
0.0
 10
4.148584
 20
5.445331
 30
0.0
 10
3.910356
 20
5.445331
 30
0.0
 10
3.672644
 20
5.445331
 30
0.0
 10
3.434416
 20
5.445331
 30
0.0
 10
3.196187
 20
5.445331
 30
0.0
  0
LWPOLYLINE
  5
102
100
AcDbEntity
  8
0
 62
7
100
AcDbPolyline
 90
51
 70
1
 10
5.789311
 20
5.405541
 30
0.0
 10
5.789311
 20
4.953373
 30
0.0
 10
5.789311
 20
4.500687
 30
0.0
 10
5.789311
 20
4.048001
 30
0.0
 10
5.789311
 20
3.595833
 30
0.0
 10
5.789311
 20
3.143147
 30
0.0
 10
5.849772
 20
2.659973
 30
0.0
 10
6.062679
 20
2.223307
 30
0.0
 10
6.432682
 20
1.909114
 30
0.0
 10
6.891052
 20
1.744782
 30
0.0
 10
7.376811
 20
1.698789
 30
0.0
 10
7.862052
 20
1.744782
 30
0.0
 10
8.320422
 20
1.909114
 30
0.0
 10
8.690426
 20
2.223307
 30
0.0
 10
8.903333
 20
2.659973
 30
0.0
 10
8.964311
 20
3.143147
 30
0.0
 10
8.964311
 20
3.595314
 30
0.0
 10
8.964311
 20
4.048001
 30
0.0
 10
8.964311
 20
4.500687
 30
0.0
 10
8.964311
 20
4.952854
 30
0.0
 10
8.964311
 20
5.405541
 30
0.0
 10
8.774141
 20
5.405541
 30
0.0
 10
8.583972
 20
5.405541
 30
0.0
 10
8.394320
 20
5.405541
 30
0.0
 10
8.204150
 20
5.405541
 30
0.0
 10
8.013981
 20
5.405541
 30
0.0
 10
8.013981
 20
4.985411
 30
0.0
 10
8.013981
 20
4.565282
 30
0.0
 10
8.013981
 20
4.145153
 30
0.0
 10
8.013981
 20
3.724508
 30
0.0
 10
8.013981
 20
3.304895
 30
0.0
 10
8.000545
 20
3.057880
 30
0.0
 10
7.947318
 20
2.817069
 30
0.0
 10
7.829496
 20
2.601061
 30
0.0
 10
7.630025
 20
2.459466
 30
0.0
 10
7.387146
 20
2.418128
 30
0.0
 10
7.144267
 20
2.459466
 30
0.0
 10
6.945312
 20
2.601061
 30
0.0
 10
6.826973
 20
2.816550
 30
0.0
 10
6.773747
 20
3.057880
 30
0.0
 10
6.760311
 20
3.304895
 30
0.0
 10
6.760311
 20
3.724508
 30
0.0
 10
6.760311
 20
4.144637
 30
0.0
 10
6.760311
 20
4.565282
 30
0.0
 10
6.760311
 20
4.985411
 30
0.0
 10
6.760311
 20
5.405541
 30
0.0
 10
6.566007
 20
5.405541
 30
0.0
 10
6.371704
 20
5.405541
 30
0.0
 10
6.177401
 20
5.405541
 30
0.0
 10
5.983097
 20
5.405541
 30
0.0
 10
5.789311
 20
5.405541
 30
0.0
  0
LWPOLYLINE
  5
103
100
AcDbEntity
  8
0
 62
7
100
AcDbPolyline
 90
61
 70
1
 10
11.011731
 20
5.508376
 30
0.0
 10
10.575582
 20
5.477888
 30
0.0
 10
10.150801
 20
5.372468
 30
0.0
 10
9.770463
 20
5.160595
 30
0.0
 10
9.506913
 20
4.815914
 30
0.0
 10
9.424231
 20
4.389583
 30
0.0
 10
9.532235
 20
3.895556
 30
0.0
 10
9.883635
 20
3.534855
 30
0.0
 10
10.352340
 20
3.337449
 30
0.0
 10
10.837582
 20
3.178286
 30
0.0
 10
11.147123
 20
2.815003
 30
0.0
 10
11.112500
 20
2.662555
 30
0.0
 10
11.005013
 20
2.549385
 30
0.0
 10
10.859802
 20
2.489957
 30
0.0
 10
10.703739
 20
2.464636
 30
0.0
 10
10.546126
 20
2.457918
 30
0.0
 10
10.338904
 20
2.466702
 30
0.0
 10
10.133232
 20
2.495124
 30
0.0
 10
9.931177
 20
2.544217
 30
0.0
 10
9.734806
 20
2.611914
 30
0.0
 10
9.546187
 20
2.698729
 30
0.0
 10
9.531718
 20
2.538016
 30
0.0
 10
9.517765
 20
2.376784
 30
0.0
 10
9.503296
 20
2.216071
 30
0.0
 10
9.488826
 20
2.055357
 30
0.0
 10
9.474874
 20
1.894644
 30
0.0
 10
9.687781
 20
1.838317
 30
0.0
 10
9.903272
 20
1.794910
 30
0.0
 10
10.120829
 20
1.763387
 30
0.0
 10
10.339937
 20
1.744782
 30
0.0
 10
10.559562
 20
1.738064
 30
0.0
 10
11.013281
 20
1.769070
 30
0.0
 10
11.453564
 20
1.881209
 30
0.0
 10
11.840621
 20
2.116852
 30
0.0
 10
12.089701
 20
2.492539
 30
0.0
 10
12.163082
 20
2.939542
 30
0.0
 10
12.058179
 20
3.425301
 30
0.0
 10
11.716597
 20
3.783933
 30
0.0
 10
11.256677
 20
3.979788
 30
0.0
 10
10.776087
 20
4.122931
 30
0.0
 10
10.440707
 20
4.447461
 30
0.0
 10
10.484115
 20
4.604557
 30
0.0
 10
10.608655
 20
4.709459
 30
0.0
 10
10.764718
 20
4.760619
 30
0.0
 10
10.929049
 20
4.781807
 30
0.0
 10
11.093897
 20
4.786458
 30
0.0
 10
11.257711
 20
4.780256
 30
0.0
 10
11.419458
 20
4.760619
 30
0.0
 10
11.579138
 20
4.727030
 30
0.0
 10
11.735718
 20
4.680003
 30
0.0
 10
11.887647
 20
4.619543
 30
0.0
 10
11.900566
 20
4.770437
 30
0.0
 10
11.912968
 20
4.921332
 30
0.0
 10
11.925887
 20
5.072227
 30
0.0
 10
11.938289
 20
5.223124
 30
0.0
 10
11.951209
 20
5.373502
 30
0.0
 10
11.767240
 20
5.423628
 30
0.0
 10
11.580688
 20
5.461868
 30
0.0
 10
11.392070
 20
5.489258
 30
0.0
 10
11.202417
 20
5.504759
 30
0.0
 10
11.011731
 20
5.508376
 30
0.0
  0
LWPOLYLINE
  5
104
100
AcDbEntity
  8
0
 62
7
100
AcDbPolyline
 90
41
 70
1
 10
12.419397
 20
5.445331
 30
0.0
 10
12.419397
 20
5.301155
 30
0.0
 10
12.419397
 20
5.156978
 30
0.0
 10
12.419397
 20
5.013317
 30
0.0
 10
12.419397
 20
4.869140
 30
0.0
 10
12.419397
 20
4.725479
 30
0.0
 10
12.598714
 20
4.725479
 30
0.0
 10
12.778548
 20
4.725479
 30
0.0
 10
12.957865
 20
4.725479
 30
0.0
 10
13.137183
 20
4.725479
 30
0.0
 10
13.316500
 20
4.725479
 30
0.0
 10
13.316500
 20
4.141018
 30
0.0
 10
13.316500
 20
3.556042
 30
0.0
 10
13.316500
 20
2.971580
 30
0.0
 10
13.316500
 20
2.386603
 30
0.0
 10
13.316500
 20
1.801627
 30
0.0
 10
13.510803
 20
1.801627
 30
0.0
 10
13.705107
 20
1.801627
 30
0.0
 10
13.898893
 20
1.801627
 30
0.0
 10
14.093197
 20
1.801627
 30
0.0
 10
14.287500
 20
1.801627
 30
0.0
 10
14.287500
 20
2.386087
 30
0.0
 10
14.287500
 20
2.971064
 30
0.0
 10
14.287500
 20
3.556042
 30
0.0
 10
14.287500
 20
4.141018
 30
0.0
 10
14.287500
 20
4.725479
 30
0.0
 10
14.466817
 20
4.725479
 30
0.0
 10
14.646651
 20
4.725479
 30
0.0
 10
14.825452
 20
4.725479
 30
0.0
 10
15.005286
 20
4.725479
 30
0.0
 10
15.184603
 20
4.725479
 30
0.0
 10
15.184603
 20
4.869140
 30
0.0
 10
15.184603
 20
5.013317
 30
0.0
 10
15.184603
 20
5.156978
 30
0.0
 10
15.184603
 20
5.301155
 30
0.0
 10
15.184603
 20
5.445331
 30
0.0
 10
14.631665
 20
5.445331
 30
0.0
 10
14.078727
 20
5.445331
 30
0.0
 10
13.525789
 20
5.445331
 30
0.0
 10
12.972335
 20
5.445331
 30
0.0
 10
12.419397
 20
5.445331
 30
0.0
  0
LWPOLYLINE
  5
105
100
AcDbEntity
  8
0
 62
7
100
AcDbPolyline
 90
65
 70
1
 10
15.504480
 20
4.337905
 30
0.0
 10
15.504480
 20
4.012861
 30
0.0
 10
15.504480
 20
3.289909
 30
0.0
 10
15.504480
 20
2.566956
 30
0.0
 10
15.504480
 20
1.844000
 30
0.0
 10
15.698783
 20
1.844000
 30
0.0
 10
15.893087
 20
1.844000
 30
0.0
 10
16.087390
 20
1.844000
 30
0.0
 10
16.281693
 20
1.844000
 30
0.0
 10
16.475480
 20
1.844000
 30
0.0
 10
16.475480
 20
2.132356
 30
0.0
 10
16.475480
 20
2.421226
 30
0.0
 10
16.475480
 20
2.709063
 30
0.0
 10
16.475480
 20
2.997936
 30
0.0
 10
16.475480
 20
3.286289
 30
0.0
 10
16.516304
 20
3.286289
 30
0.0
 10
16.557129
 20
3.286289
 30
0.0
 10
16.597953
 20
3.286289
 30
0.0
 10
16.638778
 20
3.286289
 30
0.0
 10
16.679085
 20
3.286289
 30
0.0
 10
16.904911
 20
3.252184
 30
0.0
 10
17.087329
 20
3.118342
 30
0.0
 10
17.205668
 20
2.922487
 30
0.0
 10
17.291968
 20
2.710098
 30
0.0
 10
17.364831
 20
2.492539
 30
0.0
 10
17.406173
 20
2.360766
 30
0.0
 10
17.448030
 20
2.228990
 30
0.0
 10
17.489889
 20
2.097214
 30
0.0
 10
17.531746
 20
1.965441
 30
0.0
 10
17.573604
 20
1.833666
 30
0.0
 10
17.775659
 20
1.833666
 30
0.0
 10
17.978231
 20
1.833666
 30
0.0
 10
18.179769
 20
1.833666
 30
0.0
 10
18.382340
 20
1.833666
 30
0.0
 10
18.584395
 20
1.833666
 30
0.0
 10
18.513599
 20
2.032103
 30
0.0
 10
18.442285
 20
2.230541
 30
0.0
 10
18.371488
 20
2.428978
 30
0.0
 10
18.300692
 20
2.627416
 30
0.0
 10
18.229895
 20
2.825853
 30
0.0
 10
18.157031
 20
3.009821
 30
0.0
 10
18.088301
 20
3.194823
 30
0.0
 10
18.009237
 20
3.375692
 30
0.0
 10
17.888831
 20
3.531238
 30
0.0
 10
17.713648
 20
3.619603
 30
0.0
 10
17.953426
 20
3.700219
 30
0.0
 10
18.158065
 20
3.847497
 30
0.0
 10
18.311027
 20
4.048517
 30
0.0
 10
18.398360
 20
4.285197
 30
0.0
 10
18.401461
 20
4.337905
 30
0.0
 10
17.443897
 20
4.337905
 30
0.0
 10
17.415475
 20
4.179776
 30
0.0
 10
17.294551
 20
4.036631
 30
0.0
 10
17.118335
 20
3.967903
 30
0.0
 10
16.930233
 20
3.945681
 30
0.0
 10
16.740063
 20
3.942064
 30
0.0
 10
16.687353
 20
3.942064
 30
0.0
 10
16.634644
 20
3.942064
 30
0.0
 10
16.581417
 20
3.942064
 30
0.0
 10
16.528707
 20
3.942064
 30
0.0
 10
16.475480
 20
3.942064
 30
0.0
 10
16.475480
 20
4.107429
 30
0.0
 10
16.475480
 20
4.272793
 30
0.0
 10
16.475480
 20
4.337905
 30
0.0
 10
15.504480
 20
4.337905
 30
0.0
  0
LWPOLYLINE
  5
106
100
AcDbEntity
  8
0
 62
7
100
AcDbPolyline
 90
30
 70
1
 10
15.504480
 20
5.458251
 30
0.0
 10
15.504480
 20
4.735298
 30
0.0
 10
15.504480
 20
4.337905
 30
0.0
 10
16.475480
 20
4.337905
 30
0.0
 10
16.475480
 20
4.437642
 30
0.0
 10
16.475480
 20
4.602488
 30
0.0
 10
16.475480
 20
4.767853
 30
0.0
 10
16.528707
 20
4.767853
 30
0.0
 10
16.581417
 20
4.767853
 30
0.0
 10
16.634127
 20
4.767853
 30
0.0
 10
16.687353
 20
4.767853
 30
0.0
 10
16.740063
 20
4.767853
 30
0.0
 10
16.924032
 20
4.761135
 30
0.0
 10
17.106449
 20
4.734780
 30
0.0
 10
17.278532
 20
4.670703
 30
0.0
 10
17.408240
 20
4.543060
 30
0.0
 10
17.449064
 20
4.365810
 30
0.0
 10
17.443897
 20
4.337905
 30
0.0
 10
18.401461
 20
4.337905
 30
0.0
 10
18.412313
 20
4.537377
 30
0.0
 10
18.354952
 20
4.867590
 30
0.0
 10
18.171501
 20
5.146643
 30
0.0
 10
17.893481
 20
5.332677
 30
0.0
 10
17.572571
 20
5.429829
 30
0.0
 10
17.237708
 20
5.458251
 30
0.0
 10
16.890959
 20
5.458251
 30
0.0
 10
16.544727
 20
5.458251
 30
0.0
 10
16.197978
 20
5.458251
 30
0.0
 10
15.851229
 20
5.458251
 30
0.0
 10
15.504480
 20
5.458251
 30
0.0
  0
LWPOLYLINE
  5
107
100
AcDbEntity
  8
0
 62
7
100
AcDbPolyline
 90
43
 70
1
 10
19.459277
 20
3.798403
 30
0.0
 10
19.254122
 20
3.258902
 30
0.0
 10
18.977653
 20
2.530263
 30
0.0
 10
18.700667
 20
1.801627
 30
0.0
 10
18.898071
 20
1.801627
 30
0.0
 10
19.095475
 20
1.801627
 30
0.0
 10
19.292879
 20
1.801627
 30
0.0
 10
19.490283
 20
1.801627
 30
0.0
 10
19.687687
 20
1.801627
 30
0.0
 10
19.745048
 20
1.957173
 30
0.0
 10
19.801892
 20
2.113235
 30
0.0
 10
19.859253
 20
2.268265
 30
0.0
 10
19.916097
 20
2.424327
 30
0.0
 10
19.973458
 20
2.579873
 30
0.0
 10
20.249410
 20
2.579873
 30
0.0
 10
20.525879
 20
2.579873
 30
0.0
 10
20.801831
 20
2.579873
 30
0.0
 10
21.078300
 20
2.579873
 30
0.0
 10
21.354769
 20
2.579873
 30
0.0
 10
21.407479
 20
2.424327
 30
0.0
 10
21.460189
 20
2.268265
 30
0.0
 10
21.513416
 20
2.113235
 30
0.0
 10
21.566126
 20
1.957173
 30
0.0
 10
21.619352
 20
1.801627
 30
0.0
 10
21.830709
 20
1.801627
 30
0.0
 10
22.042582
 20
1.801627
 30
0.0
 10
22.253939
 20
1.801627
 30
0.0
 10
22.465812
 20
1.801627
 30
0.0
 10
22.677686
 20
1.801627
 30
0.0
 10
22.397083
 20
2.530782
 30
0.0
 10
22.116480
 20
3.259418
 30
0.0
 10
21.908740
 20
3.798403
 30
0.0
 10
20.957377
 20
3.798403
 30
0.0
 10
21.033342
 20
3.552941
 30
0.0
 10
21.121708
 20
3.267686
 30
0.0
 10
20.939290
 20
3.267686
 30
0.0
 10
20.756356
 20
3.267686
 30
0.0
 10
20.573938
 20
3.267686
 30
0.0
 10
20.391520
 20
3.267686
 30
0.0
 10
20.209102
 20
3.267686
 30
0.0
 10
20.303153
 20
3.552423
 30
0.0
 10
20.384286
 20
3.798403
 30
0.0
 10
19.459277
 20
3.798403
 30
0.0
  0
LWPOLYLINE
  5
108
100
AcDbEntity
  8
0
 62
7
100
AcDbPolyline
 90
22
 70
1
 10
20.084562
 20
5.445331
 30
0.0
 10
19.807576
 20
4.716177
 30
0.0
 10
19.531107
 20
3.987541
 30
0.0
 10
19.459277
 20
3.798403
 30
0.0
 10
20.384286
 20
3.798403
 30
0.0
 10
20.397205
 20
3.838194
 30
0.0
 10
20.491256
 20
4.123449
 30
0.0
 10
20.585824
 20
4.408702
 30
0.0
 10
20.679875
 20
4.693957
 30
0.0
 10
20.768241
 20
4.408702
 30
0.0
 10
20.856608
 20
4.123449
 30
0.0
 10
20.944975
 20
3.838194
 30
0.0
 10
20.957377
 20
3.798403
 30
0.0
 10
21.908740
 20
3.798403
 30
0.0
 10
21.835876
 20
3.988057
 30
0.0
 10
21.555790
 20
4.716695
 30
0.0
 10
21.275187
 20
5.445331
 30
0.0
 10
21.036959
 20
5.445331
 30
0.0
 10
20.798730
 20
5.445331
 30
0.0
 10
20.561019
 20
5.445331
 30
0.0
 10
20.322791
 20
5.445331
 30
0.0
 10
20.084562
 20
5.445331
 30
0.0
  0
LWPOLYLINE
  5
109
100
AcDbEntity
  8
0
 62
7
100
AcDbPolyline
 90
31
 70
1
 10
23.061125
 20
5.445331
 30
0.0
 10
23.061125
 20
4.716177
 30
0.0
 10
23.061125
 20
3.988057
 30
0.0
 10
23.061125
 20
3.259418
 30
0.0
 10
23.061125
 20
2.530263
 30
0.0
 10
23.061125
 20
1.801627
 30
0.0
 10
23.555668
 20
1.801627
 30
0.0
 10
24.050728
 20
1.801627
 30
0.0
 10
24.545272
 20
1.801627
 30
0.0
 10
25.040332
 20
1.801627
 30
0.0
 10
25.534876
 20
1.801627
 30
0.0
 10
25.534876
 20
1.945804
 30
0.0
 10
25.534876
 20
2.089981
 30
0.0
 10
25.534876
 20
2.233642
 30
0.0
 10
25.534876
 20
2.377818
 30
0.0
 10
25.534876
 20
2.521479
 30
0.0
 10
25.234635
 20
2.521479
 30
0.0
 10
24.933879
 20
2.521479
 30
0.0
 10
24.633122
 20
2.521479
 30
0.0
 10
24.332365
 20
2.521479
 30
0.0
 10
24.032125
 20
2.521479
 30
0.0
 10
24.032125
 20
3.105938
 30
0.0
 10
24.032125
 20
3.690916
 30
0.0
 10
24.032125
 20
4.275378
 30
0.0
 10
24.032125
 20
4.860354
 30
0.0
 10
24.032125
 20
5.445331
 30
0.0
 10
23.837821
 20
5.445331
 30
0.0
 10
23.643518
 20
5.445331
 30
0.0
 10
23.449731
 20
5.445331
 30
0.0
 10
23.255428
 20
5.445331
 30
0.0
 10
23.061125
 20
5.445331
 30
0.0
  0
LWPOLYLINE
  5
10a
100
AcDbEntity
  8
0
 62
7
100
AcDbPolyline
 90
5
 70
1
 10
25.968958
 20
5.445331
 30
0.0
 10
25.968958
 20
1.801627
 30
0.0
 10
26.939957
 20
1.801627
 30
0.0
 10
26.939957
 20
5.445331
 30
0.0
 10
25.968958
 20
5.445331
 30
0.0
  0
LWPOLYLINE
  5
10b
100
AcDbEntity
  8
0
 62
7
100
AcDbPolyline
 90
47
 70
1
 10
28.177609
 20
4.086759
 30
0.0
 10
28.140401
 20
3.987541
 30
0.0
 10
27.866517
 20
3.258902
 30
0.0
 10
27.592115
 20
2.530263
 30
0.0
 10
27.318229
 20
1.801627
 30
0.0
 10
27.515632
 20
1.801627
 30
0.0
 10
27.713038
 20
1.801627
 30
0.0
 10
27.910441
 20
1.801627
 30
0.0
 10
28.107846
 20
1.801627
 30
0.0
 10
28.305249
 20
1.801627
 30
0.0
 10
28.362092
 20
1.957173
 30
0.0
 10
28.419454
 20
2.113235
 30
0.0
 10
28.476816
 20
2.268265
 30
0.0
 10
28.533659
 20
2.424327
 30
0.0
 10
28.591021
 20
2.579873
 30
0.0
 10
28.864388
 20
2.579873
 30
0.0
 10
29.138274
 20
2.579873
 30
0.0
 10
29.411642
 20
2.579873
 30
0.0
 10
29.685009
 20
2.579873
 30
0.0
 10
29.958895
 20
2.579873
 30
0.0
 10
30.011605
 20
2.424327
 30
0.0
 10
30.064832
 20
2.268265
 30
0.0
 10
30.117542
 20
2.113235
 30
0.0
 10
30.170252
 20
1.957173
 30
0.0
 10
30.223479
 20
1.801627
 30
0.0
 10
30.434836
 20
1.801627
 30
0.0
 10
30.646709
 20
1.801627
 30
0.0
 10
30.858066
 20
1.801627
 30
0.0
 10
31.069939
 20
1.801627
 30
0.0
 10
31.281812
 20
1.801627
 30
0.0
 10
31.001208
 20
2.530782
 30
0.0
 10
30.720607
 20
3.259418
 30
0.0
 10
30.440003
 20
3.988057
 30
0.0
 10
30.402279
 20
4.086759
 30
0.0
 10
29.472102
 20
4.086759
 30
0.0
 10
29.549101
 20
3.838194
 30
0.0
 10
29.637466
 20
3.552941
 30
0.0
 10
29.725834
 20
3.267686
 30
0.0
 10
29.543417
 20
3.267686
 30
0.0
 10
29.360482
 20
3.267686
 30
0.0
 10
29.178065
 20
3.267686
 30
0.0
 10
28.995645
 20
3.267686
 30
0.0
 10
28.813228
 20
3.267686
 30
0.0
 10
28.907280
 20
3.552423
 30
0.0
 10
29.001331
 20
3.838194
 30
0.0
 10
29.083497
 20
4.086759
 30
0.0
 10
28.177609
 20
4.086759
 30
0.0
  0
LWPOLYLINE
  5
10c
100
AcDbEntity
  8
0
 62
7
100
AcDbPolyline
 90
18
 70
1
 10
28.688689
 20
5.445331
 30
0.0
 10
28.414803
 20
4.716177
 30
0.0
 10
28.177609
 20
4.086759
 30
0.0
 10
29.083497
 20
4.086759
 30
0.0
 10
29.095898
 20
4.123449
 30
0.0
 10
29.189950
 20
4.408702
 30
0.0
 10
29.284001
 20
4.693957
 30
0.0
 10
29.372367
 20
4.408702
 30
0.0
 10
29.460735
 20
4.123449
 30
0.0
 10
29.472102
 20
4.086759
 30
0.0
 10
30.402279
 20
4.086759
 30
0.0
 10
30.159915
 20
4.716695
 30
0.0
 10
29.879314
 20
5.445331
 30
0.0
 10
29.641086
 20
5.445331
 30
0.0
 10
29.402857
 20
5.445331
 30
0.0
 10
29.165145
 20
5.445331
 30
0.0
 10
28.926917
 20
5.445331
 30
0.0
 10
28.688689
 20
5.445331
 30
0.0
  0
LWPOLYLINE
  5
10d
100
AcDbEntity
  8
0
 62
7
100
AcDbPolyline
 90
61
 70
1
 10
31.628043
 20
5.445331
 30
0.0
 10
31.628043
 20
4.716177
 30
0.0
 10
31.628043
 20
3.988057
 30
0.0
 10
31.628043
 20
3.259418
 30
0.0
 10
31.628043
 20
2.530263
 30
0.0
 10
31.628043
 20
1.801627
 30
0.0
 10
31.807362
 20
1.801627
 30
0.0
 10
31.986162
 20
1.801627
 30
0.0
 10
32.164962
 20
1.801627
 30
0.0
 10
32.343762
 20
1.801627
 30
0.0
 10
32.522562
 20
1.801627
 30
0.0
 10
32.516360
 20
2.299271
 30
0.0
 10
32.509643
 20
2.797432
 30
0.0
 10
32.503443
 20
3.295592
 30
0.0
 10
32.497242
 20
3.793752
 30
0.0
 10
32.491040
 20
4.291396
 30
0.0
 10
32.492590
 20
4.291396
 30
0.0
 10
32.495175
 20
4.291396
 30
0.0
 10
32.497242
 20
4.291396
 30
0.0
 10
32.499308
 20
4.291396
 30
0.0
 10
32.501374
 20
4.291396
 30
0.0
 10
32.755623
 20
3.793752
 30
0.0
 10
33.010388
 20
3.295592
 30
0.0
 10
33.265152
 20
2.797948
 30
0.0
 10
33.519401
 20
2.299787
 30
0.0
 10
33.774166
 20
1.801627
 30
0.0
 10
34.015495
 20
1.801627
 30
0.0
 10
34.256824
 20
1.801627
 30
0.0
 10
34.498153
 20
1.801627
 30
0.0
 10
34.739482
 20
1.801627
 30
0.0
 10
34.980811
 20
1.801627
 30
0.0
 10
34.980811
 20
2.530782
 30
0.0
 10
34.980811
 20
3.258902
 30
0.0
 10
34.980811
 20
3.987541
 30
0.0
 10
34.980811
 20
4.716695
 30
0.0
 10
34.980811
 20
5.445331
 30
0.0
 10
34.802527
 20
5.445331
 30
0.0
 10
34.624759
 20
5.445331
 30
0.0
 10
34.446993
 20
5.445331
 30
0.0
 10
34.269225
 20
5.445331
 30
0.0
 10
34.091459
 20
5.445331
 30
0.0
 10
34.094560
 20
4.950788
 30
0.0
 10
34.097661
 20
4.455729
 30
0.0
 10
34.101278
 20
3.960667
 30
0.0
 10
34.104379
 20
3.466124
 30
0.0
 10
34.107480
 20
2.971064
 30
0.0
 10
34.105929
 20
2.971064
 30
0.0
 10
34.104379
 20
2.971064
 30
0.0
 10
34.102828
 20
2.971064
 30
0.0
 10
34.101278
 20
2.971064
 30
0.0
 10
34.099728
 20
2.971064
 30
0.0
 10
33.853231
 20
3.465608
 30
0.0
 10
33.606216
 20
3.960667
 30
0.0
 10
33.359720
 20
4.455729
 30
0.0
 10
33.113223
 20
4.950272
 30
0.0
 10
32.866727
 20
5.445331
 30
0.0
 10
32.618680
 20
5.445331
 30
0.0
 10
32.371152
 20
5.445331
 30
0.0
 10
32.123621
 20
5.445331
 30
0.0
 10
31.876090
 20
5.445331
 30
0.0
 10
31.628043
 20
5.445331
 30
0.0
  0
LWPOLYLINE
  5
10e
100
AcDbEntity
  8
0
 62
7
100
AcDbPolyline
 90
81
 70
1
 10
37.192561
 20
5.445331
 30
0.0
 10
37.192561
 20
4.716177
 30
0.0
 10
37.192561
 20
3.988057
 30
0.0
 10
37.192561
 20
3.259418
 30
0.0
 10
37.192561
 20
2.530263
 30
0.0
 10
37.192561
 20
1.801627
 30
0.0
 10
37.382730
 20
1.801627
 30
0.0
 10
37.573418
 20
1.801627
 30
0.0
 10
37.764104
 20
1.801627
 30
0.0
 10
37.954273
 20
1.801627
 30
0.0
 10
38.144958
 20
1.801627
 30
0.0
 10
38.140825
 20
2.360766
 30
0.0
 10
38.136690
 20
2.920421
 30
0.0
 10
38.132038
 20
3.479559
 30
0.0
 10
38.127906
 20
4.039216
 30
0.0
 10
38.123770
 20
4.598355
 30
0.0
 10
38.125839
 20
4.598355
 30
0.0
 10
38.127906
 20
4.598355
 30
0.0
 10
38.130488
 20
4.598355
 30
0.0
 10
38.132557
 20
4.598355
 30
0.0
 10
38.134623
 20
4.598355
 30
0.0
 10
38.311357
 20
4.039216
 30
0.0
 10
38.489123
 20
3.480078
 30
0.0
 10
38.666372
 20
2.920421
 30
0.0
 10
38.843625
 20
2.361282
 30
0.0
 10
39.020874
 20
1.801627
 30
0.0
 10
39.199159
 20
1.801627
 30
0.0
 10
39.377440
 20
1.801627
 30
0.0
 10
39.555724
 20
1.801627
 30
0.0
 10
39.734008
 20
1.801627
 30
0.0
 10
39.912293
 20
1.801627
 30
0.0
 10
40.098326
 20
2.360766
 30
0.0
 10
40.284879
 20
2.920421
 30
0.0
 10
40.470915
 20
3.479559
 30
0.0
 10
40.657468
 20
4.039216
 30
0.0
 10
40.843502
 20
4.598355
 30
0.0
 10
40.845568
 20
4.598355
 30
0.0
 10
40.848153
 20
4.598355
 30
0.0
 10
40.850219
 20
4.598355
 30
0.0
 10
40.852286
 20
4.598355
 30
0.0
 10
40.854355
 20
4.598355
 30
0.0
 10
40.851254
 20
4.039216
 30
0.0
 10
40.848153
 20
3.480078
 30
0.0
 10
40.844536
 20
2.920421
 30
0.0
 10
40.841435
 20
2.361282
 30
0.0
 10
40.838334
 20
1.801627
 30
0.0
 10
41.028504
 20
1.801627
 30
0.0
 10
41.218673
 20
1.801627
 30
0.0
 10
41.408326
 20
1.801627
 30
0.0
 10
41.598495
 20
1.801627
 30
0.0
 10
41.788146
 20
1.801627
 30
0.0
 10
41.788146
 20
2.530782
 30
0.0
 10
41.788146
 20
3.258902
 30
0.0
 10
41.788146
 20
3.987541
 30
0.0
 10
41.788146
 20
4.716695
 30
0.0
 10
41.788146
 20
5.445331
 30
0.0
 10
41.494107
 20
5.445331
 30
0.0
 10
41.199551
 20
5.445331
 30
0.0
 10
40.905515
 20
5.445331
 30
0.0
 10
40.611475
 20
5.445331
 30
0.0
 10
40.317436
 20
5.445331
 30
0.0
 10
40.154654
 20
4.960607
 30
0.0
 10
39.992390
 20
4.475882
 30
0.0
 10
39.830126
 20
3.991158
 30
0.0
 10
39.667347
 20
3.505914
 30
0.0
 10
39.505083
 20
3.021706
 30
0.0
 10
39.503533
 20
3.021706
 30
0.0
 10
39.501982
 20
3.021706
 30
0.0
 10
39.500432
 20
3.021706
 30
0.0
 10
39.498881
 20
3.021706
 30
0.0
 10
39.496815
 20
3.021706
 30
0.0
 10
39.342819
 20
3.505914
 30
0.0
 10
39.187789
 20
3.990639
 30
0.0
 10
39.033275
 20
4.475366
 30
0.0
 10
38.878764
 20
4.960607
 30
0.0
 10
38.724253
 20
5.445331
 30
0.0
 10
38.418326
 20
5.445331
 30
0.0
 10
38.111885
 20
5.445331
 30
0.0
 10
37.805445
 20
5.445331
 30
0.0
 10
37.499004
 20
5.445331
 30
0.0
 10
37.192561
 20
5.445331
 30
0.0
  0
LWPOLYLINE
  5
10f
100
AcDbEntity
  8
0
 62
7
100
AcDbPolyline
 90
45
 70
1
 10
42.862500
 20
3.987541
 30
0.0
 10
42.587063
 20
3.258902
 30
0.0
 10
42.312145
 20
2.530263
 30
0.0
 10
42.037228
 20
1.801627
 30
0.0
 10
42.235665
 20
1.801627
 30
0.0
 10
42.434103
 20
1.801627
 30
0.0
 10
42.632024
 20
1.801627
 30
0.0
 10
42.830978
 20
1.801627
 30
0.0
 10
43.029415
 20
1.801627
 30
0.0
 10
43.086258
 20
1.957173
 30
0.0
 10
43.143620
 20
2.113235
 30
0.0
 10
43.200463
 20
2.268265
 30
0.0
 10
43.257825
 20
2.424327
 30
0.0
 10
43.315186
 20
2.579873
 30
0.0
 10
43.588554
 20
2.579873
 30
0.0
 10
43.862440
 20
2.579873
 30
0.0
 10
44.135807
 20
2.579873
 30
0.0
 10
44.409175
 20
2.579873
 30
0.0
 10
44.683061
 20
2.579873
 30
0.0
 10
44.735771
 20
2.424327
 30
0.0
 10
44.788481
 20
2.268265
 30
0.0
 10
44.841708
 20
2.113235
 30
0.0
 10
44.894418
 20
1.957173
 30
0.0
 10
44.947644
 20
1.801627
 30
0.0
 10
45.159001
 20
1.801627
 30
0.0
 10
45.370874
 20
1.801627
 30
0.0
 10
45.582231
 20
1.801627
 30
0.0
 10
45.794105
 20
1.801627
 30
0.0
 10
46.005978
 20
1.801627
 30
0.0
 10
45.724858
 20
2.530782
 30
0.0
 10
45.443738
 20
3.259418
 30
0.0
 10
45.162618
 20
3.987541
 30
0.0
 10
44.225723
 20
3.987541
 30
0.0
 10
44.272232
 20
3.838194
 30
0.0
 10
44.361116
 20
3.552941
 30
0.0
 10
44.450000
 20
3.267686
 30
0.0
 10
44.267583
 20
3.267686
 30
0.0
 10
44.084647
 20
3.267686
 30
0.0
 10
43.902230
 20
3.267686
 30
0.0
 10
43.719811
 20
3.267686
 30
0.0
 10
43.537394
 20
3.267686
 30
0.0
 10
43.630929
 20
3.552423
 30
0.0
 10
43.724462
 20
3.838194
 30
0.0
 10
43.773556
 20
3.987541
 30
0.0
 10
42.862500
 20
3.987541
 30
0.0
  0
LWPOLYLINE
  5
110
100
AcDbEntity
  8
0
 62
7
100
AcDbPolyline
 90
19
 70
1
 10
43.412855
 20
5.445331
 30
0.0
 10
43.137418
 20
4.716177
 30
0.0
 10
42.862500
 20
3.987541
 30
0.0
 10
43.773556
 20
3.987541
 30
0.0
 10
43.817998
 20
4.123449
 30
0.0
 10
43.912049
 20
4.408702
 30
0.0
 10
44.005582
 20
4.693957
 30
0.0
 10
44.094466
 20
4.408702
 30
0.0
 10
44.183350
 20
4.123449
 30
0.0
 10
44.225723
 20
3.987541
 30
0.0
 10
45.162618
 20
3.987541
 30
0.0
 10
45.162618
 20
3.988057
 30
0.0
 10
44.881498
 20
4.716695
 30
0.0
 10
44.600895
 20
5.445331
 30
0.0
 10
44.363185
 20
5.445331
 30
0.0
 10
44.125473
 20
5.445331
 30
0.0
 10
43.888276
 20
5.445331
 30
0.0
 10
43.650567
 20
5.445331
 30
0.0
 10
43.412855
 20
5.445331
 30
0.0
  0
LWPOLYLINE
  5
111
100
AcDbEntity
  8
0
 62
7
100
AcDbPolyline
 90
31
 70
1
 10
46.397169
 20
3.718306
 30
0.0
 10
46.397169
 20
3.259418
 30
0.0
 10
46.397169
 20
2.530263
 30
0.0
 10
46.397169
 20
1.801627
 30
0.0
 10
46.661753
 20
1.801627
 30
0.0
 10
46.926852
 20
1.801627
 30
0.0
 10
47.190919
 20
1.801627
 30
0.0
 10
47.455503
 20
1.801627
 30
0.0
 10
47.720086
 20
1.801627
 30
0.0
 10
48.365524
 20
1.851753
 30
0.0
 10
48.983575
 20
2.039337
 30
0.0
 10
49.496721
 20
2.427428
 30
0.0
 10
49.794377
 20
2.997420
 30
0.0
 10
49.876543
 20
3.638206
 30
0.0
 10
49.867241
 20
3.718306
 30
0.0
 10
48.881255
 20
3.718306
 30
0.0
 10
48.892105
 20
3.622188
 30
0.0
 10
48.852831
 20
3.264069
 30
0.0
 10
48.711239
 20
2.933856
 30
0.0
 10
48.451307
 20
2.687360
 30
0.0
 10
48.116442
 20
2.557137
 30
0.0
 10
47.757292
 20
2.521479
 30
0.0
 10
47.681843
 20
2.521479
 30
0.0
 10
47.606913
 20
2.521479
 30
0.0
 10
47.531983
 20
2.521479
 30
0.0
 10
47.456535
 20
2.521479
 30
0.0
 10
47.381605
 20
2.521479
 30
0.0
 10
47.381605
 20
2.961762
 30
0.0
 10
47.381605
 20
3.403079
 30
0.0
 10
47.381605
 20
3.718306
 30
0.0
 10
46.397169
 20
3.718306
 30
0.0
  0
LWPOLYLINE
  5
112
100
AcDbEntity
  8
0
 62
7
100
AcDbPolyline
 90
29
 70
1
 10
46.397169
 20
5.445331
 30
0.0
 10
46.397169
 20
4.716177
 30
0.0
 10
46.397169
 20
3.988057
 30
0.0
 10
46.397169
 20
3.718306
 30
0.0
 10
47.381605
 20
3.718306
 30
0.0
 10
47.381605
 20
3.843880
 30
0.0
 10
47.381605
 20
4.284678
 30
0.0
 10
47.381605
 20
4.725479
 30
0.0
 10
47.457050
 20
4.725479
 30
0.0
 10
47.531983
 20
4.725479
 30
0.0
 10
47.606913
 20
4.725479
 30
0.0
 10
47.682362
 20
4.725479
 30
0.0
 10
47.757292
 20
4.725479
 30
0.0
 10
48.115411
 20
4.688271
 30
0.0
 10
48.449238
 20
4.555464
 30
0.0
 10
48.708654
 20
4.308451
 30
0.0
 10
48.851799
 20
3.979788
 30
0.0
 10
48.881255
 20
3.718306
 30
0.0
 10
49.867241
 20
3.718306
 30
0.0
 10
49.800060
 20
4.280027
 30
0.0
 10
49.509122
 20
4.853636
 30
0.0
 10
48.989774
 20
5.232424
 30
0.0
 10
48.366556
 20
5.402956
 30
0.0
 10
47.720086
 20
5.445331
 30
0.0
 10
47.455503
 20
5.445331
 30
0.0
 10
47.190919
 20
5.445331
 30
0.0
 10
46.926336
 20
5.445331
 30
0.0
 10
46.661753
 20
5.445331
 30
0.0
 10
46.397169
 20
5.445331
 30
0.0
  0
LWPOLYLINE
  5
113
100
AcDbEntity
  8
0
 62
7
100
AcDbPolyline
 90
61
 70
1
 10
50.278586
 20
5.445331
 30
0.0
 10
50.278586
 20
4.716177
 30
0.0
 10
50.278586
 20
3.988057
 30
0.0
 10
50.278586
 20
3.259418
 30
0.0
 10
50.278586
 20
2.530263
 30
0.0
 10
50.278586
 20
1.801627
 30
0.0
 10
50.803617
 20
1.801627
 30
0.0
 10
51.328651
 20
1.801627
 30
0.0
 10
51.853682
 20
1.801627
 30
0.0
 10
52.378716
 20
1.801627
 30
0.0
 10
52.903231
 20
1.801627
 30
0.0
 10
52.903231
 20
1.939602
 30
0.0
 10
52.903231
 20
2.077061
 30
0.0
 10
52.903231
 20
2.214520
 30
0.0
 10
52.903231
 20
2.351982
 30
0.0
 10
52.903231
 20
2.489957
 30
0.0
 10
52.573018
 20
2.489957
 30
0.0
 10
52.242289
 20
2.489957
 30
0.0
 10
51.911560
 20
2.489957
 30
0.0
 10
51.580314
 20
2.489957
 30
0.0
 10
51.249585
 20
2.489957
 30
0.0
 10
51.249585
 20
2.654805
 30
0.0
 10
51.249585
 20
2.820170
 30
0.0
 10
51.249585
 20
2.985016
 30
0.0
 10
51.249585
 20
3.150381
 30
0.0
 10
51.249585
 20
3.315229
 30
0.0
 10
51.551374
 20
3.315229
 30
0.0
 10
51.853166
 20
3.315229
 30
0.0
 10
52.154439
 20
3.315229
 30
0.0
 10
52.456231
 20
3.315229
 30
0.0
 10
52.758020
 20
3.315229
 30
0.0
 10
52.758020
 20
3.452688
 30
0.0
 10
52.758020
 20
3.590666
 30
0.0
 10
52.758020
 20
3.728125
 30
0.0
 10
52.758020
 20
3.865584
 30
0.0
 10
52.758020
 20
4.003043
 30
0.0
 10
52.456231
 20
4.003043
 30
0.0
 10
52.154955
 20
4.003043
 30
0.0
 10
51.853166
 20
4.003043
 30
0.0
 10
51.551374
 20
4.003043
 30
0.0
 10
51.249585
 20
4.003043
 30
0.0
 10
51.249585
 20
4.153937
 30
0.0
 10
51.249585
 20
4.304832
 30
0.0
 10
51.249585
 20
4.455729
 30
0.0
 10
51.249585
 20
4.606623
 30
0.0
 10
51.249585
 20
4.757002
 30
0.0
 10
51.569461
 20
4.757002
 30
0.0
 10
51.888821
 20
4.757002
 30
0.0
 10
52.208700
 20
4.757002
 30
0.0
 10
52.528576
 20
4.757002
 30
0.0
 10
52.847936
 20
4.757002
 30
0.0
 10
52.847936
 20
4.894977
 30
0.0
 10
52.847936
 20
5.032436
 30
0.0
 10
52.847936
 20
5.169897
 30
0.0
 10
52.847936
 20
5.307356
 30
0.0
 10
52.847936
 20
5.445331
 30
0.0
 10
52.334274
 20
5.445331
 30
0.0
 10
51.820609
 20
5.445331
 30
0.0
 10
51.306428
 20
5.445331
 30
0.0
 10
50.792248
 20
5.445331
 30
0.0
 10
50.278586
 20
5.445331
 30
0.0
  0
LWPOLYLINE
  5
114
100
AcDbEntity
  8
0
 62
7
100
AcDbPolyline
 90
38
 70
1
 10
39.836328
 20
28.082193
 30
0.0
 10
39.836328
 20
24.191991
 30
0.0
 10
39.840980
 20
24.184756
 30
0.0
 10
40.502438
 20
23.173449
 30
0.0
 10
41.163896
 20
22.162140
 30
0.0
 10
41.825355
 20
21.150834
 30
0.0
 10
41.909069
 20
20.942059
 30
0.0
 10
41.941626
 20
20.718817
 30
0.0
 10
41.920438
 20
20.494543
 30
0.0
 10
41.846542
 20
20.282151
 30
0.0
 10
41.724585
 20
20.092501
 30
0.0
 10
41.727686
 20
20.092501
 30
0.0
 10
41.544751
 20
19.925586
 30
0.0
 10
41.323059
 20
19.815514
 30
0.0
 10
41.079663
 20
19.770556
 30
0.0
 10
40.833167
 20
19.794844
 30
0.0
 10
40.603207
 20
19.886311
 30
0.0
 10
40.242506
 20
20.056843
 30
0.0
 10
39.867335
 20
20.191719
 30
0.0
 10
39.836328
 20
20.199469
 30
0.0
 10
39.836328
 20
7.506187
 30
0.0
 10
41.484807
 20
7.506187
 30
0.0
 10
45.057198
 20
7.506187
 30
0.0
 10
48.630623
 20
7.506187
 30
0.0
 10
49.007861
 20
7.545978
 30
0.0
 10
49.369080
 20
7.664318
 30
0.0
 10
49.696709
 20
7.856037
 30
0.0
 10
49.976278
 20
8.112868
 30
0.0
 10
50.195903
 20
8.422928
 30
0.0
 10
50.344731
 20
8.772260
 30
0.0
 10
50.416045
 20
9.145365
 30
0.0
 10
50.407776
 20
9.525185
 30
0.0
 10
50.318892
 20
9.894155
 30
0.0
 10
50.154562
 20
10.236771
 30
0.0
 10
50.154562
 20
10.241939
 30
0.0
 10
45.979106
 20
17.460619
 30
0.0
 10
41.804167
 20
24.679817
 30
0.0
 10
39.836328
 20
28.082193
 30
0.0
  0
LWPOLYLINE
  5
115
100
AcDbEntity
  8
0
 62
7
100
AcDbPolyline
 90
189
 70
1
 10
27.702185
 20
47.261384
 30
0.0
 10
27.321330
 20
47.219009
 30
0.0
 10
26.958560
 20
47.096536
 30
0.0
 10
26.629900
 20
46.900166
 30
0.0
 10
26.350330
 20
46.638683
 30
0.0
 10
26.132772
 20
46.323457
 30
0.0
 10
23.194450
 20
41.196638
 30
0.0
 10
20.256128
 20
36.070336
 30
0.0
 10
17.317806
 20
30.943517
 30
0.0
 10
14.378967
 20
25.816698
 30
0.0
 10
11.440645
 20
20.690396
 30
0.0
 10
13.478247
 20
20.732253
 30
0.0
 10
15.471407
 20
21.151350
 30
0.0
 10
17.326074
 20
21.992124
 30
0.0
 10
18.985921
 20
23.176032
 30
0.0
 10
20.505208
 20
24.537707
 30
0.0
 10
21.743376
 20
25.659085
 30
0.0
 10
23.061641
 20
26.685379
 30
0.0
 10
24.513749
 20
27.507551
 30
0.0
 10
26.099699
 20
28.022248
 30
0.0
 10
27.760062
 20
28.188646
 30
0.0
 10
29.378053
 20
27.991242
 30
0.0
 10
30.899923
 20
27.406265
 30
0.0
 10
32.253846
 20
26.496760
 30
0.0
 10
33.409848
 20
25.344892
 30
0.0
 10
34.345708
 20
24.008540
 30
0.0
 10
34.458362
 20
23.645771
 30
0.0
 10
34.453711
 20
23.265949
 30
0.0
 10
34.332788
 20
22.905765
 30
0.0
 10
34.107480
 20
22.599325
 30
0.0
 10
33.798970
 20
22.378149
 30
0.0
 10
33.437235
 20
22.261359
 30
0.0
 10
33.057415
 20
22.261878
 30
0.0
 10
32.695679
 20
22.379181
 30
0.0
 10
32.387688
 20
22.601391
 30
0.0
 10
32.162896
 20
22.907832
 30
0.0
 10
31.516423
 20
23.787365
 30
0.0
 10
30.741792
 20
24.556310
 30
0.0
 10
29.846757
 20
25.180044
 30
0.0
 10
28.839583
 20
25.597073
 30
0.0
 10
27.760062
 20
25.743834
 30
0.0
 10
26.466086
 20
25.599657
 30
0.0
 10
25.243937
 20
25.151622
 30
0.0
 10
24.140129
 20
24.458641
 30
0.0
 10
23.133472
 20
23.628718
 30
0.0
 10
22.172290
 20
22.746084
 30
0.0
 10
20.187398
 20
21.162200
 30
0.0
 10
17.957560
 20
19.949356
 30
0.0
 10
15.534452
 20
19.194881
 30
0.0
 10
13.012643
 20
18.902392
 30
0.0
 10
10.474813
 20
19.010395
 30
0.0
 10
9.462988
 20
17.244610
 30
0.0
 10
8.451164
 20
15.478310
 30
0.0
 10
7.439339
 20
13.712529
 30
0.0
 10
6.427515
 20
11.946744
 30
0.0
 10
5.416207
 20
10.180960
 30
0.0
 10
5.267895
 20
9.839378
 30
0.0
 10
5.193998
 20
9.474544
 30
0.0
 10
5.197099
 20
9.101439
 30
0.0
 10
5.277197
 20
8.738153
 30
0.0
 10
5.430676
 20
8.398640
 30
0.0
 10
5.650818
 20
8.098398
 30
0.0
 10
5.928837
 20
7.850352
 30
0.0
 10
6.252331
 20
7.664834
 30
0.0
 10
6.606832
 20
7.550113
 30
0.0
 10
6.976835
 20
7.511357
 30
0.0
 10
11.182263
 20
7.511357
 30
0.0
 10
15.387691
 20
7.511357
 30
0.0
 10
19.592602
 20
7.511357
 30
0.0
 10
23.798030
 20
7.511357
 30
0.0
 10
28.003458
 20
7.511357
 30
0.0
 10
27.448970
 20
8.294770
 30
0.0
 10
26.894483
 20
9.077669
 30
0.0
 10
26.339994
 20
9.861082
 30
0.0
 10
25.785506
 20
10.643981
 30
0.0
 10
25.230501
 20
11.427396
 30
0.0
 10
24.899772
 20
12.081103
 30
0.0
 10
24.732857
 20
12.793721
 30
0.0
 10
24.760762
 20
13.524942
 30
0.0
 10
24.972636
 20
14.226191
 30
0.0
 10
25.328687
 20
14.866980
 30
0.0
 10
25.940019
 20
15.846764
 30
0.0
 10
26.551869
 20
16.827066
 30
0.0
 10
27.163718
 20
17.806850
 30
0.0
 10
27.775048
 20
18.786636
 30
0.0
 10
28.386897
 20
19.766939
 30
0.0
 10
28.637529
 20
20.055292
 30
0.0
 10
28.965157
 20
20.251663
 30
0.0
 10
29.337228
 20
20.337963
 30
0.0
 10
29.718082
 20
20.305406
 30
0.0
 10
30.069999
 20
20.156062
 30
0.0
 10
30.357321
 20
19.904914
 30
0.0
 10
30.552657
 20
19.577285
 30
0.0
 10
30.637925
 20
19.205215
 30
0.0
 10
30.605368
 20
18.824877
 30
0.0
 10
30.456023
 20
18.472960
 30
0.0
 10
29.839005
 20
17.483873
 30
0.0
 10
29.220956
 20
16.494271
 30
0.0
 10
28.603422
 20
15.504665
 30
0.0
 10
27.986405
 20
14.515063
 30
0.0
 10
27.368354
 20
13.525458
 30
0.0
 10
27.273271
 20
13.374563
 30
0.0
 10
27.194206
 20
13.214884
 30
0.0
 10
27.169401
 20
13.039701
 30
0.0
 10
27.219010
 20
12.869169
 30
0.0
 10
27.304794
 20
12.713105
 30
0.0
 10
27.985889
 20
11.664590
 30
0.0
 10
28.677320
 20
10.622277
 30
0.0
 10
29.372367
 20
9.582547
 30
0.0
 10
30.068449
 20
8.543851
 30
0.0
 10
30.765565
 20
7.506187
 30
0.0
 10
34.338472
 20
7.506187
 30
0.0
 10
37.911897
 20
7.506187
 30
0.0
 10
39.836328
 20
7.506187
 30
0.0
 10
39.836328
 20
20.199469
 30
0.0
 10
39.480278
 20
20.289388
 30
0.0
 10
39.085986
 20
20.349332
 30
0.0
 10
38.687560
 20
20.370520
 30
0.0
 10
37.995098
 20
20.326593
 30
0.0
 10
37.321236
 20
20.162263
 30
0.0
 10
36.686649
 20
19.882175
 30
0.0
 10
36.111492
 20
19.495119
 30
0.0
 10
35.612813
 20
19.012979
 30
0.0
 10
34.769454
 20
17.954646
 30
0.0
 10
33.926095
 20
16.896313
 30
0.0
 10
33.082219
 20
15.837979
 30
0.0
 10
32.238860
 20
14.779646
 30
0.0
 10
31.395501
 20
13.721313
 30
0.0
 10
31.289564
 20
13.624160
 30
0.0
 10
31.170708
 20
13.544579
 30
0.0
 10
31.040483
 20
13.484117
 30
0.0
 10
30.903024
 20
13.443810
 30
0.0
 10
30.760397
 20
13.425207
 30
0.0
 10
30.623454
 20
13.430374
 30
0.0
 10
30.490128
 20
13.460862
 30
0.0
 10
30.364554
 20
13.515639
 30
0.0
 10
30.251384
 20
13.593154
 30
0.0
 10
30.154748
 20
13.689790
 30
0.0
 10
30.079302
 20
13.784874
 30
0.0
 10
30.018839
 20
13.889778
 30
0.0
 10
29.974916
 20
14.002949
 30
0.0
 10
29.948561
 20
14.121289
 30
0.0
 10
29.940292
 20
14.242727
 30
0.0
 10
29.945976
 20
14.341430
 30
0.0
 10
29.962512
 20
14.438582
 30
0.0
 10
29.989383
 20
14.534182
 30
0.0
 10
30.026076
 20
14.625651
 30
0.0
 10
30.072584
 20
14.713500
 30
0.0
 10
30.629654
 20
15.658145
 30
0.0
 10
31.186726
 20
16.603308
 30
0.0
 10
31.744317
 20
17.548987
 30
0.0
 10
32.301386
 20
18.493632
 30
0.0
 10
32.858459
 20
19.438792
 30
0.0
 10
33.589680
 20
20.461986
 30
0.0
 10
34.481101
 20
21.347721
 30
0.0
 10
35.535814
 20
22.029849
 30
0.0
 10
36.718171
 20
22.453079
 30
0.0
 10
37.965123
 20
22.613792
 30
0.0
 10
37.805961
 20
23.187918
 30
0.0
 10
37.647314
 20
23.762043
 30
0.0
 10
37.488151
 20
24.336168
 30
0.0
 10
37.329504
 20
24.910294
 30
0.0
 10
37.171373
 20
25.484418
 30
0.0
 10
37.127966
 20
25.696292
 30
0.0
 10
37.116597
 20
25.911266
 30
0.0
 10
37.159488
 20
26.122106
 30
0.0
 10
37.270592
 20
26.305557
 30
0.0
 10
37.435957
 20
26.442500
 30
0.0
 10
37.542928
 20
26.506062
 30
0.0
 10
37.658683
 20
26.550503
 30
0.0
 10
37.780640
 20
26.575825
 30
0.0
 10
37.905179
 20
26.579959
 30
0.0
 10
38.029203
 20
26.563939
 30
0.0
 10
38.148059
 20
26.527249
 30
0.0
 10
38.259163
 20
26.471955
 30
0.0
 10
38.359932
 20
26.398575
 30
0.0
 10
38.446750
 20
26.309691
 30
0.0
 10
38.518063
 20
26.206855
 30
0.0
 10
39.179521
 20
25.196064
 30
0.0
 10
39.836328
 20
24.191991
 30
0.0
 10
39.836328
 20
28.082193
 30
0.0
 10
37.629227
 20
31.898497
 30
0.0
 10
33.453771
 20
39.117695
 30
0.0
 10
29.278834
 20
46.336376
 30
0.0
 10
29.058690
 20
46.649535
 30
0.0
 10
28.777054
 20
46.908951
 30
0.0
 10
28.446841
 20
47.102737
 30
0.0
 10
28.083039
 20
47.222110
 30
0.0
 10
27.702185
 20
47.261384
 30
0.0
  0
ENDSEC
  0
SECTION
  2
OBJECTS
  0
DICTIONARY
  5
C
330
0
100
AcDbDictionary
  3
ACAD_GROUP
350
D
  3
ACAD_MLINESTYLE
350
17
  0
DICTIONARY
  5
D
330
C
100
AcDbDictionary
  0
DICTIONARY
  5
1A
330
C
100
AcDbDictionary
  0
DICTIONARY
  5
17
330
C
100
AcDbDictionary
  3
STANDARD
350
18
  0
DICTIONARY
  5
19
330
C
100
AcDbDictionary
  0
ENDSEC
  0
EOF
