<?xml version="1.0" encoding="UTF-8" standalone="no"?>
<svg
   xmlns:dc="http://purl.org/dc/elements/1.1/"
   xmlns:cc="http://creativecommons.org/ns#"
   xmlns:rdf="http://www.w3.org/1999/02/22-rdf-syntax-ns#"
   xmlns:svg="http://www.w3.org/2000/svg"
   xmlns="http://www.w3.org/2000/svg"
   xmlns:sodipodi="http://sodipodi.sourceforge.net/DTD/sodipodi-0.dtd"
   xmlns:inkscape="http://www.inkscape.org/namespaces/inkscape"
   viewBox="0 0 143.37 133.84"
   version="1.1"
   id="svg36"
   sodipodi:docname="Australian_Made.svg"
   width="37.933311mm"
   height="35.411831mm"
   inkscape:version="0.92.2 (5c3e80d, 2017-08-06)">
  <metadata
     id="metadata42">
    <rdf:RDF>
      <cc:Work
         rdf:about="">
        <dc:format>image/svg+xml</dc:format>
        <dc:type
           rdf:resource="http://purl.org/dc/dcmitype/StillImage" />
        <dc:title>Australian_Made</dc:title>
      </cc:Work>
    </rdf:RDF>
  </metadata>
  <defs
     id="defs40" />
  <sodipodi:namedview
     pagecolor="#ffffff"
     bordercolor="#666666"
     borderopacity="1"
     objecttolerance="10"
     gridtolerance="10"
     guidetolerance="10"
     inkscape:pageopacity="0"
     inkscape:pageshadow="2"
     inkscape:window-width="2560"
     inkscape:window-height="1017"
     id="namedview38"
     showgrid="false"
     units="mm"
     inkscape:document-units="mm"
     inkscape:zoom="3.526599"
     inkscape:cx="14.241201"
     inkscape:cy="30.219724"
     inkscape:window-x="-8"
     inkscape:window-y="-8"
     inkscape:window-maximized="1"
     inkscape:current-layer="svg36" />
  <title
     id="title2">Australian_Made</title>
  <path
     d="M 0.77,118.47 22,81.32 c 0,0 7.09,5.06 15.77,5 0.58,0 1.16,0 1.75,-0.07 3.81,-0.33 10.64,-2.14 15.06,-6.34 C 61.18,73.66 67.25,67 74.26,67 c 5.88,0 9.3,7.78 9.88,8.77 0.58,0.99 2.09,3.2 4.57,1.91 a 3,3 0 0 0 1.45,-4 c 0,0 -5.16,-13.14 -16.16,-13.14 -10.53,0 -20.35,11.74 -22.57,13.57 -2.22,1.83 -3.55,3.67 -10.15,5.46 -7.5,2 -16.08,-3.86 -16.08,-3.86 C 25.11,75.37 68.69,0 68.69,0 l 68.51,118.45 c 0,0 -58.35,0 -58.47,0 -0.12,0 -1.65,-2.39 -3.67,-5.47 -3.37,-5.14 -5.4,-7.76 -6.37,-9.87 -0.61,-1.36 1.32,-4 1.76,-4.65 L 77.29,88 c 0.76,-1.16 2.36,-3.46 -0.23,-5.14 -2.81,-1.84 -4.59,0.93 -5.48,2.24 -0.73,1.07 -3.92,6.11 -5.2,8.11 -1.28,2 -4.19,5.49 -4.17,9.25 0,4 2.65,6.76 5.73,11.57 1.57,2.46 2.81,4.47 2.81,4.47 h -70 z M 83.13,97.56 a 3.75,3.75 0 0 0 2.72,-1.79 76.15,76.15 0 0 1 5,-8.54 c 2.53,-3.45 4.77,-4.88 7,-5.46 a 10.39,10.39 0 0 1 5.45,0.42 c 1.37,0.35 4,1.57 5.6,-0.72 1.6,-2.29 -0.53,-4.49 -1.07,-5.37 -0.54,-0.88 -2.74,-4.28 -3.88,-6 -1.14,-1.72 -3,-5.68 -6.41,-3.62 -2,1.17 -1.41,3.62 -0.8,4.57 0.61,0.95 2.75,4.12 2.75,4.12 a 15.37,15.37 0 0 0 -7.86,2.29 21.21,21.21 0 0 0 -6.86,7.28 c -2.18,3.66 -7.4,10.1 -3.43,12.35 a 3.34,3.34 0 0 0 1.81,0.5 z"
     style="fill-rule:evenodd"
     id="path4"
     inkscape:connector-curvature="0" />
  <path
     d="m 0,133.56 3.72,-9.78 h 3.2 l 3.77,9.78 H 7.82 L 7.1,131.48 H 3.42 l -0.77,2.08 z M 6.48,129.63 5.3,125.79 4,129.63 Z"
     style="fill-rule:evenodd"
     id="path6"
     inkscape:connector-curvature="0" />
  <path
     d="m 14.91,133.84 c -2.55,0 -4.29,-1.21 -4.29,-3.88 v -6.08 h 2.61 v 5.64 c 0,1.29 0.35,2.38 1.68,2.38 1.33,0 1.69,-1.09 1.69,-2.38 v -5.64 h 2.61 V 130 c 0,2.67 -1.74,3.88 -4.3,3.88 z"
     style="fill-rule:evenodd"
     id="path8"
     inkscape:connector-curvature="0" />
  <path
     d="m 23.44,133.74 a 10,10 0 0 1 -2.92,-0.43 l 0.23,-2.15 a 5.77,5.77 0 0 0 2.69,0.64 c 0.83,0 1.62,-0.17 1.62,-1 0,-1.82 -4.64,-0.67 -4.64,-4.23 0,-2.35 2.3,-3 4.26,-3 a 8.09,8.09 0 0 1 2.53,0.37 l -0.16,2 a 5.3,5.3 0 0 0 -2.19,-0.45 c -0.65,0 -1.74,0.06 -1.74,0.91 0,1.59 4.63,0.52 4.63,4 0,2.55 -2.14,3.24 -4.31,3.24 z"
     style="fill-rule:evenodd"
     id="path10"
     inkscape:connector-curvature="0" />
  <polygon
     points="30.9,125.71 28.48,125.71 28.48,123.78 35.92,123.78 35.92,125.71 33.5,125.71 33.5,133.56 30.9,133.56 "
     style="fill-rule:evenodd"
     id="polygon12" />
  <path
     d="m 36.78,133.53 v -9.79 h 4.66 c 1.74,0 3.15,0.79 3.15,2.47 a 2.29,2.29 0 0 1 -1.87,2.47 c 0.84,0.25 0.89,1 1.39,2.19 l 0.94,2.66 h -2.72 l -0.55,-1.77 c -0.54,-1.67 -0.87,-2.1 -1.84,-2.1 h -0.55 v 3.87 z m 3.29,-5.72 c 0.85,0 1.92,0 1.92,-1.14 0,-0.9 -0.92,-1.08 -1.92,-1.08 h -0.68 v 2.22 z"
     style="fill-rule:evenodd"
     id="path14"
     inkscape:connector-curvature="0" />
  <path
     d="m 45.37,133.56 3.72,-9.78 h 3.2 l 3.77,9.78 h -2.87 l -0.73,-2.08 H 48.79 L 48,133.56 Z m 6.47,-3.93 -1.17,-3.84 -1.28,3.84 z"
     style="fill-rule:evenodd"
     id="path16"
     inkscape:connector-curvature="0" />
  <polygon
     points="57.07,123.78 59.69,123.78 59.69,131.63 63.72,131.63 63.72,133.56 57.07,133.56 "
     style="fill-rule:evenodd"
     id="polygon18" />
  <polygon
     points="64.89,123.78 67.49,123.78 67.49,133.56 64.89,133.56 "
     style="fill-rule:evenodd"
     id="polygon20" />
  <path
     d="m 68.49,133.56 3.71,-9.78 h 3.19 l 3.79,9.78 h -2.87 l -0.73,-2.08 h -3.67 l -0.77,2.08 z m 6.51,-3.93 -1.18,-3.84 -1.28,3.84 z"
     style="fill-rule:evenodd"
     id="path22"
     inkscape:connector-curvature="0" />
  <polygon
     points="80.1,123.78 83.42,123.78 86.75,130.43 86.72,123.78 89.1,123.78 89.1,133.56 85.86,133.56 82.42,126.87 82.5,133.56 80.1,133.56 "
     style="fill-rule:evenodd"
     id="polygon24" />
  <polygon
     points="95.05,123.78 99.16,123.78 101.25,130.29 103.44,123.78 107.39,123.78 107.39,133.56 104.84,133.56 104.87,126.05 102.35,133.56 99.95,133.56 97.56,126.05 97.61,133.56 95.05,133.56 "
     style="fill-rule:evenodd"
     id="polygon26" />
  <path
     d="m 108.07,133.56 3.72,-9.78 H 115 l 3.78,9.78 h -2.87 l -0.73,-2.08 h -3.68 l -0.78,2.08 z m 6.49,-3.93 -1.19,-3.84 -1.27,3.84 z"
     style="fill-rule:evenodd"
     id="path28"
     inkscape:connector-curvature="0" />
  <path
     d="m 119.78,133.56 v -9.78 h 3.56 c 3.42,0 5.8,1.06 5.8,4.85 0,3.79 -2.46,4.93 -5.8,4.93 z m 3.62,-1.93 c 1.95,0 3,-1 3,-3 a 2.71,2.71 0 0 0 -3,-3 h -1 v 5.92 z"
     style="fill-rule:evenodd"
     id="path30"
     inkscape:connector-curvature="0" />
  <polygon
     points="130.21,123.78 137.11,123.78 137.11,125.63 132.82,125.63 132.82,127.64 136.87,127.64 136.87,129.5 132.82,129.5 132.82,131.71 137.27,131.71 137.27,133.56 130.21,133.56 "
     style="fill-rule:evenodd"
     id="polygon32" />
  <path
     d="m 140.84,133.77 a 2.53,2.53 0 1 1 2.53,-2.54 2.54,2.54 0 0 1 -2.53,2.54 z m 0,-0.38 a 2.16,2.16 0 1 0 -2.05,-2.16 2.06,2.06 0 0 0 2.05,2.16 z m -1,-0.68 v -3 H 141 c 0.68,0 1,0.28 1,0.83 a 0.75,0.75 0 0 1 -0.77,0.82 l 0.85,1.31 h -0.51 l -0.83,-1.31 h -0.41 v 1.31 z m 1.06,-1.68 c 0.38,0 0.62,-0.08 0.62,-0.46 0,-0.38 -0.31,-0.44 -0.62,-0.44 h -0.57 v 0.9 z"
     style="fill-rule:evenodd"
     id="path34"
     inkscape:connector-curvature="0" />
</svg>
