  0
SECTION
  2
HEADER
  9
$ACADVER
  1
AC1009
  9
$INSBASE
 10
0.0
 20
0.0
 30
0.0
  9
$EXTMIN
 10
0.0
 20
0.0
 30
0.0
  9
$EXTMAX
 10
0.0
 20
0.0
 30
0.0
  0
ENDSEC
  0
SECTION
  2
TABLES
  0
TABLE
  2
VPORT
 70
0
  0
ENDTAB
  0
TABLE
  2
LTYPE
 70
1
  0
LTYPE
  2
CONTINUOUS
 70
0
  3
Solid line
 72
65
 73
0
 40
0.0
  0
ENDTAB
  0
TABLE
  2
LAYER
 70
1
  0
LAYER
  2
0
 70
64
 62
7
  6
continuous
  0
ENDTAB
  0
TABLE
  2
STYLE
 70
1
  0
STYLE
  2
STANDARD
 70
0
 40
0
 41
1.0
 50
0.0
 71
0
 42
1
 3
ARIAL.TTF
 4

  0
ENDTAB
  0
TABLE
  2
VIEW
 70
0
  0
ENDTAB
  0
ENDSEC
  0
SECTION
  2
BLOCKS
  0
ENDSEC
  0
SECTION
  2
ENTITIES
  0
POLYLINE
  8
0
 62
0
 70
1
 66
1
 10
0.0
 20
0.0
 30
0.0
  0
VERTEX
  8
0
 10
25.1486448389
 20
-32.7501228421
 30
0.0
  0
VERTEX
  8
0
 10
25.3660904622
 20
-32.7501228421
 30
0.0
  0
VERTEX
  8
0
 10
25.5836654406
 20
-32.7501228421
 30
0.0
  0
VERTEX
  8
0
 10
25.8009443063
 20
-32.7501228421
 30
0.0
  0
VERTEX
  8
0
 10
26.0185984633
 20
-32.7501228421
 30
0.0
  0
VERTEX
  8
0
 10
26.2360822959
 20
-32.7501228421
 30
0.0
  0
VERTEX
  8
0
 10
26.3466568342
 20
-33.0945440026
 30
0.0
  0
VERTEX
  8
0
 10
26.4572971517
 20
-33.4391700544
 30
0.0
  0
VERTEX
  8
0
 10
26.5678996569
 20
-33.7836783266
 30
0.0
  0
VERTEX
  8
0
 10
26.6785298084
 20
-34.1282727127
 30
0.0
  0
VERTEX
  8
0
 10
26.7890614407
 20
-34.4725602286
 30
0.0
  0
VERTEX
  8
0
 10
26.9049266267
 20
-34.128139068
 30
0.0
  0
VERTEX
  8
0
 10
27.0208607393
 20
-33.7835130163
 30
0.0
  0
VERTEX
  8
0
 10
27.1367552303
 20
-33.439004744
 30
0.0
  0
VERTEX
  8
0
 10
27.2526786905
 20
-33.0944103579
 30
0.0
  0
VERTEX
  8
0
 10
27.3684989178
 20
-32.7501228421
 30
0.0
  0
VERTEX
  8
0
 10
27.5774795047
 20
-32.7501228421
 30
0.0
  0
VERTEX
  8
0
 10
27.7865844109
 20
-32.7501228421
 30
0.0
  0
VERTEX
  8
0
 10
27.9954047319
 20
-32.7501228421
 30
0.0
  0
VERTEX
  8
0
 10
28.2045857343
 20
-32.7501228421
 30
0.0
  0
VERTEX
  8
0
 10
28.4136030431
 20
-32.7501228421
 30
0.0
  0
VERTEX
  8
0
 10
28.4136030431
 20
-33.2675481802
 30
0.0
  0
VERTEX
  8
0
 10
28.4136030431
 20
-33.7852813268
 30
0.0
  0
VERTEX
  8
0
 10
28.4136030431
 20
-34.3028375331
 30
0.0
  0
VERTEX
  8
0
 10
28.4136030431
 20
-34.8205231085
 30
0.0
  0
VERTEX
  8
0
 10
28.4136030431
 20
-35.3377476715
 30
0.0
  0
VERTEX
  8
0
 10
28.278691525
 20
-35.3377476715
 30
0.0
  0
VERTEX
  8
0
 10
28.14369975
 20
-35.3377476715
 30
0.0
  0
VERTEX
  8
0
 10
28.0088916948
 20
-35.3377476715
 30
0.0
  0
VERTEX
  8
0
 10
27.8738507943
 20
-35.3377476715
 30
0.0
  0
VERTEX
  8
0
 10
27.7389155698
 20
-35.3377476715
 30
0.0
  0
VERTEX
  8
0
 10
27.7405027641
 20
-34.9404200345
 30
0.0
  0
VERTEX
  8
0
 10
27.7420909028
 20
-34.5428560333
 30
0.0
  0
VERTEX
  8
0
 10
27.7436784985
 20
-34.1454279036
 30
0.0
  0
VERTEX
  8
0
 10
27.7452664911
 20
-33.7479004321
 30
0.0
  0
VERTEX
  8
0
 10
27.7468530695
 20
-33.3507269691
 30
0.0
  0
VERTEX
  8
0
 10
27.6135287457
 20
-33.7480546062
 30
0.0
  0
VERTEX
  8
0
 10
27.4801251093
 20
-34.1456186073
 30
0.0
  0
VERTEX
  8
0
 10
27.3467670649
 20
-34.5430467371
 30
0.0
  0
VERTEX
  8
0
 10
27.2133756862
 20
-34.9405742086
 30
0.0
  0
VERTEX
  8
0
 10
27.0801030958
 20
-35.3377476715
 30
0.0
  0
VERTEX
  8
0
 10
26.9531275494
 20
-35.3377476715
 30
0.0
  0
VERTEX
  8
0
 10
26.8260764671
 20
-35.3377476715
 30
0.0
  0
VERTEX
  8
0
 10
26.6991982974
 20
-35.3377476715
 30
0.0
  0
VERTEX
  8
0
 10
26.5721009794
 20
-35.3377476715
 30
0.0
  0
VERTEX
  8
0
 10
26.4451031209
 20
-35.3377476715
 30
0.0
  0
VERTEX
  8
0
 10
26.3186566393
 20
-34.9404200345
 30
0.0
  0
VERTEX
  8
0
 10
26.1921349365
 20
-34.5428560333
 30
0.0
  0
VERTEX
  8
0
 10
26.0656564738
 20
-34.1454279036
 30
0.0
  0
VERTEX
  8
0
 10
25.9391463962
 20
-33.7479004321
 30
0.0
  0
VERTEX
  8
0
 10
25.8127489793
 20
-33.3507269691
 30
0.0
  0
VERTEX
  8
0
 10
25.8153943032
 20
-33.7480546062
 30
0.0
  0
VERTEX
  8
0
 10
25.8180412007
 20
-34.1456186073
 30
0.0
  0
VERTEX
  8
0
 10
25.8206871937
 20
-34.5430467371
 30
0.0
  0
VERTEX
  8
0
 10
25.823333848
 20
-34.9405742086
 30
0.0
  0
VERTEX
  8
0
 10
25.8259781454
 20
-35.3377476715
 30
0.0
  0
VERTEX
  8
0
 10
25.6905375625
 20
-35.3377476715
 30
0.0
  0
VERTEX
  8
0
 10
25.5550164081
 20
-35.3377476715
 30
0.0
  0
VERTEX
  8
0
 10
25.4196796937
 20
-35.3377476715
 30
0.0
  0
VERTEX
  8
0
 10
25.2841092212
 20
-35.3377476715
 30
0.0
  0
VERTEX
  8
0
 10
25.1486448389
 20
-35.3377476715
 30
0.0
  0
VERTEX
  8
0
 10
25.1486448389
 20
-34.8203223334
 30
0.0
  0
VERTEX
  8
0
 10
25.1486448389
 20
-34.3025891868
 30
0.0
  0
VERTEX
  8
0
 10
25.1486448389
 20
-33.7850329805
 30
0.0
  0
VERTEX
  8
0
 10
25.1486448389
 20
-33.2673474051
 30
0.0
  0
SEQEND
  8
0
  0
POLYLINE
  8
0
 62
0
 70
1
 66
1
 10
0.0
 20
0.0
 30
0.0
  0
VERTEX
  8
0
 10
29.0865945373
 20
-34.0423636319
 30
0.0
  0
VERTEX
  8
0
 10
28.9873757912
 20
-34.3028141564
 30
0.0
  0
VERTEX
  8
0
 10
28.7904887574
 20
-34.8200957057
 30
0.0
  0
VERTEX
  8
0
 10
28.5936017235
 20
-35.3378931924
 30
0.0
  0
VERTEX
  8
0
 10
28.7336456763
 20
-35.3378931924
 30
0.0
  0
VERTEX
  8
0
 10
28.8742055666
 20
-35.3378931924
 30
0.0
  0
VERTEX
  8
0
 10
29.0142495194
 20
-35.3378931924
 30
0.0
  0
VERTEX
  8
0
 10
29.1542908263
 20
-35.3378931924
 30
0.0
  0
VERTEX
  8
0
 10
29.2948507166
 20
-35.3378931924
 30
0.0
  0
VERTEX
  8
0
 10
29.3361918608
 20
-35.2273053038
 30
0.0
  0
VERTEX
  8
0
 10
29.377533005
 20
-35.1172333527
 30
0.0
  0
VERTEX
  8
0
 10
29.4183582117
 20
-35.0071640475
 30
0.0
  0
VERTEX
  8
0
 10
29.4596993559
 20
-34.8976080339
 30
0.0
  0
VERTEX
  8
0
 10
29.5010405001
 20
-34.7875387286
 30
0.0
  0
VERTEX
  8
0
 10
29.6958611382
 20
-34.7875387286
 30
0.0
  0
VERTEX
  8
0
 10
29.8906817764
 20
-34.7875387286
 30
0.0
  0
VERTEX
  8
0
 10
30.0849838312
 20
-34.7875387286
 30
0.0
  0
VERTEX
  8
0
 10
30.2798044693
 20
-34.7875387286
 30
0.0
  0
VERTEX
  8
0
 10
30.4746251074
 20
-34.7875387286
 30
0.0
  0
VERTEX
  8
0
 10
30.5133812726
 20
-34.8976080339
 30
0.0
  0
VERTEX
  8
0
 10
30.5521400835
 20
-35.007679985
 30
0.0
  0
VERTEX
  8
0
 10
30.5908962487
 20
-35.117751936
 30
0.0
  0
VERTEX
  8
0
 10
30.6291364763
 20
-35.2278212413
 30
0.0
  0
VERTEX
  8
0
 10
30.6678952873
 20
-35.3378931924
 30
0.0
  0
VERTEX
  8
0
 10
30.819824323
 20
-35.3378931924
 30
0.0
  0
VERTEX
  8
0
 10
30.9717507128
 20
-35.3378931924
 30
0.0
  0
VERTEX
  8
0
 10
31.1236797484
 20
-35.3378931924
 30
0.0
  0
VERTEX
  8
0
 10
31.2756087841
 20
-35.3378931924
 30
0.0
  0
VERTEX
  8
0
 10
31.4270218823
 20
-35.3378931924
 30
0.0
  0
VERTEX
  8
0
 10
31.2275498693
 20
-34.8206116431
 30
0.0
  0
VERTEX
  8
0
 10
31.0270459814
 20
-34.3028141564
 30
0.0
  0
VERTEX
  8
0
 10
30.9262767771
 20
-34.0423636319
 30
0.0
  0
VERTEX
  8
0
 10
30.2317455545
 20
-34.0423636319
 30
0.0
  0
VERTEX
  8
0
 10
30.2477660747
 20
-34.0945579826
 30
0.0
  0
VERTEX
  8
0
 10
30.3108109889
 20
-34.2981627817
 30
0.0
  0
VERTEX
  8
0
 10
30.1805857232
 20
-34.2981627817
 30
0.0
  0
VERTEX
  8
0
 10
30.0503604575
 20
-34.2981627817
 30
0.0
  0
VERTEX
  8
0
 10
29.9201351919
 20
-34.2981627817
 30
0.0
  0
VERTEX
  8
0
 10
29.789912572
 20
-34.2981627817
 30
0.0
  0
VERTEX
  8
0
 10
29.6596873063
 20
-34.2981627817
 30
0.0
  0
VERTEX
  8
0
 10
29.7268676578
 20
-34.0945579826
 30
0.0
  0
VERTEX
  8
0
 10
29.743920053
 20
-34.0423636319
 30
0.0
  0
SEQEND
  8
0
  0
POLYLINE
  8
0
 62
0
 70
1
 66
1
 10
0.0
 20
0.0
 30
0.0
  0
VERTEX
  8
0
 10
29.0865945373
 20
-34.0423636319
 30
0.0
  0
VERTEX
  8
0
 10
29.743920053
 20
-34.0423636319
 30
0.0
  0
VERTEX
  8
0
 10
29.7940453635
 20
-33.891469121
 30
0.0
  0
VERTEX
  8
0
 10
29.861225715
 20
-33.6883802594
 30
0.0
  0
VERTEX
  8
0
 10
29.9284034207
 20
-33.4852913978
 30
0.0
  0
VERTEX
  8
0
 10
29.9955837722
 20
-33.2816865987
 30
0.0
  0
VERTEX
  8
0
 10
30.0586286864
 20
-33.4852913978
 30
0.0
  0
VERTEX
  8
0
 10
30.1216736006
 20
-33.6883802594
 30
0.0
  0
VERTEX
  8
0
 10
30.1847185147
 20
-33.891469121
 30
0.0
  0
VERTEX
  8
0
 10
30.2317455545
 20
-34.0423636319
 30
0.0
  0
VERTEX
  8
0
 10
30.9262767771
 20
-34.0423636319
 30
0.0
  0
VERTEX
  8
0
 10
30.827058031
 20
-33.7855326072
 30
0.0
  0
VERTEX
  8
0
 10
30.6270700806
 20
-33.2677351204
 30
0.0
  0
VERTEX
  8
0
 10
30.4270821302
 20
-32.7499376337
 30
0.0
  0
VERTEX
  8
0
 10
30.2570661785
 20
-32.7499376337
 30
0.0
  0
VERTEX
  8
0
 10
30.0870502269
 20
-32.7499376337
 30
0.0
  0
VERTEX
  8
0
 10
29.9175528586
 20
-32.7499376337
 30
0.0
  0
VERTEX
  8
0
 10
29.747536907
 20
-32.7499376337
 30
0.0
  0
VERTEX
  8
0
 10
29.5775209554
 20
-32.7499376337
 30
0.0
  0
VERTEX
  8
0
 10
29.3811525048
 20
-33.267219183
 30
0.0
  0
VERTEX
  8
0
 10
29.1842628251
 20
-33.7850166697
 30
0.0
  0
SEQEND
  8
0
  0
POLYLINE
  8
0
 62
0
 70
1
 66
1
 10
0.0
 20
0.0
 30
0.0
  0
VERTEX
  8
0
 10
31.6916052051
 20
-34.2397692439
 30
0.0
  0
VERTEX
  8
0
 10
31.6916052051
 20
-34.3028141564
 30
0.0
  0
VERTEX
  8
0
 10
31.6916052051
 20
-34.8200957057
 30
0.0
  0
VERTEX
  8
0
 10
31.6916052051
 20
-35.3378931924
 30
0.0
  0
VERTEX
  8
0
 10
31.8802240102
 20
-35.3378931924
 30
0.0
  0
VERTEX
  8
0
 10
32.0688428152
 20
-35.3378931924
 30
0.0
  0
VERTEX
  8
0
 10
32.2569456828
 20
-35.3378931924
 30
0.0
  0
VERTEX
  8
0
 10
32.4455644878
 20
-35.3378931924
 30
0.0
  0
VERTEX
  8
0
 10
32.6336647096
 20
-35.3378931924
 30
0.0
  0
VERTEX
  8
0
 10
33.0946191288
 20
-35.3048202779
 30
0.0
  0
VERTEX
  8
0
 10
33.5374866322
 20
-35.1761454739
 30
0.0
  0
VERTEX
  8
0
 10
33.9043896176
 20
-34.9007089503
 30
0.0
  0
VERTEX
  8
0
 10
34.1126457969
 20
-34.4914329565
 30
0.0
  0
VERTEX
  8
0
 10
34.1431337332
 20
-34.2397692439
 30
0.0
  0
VERTEX
  8
0
 10
33.4227659492
 20
-34.2397692439
 30
0.0
  0
VERTEX
  8
0
 10
33.4175959911
 20
-34.2883440949
 30
0.0
  0
VERTEX
  8
0
 10
33.3225126823
 20
-34.5260563292
 30
0.0
  0
VERTEX
  8
0
 10
33.1426780436
 20
-34.7064069006
 30
0.0
  0
VERTEX
  8
0
 10
32.904965803
 20
-34.8014902069
 30
0.0
  0
VERTEX
  8
0
 10
32.6496852298
 20
-34.8273294135
 30
0.0
  0
VERTEX
  8
0
 10
32.5964590027
 20
-34.8226780388
 30
0.0
  0
VERTEX
  8
0
 10
32.5437487131
 20
-34.8185452474
 30
0.0
  0
VERTEX
  8
0
 10
32.4910384235
 20
-34.8144098102
 30
0.0
  0
VERTEX
  8
0
 10
32.4378121965
 20
-34.8102770188
 30
0.0
  0
VERTEX
  8
0
 10
32.3851019069
 20
-34.8061415816
 30
0.0
  0
VERTEX
  8
0
 10
32.3851019069
 20
-34.4929834147
 30
0.0
  0
VERTEX
  8
0
 10
32.3851019069
 20
-34.2397692439
 30
0.0
  0
SEQEND
  8
0
  0
POLYLINE
  8
0
 62
0
 70
1
 66
1
 10
0.0
 20
0.0
 30
0.0
  0
VERTEX
  8
0
 10
31.6916052051
 20
-34.2397692439
 30
0.0
  0
VERTEX
  8
0
 10
32.3851019069
 20
-34.2397692439
 30
0.0
  0
VERTEX
  8
0
 10
32.3851019069
 20
-34.1793066645
 30
0.0
  0
VERTEX
  8
0
 10
32.3851019069
 20
-33.8661484977
 30
0.0
  0
VERTEX
  8
0
 10
32.3851019069
 20
-33.552987685
 30
0.0
  0
VERTEX
  8
0
 10
32.3851019069
 20
-33.2398295181
 30
0.0
  0
VERTEX
  8
0
 10
32.4378121965
 20
-33.2398295181
 30
0.0
  0
VERTEX
  8
0
 10
32.4905224861
 20
-33.2398295181
 30
0.0
  0
VERTEX
  8
0
 10
32.5437487131
 20
-33.2398295181
 30
0.0
  0
VERTEX
  8
0
 10
32.5964590027
 20
-33.2398295181
 30
0.0
  0
VERTEX
  8
0
 10
32.6496852298
 20
-33.2398295181
 30
0.0
  0
VERTEX
  8
0
 10
32.7783600372
 20
-33.2367286017
 30
0.0
  0
VERTEX
  8
0
 10
32.9054843863
 20
-33.2563659754
 30
0.0
  0
VERTEX
  8
0
 10
33.0274387773
 20
-33.2992575767
 30
0.0
  0
VERTEX
  8
0
 10
33.1390611896
 20
-33.3623024892
 30
0.0
  0
VERTEX
  8
0
 10
33.2377639982
 20
-33.4449847754
 30
0.0
  0
VERTEX
  8
0
 10
33.3204462866
 20
-33.5436875814
 30
0.0
  0
VERTEX
  8
0
 10
33.3840071382
 20
-33.6558232824
 30
0.0
  0
VERTEX
  8
0
 10
33.4263828032
 20
-33.777780316
 30
0.0
  0
VERTEX
  8
0
 10
33.4465361149
 20
-33.9049046618
 30
0.0
  0
VERTEX
  8
0
 10
33.4434351984
 20
-34.0335794658
 30
0.0
  0
VERTEX
  8
0
 10
33.4227659492
 20
-34.2397692439
 30
0.0
  0
VERTEX
  8
0
 10
34.1431337332
 20
-34.2397692439
 30
0.0
  0
VERTEX
  8
0
 10
34.1684543572
 20
-34.0335794658
 30
0.0
  0
VERTEX
  8
0
 10
34.1141962552
 20
-33.5767604959
 30
0.0
  0
VERTEX
  8
0
 10
33.9069719509
 20
-33.1690323144
 30
0.0
  0
VERTEX
  8
0
 10
33.5369706947
 20
-32.9003162072
 30
0.0
  0
VERTEX
  8
0
 10
33.093584608
 20
-32.7799096318
 30
0.0
  0
VERTEX
  8
0
 10
32.6336647096
 20
-32.7499376337
 30
0.0
  0
VERTEX
  8
0
 10
32.4455644878
 20
-32.7499376337
 30
0.0
  0
VERTEX
  8
0
 10
32.2569456828
 20
-32.7499376337
 30
0.0
  0
VERTEX
  8
0
 10
32.0688428152
 20
-32.7499376337
 30
0.0
  0
VERTEX
  8
0
 10
31.8802240102
 20
-32.7499376337
 30
0.0
  0
VERTEX
  8
0
 10
31.6916052051
 20
-32.7499376337
 30
0.0
  0
VERTEX
  8
0
 10
31.6916052051
 20
-33.267219183
 30
0.0
  0
VERTEX
  8
0
 10
31.6916052051
 20
-33.7850166697
 30
0.0
  0
SEQEND
  8
0
  0
POLYLINE
  8
0
 62
0
 70
1
 66
1
 10
0.0
 20
0.0
 30
0.0
  0
VERTEX
  8
0
 10
21.193124162
 20
-32.7501228421
 30
0.0
  0
VERTEX
  8
0
 10
21.3687736679
 20
-32.7501228421
 30
0.0
  0
VERTEX
  8
0
 10
21.544527665
 20
-32.7501228421
 30
0.0
  0
VERTEX
  8
0
 10
21.7200424665
 20
-32.7501228421
 30
0.0
  0
VERTEX
  8
0
 10
21.8958604231
 20
-32.7501228421
 30
0.0
  0
VERTEX
  8
0
 10
22.0715407939
 20
-32.7501228421
 30
0.0
  0
VERTEX
  8
0
 10
22.2477193646
 20
-33.1019509093
 30
0.0
  0
VERTEX
  8
0
 10
22.4240027413
 20
-33.4539882739
 30
0.0
  0
VERTEX
  8
0
 10
22.6002258713
 20
-33.8059053262
 30
0.0
  0
VERTEX
  8
0
 10
22.7764930505
 20
-34.1579103444
 30
0.0
  0
VERTEX
  8
0
 10
22.9526032591
 20
-34.5096018928
 30
0.0
  0
VERTEX
  8
0
 10
22.9510160647
 20
-34.1577738255
 30
0.0
  0
VERTEX
  8
0
 10
22.9494279262
 20
-33.8057364609
 30
0.0
  0
VERTEX
  8
0
 10
22.9478403304
 20
-33.4538194087
 30
0.0
  0
VERTEX
  8
0
 10
22.9462523378
 20
-33.1018143904
 30
0.0
  0
VERTEX
  8
0
 10
22.9446657594
 20
-32.7501228421
 30
0.0
  0
VERTEX
  8
0
 10
23.0705831762
 20
-32.7501228421
 30
0.0
  0
VERTEX
  8
0
 10
23.1965754995
 20
-32.7501228421
 30
0.0
  0
VERTEX
  8
0
 10
23.3223963512
 20
-32.7501228421
 30
0.0
  0
VERTEX
  8
0
 10
23.4484345249
 20
-32.7501228421
 30
0.0
  0
VERTEX
  8
0
 10
23.5743740678
 20
-32.7501228421
 30
0.0
  0
VERTEX
  8
0
 10
23.5743740678
 20
-33.2675481802
 30
0.0
  0
VERTEX
  8
0
 10
23.5743740678
 20
-33.7852813268
 30
0.0
  0
VERTEX
  8
0
 10
23.5743740678
 20
-34.3028375331
 30
0.0
  0
VERTEX
  8
0
 10
23.5743740678
 20
-34.8205231085
 30
0.0
  0
VERTEX
  8
0
 10
23.5743740678
 20
-35.3377476715
 30
0.0
  0
VERTEX
  8
0
 10
23.4029570801
 20
-35.3377476715
 30
0.0
  0
VERTEX
  8
0
 10
23.231438119
 20
-35.3377476715
 30
0.0
  0
VERTEX
  8
0
 10
23.0601525898
 20
-35.3377476715
 30
0.0
  0
VERTEX
  8
0
 10
22.8885712106
 20
-35.3377476715
 30
0.0
  0
VERTEX
  8
0
 10
22.7171241017
 20
-35.3377476715
 30
0.0
  0
VERTEX
  8
0
 10
22.5351258185
 20
-34.9838033452
 30
0.0
  0
VERTEX
  8
0
 10
22.3530192672
 20
-34.6296484626
 30
0.0
  0
VERTEX
  8
0
 10
22.1709749526
 20
-34.2756146161
 30
0.0
  0
VERTEX
  8
0
 10
21.988885134
 20
-33.9214922744
 30
0.0
  0
VERTEX
  8
0
 10
21.806957471
 20
-33.5676852882
 30
0.0
  0
VERTEX
  8
0
 10
21.8111899892
 20
-33.9216296145
 30
0.0
  0
VERTEX
  8
0
 10
21.8154250253
 20
-34.2757844971
 30
0.0
  0
VERTEX
  8
0
 10
21.819658614
 20
-34.6298183436
 30
0.0
  0
VERTEX
  8
0
 10
21.823893261
 20
-34.9839406854
 30
0.0
  0
VERTEX
  8
0
 10
21.8281241368
 20
-35.3377476715
 30
0.0
  0
VERTEX
  8
0
 10
21.7011485904
 20
-35.3377476715
 30
0.0
  0
VERTEX
  8
0
 10
21.5740975081
 20
-35.3377476715
 30
0.0
  0
VERTEX
  8
0
 10
21.4472193384
 20
-35.3377476715
 30
0.0
  0
VERTEX
  8
0
 10
21.3201220204
 20
-35.3377476715
 30
0.0
  0
VERTEX
  8
0
 10
21.193124162
 20
-35.3377476715
 30
0.0
  0
VERTEX
  8
0
 10
21.193124162
 20
-34.8203223334
 30
0.0
  0
VERTEX
  8
0
 10
21.193124162
 20
-34.3025891868
 30
0.0
  0
VERTEX
  8
0
 10
21.193124162
 20
-33.7850329805
 30
0.0
  0
VERTEX
  8
0
 10
21.193124162
 20
-33.2673474051
 30
0.0
  0
SEQEND
  8
0
  0
POLYLINE
  8
0
 62
0
 70
1
 66
1
 10
0.0
 20
0.0
 30
0.0
  0
VERTEX
  8
0
 10
36.9992895369
 20
-34.5539619315
 30
0.0
  0
VERTEX
  8
0
 10
36.9992895369
 20
-34.6366442177
 30
0.0
  0
VERTEX
  8
0
 10
36.9992895369
 20
-34.7952910198
 30
0.0
  0
VERTEX
  8
0
 10
36.9992895369
 20
-34.9539378218
 30
0.0
  0
VERTEX
  8
0
 10
36.9992895369
 20
-35.1131005614
 30
0.0
  0
VERTEX
  8
0
 10
37.0256446817
 20
-35.1105155824
 30
0.0
  0
VERTEX
  8
0
 10
37.051483889
 20
-35.1084491867
 30
0.0
  0
VERTEX
  8
0
 10
37.0773230963
 20
-35.106382791
 30
0.0
  0
VERTEX
  8
0
 10
37.1031596578
 20
-35.1043137494
 30
0.0
  0
VERTEX
  8
0
 10
37.1289988651
 20
-35.1022473537
 30
0.0
  0
VERTEX
  8
0
 10
37.1289988651
 20
-35.0330006083
 30
0.0
  0
VERTEX
  8
0
 10
37.1289988651
 20
-34.9637538629
 30
0.0
  0
VERTEX
  8
0
 10
37.1289988651
 20
-34.8945097633
 30
0.0
  0
VERTEX
  8
0
 10
37.1289988651
 20
-34.8247444345
 30
0.0
  0
VERTEX
  8
0
 10
37.1289988651
 20
-34.7555003349
 30
0.0
  0
VERTEX
  8
0
 10
37.1507026351
 20
-34.7555003349
 30
0.0
  0
VERTEX
  8
0
 10
37.1724064051
 20
-34.7555003349
 30
0.0
  0
VERTEX
  8
0
 10
37.1941101751
 20
-34.7555003349
 30
0.0
  0
VERTEX
  8
0
 10
37.2152980076
 20
-34.7555003349
 30
0.0
  0
VERTEX
  8
0
 10
37.237517715
 20
-34.7555003349
 30
0.0
  0
VERTEX
  8
0
 10
37.2814438383
 20
-34.8252630178
 30
0.0
  0
VERTEX
  8
0
 10
37.3253699615
 20
-34.89399118
 30
0.0
  0
VERTEX
  8
0
 10
37.369293439
 20
-34.9632379254
 30
0.0
  0
VERTEX
  8
0
 10
37.4132195622
 20
-35.0330006083
 30
0.0
  0
VERTEX
  8
0
 10
37.4571430397
 20
-35.1022473537
 30
0.0
  0
VERTEX
  8
0
 10
37.4840167678
 20
-35.1022473537
 30
0.0
  0
VERTEX
  8
0
 10
37.51088785
 20
-35.1022473537
 30
0.0
  0
VERTEX
  8
0
 10
37.5382748698
 20
-35.1022473537
 30
0.0
  0
VERTEX
  8
0
 10
37.5651485979
 20
-35.1022473537
 30
0.0
  0
VERTEX
  8
0
 10
37.5920196802
 20
-35.1022473537
 30
0.0
  0
VERTEX
  8
0
 10
37.5470616819
 20
-35.0330006083
 30
0.0
  0
VERTEX
  8
0
 10
37.5021010379
 20
-34.9637538629
 30
0.0
  0
VERTEX
  8
0
 10
37.4571430397
 20
-34.8945097633
 30
0.0
  0
VERTEX
  8
0
 10
37.4121850414
 20
-34.8247444345
 30
0.0
  0
VERTEX
  8
0
 10
37.3672270432
 20
-34.7555003349
 30
0.0
  0
VERTEX
  8
0
 10
37.4008158961
 20
-34.7539498767
 30
0.0
  0
VERTEX
  8
0
 10
37.4333728739
 20
-34.7461975855
 30
0.0
  0
VERTEX
  8
0
 10
37.4643793935
 20
-34.7337939197
 30
0.0
  0
VERTEX
  8
0
 10
37.4928009341
 20
-34.7157070042
 30
0.0
  0
VERTEX
  8
0
 10
37.5181215581
 20
-34.6929713599
 30
0.0
  0
VERTEX
  8
0
 10
37.5387934531
 20
-34.6666162158
 30
0.0
  0
VERTEX
  8
0
 10
37.5548113275
 20
-34.6371601552
 30
0.0
  0
VERTEX
  8
0
 10
37.5656645354
 20
-34.605637699
 30
0.0
  0
VERTEX
  8
0
 10
37.5713477851
 20
-34.5725647845
 30
0.0
  0
VERTEX
  8
0
 10
37.5708318477
 20
-34.5539619315
 30
0.0
  0
VERTEX
  8
0
 10
37.4426729777
 20
-34.5539619315
 30
0.0
  0
VERTEX
  8
0
 10
37.4380242488
 20
-34.5932340331
 30
0.0
  0
VERTEX
  8
0
 10
37.4142514372
 20
-34.6335433013
 30
0.0
  0
VERTEX
  8
0
 10
37.3734288763
 20
-34.6573134664
 30
0.0
  0
VERTEX
  8
0
 10
37.3274363573
 20
-34.6660976325
 30
0.0
  0
VERTEX
  8
0
 10
37.27989338
 20
-34.668166674
 30
0.0
  0
VERTEX
  8
0
 10
37.2494054437
 20
-34.668166674
 30
0.0
  0
VERTEX
  8
0
 10
37.2194334449
 20
-34.668166674
 30
0.0
  0
VERTEX
  8
0
 10
37.1889428628
 20
-34.668166674
 30
0.0
  0
VERTEX
  8
0
 10
37.158970864
 20
-34.668166674
 30
0.0
  0
VERTEX
  8
0
 10
37.1289988651
 20
-34.668166674
 30
0.0
  0
VERTEX
  8
0
 10
37.1289988651
 20
-34.620623698
 30
0.0
  0
VERTEX
  8
0
 10
37.1289988651
 20
-34.5730807219
 30
0.0
  0
VERTEX
  8
0
 10
37.1289988651
 20
-34.5539619315
 30
0.0
  0
SEQEND
  8
0
  0
POLYLINE
  8
0
 62
0
 70
1
 66
1
 10
0.0
 20
0.0
 30
0.0
  0
VERTEX
  8
0
 10
36.6210200519
 20
-34.5539619315
 30
0.0
  0
VERTEX
  8
0
 10
36.7502107968
 20
-34.5539619315
 30
0.0
  0
VERTEX
  8
0
 10
36.7853501079
 20
-34.4593919169
 30
0.0
  0
VERTEX
  8
0
 10
36.8618305632
 20
-34.347256216
 30
0.0
  0
VERTEX
  8
0
 10
36.9620838301
 20
-34.2557871178
 30
0.0
  0
VERTEX
  8
0
 10
37.0814558879
 20
-34.1911917471
 30
0.0
  0
VERTEX
  8
0
 10
37.2127130285
 20
-34.1560524369
 30
0.0
  0
VERTEX
  8
0
 10
37.3486241898
 20
-34.1529568121
 30
0.0
  0
VERTEX
  8
0
 10
37.4809158512
 20
-34.1824128727
 30
0.0
  0
VERTEX
  8
0
 10
37.6028702422
 20
-34.2418409313
 30
0.0
  0
VERTEX
  8
0
 10
37.7077748839
 20
-34.3286560089
 30
0.0
  0
VERTEX
  8
0
 10
37.7883907766
 20
-34.4371775017
 30
0.0
  0
VERTEX
  8
0
 10
37.8380001496
 20
-34.5539672232
 30
0.0
  0
VERTEX
  8
0
 10
37.9062123761
 20
-34.5539672232
 30
0.0
  0
VERTEX
  8
0
 10
37.9000211263
 20
-34.5146924758
 30
0.0
  0
VERTEX
  8
0
 10
37.8044192343
 20
-34.3286560089
 30
0.0
  0
VERTEX
  8
0
 10
37.6555911151
 20
-34.1808624144
 30
0.0
  0
VERTEX
  8
0
 10
37.4690387059
 20
-34.0862950457
 30
0.0
  0
VERTEX
  8
0
 10
37.2623329849
 20
-34.0547725894
 30
0.0
  0
VERTEX
  8
0
 10
37.0556272639
 20
-34.0878455039
 30
0.0
  0
VERTEX
  8
0
 10
36.8695934379
 20
-34.1829288101
 30
0.0
  0
VERTEX
  8
0
 10
36.7217998396
 20
-34.3317569253
 30
0.0
  0
VERTEX
  8
0
 10
36.626713885
 20
-34.5177933922
 30
0.0
  0
VERTEX
  8
0
 10
36.6210253436
 20
-34.5539672232
 30
0.0
  0
SEQEND
  8
0
  0
POLYLINE
  8
0
 62
0
 70
1
 66
1
 10
0.0
 20
0.0
 30
0.0
  0
VERTEX
  8
0
 10
36.9992895369
 20
-34.5539619315
 30
0.0
  0
VERTEX
  8
0
 10
37.1289988651
 20
-34.5539619315
 30
0.0
  0
VERTEX
  8
0
 10
37.1289988651
 20
-34.5255377459
 30
0.0
  0
VERTEX
  8
0
 10
37.1289988651
 20
-34.4779974157
 30
0.0
  0
VERTEX
  8
0
 10
37.1289988651
 20
-34.4304544397
 30
0.0
  0
VERTEX
  8
0
 10
37.158970864
 20
-34.4304544397
 30
0.0
  0
VERTEX
  8
0
 10
37.1894588002
 20
-34.4304544397
 30
0.0
  0
VERTEX
  8
0
 10
37.2194334449
 20
-34.4304544397
 30
0.0
  0
VERTEX
  8
0
 10
37.2494054437
 20
-34.4304544397
 30
0.0
  0
VERTEX
  8
0
 10
37.27989338
 20
-34.4304544397
 30
0.0
  0
VERTEX
  8
0
 10
37.325885899
 20
-34.4325711062
 30
0.0
  0
VERTEX
  8
0
 10
37.3708438972
 20
-34.4413552723
 30
0.0
  0
VERTEX
  8
0
 10
37.4111505206
 20
-34.4635802708
 30
0.0
  0
VERTEX
  8
0
 10
37.4364711446
 20
-34.50130456
 30
0.0
  0
VERTEX
  8
0
 10
37.4436942694
 20
-34.5467784945
 30
0.0
  0
VERTEX
  8
0
 10
37.4426359361
 20
-34.554001619
 30
0.0
  0
VERTEX
  8
0
 10
37.5708318477
 20
-34.554001619
 30
0.0
  0
VERTEX
  8
0
 10
37.5708318477
 20
-34.5384970367
 30
0.0
  0
VERTEX
  8
0
 10
37.5610158064
 20
-34.4609820627
 30
0.0
  0
VERTEX
  8
0
 10
37.5238100995
 20
-34.391737963
 30
0.0
  0
VERTEX
  8
0
 10
37.460246602
 20
-34.3462613827
 30
0.0
  0
VERTEX
  8
0
 10
37.3848006675
 20
-34.3245655508
 30
0.0
  0
VERTEX
  8
0
 10
37.3062511706
 20
-34.3194061761
 30
0.0
  0
VERTEX
  8
0
 10
37.2447567147
 20
-34.3194061761
 30
0.0
  0
VERTEX
  8
0
 10
37.1837781963
 20
-34.3194061761
 30
0.0
  0
VERTEX
  8
0
 10
37.1222837404
 20
-34.3194061761
 30
0.0
  0
VERTEX
  8
0
 10
37.0607892845
 20
-34.3194061761
 30
0.0
  0
VERTEX
  8
0
 10
36.9992921828
 20
-34.3194061761
 30
0.0
  0
VERTEX
  8
0
 10
36.9992921828
 20
-34.4780529782
 30
0.0
  0
SEQEND
  8
0
  0
POLYLINE
  8
0
 62
0
 70
1
 66
1
 10
0.0
 20
0.0
 30
0.0
  0
VERTEX
  8
0
 10
34.451394471
 20
-32.7501228421
 30
0.0
  0
VERTEX
  8
0
 10
34.8164491671
 20
-32.7501228421
 30
0.0
  0
VERTEX
  8
0
 10
35.1817210287
 20
-32.7501228421
 30
0.0
  0
VERTEX
  8
0
 10
35.5468680548
 20
-32.7501228421
 30
0.0
  0
VERTEX
  8
0
 10
35.912106354
 20
-32.7501228421
 30
0.0
  0
VERTEX
  8
0
 10
36.2770193988
 20
-32.7501228421
 30
0.0
  0
VERTEX
  8
0
 10
36.2770193988
 20
-32.8479998232
 30
0.0
  0
VERTEX
  8
0
 10
36.2770193988
 20
-32.9456840734
 30
0.0
  0
VERTEX
  8
0
 10
36.2770193988
 20
-33.0435452615
 30
0.0
  0
VERTEX
  8
0
 10
36.2770193988
 20
-33.1413472381
 30
0.0
  0
VERTEX
  8
0
 10
36.2770193988
 20
-33.2396019765
 30
0.0
  0
VERTEX
  8
0
 10
36.0500506096
 20
-33.2396019765
 30
0.0
  0
VERTEX
  8
0
 10
35.8229468
 20
-33.2396019765
 30
0.0
  0
VERTEX
  8
0
 10
35.5961520716
 20
-33.2396019765
 30
0.0
  0
VERTEX
  8
0
 10
35.3689656157
 20
-33.2396019765
 30
0.0
  0
VERTEX
  8
0
 10
35.1419569437
 20
-33.2396019765
 30
0.0
  0
VERTEX
  8
0
 10
35.1419569437
 20
-33.3459439939
 30
0.0
  0
VERTEX
  8
0
 10
35.1419569437
 20
-33.4520766116
 30
0.0
  0
VERTEX
  8
0
 10
35.1419569437
 20
-33.5584014703
 30
0.0
  0
VERTEX
  8
0
 10
35.1419569437
 20
-33.664661996
 30
0.0
  0
VERTEX
  8
0
 10
35.1419569437
 20
-33.7714144414
 30
0.0
  0
VERTEX
  8
0
 10
35.3562281782
 20
-33.7714144414
 30
0.0
  0
VERTEX
  8
0
 10
35.5706268797
 20
-33.7714144414
 30
0.0
  0
VERTEX
  8
0
 10
35.7847337911
 20
-33.7714144414
 30
0.0
  0
VERTEX
  8
0
 10
35.9992105153
 20
-33.7714144414
 30
0.0
  0
VERTEX
  8
0
 10
36.2135194013
 20
-33.7714144414
 30
0.0
  0
VERTEX
  8
0
 10
36.2135194013
 20
-33.8698204873
 30
0.0
  0
VERTEX
  8
0
 10
36.2135194013
 20
-33.9680327606
 30
0.0
  0
VERTEX
  8
0
 10
36.2135194013
 20
-34.0664229281
 30
0.0
  0
VERTEX
  8
0
 10
36.2135194013
 20
-34.1647535641
 30
0.0
  0
VERTEX
  8
0
 10
36.2135194013
 20
-34.263539409
 30
0.0
  0
VERTEX
  8
0
 10
35.9992481668
 20
-34.263539409
 30
0.0
  0
VERTEX
  8
0
 10
35.7848494653
 20
-34.263539409
 30
0.0
  0
VERTEX
  8
0
 10
35.570742554
 20
-34.263539409
 30
0.0
  0
VERTEX
  8
0
 10
35.3562658298
 20
-34.263539409
 30
0.0
  0
VERTEX
  8
0
 10
35.1419569437
 20
-34.263539409
 30
0.0
  0
VERTEX
  8
0
 10
35.1419569437
 20
-34.3804627215
 30
0.0
  0
VERTEX
  8
0
 10
35.1419569437
 20
-34.4971557989
 30
0.0
  0
VERTEX
  8
0
 10
35.1419569437
 20
-34.6140602453
 30
0.0
  0
VERTEX
  8
0
 10
35.1419569437
 20
-34.7311980737
 30
0.0
  0
VERTEX
  8
0
 10
35.1419569437
 20
-34.8482685371
 30
0.0
  0
VERTEX
  8
0
 10
35.3773907695
 20
-34.8482685371
 30
0.0
  0
VERTEX
  8
0
 10
35.6129646511
 20
-34.8482685371
 30
0.0
  0
VERTEX
  8
0
 10
35.8482179241
 20
-34.8482685371
 30
0.0
  0
VERTEX
  8
0
 10
36.0838775347
 20
-34.8482685371
 30
0.0
  0
VERTEX
  8
0
 10
36.3193527305
 20
-34.8482685371
 30
0.0
  0
VERTEX
  8
0
 10
36.3193527305
 20
-34.9461455183
 30
0.0
  0
VERTEX
  8
0
 10
36.3193527305
 20
-35.0438297685
 30
0.0
  0
VERTEX
  8
0
 10
36.3193527305
 20
-35.1416909566
 30
0.0
  0
VERTEX
  8
0
 10
36.3193527305
 20
-35.2394929332
 30
0.0
  0
VERTEX
  8
0
 10
36.3193527305
 20
-35.3377476715
 30
0.0
  0
VERTEX
  8
0
 10
35.9458329979
 20
-35.3377476715
 30
0.0
  0
VERTEX
  8
0
 10
35.5720910643
 20
-35.3377476715
 30
0.0
  0
VERTEX
  8
0
 10
35.1984768606
 20
-35.3377476715
 30
0.0
  0
VERTEX
  8
0
 10
34.8247692675
 20
-35.3377476715
 30
0.0
  0
VERTEX
  8
0
 10
34.451394471
 20
-35.3377476715
 30
0.0
  0
VERTEX
  8
0
 10
34.451394471
 20
-34.8203223334
 30
0.0
  0
VERTEX
  8
0
 10
34.451394471
 20
-34.3025891868
 30
0.0
  0
VERTEX
  8
0
 10
34.451394471
 20
-33.7850329805
 30
0.0
  0
VERTEX
  8
0
 10
34.451394471
 20
-33.2673474051
 30
0.0
  0
SEQEND
  8
0
  0
POLYLINE
  8
0
 62
0
 70
1
 66
1
 10
0.0
 20
0.0
 30
0.0
  0
VERTEX
  8
0
 10
36.6210200519
 20
-34.5539619315
 30
0.0
  0
VERTEX
  8
0
 10
36.5946675529
 20
-34.7250097536
 30
0.0
  0
VERTEX
  8
0
 10
36.627221885
 20
-34.9317154691
 30
0.0
  0
VERTEX
  8
0
 10
36.7223078396
 20
-35.117751936
 30
0.0
  0
VERTEX
  8
0
 10
36.8706200212
 20
-35.2655455305
 30
0.0
  0
VERTEX
  8
0
 10
37.0571697846
 20
-35.3606288367
 30
0.0
  0
VERTEX
  8
0
 10
37.2638755056
 20
-35.3931858137
 30
0.0
  0
VERTEX
  8
0
 10
37.4710998099
 20
-35.3601128992
 30
0.0
  0
VERTEX
  8
0
 10
37.6576495734
 20
-35.2639950722
 30
0.0
  0
VERTEX
  8
0
 10
37.8054458176
 20
-35.115166957
 30
0.0
  0
VERTEX
  8
0
 10
37.9005291263
 20
-34.9286145527
 30
0.0
  0
VERTEX
  8
0
 10
37.9330861042
 20
-34.7213928997
 30
0.0
  0
VERTEX
  8
0
 10
37.9062150219
 20
-34.5539619315
 30
0.0
  0
VERTEX
  8
0
 10
37.8380027954
 20
-34.5539619315
 30
0.0
  0
VERTEX
  8
0
 10
37.841627587
 20
-34.562216931
 30
0.0
  0
VERTEX
  8
0
 10
37.8638525861
 20
-34.6960590472
 30
0.0
  0
VERTEX
  8
0
 10
37.8540365448
 20
-34.8314489757
 30
0.0
  0
VERTEX
  8
0
 10
37.8121794631
 20
-34.9606423631
 30
0.0
  0
VERTEX
  8
0
 10
37.7413822576
 20
-35.0763975638
 30
0.0
  0
VERTEX
  8
0
 10
37.6447484906
 20
-35.1725153908
 30
0.0
  0
VERTEX
  8
0
 10
37.5289932868
 20
-35.2427940111
 30
0.0
  0
VERTEX
  8
0
 10
37.3992839586
 20
-35.2836192168
 30
0.0
  0
VERTEX
  8
0
 10
37.2638913806
 20
-35.2929325495
 30
0.0
  0
VERTEX
  8
0
 10
37.1765603633
 20
-35.2851802583
 30
0.0
  0
VERTEX
  8
0
 10
37.0912930958
 20
-35.2639871347
 30
0.0
  0
VERTEX
  8
0
 10
37.0101612657
 20
-35.2288478246
 30
0.0
  0
VERTEX
  8
0
 10
36.9362631436
 20
-35.181820786
 30
0.0
  0
VERTEX
  8
0
 10
36.8706358962
 20
-35.1229113107
 30
0.0
  0
VERTEX
  8
0
 10
36.815856565
 20
-35.0546964402
 30
0.0
  0
VERTEX
  8
0
 10
36.7719330876
 20
-34.9782159869
 30
0.0
  0
VERTEX
  8
0
 10
36.7414425055
 20
-34.8955337007
 30
0.0
  0
VERTEX
  8
0
 10
36.7244033395
 20
-34.8092345605
 30
0.0
  0
VERTEX
  8
0
 10
36.7213077146
 20
-34.7213849622
 30
0.0
  0
VERTEX
  8
0
 10
36.7378441723
 20
-34.5865083252
 30
0.0
  0
VERTEX
  8
0
 10
36.7502531301
 20
-34.553953994
 30
0.0
  0
SEQEND
  8
0
  0
POLYLINE
  8
0
 62
0
 70
1
 66
1
 10
0.0
 20
0.0
 30
0.0
  0
VERTEX
  8
0
 10
17.1688118211
 20
-32.7501228421
 30
0.0
  0
VERTEX
  8
0
 10
17.3063686631
 20
-32.7501228421
 30
0.0
  0
VERTEX
  8
0
 10
17.4440073356
 20
-32.7501228421
 30
0.0
  0
VERTEX
  8
0
 10
17.5814586861
 20
-32.7501228421
 30
0.0
  0
VERTEX
  8
0
 10
17.7191474473
 20
-32.7501228421
 30
0.0
  0
VERTEX
  8
0
 10
17.8567284606
 20
-32.7501228421
 30
0.0
  0
VERTEX
  8
0
 10
17.8567284606
 20
-33.2675481802
 30
0.0
  0
VERTEX
  8
0
 10
17.8567284606
 20
-33.7852813268
 30
0.0
  0
VERTEX
  8
0
 10
17.8567284606
 20
-34.3028375331
 30
0.0
  0
VERTEX
  8
0
 10
17.8567284606
 20
-34.8205231085
 30
0.0
  0
VERTEX
  8
0
 10
17.8567284606
 20
-35.3377476715
 30
0.0
  0
VERTEX
  8
0
 10
17.7191716186
 20
-35.3377476715
 30
0.0
  0
VERTEX
  8
0
 10
17.5815329461
 20
-35.3377476715
 30
0.0
  0
VERTEX
  8
0
 10
17.4440815955
 20
-35.3377476715
 30
0.0
  0
VERTEX
  8
0
 10
17.3063928344
 20
-35.3377476715
 30
0.0
  0
VERTEX
  8
0
 10
17.1688118211
 20
-35.3377476715
 30
0.0
  0
VERTEX
  8
0
 10
17.1688118211
 20
-34.8203223334
 30
0.0
  0
VERTEX
  8
0
 10
17.1688118211
 20
-34.3025891868
 30
0.0
  0
VERTEX
  8
0
 10
17.1688118211
 20
-33.7850329805
 30
0.0
  0
VERTEX
  8
0
 10
17.1688118211
 20
-33.2673474051
 30
0.0
  0
SEQEND
  8
0
  0
POLYLINE
  8
0
 62
0
 70
1
 66
1
 10
0.0
 20
0.0
 30
0.0
  0
VERTEX
  8
0
 10
6.20183308809
 20
-35.3853726684
 30
0.0
  0
VERTEX
  8
0
 10
6.04525282285
 20
-35.3810343863
 30
0.0
  0
VERTEX
  8
0
 10
5.88912310861
 20
-35.3674283131
 30
0.0
  0
VERTEX
  8
0
 10
5.73383890636
 20
-35.3445605427
 30
0.0
  0
VERTEX
  8
0
 10
5.58056393303
 20
-35.3126161882
 30
0.0
  0
VERTEX
  8
0
 10
5.42924978531
 20
-35.2716018426
 30
0.0
  0
VERTEX
  8
0
 10
5.44141827517
 20
-35.1578529184
 30
0.0
  0
VERTEX
  8
0
 10
5.45356280389
 20
-35.0443279791
 30
0.0
  0
VERTEX
  8
0
 10
5.46572933033
 20
-34.9305974091
 30
0.0
  0
VERTEX
  8
0
 10
5.47792014536
 20
-34.816639793
 30
0.0
  0
VERTEX
  8
0
 10
5.49010394957
 20
-34.7027477134
 30
0.0
  0
VERTEX
  8
0
 10
5.62431575632
 20
-34.763849821
 30
0.0
  0
VERTEX
  8
0
 10
5.76399412748
 20
-34.8117744315
 30
0.0
  0
VERTEX
  8
0
 10
5.90776502538
 20
-34.846001623
 30
0.0
  0
VERTEX
  8
0
 10
6.05390954107
 20
-34.8661438082
 30
0.0
  0
VERTEX
  8
0
 10
6.20183308809
 20
-34.8720810356
 30
0.0
  0
VERTEX
  8
0
 10
6.31588833688
 20
-34.8671783477
 30
0.0
  0
VERTEX
  8
0
 10
6.42814475772
 20
-34.8478740532
 30
0.0
  0
VERTEX
  8
0
 10
6.53264459131
 20
-34.8026758873
 30
0.0
  0
VERTEX
  8
0
 10
6.60756737496
 20
-34.7180943675
 30
0.0
  0
VERTEX
  8
0
 10
6.63045807114
 20
-34.6074977197
 30
0.0
  0
VERTEX
  8
0
 10
6.40955800751
 20
-34.3489976915
 30
0.0
  0
VERTEX
  8
0
 10
6.06465067675
 20
-34.2360643485
 30
0.0
  0
VERTEX
  8
0
 10
5.73053886803
 20
-34.0958526335
 30
0.0
  0
VERTEX
  8
0
 10
5.47988551902
 20
-33.8397852809
 30
0.0
  0
VERTEX
  8
0
 10
5.40279145302
 20
-33.4883102934
 30
0.0
  0
VERTEX
  8
0
 10
5.46177395592
 20
-33.1855290911
 30
0.0
  0
VERTEX
  8
0
 10
5.64909500138
 20
-32.941199438
 30
0.0
  0
VERTEX
  8
0
 10
5.9193375062
 20
-32.791066672
 30
0.0
  0
VERTEX
  8
0
 10
6.22036698002
 20
-32.7164004983
 30
0.0
  0
VERTEX
  8
0
 10
6.52991640845
 20
-32.6945603457
 30
0.0
  0
VERTEX
  8
0
 10
6.66568138704
 20
-32.6970376782
 30
0.0
  0
VERTEX
  8
0
 10
6.80105977523
 20
-32.7081233865
 30
0.0
  0
VERTEX
  8
0
 10
6.93565662688
 20
-32.7278080458
 30
0.0
  0
VERTEX
  8
0
 10
7.06841086339
 20
-32.7559237207
 30
0.0
  0
VERTEX
  8
0
 10
7.19931221532
 20
-32.7924561726
 30
0.0
  0
VERTEX
  8
0
 10
7.1908471789
 20
-32.8982691252
 30
0.0
  0
VERTEX
  8
0
 10
7.18239881107
 20
-33.0038737201
 30
0.0
  0
VERTEX
  8
0
 10
7.17393514053
 20
-33.1096695992
 30
0.0
  0
VERTEX
  8
0
 10
7.16547659098
 20
-33.2154014655
 30
0.0
  0
VERTEX
  8
0
 10
7.15697888366
 20
-33.3216228044
 30
0.0
  0
VERTEX
  8
0
 10
7.04622850084
 20
-33.2783144518
 30
0.0
  0
VERTEX
  8
0
 10
6.93195414216
 20
-33.2444821506
 30
0.0
  0
VERTEX
  8
0
 10
6.8150953757
 20
-33.220454945
 30
0.0
  0
VERTEX
  8
0
 10
6.69685971033
 20
-33.2064658959
 30
0.0
  0
VERTEX
  8
0
 10
6.57754140657
 20
-33.2025603122
 30
0.0
  0
VERTEX
  8
0
 10
6.46113075526
 20
-33.2061864414
 30
0.0
  0
VERTEX
  8
0
 10
6.34589371175
 20
-33.2215375691
 30
0.0
  0
VERTEX
  8
0
 10
6.23568122354
 20
-33.2583102407
 30
0.0
  0
VERTEX
  8
0
 10
6.1479192476
 20
-33.3328631442
 30
0.0
  0
VERTEX
  8
0
 10
6.11716642478
 20
-33.4433311297
 30
0.0
  0
VERTEX
  8
0
 10
6.353725598
 20
-33.6738417864
 30
0.0
  0
VERTEX
  8
0
 10
6.69370977449
 20
-33.7738613595
 30
0.0
  0
VERTEX
  8
0
 10
7.02038453211
 20
-33.9090120916
 30
0.0
  0
VERTEX
  8
0
 10
7.26599831603
 20
-34.1587641309
 30
0.0
  0
VERTEX
  8
0
 10
7.34218720967
 20
-34.5016643933
 30
0.0
  0
VERTEX
  8
0
 10
7.29030960151
 20
-34.8202340549
 30
0.0
  0
VERTEX
  8
0
 10
7.11314278021
 20
-35.0884279592
 30
0.0
  0
VERTEX
  8
0
 10
6.83812559662
 20
-35.2567451679
 30
0.0
  0
VERTEX
  8
0
 10
6.52488427889
 20
-35.3369497478
 30
0.0
  0
VERTEX
  8
0
 10
6.20183308809
 20
-35.3589143368
 30
0.0
  0
VERTEX
  8
0
 10
6.20183308809
 20
-35.3640157693
 30
0.0
  0
VERTEX
  8
0
 10
6.20183308809
 20
-35.3692764601
 30
0.0
  0
VERTEX
  8
0
 10
6.20183308809
 20
-35.3745713998
 30
0.0
  0
VERTEX
  8
0
 10
6.20183308809
 20
-35.3800603688
 30
0.0
  0
SEQEND
  8
0
  0
POLYLINE
  8
0
 62
0
 70
1
 66
1
 10
0.0
 20
0.0
 30
0.0
  0
VERTEX
  8
0
 10
3.94493734401
 20
-35.411831
 30
0.0
  0
VERTEX
  8
0
 10
3.59824865027
 20
-35.379398501
 30
0.0
  0
VERTEX
  8
0
 10
3.27110211619
 20
-35.2635643751
 30
0.0
  0
VERTEX
  8
0
 10
3.00633301246
 20
-35.0407074385
 30
0.0
  0
VERTEX
  8
0
 10
2.85329990914
 20
-34.7299647628
 30
0.0
  0
VERTEX
  8
0
 10
2.80987488889
 20
-34.3852477343
 30
0.0
  0
VERTEX
  8
0
 10
2.80987488889
 20
-34.0635763585
 30
0.0
  0
VERTEX
  8
0
 10
2.80987488889
 20
-33.7417136252
 30
0.0
  0
VERTEX
  8
0
 10
2.80987488889
 20
-33.4199608915
 30
0.0
  0
VERTEX
  8
0
 10
2.80987488889
 20
-33.0981277323
 30
0.0
  0
VERTEX
  8
0
 10
2.80987488889
 20
-32.7765811736
 30
0.0
  0
VERTEX
  8
0
 10
2.94796079566
 20
-32.7765811736
 30
0.0
  0
VERTEX
  8
0
 10
3.08612884764
 20
-32.7765811736
 30
0.0
  0
VERTEX
  8
0
 10
3.22410885727
 20
-32.7765811736
 30
0.0
  0
VERTEX
  8
0
 10
3.36232719056
 20
-32.7765811736
 30
0.0
  0
VERTEX
  8
0
 10
3.50043736158
 20
-32.7765811736
 30
0.0
  0
VERTEX
  8
0
 10
3.50043736158
 20
-33.0749737
 30
0.0
  0
VERTEX
  8
0
 10
3.50043736158
 20
-33.3735437355
 30
0.0
  0
VERTEX
  8
0
 10
3.50043736158
 20
-33.6720117316
 30
0.0
  0
VERTEX
  8
0
 10
3.50043736158
 20
-33.9705543336
 30
0.0
  0
VERTEX
  8
0
 10
3.50043736158
 20
-34.2688310753
 30
0.0
  0
VERTEX
  8
0
 10
3.5100933499
 20
-34.4440214268
 30
0.0
  0
VERTEX
  8
0
 10
3.54737645545
 20
-34.6153913565
 30
0.0
  0
VERTEX
  8
0
 10
3.63082466132
 20
-34.7686780408
 30
0.0
  0
VERTEX
  8
0
 10
3.77262827181
 20
-34.8694380649
 30
0.0
  0
VERTEX
  8
0
 10
3.94493734401
 20
-34.8985393672
 30
0.0
  0
VERTEX
  8
0
 10
4.11763947775
 20
-34.8693815658
 30
0.0
  0
VERTEX
  8
0
 10
4.25965710818
 20
-34.7691077432
 30
0.0
  0
VERTEX
  8
0
 10
4.34407902925
 20
-34.6160851622
 30
0.0
  0
VERTEX
  8
0
 10
4.38217290079
 20
-34.4443000618
 30
0.0
  0
VERTEX
  8
0
 10
4.39208315966
 20
-34.2688310753
 30
0.0
  0
VERTEX
  8
0
 10
4.39208315966
 20
-33.970438549
 30
0.0
  0
VERTEX
  8
0
 10
4.39208315966
 20
-33.6718685134
 30
0.0
  0
VERTEX
  8
0
 10
4.39208315966
 20
-33.3734005174
 30
0.0
  0
VERTEX
  8
0
 10
4.39208315966
 20
-33.0748579154
 30
0.0
  0
VERTEX
  8
0
 10
4.39208315966
 20
-32.7765811736
 30
0.0
  0
VERTEX
  8
0
 10
4.53016906643
 20
-32.7765811736
 30
0.0
  0
VERTEX
  8
0
 10
4.66833711841
 20
-32.7765811736
 30
0.0
  0
VERTEX
  8
0
 10
4.80631712804
 20
-32.7765811736
 30
0.0
  0
VERTEX
  8
0
 10
4.94453546133
 20
-32.7765811736
 30
0.0
  0
VERTEX
  8
0
 10
5.08264563235
 20
-32.7765811736
 30
0.0
  0
VERTEX
  8
0
 10
5.08264563235
 20
-33.1003688085
 30
0.0
  0
VERTEX
  8
0
 10
5.08264563235
 20
-33.4243490598
 30
0.0
  0
VERTEX
  8
0
 10
5.08264563235
 20
-33.7482185877
 30
0.0
  0
VERTEX
  8
0
 10
5.08264563235
 20
-34.0721690705
 30
0.0
  0
VERTEX
  8
0
 10
5.08264563235
 20
-34.3958310669
 30
0.0
  0
VERTEX
  8
0
 10
5.03900177565
 20
-34.7412795934
 30
0.0
  0
VERTEX
  8
0
 10
4.88537093921
 20
-35.0521349157
 30
0.0
  0
VERTEX
  8
0
 10
4.6197596266
 20
-35.2747215868
 30
0.0
  0
VERTEX
  8
0
 10
4.29203767118
 20
-35.3901409873
 30
0.0
  0
VERTEX
  8
0
 10
3.94493734401
 20
-35.4224143326
 30
0.0
  0
VERTEX
  8
0
 10
3.94493734401
 20
-35.4203737597
 30
0.0
  0
VERTEX
  8
0
 10
3.94493734401
 20
-35.4184433797
 30
0.0
  0
VERTEX
  8
0
 10
3.94493734401
 20
-35.4161432778
 30
0.0
  0
VERTEX
  8
0
 10
3.94493734401
 20
-35.4137759977
 30
0.0
  0
SEQEND
  8
0
  0
POLYLINE
  8
0
 62
0
 70
1
 66
1
 10
0.0
 20
0.0
 30
0.0
  0
VERTEX
  8
0
 10
8.17562467671
 20
-33.2607686417
 30
0.0
  0
VERTEX
  8
0
 10
8.0475910007
 20
-33.2607686417
 30
0.0
  0
VERTEX
  8
0
 10
7.91948115941
 20
-33.2607686417
 30
0.0
  0
VERTEX
  8
0
 10
7.79154567157
 20
-33.2607686417
 30
0.0
  0
VERTEX
  8
0
 10
7.66338920926
 20
-33.2607686417
 30
0.0
  0
VERTEX
  8
0
 10
7.53533303536
 20
-33.2607686417
 30
0.0
  0
VERTEX
  8
0
 10
7.53533303536
 20
-33.1586591425
 30
0.0
  0
VERTEX
  8
0
 10
7.53533303536
 20
-33.0567507085
 30
0.0
  0
VERTEX
  8
0
 10
7.53533303536
 20
-32.9546576851
 30
0.0
  0
VERTEX
  8
0
 10
7.53533303536
 20
-32.8526264339
 30
0.0
  0
VERTEX
  8
0
 10
7.53533303536
 20
-32.7501228421
 30
0.0
  0
VERTEX
  8
0
 10
7.92895722935
 20
-32.7501228421
 30
0.0
  0
VERTEX
  8
0
 10
8.32281558444
 20
-32.7501228421
 30
0.0
  0
VERTEX
  8
0
 10
8.71653933446
 20
-32.7501228421
 30
0.0
  0
VERTEX
  8
0
 10
9.11036150051
 20
-32.7501228421
 30
0.0
  0
VERTEX
  8
0
 10
9.50383295752
 20
-32.7501228421
 30
0.0
  0
VERTEX
  8
0
 10
9.50383295752
 20
-32.8522323413
 30
0.0
  0
VERTEX
  8
0
 10
9.50383295752
 20
-32.9541407753
 30
0.0
  0
VERTEX
  8
0
 10
9.50383295752
 20
-33.0562337987
 30
0.0
  0
VERTEX
  8
0
 10
9.50383295752
 20
-33.1582650498
 30
0.0
  0
VERTEX
  8
0
 10
9.50383295752
 20
-33.2607686417
 30
0.0
  0
VERTEX
  8
0
 10
9.37579928151
 20
-33.2607686417
 30
0.0
  0
VERTEX
  8
0
 10
9.24768944022
 20
-33.2607686417
 30
0.0
  0
VERTEX
  8
0
 10
9.11975395238
 20
-33.2607686417
 30
0.0
  0
VERTEX
  8
0
 10
8.99159749007
 20
-33.2607686417
 30
0.0
  0
VERTEX
  8
0
 10
8.86354131617
 20
-33.2607686417
 30
0.0
  0
VERTEX
  8
0
 10
8.86354131617
 20
-33.6760844806
 30
0.0
  0
VERTEX
  8
0
 10
8.86354131617
 20
-34.0916473847
 30
0.0
  0
VERTEX
  8
0
 10
8.86354131617
 20
-34.507068266
 30
0.0
  0
VERTEX
  8
0
 10
8.86354131617
 20
-34.9225929864
 30
0.0
  0
VERTEX
  8
0
 10
8.86354131617
 20
-35.3377476715
 30
0.0
  0
VERTEX
  8
0
 10
8.72598447418
 20
-35.3377476715
 30
0.0
  0
VERTEX
  8
0
 10
8.5883458017
 20
-35.3377476715
 30
0.0
  0
VERTEX
  8
0
 10
8.45089445112
 20
-35.3377476715
 30
0.0
  0
VERTEX
  8
0
 10
8.31320568998
 20
-35.3377476715
 30
0.0
  0
VERTEX
  8
0
 10
8.17562467671
 20
-35.3377476715
 30
0.0
  0
VERTEX
  8
0
 10
8.17562467671
 20
-34.9224318327
 30
0.0
  0
VERTEX
  8
0
 10
8.17562467671
 20
-34.5068689286
 30
0.0
  0
VERTEX
  8
0
 10
8.17562467671
 20
-34.0914480473
 30
0.0
  0
VERTEX
  8
0
 10
8.17562467671
 20
-33.6759233268
 30
0.0
  0
SEQEND
  8
0
  0
POLYLINE
  8
0
 62
0
 70
1
 66
1
 10
0.0
 20
0.0
 30
0.0
  0
VERTEX
  8
0
 10
12.4901931248
 20
-34.0589000891
 30
0.0
  0
VERTEX
  8
0
 10
12.3976924139
 20
-34.3028141564
 30
0.0
  0
VERTEX
  8
0
 10
12.2008051155
 20
-34.8200957057
 30
0.0
  0
VERTEX
  8
0
 10
12.0039180816
 20
-35.3378931924
 30
0.0
  0
VERTEX
  8
0
 10
12.1434442448
 20
-35.3378931924
 30
0.0
  0
VERTEX
  8
0
 10
12.2824539414
 20
-35.3378931924
 30
0.0
  0
VERTEX
  8
0
 10
12.421463638
 20
-35.3378931924
 30
0.0
  0
VERTEX
  8
0
 10
12.5609898012
 20
-35.3378931924
 30
0.0
  0
VERTEX
  8
0
 10
12.6999994978
 20
-35.3378931924
 30
0.0
  0
VERTEX
  8
0
 10
12.7418573732
 20
-35.2273053038
 30
0.0
  0
VERTEX
  8
0
 10
12.7837152487
 20
-35.1172333527
 30
0.0
  0
VERTEX
  8
0
 10
12.8255731241
 20
-35.0071640475
 30
0.0
  0
VERTEX
  8
0
 10
12.8674309995
 20
-34.8976080339
 30
0.0
  0
VERTEX
  8
0
 10
12.9087721437
 20
-34.7875387286
 30
0.0
  0
VERTEX
  8
0
 10
13.103075786
 20
-34.7875387286
 30
0.0
  0
VERTEX
  8
0
 10
13.2973788992
 20
-34.7875387286
 30
0.0
  0
VERTEX
  8
0
 10
13.4916825415
 20
-34.7875387286
 30
0.0
  0
VERTEX
  8
0
 10
13.6859856546
 20
-34.7875387286
 30
0.0
  0
VERTEX
  8
0
 10
13.880289297
 20
-34.7875387286
 30
0.0
  0
VERTEX
  8
0
 10
13.9185297892
 20
-34.8976080339
 30
0.0
  0
VERTEX
  8
0
 10
13.9572870127
 20
-35.007679985
 30
0.0
  0
VERTEX
  8
0
 10
13.9960445007
 20
-35.117751936
 30
0.0
  0
VERTEX
  8
0
 10
14.0348017242
 20
-35.2278212413
 30
0.0
  0
VERTEX
  8
0
 10
14.0730422164
 20
-35.3378931924
 30
0.0
  0
VERTEX
  8
0
 10
14.2249709875
 20
-35.3378931924
 30
0.0
  0
VERTEX
  8
0
 10
14.3768997586
 20
-35.3378931924
 30
0.0
  0
VERTEX
  8
0
 10
14.5288282651
 20
-35.3378931924
 30
0.0
  0
VERTEX
  8
0
 10
14.6807570361
 20
-35.3378931924
 30
0.0
  0
VERTEX
  8
0
 10
14.8326858072
 20
-35.3378931924
 30
0.0
  0
VERTEX
  8
0
 10
14.6332148526
 20
-34.8206116431
 30
0.0
  0
VERTEX
  8
0
 10
14.4337436334
 20
-34.3028141564
 30
0.0
  0
VERTEX
  8
0
 10
14.3396927288
 20
-34.0589000891
 30
0.0
  0
VERTEX
  8
0
 10
13.6430943168
 20
-34.0589000891
 30
0.0
  0
VERTEX
  8
0
 10
13.6539464663
 20
-34.0945579826
 30
0.0
  0
VERTEX
  8
0
 10
13.7159581826
 20
-34.2981627817
 30
0.0
  0
VERTEX
  8
0
 10
13.5862501773
 20
-34.2981627817
 30
0.0
  0
VERTEX
  8
0
 10
13.4565424366
 20
-34.2981627817
 30
0.0
  0
VERTEX
  8
0
 10
13.3268346959
 20
-34.2981627817
 30
0.0
  0
VERTEX
  8
0
 10
13.1976434219
 20
-34.2981627817
 30
0.0
  0
VERTEX
  8
0
 10
13.0679356812
 20
-34.2981627817
 30
0.0
  0
VERTEX
  8
0
 10
13.1356317056
 20
-34.0945579826
 30
0.0
  0
VERTEX
  8
0
 10
13.1475173176
 20
-34.0589000891
 30
0.0
  0
SEQEND
  8
0
  0
POLYLINE
  8
0
 62
0
 70
1
 66
1
 10
0.0
 20
0.0
 30
0.0
  0
VERTEX
  8
0
 10
12.4901931248
 20
-34.0589000891
 30
0.0
  0
VERTEX
  8
0
 10
13.1475173176
 20
-34.0589000891
 30
0.0
  0
VERTEX
  8
0
 10
13.2033279946
 20
-33.891469121
 30
0.0
  0
VERTEX
  8
0
 10
13.271024019
 20
-33.6883802594
 30
0.0
  0
VERTEX
  8
0
 10
13.3387200434
 20
-33.4852913978
 30
0.0
  0
VERTEX
  8
0
 10
13.4064163324
 20
-33.2816865987
 30
0.0
  0
VERTEX
  8
0
 10
13.4684280487
 20
-33.4852913978
 30
0.0
  0
VERTEX
  8
0
 10
13.530439765
 20
-33.6883802594
 30
0.0
  0
VERTEX
  8
0
 10
13.59193475
 20
-33.891469121
 30
0.0
  0
VERTEX
  8
0
 10
13.6430943168
 20
-34.0589000891
 30
0.0
  0
VERTEX
  8
0
 10
14.3396927288
 20
-34.0589000891
 30
0.0
  0
VERTEX
  8
0
 10
14.2342726788
 20
-33.7855326072
 30
0.0
  0
VERTEX
  8
0
 10
14.034284993
 20
-33.2677351204
 30
0.0
  0
VERTEX
  8
0
 10
13.8348137738
 20
-32.7499376337
 30
0.0
  0
VERTEX
  8
0
 10
13.6658320784
 20
-32.7499376337
 30
0.0
  0
VERTEX
  8
0
 10
13.4963333871
 20
-32.7499376337
 30
0.0
  0
VERTEX
  8
0
 10
13.3273514272
 20
-32.7499376337
 30
0.0
  0
VERTEX
  8
0
 10
13.1578527359
 20
-32.7499376337
 30
0.0
  0
VERTEX
  8
0
 10
12.9883540447
 20
-32.7499376337
 30
0.0
  0
VERTEX
  8
0
 10
12.7914667463
 20
-33.267219183
 30
0.0
  0
VERTEX
  8
0
 10
12.5945794478
 20
-33.7850166697
 30
0.0
  0
SEQEND
  8
0
  0
POLYLINE
  8
0
 62
0
 70
1
 66
1
 10
0.0
 20
0.0
 30
0.0
  0
VERTEX
  8
0
 10
18.1213117834
 20
-35.3377476715
 30
0.0
  0
VERTEX
  8
0
 10
18.3175948157
 20
-34.8203223334
 30
0.0
  0
VERTEX
  8
0
 10
18.5139946137
 20
-34.3025891868
 30
0.0
  0
VERTEX
  8
0
 10
18.7103272901
 20
-33.7850329805
 30
0.0
  0
VERTEX
  8
0
 10
18.9067090422
 20
-33.2673474051
 30
0.0
  0
VERTEX
  8
0
 10
19.1029159113
 20
-32.7501228421
 30
0.0
  0
VERTEX
  8
0
 10
19.2716875751
 20
-32.7501228421
 30
0.0
  0
VERTEX
  8
0
 10
19.4405596386
 20
-32.7501228421
 30
0.0
  0
VERTEX
  8
0
 10
19.6092018726
 20
-32.7501228421
 30
0.0
  0
VERTEX
  8
0
 10
19.7781353911
 20
-32.7501228421
 30
0.0
  0
VERTEX
  8
0
 10
19.9469367112
 20
-32.7501228421
 30
0.0
  0
VERTEX
  8
0
 10
20.1474522617
 20
-33.2675481802
 30
0.0
  0
VERTEX
  8
0
 10
20.3480870958
 20
-33.7852813268
 30
0.0
  0
VERTEX
  8
0
 10
20.5486533609
 20
-34.3028375331
 30
0.0
  0
VERTEX
  8
0
 10
20.74926976
 20
-34.8205231085
 30
0.0
  0
VERTEX
  8
0
 10
20.9497075049
 20
-35.3377476715
 30
0.0
  0
VERTEX
  8
0
 10
20.797865914
 20
-35.3377476715
 30
0.0
  0
VERTEX
  8
0
 10
20.6459339947
 20
-35.3377476715
 30
0.0
  0
VERTEX
  8
0
 10
20.49420885
 20
-35.3377476715
 30
0.0
  0
VERTEX
  8
0
 10
20.3422216406
 20
-35.3377476715
 30
0.0
  0
VERTEX
  8
0
 10
20.1903533683
 20
-35.3377476715
 30
0.0
  0
VERTEX
  8
0
 10
20.1517316396
 20
-35.2277022008
 30
0.0
  0
VERTEX
  8
0
 10
20.1131859614
 20
-35.1178734221
 30
0.0
  0
VERTEX
  8
0
 10
20.0745704645
 20
-35.0078457078
 30
0.0
  0
VERTEX
  8
0
 10
20.0358778776
 20
-34.8975983401
 30
0.0
  0
VERTEX
  8
0
 10
19.9972075426
 20
-34.7874143745
 30
0.0
  0
VERTEX
  8
0
 10
19.8030407695
 20
-34.7874143745
 30
0.0
  0
VERTEX
  8
0
 10
19.6087584895
 20
-34.7874143745
 30
0.0
  0
VERTEX
  8
0
 10
19.4147406215
 20
-34.7874143745
 30
0.0
  0
VERTEX
  8
0
 10
19.2203876395
 20
-34.7874143745
 30
0.0
  0
VERTEX
  8
0
 10
19.0261867476
 20
-34.7874143745
 30
0.0
  0
VERTEX
  8
0
 10
18.9854487598
 20
-34.8974598453
 30
0.0
  0
VERTEX
  8
0
 10
18.9447909898
 20
-35.0072886239
 30
0.0
  0
VERTEX
  8
0
 10
18.9040595752
 20
-35.1173163382
 30
0.0
  0
VERTEX
  8
0
 10
18.8632468466
 20
-35.2275637059
 30
0.0
  0
VERTEX
  8
0
 10
18.822457589
 20
-35.3377476715
 30
0.0
  0
VERTEX
  8
0
 10
18.6822554232
 20
-35.3377476715
 30
0.0
  0
VERTEX
  8
0
 10
18.5419698531
 20
-35.3377476715
 30
0.0
  0
VERTEX
  8
0
 10
18.4018752073
 20
-35.3377476715
 30
0.0
  0
VERTEX
  8
0
 10
18.2615385854
 20
-35.3377476715
 30
0.0
  0
SEQEND
  8
0
  0
POLYLINE
  8
0
 62
0
 70
1
 66
1
 10
0.0
 20
0.0
 30
0.0
  0
VERTEX
  8
0
 10
9.73118861312
 20
-33.5814118706
 30
0.0
  0
VERTEX
  8
0
 10
9.73118861312
 20
-33.7757139203
 30
0.0
  0
VERTEX
  8
0
 10
9.73118861312
 20
-34.293511407
 30
0.0
  0
VERTEX
  8
0
 10
9.73118861312
 20
-34.811827477
 30
0.0
  0
VERTEX
  8
0
 10
9.73118861312
 20
-35.3296249637
 30
0.0
  0
VERTEX
  8
0
 10
9.86968131389
 20
-35.3296249637
 30
0.0
  0
VERTEX
  8
0
 10
10.007657548
 20
-35.3296249637
 30
0.0
  0
VERTEX
  8
0
 10
10.1456335176
 20
-35.3296249637
 30
0.0
  0
VERTEX
  8
0
 10
10.2836097517
 20
-35.3296249637
 30
0.0
  0
VERTEX
  8
0
 10
10.4221024525
 20
-35.3296249637
 30
0.0
  0
VERTEX
  8
0
 10
10.4221024525
 20
-35.1249856439
 30
0.0
  0
VERTEX
  8
0
 10
10.4221024525
 20
-34.9198303866
 30
0.0
  0
VERTEX
  8
0
 10
10.4221024525
 20
-34.7157070042
 30
0.0
  0
VERTEX
  8
0
 10
10.4221024525
 20
-34.5105517469
 30
0.0
  0
VERTEX
  8
0
 10
10.4221024525
 20
-34.3059150729
 30
0.0
  0
VERTEX
  8
0
 10
10.4510412534
 20
-34.3059150729
 30
0.0
  0
VERTEX
  8
0
 10
10.4799800543
 20
-34.3059150729
 30
0.0
  0
VERTEX
  8
0
 10
10.5094355865
 20
-34.3059150729
 30
0.0
  0
VERTEX
  8
0
 10
10.5383743874
 20
-34.3059150729
 30
0.0
  0
VERTEX
  8
0
 10
10.5673131884
 20
-34.3059150729
 30
0.0
  0
VERTEX
  8
0
 10
10.7264767258
 20
-34.3286507172
 30
0.0
  0
VERTEX
  8
0
 10
10.8567011978
 20
-34.4216702736
 30
0.0
  0
VERTEX
  8
0
 10
10.9404169486
 20
-34.5591292437
 30
0.0
  0
VERTEX
  8
0
 10
11.0019119337
 20
-34.7084732963
 30
0.0
  0
VERTEX
  8
0
 10
11.0541052275
 20
-34.8614368488
 30
0.0
  0
VERTEX
  8
0
 10
11.0835607596
 20
-34.9554856342
 30
0.0
  0
VERTEX
  8
0
 10
11.1124995606
 20
-35.0490211281
 30
0.0
  0
VERTEX
  8
0
 10
11.1414383615
 20
-35.1425566219
 30
0.0
  0
VERTEX
  8
0
 10
11.1708938937
 20
-35.2360894699
 30
0.0
  0
VERTEX
  8
0
 10
11.1998326946
 20
-35.3296249637
 30
0.0
  0
VERTEX
  8
0
 10
11.3434932369
 20
-35.3296249637
 30
0.0
  0
VERTEX
  8
0
 10
11.4876705103
 20
-35.3296249637
 30
0.0
  0
VERTEX
  8
0
 10
11.6313310526
 20
-35.3296249637
 30
0.0
  0
VERTEX
  8
0
 10
11.7755080614
 20
-35.3296249637
 30
0.0
  0
VERTEX
  8
0
 10
11.9196853349
 20
-35.3296249637
 30
0.0
  0
VERTEX
  8
0
 10
11.8695592306
 20
-35.1890650772
 30
0.0
  0
VERTEX
  8
0
 10
11.8199498576
 20
-35.0479866073
 30
0.0
  0
VERTEX
  8
0
 10
11.7703404846
 20
-34.9074267207
 30
0.0
  0
VERTEX
  8
0
 10
11.7207311115
 20
-34.7668668342
 30
0.0
  0
VERTEX
  8
0
 10
11.6706050073
 20
-34.6257910101
 30
0.0
  0
VERTEX
  8
0
 10
11.6184117135
 20
-34.4929834147
 30
0.0
  0
VERTEX
  8
0
 10
11.5693190717
 20
-34.3591412985
 30
0.0
  0
VERTEX
  8
0
 10
11.5129919281
 20
-34.227365578
 30
0.0
  0
VERTEX
  8
0
 10
11.4277257189
 20
-34.113676773
 30
0.0
  0
VERTEX
  8
0
 10
11.3031855551
 20
-34.0464990691
 30
0.0
  0
VERTEX
  8
0
 10
11.4726842463
 20
-33.9886214688
 30
0.0
  0
VERTEX
  8
0
 10
11.6184117135
 20
-33.8837168299
 30
0.0
  0
VERTEX
  8
0
 10
11.7264154196
 20
-33.7405746101
 30
0.0
  0
VERTEX
  8
0
 10
11.7848100173
 20
-33.5814118706
 30
0.0
  0
VERTEX
  8
0
 10
11.0975132966
 20
-33.5814118706
 30
0.0
  0
VERTEX
  8
0
 10
11.0856279491
 20
-33.6475576996
 30
0.0
  0
VERTEX
  8
0
 10
10.9988112817
 20
-33.7493587762
 30
0.0
  0
VERTEX
  8
0
 10
10.872204193
 20
-33.7984522105
 30
0.0
  0
VERTEX
  8
0
 10
10.7378453421
 20
-33.813954147
 30
0.0
  0
VERTEX
  8
0
 10
10.6019362974
 20
-33.8165391259
 30
0.0
  0
VERTEX
  8
0
 10
10.5657629947
 20
-33.8165391259
 30
0.0
  0
VERTEX
  8
0
 10
10.5301061586
 20
-33.8165391259
 30
0.0
  0
VERTEX
  8
0
 10
10.4934158601
 20
-33.8165391259
 30
0.0
  0
VERTEX
  8
0
 10
10.4577592886
 20
-33.8165391259
 30
0.0
  0
VERTEX
  8
0
 10
10.4221024525
 20
-33.8165391259
 30
0.0
  0
VERTEX
  8
0
 10
10.4221024525
 20
-33.6987148837
 30
0.0
  0
VERTEX
  8
0
 10
10.4221024525
 20
-33.5814118706
 30
0.0
  0
SEQEND
  8
0
  0
POLYLINE
  8
0
 62
0
 70
1
 66
1
 10
0.0
 20
0.0
 30
0.0
  0
VERTEX
  8
0
 10
0.984435857322
 20
-32.7499376337
 30
0.0
  0
VERTEX
  8
0
 10
0.787548823441
 20
-33.267219183
 30
0.0
  0
VERTEX
  8
0
 10
0.590661524977
 20
-33.7850166697
 30
0.0
  0
VERTEX
  8
0
 10
0.572058671546
 20
-33.8335915207
 30
0.0
  0
VERTEX
  8
0
 10
1.21543006277
 20
-33.8335915207
 30
0.0
  0
VERTEX
  8
0
 10
1.26452270458
 20
-33.6883802594
 30
0.0
  0
VERTEX
  8
0
 10
1.33376918726
 20
-33.4852913978
 30
0.0
  0
VERTEX
  8
0
 10
1.40249893871
 20
-33.2816865987
 30
0.0
  0
VERTEX
  8
0
 10
1.46451065501
 20
-33.4852913978
 30
0.0
  0
VERTEX
  8
0
 10
1.52703910253
 20
-33.6883802594
 30
0.0
  0
VERTEX
  8
0
 10
1.57199762992
 20
-33.8335915207
 30
0.0
  0
VERTEX
  8
0
 10
2.24844193651
 20
-33.8335915207
 30
0.0
  0
VERTEX
  8
0
 10
2.22983908308
 20
-33.7855326072
 30
0.0
  0
VERTEX
  8
0
 10
2.03036786388
 20
-33.2677351204
 30
0.0
  0
VERTEX
  8
0
 10
1.83089690927
 20
-32.7499376337
 30
0.0
  0
VERTEX
  8
0
 10
1.66139821805
 20
-32.7499376337
 30
0.0
  0
VERTEX
  8
0
 10
1.49189952684
 20
-32.7499376337
 30
0.0
  0
VERTEX
  8
0
 10
1.32291756685
 20
-32.7499376337
 30
0.0
  0
VERTEX
  8
0
 10
1.15341887564
 20
-32.7499376337
 30
0.0
  0
SEQEND
  8
0
  0
POLYLINE
  8
0
 62
0
 70
1
 66
1
 10
0.0
 20
0.0
 30
0.0
  0
VERTEX
  8
0
 10
19.8437492153
 20
-34.2979352401
 30
0.0
  0
VERTEX
  8
0
 10
19.7813195716
 20
-34.094774371
 30
0.0
  0
VERTEX
  8
0
 10
19.7188527895
 20
-33.8914926449
 30
0.0
  0
VERTEX
  8
0
 10
19.6564710227
 20
-33.6884875786
 30
0.0
  0
VERTEX
  8
0
 10
19.5939815081
 20
-33.4851318752
 30
0.0
  0
VERTEX
  8
0
 10
19.5315408943
 20
-33.281935307
 30
0.0
  0
VERTEX
  8
0
 10
19.4638206029
 20
-33.485096176
 30
0.0
  0
VERTEX
  8
0
 10
19.3960600257
 20
-33.6883779022
 30
0.0
  0
VERTEX
  8
0
 10
19.3283916685
 20
-33.8913829685
 30
0.0
  0
VERTEX
  8
0
 10
19.2606064322
 20
-34.0947386719
 30
0.0
  0
VERTEX
  8
0
 10
19.1928742411
 20
-34.2979352401
 30
0.0
  0
VERTEX
  8
0
 10
19.3230241762
 20
-34.2979352401
 30
0.0
  0
VERTEX
  8
0
 10
19.4532515355
 20
-34.2979352401
 30
0.0
  0
VERTEX
  8
0
 10
19.5833016595
 20
-34.2979352401
 30
0.0
  0
VERTEX
  8
0
 10
19.7135764104
 20
-34.2979352401
 30
0.0
  0
SEQEND
  8
0
  0
POLYLINE
  8
0
 62
0
 70
1
 66
1
 10
0.0
 20
0.0
 30
0.0
  0
VERTEX
  8
0
 10
9.73118861312
 20
-33.5814118706
 30
0.0
  0
VERTEX
  8
0
 10
10.4221024525
 20
-33.5814118706
 30
0.0
  0
VERTEX
  8
0
 10
10.4221024525
 20
-33.5808932873
 30
0.0
  0
VERTEX
  8
0
 10
10.4221024525
 20
-33.4635876284
 30
0.0
  0
VERTEX
  8
0
 10
10.4221024525
 20
-33.3462819694
 30
0.0
  0
VERTEX
  8
0
 10
10.4221024525
 20
-33.2289763105
 30
0.0
  0
VERTEX
  8
0
 10
10.4577592886
 20
-33.2289763105
 30
0.0
  0
VERTEX
  8
0
 10
10.4939325913
 20
-33.2289763105
 30
0.0
  0
VERTEX
  8
0
 10
10.5301061586
 20
-33.2289763105
 30
0.0
  0
VERTEX
  8
0
 10
10.5657629947
 20
-33.2289763105
 30
0.0
  0
VERTEX
  8
0
 10
10.6019362974
 20
-33.2289763105
 30
0.0
  0
VERTEX
  8
0
 10
10.7331944964
 20
-33.2336276852
 30
0.0
  0
VERTEX
  8
0
 10
10.8629025017
 20
-33.2527491214
 30
0.0
  0
VERTEX
  8
0
 10
10.9858922073
 20
-33.2982230559
 30
0.0
  0
VERTEX
  8
0
 10
11.0794266452
 20
-33.3881416958
 30
0.0
  0
VERTEX
  8
0
 10
11.1099156398
 20
-33.5147474583
 30
0.0
  0
VERTEX
  8
0
 10
11.0975132966
 20
-33.5814118706
 30
0.0
  0
VERTEX
  8
0
 10
11.7848100173
 20
-33.5814118706
 30
0.0
  0
VERTEX
  8
0
 10
11.7884274005
 20
-33.5721091212
 30
0.0
  0
VERTEX
  8
0
 10
11.7977290918
 20
-33.393309008
 30
0.0
  0
VERTEX
  8
0
 10
11.7569046788
 20
-33.1592136276
 30
0.0
  0
VERTEX
  8
0
 10
11.6271966736
 20
-32.9607761407
 30
0.0
  0
VERTEX
  8
0
 10
11.4297929084
 20
-32.8290004202
 30
0.0
  0
VERTEX
  8
0
 10
11.2018998841
 20
-32.7597563206
 30
0.0
  0
VERTEX
  8
0
 10
10.9641881727
 20
-32.7396003636
 30
0.0
  0
VERTEX
  8
0
 10
10.7176915012
 20
-32.7396003636
 30
0.0
  0
VERTEX
  8
0
 10
10.4711950943
 20
-32.7396003636
 30
0.0
  0
VERTEX
  8
0
 10
10.2246984228
 20
-32.7396003636
 30
0.0
  0
VERTEX
  8
0
 10
9.97768528462
 20
-32.7396003636
 30
0.0
  0
VERTEX
  8
0
 10
9.73118861312
 20
-32.7396003636
 30
0.0
  0
VERTEX
  8
0
 10
9.73118861312
 20
-33.2574004961
 30
0.0
  0
SEQEND
  8
0
  0
POLYLINE
  8
0
 62
0
 70
1
 66
1
 10
0.0
 20
0.0
 30
0.0
  0
VERTEX
  8
0
 10
15.0997702362
 20
-32.7501228421
 30
0.0
  0
VERTEX
  8
0
 10
15.2383852078
 20
-32.7501228421
 30
0.0
  0
VERTEX
  8
0
 10
15.3770826393
 20
-32.7501228421
 30
0.0
  0
VERTEX
  8
0
 10
15.5155913079
 20
-32.7501228421
 30
0.0
  0
VERTEX
  8
0
 10
15.6543392134
 20
-32.7501228421
 30
0.0
  0
VERTEX
  8
0
 10
15.7929785422
 20
-32.7501228421
 30
0.0
  0
VERTEX
  8
0
 10
15.7929785422
 20
-33.1654386809
 30
0.0
  0
VERTEX
  8
0
 10
15.7929785422
 20
-33.581001585
 30
0.0
  0
VERTEX
  8
0
 10
15.7929785422
 20
-33.9964224663
 30
0.0
  0
VERTEX
  8
0
 10
15.7929785422
 20
-34.4119471868
 30
0.0
  0
VERTEX
  8
0
 10
15.7929785422
 20
-34.8271018719
 30
0.0
  0
VERTEX
  8
0
 10
16.0061916473
 20
-34.8271018719
 30
0.0
  0
VERTEX
  8
0
 10
16.2195315896
 20
-34.8271018719
 30
0.0
  0
VERTEX
  8
0
 10
16.432581183
 20
-34.8271018719
 30
0.0
  0
VERTEX
  8
0
 10
16.6459987627
 20
-34.8271018719
 30
0.0
  0
VERTEX
  8
0
 10
16.8592493333
 20
-34.8271018719
 30
0.0
  0
VERTEX
  8
0
 10
16.8592493333
 20
-34.9292113711
 30
0.0
  0
VERTEX
  8
0
 10
16.8592493333
 20
-35.0311198051
 30
0.0
  0
VERTEX
  8
0
 10
16.8592493333
 20
-35.1332128285
 30
0.0
  0
VERTEX
  8
0
 10
16.8592493333
 20
-35.2352440797
 30
0.0
  0
VERTEX
  8
0
 10
16.8592493333
 20
-35.3377476715
 30
0.0
  0
VERTEX
  8
0
 10
16.5074212567
 20
-35.3377476715
 30
0.0
  0
VERTEX
  8
0
 10
16.1553838829
 20
-35.3377476715
 30
0.0
  0
VERTEX
  8
0
 10
15.8034668214
 20
-35.3377476715
 30
0.0
  0
VERTEX
  8
0
 10
15.4514617939
 20
-35.3377476715
 30
0.0
  0
VERTEX
  8
0
 10
15.0997702362
 20
-35.3377476715
 30
0.0
  0
VERTEX
  8
0
 10
15.0997702362
 20
-34.8203223334
 30
0.0
  0
VERTEX
  8
0
 10
15.0997702362
 20
-34.3025891868
 30
0.0
  0
VERTEX
  8
0
 10
15.0997702362
 20
-33.7850329805
 30
0.0
  0
VERTEX
  8
0
 10
15.0997702362
 20
-33.2673474051
 30
0.0
  0
SEQEND
  8
0
  0
POLYLINE
  8
0
 62
0
 70
1
 66
1
 10
0.0
 20
0.0
 30
0.0
  0
VERTEX
  8
0
 10
2.24844148671
 20
-33.8335915207
 30
0.0
  0
VERTEX
  8
0
 10
1.57199699492
 20
-33.8335915207
 30
0.0
  0
VERTEX
  8
0
 10
1.58956699444
 20
-33.891469121
 30
0.0
  0
VERTEX
  8
0
 10
1.65209546842
 20
-34.0945579826
 30
0.0
  0
VERTEX
  8
0
 10
1.71462396887
 20
-34.2981627817
 30
0.0
  0
VERTEX
  8
0
 10
1.58336582281
 20
-34.2981627817
 30
0.0
  0
VERTEX
  8
0
 10
1.45210767675
 20
-34.2981627817
 30
0.0
  0
VERTEX
  8
0
 10
1.32084955714
 20
-34.2981627817
 30
0.0
  0
VERTEX
  8
0
 10
1.18959143754
 20
-34.2981627817
 30
0.0
  0
VERTEX
  8
0
 10
1.05833329148
 20
-34.2981627817
 30
0.0
  0
VERTEX
  8
0
 10
1.1270629371
 20
-34.0945579826
 30
0.0
  0
VERTEX
  8
0
 10
1.19579258271
 20
-33.891469121
 30
0.0
  0
VERTEX
  8
0
 10
1.21542963944
 20
-33.8335915207
 30
0.0
  0
VERTEX
  8
0
 10
0.572058089462
 20
-33.8335915207
 30
0.0
  0
VERTEX
  8
0
 10
0.393774385262
 20
-34.3028141564
 30
0.0
  0
VERTEX
  8
0
 10
0.196887197923
 20
-34.8200957057
 30
0.0
  0
VERTEX
  8
0
 10
0.0
 20
-35.3378931924
 30
0.0
  0
VERTEX
  8
0
 10
0.140043127296
 20
-35.3378931924
 30
0.0
  0
VERTEX
  8
0
 10
0.280603022862
 20
-35.3378931924
 30
0.0
  0
VERTEX
  8
0
 10
0.42064615545
 20
-35.3378931924
 30
0.0
  0
VERTEX
  8
0
 10
0.560689261579
 20
-35.3378931924
 30
0.0
  0
VERTEX
  8
0
 10
0.701249151854
 20
-35.3378931924
 30
0.0
  0
VERTEX
  8
0
 10
0.742073538364
 20
-35.2273053038
 30
0.0
  0
VERTEX
  8
0
 10
0.782897924875
 20
-35.1172333527
 30
0.0
  0
VERTEX
  8
0
 10
0.823722284927
 20
-35.0071640475
 30
0.0
  0
VERTEX
  8
0
 10
0.86402991375
 20
-34.8976080339
 30
0.0
  0
VERTEX
  8
0
 10
0.904854300261
 20
-34.7875387286
 30
0.0
  0
VERTEX
  8
0
 10
1.09967443568
 20
-34.7875387286
 30
0.0
  0
VERTEX
  8
0
 10
1.2944945711
 20
-34.7875387286
 30
0.0
  0
VERTEX
  8
0
 10
1.48879794884
 20
-34.7875387286
 30
0.0
  0
VERTEX
  8
0
 10
1.68361808426
 20
-34.7875387286
 30
0.0
  0
VERTEX
  8
0
 10
1.87843824614
 20
-34.7875387286
 30
0.0
  0
VERTEX
  8
0
 10
1.91667879129
 20
-34.8976080339
 30
0.0
  0
VERTEX
  8
0
 10
1.9549193629
 20
-35.007679985
 30
0.0
  0
VERTEX
  8
0
 10
1.99315990806
 20
-35.117751936
 30
0.0
  0
VERTEX
  8
0
 10
2.03088369553
 20
-35.2278212413
 30
0.0
  0
VERTEX
  8
0
 10
2.06912426714
 20
-35.3378931924
 30
0.0
  0
VERTEX
  8
0
 10
2.22105295884
 20
-35.3378931924
 30
0.0
  0
VERTEX
  8
0
 10
2.372981677
 20
-35.3378931924
 30
0.0
  0
VERTEX
  8
0
 10
2.52439361101
 20
-35.3378931924
 30
0.0
  0
VERTEX
  8
0
 10
2.59932445471
 20
-35.3378931924
 30
0.0
  0
VERTEX
  8
0
 10
2.59932445471
 20
-34.7441311898
 30
0.0
  0
VERTEX
  8
0
 10
2.42930897935
 20
-34.3028141564
 30
0.0
  0
SEQEND
  8
0
  0
POLYLINE
  8
0
 62
0
 70
1
 66
1
 10
0.0
 20
0.0
 30
0.0
  0
VERTEX
  8
0
 10
18.4583041534
 20
-23.2580103821
 30
0.0
  0
VERTEX
  8
0
 10
13.9138788554
 20
-23.2580103821
 30
0.0
  0
VERTEX
  8
0
 10
9.36945355728
 20
-23.2580103821
 30
0.0
  0
VERTEX
  8
0
 10
4.8250282592
 20
-23.2580103821
 30
0.0
  0
VERTEX
  8
0
 10
4.69738744342
 20
-23.4812525549
 30
0.0
  0
VERTEX
  8
0
 10
3.57394178368
 20
-25.4475407732
 30
0.0
  0
VERTEX
  8
0
 10
2.4504963356
 20
-27.4133133187
 30
0.0
  0
VERTEX
  8
0
 10
1.32705072877
 20
-29.3790826892
 30
0.0
  0
VERTEX
  8
0
 10
0.203605135178
 20
-31.3453706429
 30
0.0
  0
VERTEX
  8
0
 10
0.202571606573
 20
-31.3464051637
 30
0.0
  0
VERTEX
  8
0
 10
0.201538077968
 20
-31.3484715594
 30
0.0
  0
VERTEX
  8
0
 10
0.200504549363
 20
-31.3500220176
 30
0.0
  0
VERTEX
  8
0
 10
0.199471020758
 20
-31.3515724759
 30
0.0
  0
VERTEX
  8
0
 10
0.198437492153
 20
-31.3531229341
 30
0.0
  0
VERTEX
  8
0
 10
3.90312074358
 20
-31.3531229341
 30
0.0
  0
VERTEX
  8
0
 10
7.60677053254
 20
-31.3531229341
 30
0.0
  0
VERTEX
  8
0
 10
11.3109370527
 20
-31.3531229341
 30
0.0
  0
VERTEX
  8
0
 10
15.0151035729
 20
-31.3531229341
 30
0.0
  0
VERTEX
  8
0
 10
18.7192700931
 20
-31.3531229341
 30
0.0
  0
VERTEX
  8
0
 10
18.5719921677
 20
-31.1159292831
 30
0.0
  0
VERTEX
  8
0
 10
18.4236807798
 20
-30.8792489237
 30
0.0
  0
VERTEX
  8
0
 10
18.2753696565
 20
-30.6425712101
 30
0.0
  0
VERTEX
  8
0
 10
18.1260245416
 20
-30.4064120798
 30
0.0
  0
VERTEX
  8
0
 10
17.9756462288
 20
-30.1702503037
 30
0.0
  0
VERTEX
  8
0
 10
17.5922070502
 20
-29.5925061751
 30
0.0
  0
VERTEX
  8
0
 10
17.202050101
 20
-29.0188974837
 30
0.0
  0
VERTEX
  8
0
 10
16.8377313009
 20
-28.4282363977
 30
0.0
  0
VERTEX
  8
0
 10
16.5622958284
 20
-27.793133252
 30
0.0
  0
VERTEX
  8
0
 10
16.459976695
 20
-27.1094552554
 30
0.0
  0
VERTEX
  8
0
 10
16.5281894506
 20
-26.569435416
 30
0.0
  0
VERTEX
  8
0
 10
16.7090570226
 20
-26.0552553124
 30
0.0
  0
VERTEX
  8
0
 10
16.9622714647
 20
-25.5720809338
 30
0.0
  0
VERTEX
  8
0
 10
17.2568270509
 20
-25.1131942453
 30
0.0
  0
VERTEX
  8
0
 10
17.5632682492
 20
-24.6620590542
 30
0.0
  0
VERTEX
  8
0
 10
17.837153528
 20
-24.2321111658
 30
0.0
  0
VERTEX
  8
0
 10
18.1110385422
 20
-23.8021632775
 30
0.0
  0
VERTEX
  8
0
 10
18.3849235563
 20
-23.3722153891
 30
0.0
  0
SEQEND
  8
0
  0
POLYLINE
  8
0
 62
0
 70
1
 66
1
 10
0.0
 20
0.0
 30
0.0
  0
VERTEX
  8
0
 10
31.6264912494
 20
-23.2580103821
 30
0.0
  0
VERTEX
  8
0
 10
27.7732386413
 20
-23.2580103821
 30
0.0
  0
VERTEX
  8
0
 10
23.9199860333
 20
-23.2580103821
 30
0.0
  0
VERTEX
  8
0
 10
23.7494538796
 20
-23.5174261212
 30
0.0
  0
VERTEX
  8
0
 10
23.4729849447
 20
-23.9623600086
 30
0.0
  0
VERTEX
  8
0
 10
23.2084016219
 20
-24.4150456579
 30
0.0
  0
VERTEX
  8
0
 10
22.9551871798
 20
-24.8739323464
 30
0.0
  0
VERTEX
  8
0
 10
22.7143748164
 20
-25.3390200741
 30
0.0
  0
VERTEX
  8
0
 10
22.6094717622
 20
-25.4831973438
 30
0.0
  0
VERTEX
  8
0
 10
22.480797484
 20
-25.6056705795
 30
0.0
  0
VERTEX
  8
0
 10
22.3319693648
 20
-25.7038558605
 30
0.0
  0
VERTEX
  8
0
 10
22.1681549817
 20
-25.773618808
 30
0.0
  0
VERTEX
  8
0
 10
21.9950389073
 20
-25.8128930262
 30
0.0
  0
VERTEX
  8
0
 10
21.9955556386
 20
-25.8144432199
 30
0.0
  0
VERTEX
  8
0
 10
21.9971060968
 20
-25.8159936781
 30
0.0
  0
VERTEX
  8
0
 10
21.9981395593
 20
-25.8175438718
 30
0.0
  0
VERTEX
  8
0
 10
21.9991730218
 20
-25.8190940654
 30
0.0
  0
VERTEX
  8
0
 10
22.0002067488
 20
-25.8206445236
 30
0.0
  0
VERTEX
  8
0
 10
21.8994375444
 20
-25.8165104093
 30
0.0
  0
VERTEX
  8
0
 10
21.7997020671
 20
-25.8010074145
 30
0.0
  0
VERTEX
  8
0
 10
21.7030672418
 20
-25.7741355392
 30
0.0
  0
VERTEX
  8
0
 10
21.6095328038
 20
-25.7364117792
 30
0.0
  0
VERTEX
  8
0
 10
21.5211662073
 20
-25.6883528657
 30
0.0
  0
VERTEX
  8
0
 10
21.1397942182
 20
-25.0837387139
 30
0.0
  0
VERTEX
  8
0
 10
21.2943066455
 20
-24.3571680576
 30
0.0
  0
VERTEX
  8
0
 10
21.6312368384
 20
-23.6889917329
 30
0.0
  0
VERTEX
  8
0
 10
21.8989208132
 20
-23.2580103821
 30
0.0
  0
VERTEX
  8
0
 10
20.4648998408
 20
-23.2580103821
 30
0.0
  0
VERTEX
  8
0
 10
20.4493968455
 20
-23.2833317992
 30
0.0
  0
VERTEX
  8
0
 10
20.0876619661
 20
-23.8367863856
 30
0.0
  0
VERTEX
  8
0
 10
19.7259270866
 20
-24.3902409721
 30
0.0
  0
VERTEX
  8
0
 10
19.3636752114
 20
-24.9436955585
 30
0.0
  0
VERTEX
  8
0
 10
19.0019400674
 20
-25.4976668762
 30
0.0
  0
VERTEX
  8
0
 10
18.6396884567
 20
-26.0511214626
 30
0.0
  0
VERTEX
  8
0
 10
18.4877596856
 20
-26.2764305603
 30
0.0
  0
VERTEX
  8
0
 10
18.3482332578
 20
-26.5094914199
 30
0.0
  0
VERTEX
  8
0
 10
18.2298943979
 20
-26.7544373621
 30
0.0
  0
VERTEX
  8
0
 10
18.1523796864
 20
-27.0138533659
 30
0.0
  0
VERTEX
  8
0
 10
18.1740837209
 20
-27.2810216607
 30
0.0
  0
VERTEX
  8
0
 10
18.4763908048
 20
-27.8241397708
 30
0.0
  0
VERTEX
  8
0
 10
18.817972108
 20
-28.3440036532
 30
0.0
  0
VERTEX
  8
0
 10
19.1678213754
 20
-28.8592188068
 30
0.0
  0
VERTEX
  8
0
 10
19.5161207137
 20
-29.3744313145
 30
0.0
  0
VERTEX
  8
0
 10
19.8597689418
 20
-29.8927473845
 30
0.0
  0
VERTEX
  8
0
 10
20.0509716675
 20
-30.1847177194
 30
0.0
  0
VERTEX
  8
0
 10
20.2416576621
 20
-30.4766907002
 30
0.0
  0
VERTEX
  8
0
 10
20.4328603879
 20
-30.7686636809
 30
0.0
  0
VERTEX
  8
0
 10
20.6250968407
 20
-31.0595994951
 30
0.0
  0
VERTEX
  8
0
 10
20.8307690992
 20
-31.3396873933
 30
0.0
  0
VERTEX
  8
0
 10
23.9251536102
 20
-31.3396873933
 30
0.0
  0
VERTEX
  8
0
 10
27.0185054524
 20
-31.3396873933
 30
0.0
  0
VERTEX
  8
0
 10
30.1128894342
 20
-31.3396873933
 30
0.0
  0
VERTEX
  8
0
 10
33.2067574786
 20
-31.3396873933
 30
0.0
  0
VERTEX
  8
0
 10
36.3006255229
 20
-31.3396873933
 30
0.0
  0
VERTEX
  8
0
 10
34.48807498
 20
-28.2057702477
 30
0.0
  0
VERTEX
  8
0
 10
32.6755244371
 20
-25.0718531021
 30
0.0
  0
SEQEND
  8
0
  0
POLYLINE
  8
0
 62
0
 70
1
 66
1
 10
0.0
 20
0.0
 30
0.0
  0
VERTEX
  8
0
 10
18.1740837209
 20
0.0
 30
0.0
  0
VERTEX
  8
0
 10
15.8631137602
 20
-4.00027245933
 30
0.0
  0
VERTEX
  8
0
 10
13.553177262
 20
-8.00261184353
 30
0.0
  0
VERTEX
  8
0
 10
11.2463414157
 20
-12.0054679589
 30
0.0
  0
VERTEX
  8
0
 10
8.94363968384
 20
-16.0114247262
 30
0.0
  0
VERTEX
  8
0
 10
6.66729309677
 20
-20.0318510259
 30
0.0
  0
VERTEX
  8
0
 10
7.44915745335
 20
-20.4742009926
 30
0.0
  0
VERTEX
  8
0
 10
8.27598033733
 20
-20.8250839778
 30
0.0
  0
VERTEX
  8
0
 10
9.14001025108
 20
-21.0679632597
 30
0.0
  0
VERTEX
  8
0
 10
10.0324622345
 20
-21.1630478889
 30
0.0
  0
VERTEX
  8
0
 10
10.921813566
 20
-21.0529769961
 30
0.0
  0
VERTEX
  8
0
 10
11.5135086593
 20
-20.8752103453
 30
0.0
  0
VERTEX
  8
0
 10
12.0902174886
 20
-20.6550685598
 30
0.0
  0
VERTEX
  8
0
 10
12.639021244
 20
-20.3723985931
 30
0.0
  0
VERTEX
  8
0
 10
13.1392490888
 20
-20.0106634586
 30
0.0
  0
VERTEX
  8
0
 10
13.6074377453
 20
-19.6081041767
 30
0.0
  0
VERTEX
  8
0
 10
14.6342483151
 20
-18.6154000109
 30
0.0
  0
VERTEX
  8
0
 10
15.7111849891
 20
-17.6769560623
 30
0.0
  0
VERTEX
  8
0
 10
16.8847567532
 20
-16.8635690055
 30
0.0
  0
VERTEX
  8
0
 10
18.1771843729
 20
-16.2610217785
 30
0.0
  0
VERTEX
  8
0
 10
19.5791658924
 20
-16.0176257654
 30
0.0
  0
VERTEX
  8
0
 10
20.724832318
 20
-16.2077950237
 30
0.0
  0
VERTEX
  8
0
 10
21.7547435398
 20
-16.7462636111
 30
0.0
  0
VERTEX
  8
0
 10
22.6156728015
 20
-17.5296781408
 30
0.0
  0
VERTEX
  8
0
 10
23.313304676
 20
-18.4629545126
 30
0.0
  0
VERTEX
  8
0
 10
23.854873665
 20
-19.4944161655
 30
0.0
  0
VERTEX
  8
0
 10
23.8993154612
 20
-19.6117215598
 30
0.0
  0
VERTEX
  8
0
 10
23.9246368789
 20
-19.7341947955
 30
0.0
  0
VERTEX
  8
0
 10
23.9303211871
 20
-19.8587349561
 30
0.0
  0
VERTEX
  8
0
 10
23.9163686501
 20
-19.9827583854
 30
0.0
  0
VERTEX
  8
0
 10
23.8832957347
 20
-20.1036811628
 30
0.0
  0
VERTEX
  8
0
 10
23.831102441
 20
-20.2173691741
 30
0.0
  0
VERTEX
  8
0
 10
23.7623729541
 20
-20.3217557589
 30
0.0
  0
VERTEX
  8
0
 10
23.6776234762
 20
-20.4137397362
 30
0.0
  0
VERTEX
  8
0
 10
23.5799551884
 20
-20.4912544456
 30
0.0
  0
VERTEX
  8
0
 10
23.471434751
 20
-20.5527494291
 30
0.0
  0
VERTEX
  8
0
 10
23.1928986266
 20
-20.6483507895
 30
0.0
  0
VERTEX
  8
0
 10
22.8998932341
 20
-20.6318143322
 30
0.0
  0
VERTEX
  8
0
 10
22.6384105631
 20
-20.497972216
 30
0.0
  0
VERTEX
  8
0
 10
22.4286041902
 20
-20.2912665005
 30
0.0
  0
VERTEX
  8
0
 10
22.2622061509
 20
-20.0473537561
 30
0.0
  0
VERTEX
  8
0
 10
21.9071890421
 20
-19.4034656506
 30
0.0
  0
VERTEX
  8
0
 10
21.4891267544
 20
-18.7993679655
 30
0.0
  0
VERTEX
  8
0
 10
20.981147412
 20
-18.2691678712
 30
0.0
  0
VERTEX
  8
0
 10
20.3625807073
 20
-17.8769437429
 30
0.0
  0
VERTEX
  8
0
 10
19.6478956439
 20
-17.7270821653
 30
0.0
  0
VERTEX
  8
0
 10
18.4066275909
 20
-17.9823637901
 30
0.0
  0
VERTEX
  8
0
 10
17.295584539
 20
-18.6019642055
 30
0.0
  0
VERTEX
  8
0
 10
16.2982292368
 20
-19.3957141532
 30
0.0
  0
VERTEX
  8
0
 10
15.3613357217
 20
-20.2607775067
 30
0.0
  0
VERTEX
  8
0
 10
14.4409783998
 20
-21.1428940485
 30
0.0
  0
VERTEX
  8
0
 10
13.7516147541
 20
-21.6860134815
 30
0.0
  0
VERTEX
  8
0
 10
12.9847366615
 20
-22.1144109116
 30
0.0
  0
VERTEX
  8
0
 10
12.1697993896
 20
-22.4430731316
 30
0.0
  0
VERTEX
  8
0
 10
11.3238561272
 20
-22.6813013034
 30
0.0
  0
VERTEX
  8
0
 10
10.4562088303
 20
-22.8203109963
 30
0.0
  0
VERTEX
  8
0
 10
10.3642248506
 20
-22.8290959562
 30
0.0
  0
VERTEX
  8
0
 10
10.2717241397
 20
-22.8347805287
 30
0.0
  0
VERTEX
  8
0
 10
10.1787064329
 20
-22.837880916
 30
0.0
  0
VERTEX
  8
0
 10
10.086205722
 20
-22.8389143784
 30
0.0
  0
VERTEX
  8
0
 10
9.99318801526
 20
-22.8389143784
 30
0.0
  0
VERTEX
  8
0
 10
9.10848752941
 20
-22.7805200469
 30
0.0
  0
VERTEX
  8
0
 10
8.23877330755
 20
-22.6043035897
 30
0.0
  0
VERTEX
  8
0
 10
7.3954139659
 20
-22.3283513933
 30
0.0
  0
VERTEX
  8
0
 10
6.58616100206
 20
-21.964549334
 30
0.0
  0
VERTEX
  8
0
 10
5.82083310316
 20
-21.5159977989
 30
0.0
  0
VERTEX
  8
0
 10
4.8250282592
 20
-23.2580103821
 30
0.0
  0
VERTEX
  8
0
 10
9.36945355728
 20
-23.2580103821
 30
0.0
  0
VERTEX
  8
0
 10
13.9138788554
 20
-23.2580103821
 30
0.0
  0
VERTEX
  8
0
 10
18.4583041534
 20
-23.2580103821
 30
0.0
  0
VERTEX
  8
0
 10
18.6603590288
 20
-22.942784232
 30
0.0
  0
VERTEX
  8
0
 10
18.9388948886
 20
-22.515936731
 30
0.0
  0
VERTEX
  8
0
 10
19.1481845303
 20
-22.2239650731
 30
0.0
  0
VERTEX
  8
0
 10
19.3957146643
 20
-21.9655827964
 30
0.0
  0
VERTEX
  8
0
 10
19.7073234395
 20
-21.7914332641
 30
0.0
  0
VERTEX
  8
0
 10
20.0618238171
 20
-21.7790309212
 30
0.0
  0
VERTEX
  8
0
 10
20.3889355875
 20
-21.9232081909
 30
0.0
  0
VERTEX
  8
0
 10
20.6245801094
 20
-22.1304306376
 30
0.0
  0
VERTEX
  8
0
 10
20.7553213126
 20
-22.413100869
 30
0.0
  0
VERTEX
  8
0
 10
20.7356844675
 20
-22.724709636
 30
0.0
  0
VERTEX
  8
0
 10
20.6152784181
 20
-23.0156478314
 30
0.0
  0
VERTEX
  8
0
 10
20.4648998408
 20
-23.2580103821
 30
0.0
  0
VERTEX
  8
0
 10
21.8989208132
 20
-23.2580103821
 30
0.0
  0
VERTEX
  8
0
 10
22.026561629
 20
-23.052338129
 30
0.0
  0
VERTEX
  8
0
 10
22.4286041902
 20
-22.4208521018
 30
0.0
  0
VERTEX
  8
0
 10
22.7148915476
 20
-21.9697169107
 30
0.0
  0
VERTEX
  8
0
 10
23.0425203138
 20
-21.548037251
 30
0.0
  0
VERTEX
  8
0
 10
23.4089060389
 20
-21.1594305058
 30
0.0
  0
VERTEX
  8
0
 10
23.8104321335
 20
-20.8069973269
 30
0.0
  0
VERTEX
  8
0
 10
24.2439971517
 20
-20.4948718287
 30
0.0
  0
VERTEX
  8
0
 10
24.6284697928
 20
-20.2845487301
 30
0.0
  0
VERTEX
  8
0
 10
25.0336130059
 20
-20.1176336994
 30
0.0
  0
VERTEX
  8
0
 10
25.4542592143
 20
-19.9951607283
 30
0.0
  0
VERTEX
  8
0
 10
25.8862743035
 20
-19.9186794813
 30
0.0
  0
VERTEX
  8
0
 10
26.3234567049
 20
-19.8887072187
 30
0.0
  0
VERTEX
  8
0
 10
26.1766957753
 20
-19.6711493538
 30
0.0
  0
VERTEX
  8
0
 10
26.0304513123
 20
-19.4535917536
 30
0.0
  0
VERTEX
  8
0
 10
25.8847238452
 20
-19.2360338888
 30
0.0
  0
VERTEX
  8
0
 10
25.7395131093
 20
-19.0174425615
 30
0.0
  0
VERTEX
  8
0
 10
25.595852567
 20
-18.7988512342
 30
0.0
  0
VERTEX
  8
0
 10
25.4868153984
 20
-18.5482207195
 30
0.0
  0
VERTEX
  8
0
 10
25.4428903335
 20
-18.2784695623
 30
0.0
  0
VERTEX
  8
0
 10
25.4744130552
 20
-18.0076852072
 30
0.0
  0
VERTEX
  8
0
 10
25.5994699502
 20
-17.7658393877
 30
0.0
  0
VERTEX
  8
0
 10
25.8072091337
 20
-17.5896229306
 30
0.0
  0
VERTEX
  8
0
 10
26.2247549547
 20
-17.4397610884
 30
0.0
  0
VERTEX
  8
0
 10
26.655219321
 20
-17.5296781408
 30
0.0
  0
VERTEX
  8
0
 10
26.9978335574
 20
-17.8123483722
 30
0.0
  0
VERTEX
  8
0
 10
27.2650018594
 20
-18.1699491278
 30
0.0
  0
VERTEX
  8
0
 10
27.5032300374
 20
-18.5471869925
 30
0.0
  0
VERTEX
  8
0
 10
27.7109702792
 20
-18.8629301383
 30
0.0
  0
VERTEX
  8
0
 10
27.9176733544
 20
-19.1797064821
 30
0.0
  0
VERTEX
  8
0
 10
28.1233472004
 20
-19.4975165528
 30
0.0
  0
VERTEX
  8
0
 10
28.3279865257
 20
-19.8153266235
 30
0.0
  0
VERTEX
  8
0
 10
28.5300408718
 20
-20.1346868879
 30
0.0
  0
VERTEX
  8
0
 10
28.7088409898
 20
-20.3920357022
 30
0.0
  0
VERTEX
  8
0
 10
28.8654214002
 20
-20.6633367885
 30
0.0
  0
VERTEX
  8
0
 10
28.9584383132
 20
-20.9615097501
 30
0.0
  0
VERTEX
  8
0
 10
28.9450027721
 20
-21.2726020504
 30
0.0
  0
VERTEX
  8
0
 10
28.8132270481
 20
-21.5557887484
 30
0.0
  0
VERTEX
  8
0
 10
28.5848175572
 20
-21.7841984979
 30
0.0
  0
VERTEX
  8
0
 10
28.2850949232
 20
-21.9020208881
 30
0.0
  0
VERTEX
  8
0
 10
27.9610835402
 20
-21.9046045442
 30
0.0
  0
VERTEX
  8
0
 10
27.6432739902
 20
-21.8369085216
 30
0.0
  0
VERTEX
  8
0
 10
27.3316636276
 20
-21.7459580067
 30
0.0
  0
VERTEX
  8
0
 10
27.0510597845
 20
-21.6622422581
 30
0.0
  0
VERTEX
  8
0
 10
26.7632222334
 20
-21.6090155032
 30
0.0
  0
VERTEX
  8
0
 10
26.4717678282
 20
-21.586794738
 30
0.0
  0
VERTEX
  8
0
 10
26.1792794315
 20
-21.5950629667
 30
0.0
  0
VERTEX
  8
0
 10
25.8893746908
 20
-21.6348536515
 30
0.0
  0
VERTEX
  8
0
 10
25.4397899461
 20
-21.7997014928
 30
0.0
  0
VERTEX
  8
0
 10
25.0294788915
 20
-22.0461981578
 30
0.0
  0
VERTEX
  8
0
 10
24.6625764352
 20
-22.3541895416
 30
0.0
  0
VERTEX
  8
0
 10
24.3344309377
 20
-22.703005602
 30
0.0
  0
VERTEX
  8
0
 10
24.0372914307
 20
-23.0797267355
 30
0.0
  0
VERTEX
  8
0
 10
23.9199860333
 20
-23.2580103821
 30
0.0
  0
VERTEX
  8
0
 10
27.7732386413
 20
-23.2580103821
 30
0.0
  0
VERTEX
  8
0
 10
31.6264912494
 20
-23.2580103821
 30
0.0
  0
VERTEX
  8
0
 10
30.3381980087
 20
-21.0310145965
 30
0.0
  0
VERTEX
  8
0
 10
29.0499047679
 20
-18.804018811
 30
0.0
  0
VERTEX
  8
0
 10
27.237354225
 20
-15.6698434321
 30
0.0
  0
VERTEX
  8
0
 10
25.4248036821
 20
-12.5356680532
 30
0.0
  0
VERTEX
  8
0
 10
23.6122528746
 20
-9.40175103988
 30
0.0
  0
VERTEX
  8
0
 10
21.7997020671
 20
-6.26783402659
 30
0.0
  0
VERTEX
  8
0
 10
19.986892894
 20
-3.13391701329
 30
0.0
  0
SEQEND
  8
0
  0
POLYLINE
  8
0
 62
0
 70
1
 66
1
 10
0.0
 20
0.0
 30
0.0
  0
VERTEX
  8
0
 10
2.59932445471
 20
-34.7441311898
 30
0.0
  0
VERTEX
  8
0
 10
2.59932445471
 20
-35.3378931924
 30
0.0
  0
VERTEX
  8
0
 10
2.67632222334
 20
-35.3378931924
 30
0.0
  0
VERTEX
  8
0
 10
2.82825099441
 20
-35.3378931924
 30
0.0
  0
VERTEX
  8
0
 10
2.62878001334
 20
-34.8206116431
 30
0.0
  0
SEQEND
  8
0
  0
ENDSEC
  0
EOF
