<svg id="Layer_1" data-name="Layer 1" xmlns="http://www.w3.org/2000/svg" viewBox="0 0 207.16 183.31"><title>Australian-Made-Owned-black-white-logo</title><path d="M101.53,30.18l.07-.14L11.67,187.3A13,13,0,0,0,23,206.7h181.2a13,13,0,0,0,11-19.81l.11.18L124.24,30l.06.11a13,13,0,0,0-22.77.1" transform="translate(-9.98 -23.38)" style="fill:#fff"/><path d="M192.12,163.55a3.22,3.22,0,1,1-3.21,3.22,3.22,3.22,0,0,1,3.21-3.22m0,5.73a2.52,2.52,0,1,0-2.29-2.51,2.34,2.34,0,0,0,2.29,2.51M190.83,165h1.35c.91,0,1.43.27,1.43,1.07a.89.89,0,0,1-1,1l1,1.56h-.79L192,167h-.36v1.52h-.77Zm1.39,1.47c.37,0,.62-.06.62-.47s-.39-.41-.7-.41h-.54v.88Z" transform="translate(-9.98 -23.38)" style="fill:#231f20"/><path d="M189.29,156.19l-71-122.77a6.09,6.09,0,0,0-10.69,0l-50,87.2c15.81.88,23.45-6.21,30.84-13.09,6.56-6.1,13.35-12.42,24.67-12.42,14.61,0,22.09,13.6,22.4,14.22a4.16,4.16,0,0,1-7.42,3.75c-.43-.77-6-9.65-15-9.65-8,0-12.89,4.49-19,10.19-8,7.49-19.95,14.92-39.78,12.71l-17.21,30a6.09,6.09,0,0,0,5.31,9.09h71.52c-.83-1.16-9.44-13.32-9.44-13.32a10.09,10.09,0,0,1,.34-11.72l10.4-16.67a4.15,4.15,0,0,1,5.72-1.33,4.17,4.17,0,0,1,1.33,5.73L111.78,145c-.76,1.16-1,1.58-.22,2.77,2,3.16,11.58,17.42,11.78,17.71H184.1a6.1,6.1,0,0,0,6.1-6.1,6,6,0,0,0-.91-3.2m-28.66-33.52a3,3,0,0,1-3.83.71,13.8,13.8,0,0,0-6.52-1.65,13.39,13.39,0,0,0-10.46,4.61l-14.34,18a3.22,3.22,0,0,1-2.16,1,2.48,2.48,0,0,1-2.06-.89,2.79,2.79,0,0,1-.73-1.88A3.17,3.17,0,0,1,121,141L130.46,125c5.15-8.42,11.63-10.6,17.37-10.81-.51-1.85-2.72-9.74-2.72-9.75-.22-.87-.54-2.37.87-3.26a2.54,2.54,0,0,1,3.68.8L161,119.09a3.2,3.2,0,0,1-.33,3.58" transform="translate(-9.98 -23.38)" style="fill:#231f20"/><path d="M149.66,101.93a2.54,2.54,0,0,0-3.68-.8c-1.41.89-1.09,2.39-.87,3.26,0,0,2.21,7.9,2.72,9.75-5.74.21-12.22,2.39-17.37,10.81L121,141a3.17,3.17,0,0,0-.45,1.61,2.79,2.79,0,0,0,.73,1.88,2.48,2.48,0,0,0,2.06.89,3.22,3.22,0,0,0,2.16-1l14.34-18a13.39,13.39,0,0,1,10.46-4.61,13.8,13.8,0,0,1,6.52,1.65,3,3,0,0,0,3.83-.71,3.2,3.2,0,0,0,.33-3.58Z" transform="translate(-9.98 -23.38)" style="fill:#fff"/><path d="M94.1,113.66c6.12-5.7,11-10.19,19-10.19,9,0,14.55,8.88,15,9.65a4.16,4.16,0,0,0,7.42-3.75c-.31-.62-7.79-14.22-22.4-14.22-11.32,0-18.11,6.32-24.67,12.42-7.39,6.88-15,14-30.84,13.09l-3.28,5.71c19.83,2.21,31.73-5.22,39.78-12.71" transform="translate(-9.98 -23.38)" style="fill:#fff"/><path d="M111.78,145l10.51-16.83a4.17,4.17,0,0,0-1.33-5.73,4.15,4.15,0,0,0-5.72,1.33l-10.4,16.67a10.09,10.09,0,0,0-.34,11.72s8.61,12.16,9.44,13.32h9.4c-.2-.29-9.81-14.55-11.78-17.71-.74-1.19-.54-1.61.22-2.77" transform="translate(-9.98 -23.38)" style="fill:#fff"/><path d="M32.57,172.39h4l4.71,12.2H37.69l-.91-2.6H32.2l-1,2.6H27.93Zm2,2.52h0L33,179.68H36Z" transform="translate(-9.98 -23.38)" style="fill:#231f20"/><path d="M52.71,180c0,3.34-2.17,4.84-5.35,4.84S42,183.3,42,180v-7.57h3.25v7c0,1.61.44,3,2.1,3s2.1-1.36,2.1-3v-7h3.25Z" transform="translate(-9.98 -23.38)" style="fill:#231f20"/><path d="M54.5,181.58a7.07,7.07,0,0,0,3.35.81c1,0,2-.21,2-1.19,0-2.27-5.77-.84-5.77-5.28,0-2.94,2.87-3.74,5.32-3.74a10.34,10.34,0,0,1,3.15.45l-.21,2.52a6.49,6.49,0,0,0-2.71-.56c-.83,0-2.19.07-2.19,1.14,0,2,5.77.64,5.77,5.05,0,3.17-2.66,4-5.37,4a12.74,12.74,0,0,1-3.63-.52Z" transform="translate(-9.98 -23.38)" style="fill:#231f20"/><path d="M66.89,174.8h-3v-2.41h9.26v2.41h-3v9.79H66.89Z" transform="translate(-9.98 -23.38)" style="fill:#231f20"/><path d="M74.43,172.39h5.81c2.16,0,3.93,1,3.93,3.07a2.86,2.86,0,0,1-2.34,3.08v0c1,.28,1.12,1.2,1.73,2.69l1.19,3.32H81.36l-.7-2.2c-.67-2.1-1.09-2.62-2.29-2.62h-.69v4.82H74.43Zm3.25,5.07h.86c1,0,2.38,0,2.38-1.42,0-1.13-1.14-1.34-2.38-1.34h-.86Z" transform="translate(-9.98 -23.38)" style="fill:#231f20"/><path d="M89.82,172.39h4l4.7,12.2H94.94L94,182H89.45l-1,2.6H85.18Zm2,2.52h0l-1.58,4.77h3.06Z" transform="translate(-9.98 -23.38)" style="fill:#231f20"/><path d="M99.44,172.39h3.25v9.79h5v2.41H99.44Z" transform="translate(-9.98 -23.38)" style="fill:#231f20"/><path d="M109,172.39h3.25v12.2H109Z" transform="translate(-9.98 -23.38)" style="fill:#231f20"/><path d="M117.59,172.39h4l4.7,12.2h-3.57l-.91-2.6h-4.58l-1,2.6H113Zm2,2.52h0L118,179.68H121Z" transform="translate(-9.98 -23.38)" style="fill:#231f20"/><path d="M126.91,172.39h4.14l4.13,8.29h0l-.05-8.29h3v12.2h-4l-4.27-8.34h0l.11,8.34h-3Z" transform="translate(-9.98 -23.38)" style="fill:#231f20"/><path d="M146.07,172.39h5.13l2.59,8.11h0l2.71-8.11h4.93v12.2h-3.18l.05-9.37h0l-3.11,9.37h-3l-3-9.37h0l.07,9.37h-3.19Z" transform="translate(-9.98 -23.38)" style="fill:#231f20"/><path d="M166.94,172.39h4l4.71,12.2h-3.57l-.91-2.6h-4.58l-1,2.6H162.3Zm2,2.52h0l-1.57,4.77h3.06Z" transform="translate(-9.98 -23.38)" style="fill:#231f20"/><path d="M176.55,172.39H181c4.25,0,7.22,1.33,7.22,6.05,0,4.56-3.06,6.15-7.22,6.15h-4.45Zm3.26,9.79h1.26c2.43,0,3.79-1.26,3.79-3.69s-1.42-3.69-3.79-3.69h-1.26Z" transform="translate(-9.98 -23.38)" style="fill:#231f20"/><path d="M189.72,172.39h8.61v2.31H193v2.51H198v2.31H193v2.76h5.55v2.31h-8.8Z" transform="translate(-9.98 -23.38)" style="fill:#231f20"/><path d="M62.7,187.39h4l4.71,12.2H67.82l-.91-2.6H62.33l-1,2.6H58.06Zm2,2.52h0l-1.58,4.77h3.06Z" transform="translate(-9.98 -23.38)" style="fill:#231f20"/><path d="M72.37,187.39h4.14l4.13,8.29h0l0-8.29h3v12.2h-4l-4.26-8.34h0l.11,8.34h-3Z" transform="translate(-9.98 -23.38)" style="fill:#231f20"/><path d="M85.57,187.39H90c4.25,0,7.22,1.33,7.22,6.05,0,4.56-3.06,6.15-7.22,6.15H85.57Zm3.25,9.79h1.26c2.43,0,3.8-1.26,3.8-3.69s-1.42-3.69-3.8-3.69H88.82Z" transform="translate(-9.98 -23.38)" style="fill:#231f20"/><path d="M109.49,187.18c4,0,6.12,2.39,6.12,6.31s-2.13,6.31-6.12,6.31-6.12-2.43-6.12-6.31S105.47,187.18,109.49,187.18Zm0,10.21c2,0,2.77-1.89,2.77-3.9s-.79-3.9-2.77-3.9-2.76,1.78-2.76,3.9S107.52,197.39,109.49,197.39Z" transform="translate(-9.98 -23.38)" style="fill:#231f20"/><path d="M115.38,187.39h3.33l1.57,9.37h0l1.64-9.37h4.13l1.71,9.37h0l1.59-9.37h3.16l-2.73,12.2h-4.18L124,190.22h0l-1.61,9.37H118.1Z" transform="translate(-9.98 -23.38)" style="fill:#231f20"/><path d="M133.57,187.39h4.15l4.12,8.29h0l0-8.29h3v12.2h-4l-4.27-8.34h0l.1,8.34h-3Z" transform="translate(-9.98 -23.38)" style="fill:#231f20"/><path d="M146.69,187.39h8.6v2.31h-5.35v2.51H155v2.31h-5.05v2.76h5.54v2.31h-8.79Z" transform="translate(-9.98 -23.38)" style="fill:#231f20"/><path d="M156.76,187.39h4.44c4.25,0,7.22,1.33,7.22,6.05,0,4.56-3.06,6.15-7.22,6.15h-4.44Zm3.25,9.79h1.26c2.43,0,3.8-1.26,3.8-3.69s-1.42-3.69-3.8-3.69H160Z" transform="translate(-9.98 -23.38)" style="fill:#231f20"/></svg>