<?xml version="1.0" encoding="UTF-8" standalone="no"?>
<!-- Created with Inkscape (http://www.inkscape.org/) -->

<svg
   xmlns:dc="http://purl.org/dc/elements/1.1/"
   xmlns:cc="http://creativecommons.org/ns#"
   xmlns:rdf="http://www.w3.org/1999/02/22-rdf-syntax-ns#"
   xmlns:svg="http://www.w3.org/2000/svg"
   xmlns="http://www.w3.org/2000/svg"
   xmlns:sodipodi="http://sodipodi.sourceforge.net/DTD/sodipodi-0.dtd"
   xmlns:inkscape="http://www.inkscape.org/namespaces/inkscape"
   width="210mm"
   height="297mm"
   viewBox="0 0 210 297"
   version="1.1"
   id="svg3345"
   inkscape:version="0.92.2 (5c3e80d, 2017-08-06)"
   sodipodi:docname="Australian_Made5.svg">
  <sodipodi:namedview
     id="base"
     pagecolor="#ffffff"
     bordercolor="#666666"
     borderopacity="1.0"
     inkscape:pageopacity="0.0"
     inkscape:pageshadow="2"
     inkscape:zoom="2.8"
     inkscape:cx="51.441919"
     inkscape:cy="21.602014"
     inkscape:document-units="mm"
     inkscape:current-layer="layer1"
     showgrid="false"
     inkscape:window-width="2560"
     inkscape:window-height="1017"
     inkscape:window-x="-8"
     inkscape:window-y="-8"
     inkscape:window-maximized="1" />
  <defs
     id="defs3339" />
  <metadata
     id="metadata3342">
    <rdf:RDF>
      <cc:Work
         rdf:about="">
        <dc:format>image/svg+xml</dc:format>
        <dc:type
           rdf:resource="http://purl.org/dc/dcmitype/StillImage" />
        <dc:title />
      </cc:Work>
    </rdf:RDF>
  </metadata>
  <g
     id="layer1"
     inkscape:groupmode="layer"
     inkscape:label="Layer 1">
    <path
       inkscape:connector-curvature="0"
       id="path940"
       d="M10.315365 290.13492L3.1272989 290.13492L3.0599992 290.25262L2.4676695 291.28933L1.8753398 292.32577L1.2830101 293.36221L0.69068043 294.39893L0.69014043 294.39946L0.68959043 294.40052L0.68905043 294.40158L0.68850043 294.40264L0.68796043 294.40316L2.6412292 294.40316L4.5939583 294.40316L6.5469571 294.40316L8.4999559 294.40316L10.452955 294.40316L10.375305 294.27811L10.297105 294.15332L10.218905 294.02853L10.140165 293.90402L10.060885 293.7795L9.8587153 293.47489L9.6530053 293.17246L9.4609256 292.86104L9.3156956 292.52618L9.2617556 292.16572L9.2977156 291.88099L9.3930756 291.6099L9.5265853 291.35514L9.6818853 291.1132L9.8434553 290.87534L9.9878553 290.64865L10.132265 290.42196L10.276665 290.19528L10.315355 290.13507L10.315365 290.13492"
       style="fill:#000000;fill-opacity:1;fill-rule:evenodd;stroke:none;stroke-width:0.13950004;stroke-opacity:1" />
    <path
       inkscape:connector-curvature="0"
       id="path938"
       d="M17.258205 290.13492L13.194995 290.13492L13.105085 290.27169L12.959325 290.50628L12.819825 290.74496L12.686315 290.9869L12.559345 291.23212L12.504035 291.30813L12.436195 291.37271L12.357725 291.42446L12.271355 291.46124L12.180085 291.48193L12.180365 291.48299L12.181205 291.48404L12.181735 291.4851L12.182265 291.48616L12.182795 291.48722L12.129665 291.4851L12.077085 291.47695L12.026135 291.46277L11.976815 291.44287L11.930225 291.41753L11.729155 291.09875L11.810615 290.71567L11.988265 290.36337L12.129395 290.13615L11.373315 290.13615L11.365145 290.14948L11.174415 290.44128L10.983695 290.73309L10.792705 291.0249L10.601975 291.31698L10.410985 291.60878L10.330885 291.72757L10.257315 291.85045L10.194925 291.9796L10.154055 292.11638L10.165505 292.25724L10.324895 292.54359L10.504985 292.81769L10.689445 293.08933L10.873085 293.36098L11.054265 293.63425L11.155075 293.78819L11.255615 293.94213L11.356425 294.09608L11.457785 294.24947L11.566225 294.39715L13.197715 294.39715L14.828675 294.39715L16.460165 294.39715L18.091395 294.39715L19.722615 294.39715L17.811295 291.09244L17.258205 290.13492"
       style="fill:#000000;fill-opacity:1;fill-rule:evenodd;stroke:none;stroke-width:0.13950004;stroke-opacity:1" />
    <path
       inkscape:connector-curvature="0"
       id="path4"
       d="M10.165505 277.87226L8.9470656 279.98139L7.7291665 282.0916L6.5128971 284.20208L5.2988077 286.3142L4.0986186 288.43394L4.5108583 288.66717L4.946788 288.85217L5.4023477 288.98022L5.8728874 289.03034L6.3417871 288.9723L6.6537571 288.87858L6.9578268 288.76251L7.2471768 288.61347L7.5109165 288.42275L7.7577665 288.2105L8.2991462 287.6871L8.8669559 287.19232L9.4857153 286.76346L10.167145 286.44578L10.906325 286.31744L11.510375 286.41771L12.053385 286.70162L12.507305 287.11466L12.875135 287.60673L13.160665 288.15056L13.184105 288.21241L13.197455 288.27698L13.200465 288.34265L13.193115 288.40804L13.175675 288.47179L13.148155 288.53173L13.111925 288.58677L13.067235 288.6353L13.015745 288.67615L12.958525 288.70859L12.811675 288.75902L12.657185 288.75028L12.519325 288.67971L12.408705 288.57073L12.320975 288.44213L12.133795 288.10264L11.913365 287.78414L11.645545 287.5046L11.319405 287.2978L10.942595 287.21878L10.288145 287.35338L9.7023453 287.68006L9.1764956 288.09856L8.6825259 288.55466L8.1972762 289.01975L7.8338165 289.30611L7.4294865 289.53197L6.9998068 289.70526L6.5537971 289.83086L6.0963274 289.90416L6.0478374 289.90892L5.9990674 289.9121L5.9500174 289.91368L5.9012474 289.91421L5.8522074 289.91421L5.3857477 289.88342L4.927198 289.7905L4.4825183 289.64476L4.0558486 289.45294L3.6523286 289.21645L3.1272989 290.13492L10.315365 290.13492L10.421895 289.96871L10.568745 289.74366L10.679095 289.58972L10.809605 289.45349L10.973895 289.36167L11.160805 289.35511L11.333275 289.43113L11.457515 289.54038L11.526445 289.68942L11.516095 289.85371L11.452605 290.00711L11.373325 290.1349L12.129405 290.1349L12.196695 290.02645L12.408675 289.69351L12.559615 289.45565L12.732355 289.23332L12.925535 289.02843L13.137235 288.84261L13.365825 288.67805L13.568545 288.56716L13.782155 288.47915L14.003935 288.41458L14.231715 288.37425L14.462215 288.35843L14.384835 288.24373L14.307725 288.12902L14.230895 288.01431L14.154335 287.89906L14.078585 287.78382L14.021095 287.65167L13.997935 287.50945L14.014555 287.36668L14.080495 287.23917L14.190025 287.14625L14.410175 287.06724L14.637135 287.11465L14.817775 287.26369L14.958635 287.45223L15.084245 287.65113L15.193775 287.8176L15.302755 287.98462L15.411195 288.15218L15.519085 288.31975L15.625625 288.48813L15.719895 288.62381L15.802445 288.76686L15.851495 288.92407L15.844405 289.08809L15.774925 289.2374L15.654495 289.35783L15.496475 289.41994L15.325635 289.42153L15.158075 289.38587L14.993785 289.33792L14.845835 289.29379L14.694075 289.26575L14.540405 289.25405L14.386195 289.25828L14.233345 289.27924L13.996305 289.36616L13.779965 289.49612L13.586525 289.6585L13.413505 289.84242L13.256845 290.04104L13.194995 290.13504L17.258205 290.13504L15.899715 287.78669L13.988405 284.48174L12.077095 281.17706L10.165505 277.87226"
       style="fill:#000000;fill-opacity:1;fill-rule:evenodd;stroke:none;stroke-width:0.13950004;stroke-opacity:1" />
    <path
       inkscape:connector-curvature="0"
       id="path947"
       d="M1.9538098 296.19091L1.9538098 296.50396L1.9944098 296.50396L2.0745095 296.50396L1.9693398 296.23123L1.9538098 296.19091"
       style="fill-rule:evenodd;stroke-width:0.13950004" />
    <path
       inkscape:connector-curvature="0"
       id="path945"
       d="M1.7688098 295.71083L1.4121601 295.71083L1.4214201 295.74136L1.4543901 295.84844L1.4873601 295.95579L1.4181501 295.95579L1.3489501 295.95579L1.2797401 295.95579L1.2105401 295.95579L1.1413301 295.95579L1.1775701 295.84844L1.2138101 295.74136L1.2241601 295.71083L0.88495043 295.71083L0.79095043 295.95822L0.68714043 296.23096L0.58333043 296.50396L0.65717043 296.50396L0.73128043 296.50396L0.80511043 296.50396L0.87895043 296.50396L0.95306043 296.50396L0.97459043 296.44566L0.99611043 296.38762L1.0176301 296.32959L1.0388901 296.27183L1.0604101 296.21379L1.1631301 296.21379L1.2658501 296.21379L1.3682901 296.21379L1.4710101 296.21379L1.5737298 296.21379L1.5938898 296.27183L1.6140498 296.32986L1.6342098 296.38789L1.6540998 296.44593L1.6742698 296.50396L1.7543698 296.50396L1.8344698 296.50396L1.9142998 296.50396L1.9538098 296.50396L1.9538098 296.19091L1.8641698 295.95822L1.7688098 295.71083"
       style="fill-rule:evenodd;stroke-width:0.13950004" />
    <path
       inkscape:connector-curvature="0"
       id="path6"
       d="M1.1023701 295.13948L0.99856043 295.41221L0.89475043 295.68522L0.88495043 295.71083L1.2241601 295.71083L1.2500401 295.63427L1.2865501 295.52719L1.3227901 295.41984L1.3554901 295.52719L1.3884501 295.63427L1.4121601 295.71083L1.7688098 295.71083L1.7589998 295.68548L1.6538298 295.41248L1.5486598 295.13947L1.4592901 295.13947L1.3699301 295.13947L1.2808301 295.13947L1.1914601 295.13947L1.1023701 295.13948"
       style="fill-rule:evenodd;stroke-width:0.13950004" />
    <path
       inkscape:connector-curvature="0"
       id="path8"
       style="fill-rule:evenodd;stroke-width:0.13950004"
       d="M2.6632792 296.54295L2.4804895 296.52585L2.3079995 296.46478L2.1683995 296.34728L2.0877195 296.18344L2.0648195 296.00169L2.0648195 295.83209L2.0648195 295.66239L2.0648195 295.49275L2.0648195 295.32306L2.0648195 295.15353L2.1376295 295.15353L2.2104695 295.15353L2.2832195 295.15353L2.3560995 295.15353L2.4289195 295.15353L2.4289195 295.31086L2.4289195 295.46828L2.4289195 295.62564L2.4289195 295.78305L2.4289195 295.94031L2.4340095 296.03268L2.4536595 296.12303L2.4976595 296.20386L2.5724295 296.25698L2.6632792 296.27232L2.7543292 296.25693L2.8292092 296.20406L2.8737192 296.12339L2.8938092 296.03281L2.8990292 295.94029L2.8990292 295.78297L2.8990292 295.62555L2.8990292 295.46819L2.8990292 295.31078L2.8990292 295.15352L2.9718392 295.15352L3.0446892 295.15352L3.1174392 295.15352L3.1903089 295.15352L3.2631289 295.15352L3.2631289 295.32423L3.2631289 295.49505L3.2631289 295.6658L3.2631289 295.83661L3.2631289 296.00725L3.2401189 296.18939L3.1591189 296.35329L3.0190792 296.47065L2.8462892 296.5315L2.6632792 296.54854L2.6632792 296.54748L2.6632792 296.54642L2.6632792 296.54536L2.6632792 296.54431L2.6632792 296.54325" />
    <path
       inkscape:connector-curvature="0"
       id="path10"
       style="fill-rule:evenodd;stroke-width:0.13950004"
       d="M3.8532086 296.529L3.7706586 296.52688L3.6883386 296.51968L3.6064589 296.50762L3.5256489 296.49079L3.4458689 296.46915L3.4522889 296.40917L3.4586889 296.34932L3.4650989 296.28935L3.4715289 296.22927L3.4779589 296.16921L3.5487189 296.20144L3.6223589 296.22673L3.6981686 296.24478L3.7752186 296.25541L3.8532086 296.25859L3.9133486 296.25594L3.9725286 296.24578L4.0276286 296.22197L4.0671286 296.17736L4.0791986 296.11905L3.9627286 295.98276L3.7808786 295.92322L3.6047289 295.84929L3.4725689 295.71428L3.4319189 295.52898L3.4630189 295.36934L3.5617789 295.24052L3.7042686 295.16136L3.8629786 295.12199L4.0261886 295.11045L4.0977686 295.11151L4.1691486 295.11733L4.2401183 295.12771L4.3101083 295.14252L4.3791283 295.16178L4.3746683 295.21757L4.3702083 295.27325L4.3657483 295.32904L4.3612883 295.38478L4.3568083 295.44084L4.2984083 295.41798L4.2381583 295.40015L4.1765486 295.3875L4.1142086 295.38015L4.0512986 295.37803L3.9899186 295.38015L3.9291686 295.38825L3.8710586 295.40761L3.8247886 295.44693L3.8085686 295.50518L3.9332986 295.62671L4.1125486 295.67947L4.2847883 295.75072L4.4142883 295.8824L4.4544583 296.0632L4.4270983 296.23116L4.3336883 296.37256L4.1886883 296.46131L4.0235386 296.50359L3.8532086 296.51518L3.8532086 296.51783L3.8532086 296.52047L3.8532086 296.52312L3.8532086 296.52576L3.8532086 296.52841" />
    <path
       inkscape:connector-curvature="0"
       style="fill-rule:evenodd;stroke-width:0.13950004"
       d="M4.893878 295.40881L4.826378 295.40881L4.758828 295.40881L4.6913783 295.40881L4.6238083 295.40881L4.5562883 295.40881L4.5562883 295.35497L4.5562883 295.30125L4.5562883 295.24742L4.5562883 295.19362L4.5562883 295.13957L4.763828 295.13957L4.971488 295.13957L5.179078 295.13957L5.3867177 295.13957L5.5941677 295.13957L5.5941677 295.19341L5.5941677 295.24714L5.5941677 295.30097L5.5941677 295.35477L5.5941677 295.40881L5.5266677 295.40881L5.4591177 295.40881L5.3916677 295.40881L5.3240977 295.40881L5.2565777 295.40881L5.2565777 295.62778L5.2565777 295.84688L5.2565777 296.06591L5.2565777 296.285L5.2565777 296.50389L5.184058 296.50389L5.111488 296.50389L5.039018 296.50389L4.966418 296.50389L4.893878 296.50389L4.893878 296.28491L4.893878 296.06581L4.893878 295.84678L4.893878 295.6277L4.893878 295.40881"
       id="polygon12" />
    <path
       inkscape:connector-curvature="0"
       id="path952"
       d="M5.7140377 295.57787L5.7140377 295.68031L5.7140377 295.95332L5.7140377 296.2266L5.7140377 296.4996L5.7870574 296.4996L5.8598074 296.4996L5.9325574 296.4996L6.0052974 296.4996L6.0783174 296.4996L6.0783174 296.39171L6.0783174 296.28354L6.0783174 296.17592L6.0783174 296.06775L6.0783174 295.95986L6.0935774 295.95986L6.1088374 295.95986L6.1243674 295.95986L6.1396174 295.95986L6.1548774 295.95986L6.2387974 295.97182L6.3074571 296.02087L6.3515971 296.09334L6.3840171 296.17208L6.4115271 296.25273L6.4270571 296.30232L6.4423171 296.35164L6.4575771 296.40095L6.4731071 296.45027L6.4883571 296.49959L6.5641071 296.49959L6.6401171 296.49959L6.7158671 296.49959L6.7918771 296.49959L6.8678968 296.49959L6.8414668 296.42548L6.8153171 296.3511L6.7891571 296.27699L6.7629971 296.20288L6.7365771 296.1285L6.7090571 296.05847L6.6831771 295.98791L6.6534771 295.91843L6.6085271 295.85849L6.5428571 295.82309L6.6322271 295.79256L6.7090571 295.73725L6.7660071 295.66178L6.7967871 295.57786L6.4344171 295.57786L6.4281571 295.61273L6.3823771 295.6664L6.3156271 295.69228L6.2447874 295.70043L6.1731274 295.70201L6.1540574 295.70201L6.1352574 295.70201L6.1159074 295.70201L6.0971074 295.70201L6.0783074 295.70201L6.0783074 295.63989L6.0783074 295.57805L5.7140377 295.57787"
       style="fill-rule:evenodd;stroke-width:0.13950004" />
    <path
       inkscape:connector-curvature="0"
       id="path14"
       d="M5.7140377 295.57787L6.0783174 295.57787L6.0783174 295.57759L6.0783174 295.51574L6.0783174 295.45389L6.0783174 295.39205L6.0971274 295.39205L6.1161974 295.39205L6.1352674 295.39205L6.1540674 295.39205L6.1731374 295.39205L6.2423474 295.39469L6.3107271 295.4048L6.3755771 295.42877L6.4248871 295.47618L6.4409671 295.54293L6.4344271 295.57807L6.7967971 295.57807L6.7987071 295.57331L6.8036271 295.47903L6.7820971 295.35561L6.7137071 295.25098L6.6096271 295.18151L6.4894771 295.14499L6.3641471 295.13436L6.2341674 295.13436L6.1042074 295.13436L5.9742474 295.13436L5.8440074 295.13436L5.7140377 295.13436L5.7140377 295.40736L5.7140377 295.57787"
       style="fill-rule:evenodd;stroke-width:0.13950004" />
    <path
       inkscape:connector-curvature="0"
       id="path957"
       d="M7.1687068 295.82962L7.1199468 295.95822L7.0161368 296.23096L6.9123268 296.50396L6.9858868 296.50396L7.0591868 296.50396L7.1324768 296.50396L7.2060368 296.50396L7.2793268 296.50396L7.3014068 296.44566L7.3234768 296.38762L7.3455468 296.32959L7.3676165 296.27183L7.3894165 296.21379L7.4918565 296.21379L7.5943065 296.21379L7.6967465 296.21379L7.7991965 296.21379L7.9016362 296.21379L7.9217962 296.27183L7.9422362 296.32986L7.9626762 296.38789L7.9831062 296.44593L8.0032662 296.50396L8.0833762 296.50396L8.1634762 296.50396L8.2435862 296.50396L8.3236862 296.50396L8.4037862 296.50396L8.2986162 296.23123L8.1934462 295.95822L8.1438562 295.82962L7.7765665 295.82962L7.7822865 295.84841L7.8149865 295.95576L7.7465965 295.95576L7.6782165 295.95576L7.6098265 295.95576L7.5417065 295.95576L7.4733165 295.95576L7.5090165 295.84841L7.5152765 295.82962L7.1687068 295.82962"
       style="fill-rule:evenodd;stroke-width:0.13950004" />
    <path
       inkscape:connector-curvature="0"
       id="path16"
       d="M7.1687068 295.82962L7.5152765 295.82962L7.5447065 295.74134L7.5803965 295.63427L7.6160965 295.52719L7.6517865 295.41984L7.6844765 295.52719L7.7171765 295.63427L7.7495965 295.74134L7.7765765 295.82962L8.1438462 295.82962L8.0882662 295.68549L7.9828262 295.41249L7.8776565 295.13948L7.7885565 295.13948L7.6991965 295.13948L7.6100965 295.13948L7.5207265 295.13948L7.4313665 295.13948L7.3275568 295.41221L7.2237468 295.68522L7.1687068 295.82962"
       style="fill-rule:evenodd;stroke-width:0.13950004" />
    <path
       inkscape:connector-curvature="0"
       style="fill-rule:evenodd;stroke-width:0.13950004"
       d="M8.5445959 295.13957L8.6176759 295.13957L8.6908059 295.13957L8.7638359 295.13957L8.8369859 295.13957L8.9100859 295.13957L8.9100859 295.35855L8.9100859 295.57765L8.9100859 295.79668L8.9100859 296.01576L8.9100859 296.23465L9.0224956 296.23465L9.1349756 296.23465L9.2473056 296.23465L9.3598356 296.23465L9.4722653 296.23465L9.4722653 296.28849L9.4722653 296.34222L9.4722653 296.39604L9.4722653 296.44984L9.4722653 296.50389L9.2867656 296.50389L9.1011556 296.50389L8.9156159 296.50389L8.7300159 296.50389L8.5445959 296.50389L8.5445959 296.23108L8.5445959 295.95811L8.5445959 295.68522L8.5445959 295.41228L8.5445959 295.13957"
       id="polygon18" />
    <path
       inkscape:connector-curvature="0"
       style="fill-rule:evenodd;stroke-width:0.13950004"
       d="M9.6354853 295.13957L9.7080053 295.13957L9.7805753 295.13957L9.8530453 295.13957L9.9256453 295.13957L9.9981853 295.13957L9.9981853 295.41239L9.9981853 295.68536L9.9981853 295.95824L9.9981853 296.23118L9.9981853 296.50389L9.9256553 296.50389L9.8530853 296.50389L9.7806153 296.50389L9.7080253 296.50389L9.6354853 296.50389L9.6354853 296.23108L9.6354853 295.95811L9.6354853 295.68522L9.6354853 295.41228L9.6354853 295.13957"
       id="polygon20" />
    <path
       inkscape:connector-curvature="0"
       id="path22"
       style="fill-rule:evenodd;stroke-width:0.13950004"
       d="M10.137685 296.50389L10.241175 296.23108L10.344725 295.95811L10.448235 295.68522L10.551775 295.41228L10.655225 295.13957L10.744215 295.13957L10.833245 295.13957L10.922165 295.13957L11.011235 295.13957L11.100235 295.13957L11.205955 295.41239L11.311735 295.68536L11.417485 295.95824L11.523255 296.23118L11.628935 296.50389L11.548875 296.50389L11.468775 296.50389L11.388775 296.50389L11.308645 296.50389L11.228575 296.50389L11.208215 296.44586L11.187885 296.38796L11.167525 296.32995L11.147125 296.27182L11.126735 296.21372L11.024365 296.21372L10.921925 296.21372L10.819635 296.21372L10.717165 296.21372L10.614765 296.21372L10.593295 296.27175L10.571855 296.32965L10.550385 296.38767L10.528855 296.44579L10.507355 296.50389L10.433435 296.50389L10.359465 296.50389L10.285605 296.50389L10.211615 296.50389L10.137675 296.50389M11.045825 295.95565L11.012915 295.84854L10.979975 295.74136L10.947085 295.63432L10.914135 295.5271L10.881215 295.41997L10.845515 295.52709L10.809785 295.63427L10.774115 295.7413L10.738375 295.84851L10.702655 295.95565L10.771285 295.95565L10.839945 295.95565L10.908515 295.95565L10.977195 295.95565L11.045835 295.95565" />
    <path
       inkscape:connector-curvature="0"
       style="fill-rule:evenodd;stroke-width:0.13950004"
       d="M11.757275 295.13957L11.849885 295.13957L11.942555 295.13957L12.035095 295.13957L12.127795 295.13957L12.220415 295.13957L12.313305 295.32507L12.406255 295.51068L12.499165 295.69623L12.592095 295.88183L12.684955 296.06725L12.684105 295.88175L12.683255 295.69614L12.682415 295.51059L12.681565 295.32501L12.680715 295.13957L12.747105 295.13957L12.813535 295.13957L12.879875 295.13957L12.946325 295.13957L13.012725 295.13957L13.012725 295.41239L13.012725 295.68536L13.012725 295.95824L13.012725 296.23118L13.012725 296.50389L12.922355 296.50389L12.831915 296.50389L12.741605 296.50389L12.651145 296.50389L12.560745 296.50389L12.464795 296.31727L12.368775 296.13054L12.272795 295.94388L12.176785 295.75718L12.080865 295.57063L12.083095 295.75724L12.085315 295.94397L12.087535 296.13063L12.089755 296.31735L12.091985 296.50389L12.025035 296.50389L11.958045 296.50389L11.891155 296.50389L11.824135 296.50389L11.757185 296.50389L11.757185 296.23108L11.757185 295.95811L11.757185 295.68522L11.757185 295.41228L11.757185 295.13957"
       id="polygon24" />
    <path
       inkscape:connector-curvature="0"
       style="fill-rule:evenodd;stroke-width:0.13950004"
       d="M13.842805 295.13957L13.957445 295.13957L14.072165 295.13957L14.186725 295.13957L14.301485 295.13957L14.416145 295.13957L14.474445 295.32117L14.532785 295.50287L14.591095 295.68451L14.649425 295.8662L14.707705 296.04772L14.768795 295.86613L14.829915 295.68443L14.891025 295.50278L14.952145 295.3211L15.013205 295.13957L15.123395 295.13957L15.233645 295.13957L15.343745 295.13957L15.454025 295.13957L15.564235 295.13957L15.564235 295.41239L15.564235 295.68536L15.564235 295.95824L15.564235 296.23118L15.564235 296.50389L15.493105 296.50389L15.421925 296.50389L15.350855 296.50389L15.279655 296.50389L15.208505 296.50389L15.209355 296.2944L15.210205 296.08478L15.211045 295.87524L15.211895 295.66565L15.212745 295.45624L15.142445 295.66573L15.072105 295.87534L15.001795 296.08488L14.931465 296.29448L14.861205 296.50389L14.794255 296.50389L14.727265 296.50389L14.660375 296.50389L14.593355 296.50389L14.526405 296.50389L14.459735 296.2944L14.393025 296.08478L14.326335 295.87524L14.259635 295.66565L14.192995 295.45624L14.194375 295.66573L14.195745 295.87534L14.197125 296.08488L14.198495 296.29448L14.199875 296.50389L14.128465 296.50389L14.057015 296.50389L13.985655 296.50389L13.914175 296.50389L13.842755 296.50389L13.842755 296.23108L13.842755 295.95811L13.842755 295.68522L13.842755 295.41228L13.842755 295.13957"
       id="polygon26" />
    <path
       inkscape:connector-curvature="0"
       id="path962"
       d="M15.919065 295.8209L15.866755 295.95822L15.762945 296.23096L15.659135 296.50396L15.732975 296.50396L15.807085 296.50396L15.880915 296.50396L15.954755 296.50396L16.028865 296.50396L16.050665 296.44566L16.072455 296.38762L16.093985 296.32959L16.115785 296.27183L16.137575 296.21379L16.240295 296.21379L16.343015 296.21379L16.445455 296.21379L16.548175 296.21379L16.650895 296.21379L16.671325 296.27183L16.691765 296.32986L16.712205 296.38789L16.732365 296.44593L16.752795 296.50396L16.832905 296.50396L16.913005 296.50396L16.993105 296.50396L17.073215 296.50396L17.153045 296.50396L17.047875 296.23123L16.942165 295.95822L16.889035 295.8209L16.522845 295.8209L16.531295 295.84842L16.564545 295.95577L16.495875 295.95577L16.427215 295.95577L16.358555 295.95577L16.289905 295.95577L16.221235 295.95577L16.256665 295.84842L16.265645 295.8209L15.919065 295.8209"
       style="fill-rule:evenodd;stroke-width:0.13950004" />
    <path
       inkscape:connector-curvature="0"
       id="path28"
       d="M15.919065 295.8209L16.265635 295.8209L16.292065 295.74134L16.327485 295.63427L16.362905 295.52719L16.398325 295.41984L16.431565 295.52719L16.464805 295.63427L16.498055 295.74134L16.522845 295.8209L16.889035 295.8209L16.836725 295.68549L16.731275 295.41249L16.625835 295.13948L16.536195 295.13948L16.446555 295.13948L16.357185 295.13948L16.267545 295.13948L16.177905 295.13948L16.074375 295.41221L15.970565 295.68522L15.919065 295.8209"
       style="fill-rule:evenodd;stroke-width:0.13950004" />
    <path
       inkscape:connector-curvature="0"
       id="path967"
       d="M17.292545 295.92498L17.292545 295.95822L17.292545 296.23095L17.292545 296.50396L17.391985 296.50396L17.491435 296.50396L17.590615 296.50396L17.690065 296.50396L17.789235 296.50396L18.032275 296.48655L18.265775 296.4187L18.459215 296.27348L18.569015 296.05769L18.585095 295.92501L18.205285 295.92501L18.202585 295.95062L18.152455 296.07595L18.057635 296.17104L17.932305 296.22115L17.797705 296.2348L17.769645 296.23216L17.741855 296.23004L17.714065 296.22792L17.686005 296.22581L17.658215 296.22369L17.658215 296.05858L17.658215 295.92507L17.292545 295.92498"
       style="fill-rule:evenodd;stroke-width:0.13950004" />
    <path
       inkscape:connector-curvature="0"
       id="path30"
       d="M17.292545 295.92498L17.658185 295.92498L17.658185 295.89313L17.658185 295.72802L17.658185 295.56291L17.658185 295.3978L17.685975 295.3978L17.713765 295.3978L17.741825 295.3978L17.769625 295.3978L17.797685 295.3978L17.865525 295.39621L17.932555 295.40658L17.996855 295.42918L18.055705 295.46241L18.107745 295.50601L18.151335 295.55808L18.184845 295.6172L18.207185 295.6815L18.217815 295.74853L18.216175 295.81637L18.205285 295.92509L18.585095 295.92509L18.598445 295.81637L18.569835 295.57552L18.460575 295.36054L18.265495 295.21886L18.031725 295.15538L17.789235 295.13956L17.690055 295.13956L17.590615 295.13956L17.491435 295.13956L17.391985 295.13956L17.292535 295.13956L17.292535 295.41229L17.292535 295.6853L17.292545 295.92498"
       style="fill-rule:evenodd;stroke-width:0.13950004" />
    <path
       inkscape:connector-curvature="0"
       style="fill-rule:evenodd;stroke-width:0.13950004"
       d="M18.747625 295.13957L18.940095 295.13957L19.132685 295.13957L19.325205 295.13957L19.517775 295.13957L19.710175 295.13957L19.710175 295.19117L19.710175 295.24266L19.710175 295.29425L19.710175 295.34584L19.710175 295.39765L19.590505 295.39765L19.470765 295.39765L19.351185 295.39765L19.231405 295.39765L19.111715 295.39765L19.111715 295.45372L19.111715 295.50968L19.111715 295.56574L19.111715 295.62176L19.111715 295.67804L19.224695 295.67804L19.337735 295.67804L19.450615 295.67804L19.563705 295.67804L19.676695 295.67804L19.676695 295.72995L19.676695 295.78176L19.676695 295.83362L19.676695 295.88548L19.676695 295.93755L19.563725 295.93755L19.450675 295.93755L19.337795 295.93755L19.224715 295.93755L19.111715 295.93755L19.111715 295.99919L19.111715 296.06072L19.111715 296.12236L19.111715 296.18412L19.111715 296.24584L19.235845 296.24584L19.360055 296.24584L19.484095 296.24584L19.608345 296.24584L19.732495 296.24584L19.732495 296.29744L19.732495 296.34893L19.732495 296.40052L19.732495 296.45211L19.732495 296.50392L19.535555 296.50392L19.338505 296.50392L19.141515 296.50392L18.944485 296.50392L18.747625 296.50392L18.747625 296.23111L18.747625 295.95814L18.747625 295.68526L18.747625 295.41231L18.747625 295.13961"
       id="polygon32" />
    <path
       inkscape:connector-curvature="0"
       id="path976"
       d="M20.090985 296.09064L20.090985 296.13424L20.090985 296.21789L20.090985 296.30153L20.090985 296.38545L20.104885 296.38387L20.118515 296.38281L20.132145 296.38175L20.145765 296.38069L20.159395 296.37963L20.159395 296.34312L20.159395 296.30661L20.159395 296.2701L20.159395 296.23332L20.159395 296.19681L20.170835 296.19681L20.182275 296.19681L20.193715 296.19681L20.204885 296.19681L20.216615 296.19681L20.239775 296.23358L20.262935 296.26983L20.286085 296.30634L20.309255 296.34312L20.332405 296.37963L20.346575 296.37963L20.360745 296.37963L20.375185 296.37963L20.389355 296.37963L20.403525 296.37963L20.379815 296.34312L20.356105 296.30661L20.332405 296.2701L20.308695 296.23332L20.284995 296.19681L20.302705 296.19575L20.319875 296.19152L20.336215 296.18495L20.351205 296.17543L20.364555 296.16347L20.375445 296.14955L20.383895 296.13399L20.389615 296.11738L20.392625 296.09992L20.392345 296.09013L20.324775 296.09013L20.322345 296.11082L20.309805 296.13209L20.288275 296.14463L20.264025 296.14939L20.238955 296.15045L20.222885 296.15045L20.207085 296.15045L20.191005 296.15045L20.175205 296.15045L20.159405 296.15045L20.159405 296.12537L20.159405 296.10029L20.159405 296.09018L20.090985 296.09064"
       style="fill-rule:evenodd;stroke-width:0.13950004" />
    <path
       inkscape:connector-curvature="0"
       id="path974"
       d="M20.090985 296.09064L20.159375 296.09064L20.159375 296.07566L20.159375 296.05058L20.159375 296.0255L20.175175 296.0255L20.191255 296.0255L20.207055 296.0255L20.222855 296.0255L20.238935 296.0255L20.263185 296.02656L20.286895 296.03132L20.308145 296.04307L20.321495 296.06296L20.325305 296.08694L20.324725 296.09064L20.392315 296.09064L20.392315 296.08249L20.387125 296.04164L20.367515 296.00513L20.333995 295.98116L20.294225 295.96973L20.252805 295.96708L20.220385 295.96708L20.188235 295.96708L20.155815 295.96708L20.123395 295.96708L20.090965 295.96708L20.090965 296.05073L20.090985 296.09064"
       style="fill-rule:evenodd;stroke-width:0.13950004" />
    <path
       inkscape:connector-curvature="0"
       id="path972"
       d="M19.891545 296.09064L19.877645 296.18083L19.894815 296.28981L19.944945 296.38789L20.023145 296.46582L20.121505 296.51593L20.230485 296.53308L20.339745 296.51567L20.438105 296.46497L20.516025 296.38651L20.566165 296.28815L20.583325 296.17889L20.569165 296.09061L20.533195 296.09061L20.535105 296.09485L20.546815 296.16542L20.541635 296.2368L20.519565 296.30492L20.482235 296.36595L20.431285 296.41664L20.370255 296.45369L20.301865 296.47522L20.230485 296.47999L20.184435 296.47575L20.139485 296.46459L20.096705 296.44607L20.057745 296.42125L20.023135 296.39019L19.994255 296.3542L19.971105 296.31388L19.955025 296.27028L19.946035 296.22477L19.944395 296.17847L19.953115 296.10736L19.959665 296.09021L19.891545 296.09064"
       style="fill-rule:evenodd;stroke-width:0.13950004" />
    <path
       inkscape:connector-curvature="0"
       id="path34"
       d="M19.891545 296.09064L19.959665 296.09064L19.978185 296.04079L20.018505 295.98167L20.071365 295.93346L20.134305 295.89938L20.203515 295.88086L20.275165 295.87928L20.344915 295.89478L20.409215 295.92611L20.464525 295.97188L20.507035 296.0291L20.533185 296.09067L20.569155 296.09067L20.565865 296.06998L20.515465 295.9719L20.436995 295.89398L20.338635 295.84413L20.229645 295.82751L20.120665 295.84497L20.022575 295.89509L19.944655 295.97356L19.894525 296.07164L19.891505 296.09069L19.891545 296.09064"
       style="fill-rule:evenodd;stroke-width:0.13950004" />
  </g>
</svg>
