<?xml version="1.0" encoding="UTF-8" standalone="no"?>
<!-- Created with Inkscape (http://www.inkscape.org/) -->

<svg
   xmlns:dc="http://purl.org/dc/elements/1.1/"
   xmlns:cc="http://creativecommons.org/ns#"
   xmlns:rdf="http://www.w3.org/1999/02/22-rdf-syntax-ns#"
   xmlns:svg="http://www.w3.org/2000/svg"
   xmlns="http://www.w3.org/2000/svg"
   xmlns:sodipodi="http://sodipodi.sourceforge.net/DTD/sodipodi-0.dtd"
   xmlns:inkscape="http://www.inkscape.org/namespaces/inkscape"
   width="210mm"
   height="297mm"
   viewBox="0 0 210 297"
   version="1.1"
   id="svg4051"
   inkscape:version="0.92.2 (5c3e80d, 2017-08-06)"
   sodipodi:docname="Australian_Made6.svg">
  <sodipodi:namedview
     id="base"
     pagecolor="#ffffff"
     bordercolor="#666666"
     borderopacity="1.0"
     inkscape:pageopacity="0.0"
     inkscape:pageshadow="2"
     inkscape:zoom="5.6568543"
     inkscape:cx="5.9578499"
     inkscape:cy="16.768351"
     inkscape:document-units="mm"
     inkscape:current-layer="layer1"
     showgrid="false"
     inkscape:window-width="2560"
     inkscape:window-height="1017"
     inkscape:window-x="-8"
     inkscape:window-y="-8"
     inkscape:window-maximized="1" />
  <defs
     id="defs4045" />
  <metadata
     id="metadata4048">
    <rdf:RDF>
      <cc:Work
         rdf:about="">
        <dc:format>image/svg+xml</dc:format>
        <dc:type
           rdf:resource="http://purl.org/dc/dcmitype/StillImage" />
        <dc:title></dc:title>
      </cc:Work>
    </rdf:RDF>
  </metadata>
  <g
     id="layer1"
     inkscape:groupmode="layer"
     inkscape:label="Layer 1">
    <path
       inkscape:connector-curvature="0"
       id="path940"
       d="M11.109121 289.73802L3.9210545 289.73802L3.8537548 289.85572L3.261425 290.89243L2.6690953 291.92887L2.0767655 292.96531L1.4844358 294.00203L1.4838958 294.00256L1.4833458 294.00362L1.4828058 294.00468L1.4822558 294.00574L1.4817158 294.00626L3.4349847 294.00626L5.387714 294.00626L7.3407128 294.00626L9.2937114 294.00626L11.246711 294.00626L11.169061 293.88121L11.090861 293.75642L11.012661 293.63163L10.933921 293.50712L10.854641 293.3826L10.652471 293.07799L10.446761 292.77556L10.254681 292.46414L10.109451 292.12928L10.055511 291.76882L10.091471 291.48409L10.186831 291.213L10.320341 290.95824L10.475641 290.7163L10.637211 290.47844L10.781611 290.25175L10.926021 290.02506L11.070421 289.79838L11.109111 289.73817L11.109121 289.73802"
       style="fill:#000000;fill-opacity:1;fill-rule:evenodd;stroke:none;stroke-width:0.13950004;stroke-opacity:1" />
    <path
       inkscape:connector-curvature="0"
       id="path938"
       d="M 18.051962,289.73802 H 13.988752 L 13.898842,289.87479 13.753082,290.10938 13.613582,290.34806 13.480072,290.59 13.353102,290.83522 13.297792,290.91123 13.229952,290.97581 13.151482,291.02756 13.065112,291.06434 12.973842,291.08503 12.974122,291.08609 12.974962,291.08714 12.975492,291.0882 12.976022,291.08926 12.976552,291.09032 12.923422,291.0882 12.870842,291.08005 12.819892,291.06587 12.770572,291.04597 12.723982,291.02063 12.522912,290.70185 12.604372,290.31877 12.782022,289.96647 12.923152,289.73925 H 12.167072 L 12.158902,289.75258 11.968172,290.04438 11.777452,290.33619 11.586462,290.628 11.395732,290.92008 11.204741,291.21188 11.124641,291.33067 11.051071,291.45355 10.988681,291.5827 10.947811,291.71948 10.959261,291.86034 11.118651,292.14669 11.298741,292.42079 11.483202,292.69243 11.666842,292.96408 11.848022,293.23735 11.948832,293.39129 12.049372,293.54523 12.150182,293.69918 12.251542,293.85257 12.359982,294.00025 H 13.991472 15.622432 17.253922 18.885152 20.516372 L 18.605052,290.69554 18.051962,289.73802"
       style="fill:#000000;fill-opacity:1;fill-rule:evenodd;stroke:none;stroke-width:0.13950004;stroke-opacity:1" />
    <path
       inkscape:connector-curvature="0"
       id="path4"
       d="M 10.959261,276.94619 9.7408213,279.05532 8.5229222,281.16553 7.3066528,283.27601 6.0925632,285.38813 4.8923743,287.50787 5.3046139,287.7411 5.7405435,287.9261 6.1961034,288.05415 6.6666431,288.10427 7.1355428,288.04623 7.4475127,287.95251 7.7515824,287.83644 8.0409324,287.6874 8.3046722,287.49668 8.5515221,287.28443 9.0929019,286.76103 9.6607115,286.26625 10.279471,285.83739 10.960901,285.51971 11.700082,285.39137 12.304132,285.49164 12.847142,285.77555 13.301062,286.18859 13.668892,286.68066 13.954422,287.22449 13.977862,287.28634 13.991212,287.35091 13.994222,287.41658 13.986872,287.48197 13.969432,287.54572 13.941912,287.60566 13.905682,287.6607 13.860992,287.70923 13.809502,287.75008 13.752282,287.78252 13.605432,287.83295 13.450942,287.82421 13.313082,287.75364 13.202462,287.64466 13.114732,287.51606 12.927552,287.17657 12.707122,286.85807 12.439302,286.57853 12.113162,286.37173 11.736352,286.29271 11.081901,286.42731 10.496101,286.75399 9.9702513,287.17249 9.4762816,287.62859 8.9910318,288.09368 8.6275721,288.38004 8.2232422,288.6059 7.7935626,288.77919 7.3475528,288.90479 6.890083,288.97809 6.8415931,288.98285 6.7928229,288.98603 6.7437732,288.98761 6.695003,288.98814 H 6.645963 L 6.1795034,288.95735 5.7209535,288.86443 5.2762739,288.71869 4.8496041,288.52687 4.4460841,288.29038 3.9210545,289.20885 H 11.109121 L 11.215651,289.04264 11.362501,288.81759 11.472852,288.66365 11.603362,288.52742 11.767652,288.4356 11.954562,288.42904 12.127032,288.50506 12.251272,288.61431 12.320202,288.76335 12.309852,288.92764 12.246362,289.08104 12.167082,289.20883 H 12.923162 L 12.990452,289.10038 13.202432,288.76744 13.353372,288.52958 13.526112,288.30725 13.719292,288.10236 13.930992,287.91654 14.159582,287.75198 14.362302,287.64109 14.575912,287.55308 14.797692,287.48851 15.025472,287.44818 15.255972,287.43236 15.178592,287.31766 15.101482,287.20295 15.024652,287.08824 14.948092,286.97299 14.872342,286.85775 14.814852,286.7256 14.791692,286.58338 14.808312,286.44061 14.874252,286.3131 14.983782,286.22018 15.203932,286.14117 15.430892,286.18858 15.611532,286.33762 15.752392,286.52616 15.878002,286.72506 15.987532,286.89153 16.096512,287.05855 16.204952,287.22611 16.312842,287.39368 16.419382,287.56206 16.513652,287.69774 16.596202,287.84079 16.645252,287.998 16.638162,288.16202 16.568682,288.31133 16.448252,288.43176 16.290232,288.49387 16.119392,288.49546 15.951832,288.4598 15.787542,288.41185 15.639592,288.36772 15.487832,288.33968 15.334162,288.32798 15.179952,288.33221 15.027102,288.35317 14.790062,288.44009 14.573722,288.57005 14.380282,288.73243 14.207262,288.91635 14.050602,289.11497 13.988752,289.20897 H 18.051962 L 16.693472,286.86062 14.782162,283.55567 12.870852,280.25099 10.959261,276.94619"
       style="fill:#000000;fill-opacity:1;fill-rule:evenodd;stroke:none;stroke-width:0.13950004;stroke-opacity:1" />
    <path
       inkscape:connector-curvature="0"
       id="path8"
       style="fill-rule:evenodd;stroke-width:0.13950004"
       d="M3.4570347 296.14605L3.274245 296.12895L3.101755 296.06788L2.962155 295.95038L2.881475 295.78654L2.858575 295.60479L2.858575 295.43519L2.858575 295.26549L2.858575 295.09585L2.858575 294.92616L2.858575 294.75663L2.931385 294.75663L3.004225 294.75663L3.076975 294.75663L3.149855 294.75663L3.222675 294.75663L3.222675 294.91396L3.222675 295.07138L3.222675 295.22874L3.222675 295.38615L3.222675 295.54341L3.227765 295.63578L3.247415 295.72613L3.291415 295.80696L3.366185 295.86008L3.4570347 295.87542L3.5480847 295.86003L3.6229647 295.80716L3.6674748 295.72649L3.6875648 295.63591L3.6927848 295.54339L3.6927848 295.38607L3.6927848 295.22865L3.6927848 295.07129L3.6927848 294.91388L3.6927848 294.75662L3.7655948 294.75662L3.8384448 294.75662L3.9111948 294.75662L3.9840645 294.75662L4.0568844 294.75662L4.0568844 294.92733L4.0568844 295.09815L4.0568844 295.2689L4.0568844 295.43971L4.0568844 295.61035L4.0338744 295.79249L3.9528745 295.95639L3.8128348 296.07375L3.6400447 296.1346L3.4570347 296.15164L3.4570347 296.15058L3.4570347 296.14952L3.4570347 296.14846L3.4570347 296.14741L3.4570347 296.14635" />
    <path
       inkscape:connector-curvature="0"
       id="path10"
       style="fill-rule:evenodd;stroke-width:0.13950004"
       d="M4.6469643 296.1321L4.5644143 296.12998L4.4820942 296.12278L4.4002144 296.11072L4.3194045 296.09389L4.2396245 296.07225L4.2460446 296.01227L4.2524446 295.95242L4.2588544 295.89245L4.2652845 295.83237L4.2717144 295.77231L4.3424746 295.80454L4.4161145 295.82983L4.4919242 295.84788L4.5689741 295.85851L4.6469643 295.86169L4.7071043 295.85904L4.7662842 295.84888L4.8213842 295.82507L4.8608841 295.78046L4.8729541 295.72215L4.7564843 295.58586L4.5746343 295.52632L4.3984845 295.45239L4.2663246 295.31738L4.2256746 295.13208L4.2567745 294.97244L4.3555344 294.84362L4.4980242 294.76446L4.6567343 294.72509L4.8199441 294.71355L4.8915242 294.71461L4.9629043 294.72043L5.033874 294.73081L5.103864 294.74562L5.172884 294.76488L5.1684239 294.82067L5.1639638 294.87635L5.159504 294.93214L5.1550439 294.98788L5.150564 295.04394L5.0921638 295.02108L5.031914 295.00325L4.9703041 294.9906L4.9079641 294.98325L4.8450541 294.98113L4.7836742 294.98325L4.7229243 294.99135L4.6648141 295.01071L4.6185443 295.05003L4.6023243 295.10828L4.7270542 295.22981L4.9063041 295.28257L5.0785439 295.35382L5.2080439 295.4855L5.248214 295.6663L5.220854 295.83426L5.1274439 295.97566L4.982444 296.06441L4.8172943 296.10669L4.6469643 296.11828L4.6469643 296.12093L4.6469643 296.12357L4.6469643 296.12622L4.6469643 296.12886L4.6469643 296.13151" />
    <path
       inkscape:connector-curvature="0"
       style="fill-rule:evenodd;stroke-width:0.13950004"
       d="M5.6876337 295.01191L5.6201335 295.01191L5.5525835 295.01191L5.4851338 295.01191L5.417564 295.01191L5.3500439 295.01191L5.3500439 294.95807L5.3500439 294.90435L5.3500439 294.85052L5.3500439 294.79672L5.3500439 294.74267L5.5575836 294.74267L5.7652437 294.74267L5.9728337 294.74267L6.1804734 294.74267L6.3879234 294.74267L6.3879234 294.79651L6.3879234 294.85024L6.3879234 294.90407L6.3879234 294.95787L6.3879234 295.01191L6.3204234 295.01191L6.2528734 295.01191L6.1854232 295.01191L6.1178534 295.01191L6.0503333 295.01191L6.0503333 295.23088L6.0503333 295.44998L6.0503333 295.66901L6.0503333 295.8881L6.0503333 296.10699L5.9778137 296.10699L5.9052437 296.10699L5.8327736 296.10699L5.7601735 296.10699L5.6876337 296.10699L5.6876337 295.88801L5.6876337 295.66891L5.6876337 295.44988L5.6876337 295.2308L5.6876337 295.01191"
       id="polygon12" />
    <path
       inkscape:connector-curvature="0"
       id="path952"
       d="M 6.5077934,295.71014 V 295.81258 296.08559 296.35887 296.63187 H 6.5808131 6.6535629 6.726313 6.7990531 6.8720731 V 296.52398 296.41581 296.30819 296.20002 296.09213 H 6.8873332 6.902593 6.918123 6.933373 6.9486331 L 7.0325532,296.10409 7.1012128,296.15314 7.1453527,296.22561 7.1777726,296.30435 7.2052827,296.385 7.2208127,296.43459 7.2360728,296.48391 7.2513326,296.53322 7.2668626,296.58254 7.2821127,296.63186 H 7.3578626 7.4338726 7.5096228 7.5856326 7.6616524 L 7.6352224,296.55775 7.6090728,296.48337 7.5829127,296.40926 7.5567528,296.33515 7.5303328,296.26077 7.5028127,296.19074 7.4769328,296.12018 7.4472328,296.0507 7.4022827,295.99076 7.3366129,295.95536 7.4259828,295.92483 7.5028127,295.86952 7.5597627,295.79405 7.5905427,295.71013 H 7.2281728 L 7.2219128,295.745 7.1761327,295.79867 7.1093826,295.82455 7.0385431,295.8327 6.966883,295.83428 H 6.9478129 6.929013 6.9096629 6.890863 6.872063 V 295.77216 295.71032 L 6.5077934,295.71014"
       style="fill-rule:evenodd;stroke-width:0.13950004" />
    <path
       inkscape:connector-curvature="0"
       id="path14"
       d="M6.5077934 295.18097L6.8720731 295.18097L6.8720731 295.18069L6.8720731 295.11884L6.8720731 295.05699L6.8720731 294.99515L6.8908831 294.99515L6.9099529 294.99515L6.929023 294.99515L6.947823 294.99515L6.9668931 294.99515L7.0361031 294.99779L7.1044828 295.0079L7.1693327 295.03187L7.2186428 295.07928L7.2347226 295.14603L7.2281826 295.18117L7.5905528 295.18117L7.5924628 295.17641L7.5973828 295.08213L7.5758528 294.95871L7.5074628 294.85408L7.4033828 294.78461L7.2832326 294.74809L7.1579027 294.73746L7.027923 294.73746L6.8979631 294.73746L6.7680029 294.73746L6.6377631 294.73746L6.5077934 294.73746L6.5077934 295.01046L6.5077934 295.18097"
       style="fill-rule:evenodd;stroke-width:0.13950004" />
    <path
       inkscape:connector-curvature="0"
       id="path957"
       d="M 7.9624625,295.96189 7.9137024,296.09049 7.8098924,296.36323 7.7060823,296.63623 H 7.7796426 7.8529425 7.9262323 7.9997926 8.0730824 L 8.0951624,296.57793 8.1172324,296.51989 8.1393023,296.46186 8.161372,296.4041 8.1831721,296.34606 H 8.2856122 8.3880623 8.490502 8.5929522 8.6953919 L 8.7155519,296.4041 8.7359917,296.46213 8.7564318,296.52016 8.7768619,296.5782 8.7970218,296.63623 H 8.8771319 8.9572318 9.0373418 9.1174418 9.1975417 L 9.092372,296.3635 8.987202,296.09049 8.9376119,295.96189 H 8.5703221 L 8.5760421,295.98068 8.6087422,296.08803 H 8.5403522 8.4719722 8.4035822 8.335462 8.2670723 L 8.3027722,295.98068 8.309032,295.96189 H 7.9624625"
       style="fill-rule:evenodd;stroke-width:0.13950004" />
    <path
       inkscape:connector-curvature="0"
       id="path16"
       d="M7.9624625 295.43272L8.309032 295.43272L8.3384621 295.34444L8.3741521 295.23737L8.409852 295.13029L8.4455422 295.02294L8.4782323 295.13029L8.5109321 295.23737L8.543352 295.34444L8.5703321 295.43272L8.9376018 295.43272L8.8820219 295.28859L8.7765817 295.01559L8.6714122 294.74258L8.5823122 294.74258L8.4929521 294.74258L8.4038521 294.74258L8.3144822 294.74258L8.2251221 294.74258L8.1213125 295.01531L8.0175025 295.28832L7.9624625 295.43272"
       style="fill-rule:evenodd;stroke-width:0.13950004" />
    <path
       inkscape:connector-curvature="0"
       style="fill-rule:evenodd;stroke-width:0.13950004"
       d="M9.3383517 294.74267L9.4114314 294.74267L9.4845615 294.74267L9.5575915 294.74267L9.6307417 294.74267L9.7038415 294.74267L9.7038415 294.96165L9.7038415 295.18075L9.7038415 295.39978L9.7038415 295.61886L9.7038415 295.83775L9.8162513 295.83775L9.9287313 295.83775L10.041061 295.83775L10.153591 295.83775L10.266021 295.83775L10.266021 295.89159L10.266021 295.94532L10.266021 295.99914L10.266021 296.05294L10.266021 296.10699L10.080521 296.10699L9.8949112 296.10699L9.7093716 296.10699L9.5237717 296.10699L9.3383517 296.10699L9.3383517 295.83418L9.3383517 295.56121L9.3383517 295.28832L9.3383517 295.01538L9.3383517 294.74267"
       id="polygon18" />
    <path
       style="fill-rule:evenodd;stroke-width:0.52724421"
       d="M 39.417969 1113.9883 L 39.417969 1115.0195 L 39.417969 1116.0508 L 39.417969 1117.082 L 39.417969 1118.1133 L 39.417969 1119.1445 L 39.691406 1119.1445 L 39.966797 1119.1445 L 40.240234 1119.1445 L 40.513672 1119.1445 L 40.789062 1119.1445 L 40.789062 1118.1133 L 40.789062 1117.082 L 40.789062 1116.0508 L 40.789062 1115.0195 L 40.789062 1113.9883 L 40.513672 1113.9883 L 40.240234 1113.9883 L 39.966797 1113.9883 L 39.691406 1113.9883 L 39.417969 1113.9883 z "
       transform="scale(0.26458333)"
       id="polygon20" />
    <path
       id="path5775"
       d="M 11.218437,295.88065 11.138338,296.09044 11.034985,296.36331 10.931632,296.63615 H 11.00553 11.079427 11.153324 11.227222 11.301119 L 11.322823,296.57828 11.34401,296.51989 11.365714,296.462 11.386902,296.40413 11.408606,296.34574 H 11.510925 11.613244 11.715564 11.817883 11.920719 L 11.940873,296.40413 11.961027,296.462 11.981697,296.52039 12.001851,296.57828 12.022522,296.63615 H 12.10262 12.182719 12.2623 12.342399 12.422497 L 12.317077,296.36331 12.211141,296.09044 12.130009,295.88065 H 11.776025 L 11.806514,295.9809 11.839587,296.08788 H 11.770858 11.702128 11.633915 11.565186 11.496456 L 11.532113,295.9809 11.565186,295.88065 H 11.218437 V 295.88065"
       style="fill-rule:evenodd;stroke-width:0.13950002"
       inkscape:connector-curvature="0" />
    <path
       transform="scale(0.26458333)"
       id="path22"
       d="M42.400391 1116.2891L43.710938 1116.2891L43.720703 1116.2617L43.855469 1115.8574L43.990234 1115.4531L44.125 1115.0469L44.25 1115.4531L44.375 1115.8574L44.5 1116.2617L44.507812 1116.2891L45.845703 1116.2891L45.753906 1116.0508L45.353516 1115.0195L44.953125 1113.9883L44.617188 1113.9883L44.28125 1113.9883L43.945312 1113.9883L43.607422 1113.9883L43.271484 1113.9883L42.880859 1115.0195L42.490234 1116.0508L42.400391 1116.2891L42.400391 1116.2891"
       style="fill-rule:evenodd;stroke-width:0.52724421" />
    <path
       inkscape:connector-curvature="0"
       style="fill-rule:evenodd;stroke-width:0.13950004"
       d="M12.551032 294.74267L12.643642 294.74267L12.736312 294.74267L12.828852 294.74267L12.921552 294.74267L13.014172 294.74267L13.107062 294.92817L13.200012 295.11378L13.292922 295.29933L13.385852 295.48493L13.478712 295.67035L13.477862 295.48485L13.477012 295.29924L13.476172 295.11369L13.475322 294.92811L13.474472 294.74267L13.540862 294.74267L13.607292 294.74267L13.673632 294.74267L13.740082 294.74267L13.806482 294.74267L13.806482 295.01549L13.806482 295.28846L13.806482 295.56134L13.806482 295.83428L13.806482 296.10699L13.716112 296.10699L13.625672 296.10699L13.535362 296.10699L13.444902 296.10699L13.354502 296.10699L13.258552 295.92037L13.162532 295.73364L13.066552 295.54698L12.970542 295.36028L12.874622 295.17373L12.876852 295.36034L12.879072 295.54707L12.881292 295.73373L12.883512 295.92045L12.885742 296.10699L12.818792 296.10699L12.751802 296.10699L12.684912 296.10699L12.617892 296.10699L12.550942 296.10699L12.550942 295.83418L12.550942 295.56121L12.550942 295.28832L12.550942 295.01538L12.550942 294.74267"
       id="polygon24" />
    <path
       inkscape:connector-curvature="0"
       style="fill-rule:evenodd;stroke-width:0.13950004"
       d="M14.636562 294.74267L14.751202 294.74267L14.865922 294.74267L14.980482 294.74267L15.095242 294.74267L15.209902 294.74267L15.268202 294.92427L15.326542 295.10597L15.384852 295.28761L15.443182 295.4693L15.501462 295.65082L15.562552 295.46923L15.623672 295.28753L15.684782 295.10588L15.745902 294.9242L15.806962 294.74267L15.917152 294.74267L16.027402 294.74267L16.137502 294.74267L16.247782 294.74267L16.357992 294.74267L16.357992 295.01549L16.357992 295.28846L16.357992 295.56134L16.357992 295.83428L16.357992 296.10699L16.286862 296.10699L16.215682 296.10699L16.144612 296.10699L16.073412 296.10699L16.002262 296.10699L16.003112 295.8975L16.003962 295.68788L16.004802 295.47834L16.005652 295.26875L16.006502 295.05934L15.936202 295.26883L15.865862 295.47844L15.795552 295.68798L15.725222 295.89758L15.654962 296.10699L15.588012 296.10699L15.521022 296.10699L15.454132 296.10699L15.387112 296.10699L15.320162 296.10699L15.253492 295.8975L15.186782 295.68788L15.120092 295.47834L15.053392 295.26875L14.986752 295.05934L14.988132 295.26883L14.989502 295.47844L14.990882 295.68798L14.992252 295.89758L14.993632 296.10699L14.922222 296.10699L14.850772 296.10699L14.779412 296.10699L14.707932 296.10699L14.636512 296.10699L14.636512 295.83418L14.636512 295.56121L14.636512 295.28832L14.636512 295.01538L14.636512 294.74267"
       id="polygon26" />
    <path
       inkscape:connector-curvature="0"
       id="path962"
       d="M 16.712822,295.95317 16.660512,296.09049 16.556702,296.36323 16.452892,296.63623 H 16.526732 16.600842 16.674672 16.748512 16.822622 L 16.844422,296.57793 16.866212,296.51989 16.887742,296.46186 16.909542,296.4041 16.931332,296.34606 H 17.034052 17.136772 17.239212 17.341932 17.444652 L 17.465082,296.4041 17.485522,296.46213 17.505962,296.52016 17.526122,296.5782 17.546552,296.63623 H 17.626662 17.706762 17.786862 17.866972 17.946802 L 17.841632,296.3635 17.735922,296.09049 17.682792,295.95317 H 17.316602 L 17.325052,295.98069 17.358302,296.08804 H 17.289632 17.220972 17.152312 17.083662 17.014992 L 17.050422,295.98069 17.059402,295.95317 H 16.712822"
       style="fill-rule:evenodd;stroke-width:0.13950004" />
    <path
       inkscape:connector-curvature="0"
       id="path28"
       d="M16.712822 295.424L17.059392 295.424L17.085822 295.34444L17.121242 295.23737L17.156662 295.13029L17.192082 295.02294L17.225322 295.13029L17.258562 295.23737L17.291812 295.34444L17.316602 295.424L17.682792 295.424L17.630482 295.28859L17.525032 295.01559L17.419592 294.74258L17.329952 294.74258L17.240312 294.74258L17.150942 294.74258L17.061302 294.74258L16.971662 294.74258L16.868132 295.01531L16.764322 295.28832L16.712822 295.424"
       style="fill-rule:evenodd;stroke-width:0.13950004" />
    <path
       inkscape:connector-curvature="0"
       id="path967"
       d="M 18.086302,296.05725 V 296.09049 296.36322 296.63623 H 18.185742 18.285192 18.384372 18.483822 18.582992 L 18.826032,296.61882 19.059532,296.55097 19.252972,296.40575 19.362772,296.18996 19.378852,296.05728 H 18.999042 L 18.996342,296.08289 18.946212,296.20822 18.851392,296.30331 18.726062,296.35342 18.591462,296.36707 18.563402,296.36443 18.535612,296.36231 18.507822,296.36019 18.479762,296.35808 18.451972,296.35596 V 296.19085 296.05734 L 18.086302,296.05725"
       style="fill-rule:evenodd;stroke-width:0.13950004" />
    <path
       inkscape:connector-curvature="0"
       id="path30"
       d="M18.086302 295.52808L18.451942 295.52808L18.451942 295.49623L18.451942 295.33112L18.451942 295.16601L18.451942 295.0009L18.479732 295.0009L18.507522 295.0009L18.535582 295.0009L18.563382 295.0009L18.591442 295.0009L18.659282 294.99931L18.726312 295.00968L18.790612 295.03228L18.849462 295.06551L18.901502 295.10911L18.945092 295.16118L18.978602 295.2203L19.000942 295.2846L19.011572 295.35163L19.009932 295.41947L18.999042 295.52819L19.378852 295.52819L19.392202 295.41947L19.363592 295.17862L19.254332 294.96364L19.059252 294.82196L18.825482 294.75848L18.582992 294.74266L18.483812 294.74266L18.384372 294.74266L18.285192 294.74266L18.185742 294.74266L18.086292 294.74266L18.086292 295.01539L18.086292 295.2884L18.086302 295.52808"
       style="fill-rule:evenodd;stroke-width:0.13950004" />
    <path
       inkscape:connector-curvature="0"
       style="fill-rule:evenodd;stroke-width:0.13950004"
       d="M19.541382 294.74267L19.733852 294.74267L19.926442 294.74267L20.118962 294.74267L20.311532 294.74267L20.503932 294.74267L20.503932 294.79427L20.503932 294.84576L20.503932 294.89735L20.503932 294.94894L20.503932 295.00075L20.384262 295.00075L20.264522 295.00075L20.144942 295.00075L20.025162 295.00075L19.905472 295.00075L19.905472 295.05682L19.905472 295.11278L19.905472 295.16884L19.905472 295.22486L19.905472 295.28114L20.018452 295.28114L20.131492 295.28114L20.244372 295.28114L20.357462 295.28114L20.470452 295.28114L20.470452 295.33305L20.470452 295.38486L20.470452 295.43672L20.470452 295.48858L20.470452 295.54065L20.357482 295.54065L20.244432 295.54065L20.131552 295.54065L20.018472 295.54065L19.905472 295.54065L19.905472 295.60229L19.905472 295.66382L19.905472 295.72546L19.905472 295.78722L19.905472 295.84894L20.029602 295.84894L20.153812 295.84894L20.277852 295.84894L20.402102 295.84894L20.526252 295.84894L20.526252 295.90054L20.526252 295.95203L20.526252 296.00362L20.526252 296.05521L20.526252 296.10702L20.329312 296.10702L20.132262 296.10702L19.935272 296.10702L19.738242 296.10702L19.541382 296.10702L19.541382 295.83421L19.541382 295.56124L19.541382 295.28836L19.541382 295.01541L19.541382 294.74271"
       id="polygon32" />
    <path
       inkscape:connector-curvature="0"
       id="path976"
       d="M 20.884742,296.22291 V 296.26651 296.35016 296.4338 296.51772 L 20.898642,296.51614 20.912272,296.51508 20.925902,296.51402 20.939522,296.51296 20.953152,296.5119 V 296.47539 296.43888 296.40237 296.36559 296.32908 H 20.964592 20.976032 20.987472 20.998642 21.010372 L 21.033532,296.36585 21.056692,296.4021 21.079842,296.43861 21.103012,296.47539 21.126162,296.5119 H 21.140332 21.154502 21.168942 21.183112 21.197282 L 21.173572,296.47539 21.149862,296.43888 21.126162,296.40237 21.102452,296.36559 21.078752,296.32908 21.096462,296.32802 21.113632,296.32379 21.129972,296.31722 21.144962,296.3077 21.158312,296.29574 21.169202,296.28182 21.177652,296.26626 21.183372,296.24965 21.186382,296.23219 21.186102,296.2224 H 21.118532 L 21.116102,296.24309 21.103562,296.26436 21.082032,296.2769 21.057782,296.28166 21.032712,296.28272 H 21.016642 21.000842 20.984762 20.968962 20.953162 V 296.25764 296.23256 296.22245 L 20.884742,296.22291"
       style="fill-rule:evenodd;stroke-width:0.13950004" />
    <path
       inkscape:connector-curvature="0"
       id="path974"
       d="M20.884742 295.69374L20.953132 295.69374L20.953132 295.67876L20.953132 295.65368L20.953132 295.6286L20.968932 295.6286L20.985012 295.6286L21.000812 295.6286L21.016612 295.6286L21.032692 295.6286L21.056942 295.62966L21.080652 295.63442L21.101902 295.64617L21.115252 295.66606L21.119062 295.69004L21.118482 295.69374L21.186072 295.69374L21.186072 295.68559L21.180882 295.64474L21.161272 295.60823L21.127752 295.58426L21.087982 295.57283L21.046562 295.57018L21.014142 295.57018L20.981992 295.57018L20.949572 295.57018L20.917152 295.57018L20.884722 295.57018L20.884722 295.65383L20.884742 295.69374"
       style="fill-rule:evenodd;stroke-width:0.13950004" />
    <path
       inkscape:connector-curvature="0"
       id="path972"
       d="M 20.685302,296.22291 20.671402,296.3131 20.688572,296.42208 20.738702,296.52016 20.816902,296.59809 20.915262,296.6482 21.024242,296.66535 21.133502,296.64794 21.231862,296.59724 21.309782,296.51878 21.359922,296.42042 21.377082,296.31116 21.362922,296.22288 H 21.326952 L 21.328862,296.22712 21.340572,296.29769 21.335392,296.36907 21.313322,296.43719 21.275992,296.49822 21.225042,296.54891 21.164012,296.58596 21.095622,296.60749 21.024242,296.61226 20.978192,296.60802 20.933242,296.59686 20.890462,296.57834 20.851502,296.55352 20.816892,296.52246 20.788012,296.48647 20.764862,296.44615 20.748782,296.40255 20.739792,296.35704 20.738152,296.31074 20.746872,296.23963 20.753422,296.22248 20.685302,296.22291"
       style="fill-rule:evenodd;stroke-width:0.13950004" />
    <path
       inkscape:connector-curvature="0"
       id="path34"
       d="M20.685302 295.69374L20.753422 295.69374L20.771942 295.64389L20.812262 295.58477L20.865122 295.53656L20.928062 295.50248L20.997272 295.48396L21.068922 295.48238L21.138672 295.49788L21.202972 295.52921L21.258282 295.57498L21.300792 295.6322L21.326942 295.69377L21.362912 295.69377L21.359622 295.67308L21.309222 295.575L21.230752 295.49708L21.132392 295.44723L21.023402 295.43061L20.914422 295.44807L20.816332 295.49819L20.738412 295.57666L20.688282 295.67474L20.685262 295.69379L20.685302 295.69374"
       style="fill-rule:evenodd;stroke-width:0.13950004" />
    <path
       inkscape:connector-curvature="0"
       id="path957-8"
       d="M 1.6334658,295.96189 1.5847057,296.09049 1.4808957,296.36323 1.3770856,296.63623 H 1.4506459 1.5239458 1.5972356 1.6707959 1.7440857 L 1.7661657,296.57793 1.7882357,296.51989 1.8103056,296.46186 1.8323753,296.4041 1.8541754,296.34606 H 1.9566155 2.0590656 2.1615053 2.2639555 2.3663952 L 2.3865552,296.4041 2.406995,296.46213 2.4274351,296.52016 2.4478652,296.5782 2.4680251,296.63623 H 2.5481352 2.6282351 2.7083451 2.7884451 2.868545 L 2.7633753,296.3635 2.6582053,296.09049 2.6086152,295.96189 H 2.2413254 L 2.2470454,295.98068 2.2797455,296.08803 H 2.2113555 2.1429755 2.0745855 2.0064653 1.9380756 L 1.9737755,295.98068 1.9800353,295.96189 H 1.6334658"
       style="fill-rule:evenodd;stroke-width:0.13950004" />
    <path
       inkscape:connector-curvature="0"
       id="path16-8"
       d="M 1.6334658,295.43272 H 1.9800353 L 2.0094654,295.34444 2.0451554,295.23737 2.0808553,295.13029 2.1165455,295.02294 2.1492356,295.13029 2.1819354,295.23737 2.2143553,295.34444 2.2413354,295.43272 H 2.6086051 L 2.5530252,295.28859 2.447585,295.01559 2.3424155,294.74258 H 2.2533155 2.1639554 2.0748554 1.9854855 1.8961254 L 1.7923158,295.01531 1.6885058,295.28832 1.6334658,295.43272"
       style="fill-rule:evenodd;stroke-width:0.13950004" />
  </g>
</svg>
