<?xml version="1.0" encoding="UTF-8" standalone="no"?>
<svg
   xmlns:dc="http://purl.org/dc/elements/1.1/"
   xmlns:cc="http://creativecommons.org/ns#"
   xmlns:rdf="http://www.w3.org/1999/02/22-rdf-syntax-ns#"
   xmlns:svg="http://www.w3.org/2000/svg"
   xmlns="http://www.w3.org/2000/svg"
   xmlns:sodipodi="http://sodipodi.sourceforge.net/DTD/sodipodi-0.dtd"
   xmlns:inkscape="http://www.inkscape.org/namespaces/inkscape"
   id="Layer_1"
   data-name="Layer 1"
   viewBox="0 0 210.05 186.28"
   version="1.1"
   sodipodi:docname="Australian-Made.svg"
   inkscape:version="0.92.2 (5c3e80d, 2017-08-06)">
  <sodipodi:namedview
     pagecolor="#ffffff"
     bordercolor="#666666"
     borderopacity="1"
     objecttolerance="10"
     gridtolerance="10"
     guidetolerance="10"
     inkscape:pageopacity="0"
     inkscape:pageshadow="2"
     inkscape:window-width="2560"
     inkscape:window-height="1017"
     id="namedview45"
     showgrid="false"
     inkscape:zoom="11.313709"
     inkscape:cx="169.81085"
     inkscape:cy="29.858112"
     inkscape:window-x="-8"
     inkscape:window-y="-8"
     inkscape:window-maximized="1"
     inkscape:current-layer="Layer_1" />
  <metadata
     id="metadata49">
    <rdf:RDF>
      <cc:Work
         rdf:about="">
        <dc:format>image/svg+xml</dc:format>
        <dc:type
           rdf:resource="http://purl.org/dc/dcmitype/StillImage" />
        <dc:title>Australian-Made-black-white-logo</dc:title>
      </cc:Work>
    </rdf:RDF>
  </metadata>
  <defs
     id="defs47" />
  <title
     id="title2">Australian-Made-black-white-logo</title>
  <path
     style="fill:#231f20"
     d="M 9.8066406 171.69922 L 8.9472656 173.96289 L 7.9042969 176.7168 L 6.859375 179.4707 L 7.6054688 179.4707 L 8.3535156 179.4707 L 9.0976562 179.4707 L 9.84375 179.4707 L 10.589844 179.4707 L 10.808594 178.88281 L 11.025391 178.29297 L 11.244141 177.70703 L 11.462891 177.11719 L 11.679688 176.5293 L 12.722656 176.5293 L 13.765625 176.5293 L 14.806641 176.5293 L 15.847656 176.5293 L 16.890625 176.5293 L 17.089844 177.11719 L 17.291016 177.70703 L 17.490234 178.29297 L 17.689453 178.88281 L 17.890625 179.4707 L 18.689453 179.4707 L 19.490234 179.4707 L 20.289062 179.4707 L 21.089844 179.4707 L 21.890625 179.4707 L 20.828125 176.71484 L 19.765625 173.96094 L 18.892578 171.69922 L 15.296875 171.69922 L 15.320312 171.77344 L 15.650391 172.85156 L 15.980469 173.92969 L 15.294922 173.92969 L 14.607422 173.92969 L 13.921875 173.92969 L 13.236328 173.92969 L 12.550781 173.92969 L 12.90625 172.85352 L 13.261719 171.77344 L 13.287109 171.69922 L 9.8066406 171.69922 z "
     id="path1136" />
  <path
     style="fill:#231f20"
     d="M 12.080078 165.69922 L 11.035156 168.45508 L 9.9921875 171.20898 L 9.8066406 171.69922 L 13.287109 171.69922 L 13.617188 170.69531 L 13.974609 169.61719 L 14.330078 168.53906 L 14.660156 169.61719 L 14.990234 170.69531 L 15.296875 171.69922 L 18.892578 171.69922 L 18.703125 171.20703 L 17.642578 168.45312 L 16.580078 165.69922 L 15.679688 165.69922 L 14.779297 165.69922 L 13.880859 165.69922 L 12.980469 165.69922 L 12.080078 165.69922 z "
     id="path8" />
  <path
     style="fill:#231f20"
     d="M 21.880859 165.84961 L 21.880859 167.55859 L 21.880859 169.26953 L 21.880859 170.98047 L 21.880859 172.68945 L 21.880859 174.40039 L 22.109375 176.22656 L 22.914062 177.87695 L 24.3125 179.06445 L 26.044922 179.68555 L 27.880859 179.85938 L 29.714844 179.68555 L 31.447266 179.06445 L 32.845703 177.87695 L 33.650391 176.22656 L 33.880859 174.40039 L 33.880859 172.69141 L 33.880859 170.98047 L 33.880859 169.26953 L 33.880859 167.56055 L 33.880859 165.84961 L 33.162109 165.84961 L 32.443359 165.84961 L 31.726562 165.84961 L 31.007812 165.84961 L 30.289062 165.84961 L 30.289062 167.4375 L 30.289062 169.02539 L 30.289062 170.61328 L 30.289062 172.20312 L 30.289062 173.78906 L 30.238281 174.72266 L 30.037109 175.63281 L 29.591797 176.44922 L 28.837891 176.98438 L 27.919922 177.14062 L 27.001953 176.98438 L 26.25 176.44922 L 25.802734 175.63477 L 25.601562 174.72266 L 25.550781 173.78906 L 25.550781 172.20312 L 25.550781 170.61523 L 25.550781 169.02539 L 25.550781 167.4375 L 25.550781 165.84961 L 24.816406 165.84961 L 24.082031 165.84961 L 23.347656 165.84961 L 22.613281 165.84961 L 21.880859 165.84961 z "
     id="path10" />
  <path
     style="fill:#231f20"
     d="M 41.619141 165.46094 L 39.970703 165.57617 L 38.365234 165.97461 L 36.927734 166.77539 L 35.931641 168.07812 L 35.619141 169.68945 L 36.027344 171.55664 L 37.355469 172.91992 L 39.126953 173.66602 L 40.960938 174.26758 L 42.130859 175.64062 L 42 176.2168 L 41.59375 176.64453 L 41.044922 176.86914 L 40.455078 176.96484 L 39.859375 176.99023 L 39.076172 176.95703 L 38.298828 176.84961 L 37.535156 176.66406 L 36.792969 176.4082 L 36.080078 176.08008 L 36.025391 176.6875 L 35.972656 177.29688 L 35.917969 177.9043 L 35.863281 178.51172 L 35.810547 179.11914 L 36.615234 179.33203 L 37.429688 179.49609 L 38.251953 179.61523 L 39.080078 179.68555 L 39.910156 179.71094 L 41.625 179.59375 L 43.289062 179.16992 L 44.751953 178.2793 L 45.693359 176.85938 L 45.970703 175.16992 L 45.574219 173.33398 L 44.283203 171.97852 L 42.544922 171.23828 L 40.728516 170.69727 L 39.460938 169.4707 L 39.625 168.87695 L 40.095703 168.48047 L 40.685547 168.28711 L 41.306641 168.20703 L 41.929688 168.18945 L 42.548828 168.21289 L 43.160156 168.28711 L 43.763672 168.41406 L 44.355469 168.5918 L 44.929688 168.82031 L 44.978516 168.25 L 45.025391 167.67969 L 45.074219 167.10938 L 45.121094 166.53906 L 45.169922 165.9707 L 44.474609 165.78125 L 43.769531 165.63672 L 43.056641 165.5332 L 42.339844 165.47461 L 41.619141 165.46094 z "
     id="path12" />
  <path
     style="fill:#231f20"
     d="M 46.939453 165.69922 L 46.939453 166.24414 L 46.939453 166.78906 L 46.939453 167.33203 L 46.939453 167.87695 L 46.939453 168.41992 L 47.617188 168.41992 L 48.296875 168.41992 L 48.974609 168.41992 L 49.652344 168.41992 L 50.330078 168.41992 L 50.330078 170.62891 L 50.330078 172.83984 L 50.330078 175.04883 L 50.330078 177.25977 L 50.330078 179.4707 L 51.064453 179.4707 L 51.798828 179.4707 L 52.53125 179.4707 L 53.265625 179.4707 L 54 179.4707 L 54 177.26172 L 54 175.05078 L 54 172.83984 L 54 170.62891 L 54 168.41992 L 54.677734 168.41992 L 55.357422 168.41992 L 56.033203 168.41992 L 56.712891 168.41992 L 57.390625 168.41992 L 57.390625 167.87695 L 57.390625 167.33203 L 57.390625 166.78906 L 57.390625 166.24414 L 57.390625 165.69922 L 55.300781 165.69922 L 53.210938 165.69922 L 51.121094 165.69922 L 49.029297 165.69922 L 46.939453 165.69922 z "
     id="polygon14" />
  <path
     style="fill:#231f20"
     d="M 58.599609 169.88477 L 58.599609 171.11328 L 58.599609 173.8457 L 58.599609 176.57812 L 58.599609 179.31055 L 59.333984 179.31055 L 60.068359 179.31055 L 60.802734 179.31055 L 61.537109 179.31055 L 62.269531 179.31055 L 62.269531 178.2207 L 62.269531 177.12891 L 62.269531 176.04102 L 62.269531 174.94922 L 62.269531 173.85938 L 62.423828 173.85938 L 62.578125 173.85938 L 62.732422 173.85938 L 62.886719 173.85938 L 63.039062 173.85938 L 63.892578 173.98828 L 64.582031 174.49414 L 65.029297 175.23438 L 65.355469 176.03711 L 65.630859 176.85938 L 65.787109 177.35742 L 65.945312 177.85547 L 66.103516 178.35352 L 66.261719 178.85156 L 66.419922 179.34961 L 67.183594 179.34961 L 67.949219 179.34961 L 68.710938 179.34961 L 69.476562 179.34961 L 70.240234 179.34961 L 69.972656 178.59961 L 69.703125 177.84961 L 69.435547 177.09961 L 69.167969 176.34961 L 68.900391 175.59961 L 68.625 174.9043 L 68.365234 174.20508 L 68.066406 173.52148 L 67.611328 172.93359 L 66.949219 172.59961 L 67.855469 172.29492 L 68.628906 171.73828 L 69.207031 170.97852 L 69.537109 170.08398 L 69.548828 169.88477 L 65.929688 169.88477 L 65.822266 170.48242 L 65.365234 171.02344 L 64.699219 171.2832 L 63.988281 171.36719 L 63.269531 171.38086 L 63.070312 171.38086 L 62.871094 171.38086 L 62.669922 171.38086 L 62.470703 171.38086 L 62.269531 171.38086 L 62.269531 170.75586 L 62.269531 170.13086 L 62.269531 169.88477 L 58.599609 169.88477 z "
     id="path1141" />
  <path
     style="fill:#231f20"
     d="M 58.599609 165.65039 L 58.599609 168.38281 L 58.599609 169.88477 L 62.269531 169.88477 L 62.269531 169.50781 L 62.269531 168.88477 L 62.269531 168.25977 L 62.470703 168.25977 L 62.669922 168.25977 L 62.869141 168.25977 L 63.070312 168.25977 L 63.269531 168.25977 L 63.964844 168.28516 L 64.654297 168.38477 L 65.304688 168.62695 L 65.794922 169.10938 L 65.949219 169.7793 L 65.929688 169.88477 L 69.548828 169.88477 L 69.589844 169.13086 L 69.373047 167.88281 L 68.679688 166.82812 L 67.628906 166.125 L 66.416016 165.75781 L 65.150391 165.65039 L 63.839844 165.65039 L 62.53125 165.65039 L 61.220703 165.65039 L 59.910156 165.65039 L 58.599609 165.65039 z "
     id="path16" />
  <path
     style="fill:#231f20"
     d="M 73.546875 171.92383 L 72.771484 173.96289 L 71.726562 176.7168 L 70.679688 179.4707 L 71.425781 179.4707 L 72.171875 179.4707 L 72.917969 179.4707 L 73.664062 179.4707 L 74.410156 179.4707 L 74.626953 178.88281 L 74.841797 178.29297 L 75.058594 177.70703 L 75.273438 177.11719 L 75.490234 176.5293 L 76.533203 176.5293 L 77.578125 176.5293 L 78.621094 176.5293 L 79.666016 176.5293 L 80.710938 176.5293 L 80.910156 177.11719 L 81.109375 177.70703 L 81.310547 178.29297 L 81.509766 178.88281 L 81.710938 179.4707 L 82.509766 179.4707 L 83.310547 179.4707 L 84.109375 179.4707 L 84.910156 179.4707 L 85.710938 179.4707 L 84.650391 176.71484 L 83.589844 173.96094 L 82.804688 171.92383 L 79.208984 171.92383 L 79.496094 172.85156 L 79.830078 173.92969 L 79.140625 173.92969 L 78.449219 173.92969 L 77.759766 173.92969 L 77.070312 173.92969 L 76.380859 173.92969 L 76.736328 172.85352 L 77.042969 171.92383 L 73.546875 171.92383 z "
     id="path1146" />
  <path
     style="fill:#231f20"
     d="M 75.910156 165.69922 L 74.863281 168.45508 L 73.818359 171.20898 L 73.546875 171.92383 L 77.042969 171.92383 L 77.091797 171.77344 L 77.447266 170.69531 L 77.804688 169.61719 L 78.160156 168.53906 L 78.494141 169.61719 L 78.828125 170.69531 L 79.162109 171.77344 L 79.208984 171.92383 L 82.804688 171.92383 L 82.529297 171.20703 L 81.470703 168.45312 L 80.410156 165.69922 L 79.509766 165.69922 L 78.609375 165.69922 L 77.710938 165.69922 L 76.810547 165.69922 L 75.910156 165.69922 z "
     id="path18" />
  <path
     style="fill:#231f20"
     d="M 87.160156 165.69922 L 87.160156 168.45508 L 87.160156 171.20703 L 87.160156 173.96094 L 87.160156 176.7168 L 87.160156 179.4707 L 89.029297 179.4707 L 90.900391 179.4707 L 92.769531 179.4707 L 94.640625 179.4707 L 96.509766 179.4707 L 96.509766 178.92578 L 96.509766 178.38086 L 96.509766 177.83789 L 96.509766 177.29297 L 96.509766 176.75 L 95.375 176.75 L 94.238281 176.75 L 93.101562 176.75 L 91.964844 176.75 L 90.830078 176.75 L 90.830078 174.54102 L 90.830078 172.33008 L 90.830078 170.12109 L 90.830078 167.91016 L 90.830078 165.69922 L 90.095703 165.69922 L 89.361328 165.69922 L 88.628906 165.69922 L 87.894531 165.69922 L 87.160156 165.69922 z "
     id="polygon20" />
  <path
     style="fill:#231f20"
     d="M 98.150391 165.69922 L 98.150391 179.4707 L 101.82031 179.4707 L 101.82031 165.69922 L 98.150391 165.69922 z "
     id="rect22" />
  <path
     style="fill:#231f20"
     d="M 106.49805 170.83398 L 106.35742 171.20898 L 105.32227 173.96289 L 104.28516 176.7168 L 103.25 179.4707 L 103.99609 179.4707 L 104.74219 179.4707 L 105.48828 179.4707 L 106.23438 179.4707 L 106.98047 179.4707 L 107.19531 178.88281 L 107.41211 178.29297 L 107.62891 177.70703 L 107.84375 177.11719 L 108.06055 176.5293 L 109.09375 176.5293 L 110.12891 176.5293 L 111.16211 176.5293 L 112.19531 176.5293 L 113.23047 176.5293 L 113.42969 177.11719 L 113.63086 177.70703 L 113.83008 178.29297 L 114.0293 178.88281 L 114.23047 179.4707 L 115.0293 179.4707 L 115.83008 179.4707 L 116.62891 179.4707 L 117.42969 179.4707 L 118.23047 179.4707 L 117.16992 176.71484 L 116.10938 173.96094 L 115.04883 171.20703 L 114.90625 170.83398 L 111.39062 170.83398 L 111.68164 171.77344 L 112.01562 172.85156 L 112.34961 173.92969 L 111.66016 173.92969 L 110.96875 173.92969 L 110.2793 173.92969 L 109.58984 173.92969 L 108.90039 173.92969 L 109.25586 172.85352 L 109.61133 171.77344 L 109.92188 170.83398 L 106.49805 170.83398 z "
     id="path1151" />
  <path
     style="fill:#231f20"
     d="M 108.42969 165.69922 L 107.39453 168.45508 L 106.49805 170.83398 L 109.92188 170.83398 L 109.96875 170.69531 L 110.32422 169.61719 L 110.67969 168.53906 L 111.01367 169.61719 L 111.34766 170.69531 L 111.39062 170.83398 L 114.90625 170.83398 L 113.99023 168.45312 L 112.92969 165.69922 L 112.0293 165.69922 L 111.12891 165.69922 L 110.23047 165.69922 L 109.33008 165.69922 L 108.42969 165.69922 z "
     id="path24" />
  <path
     style="fill:#231f20"
     d="M 119.53906 165.69922 L 119.53906 168.45508 L 119.53906 171.20703 L 119.53906 173.96094 L 119.53906 176.7168 L 119.53906 179.4707 L 120.2168 179.4707 L 120.89258 179.4707 L 121.56836 179.4707 L 122.24414 179.4707 L 122.91992 179.4707 L 122.89648 177.58984 L 122.87109 175.70703 L 122.84766 173.82422 L 122.82422 171.94141 L 122.80078 170.06055 L 122.80664 170.06055 L 122.81641 170.06055 L 122.82422 170.06055 L 122.83203 170.06055 L 122.83984 170.06055 L 123.80078 171.94141 L 124.76367 173.82422 L 125.72656 175.70508 L 126.6875 177.58789 L 127.65039 179.4707 L 128.5625 179.4707 L 129.47461 179.4707 L 130.38672 179.4707 L 131.29883 179.4707 L 132.21094 179.4707 L 132.21094 176.71484 L 132.21094 173.96289 L 132.21094 171.20898 L 132.21094 168.45312 L 132.21094 165.69922 L 131.53711 165.69922 L 130.86523 165.69922 L 130.19336 165.69922 L 129.52148 165.69922 L 128.84961 165.69922 L 128.86133 167.56836 L 128.87305 169.43945 L 128.88672 171.31055 L 128.89844 173.17969 L 128.91016 175.05078 L 128.9043 175.05078 L 128.89844 175.05078 L 128.89258 175.05078 L 128.88672 175.05078 L 128.88086 175.05078 L 127.94922 173.18164 L 127.01562 171.31055 L 126.08398 169.43945 L 125.15234 167.57031 L 124.2207 165.69922 L 123.2832 165.69922 L 122.34766 165.69922 L 121.41211 165.69922 L 120.47656 165.69922 L 119.53906 165.69922 z "
     id="polygon26" />
  <path
     style="fill:#231f20"
     d="M 140.57031 165.69922 L 140.57031 168.45508 L 140.57031 171.20703 L 140.57031 173.96094 L 140.57031 176.7168 L 140.57031 179.4707 L 141.28906 179.4707 L 142.00977 179.4707 L 142.73047 179.4707 L 143.44922 179.4707 L 144.16992 179.4707 L 144.1543 177.35742 L 144.13867 175.24219 L 144.12109 173.12891 L 144.10547 171.01367 L 144.08984 168.90039 L 144.09766 168.90039 L 144.10547 168.90039 L 144.11523 168.90039 L 144.12305 168.90039 L 144.13086 168.90039 L 144.79883 171.01367 L 145.4707 173.12695 L 146.14062 175.24219 L 146.81055 177.35547 L 147.48047 179.4707 L 148.1543 179.4707 L 148.82812 179.4707 L 149.50195 179.4707 L 150.17578 179.4707 L 150.84961 179.4707 L 151.55273 177.35742 L 152.25781 175.24219 L 152.96094 173.12891 L 153.66602 171.01367 L 154.36914 168.90039 L 154.37695 168.90039 L 154.38672 168.90039 L 154.39453 168.90039 L 154.40234 168.90039 L 154.41016 168.90039 L 154.39844 171.01367 L 154.38672 173.12695 L 154.37305 175.24219 L 154.36133 177.35547 L 154.34961 179.4707 L 155.06836 179.4707 L 155.78711 179.4707 L 156.50391 179.4707 L 157.22266 179.4707 L 157.93945 179.4707 L 157.93945 176.71484 L 157.93945 173.96289 L 157.93945 171.20898 L 157.93945 168.45312 L 157.93945 165.69922 L 156.82812 165.69922 L 155.71484 165.69922 L 154.60352 165.69922 L 153.49219 165.69922 L 152.38086 165.69922 L 151.76562 167.53125 L 151.15234 169.36328 L 150.53906 171.19531 L 149.92383 173.0293 L 149.31055 174.85938 L 149.30469 174.85938 L 149.29883 174.85938 L 149.29297 174.85938 L 149.28711 174.85938 L 149.2793 174.85938 L 148.69727 173.0293 L 148.11133 171.19727 L 147.52734 169.36523 L 146.94336 167.53125 L 146.35938 165.69922 L 145.20312 165.69922 L 144.04492 165.69922 L 142.88672 165.69922 L 141.72852 165.69922 L 140.57031 165.69922 z "
     id="polygon28" />
  <path
     style="fill:#231f20"
     d="M 162 171.20898 L 160.95898 173.96289 L 159.91992 176.7168 L 158.88086 179.4707 L 159.63086 179.4707 L 160.38086 179.4707 L 161.12891 179.4707 L 161.88086 179.4707 L 162.63086 179.4707 L 162.8457 178.88281 L 163.0625 178.29297 L 163.27734 177.70703 L 163.49414 177.11719 L 163.71094 176.5293 L 164.74414 176.5293 L 165.7793 176.5293 L 166.8125 176.5293 L 167.8457 176.5293 L 168.88086 176.5293 L 169.08008 177.11719 L 169.2793 177.70703 L 169.48047 178.29297 L 169.67969 178.88281 L 169.88086 179.4707 L 170.67969 179.4707 L 171.48047 179.4707 L 172.2793 179.4707 L 173.08008 179.4707 L 173.88086 179.4707 L 172.81836 176.71484 L 171.75586 173.96094 L 170.69336 171.20898 L 167.15234 171.20898 L 167.32812 171.77344 L 167.66406 172.85156 L 168 173.92969 L 167.31055 173.92969 L 166.61914 173.92969 L 165.92969 173.92969 L 165.24023 173.92969 L 164.55078 173.92969 L 164.9043 172.85352 L 165.25781 171.77344 L 165.44336 171.20898 L 162 171.20898 z "
     id="path1156" />
  <path
     style="fill:#231f20"
     d="M 164.08008 165.69922 L 163.03906 168.45508 L 162 171.20898 L 165.44336 171.20898 L 165.61133 170.69531 L 165.9668 169.61719 L 166.32031 168.53906 L 166.65625 169.61719 L 166.99219 170.69531 L 167.15234 171.20898 L 170.69336 171.20898 L 170.69336 171.20703 L 169.63086 168.45312 L 168.57031 165.69922 L 167.67188 165.69922 L 166.77344 165.69922 L 165.87695 165.69922 L 164.97852 165.69922 L 164.08008 165.69922 z "
     id="path30" />
  <path
     style="fill:#231f20"
     d="M 175.35938 172.22656 L 175.35938 173.96094 L 175.35938 176.7168 L 175.35938 179.4707 L 176.35938 179.4707 L 177.36133 179.4707 L 178.35938 179.4707 L 179.35938 179.4707 L 180.35938 179.4707 L 182.79883 179.28125 L 185.13477 178.57227 L 187.07422 177.10547 L 188.19922 174.95117 L 188.50977 172.5293 L 188.47461 172.22656 L 184.74805 172.22656 L 184.78906 172.58984 L 184.64062 173.94336 L 184.10547 175.19141 L 183.12305 176.12305 L 181.85742 176.61523 L 180.5 176.75 L 180.21484 176.75 L 179.93164 176.75 L 179.64844 176.75 L 179.36328 176.75 L 179.08008 176.75 L 179.08008 175.08594 L 179.08008 173.41797 L 179.08008 172.22656 L 175.35938 172.22656 z "
     id="path1161" />
  <path
     style="fill:#231f20"
     d="M 175.35938 165.69922 L 175.35938 168.45508 L 175.35938 171.20703 L 175.35938 172.22656 L 179.08008 172.22656 L 179.08008 171.75195 L 179.08008 170.08594 L 179.08008 168.41992 L 179.36523 168.41992 L 179.64844 168.41992 L 179.93164 168.41992 L 180.2168 168.41992 L 180.5 168.41992 L 181.85352 168.56055 L 183.11523 169.0625 L 184.0957 169.99609 L 184.63672 171.23828 L 184.74805 172.22656 L 188.47461 172.22656 L 188.2207 170.10352 L 187.12109 167.93555 L 185.1582 166.50391 L 182.80273 165.85938 L 180.35938 165.69922 L 179.35938 165.69922 L 178.35938 165.69922 L 177.35938 165.69922 L 176.35938 165.69922 L 175.35938 165.69922 z "
     id="path32" />
  <path
     style="fill:#231f20"
     d="M 190.0293 165.69922 L 190.0293 168.45508 L 190.0293 171.20703 L 190.0293 173.96094 L 190.0293 176.7168 L 190.0293 179.4707 L 192.01367 179.4707 L 193.99805 179.4707 L 195.98242 179.4707 L 197.9668 179.4707 L 199.94922 179.4707 L 199.94922 178.94922 L 199.94922 178.42969 L 199.94922 177.91016 L 199.94922 177.39062 L 199.94922 176.86914 L 198.70117 176.86914 L 197.45117 176.86914 L 196.20117 176.86914 L 194.94922 176.86914 L 193.69922 176.86914 L 193.69922 176.24609 L 193.69922 175.62109 L 193.69922 174.99805 L 193.69922 174.37305 L 193.69922 173.75 L 194.83984 173.75 L 195.98047 173.75 L 197.11914 173.75 L 198.25977 173.75 L 199.40039 173.75 L 199.40039 173.23047 L 199.40039 172.70898 L 199.40039 172.18945 L 199.40039 171.66992 L 199.40039 171.15039 L 198.25977 171.15039 L 197.12109 171.15039 L 195.98047 171.15039 L 194.83984 171.15039 L 193.69922 171.15039 L 193.69922 170.58008 L 193.69922 170.00977 L 193.69922 169.43945 L 193.69922 168.86914 L 193.69922 168.30078 L 194.9082 168.30078 L 196.11523 168.30078 L 197.32422 168.30078 L 198.5332 168.30078 L 199.74023 168.30078 L 199.74023 167.7793 L 199.74023 167.25977 L 199.74023 166.74023 L 199.74023 166.2207 L 199.74023 165.69922 L 197.79883 165.69922 L 195.85742 165.69922 L 193.91406 165.69922 L 191.9707 165.69922 L 190.0293 165.69922 z "
     id="polygon34" />
  <path
     style="fill:#231f20"
     d="M 150.5625 80.142578 L 150.5625 94.845703 L 150.58008 94.873047 L 153.08008 98.695312 L 155.58008 102.51758 L 158.08008 106.33984 L 158.39648 107.12891 L 158.51953 107.97266 L 158.43945 108.82031 L 158.16016 109.62305 L 157.69922 110.33984 L 157.71094 110.33984 L 157.01953 110.9707 L 156.18164 111.38672 L 155.26172 111.55664 L 154.33008 111.46484 L 153.46094 111.11914 L 152.09766 110.47461 L 150.67969 109.96484 L 150.5625 109.93555 L 150.5625 157.91016 L 156.79297 157.91016 L 170.29492 157.91016 L 183.80078 157.91016 L 185.22656 157.75977 L 186.5918 157.3125 L 187.83008 156.58789 L 188.88672 155.61719 L 189.7168 154.44531 L 190.2793 153.125 L 190.54883 151.71484 L 190.51758 150.2793 L 190.18164 148.88477 L 189.56055 147.58984 L 189.56055 147.57031 L 173.7793 120.28711 L 158 93.001953 L 150.5625 80.142578 z "
     id="path1131" />
  <path
     style="fill:#231f20"
     d="M 104.70117 7.6542969 L 103.26172 7.8144531 L 101.89062 8.2773438 L 100.64844 9.0195312 L 99.591797 10.007812 L 98.769531 11.199219 L 87.664062 30.576172 L 76.558594 49.951172 L 65.453125 69.328125 L 54.345703 88.705078 L 43.240234 108.08008 L 50.941406 107.92188 L 58.474609 106.33789 L 65.484375 103.16016 L 71.757812 98.685547 L 77.5 93.539062 L 82.179688 89.300781 L 87.162109 85.421875 L 92.650391 82.314453 L 98.644531 80.369141 L 104.91992 79.740234 L 111.03516 80.486328 L 116.78711 82.697266 L 121.9043 86.134766 L 126.27344 90.488281 L 129.81055 95.539062 L 130.23633 96.910156 L 130.21875 98.345703 L 129.76172 99.707031 L 128.91016 100.86523 L 127.74414 101.70117 L 126.37695 102.14258 L 124.94141 102.14062 L 123.57422 101.69727 L 122.41016 100.85742 L 121.56055 99.699219 L 119.11719 96.375 L 116.18945 93.46875 L 112.80664 91.111328 L 109 89.535156 L 104.91992 88.980469 L 100.0293 89.525391 L 95.410156 91.21875 L 91.238281 93.837891 L 87.433594 96.974609 L 83.800781 100.31055 L 76.298828 106.29688 L 67.871094 110.88086 L 58.712891 113.73242 L 49.181641 114.83789 L 39.589844 114.42969 L 35.765625 121.10352 L 31.941406 127.7793 L 28.117188 134.45312 L 24.292969 141.12695 L 20.470703 147.80078 L 19.910156 149.0918 L 19.630859 150.4707 L 19.642578 151.88086 L 19.945312 153.25391 L 20.525391 154.53711 L 21.357422 155.67188 L 22.408203 156.60938 L 23.630859 157.31055 L 24.970703 157.74414 L 26.369141 157.89062 L 42.263672 157.89062 L 58.158203 157.89062 L 74.050781 157.89062 L 89.945312 157.89062 L 105.83984 157.89062 L 103.74414 154.92969 L 101.64844 151.9707 L 99.552734 149.00977 L 97.457031 146.05078 L 95.359375 143.08984 L 94.109375 140.61914 L 93.478516 137.92578 L 93.583984 135.16211 L 94.384766 132.51172 L 95.730469 130.08984 L 98.041016 126.38672 L 100.35352 122.68164 L 102.66602 118.97852 L 104.97656 115.27539 L 107.28906 111.57031 L 108.23633 110.48047 L 109.47461 109.73828 L 110.88086 109.41211 L 112.32031 109.53516 L 113.65039 110.09961 L 114.73633 111.04883 L 115.47461 112.28711 L 115.79688 113.69336 L 115.67383 115.13086 L 115.10938 116.46094 L 112.77734 120.19922 L 110.44141 123.93945 L 108.10742 127.67969 L 105.77539 131.41992 L 103.43945 135.16016 L 103.08008 135.73047 L 102.78125 136.33398 L 102.6875 136.99609 L 102.875 137.64062 L 103.19922 138.23047 L 105.77344 142.19336 L 108.38672 146.13281 L 111.01367 150.0625 L 113.64453 153.98828 L 116.2793 157.91016 L 129.7832 157.91016 L 143.28906 157.91016 L 150.5625 157.91016 L 150.5625 109.93555 L 149.2168 109.5957 L 147.72656 109.36914 L 146.2207 109.28906 L 143.60352 109.45508 L 141.05664 110.07617 L 138.6582 111.13477 L 136.48438 112.59766 L 134.59961 114.41992 L 131.41211 118.41992 L 128.22461 122.41992 L 125.03516 126.41992 L 121.84766 130.41992 L 118.66016 134.41992 L 118.25977 134.78711 L 117.81055 135.08789 L 117.31836 135.31641 L 116.79883 135.46875 L 116.25977 135.53906 L 115.74219 135.51953 L 115.23828 135.4043 L 114.76367 135.19727 L 114.33594 134.9043 L 113.9707 134.53906 L 113.68555 134.17969 L 113.45703 133.7832 L 113.29102 133.35547 L 113.19141 132.9082 L 113.16016 132.44922 L 113.18164 132.07617 L 113.24414 131.70898 L 113.3457 131.34766 L 113.48438 131.00195 L 113.66016 130.66992 L 115.76562 127.09961 L 117.87109 123.52734 L 119.97852 119.95312 L 122.08398 116.38281 L 124.18945 112.81055 L 126.95312 108.94336 L 130.32227 105.5957 L 134.30859 103.01758 L 138.77734 101.41797 L 143.49023 100.81055 L 142.88867 98.640625 L 142.28906 96.470703 L 141.6875 94.300781 L 141.08789 92.130859 L 140.49023 89.960938 L 140.32617 89.160156 L 140.2832 88.347656 L 140.44531 87.550781 L 140.86523 86.857422 L 141.49023 86.339844 L 141.89453 86.099609 L 142.33203 85.931641 L 142.79297 85.835938 L 143.26367 85.820312 L 143.73242 85.880859 L 144.18164 86.019531 L 144.60156 86.228516 L 144.98242 86.505859 L 145.31055 86.841797 L 145.58008 87.230469 L 148.08008 91.050781 L 150.5625 94.845703 L 150.5625 80.142578 L 142.2207 65.71875 L 126.43945 38.433594 L 110.66016 11.150391 L 109.82812 9.9667969 L 108.76367 8.9863281 L 107.51562 8.2539062 L 106.14062 7.8027344 L 104.70117 7.6542969 z "
     id="path36" />
</svg>
