<?xml version="1.0" encoding="UTF-8" standalone="no"?>
<svg
   xmlns:dc="http://purl.org/dc/elements/1.1/"
   xmlns:cc="http://creativecommons.org/ns#"
   xmlns:rdf="http://www.w3.org/1999/02/22-rdf-syntax-ns#"
   xmlns:svg="http://www.w3.org/2000/svg"
   xmlns="http://www.w3.org/2000/svg"
   xmlns:sodipodi="http://sodipodi.sourceforge.net/DTD/sodipodi-0.dtd"
   xmlns:inkscape="http://www.inkscape.org/namespaces/inkscape"
   viewBox="0 0 75.590555 70.587495"
   version="1.1"
   id="svg36"
   sodipodi:docname="Australian_Made2.svg"
   width="20mm"
   height="18.676273mm"
   inkscape:version="0.92.2 (5c3e80d, 2017-08-06)">
  <sodipodi:namedview
     pagecolor="#ffffff"
     bordercolor="#666666"
     borderopacity="1"
     objecttolerance="10"
     gridtolerance="10"
     guidetolerance="10"
     inkscape:pageopacity="0"
     inkscape:pageshadow="2"
     inkscape:window-width="2560"
     inkscape:window-height="1017"
     id="namedview38"
     showgrid="false"
     units="mm"
     inkscape:document-units="mm"
     inkscape:zoom="4.9873642"
     inkscape:cx="47.848141"
     inkscape:cy="8.7210158"
     inkscape:window-x="-8"
     inkscape:window-y="-8"
     inkscape:window-maximized="1"
     inkscape:current-layer="svg36"
     fit-margin-top="0"
     fit-margin-left="0"
     fit-margin-right="0"
     fit-margin-bottom="0" />
  <metadata
     id="metadata42">
    <rdf:RDF>
      <cc:Work
         rdf:about="">
        <dc:format>image/svg+xml</dc:format>
        <dc:type
           rdf:resource="http://purl.org/dc/dcmitype/StillImage" />
        <dc:title>Australian_Made</dc:title>
      </cc:Work>
    </rdf:RDF>
  </metadata>
  <defs
     id="defs40" />
  <title
     id="title2">Australian_Made</title>
  <path
     style="fill:#000000;fill-opacity:1;fill-rule:evenodd;stroke:none;stroke-width:0.52724415;stroke-opacity:1"
     d="M 36.782491,46.347036 H 9.6149988 L 9.3606428,46.791896 7.1219151,50.710175 4.8831874,54.627435 2.6444597,58.544694 0.40573195,62.462994 0.40367195,62.464994 0.40161195,62.468994 0.39955195,62.472994 0.39749195,62.476994 0.39543195,62.478994 H 7.777879 15.158268 22.539687 29.921106 37.302525 C 37.302525,62.478994 37.194005,62.303194 37.009039,62.006334 36.925339,61.872134 36.825379,61.713154 36.713493,61.534694 36.622493,61.389494 36.523973,61.231214 36.417949,61.063054 36.323689,60.913454 36.224069,60.755994 36.120343,60.592454 36.023943,60.440454 35.923343,60.282694 35.820679,60.121834 35.558335,59.712134 35.302163,59.331154 35.056587,58.970554 34.781523,58.566654 34.520009,58.189255 34.279109,57.827495 34.007798,57.420095 33.762392,57.032135 33.553118,56.650475 33.321624,56.228275 33.134298,55.813395 33.004248,55.384875 32.872568,54.950955 32.800354,54.503915 32.800354,54.022495 32.798404,53.657815 32.848634,53.297415 32.936274,52.946375 33.024094,52.594655 33.149018,52.251735 33.296694,51.921755 33.446954,51.586015 33.62051,51.263735 33.801284,50.958915 33.995084,50.632135 34.197137,50.325616 34.388253,50.044476 34.619423,49.704416 34.834805,49.401896 34.998909,49.145476 35.142709,48.920796 35.331729,48.623196 35.544691,48.288716 35.715331,48.020716 35.901219,47.729076 36.090471,47.431936 36.272631,47.145916 36.457681,46.854736 36.636251,46.575176 36.688251,46.493776 36.731891,46.426576 36.782471,46.347596 Z"
     id="path940"
     inkscape:connector-curvature="0" />
  <path
     style="fill:#000000;fill-opacity:1;fill-rule:evenodd;stroke:none;stroke-width:0.52724415;stroke-opacity:1"
     d="M 63.023184,46.347036 H 47.66617 C 47.55241,46.519036 47.437414,46.690196 47.326344,46.863976 47.138924,47.157216 46.95512,47.452636 46.775416,47.750616 46.595576,48.048796 46.420188,48.349916 46.24817,48.652696 46.07623,48.955316 45.907614,49.260096 45.743582,49.567136 45.579602,49.874076 45.419706,50.182716 45.263706,50.493935 45.202326,50.596335 45.132066,50.692935 45.054662,50.781235 44.976362,50.870635 44.890562,50.951835 44.79825,51.025295 44.70539,51.099095 44.60625,51.164895 44.501674,51.220895 44.397654,51.276695 44.288426,51.323295 44.175236,51.359895 44.063496,51.396095 43.948574,51.422295 43.830262,51.438095 L 43.831316,51.442095 43.834516,51.446095 43.836516,51.450095 43.838516,51.454095 43.840516,51.458095 C 43.773156,51.459155 43.706296,51.456475 43.63971,51.450095 43.57311,51.444095 43.50617,51.434095 43.44097,51.419295 43.37557,51.405295 43.31177,51.387295 43.24841,51.365695 43.18517,51.344295 43.12261,51.319095 43.06201,51.290495 43.00171,51.262095 42.94297,51.230095 42.88593,51.194695 42.376894,50.906195 42.15461,50.486815 42.125956,49.989856 42.100876,49.554816 42.224076,49.060836 42.433858,48.541996 42.609298,48.108116 42.845496,47.657436 43.10527,47.210496 43.27543,46.917736 43.458184,46.635316 43.638694,46.351676 H 40.781073 C 40.771473,46.365676 40.759273,46.388276 40.750173,46.402076 L 40.029331,47.504956 39.308489,48.607856 38.586619,49.710736 37.865777,50.814655 37.143905,51.917535 C 37.083625,52.006535 36.970245,52.166015 36.841151,52.366515 36.751751,52.505315 36.655251,52.663195 36.563113,52.830955 36.476893,52.987955 36.394913,53.153835 36.327295,53.319055 36.255355,53.494855 36.200035,53.670095 36.172835,53.836015 36.140555,54.033015 36.147695,54.215915 36.216095,54.368395 36.366975,54.696615 36.566541,55.048455 36.818511,55.450695 37.013331,55.761695 37.239935,56.102555 37.499193,56.486635 37.709437,56.798135 37.941637,57.138795 38.196349,57.513335 38.411347,57.829475 38.642509,58.170135 38.890417,58.540014 39.105939,58.861574 39.334029,59.205014 39.575217,59.572874 39.706377,59.772874 39.833809,59.967414 39.956233,60.154694 40.089133,60.358014 40.215853,60.552314 40.336219,60.736514 40.472379,60.944914 40.600267,61.140234 40.717235,61.318354 40.862335,61.539294 40.990539,61.734434 41.100311,61.898094 41.336867,62.250814 41.484583,62.456254 41.510161,62.456254 H 47.676446 53.840673 60.006956 66.172214 72.337469 L 65.11357,49.966016 Z"
     id="path938"
     inkscape:connector-curvature="0" />
  <path
     style="fill:#000000;fill-opacity:1;fill-rule:evenodd;stroke:none;stroke-width:0.52724415;stroke-opacity:1"
     d="M 36.216115,0 C 36.216115,0 34.316995,3.285282 31.610966,7.971481 30.236972,10.350901 28.654356,13.092381 27.007878,15.94708 25.493075,18.57348 23.923719,21.296139 22.410967,23.923699 20.766635,26.779818 19.189256,29.522958 17.822294,31.906518 15.143822,36.576937 13.272567,39.866857 13.286143,39.918157 13.286143,39.918157 13.888325,40.328797 14.84419,40.799637 15.316716,41.032397 15.875856,41.279077 16.491828,41.498857 17.02931,41.690657 17.609428,41.861337 18.21361,41.982836 18.790792,42.098836 19.38933,42.170636 19.992028,42.172236 20.584295,42.173936 21.180437,42.108637 21.764271,41.952897 22.198289,41.835297 22.589489,41.717137 22.943361,41.598657 23.378525,41.453057 23.757377,41.306597 24.092589,41.159977 24.520809,40.972577 24.877547,40.785117 25.186209,40.596697 25.578643,40.357137 25.894163,40.116337 26.183028,39.875857 26.50407,39.608577 26.79195,39.340777 27.116004,39.073657 27.468178,38.783357 28.183432,38.020877 29.162164,37.095457 29.780598,36.510717 30.504088,35.861117 31.308214,35.225397 32.029144,34.655437 32.814696,34.095897 33.64683,33.604518 34.465927,33.120858 35.330037,32.702658 36.222293,32.403818 37.130495,32.099618 38.067939,31.918778 39.016069,31.918778 39.838587,31.918778 40.599401,32.058578 41.299079,32.297738 42.053793,32.555718 42.737152,32.930118 43.351416,33.370778 44.000446,33.836358 44.571842,34.376257 45.06702,34.931897 45.626824,35.560077 46.089918,36.207737 46.457214,36.791677 47.182528,37.944797 47.536418,38.847097 47.536418,38.847097 47.572158,38.922897 47.601898,39.001497 47.624978,39.080857 47.648238,39.161057 47.665098,39.242657 47.675438,39.324917 47.685838,39.407517 47.689438,39.489917 47.686838,39.573097 47.684238,39.655897 47.674838,39.738497 47.659038,39.820237 47.643438,39.901437 47.621658,39.982437 47.593138,40.061217 47.564578,40.140017 47.529218,40.215417 47.489138,40.287757 47.448738,40.360757 47.403238,40.430357 47.352178,40.495777 47.300958,40.561377 47.244178,40.622377 47.183298,40.679177 47.122718,40.735577 47.057758,40.787177 46.988678,40.833577 46.920138,40.879777 46.848318,40.920777 46.772426,40.956177 46.576106,41.058377 46.390706,41.119377 46.217378,41.146777 46.0057,41.180177 45.81113,41.164777 45.633496,41.113777 45.439636,41.058977 45.266062,40.963177 45.11243,40.847057 44.95095,40.724857 44.811768,40.579897 44.694342,40.435157 44.551342,40.258957 44.441072,40.082777 44.362756,39.949097 44.268236,39.787697 44.030022,39.284557 43.6553,38.665997 43.427644,38.290217 43.14978,37.872137 42.822214,37.462197 42.525154,37.090437 42.18709,36.725717 41.809947,36.405657 41.437283,36.089377 41.026245,35.816217 40.577307,35.624057 40.138301,35.436057 39.663271,35.325417 39.153133,35.325417 38.305601,35.325417 37.484369,35.509817 36.679615,35.834117 35.929523,36.136437 35.194217,36.560177 34.465601,37.068817 33.799186,37.534037 33.13871,38.071017 32.478138,38.650557 31.857718,39.194857 31.236328,39.776897 30.611158,40.374397 30.00557,40.953197 29.396038,41.546137 28.777132,42.132216 28.355106,42.533236 27.891778,42.893296 27.403412,43.214516 26.913136,43.536996 26.398024,43.820396 25.875229,44.068196 25.335967,44.323796 24.787955,44.540736 24.251277,44.723136 23.668597,44.921136 23.098749,45.078376 22.565537,45.197856 21.921361,45.342256 21.330653,45.432076 20.836545,45.474876 20.775065,45.482876 20.714345,45.486876 20.653245,45.492876 20.591665,45.496876 20.530205,45.500876 20.468925,45.504876 20.407145,45.506876 20.345125,45.508876 20.283565,45.510876 20.221845,45.512096 20.160825,45.512616 20.099225,45.512876 20.037665,45.513176 19.975384,45.512876 19.913866,45.512876 19.309178,45.516876 18.719622,45.474276 18.150894,45.396476 17.546656,45.313876 16.965858,45.191456 16.417784,45.045316 15.815124,44.883676 15.25141,44.694316 14.737092,44.494456 14.122713,44.255716 13.579547,44.002376 13.124467,43.769496 12.164767,43.278396 11.599373,42.875656 11.599373,42.875656 L 9.6149988,46.347036 H 36.782491 C 36.922011,46.128916 37.063685,45.907556 37.185133,45.718856 37.435337,45.330136 37.635501,45.021696 37.740181,44.868276 37.852041,44.703676 37.991041,44.495236 38.157239,44.286456 38.301039,44.105856 38.464633,43.924716 38.650501,43.771556 38.835961,43.618756 39.042815,43.494096 39.271453,43.424536 39.487275,43.358936 39.722473,43.342936 39.977879,43.399736 40.182015,43.445136 40.399679,43.536336 40.629725,43.687036 40.832027,43.818236 40.985347,43.957436 41.099303,44.099976 41.245823,44.283376 41.326781,44.472656 41.359835,44.663276 41.396135,44.872596 41.374835,45.082296 41.320695,45.284216 41.265995,45.488176 41.177975,45.684976 41.080757,45.863976 40.980337,46.048976 40.872639,46.207616 40.781093,46.346956 H 43.638714 C 43.724834,46.211556 43.808034,46.068396 43.893068,45.937096 44.188958,45.480296 44.471706,45.052316 44.694232,44.678716 44.870252,44.369616 45.061058,44.069376 45.264728,43.779716 45.469194,43.488936 45.686928,43.208836 45.917604,42.939436 46.148506,42.669756 46.39222,42.411536 46.647714,42.165036 46.903042,41.918697 47.16962,41.684177 47.447848,41.462737 47.724872,41.242257 48.01375,41.034777 48.311828,40.840757 48.560548,40.687157 48.815718,40.546777 49.07798,40.421637 49.34127,40.296037 49.610828,40.185317 49.885324,40.089017 50.160086,39.992617 50.440021,39.911217 50.723559,39.844957 51.006911,39.778757 51.294787,39.727957 51.584449,39.692557 51.872857,39.657157 52.163399,39.636957 52.455637,39.632757 52.455637,39.632757 52.335597,39.455557 52.163183,39.199237 52.076523,39.070437 51.976623,38.921977 51.871755,38.765697 51.776835,38.624297 51.677975,38.476737 51.581359,38.332157 51.479839,38.180157 51.381135,38.030997 51.291993,37.896557 51.173433,37.717757 51.072301,37.564677 51.005715,37.460977 50.925575,37.336177 50.846295,37.161857 50.788433,36.961537 50.740673,36.796137 50.707433,36.612577 50.700893,36.423997 50.694693,36.244997 50.712093,36.061957 50.763713,35.884397 50.812973,35.714997 50.893113,35.551157 51.012919,35.402457 51.118319,35.271657 51.254143,35.152357 51.426887,35.051297 51.725877,34.870697 52.003145,34.777757 52.258945,34.752657 52.575065,34.721657 52.859715,34.793657 53.116747,34.931857 53.369951,35.067857 53.596307,35.267777 53.799487,35.495157 53.998147,35.717477 54.174167,35.966457 54.331881,36.207757 54.513361,36.485417 54.669697,36.752917 54.806607,36.959497 54.926247,37.139897 55.067967,37.355457 55.220579,37.588677 55.352099,37.789677 55.492109,38.003917 55.632483,38.219937 55.770643,38.432537 55.909517,38.647597 56.042335,38.853237 56.188795,39.080037 56.327791,39.295457 56.450127,39.486557 56.630427,39.768217 56.774637,39.995637 56.852769,40.122957 56.929289,40.247757 57.065869,40.423097 57.209069,40.635777 57.317169,40.796377 57.429479,40.978297 57.521093,41.176417 57.606853,41.361817 57.674913,41.561417 57.706453,41.770597 57.736513,41.969996 57.733033,42.177517 57.679673,42.390517 57.633373,42.575516 57.549713,42.764996 57.417079,42.954836 57.278399,43.153236 57.124585,43.301276 56.961919,43.409996 56.772419,43.536596 56.570935,43.609796 56.364651,43.644776 56.150955,43.680976 55.932175,43.676576 55.718983,43.650776 55.499197,43.623176 55.284577,43.571376 55.085673,43.515976 54.851075,43.450576 54.638949,43.379176 54.464717,43.334776 54.280957,43.269176 54.094169,43.213376 53.905547,43.167976 53.716187,43.122376 53.524567,43.087176 53.331963,43.061976 53.139183,43.036776 52.945551,43.022376 52.751173,43.017776 52.557173,43.013776 52.362247,43.018176 52.168321,43.033776 51.975041,43.049776 51.782185,43.076376 51.590617,43.112976 51.293085,43.190376 50.995313,43.296776 50.694715,43.441476 50.424759,43.571476 50.153164,43.732996 49.877074,43.932676 49.636706,44.106476 49.39341,44.309516 49.145936,44.546416 48.931342,44.751836 48.713572,44.981956 48.492028,45.241516 48.297988,45.468836 48.100356,45.718876 47.899908,45.992216 47.820448,46.109616 47.744348,46.229196 47.66615,46.347496 H 63.023176 L 57.888725,37.471837 50.664863,24.980699 43.441,12.490561 Z"
     id="path4"
     inkscape:connector-curvature="0" />
  <path
     style="fill-rule:evenodd;stroke-width:0.52724415"
     d="M 5.1797634,69.235813 V 70.419013 H 5.3331993 5.6359513 L 5.2384594,69.388213 Z"
     id="path947"
     inkscape:connector-curvature="0" />
  <path
     style="fill-rule:evenodd;stroke-width:0.52724415"
     d="M 4.4805455,67.421353 H 3.1325716 L 3.1675836,67.536753 3.2921856,67.941453 3.4167876,68.347193 H 3.1552276 2.8936657 2.6321017 2.3705397 2.1089777 L 2.2459377,67.941453 2.3828977,67.536753 2.4220297,67.421353 H 1.1399598 L 0.7846879,68.356373 0.39234395,69.387193 0,70.419013 H 0.27906996 0.55916793 0.83823589 1.1173058 1.3974038 L 1.4787558,70.198653 1.5601078,69.979293 1.6414598,69.759953 1.7217818,69.541653 1.8031338,69.322313 H 2.1913597 2.5795837 2.9667796 3.3550036 3.7432275 L 3.8194315,69.541653 3.8956355,69.760993 3.9718395,69.980333 4.0470135,70.199673 4.1232175,70.419013 H 4.4259715 4.7287254 5.0304494 5.1797674 V 69.235813 L 4.8409714,68.356373 Z"
     id="path945"
     inkscape:connector-curvature="0" />
  <path
     style="fill-rule:evenodd;stroke-width:0.52724415"
     d="M 1.9617197,65.261914 1.5693758,66.292714 1.1770318,67.324553 1.1399618,67.421353 H 2.4220297 L 2.5198577,67.131973 2.6578477,66.727273 2.7948077,66.321554 2.9183796,66.727273 3.0429816,67.131973 3.1325716,67.421353 H 4.4805455 L 4.4434755,67.325553 4.0459815,66.293734 3.6484896,65.261894 H 3.3107256 2.9729596 2.6362237 2.2984577 Z"
     id="path6"
     inkscape:connector-curvature="0" />
  <path
     d="M 7.861211,70.566353 C 7.6156871,70.566353 7.3844051,70.545153 7.1703531,70.501753 6.9298952,70.452953 6.7111792,70.376553 6.5184372,70.270913 6.3105912,70.157113 6.1329512,70.009533 5.9908233,69.826833 5.8553993,69.652633 5.7522173,69.446733 5.6858673,69.207593 5.6291353,69.003113 5.5993333,68.774393 5.5993333,68.520673 5.5993333,68.520673 5.5993333,68.256413 5.5993333,67.879653 5.5993333,67.688253 5.5993333,67.467853 5.5993333,67.238273 5.5993333,67.027133 5.5993333,66.808253 5.5993333,66.597113 5.5993333,66.367554 5.5993333,66.147154 5.5993333,65.955774 5.5993333,65.579154 5.5993333,65.315034 5.5993333,65.315034 5.5993333,65.315034 5.7127673,65.315034 5.8745033,65.315034 5.9566633,65.315034 6.0512873,65.315034 6.1498352,65.315034 6.2403812,65.315034 6.3342432,65.315034 6.4247912,65.315034 6.5233732,65.315034 6.6180332,65.315034 6.7002252,65.315034 6.8619832,65.315034 6.9754411,65.315034 6.9754411,65.315034 6.9754411,65.315034 6.9754411,65.560154 6.9754411,65.909634 6.9754411,66.087234 6.9754411,66.291654 6.9754411,66.504614 6.9754411,66.700413 6.9754411,66.903513 6.9754411,67.099373 6.9754411,67.312333 6.9754411,67.516773 6.9754411,67.694293 6.9754411,68.043673 6.9754411,68.288673 6.9754411,68.288673 6.9754411,68.409273 6.9812411,68.526473 6.9946811,68.637793 7.0094211,68.759793 7.0333811,68.874873 7.0689771,68.979273 7.1087411,69.095873 7.1630371,69.199333 7.2352671,69.284753 7.3093611,69.372353 7.4023291,69.440953 7.5178451,69.485533 7.6154611,69.523133 7.7291751,69.543533 7.861211,69.543533 7.993377,69.543533 8.107375,69.523133 8.205359,69.485333 8.320721,69.440933 8.413883,69.372733 8.488363,69.285533 8.5612229,69.200333 8.6162049,69.097133 8.6565929,68.980613 8.6928769,68.876013 8.7173849,68.760733 8.7325029,68.638293 8.7462629,68.526893 8.7522629,68.409373 8.7522629,68.288613 8.7522629,68.288613 8.7522629,68.043493 8.7522629,67.694013 8.7522629,67.516413 8.7522629,67.311993 8.7522629,67.099033 8.7522629,66.903233 8.7522629,66.700133 8.7522629,66.504274 8.7522629,66.291314 8.7522629,66.086874 8.7522629,65.909354 8.7522629,65.559974 8.7522629,65.314974 8.7522629,65.314974 8.7522629,65.314974 8.8656969,65.314974 9.0274309,65.314974 9.1095909,65.314974 9.2042149,65.314974 9.3027629,65.314974 9.3933088,65.314974 9.4871708,65.314974 9.5777208,65.314974 9.6763028,65.314974 9.7709628,65.314974 9.8531528,65.314974 10.014911,65.314974 10.128371,65.314974 10.128371,65.314974 10.128371,65.314974 10.128371,65.580954 10.128371,65.960194 10.128371,66.152794 10.128371,66.374714 10.128371,66.605793 10.128371,66.818333 10.128371,67.038653 10.128371,67.251173 10.128371,67.482253 10.128371,67.704093 10.128371,67.896733 10.128371,68.275833 10.128371,68.541693 10.128371,68.541693 10.128371,68.796033 10.098429,69.025233 10.041401,69.230093 9.9747868,69.469373 9.8712188,69.675453 9.7352548,69.849533 9.5926888,70.032133 9.4145068,70.179453 9.2059629,70.293093 9.0129049,70.398293 8.7938269,70.474493 8.5528989,70.523093 8.338643,70.566293 8.107105,70.587493 7.861221,70.587493 7.861221,70.587493 7.861221,70.585913 7.861221,70.583493 7.861221,70.582433 7.861221,70.581493 7.861221,70.579493 7.861221,70.577913 7.861221,70.575493 7.861221,70.575493 7.861221,70.573913 7.861221,70.571493 7.861221,70.571493 7.861221,70.569493 7.861221,70.567493 7.861221,70.567493"
     style="fill-rule:evenodd;stroke-width:0.52724415"
     id="path8"
     inkscape:connector-curvature="0" />
  <path
     d="M 12.358605,70.513633 C 12.254443,70.513833 12.150389,70.511633 12.046581,70.505633 11.942583,70.499633 11.838829,70.489633 11.735457,70.478433 11.631883,70.466433 11.528689,70.451033 11.426017,70.432833 11.323643,70.414833 11.221787,70.393433 11.120579,70.369233 11.019373,70.345033 10.918819,70.317633 10.819051,70.287433 10.819051,70.287433 10.829051,70.194033 10.843299,70.060753 10.850519,69.993153 10.858839,69.915553 10.867499,69.834533 10.875479,69.759933 10.883759,69.682533 10.891741,69.607893 10.900441,69.526693 10.908781,69.448493 10.916037,69.380813 10.930297,69.247413 10.940317,69.153813 10.940317,69.153813 11.027659,69.198813 11.116919,69.239413 11.207765,69.275613 11.299057,69.312013 11.391949,69.343813 11.486107,69.371213 11.580449,69.398613 11.676061,69.421213 11.772605,69.439413 11.868867,69.457413 11.966053,69.470813 12.063831,69.479613 12.161609,69.487613 12.259979,69.491613 12.358605,69.491613 12.435743,69.491613 12.512225,69.489613 12.585885,69.481613 12.664547,69.473613 12.739991,69.461613 12.809583,69.443213 12.887591,69.422213 12.958243,69.393013 13.017823,69.353213 13.081969,69.310413 13.133281,69.255213 13.167125,69.184613 13.196523,69.123413 13.212743,69.050613 13.212743,68.964233 13.212743,68.704653 13.033727,68.559673 12.772549,68.449113 12.576173,68.365913 12.333347,68.302313 12.085239,68.224073 11.857107,68.152073 11.624507,68.067873 11.419443,67.944653 11.215015,67.821853 11.037951,67.660553 10.919959,67.434393 10.823341,67.249193 10.766329,67.020573 10.766329,66.734033 10.766329,66.502934 10.808519,66.302994 10.883865,66.130674 10.969707,65.934274 11.098585,65.773814 11.257145,65.643794 11.412381,65.516594 11.596067,65.418434 11.795667,65.344614 11.984883,65.274614 12.188399,65.226414 12.395539,65.195814 12.601065,65.165414 12.810159,65.152214 13.012389,65.152214 13.102691,65.151154 13.192917,65.152654 13.282931,65.156214 13.373111,65.160214 13.463081,65.168214 13.552705,65.178214 13.642503,65.188214 13.731953,65.201614 13.820921,65.217414 13.909629,65.233414 13.997855,65.252014 14.085465,65.273414 14.173075,65.294814 14.260071,65.319214 14.346315,65.346214 14.346315,65.346214 14.339355,65.433214 14.329455,65.557074 14.324455,65.619874 14.318655,65.692274 14.312615,65.767514 14.307055,65.836914 14.301315,65.908914 14.295755,65.978354 14.289715,66.053754 14.283935,66.126154 14.278895,66.189034 14.268935,66.313634 14.261955,66.400934 14.261955,66.400934 14.189511,66.368934 14.115877,66.340134 14.041259,66.314534 13.966275,66.288734 13.890299,66.266334 13.813541,66.247134 13.736633,66.227134 13.658939,66.211934 13.580673,66.199334 13.502635,66.187334 13.424027,66.177334 13.345061,66.171534 13.266095,66.165534 13.186767,66.163534 13.107291,66.163534 13.037343,66.163534 12.957733,66.165114 12.875315,66.171534 12.799363,66.177534 12.721027,66.185534 12.645679,66.202134 12.567213,66.218134 12.491983,66.242134 12.426055,66.275334 12.354023,66.311734 12.293091,66.360134 12.251169,66.423934 12.212401,66.482934 12.189887,66.555333 12.189887,66.644073 12.189887,66.880053 12.383321,67.004913 12.661287,67.103413 12.857717,67.173013 13.096357,67.229413 13.338785,67.302813 13.562635,67.370413 13.789713,67.452413 13.989761,67.572133 14.190181,67.692133 14.363471,67.850133 14.479203,68.069813 14.574717,68.251213 14.631026,68.474473 14.631026,68.753133 14.631026,68.995373 14.594399,69.205773 14.527649,69.387953 14.448605,69.603693 14.327321,69.779833 14.174603,69.922393 14.020299,70.066393 13.833905,70.176173 13.626567,70.257813 13.433639,70.333813 13.222577,70.385413 13.002361,70.417613 12.793457,70.448213 12.576317,70.461413 12.358605,70.461413 12.358605,70.461413 12.358605,70.465413 12.358605,70.471413 12.358605,70.475413 12.358605,70.477413 12.358605,70.481413 12.358605,70.485413 12.358605,70.489413 12.358605,70.491413 12.358605,70.495413 12.358605,70.499413 12.358605,70.501413 12.358605,70.507413 12.358605,70.511413 12.358605,70.511413"
     style="fill-rule:evenodd;stroke-width:0.52724415"
     id="path10"
     inkscape:connector-curvature="0" />
  <path
     id="polygon12"
     d="M 16.291846,66.279854 C 16.291846,66.279854 16.186668,66.279854 16.036708,66.279854 15.96053,66.279854 15.872794,66.279854 15.781418,66.279854 15.697462,66.279854 15.610436,66.279854 15.526478,66.279854 15.435072,66.279854 15.347304,66.279854 15.271096,66.279854 15.121112,66.279854 15.015914,66.279854 15.015914,66.279854 15.015914,66.279854 15.015914,66.196054 15.015914,66.076374 15.015914,66.015774 15.015914,65.945974 15.015914,65.873314 15.015914,65.806314 15.015914,65.736914 15.015914,65.669874 15.015914,65.597074 15.015914,65.527274 15.015914,65.466554 15.015914,65.346554 15.015914,65.262274 15.015914,65.262274 15.015914,65.262274 15.33927,65.262274 15.800302,65.262274 16.034506,65.262274 16.304236,65.262274 16.585158,65.262274 16.843534,65.262274 17.111376,65.262274 17.369744,65.262274 17.65065,65.262274 17.920358,65.262274 18.154528,65.262274 18.615398,65.262274 18.938612,65.262274 18.938612,65.262274 18.938612,65.262274 18.938612,65.346074 18.938612,65.465754 18.938612,65.526354 18.938612,65.596154 18.938612,65.668834 18.938612,65.735834 18.938612,65.805234 18.938612,65.872274 18.938612,65.945074 18.938612,66.014874 18.938612,66.075594 18.938612,66.195594 18.938612,66.279854 18.938612,66.279854 18.938612,66.279854 18.833434,66.279854 18.683474,66.279854 18.607296,66.279854 18.51956,66.279854 18.428184,66.279854 18.344228,66.279854 18.257202,66.279854 18.173244,66.279854 18.081838,66.279854 17.994068,66.279854 17.917862,66.279854 17.767878,66.279854 17.66268,66.279854 17.66268,66.279854 17.66268,66.279854 17.66268,66.621033 17.66268,67.107473 17.66268,67.354593 17.66268,67.639173 17.66268,67.935573 17.66268,68.208193 17.66268,68.490793 17.66268,68.763393 17.66268,69.059793 17.66268,69.344353 17.66268,69.591433 17.66268,70.077713 17.66268,70.418733 17.66268,70.418733 17.66268,70.418733 17.54968,70.418733 17.388566,70.418733 17.30672,70.418733 17.21246,70.418733 17.114288,70.418733 17.024088,70.418733 16.930588,70.418733 16.840384,70.418733 16.742178,70.418733 16.647882,70.418733 16.566008,70.418733 16.404868,70.418733 16.291846,70.418733 16.291846,70.418733 16.291846,70.418733 16.291846,70.077553 16.291846,69.591113 16.291846,69.344013 16.291846,69.059413 16.291846,68.763013 16.291846,68.490393 16.291846,68.207793 16.291846,67.935193 16.291846,67.638793 16.291846,67.354233 16.291846,67.107153 16.291846,66.620873 16.291846,66.279854 16.291846,66.279854"
     style="fill-rule:evenodd;stroke-width:0.52724415"
     inkscape:connector-curvature="0" />
  <path
     style="fill-rule:evenodd;stroke-width:0.52724415"
     d="M 19.39167,66.918813 V 67.306013 68.337833 69.370713 70.402533 H 19.66765 19.9426 20.217549 20.492499 20.768479 V 69.994753 69.585933 69.179173 68.770353 68.362553 H 20.826139 20.883799 20.942499 21.000159 21.057819 C 21.180919,68.362553 21.284739,68.376553 21.374989,68.407753 21.474889,68.443553 21.558709,68.502553 21.634493,68.593153 21.693713,68.663953 21.747613,68.754153 21.801313,68.867073 21.842013,68.952673 21.882253,69.050873 21.923853,69.164673 21.957353,69.256273 21.991713,69.357673 22.027853,69.469493 L 22.086553,69.656893 22.144213,69.843293 22.201873,70.029693 22.260573,70.216093 22.318233,70.402493 H 22.604509 22.891817 23.178093 23.465401 23.752707 L 23.652827,70.122393 23.553967,69.841253 23.455107,69.561153 23.356247,69.281053 23.256367,68.999933 C 23.217127,68.906533 23.183247,68.818333 23.152367,68.735273 23.116527,68.638873 23.085387,68.550673 23.054547,68.468573 23.017867,68.370973 22.982347,68.282773 22.942307,68.205973 22.895147,68.115573 22.841307,68.040373 22.772387,67.979433 22.706407,67.921033 22.626707,67.876033 22.524211,67.845633 22.645071,67.823633 22.757845,67.784033 22.861977,67.730233 22.969417,67.674633 23.067597,67.604233 23.152373,67.521193 23.237933,67.437393 23.310173,67.340993 23.367595,67.235953 23.421355,67.137553 23.459175,67.030153 23.483955,66.918773 H 22.114355 C 22.106155,66.962373 22.106155,67.014773 22.090675,67.050573 22.051915,67.139973 21.991875,67.205173 21.917675,67.253433 21.845135,67.300633 21.758315,67.331633 21.665381,67.351233 21.579981,67.369233 21.489481,67.377633 21.397639,67.382033 21.306319,67.386033 21.214339,67.388033 21.126809,67.388033 H 21.054729 20.983669 20.910549 20.839489 20.768429 V 67.153233 66.919493 Z"
     id="path952"
     inkscape:connector-curvature="0" />
  <path
     style="fill-rule:evenodd;stroke-width:0.52724415"
     d="M 19.39167,66.918813 H 20.768479 V 66.917773 66.684013 66.450254 66.216494 H 20.839539 20.911619 20.983699 21.054759 21.126839 C 21.216099,66.216494 21.303719,66.218494 21.388403,66.226494 21.479263,66.234494 21.566403,66.246494 21.646877,66.264694 21.738237,66.285694 21.821277,66.315294 21.891961,66.355294 21.971461,66.400294 22.035461,66.458694 22.078341,66.534494 22.117361,66.603493 22.139101,66.686693 22.139101,66.786773 22.139101,66.839773 22.122701,66.875573 22.114381,66.919573 H 23.483981 C 23.485457,66.913573 23.489781,66.907573 23.491181,66.901573 23.514701,66.786773 23.521341,66.667493 23.509781,66.545254 23.509781,66.372054 23.481061,66.216534 23.428421,66.078774 23.369921,65.925774 23.282321,65.793594 23.169947,65.683334 23.060047,65.575534 22.926959,65.488534 22.776573,65.420754 22.638513,65.358354 22.485763,65.312154 22.322443,65.282754 22.172503,65.255754 22.013145,65.242554 21.848747,65.242554 H 21.357513 20.866311 20.375109 19.882876 19.391674 V 66.274374 Z"
     id="path14"
     inkscape:connector-curvature="0" />
  <path
     style="fill-rule:evenodd;stroke-width:0.52724415"
     d="M 24.889633,67.870333 24.705313,68.356373 24.312969,69.387193 23.920625,70.419013 H 24.198663 24.475673 24.752683 25.030721 25.307729 L 25.391149,70.198653 25.474569,69.979293 25.557989,69.759953 25.641409,69.541653 25.723789,69.322313 H 26.110982 26.498178 26.885372 27.272568 27.659762 L 27.735962,69.541653 27.813202,69.760993 27.890442,69.980333 27.967682,70.199673 28.043882,70.419013 H 28.346636 28.64939 28.952142 29.254896 29.55765 L 29.160158,69.388213 28.762664,68.356373 28.575244,67.870333 H 27.187058 L 27.208678,67.941333 27.332258,68.347073 H 27.073786 26.815312 26.556838 26.299396 26.040922 L 26.175822,67.941333 26.199502,67.870333 Z"
     id="path957"
     inkscape:connector-curvature="0" />
  <path
     style="fill-rule:evenodd;stroke-width:0.52724415"
     d="M 24.889633,67.870333 H 26.199506 L 26.310726,67.536673 26.445626,67.131973 26.580526,66.727273 26.715426,66.321554 26.839006,66.727273 26.962586,67.131973 27.085126,67.536673 27.187066,67.870333 H 28.575202 L 28.365128,67.325573 27.966606,66.293754 27.569112,65.261914 H 27.232376 26.89461 26.557874 26.220108 25.882343 L 25.489999,66.292714 25.097655,67.324553 Z"
     id="path16"
     inkscape:connector-curvature="0" />
  <path
     id="polygon18"
     d="M 30.089826,65.262274 C 30.089826,65.262274 30.203686,65.262274 30.366048,65.262274 30.448528,65.262274 30.543508,65.262274 30.642436,65.262274 30.733336,65.262274 30.827556,65.262274 30.918446,65.262274 31.017406,65.262274 31.112426,65.262274 31.194934,65.262274 31.357314,65.262274 31.471206,65.262274 31.471206,65.262274 31.471206,65.262274 31.471206,65.603454 31.471206,66.089894 31.471206,66.337014 31.471206,66.621593 31.471206,66.917993 31.471206,67.190613 31.471206,67.473213 31.471206,67.745813 31.471206,68.042213 31.471206,68.326773 31.471206,68.573853 31.471206,69.060133 31.471206,69.401153 31.471206,69.401153 31.471206,69.401153 31.646346,69.401153 31.896084,69.401153 32.022944,69.401153 32.169048,69.401153 32.321212,69.401153 32.461032,69.401153 32.605948,69.401153 32.745764,69.401153 32.897984,69.401153 33.044142,69.401153 33.171048,69.401153 33.420814,69.401153 33.596,69.401153 33.596,69.401153 33.596,69.401153 33.596,69.484953 33.596,69.604633 33.596,69.665233 33.596,69.735033 33.596,69.807693 33.596,69.874693 33.596,69.944093 33.596,70.011133 33.596,70.083933 33.596,70.153733 33.596,70.214473 33.596,70.334473 33.596,70.418733 33.596,70.418733 33.596,70.418733 33.30698,70.418733 32.8949,70.418733 32.685566,70.418733 32.444476,70.418733 32.193384,70.418733 31.962442,70.418733 31.72304,70.418733 31.492106,70.418733 31.241028,70.418733 30.999958,70.418733 30.790654,70.418733 30.37872,70.418733 30.089826,70.418733 30.089826,70.418733 30.089826,70.418733 30.089826,69.993673 30.089826,69.387633 30.089826,69.079773 30.089826,68.725213 30.089826,68.355933 30.089826,68.016293 30.089826,67.664213 30.089826,67.324573 30.089826,66.955333 30.089826,66.600793 30.089826,66.292974 30.089826,65.687154 30.089826,65.262274 30.089826,65.262274"
     style="fill-rule:evenodd;stroke-width:0.52724415"
     inkscape:connector-curvature="0" />
  <path
     id="polygon20"
     d="M 34.212875,65.262274 C 34.212875,65.262274 34.325875,65.262274 34.486989,65.262274 34.568829,65.262274 34.663089,65.262274 34.761267,65.262274 34.851467,65.262274 34.944967,65.262274 35.035171,65.262274 35.133371,65.262274 35.227671,65.262274 35.309547,65.262274 35.470687,65.262274 35.583709,65.262274 35.583709,65.262274 35.583709,65.262274 35.583709,65.687334 35.583709,66.293374 35.583709,66.601233 35.583709,66.955793 35.583709,67.325073 35.583709,67.664713 35.583709,68.016793 35.583709,68.356433 35.583709,68.725693 35.583709,69.080213 35.583709,69.388033 35.583709,69.993853 35.583709,70.418733 35.583709,70.418733 35.583709,70.418733 35.470709,70.418733 35.309595,70.418733 35.227755,70.418733 35.133495,70.418733 35.035319,70.418733 34.945119,70.418733 34.851619,70.418733 34.761415,70.418733 34.663215,70.418733 34.568915,70.418733 34.487037,70.418733 34.325897,70.418733 34.212875,70.418733 34.212875,70.418733 34.212875,70.418733 34.212875,69.993673 34.212875,69.387633 34.212875,69.079773 34.212875,68.725213 34.212875,68.355933 34.212875,68.016293 34.212875,67.664213 34.212875,67.324573 34.212875,66.955333 34.212875,66.600793 34.212875,66.292974 34.212875,65.687154 34.212875,65.262274 34.212875,65.262274"
     style="fill-rule:evenodd;stroke-width:0.52724415"
     inkscape:connector-curvature="0" />
  <path
     d="M 36.110955,70.418733 C 36.110955,70.418733 36.272195,69.993673 36.502095,69.387633 36.618875,69.079773 36.753383,68.725213 36.893467,68.355933 37.022307,68.016293 37.155869,67.664213 37.284705,67.324573 37.424785,66.955333 37.559273,66.600793 37.676043,66.292974 37.905859,65.687154 38.067031,65.262274 38.067031,65.262274 38.067031,65.262274 38.205671,65.262274 38.403347,65.262274 38.503767,65.262274 38.619417,65.262274 38.739865,65.262274 38.850525,65.262274 38.965251,65.262274 39.075923,65.262274 39.196403,65.262274 39.312109,65.262274 39.412563,65.262274 39.610263,65.262274 39.748939,65.262274 39.748939,65.262274 39.748939,65.262274 39.913659,65.687334 40.148513,66.293374 40.267813,66.601233 40.405223,66.955793 40.548325,67.325073 40.679945,67.664713 40.816385,68.016793 40.948001,68.356433 41.091101,68.725693 41.228489,69.080213 41.347775,69.388033 41.582547,69.993853 41.747195,70.418733 41.747195,70.418733 41.747195,70.418733 41.622455,70.418733 41.444615,70.418733 41.354275,70.418733 41.250215,70.418733 41.141855,70.418733 41.042295,70.418733 40.939079,70.418733 40.839507,70.418733 40.731107,70.418733 40.627015,70.418733 40.536637,70.418733 40.358757,70.418733 40.234005,70.418733 40.234005,70.418733 40.234005,70.418733 40.202265,70.328333 40.157045,70.199433 40.134125,70.134033 40.107725,70.058833 40.080225,69.980573 40.054885,69.908373 40.028625,69.833573 40.003265,69.761333 39.975665,69.682733 39.949165,69.607133 39.926165,69.541633 39.880885,69.412633 39.849105,69.322053 39.849105,69.322053 39.849105,69.322053 39.689605,69.322053 39.462183,69.322053 39.346663,69.322053 39.213603,69.322053 39.075031,69.322053 38.947711,69.322053 38.815729,69.322053 38.688403,69.322053 38.549783,69.322053 38.416679,69.322053 38.301111,69.322053 38.073655,69.322053 37.914119,69.322053 37.914119,69.322053 37.914119,69.322053 37.880659,69.412453 37.832939,69.541353 37.808759,69.606753 37.780919,69.681953 37.751919,69.760213 37.725199,69.832413 37.697479,69.907213 37.670759,69.979473 37.641659,70.058073 37.613699,70.133673 37.589419,70.199153 37.541659,70.328153 37.508139,70.418733 37.508139,70.418733 37.508139,70.418733 37.392959,70.418733 37.228753,70.418733 37.145333,70.418733 37.049253,70.418733 36.949203,70.418733 36.857263,70.418733 36.761963,70.418733 36.670031,70.418733 36.569931,70.418733 36.473831,70.418733 36.390377,70.418733 36.226137,70.418733 36.110943,70.418733 36.110943,70.418733 M 39.543303,68.346653 C 39.543303,68.346653 39.492023,68.179853 39.418903,67.941813 39.381763,67.821013 39.338983,67.681713 39.294423,67.536733 39.253483,67.403533 39.211043,67.265413 39.170103,67.132193 39.125543,66.987193 39.082743,66.847873 39.045583,66.726953 38.972443,66.488974 38.921163,66.322034 38.921163,66.322034 38.921163,66.322034 38.865523,66.488834 38.786223,66.726893 38.745923,66.847693 38.699523,66.986973 38.651203,67.131973 38.606803,67.265173 38.560763,67.403293 38.516363,67.536513 38.468023,67.681513 38.421603,67.820813 38.381283,67.941733 38.301963,68.179733 38.246303,68.346653 38.246303,68.346653 38.246303,68.346653 38.353223,68.346653 38.505657,68.346653 38.583097,68.346653 38.672277,68.346653 38.765165,68.346653 38.850505,68.346653 38.938985,68.346653 39.024321,68.346653 39.117241,68.346653 39.206461,68.346653 39.283925,68.346653 39.436385,68.346653 39.543325,68.346653 39.543325,68.346653"
     style="fill-rule:evenodd;stroke-width:0.52724415"
     id="path22"
     inkscape:connector-curvature="0" />
  <path
     id="polygon24"
     d="M 42.232258,65.262274 C 42.232258,65.262274 42.376558,65.262274 42.582282,65.262274 42.686782,65.262274 42.807156,65.262274 42.932512,65.262274 43.047692,65.262274 43.167084,65.262274 43.282266,65.262274 43.407666,65.262274 43.528078,65.262274 43.632626,65.262274 43.838388,65.262274 43.98271,65.262274 43.98271,65.262274 43.98271,65.262274 44.12743,65.551294 44.333786,65.963374 44.438606,66.172714 44.559338,66.413814 44.685072,66.664893 44.800712,66.895833 44.920598,67.135233 45.036238,67.366173 45.161958,67.617253 45.282682,67.858313 45.387492,68.067633 45.59377,68.479553 45.738432,68.768453 45.738432,68.768453 45.738432,68.768453 45.737114,68.479433 45.735232,68.067353 45.734282,67.858013 45.733232,67.616933 45.732032,67.365833 45.730978,67.134893 45.729832,66.895493 45.728832,66.664553 45.727726,66.413474 45.726632,66.172414 45.725632,65.963114 45.723788,65.551174 45.722432,65.262274 45.722432,65.262274 45.722432,65.262274 45.825872,65.262274 45.973352,65.262274 46.048272,65.262274 46.134552,65.262274 46.22442,65.262274 46.30698,65.262274 46.39258,65.262274 46.475148,65.262274 46.565048,65.262274 46.651368,65.262274 46.726308,65.262274 46.873808,65.262274 46.977272,65.262274 46.977272,65.262274 46.977272,65.262274 46.977272,65.687334 46.977272,66.293374 46.977272,66.601233 46.977272,66.955793 46.977272,67.325073 46.977272,67.664713 46.977272,68.016793 46.977272,68.356433 46.977272,68.725693 46.977272,69.080213 46.977272,69.388033 46.977272,69.993853 46.977272,70.418733 46.977272,70.418733 46.977272,70.418733 46.836452,70.418733 46.635684,70.418733 46.533684,70.418733 46.41623,70.418733 46.293892,70.418733 46.181492,70.418733 46.064974,70.418733 45.952566,70.418733 45.830186,70.418733 45.71268,70.418733 45.61065,70.418733 45.409846,70.418733 45.269002,70.418733 45.269002,70.418733 45.269002,70.418733 45.119502,70.127973 44.906328,69.713413 44.798048,69.502813 44.673326,69.260273 44.543438,69.007673 44.423978,68.775353 44.300132,68.534493 44.180672,68.302173 44.050792,68.049593 43.926086,67.807073 43.817814,67.596513 43.604724,67.182093 43.455282,66.891473 43.455282,66.891473 43.455282,66.891473 43.458682,67.182233 43.463682,67.596773 43.466282,67.807373 43.469082,68.049913 43.472082,68.302513 43.474882,68.534853 43.477682,68.775693 43.480482,69.008013 43.483482,69.260613 43.486482,69.503113 43.488882,69.713693 43.493882,70.128093 43.497282,70.418733 43.497282,70.418733 43.497282,70.418733 43.392982,70.418733 43.244254,70.418733 43.168714,70.418733 43.081694,70.418733 42.991074,70.418733 42.907814,70.418733 42.821494,70.418733 42.73824,70.418733 42.64758,70.418733 42.56054,70.418733 42.484968,70.418733 42.336228,70.418733 42.231896,70.418733 42.231896,70.418733 42.231896,70.418733 42.231896,69.993673 42.231896,69.387633 42.231896,69.079773 42.231896,68.725213 42.231896,68.355933 42.231896,68.016293 42.231896,67.664213 42.231896,67.324573 42.231896,66.955333 42.231896,66.600793 42.231896,66.292974 42.231896,65.687154 42.231896,65.262274 42.231896,65.262274"
     style="fill-rule:evenodd;stroke-width:0.52724415"
     inkscape:connector-curvature="0" />
  <path
     id="polygon26"
     d="M 50.11456,65.262274 C 50.11456,65.262274 50.293179,65.262274 50.547871,65.262274 50.677251,65.262274 50.826253,65.262274 50.981439,65.262274 51.124019,65.262274 51.271827,65.262274 51.414419,65.262274 51.569659,65.262274 51.718719,65.262274 51.848145,65.262274 52.102869,65.262274 52.281533,65.262274 52.281533,65.262274 52.281533,65.262274 52.372373,65.545214 52.501879,65.948614 52.567659,66.153554 52.643439,66.389574 52.722355,66.635373 52.794935,66.861453 52.870175,67.095813 52.942755,67.321873 53.021675,67.567673 53.097435,67.803673 53.163211,68.008573 53.292671,68.411833 53.383473,68.694633 53.383473,68.694633 53.383473,68.694633 53.478653,68.411713 53.614363,68.008293 53.683303,67.803373 53.762703,67.567353 53.845387,67.321553 53.921447,67.095473 54.000287,66.861113 54.076335,66.635033 54.159015,66.389234 54.238415,66.153254 54.307337,65.948354 54.442997,65.545094 54.538137,65.262274 54.538137,65.262274 54.538137,65.262274 54.709817,65.262274 54.954581,65.262274 55.078921,65.262274 55.222127,65.262274 55.371273,65.262274 55.508313,65.262274 55.650355,65.262274 55.787395,65.262274 55.936595,65.262274 56.079847,65.262274 56.204235,65.262274 56.449045,65.262274 56.620753,65.262274 56.620753,65.262274 56.620753,65.262274 56.620753,65.687334 56.620753,66.293374 56.620753,66.601233 56.620753,66.955793 56.620753,67.325073 56.620753,67.664713 56.620753,68.016793 56.620753,68.356433 56.620753,68.725693 56.620753,69.080213 56.620753,69.388033 56.620753,69.993853 56.620753,70.418733 56.620753,70.418733 56.620753,70.418733 56.509933,70.418733 56.351911,70.418733 56.271631,70.418733 56.179191,70.418733 56.082905,70.418733 55.994445,70.418733 55.902745,70.418733 55.814269,70.418733 55.717949,70.418733 55.625469,70.418733 55.545169,70.418733 55.387129,70.418733 55.276279,70.418733 55.276279,70.418733 55.276279,70.418733 55.277335,70.092333 55.279479,69.626953 55.280533,69.390553 55.281679,69.118293 55.282679,68.834713 55.283733,68.573913 55.284879,68.303553 55.285879,68.042753 55.286933,67.759193 55.288079,67.486953 55.289079,67.250593 55.291279,66.785373 55.292279,66.459134 55.292279,66.459134 55.292279,66.459134 55.182759,66.785513 55.026601,67.250893 54.947281,67.487293 54.855901,67.759573 54.760759,68.043133 54.673239,68.303933 54.582519,68.574293 54.495013,68.835093 54.399873,69.118653 54.308513,69.390893 54.229201,69.627273 54.073101,70.092473 53.963623,70.418733 53.963623,70.418733 53.963623,70.418733 53.859323,70.418733 53.710595,70.418733 53.635055,70.418733 53.548035,70.418733 53.457417,70.418733 53.374157,70.418733 53.287837,70.418733 53.204581,70.418733 53.113941,70.418733 53.026901,70.418733 52.951309,70.418733 52.802569,70.418733 52.698237,70.418733 52.698237,70.418733 52.698237,70.418733 52.594357,70.092333 52.446263,69.626953 52.371023,69.390553 52.284383,69.118293 52.194139,68.834713 52.111139,68.573913 52.025099,68.303553 51.942101,68.042753 51.851861,67.759193 51.765221,67.486953 51.690001,67.250593 51.541941,66.785373 51.438123,66.459134 51.438123,66.459134 51.438123,66.459134 51.440323,66.785513 51.443323,67.250893 51.444905,67.487293 51.446723,67.759573 51.448523,68.043133 51.450263,68.303933 51.452123,68.574293 51.453723,68.835093 51.455621,69.118653 51.457323,69.390893 51.458923,69.627273 51.462123,70.092473 51.464123,70.418733 51.464123,70.418733 51.464123,70.418733 51.352863,70.418733 51.194225,70.418733 51.113645,70.418733 51.020825,70.418733 50.924167,70.418733 50.835347,70.418733 50.743287,70.418733 50.654477,70.418733 50.557777,70.418733 50.464937,70.418733 50.384321,70.418733 50.225661,70.418733 50.114378,70.418733 50.114378,70.418733 50.114378,70.418733 50.114378,69.993673 50.114378,69.387633 50.114378,69.079773 50.114378,68.725213 50.114378,68.355933 50.114378,68.016293 50.114378,67.664213 50.114378,67.324573 50.114378,66.955333 50.114378,66.600793 50.114378,66.292974 50.114378,65.687154 50.114378,65.262274 50.114378,65.262274"
     style="fill-rule:evenodd;stroke-width:0.52724415"
     inkscape:connector-curvature="0" />
  <path
     style="fill-rule:evenodd;stroke-width:0.52724415"
     d="M 57.961845,67.837373 57.764125,68.356373 57.371781,69.387193 56.979439,70.419013 H 57.258509 57.538607 57.817677 58.096743 58.37684 L 58.45922,70.198653 58.5416,69.979293 58.62296,69.759953 58.70534,69.541653 58.78772,69.322313 H 59.175946 59.56417 59.951364 60.33959 60.727814 L 60.805054,69.541653 60.882294,69.760993 60.959534,69.980333 61.035734,70.199673 61.112974,70.419013 H 61.41573 61.718478 62.021232 62.323986 62.625712 L 62.228218,69.388213 61.828666,68.356373 61.62786,67.837373 H 60.243844 L 60.275804,67.941373 60.401444,68.347113 H 60.141938 59.882434 59.62293 59.363432 59.103926 L 59.237806,67.941373 59.271766,67.837373 Z"
     id="path962"
     inkscape:connector-curvature="0" />
  <path
     style="fill-rule:evenodd;stroke-width:0.52724415"
     d="M 57.961845,67.837373 H 59.27172 L 59.3716,67.536673 59.50548,67.131973 59.63934,66.727273 59.77322,66.321554 59.89886,66.727273 60.0245,67.131973 60.15014,67.536673 60.24386,67.837373 H 61.627876 L 61.430156,67.325573 61.031634,66.293754 60.63311,65.261914 H 60.294314 59.955518 59.617754 59.278958 58.94016 L 58.54885,66.292714 58.156503,67.324553 Z"
     id="path28"
     inkscape:connector-curvature="0" />
  <path
     style="fill-rule:evenodd;stroke-width:0.52724415"
     d="M 63.152938,68.230753 V 68.356353 69.387173 70.418993 H 63.528806 63.904672 64.279512 64.65538 65.030212 C 65.353856,70.418993 65.661646,70.398593 65.948772,70.353193 66.27164,70.301993 66.568479,70.218793 66.831289,70.096773 67.118489,69.963373 67.365335,69.783513 67.562429,69.547913 67.746869,69.327413 67.888155,69.057873 67.977427,68.732333 68.017447,68.586333 68.019547,68.400033 68.038187,68.230833 H 66.602685 C 66.597485,68.261233 66.599085,68.298433 66.592485,68.327633 66.552465,68.508033 66.488925,68.666373 66.403005,68.801313 66.309686,68.947913 66.190332,69.067833 66.044644,69.160713 65.908964,69.247313 65.750542,69.310313 65.570946,69.350113 65.416966,69.384313 65.247482,69.401713 65.06224,69.401713 L 64.95618,69.391713 64.85114,69.383713 64.7461,69.375713 64.64004,69.367713 64.535,69.359713 V 68.735673 68.231093 Z"
     id="path967"
     inkscape:connector-curvature="0" />
  <path
     style="fill-rule:evenodd;stroke-width:0.52724415"
     d="M 63.152938,68.230753 H 64.534894 V 68.110353 67.486313 66.862273 66.238234 H 64.639934 64.744974 64.851034 64.956074 65.062134 C 65.147854,66.228234 65.233854,66.226234 65.318548,66.232234 65.404568,66.238234 65.488908,66.250234 65.571874,66.271434 65.655174,66.292434 65.736694,66.321434 65.814896,66.356834 65.892496,66.392034 65.966736,66.433634 66.03733,66.482434 66.10715,66.530834 66.17295,66.586233 66.23401,66.647233 66.29503,66.708233 66.350429,66.774233 66.398769,66.844033 66.447849,66.914833 66.490109,66.989633 66.525429,67.067473 66.560909,67.145673 66.588989,67.227273 66.609869,67.310513 66.630589,67.393113 66.644349,67.478113 66.650049,67.563833 66.655649,67.648633 66.653649,67.734433 66.643849,67.820253 66.643849,67.970653 66.625049,68.102173 66.602669,68.231133 H 68.038171 C 68.053371,68.092533 68.088631,67.975373 68.088631,67.820253 68.088631,67.475773 68.051451,67.173353 67.980511,66.909933 67.892471,66.583093 67.752351,66.315094 67.567567,66.097434 67.370247,65.865014 67.121603,65.690194 66.830253,65.561954 66.568207,65.446554 66.271876,65.369154 65.946704,65.322014 65.661882,65.280614 65.354656,65.262214 65.030206,65.262214 H 64.655372 64.279504 63.904666 63.528798 63.152932 V 66.293014 67.324853 Z"
     id="path30"
     inkscape:connector-curvature="0" />
  <path
     id="polygon32"
     d="M 68.652463,65.262274 C 68.652463,65.262274 68.952349,65.262274 69.379919,65.262274 69.597127,65.262274 69.847279,65.262274 70.107811,65.262274 70.347433,65.262274 70.595839,65.262274 70.835451,65.262274 71.095973,65.262274 71.346103,65.262274 71.563273,65.262274 71.990695,65.262274 72.290449,65.262274 72.290449,65.262274 72.290449,65.262274 72.290449,65.342674 72.290449,65.457274 72.290449,65.515274 72.290449,65.582274 72.290449,65.651874 72.290449,65.716074 72.290449,65.782674 72.290449,65.846874 72.290449,65.916674 72.290449,65.983674 72.290449,66.041874 72.290449,66.156874 72.290449,66.237674 72.290449,66.237674 72.290449,66.237674 72.103989,66.237674 71.838163,66.237674 71.703123,66.237674 71.547583,66.237674 71.385603,66.237674 71.236763,66.237674 71.082495,66.237674 70.933659,66.237674 70.771619,66.237674 70.616033,66.237674 70.480941,66.237674 70.215057,66.237674 70.028571,66.237674 70.028571,66.237674 70.028571,66.237674 70.028571,66.325074 70.028571,66.449594 70.028571,66.512794 70.028571,66.585393 70.028571,66.661093 70.028571,66.730893 70.028571,66.803093 70.028571,66.872973 70.028571,66.948773 70.028571,67.021573 70.028571,67.084713 70.028571,67.209713 70.028571,67.297433 70.028571,67.297433 70.028571,67.297433 70.204591,67.297433 70.455555,67.297433 70.583055,67.297433 70.729875,67.297433 70.882797,67.297433 71.023297,67.297433 71.168947,67.297433 71.309453,67.297433 71.462433,67.297433 71.609313,67.297433 71.736849,67.297433 71.987853,67.297433 72.163911,67.297433 72.163911,67.297433 72.163911,67.297433 72.163911,67.378233 72.163911,67.493633 72.163911,67.552033 72.163911,67.619233 72.163911,67.689433 72.163911,67.754033 72.163911,67.820833 72.163911,67.885433 72.163911,67.955433 72.163911,68.022833 72.163911,68.081433 72.163911,68.197033 72.163911,68.278233 72.163911,68.278233 72.163911,68.278233 71.987891,68.278233 71.736927,68.278233 71.609427,68.278233 71.462607,68.278233 71.309685,68.278233 71.169185,68.278233 71.023535,68.278233 70.883029,68.278233 70.730049,68.278233 70.583169,68.278233 70.455633,68.278233 70.204629,68.278233 70.028571,68.278233 70.028571,68.278233 70.028571,68.278233 70.028571,68.374233 70.028571,68.511233 70.028571,68.580633 70.028571,68.660633 70.028571,68.743773 70.028571,68.820573 70.028571,68.899973 70.028571,68.976733 70.028571,69.060333 70.028571,69.140533 70.028571,69.210153 70.028571,69.347153 70.028571,69.443453 70.028571,69.443453 70.028571,69.443453 70.221971,69.443453 70.497729,69.443453 70.637809,69.443453 70.799139,69.443453 70.967167,69.443453 71.121547,69.443453 71.281573,69.443453 71.435961,69.443453 71.604041,69.443453 71.765435,69.443453 71.905567,69.443453 72.181367,69.443453 72.374809,69.443453 72.374809,69.443453 72.374809,69.443453 72.374809,69.523853 72.374809,69.638453 72.374809,69.696453 72.374809,69.763453 72.374809,69.833053 72.374809,69.897253 72.374809,69.963853 72.374809,70.028053 72.374809,70.097853 72.374809,70.164853 72.374809,70.223053 72.374809,70.338053 72.374809,70.418853 72.374809,70.418853 72.374809,70.418853 72.067967,70.418853 71.630481,70.418853 71.408243,70.418853 71.152287,70.418853 70.885713,70.418853 70.640533,70.418853 70.386369,70.418853 70.141201,70.418853 69.874643,70.418853 69.618707,70.418853 69.396501,70.418853 68.959167,70.418853 68.652463,70.418853 68.652463,70.418853 68.652463,70.418853 68.652463,69.993793 68.652463,69.387753 68.652463,69.079893 68.652463,68.725333 68.652463,68.356053 68.652463,68.016413 68.652463,67.664333 68.652463,67.324693 68.652463,66.955453 68.652463,66.600913 68.652463,66.293094 68.652463,65.687274 68.652463,65.262394 68.652463,65.262394"
     style="fill-rule:evenodd;stroke-width:0.52724415"
     inkscape:connector-curvature="0" />
  <path
     style="fill-rule:evenodd;stroke-width:0.52724415"
     d="M 73.729741,68.856853 V 69.021653 69.337793 69.653933 69.971113 L 73.782261,69.965113 73.833781,69.961113 73.885301,69.957113 73.936761,69.953113 73.988281,69.949113 V 69.811113 69.673113 69.535113 69.396113 69.258113 H 74.031521 74.074761 74.118001 74.160241 74.204541 L 74.292081,69.397113 74.379621,69.534113 74.46714,69.672113 74.55468,69.811113 74.6422,69.949113 H 74.69576 74.7493 74.80388 74.85744 74.91098 L 74.82138,69.811113 74.73178,69.673113 74.64218,69.535113 74.55258,69.396113 74.463,69.258113 C 74.48562,69.258633 74.50786,69.258113 74.52994,69.254113 74.55204,69.250113 74.5737,69.246113 74.59482,69.238113 74.61618,69.232113 74.63668,69.224113 74.6566,69.213313 74.6764,69.203313 74.69536,69.190713 74.71324,69.177313 74.73104,69.163313 74.7482,69.148513 74.7637,69.132113 74.7793,69.116113 74.7926,69.098313 74.80488,69.079513 74.81708,69.061513 74.82786,69.041113 74.83678,69.020713 74.84578,69.000313 74.85298,68.979713 74.8584,68.957913 74.8638,68.936313 74.868,68.914313 74.8698,68.891913 74.870856,68.879913 74.868746,68.867113 74.868746,68.854913 H 74.61336 C 74.612306,68.883913 74.61076,68.910913 74.60416,68.933113 74.59416,68.966513 74.57806,68.992713 74.55676,69.013513 74.53504,69.034513 74.50778,69.050313 74.4754,69.060913 74.44814,69.068913 74.417701,69.074913 74.383741,69.078913 74.354481,69.082913 74.322661,69.082913 74.289001,69.082913 H 74.228241 74.168521 74.107761 74.048041 73.988321 V 68.988113 68.893313 68.855113 Z"
     id="path976"
     inkscape:connector-curvature="0" />
  <path
     style="fill-rule:evenodd;stroke-width:0.52724415"
     d="M 73.729741,68.856853 H 73.988217 V 68.800253 68.705453 68.610653 H 74.047937 74.108697 74.168437 74.228157 74.288917 C 74.319757,68.610653 74.350797,68.611713 74.380577,68.614653 74.412257,68.618653 74.442296,68.622653 74.470176,68.632653 74.500496,68.642653 74.527996,68.657453 74.550496,68.677053 74.572696,68.697053 74.589676,68.720853 74.600956,68.752253 74.610156,68.777853 74.615356,68.807653 74.615356,68.842853 74.615356,68.848853 74.613156,68.852853 74.613156,68.856853 H 74.868616 C 74.868448,68.846853 74.86967,68.836253 74.868616,68.826053 74.868616,68.768653 74.862416,68.717853 74.849016,68.671653 74.833616,68.618453 74.808416,68.571853 74.774876,68.533653 74.741716,68.495853 74.699556,68.466053 74.648216,68.443053 74.604716,68.423053 74.554756,68.408653 74.497876,68.399853 74.450316,68.391853 74.398417,68.389853 74.341357,68.389853 H 74.218817 74.097297 73.974757 73.852217 73.729677 V 68.705993 Z"
     id="path974"
     inkscape:connector-curvature="0" />
  <path
     style="fill-rule:evenodd;stroke-width:0.52724415"
     d="M 72.975951,68.856853 C 72.947011,68.966453 72.923271,69.079053 72.923431,69.197713 72.923617,69.341513 72.946051,69.479913 72.988311,69.609613 73.032071,69.744013 73.096331,69.868533 73.177791,69.980333 73.260231,70.093533 73.360111,70.192553 73.473337,70.274853 73.585277,70.356253 73.710671,70.420653 73.845081,70.464253 73.974821,70.506253 74.113237,70.529053 74.256991,70.529053 74.401051,70.528533 74.540036,70.505853 74.669934,70.463253 74.804474,70.419053 74.929738,70.353653 75.041678,70.271653 75.154938,70.188853 75.25384,70.088653 75.336196,69.975093 75.417616,69.862693 75.482056,69.738073 75.525676,69.603333 75.567796,69.473333 75.590556,69.334453 75.590556,69.190393 75.590098,69.073993 75.565456,68.964313 75.537016,68.856753 H 75.401096 C 75.402676,68.862753 75.406696,68.866753 75.408296,68.872753 75.433556,68.959553 75.448476,69.049153 75.452576,69.139473 75.456776,69.229273 75.450376,69.319873 75.432976,69.409273 75.415776,69.496873 75.387956,69.583273 75.349556,69.666713 75.311176,69.750113 75.263736,69.827513 75.208476,69.897393 75.151896,69.968993 75.086856,70.033393 75.015916,70.088993 74.944636,70.144593 74.867616,70.191593 74.785248,70.228993 74.703328,70.266193 74.616308,70.293393 74.526772,70.310393 74.439112,70.326393 74.348733,70.333593 74.256971,70.328393 74.198311,70.328173 74.140051,70.322393 74.082951,70.312393 74.024931,70.302393 73.968391,70.288993 73.913031,70.270193 73.857451,70.252193 73.803171,70.227793 73.751351,70.200193 73.699951,70.172993 73.650731,70.141993 73.604091,70.106393 73.557691,70.071193 73.513971,70.031793 73.473311,69.988993 73.432931,69.946393 73.396771,69.900993 73.364151,69.852993 73.331031,69.804393 73.301331,69.753593 73.276631,69.700593 73.251851,69.647393 73.231771,69.592393 73.215871,69.535793 73.200071,69.479793 73.188511,69.421993 73.181911,69.363793 73.175311,69.305993 73.172911,69.247793 73.175711,69.188793 73.175833,69.096993 73.187511,69.006593 73.208671,68.920033 73.214271,68.897233 73.226471,68.877433 73.233391,68.855233 Z"
     id="path972"
     inkscape:connector-curvature="0" />
  <path
     style="fill-rule:evenodd;stroke-width:0.52724415"
     d="M 72.975951,68.856853 H 73.233393 C 73.253393,68.792453 73.272673,68.727853 73.303413,68.668453 73.345013,68.588253 73.396513,68.513253 73.455813,68.444993 73.514793,68.377193 73.581273,68.315393 73.655593,68.262793 73.728353,68.211193 73.808113,68.167993 73.893469,68.133993 73.978729,68.099993 74.066809,68.076593 74.155029,68.063993 74.245349,68.051993 74.336249,68.049993 74.425864,68.057993 74.515864,68.065993 74.604084,68.086993 74.689486,68.116593 74.774426,68.146193 74.855966,68.185593 74.932508,68.234993 75.007448,68.283393 75.078308,68.341393 75.141556,68.407993 75.204716,68.474593 75.257816,68.546993 75.302196,68.624253 75.344636,68.698053 75.376316,68.776653 75.401056,68.856973 H 75.536976 C 75.530376,68.831773 75.532776,68.803373 75.524576,68.778773 75.480436,68.644573 75.415836,68.519653 75.334056,68.408053 75.251336,68.295053 75.150936,68.195533 75.037482,68.113553 74.925342,68.032553 74.800264,67.968353 74.665732,67.925153 74.535892,67.883353 74.397581,67.861953 74.253823,67.862353 74.110063,67.862733 73.971547,67.885753 73.841913,67.928353 73.707653,67.972353 73.582895,68.036153 73.471197,68.117753 73.358177,68.200353 73.258819,68.300953 73.176685,68.414333 73.095485,68.526333 73.030625,68.650593 72.987205,68.785053 72.979805,68.807653 72.982005,68.834053 72.975805,68.857053 Z"
     id="path34"
     inkscape:connector-curvature="0" />
</svg>
