  0
SECTION
  2
HEADER
  9
$ACADVER
  1
AC1014
  9
$HANDSEED
  5
FFFF
  9
$MEASUREMENT
 70
     1
  0
ENDSEC
  0
SECTION
  2
TABLES
  0
TABLE
  2
VPORT
  5
8
330
0
100
AcDbSymbolTable
 70
     4
  0
VPORT
  5
2E
330
8
100
AcDbSymbolTableRecord
100
AcDbViewportTableRecord
  2
*ACTIVE
 70
     0
 10
0.0
 20
0.0
 11
1.0
 21
1.0
 12
210.0
 22
148.5
 13
0.0
 23
0.0
 14
10.0
 24
10.0
 15
10.0
 25
10.0
 16
0.0
 26
0.0
 36
1.0
 17
0.0
 27
0.0
 37
0.0
 40
341.0
 41
1.24
 42
50.0
 43
0.0
 44
0.0
 50
0.0
 51
0.0
 71
     0
 72
   100
 73
     1
 74
     3
 75
     0
 76
     0
 77
     0
 78
     0
  0
ENDTAB
  0
TABLE
  2
LTYPE
  5
5
330
0
100
AcDbSymbolTable
 70
     1
  0
LTYPE
  5
14
330
5
100
AcDbSymbolTableRecord
100
AcDbLinetypeTableRecord
  2
BYBLOCK
 70
     0
  3

 72
    65
 73
     0
 40
0.0
  0
LTYPE
  5
15
330
5
100
AcDbSymbolTableRecord
100
AcDbLinetypeTableRecord
  2
BYLAYER
 70
     0
  3

 72
    65
 73
     0
 40
0.0
  0
LTYPE
  5
16
330
5
100
AcDbSymbolTableRecord
100
AcDbLinetypeTableRecord
  2
CONTINUOUS
 70
     0
  3
Solid line
 72
    65
 73
     0
 40
0.0
  0
ENDTAB
  0
TABLE
  2
LAYER
  5
2
100
AcDbSymbolTable
 70
2
  0
LAYER
  5
50
100
AcDbSymbolTableRecord
100
AcDbLayerTableRecord
  2
0
 70
0
  6
CONTINUOUS
  0
LAYER
  5
51
100
AcDbSymbolTableRecord
100
AcDbLayerTableRecord
  2
Layer_1
 70
0
  6
CONTINUOUS
  0
ENDTAB
  0
TABLE
  2
STYLE
  5
3
330
0
100
AcDbSymbolTable
 70
     1
  0
STYLE
  5
11
330
3
100
AcDbSymbolTableRecord
100
AcDbTextStyleTableRecord
  2
STANDARD
 70
     0
 40
0.0
 41
1.0
 50
0.0
 71
     0
 42
2.5
  3
txt
  4

  0
ENDTAB
  0
TABLE
  2
VIEW
  5
6
330
0
100
AcDbSymbolTable
 70
     0
  0
ENDTAB
  0
TABLE
  2
UCS
  5
7
330
0
100
AcDbSymbolTable
 70
     0
  0
ENDTAB
  0
TABLE
  2
APPID
  5
9
330
0
100
AcDbSymbolTable
 70
     2
  0
APPID
  5
12
330
9
100
AcDbSymbolTableRecord
100
AcDbRegAppTableRecord
  2
ACAD
 70
     0
  0
ENDTAB
  0
TABLE
  2
DIMSTYLE
  5
A
330
0
100
AcDbSymbolTable
 70
     1
  0
DIMSTYLE
105
27
330
A
100
AcDbSymbolTableRecord
100
AcDbDimStyleTableRecord
  2
ISO-25
 70
     0
  3

  4

  5

  6

  7

 40
1.0
 41
2.5
 42
0.625
 43
3.75
 44
1.25
 45
0.0
 46
0.0
 47
0.0
 48
0.0
140
2.5
141
2.5
142
0.0
143
0.03937007874016
144
1.0
145
0.0
146
1.0
147
0.625
 71
     0
 72
     0
 73
     0
 74
     0
 75
     0
 76
     0
 77
     1
 78
     8
170
     0
171
     3
172
     1
173
     0
174
     0
175
     0
176
     0
177
     0
178
     0
270
     2
271
     2
272
     2
273
     2
274
     3
340
11
275
     0
280
     0
281
     0
282
     0
283
     0
284
     8
285
     0
286
     0
287
     3
288
     0
  0
ENDTAB
  0
TABLE
  2
BLOCK_RECORD
  5
1
330
0
100
AcDbSymbolTable
 70
     1
  0
BLOCK_RECORD
  5
1F
330
1
100
AcDbSymbolTableRecord
100
AcDbBlockTableRecord
  2
*MODEL_SPACE
  0
BLOCK_RECORD
  5
1B
330
1
100
AcDbSymbolTableRecord
100
AcDbBlockTableRecord
  2
*PAPER_SPACE
  0
ENDTAB
  0
ENDSEC
  0
SECTION
  2
BLOCKS
  0
BLOCK
  5
20
330
1F
100
AcDbEntity
  8
0
100
AcDbBlockBegin
  2
*MODEL_SPACE
 70
     0
 10
0.0
 20
0.0
 30
0.0
  3
*MODEL_SPACE
  1

  0
ENDBLK
  5
21
330
1F
100
AcDbEntity
  8
0
100
AcDbBlockEnd
  0
BLOCK
  5
1C
330
1B
100
AcDbEntity
 67
     1
  8
0
100
AcDbBlockBegin
  2
*PAPER_SPACE
  1

  0
ENDBLK
  5
1D
330
1B
100
AcDbEntity
 67
     1
  8
0
100
AcDbBlockEnd
  0
ENDSEC
  0
SECTION
  2
ENTITIES
  0
LWPOLYLINE
  5
100
100
AcDbEntity
  8
Layer_1
 62
7
100
AcDbPolyline
 90
36
 70
1
 10
11.109121
 20
7.261980
 30
0.0
 10
3.921055
 20
7.261980
 30
0.0
 10
3.853755
 20
7.144280
 30
0.0
 10
3.261425
 20
6.107570
 30
0.0
 10
2.669095
 20
5.071130
 30
0.0
 10
2.076766
 20
4.034690
 30
0.0
 10
1.484436
 20
2.997970
 30
0.0
 10
1.483896
 20
2.997440
 30
0.0
 10
1.483346
 20
2.996380
 30
0.0
 10
1.482806
 20
2.995320
 30
0.0
 10
1.482256
 20
2.994260
 30
0.0
 10
1.481716
 20
2.993740
 30
0.0
 10
3.434985
 20
2.993740
 30
0.0
 10
5.387714
 20
2.993740
 30
0.0
 10
7.340713
 20
2.993740
 30
0.0
 10
9.293711
 20
2.993740
 30
0.0
 10
11.246711
 20
2.993740
 30
0.0
 10
11.169061
 20
3.118790
 30
0.0
 10
11.090861
 20
3.243580
 30
0.0
 10
11.012661
 20
3.368370
 30
0.0
 10
10.933921
 20
3.492880
 30
0.0
 10
10.854641
 20
3.617400
 30
0.0
 10
10.652471
 20
3.922010
 30
0.0
 10
10.446761
 20
4.224440
 30
0.0
 10
10.254681
 20
4.535860
 30
0.0
 10
10.109451
 20
4.870720
 30
0.0
 10
10.055511
 20
5.231180
 30
0.0
 10
10.091471
 20
5.515910
 30
0.0
 10
10.186831
 20
5.787000
 30
0.0
 10
10.320341
 20
6.041760
 30
0.0
 10
10.475641
 20
6.283700
 30
0.0
 10
10.637211
 20
6.521560
 30
0.0
 10
10.781611
 20
6.748250
 30
0.0
 10
10.926021
 20
6.974940
 30
0.0
 10
11.070421
 20
7.201620
 30
0.0
 10
11.109111
 20
7.261830
 30
0.0
  0
LWPOLYLINE
  5
101
100
AcDbEntity
  8
Layer_1
 62
7
100
AcDbPolyline
 90
54
 70
1
 10
18.051962
 20
7.261980
 30
0.0
 10
13.988752
 20
7.261980
 30
0.0
 10
13.898842
 20
7.125210
 30
0.0
 10
13.753082
 20
6.890620
 30
0.0
 10
13.613582
 20
6.651940
 30
0.0
 10
13.480072
 20
6.410000
 30
0.0
 10
13.353102
 20
6.164780
 30
0.0
 10
13.297792
 20
6.088770
 30
0.0
 10
13.229952
 20
6.024190
 30
0.0
 10
13.151482
 20
5.972440
 30
0.0
 10
13.065112
 20
5.935660
 30
0.0
 10
12.973842
 20
5.914970
 30
0.0
 10
12.974122
 20
5.913910
 30
0.0
 10
12.974962
 20
5.912860
 30
0.0
 10
12.975492
 20
5.911800
 30
0.0
 10
12.976022
 20
5.910740
 30
0.0
 10
12.976552
 20
5.909680
 30
0.0
 10
12.923422
 20
5.911800
 30
0.0
 10
12.870842
 20
5.919950
 30
0.0
 10
12.819892
 20
5.934130
 30
0.0
 10
12.770572
 20
5.954030
 30
0.0
 10
12.723982
 20
5.979370
 30
0.0
 10
12.522912
 20
6.298150
 30
0.0
 10
12.604372
 20
6.681230
 30
0.0
 10
12.782022
 20
7.033530
 30
0.0
 10
12.923152
 20
7.260750
 30
0.0
 10
12.167072
 20
7.260750
 30
0.0
 10
12.158902
 20
7.247420
 30
0.0
 10
11.968172
 20
6.955620
 30
0.0
 10
11.777452
 20
6.663810
 30
0.0
 10
11.586462
 20
6.372000
 30
0.0
 10
11.395732
 20
6.079920
 30
0.0
 10
11.204741
 20
5.788120
 30
0.0
 10
11.124641
 20
5.669330
 30
0.0
 10
11.051071
 20
5.546450
 30
0.0
 10
10.988681
 20
5.417300
 30
0.0
 10
10.947811
 20
5.280520
 30
0.0
 10
10.959261
 20
5.139660
 30
0.0
 10
11.118651
 20
4.853310
 30
0.0
 10
11.298741
 20
4.579210
 30
0.0
 10
11.483202
 20
4.307570
 30
0.0
 10
11.666842
 20
4.035920
 30
0.0
 10
11.848022
 20
3.762650
 30
0.0
 10
11.948832
 20
3.608710
 30
0.0
 10
12.049372
 20
3.454770
 30
0.0
 10
12.150182
 20
3.300820
 30
0.0
 10
12.251542
 20
3.147430
 30
0.0
 10
12.359982
 20
2.999750
 30
0.0
 10
13.991472
 20
2.999750
 30
0.0
 10
15.622432
 20
2.999750
 30
0.0
 10
17.253922
 20
2.999750
 30
0.0
 10
18.885152
 20
2.999750
 30
0.0
 10
20.516372
 20
2.999750
 30
0.0
 10
18.605052
 20
6.304460
 30
0.0
  0
LWPOLYLINE
  5
102
100
AcDbEntity
  8
Layer_1
 62
7
100
AcDbPolyline
 90
138
 70
1
 10
10.959261
 20
20.053810
 30
0.0
 10
9.740821
 20
17.944680
 30
0.0
 10
8.522922
 20
15.834470
 30
0.0
 10
7.306653
 20
13.723990
 30
0.0
 10
6.092563
 20
11.611870
 30
0.0
 10
4.892374
 20
9.492130
 30
0.0
 10
5.304614
 20
9.258900
 30
0.0
 10
5.740544
 20
9.073900
 30
0.0
 10
6.196103
 20
8.945850
 30
0.0
 10
6.666643
 20
8.895730
 30
0.0
 10
7.135543
 20
8.953770
 30
0.0
 10
7.447513
 20
9.047490
 30
0.0
 10
7.751582
 20
9.163560
 30
0.0
 10
8.040932
 20
9.312600
 30
0.0
 10
8.304672
 20
9.503320
 30
0.0
 10
8.551522
 20
9.715570
 30
0.0
 10
9.092902
 20
10.238970
 30
0.0
 10
9.660712
 20
10.733750
 30
0.0
 10
10.279471
 20
11.162610
 30
0.0
 10
10.960901
 20
11.480290
 30
0.0
 10
11.700082
 20
11.608630
 30
0.0
 10
12.304132
 20
11.508360
 30
0.0
 10
12.847142
 20
11.224450
 30
0.0
 10
13.301062
 20
10.811410
 30
0.0
 10
13.668892
 20
10.319340
 30
0.0
 10
13.954422
 20
9.775510
 30
0.0
 10
13.977862
 20
9.713660
 30
0.0
 10
13.991212
 20
9.649090
 30
0.0
 10
13.994222
 20
9.583420
 30
0.0
 10
13.986872
 20
9.518030
 30
0.0
 10
13.969432
 20
9.454280
 30
0.0
 10
13.941912
 20
9.394340
 30
0.0
 10
13.905682
 20
9.339300
 30
0.0
 10
13.860992
 20
9.290770
 30
0.0
 10
13.809502
 20
9.249920
 30
0.0
 10
13.752282
 20
9.217480
 30
0.0
 10
13.605432
 20
9.167050
 30
0.0
 10
13.450942
 20
9.175790
 30
0.0
 10
13.313082
 20
9.246360
 30
0.0
 10
13.202462
 20
9.355340
 30
0.0
 10
13.114732
 20
9.483940
 30
0.0
 10
12.927552
 20
9.823430
 30
0.0
 10
12.707122
 20
10.141930
 30
0.0
 10
12.439302
 20
10.421470
 30
0.0
 10
12.113162
 20
10.628270
 30
0.0
 10
11.736352
 20
10.707290
 30
0.0
 10
11.081901
 20
10.572690
 30
0.0
 10
10.496101
 20
10.246010
 30
0.0
 10
9.970251
 20
9.827510
 30
0.0
 10
9.476282
 20
9.371410
 30
0.0
 10
8.991032
 20
8.906320
 30
0.0
 10
8.627572
 20
8.619960
 30
0.0
 10
8.223242
 20
8.394100
 30
0.0
 10
7.793563
 20
8.220810
 30
0.0
 10
7.347553
 20
8.095210
 30
0.0
 10
6.890083
 20
8.021910
 30
0.0
 10
6.841593
 20
8.017150
 30
0.0
 10
6.792823
 20
8.013970
 30
0.0
 10
6.743773
 20
8.012390
 30
0.0
 10
6.695003
 20
8.011860
 30
0.0
 10
6.645963
 20
8.011860
 30
0.0
 10
6.179503
 20
8.042650
 30
0.0
 10
5.720954
 20
8.135570
 30
0.0
 10
5.276274
 20
8.281310
 30
0.0
 10
4.849604
 20
8.473130
 30
0.0
 10
4.446084
 20
8.709620
 30
0.0
 10
3.921055
 20
7.791150
 30
0.0
 10
11.109121
 20
7.791150
 30
0.0
 10
11.215651
 20
7.957360
 30
0.0
 10
11.362501
 20
8.182410
 30
0.0
 10
11.472852
 20
8.336350
 30
0.0
 10
11.603362
 20
8.472580
 30
0.0
 10
11.767652
 20
8.564400
 30
0.0
 10
11.954562
 20
8.570960
 30
0.0
 10
12.127032
 20
8.494940
 30
0.0
 10
12.251272
 20
8.385690
 30
0.0
 10
12.320202
 20
8.236650
 30
0.0
 10
12.309852
 20
8.072360
 30
0.0
 10
12.246362
 20
7.918960
 30
0.0
 10
12.167082
 20
7.791170
 30
0.0
 10
12.923162
 20
7.791170
 30
0.0
 10
12.990452
 20
7.899620
 30
0.0
 10
13.202432
 20
8.232560
 30
0.0
 10
13.353372
 20
8.470420
 30
0.0
 10
13.526112
 20
8.692750
 30
0.0
 10
13.719292
 20
8.897640
 30
0.0
 10
13.930992
 20
9.083460
 30
0.0
 10
14.159582
 20
9.248020
 30
0.0
 10
14.362302
 20
9.358910
 30
0.0
 10
14.575912
 20
9.446920
 30
0.0
 10
14.797692
 20
9.511490
 30
0.0
 10
15.025472
 20
9.551820
 30
0.0
 10
15.255972
 20
9.567640
 30
0.0
 10
15.178592
 20
9.682340
 30
0.0
 10
15.101482
 20
9.797050
 30
0.0
 10
15.024652
 20
9.911760
 30
0.0
 10
14.948092
 20
10.027010
 30
0.0
 10
14.872342
 20
10.142250
 30
0.0
 10
14.814852
 20
10.274400
 30
0.0
 10
14.791692
 20
10.416620
 30
0.0
 10
14.808312
 20
10.559390
 30
0.0
 10
14.874252
 20
10.686900
 30
0.0
 10
14.983782
 20
10.779820
 30
0.0
 10
15.203932
 20
10.858830
 30
0.0
 10
15.430892
 20
10.811420
 30
0.0
 10
15.611532
 20
10.662380
 30
0.0
 10
15.752392
 20
10.473840
 30
0.0
 10
15.878002
 20
10.274940
 30
0.0
 10
15.987532
 20
10.108470
 30
0.0
 10
16.096512
 20
9.941450
 30
0.0
 10
16.204952
 20
9.773890
 30
0.0
 10
16.312842
 20
9.606320
 30
0.0
 10
16.419382
 20
9.437940
 30
0.0
 10
16.513652
 20
9.302260
 30
0.0
 10
16.596202
 20
9.159210
 30
0.0
 10
16.645252
 20
9.002000
 30
0.0
 10
16.638162
 20
8.837980
 30
0.0
 10
16.568682
 20
8.688670
 30
0.0
 10
16.448252
 20
8.568240
 30
0.0
 10
16.290232
 20
8.506130
 30
0.0
 10
16.119392
 20
8.504540
 30
0.0
 10
15.951832
 20
8.540200
 30
0.0
 10
15.787542
 20
8.588150
 30
0.0
 10
15.639592
 20
8.632280
 30
0.0
 10
15.487832
 20
8.660320
 30
0.0
 10
15.334162
 20
8.672020
 30
0.0
 10
15.179952
 20
8.667790
 30
0.0
 10
15.027102
 20
8.646830
 30
0.0
 10
14.790062
 20
8.559910
 30
0.0
 10
14.573722
 20
8.429950
 30
0.0
 10
14.380282
 20
8.267570
 30
0.0
 10
14.207262
 20
8.083650
 30
0.0
 10
14.050602
 20
7.885030
 30
0.0
 10
13.988752
 20
7.791030
 30
0.0
 10
18.051962
 20
7.791030
 30
0.0
 10
16.693472
 20
10.139380
 30
0.0
 10
14.782162
 20
13.444330
 30
0.0
 10
12.870852
 20
16.749010
 30
0.0
  0
LWPOLYLINE
  5
103
100
AcDbEntity
  8
Layer_1
 62
7
100
AcDbPolyline
 90
56
 70
0
 10
3.457035
 20
0.853950
 30
0.0
 10
3.274245
 20
0.871050
 30
0.0
 10
3.101755
 20
0.932120
 30
0.0
 10
2.962155
 20
1.049620
 30
0.0
 10
2.881475
 20
1.213460
 30
0.0
 10
2.858575
 20
1.395210
 30
0.0
 10
2.858575
 20
1.564810
 30
0.0
 10
2.858575
 20
1.734510
 30
0.0
 10
2.858575
 20
1.904150
 30
0.0
 10
2.858575
 20
2.073840
 30
0.0
 10
2.858575
 20
2.243370
 30
0.0
 10
2.931385
 20
2.243370
 30
0.0
 10
3.004225
 20
2.243370
 30
0.0
 10
3.076975
 20
2.243370
 30
0.0
 10
3.149855
 20
2.243370
 30
0.0
 10
3.222675
 20
2.243370
 30
0.0
 10
3.222675
 20
2.086040
 30
0.0
 10
3.222675
 20
1.928620
 30
0.0
 10
3.222675
 20
1.771260
 30
0.0
 10
3.222675
 20
1.613850
 30
0.0
 10
3.222675
 20
1.456590
 30
0.0
 10
3.227765
 20
1.364220
 30
0.0
 10
3.247415
 20
1.273870
 30
0.0
 10
3.291415
 20
1.193040
 30
0.0
 10
3.366185
 20
1.139920
 30
0.0
 10
3.457035
 20
1.124580
 30
0.0
 10
3.548085
 20
1.139970
 30
0.0
 10
3.622965
 20
1.192840
 30
0.0
 10
3.667475
 20
1.273510
 30
0.0
 10
3.687565
 20
1.364090
 30
0.0
 10
3.692785
 20
1.456610
 30
0.0
 10
3.692785
 20
1.613930
 30
0.0
 10
3.692785
 20
1.771350
 30
0.0
 10
3.692785
 20
1.928710
 30
0.0
 10
3.692785
 20
2.086120
 30
0.0
 10
3.692785
 20
2.243380
 30
0.0
 10
3.765595
 20
2.243380
 30
0.0
 10
3.838445
 20
2.243380
 30
0.0
 10
3.911195
 20
2.243380
 30
0.0
 10
3.984065
 20
2.243380
 30
0.0
 10
4.056884
 20
2.243380
 30
0.0
 10
4.056884
 20
2.072670
 30
0.0
 10
4.056884
 20
1.901850
 30
0.0
 10
4.056884
 20
1.731100
 30
0.0
 10
4.056884
 20
1.560290
 30
0.0
 10
4.056884
 20
1.389650
 30
0.0
 10
4.033874
 20
1.207510
 30
0.0
 10
3.952875
 20
1.043610
 30
0.0
 10
3.812835
 20
0.926250
 30
0.0
 10
3.640045
 20
0.865400
 30
0.0
 10
3.457035
 20
0.848360
 30
0.0
 10
3.457035
 20
0.849420
 30
0.0
 10
3.457035
 20
0.850480
 30
0.0
 10
3.457035
 20
0.851540
 30
0.0
 10
3.457035
 20
0.852590
 30
0.0
 10
3.457035
 20
0.853650
 30
0.0
  0
LWPOLYLINE
  5
104
100
AcDbEntity
  8
Layer_1
 62
7
100
AcDbPolyline
 90
66
 70
0
 10
4.646964
 20
0.867900
 30
0.0
 10
4.564414
 20
0.870020
 30
0.0
 10
4.482094
 20
0.877220
 30
0.0
 10
4.400214
 20
0.889280
 30
0.0
 10
4.319405
 20
0.906110
 30
0.0
 10
4.239625
 20
0.927750
 30
0.0
 10
4.246045
 20
0.987730
 30
0.0
 10
4.252445
 20
1.047580
 30
0.0
 10
4.258854
 20
1.107550
 30
0.0
 10
4.265285
 20
1.167630
 30
0.0
 10
4.271714
 20
1.227690
 30
0.0
 10
4.342475
 20
1.195460
 30
0.0
 10
4.416115
 20
1.170170
 30
0.0
 10
4.491924
 20
1.152120
 30
0.0
 10
4.568974
 20
1.141490
 30
0.0
 10
4.646964
 20
1.138310
 30
0.0
 10
4.707104
 20
1.140960
 30
0.0
 10
4.766284
 20
1.151120
 30
0.0
 10
4.821384
 20
1.174930
 30
0.0
 10
4.860884
 20
1.219540
 30
0.0
 10
4.872954
 20
1.277850
 30
0.0
 10
4.756484
 20
1.414140
 30
0.0
 10
4.574634
 20
1.473680
 30
0.0
 10
4.398485
 20
1.547610
 30
0.0
 10
4.266325
 20
1.682620
 30
0.0
 10
4.225675
 20
1.867920
 30
0.0
 10
4.256775
 20
2.027560
 30
0.0
 10
4.355534
 20
2.156380
 30
0.0
 10
4.498024
 20
2.235540
 30
0.0
 10
4.656734
 20
2.274910
 30
0.0
 10
4.819944
 20
2.286450
 30
0.0
 10
4.891524
 20
2.285390
 30
0.0
 10
4.962904
 20
2.279570
 30
0.0
 10
5.033874
 20
2.269190
 30
0.0
 10
5.103864
 20
2.254380
 30
0.0
 10
5.172884
 20
2.235120
 30
0.0
 10
5.168424
 20
2.179330
 30
0.0
 10
5.163964
 20
2.123650
 30
0.0
 10
5.159504
 20
2.067860
 30
0.0
 10
5.155044
 20
2.012120
 30
0.0
 10
5.150564
 20
1.956060
 30
0.0
 10
5.092164
 20
1.978920
 30
0.0
 10
5.031914
 20
1.996750
 30
0.0
 10
4.970304
 20
2.009400
 30
0.0
 10
4.907964
 20
2.016750
 30
0.0
 10
4.845054
 20
2.018870
 30
0.0
 10
4.783674
 20
2.016750
 30
0.0
 10
4.722924
 20
2.008650
 30
0.0
 10
4.664814
 20
1.989290
 30
0.0
 10
4.618544
 20
1.949970
 30
0.0
 10
4.602324
 20
1.891720
 30
0.0
 10
4.727054
 20
1.770190
 30
0.0
 10
4.906304
 20
1.717430
 30
0.0
 10
5.078544
 20
1.646180
 30
0.0
 10
5.208044
 20
1.514500
 30
0.0
 10
5.248214
 20
1.333700
 30
0.0
 10
5.220854
 20
1.165740
 30
0.0
 10
5.127444
 20
1.024340
 30
0.0
 10
4.982444
 20
0.935590
 30
0.0
 10
4.817294
 20
0.893310
 30
0.0
 10
4.646964
 20
0.881720
 30
0.0
 10
4.646964
 20
0.879070
 30
0.0
 10
4.646964
 20
0.876430
 30
0.0
 10
4.646964
 20
0.873780
 30
0.0
 10
4.646964
 20
0.871140
 30
0.0
 10
4.646964
 20
0.868490
 30
0.0
  0
LWPOLYLINE
  5
105
100
AcDbEntity
  8
Layer_1
 62
7
100
AcDbPolyline
 90
40
 70
1
 10
5.687634
 20
1.988090
 30
0.0
 10
5.620134
 20
1.988090
 30
0.0
 10
5.552584
 20
1.988090
 30
0.0
 10
5.485134
 20
1.988090
 30
0.0
 10
5.417564
 20
1.988090
 30
0.0
 10
5.350044
 20
1.988090
 30
0.0
 10
5.350044
 20
2.041930
 30
0.0
 10
5.350044
 20
2.095650
 30
0.0
 10
5.350044
 20
2.149480
 30
0.0
 10
5.350044
 20
2.203280
 30
0.0
 10
5.350044
 20
2.257330
 30
0.0
 10
5.557584
 20
2.257330
 30
0.0
 10
5.765244
 20
2.257330
 30
0.0
 10
5.972834
 20
2.257330
 30
0.0
 10
6.180473
 20
2.257330
 30
0.0
 10
6.387923
 20
2.257330
 30
0.0
 10
6.387923
 20
2.203490
 30
0.0
 10
6.387923
 20
2.149760
 30
0.0
 10
6.387923
 20
2.095930
 30
0.0
 10
6.387923
 20
2.042130
 30
0.0
 10
6.387923
 20
1.988090
 30
0.0
 10
6.320423
 20
1.988090
 30
0.0
 10
6.252873
 20
1.988090
 30
0.0
 10
6.185423
 20
1.988090
 30
0.0
 10
6.117853
 20
1.988090
 30
0.0
 10
6.050333
 20
1.988090
 30
0.0
 10
6.050333
 20
1.769120
 30
0.0
 10
6.050333
 20
1.550020
 30
0.0
 10
6.050333
 20
1.330990
 30
0.0
 10
6.050333
 20
1.111900
 30
0.0
 10
6.050333
 20
0.893010
 30
0.0
 10
5.977814
 20
0.893010
 30
0.0
 10
5.905244
 20
0.893010
 30
0.0
 10
5.832774
 20
0.893010
 30
0.0
 10
5.760174
 20
0.893010
 30
0.0
 10
5.687634
 20
0.893010
 30
0.0
 10
5.687634
 20
1.111990
 30
0.0
 10
5.687634
 20
1.331090
 30
0.0
 10
5.687634
 20
1.550120
 30
0.0
 10
5.687634
 20
1.769200
 30
0.0
  0
LWPOLYLINE
  5
106
100
AcDbEntity
  8
Layer_1
 62
7
100
AcDbPolyline
 90
62
 70
1
 10
6.507793
 20
1.289860
 30
0.0
 10
6.507793
 20
1.187420
 30
0.0
 10
6.507793
 20
0.914410
 30
0.0
 10
6.507793
 20
0.641130
 30
0.0
 10
6.507793
 20
0.368130
 30
0.0
 10
6.580813
 20
0.368130
 30
0.0
 10
6.653563
 20
0.368130
 30
0.0
 10
6.726313
 20
0.368130
 30
0.0
 10
6.799053
 20
0.368130
 30
0.0
 10
6.872073
 20
0.368130
 30
0.0
 10
6.872073
 20
0.476020
 30
0.0
 10
6.872073
 20
0.584190
 30
0.0
 10
6.872073
 20
0.691810
 30
0.0
 10
6.872073
 20
0.799980
 30
0.0
 10
6.872073
 20
0.907870
 30
0.0
 10
6.887333
 20
0.907870
 30
0.0
 10
6.902593
 20
0.907870
 30
0.0
 10
6.918123
 20
0.907870
 30
0.0
 10
6.933373
 20
0.907870
 30
0.0
 10
6.948633
 20
0.907870
 30
0.0
 10
7.032553
 20
0.895910
 30
0.0
 10
7.101213
 20
0.846860
 30
0.0
 10
7.145353
 20
0.774390
 30
0.0
 10
7.177773
 20
0.695650
 30
0.0
 10
7.205283
 20
0.615000
 30
0.0
 10
7.220813
 20
0.565410
 30
0.0
 10
7.236073
 20
0.516090
 30
0.0
 10
7.251333
 20
0.466780
 30
0.0
 10
7.266863
 20
0.417460
 30
0.0
 10
7.282113
 20
0.368140
 30
0.0
 10
7.357863
 20
0.368140
 30
0.0
 10
7.433873
 20
0.368140
 30
0.0
 10
7.509623
 20
0.368140
 30
0.0
 10
7.585633
 20
0.368140
 30
0.0
 10
7.661652
 20
0.368140
 30
0.0
 10
7.635222
 20
0.442250
 30
0.0
 10
7.609073
 20
0.516630
 30
0.0
 10
7.582913
 20
0.590740
 30
0.0
 10
7.556753
 20
0.664850
 30
0.0
 10
7.530333
 20
0.739230
 30
0.0
 10
7.502813
 20
0.809260
 30
0.0
 10
7.476933
 20
0.879820
 30
0.0
 10
7.447233
 20
0.949300
 30
0.0
 10
7.402283
 20
1.009240
 30
0.0
 10
7.336613
 20
1.044640
 30
0.0
 10
7.425983
 20
1.075170
 30
0.0
 10
7.502813
 20
1.130480
 30
0.0
 10
7.559763
 20
1.205950
 30
0.0
 10
7.590543
 20
1.289870
 30
0.0
 10
7.228173
 20
1.289870
 30
0.0
 10
7.221913
 20
1.255000
 30
0.0
 10
7.176133
 20
1.201330
 30
0.0
 10
7.109383
 20
1.175450
 30
0.0
 10
7.038543
 20
1.167300
 30
0.0
 10
6.966883
 20
1.165720
 30
0.0
 10
6.947813
 20
1.165720
 30
0.0
 10
6.929013
 20
1.165720
 30
0.0
 10
6.909663
 20
1.165720
 30
0.0
 10
6.890863
 20
1.165720
 30
0.0
 10
6.872063
 20
1.165720
 30
0.0
 10
6.872063
 20
1.227840
 30
0.0
 10
6.872063
 20
1.289680
 30
0.0
  0
LWPOLYLINE
  5
107
100
AcDbEntity
  8
Layer_1
 62
7
100
AcDbPolyline
 90
31
 70
1
 10
6.507793
 20
1.819030
 30
0.0
 10
6.872073
 20
1.819030
 30
0.0
 10
6.872073
 20
1.819310
 30
0.0
 10
6.872073
 20
1.881160
 30
0.0
 10
6.872073
 20
1.943010
 30
0.0
 10
6.872073
 20
2.004850
 30
0.0
 10
6.890883
 20
2.004850
 30
0.0
 10
6.909953
 20
2.004850
 30
0.0
 10
6.929023
 20
2.004850
 30
0.0
 10
6.947823
 20
2.004850
 30
0.0
 10
6.966893
 20
2.004850
 30
0.0
 10
7.036103
 20
2.002210
 30
0.0
 10
7.104483
 20
1.992100
 30
0.0
 10
7.169333
 20
1.968130
 30
0.0
 10
7.218643
 20
1.920720
 30
0.0
 10
7.234723
 20
1.853970
 30
0.0
 10
7.228183
 20
1.818830
 30
0.0
 10
7.590553
 20
1.818830
 30
0.0
 10
7.592463
 20
1.823590
 30
0.0
 10
7.597383
 20
1.917870
 30
0.0
 10
7.575853
 20
2.041290
 30
0.0
 10
7.507463
 20
2.145920
 30
0.0
 10
7.403383
 20
2.215390
 30
0.0
 10
7.283233
 20
2.251910
 30
0.0
 10
7.157903
 20
2.262540
 30
0.0
 10
7.027923
 20
2.262540
 30
0.0
 10
6.897963
 20
2.262540
 30
0.0
 10
6.768003
 20
2.262540
 30
0.0
 10
6.637763
 20
2.262540
 30
0.0
 10
6.507793
 20
2.262540
 30
0.0
 10
6.507793
 20
1.989540
 30
0.0
  0
LWPOLYLINE
  5
108
100
AcDbEntity
  8
Layer_1
 62
7
100
AcDbPolyline
 90
42
 70
1
 10
7.962463
 20
1.038110
 30
0.0
 10
7.913702
 20
0.909510
 30
0.0
 10
7.809892
 20
0.636770
 30
0.0
 10
7.706082
 20
0.363770
 30
0.0
 10
7.779643
 20
0.363770
 30
0.0
 10
7.852943
 20
0.363770
 30
0.0
 10
7.926232
 20
0.363770
 30
0.0
 10
7.999793
 20
0.363770
 30
0.0
 10
8.073082
 20
0.363770
 30
0.0
 10
8.095162
 20
0.422070
 30
0.0
 10
8.117232
 20
0.480110
 30
0.0
 10
8.139302
 20
0.538140
 30
0.0
 10
8.161372
 20
0.595900
 30
0.0
 10
8.183172
 20
0.653940
 30
0.0
 10
8.285612
 20
0.653940
 30
0.0
 10
8.388062
 20
0.653940
 30
0.0
 10
8.490502
 20
0.653940
 30
0.0
 10
8.592952
 20
0.653940
 30
0.0
 10
8.695392
 20
0.653940
 30
0.0
 10
8.715552
 20
0.595900
 30
0.0
 10
8.735992
 20
0.537870
 30
0.0
 10
8.756432
 20
0.479840
 30
0.0
 10
8.776862
 20
0.421800
 30
0.0
 10
8.797022
 20
0.363770
 30
0.0
 10
8.877132
 20
0.363770
 30
0.0
 10
8.957232
 20
0.363770
 30
0.0
 10
9.037342
 20
0.363770
 30
0.0
 10
9.117442
 20
0.363770
 30
0.0
 10
9.197542
 20
0.363770
 30
0.0
 10
9.092372
 20
0.636500
 30
0.0
 10
8.987202
 20
0.909510
 30
0.0
 10
8.937612
 20
1.038110
 30
0.0
 10
8.570322
 20
1.038110
 30
0.0
 10
8.576042
 20
1.019320
 30
0.0
 10
8.608742
 20
0.911970
 30
0.0
 10
8.540352
 20
0.911970
 30
0.0
 10
8.471972
 20
0.911970
 30
0.0
 10
8.403582
 20
0.911970
 30
0.0
 10
8.335462
 20
0.911970
 30
0.0
 10
8.267072
 20
0.911970
 30
0.0
 10
8.302772
 20
1.019320
 30
0.0
 10
8.309032
 20
1.038110
 30
0.0
  0
LWPOLYLINE
  5
109
100
AcDbEntity
  8
Layer_1
 62
7
100
AcDbPolyline
 90
21
 70
1
 10
7.962463
 20
1.567280
 30
0.0
 10
8.309032
 20
1.567280
 30
0.0
 10
8.338462
 20
1.655560
 30
0.0
 10
8.374152
 20
1.762630
 30
0.0
 10
8.409852
 20
1.869710
 30
0.0
 10
8.445542
 20
1.977060
 30
0.0
 10
8.478232
 20
1.869710
 30
0.0
 10
8.510932
 20
1.762630
 30
0.0
 10
8.543352
 20
1.655560
 30
0.0
 10
8.570332
 20
1.567280
 30
0.0
 10
8.937602
 20
1.567280
 30
0.0
 10
8.882022
 20
1.711410
 30
0.0
 10
8.776582
 20
1.984410
 30
0.0
 10
8.671412
 20
2.257420
 30
0.0
 10
8.582312
 20
2.257420
 30
0.0
 10
8.492952
 20
2.257420
 30
0.0
 10
8.403852
 20
2.257420
 30
0.0
 10
8.314482
 20
2.257420
 30
0.0
 10
8.225122
 20
2.257420
 30
0.0
 10
8.121313
 20
1.984690
 30
0.0
 10
8.017503
 20
1.711680
 30
0.0
  0
LWPOLYLINE
  5
10a
100
AcDbEntity
  8
Layer_1
 62
7
100
AcDbPolyline
 90
30
 70
1
 10
9.338352
 20
2.257330
 30
0.0
 10
9.411431
 20
2.257330
 30
0.0
 10
9.484562
 20
2.257330
 30
0.0
 10
9.557592
 20
2.257330
 30
0.0
 10
9.630742
 20
2.257330
 30
0.0
 10
9.703842
 20
2.257330
 30
0.0
 10
9.703842
 20
2.038350
 30
0.0
 10
9.703842
 20
1.819250
 30
0.0
 10
9.703842
 20
1.600220
 30
0.0
 10
9.703842
 20
1.381140
 30
0.0
 10
9.703842
 20
1.162250
 30
0.0
 10
9.816251
 20
1.162250
 30
0.0
 10
9.928731
 20
1.162250
 30
0.0
 10
10.041061
 20
1.162250
 30
0.0
 10
10.153591
 20
1.162250
 30
0.0
 10
10.266021
 20
1.162250
 30
0.0
 10
10.266021
 20
1.108410
 30
0.0
 10
10.266021
 20
1.054680
 30
0.0
 10
10.266021
 20
1.000860
 30
0.0
 10
10.266021
 20
0.947060
 30
0.0
 10
10.266021
 20
0.893010
 30
0.0
 10
10.080521
 20
0.893010
 30
0.0
 10
9.894911
 20
0.893010
 30
0.0
 10
9.709372
 20
0.893010
 30
0.0
 10
9.523772
 20
0.893010
 30
0.0
 10
9.338352
 20
0.893010
 30
0.0
 10
9.338352
 20
1.165820
 30
0.0
 10
9.338352
 20
1.438790
 30
0.0
 10
9.338352
 20
1.711680
 30
0.0
 10
9.338352
 20
1.984620
 30
0.0
  0
LWPOLYLINE
  5
10b
100
AcDbEntity
  8
Layer_1
 62
7
100
AcDbPolyline
 90
21
 70
1
 10
10.429338
 20
2.257266
 30
0.0
 10
10.429338
 20
1.984428
 30
0.0
 10
10.429338
 20
1.711563
 30
0.0
 10
10.429338
 20
1.438725
 30
0.0
 10
10.429338
 20
1.165860
 30
0.0
 10
10.429338
 20
0.893021
 30
0.0
 10
10.501684
 20
0.893021
 30
0.0
 10
10.574548
 20
0.893021
 30
0.0
 10
10.646895
 20
0.893021
 30
0.0
 10
10.719242
 20
0.893021
 30
0.0
 10
10.792106
 20
0.893021
 30
0.0
 10
10.792106
 20
1.165860
 30
0.0
 10
10.792106
 20
1.438725
 30
0.0
 10
10.792106
 20
1.711563
 30
0.0
 10
10.792106
 20
1.984428
 30
0.0
 10
10.792106
 20
2.257266
 30
0.0
 10
10.719242
 20
2.257266
 30
0.0
 10
10.646895
 20
2.257266
 30
0.0
 10
10.574548
 20
2.257266
 30
0.0
 10
10.501684
 20
2.257266
 30
0.0
 10
10.429338
 20
2.257266
 30
0.0
  0
LWPOLYLINE
  5
10c
100
AcDbEntity
  8
Layer_1
 62
7
100
AcDbPolyline
 90
43
 70
1
 10
11.218437
 20
1.119350
 30
0.0
 10
11.138338
 20
0.909560
 30
0.0
 10
11.034985
 20
0.636690
 30
0.0
 10
10.931632
 20
0.363850
 30
0.0
 10
11.005530
 20
0.363850
 30
0.0
 10
11.079427
 20
0.363850
 30
0.0
 10
11.153324
 20
0.363850
 30
0.0
 10
11.227222
 20
0.363850
 30
0.0
 10
11.301119
 20
0.363850
 30
0.0
 10
11.322823
 20
0.421720
 30
0.0
 10
11.344010
 20
0.480110
 30
0.0
 10
11.365714
 20
0.538000
 30
0.0
 10
11.386902
 20
0.595870
 30
0.0
 10
11.408606
 20
0.654260
 30
0.0
 10
11.510925
 20
0.654260
 30
0.0
 10
11.613244
 20
0.654260
 30
0.0
 10
11.715564
 20
0.654260
 30
0.0
 10
11.817883
 20
0.654260
 30
0.0
 10
11.920719
 20
0.654260
 30
0.0
 10
11.940873
 20
0.595870
 30
0.0
 10
11.961027
 20
0.538000
 30
0.0
 10
11.981697
 20
0.479610
 30
0.0
 10
12.001851
 20
0.421720
 30
0.0
 10
12.022522
 20
0.363850
 30
0.0
 10
12.102620
 20
0.363850
 30
0.0
 10
12.182719
 20
0.363850
 30
0.0
 10
12.262300
 20
0.363850
 30
0.0
 10
12.342399
 20
0.363850
 30
0.0
 10
12.422497
 20
0.363850
 30
0.0
 10
12.317077
 20
0.636690
 30
0.0
 10
12.211141
 20
0.909560
 30
0.0
 10
12.130009
 20
1.119350
 30
0.0
 10
11.776025
 20
1.119350
 30
0.0
 10
11.806514
 20
1.019100
 30
0.0
 10
11.839587
 20
0.912120
 30
0.0
 10
11.770858
 20
0.912120
 30
0.0
 10
11.702128
 20
0.912120
 30
0.0
 10
11.633915
 20
0.912120
 30
0.0
 10
11.565186
 20
0.912120
 30
0.0
 10
11.496456
 20
0.912120
 30
0.0
 10
11.532113
 20
1.019100
 30
0.0
 10
11.565186
 20
1.119350
 30
0.0
 10
11.218437
 20
1.119350
 30
0.0
  0
LWPOLYLINE
  5
10d
100
AcDbEntity
  8
Layer_1
 62
7
100
AcDbPolyline
 90
22
 70
1
 10
11.218437
 20
1.648513
 30
0.0
 10
11.565186
 20
1.648513
 30
0.0
 10
11.567769
 20
1.655762
 30
0.0
 10
11.603426
 20
1.762733
 30
0.0
 10
11.639083
 20
1.869704
 30
0.0
 10
11.674739
 20
1.977178
 30
0.0
 10
11.707812
 20
1.869704
 30
0.0
 10
11.740885
 20
1.762733
 30
0.0
 10
11.773958
 20
1.655762
 30
0.0
 10
11.776025
 20
1.648513
 30
0.0
 10
12.130009
 20
1.648513
 30
0.0
 10
12.105721
 20
1.711563
 30
0.0
 10
11.999784
 20
1.984428
 30
0.0
 10
11.893848
 20
2.257266
 30
0.0
 10
11.804964
 20
2.257266
 30
0.0
 10
11.716081
 20
2.257266
 30
0.0
 10
11.627197
 20
2.257266
 30
0.0
 10
11.537797
 20
2.257266
 30
0.0
 10
11.448913
 20
2.257266
 30
0.0
 10
11.345560
 20
1.984428
 30
0.0
 10
11.242208
 20
1.711563
 30
0.0
 10
11.218437
 20
1.648513
 30
0.0
  0
LWPOLYLINE
  5
10e
100
AcDbEntity
  8
Layer_1
 62
7
100
AcDbPolyline
 90
50
 70
1
 10
12.551032
 20
2.257330
 30
0.0
 10
12.643642
 20
2.257330
 30
0.0
 10
12.736312
 20
2.257330
 30
0.0
 10
12.828852
 20
2.257330
 30
0.0
 10
12.921552
 20
2.257330
 30
0.0
 10
13.014172
 20
2.257330
 30
0.0
 10
13.107062
 20
2.071830
 30
0.0
 10
13.200012
 20
1.886220
 30
0.0
 10
13.292922
 20
1.700670
 30
0.0
 10
13.385852
 20
1.515070
 30
0.0
 10
13.478712
 20
1.329650
 30
0.0
 10
13.477862
 20
1.515150
 30
0.0
 10
13.477012
 20
1.700760
 30
0.0
 10
13.476172
 20
1.886310
 30
0.0
 10
13.475322
 20
2.071890
 30
0.0
 10
13.474472
 20
2.257330
 30
0.0
 10
13.540862
 20
2.257330
 30
0.0
 10
13.607292
 20
2.257330
 30
0.0
 10
13.673632
 20
2.257330
 30
0.0
 10
13.740082
 20
2.257330
 30
0.0
 10
13.806482
 20
2.257330
 30
0.0
 10
13.806482
 20
1.984510
 30
0.0
 10
13.806482
 20
1.711540
 30
0.0
 10
13.806482
 20
1.438660
 30
0.0
 10
13.806482
 20
1.165720
 30
0.0
 10
13.806482
 20
0.893010
 30
0.0
 10
13.716112
 20
0.893010
 30
0.0
 10
13.625672
 20
0.893010
 30
0.0
 10
13.535362
 20
0.893010
 30
0.0
 10
13.444902
 20
0.893010
 30
0.0
 10
13.354502
 20
0.893010
 30
0.0
 10
13.258552
 20
1.079630
 30
0.0
 10
13.162532
 20
1.266360
 30
0.0
 10
13.066552
 20
1.453020
 30
0.0
 10
12.970542
 20
1.639720
 30
0.0
 10
12.874622
 20
1.826270
 30
0.0
 10
12.876852
 20
1.639660
 30
0.0
 10
12.879072
 20
1.452930
 30
0.0
 10
12.881292
 20
1.266270
 30
0.0
 10
12.883512
 20
1.079550
 30
0.0
 10
12.885742
 20
0.893010
 30
0.0
 10
12.818792
 20
0.893010
 30
0.0
 10
12.751802
 20
0.893010
 30
0.0
 10
12.684912
 20
0.893010
 30
0.0
 10
12.617892
 20
0.893010
 30
0.0
 10
12.550942
 20
0.893010
 30
0.0
 10
12.550942
 20
1.165820
 30
0.0
 10
12.550942
 20
1.438790
 30
0.0
 10
12.550942
 20
1.711680
 30
0.0
 10
12.550942
 20
1.984620
 30
0.0
  0
LWPOLYLINE
  5
10f
100
AcDbEntity
  8
Layer_1
 62
7
100
AcDbPolyline
 90
65
 70
1
 10
14.636562
 20
2.257330
 30
0.0
 10
14.751202
 20
2.257330
 30
0.0
 10
14.865922
 20
2.257330
 30
0.0
 10
14.980482
 20
2.257330
 30
0.0
 10
15.095242
 20
2.257330
 30
0.0
 10
15.209902
 20
2.257330
 30
0.0
 10
15.268202
 20
2.075730
 30
0.0
 10
15.326542
 20
1.894030
 30
0.0
 10
15.384852
 20
1.712390
 30
0.0
 10
15.443182
 20
1.530700
 30
0.0
 10
15.501462
 20
1.349180
 30
0.0
 10
15.562552
 20
1.530770
 30
0.0
 10
15.623672
 20
1.712470
 30
0.0
 10
15.684782
 20
1.894120
 30
0.0
 10
15.745902
 20
2.075800
 30
0.0
 10
15.806962
 20
2.257330
 30
0.0
 10
15.917152
 20
2.257330
 30
0.0
 10
16.027402
 20
2.257330
 30
0.0
 10
16.137502
 20
2.257330
 30
0.0
 10
16.247782
 20
2.257330
 30
0.0
 10
16.357992
 20
2.257330
 30
0.0
 10
16.357992
 20
1.984510
 30
0.0
 10
16.357992
 20
1.711540
 30
0.0
 10
16.357992
 20
1.438660
 30
0.0
 10
16.357992
 20
1.165720
 30
0.0
 10
16.357992
 20
0.893010
 30
0.0
 10
16.286862
 20
0.893010
 30
0.0
 10
16.215682
 20
0.893010
 30
0.0
 10
16.144612
 20
0.893010
 30
0.0
 10
16.073412
 20
0.893010
 30
0.0
 10
16.002262
 20
0.893010
 30
0.0
 10
16.003112
 20
1.102500
 30
0.0
 10
16.003962
 20
1.312120
 30
0.0
 10
16.004802
 20
1.521660
 30
0.0
 10
16.005652
 20
1.731250
 30
0.0
 10
16.006502
 20
1.940660
 30
0.0
 10
15.936202
 20
1.731170
 30
0.0
 10
15.865862
 20
1.521560
 30
0.0
 10
15.795552
 20
1.312020
 30
0.0
 10
15.725222
 20
1.102420
 30
0.0
 10
15.654962
 20
0.893010
 30
0.0
 10
15.588012
 20
0.893010
 30
0.0
 10
15.521022
 20
0.893010
 30
0.0
 10
15.454132
 20
0.893010
 30
0.0
 10
15.387112
 20
0.893010
 30
0.0
 10
15.320162
 20
0.893010
 30
0.0
 10
15.253492
 20
1.102500
 30
0.0
 10
15.186782
 20
1.312120
 30
0.0
 10
15.120092
 20
1.521660
 30
0.0
 10
15.053392
 20
1.731250
 30
0.0
 10
14.986752
 20
1.940660
 30
0.0
 10
14.988132
 20
1.731170
 30
0.0
 10
14.989502
 20
1.521560
 30
0.0
 10
14.990882
 20
1.312020
 30
0.0
 10
14.992252
 20
1.102420
 30
0.0
 10
14.993632
 20
0.893010
 30
0.0
 10
14.922222
 20
0.893010
 30
0.0
 10
14.850772
 20
0.893010
 30
0.0
 10
14.779412
 20
0.893010
 30
0.0
 10
14.707932
 20
0.893010
 30
0.0
 10
14.636512
 20
0.893010
 30
0.0
 10
14.636512
 20
1.165820
 30
0.0
 10
14.636512
 20
1.438790
 30
0.0
 10
14.636512
 20
1.711680
 30
0.0
 10
14.636512
 20
1.984620
 30
0.0
  0
LWPOLYLINE
  5
110
100
AcDbEntity
  8
Layer_1
 62
7
100
AcDbPolyline
 90
42
 70
1
 10
16.712822
 20
1.046830
 30
0.0
 10
16.660512
 20
0.909510
 30
0.0
 10
16.556702
 20
0.636770
 30
0.0
 10
16.452892
 20
0.363770
 30
0.0
 10
16.526732
 20
0.363770
 30
0.0
 10
16.600842
 20
0.363770
 30
0.0
 10
16.674672
 20
0.363770
 30
0.0
 10
16.748512
 20
0.363770
 30
0.0
 10
16.822622
 20
0.363770
 30
0.0
 10
16.844422
 20
0.422070
 30
0.0
 10
16.866212
 20
0.480110
 30
0.0
 10
16.887742
 20
0.538140
 30
0.0
 10
16.909542
 20
0.595900
 30
0.0
 10
16.931332
 20
0.653940
 30
0.0
 10
17.034052
 20
0.653940
 30
0.0
 10
17.136772
 20
0.653940
 30
0.0
 10
17.239212
 20
0.653940
 30
0.0
 10
17.341932
 20
0.653940
 30
0.0
 10
17.444652
 20
0.653940
 30
0.0
 10
17.465082
 20
0.595900
 30
0.0
 10
17.485522
 20
0.537870
 30
0.0
 10
17.505962
 20
0.479840
 30
0.0
 10
17.526122
 20
0.421800
 30
0.0
 10
17.546552
 20
0.363770
 30
0.0
 10
17.626662
 20
0.363770
 30
0.0
 10
17.706762
 20
0.363770
 30
0.0
 10
17.786862
 20
0.363770
 30
0.0
 10
17.866972
 20
0.363770
 30
0.0
 10
17.946802
 20
0.363770
 30
0.0
 10
17.841632
 20
0.636500
 30
0.0
 10
17.735922
 20
0.909510
 30
0.0
 10
17.682792
 20
1.046830
 30
0.0
 10
17.316602
 20
1.046830
 30
0.0
 10
17.325052
 20
1.019310
 30
0.0
 10
17.358302
 20
0.911960
 30
0.0
 10
17.289632
 20
0.911960
 30
0.0
 10
17.220972
 20
0.911960
 30
0.0
 10
17.152312
 20
0.911960
 30
0.0
 10
17.083662
 20
0.911960
 30
0.0
 10
17.014992
 20
0.911960
 30
0.0
 10
17.050422
 20
1.019310
 30
0.0
 10
17.059402
 20
1.046830
 30
0.0
  0
LWPOLYLINE
  5
111
100
AcDbEntity
  8
Layer_1
 62
7
100
AcDbPolyline
 90
21
 70
1
 10
16.712822
 20
1.576000
 30
0.0
 10
17.059392
 20
1.576000
 30
0.0
 10
17.085822
 20
1.655560
 30
0.0
 10
17.121242
 20
1.762630
 30
0.0
 10
17.156662
 20
1.869710
 30
0.0
 10
17.192082
 20
1.977060
 30
0.0
 10
17.225322
 20
1.869710
 30
0.0
 10
17.258562
 20
1.762630
 30
0.0
 10
17.291812
 20
1.655560
 30
0.0
 10
17.316602
 20
1.576000
 30
0.0
 10
17.682792
 20
1.576000
 30
0.0
 10
17.630482
 20
1.711410
 30
0.0
 10
17.525032
 20
1.984410
 30
0.0
 10
17.419592
 20
2.257420
 30
0.0
 10
17.329952
 20
2.257420
 30
0.0
 10
17.240312
 20
2.257420
 30
0.0
 10
17.150942
 20
2.257420
 30
0.0
 10
17.061302
 20
2.257420
 30
0.0
 10
16.971662
 20
2.257420
 30
0.0
 10
16.868132
 20
1.984690
 30
0.0
 10
16.764322
 20
1.711680
 30
0.0
  0
LWPOLYLINE
  5
112
100
AcDbEntity
  8
Layer_1
 62
7
100
AcDbPolyline
 90
27
 70
1
 10
18.086302
 20
0.942750
 30
0.0
 10
18.086302
 20
0.909510
 30
0.0
 10
18.086302
 20
0.636780
 30
0.0
 10
18.086302
 20
0.363770
 30
0.0
 10
18.185742
 20
0.363770
 30
0.0
 10
18.285192
 20
0.363770
 30
0.0
 10
18.384372
 20
0.363770
 30
0.0
 10
18.483822
 20
0.363770
 30
0.0
 10
18.582992
 20
0.363770
 30
0.0
 10
18.826032
 20
0.381180
 30
0.0
 10
19.059532
 20
0.449030
 30
0.0
 10
19.252972
 20
0.594250
 30
0.0
 10
19.362772
 20
0.810040
 30
0.0
 10
19.378852
 20
0.942720
 30
0.0
 10
18.999042
 20
0.942720
 30
0.0
 10
18.996342
 20
0.917110
 30
0.0
 10
18.946212
 20
0.791780
 30
0.0
 10
18.851392
 20
0.696690
 30
0.0
 10
18.726062
 20
0.646580
 30
0.0
 10
18.591462
 20
0.632930
 30
0.0
 10
18.563402
 20
0.635570
 30
0.0
 10
18.535612
 20
0.637690
 30
0.0
 10
18.507822
 20
0.639810
 30
0.0
 10
18.479762
 20
0.641920
 30
0.0
 10
18.451972
 20
0.644040
 30
0.0
 10
18.451972
 20
0.809150
 30
0.0
 10
18.451972
 20
0.942660
 30
0.0
  0
LWPOLYLINE
  5
113
100
AcDbEntity
  8
Layer_1
 62
7
100
AcDbPolyline
 90
36
 70
1
 10
18.086302
 20
1.471920
 30
0.0
 10
18.451942
 20
1.471920
 30
0.0
 10
18.451942
 20
1.503770
 30
0.0
 10
18.451942
 20
1.668880
 30
0.0
 10
18.451942
 20
1.833990
 30
0.0
 10
18.451942
 20
1.999100
 30
0.0
 10
18.479732
 20
1.999100
 30
0.0
 10
18.507522
 20
1.999100
 30
0.0
 10
18.535582
 20
1.999100
 30
0.0
 10
18.563382
 20
1.999100
 30
0.0
 10
18.591442
 20
1.999100
 30
0.0
 10
18.659282
 20
2.000690
 30
0.0
 10
18.726312
 20
1.990320
 30
0.0
 10
18.790612
 20
1.967720
 30
0.0
 10
18.849462
 20
1.934490
 30
0.0
 10
18.901502
 20
1.890890
 30
0.0
 10
18.945092
 20
1.838820
 30
0.0
 10
18.978602
 20
1.779700
 30
0.0
 10
19.000942
 20
1.715400
 30
0.0
 10
19.011572
 20
1.648370
 30
0.0
 10
19.009932
 20
1.580530
 30
0.0
 10
18.999042
 20
1.471810
 30
0.0
 10
19.378852
 20
1.471810
 30
0.0
 10
19.392202
 20
1.580530
 30
0.0
 10
19.363592
 20
1.821380
 30
0.0
 10
19.254332
 20
2.036360
 30
0.0
 10
19.059252
 20
2.178040
 30
0.0
 10
18.825482
 20
2.241520
 30
0.0
 10
18.582992
 20
2.257340
 30
0.0
 10
18.483812
 20
2.257340
 30
0.0
 10
18.384372
 20
2.257340
 30
0.0
 10
18.285192
 20
2.257340
 30
0.0
 10
18.185742
 20
2.257340
 30
0.0
 10
18.086292
 20
2.257340
 30
0.0
 10
18.086292
 20
1.984610
 30
0.0
 10
18.086292
 20
1.711600
 30
0.0
  0
LWPOLYLINE
  5
114
100
AcDbEntity
  8
Layer_1
 62
7
100
AcDbPolyline
 90
60
 70
1
 10
19.541382
 20
2.257330
 30
0.0
 10
19.733852
 20
2.257330
 30
0.0
 10
19.926442
 20
2.257330
 30
0.0
 10
20.118962
 20
2.257330
 30
0.0
 10
20.311532
 20
2.257330
 30
0.0
 10
20.503932
 20
2.257330
 30
0.0
 10
20.503932
 20
2.205730
 30
0.0
 10
20.503932
 20
2.154240
 30
0.0
 10
20.503932
 20
2.102650
 30
0.0
 10
20.503932
 20
2.051060
 30
0.0
 10
20.503932
 20
1.999250
 30
0.0
 10
20.384262
 20
1.999250
 30
0.0
 10
20.264522
 20
1.999250
 30
0.0
 10
20.144942
 20
1.999250
 30
0.0
 10
20.025162
 20
1.999250
 30
0.0
 10
19.905472
 20
1.999250
 30
0.0
 10
19.905472
 20
1.943180
 30
0.0
 10
19.905472
 20
1.887220
 30
0.0
 10
19.905472
 20
1.831160
 30
0.0
 10
19.905472
 20
1.775140
 30
0.0
 10
19.905472
 20
1.718860
 30
0.0
 10
20.018452
 20
1.718860
 30
0.0
 10
20.131492
 20
1.718860
 30
0.0
 10
20.244372
 20
1.718860
 30
0.0
 10
20.357462
 20
1.718860
 30
0.0
 10
20.470452
 20
1.718860
 30
0.0
 10
20.470452
 20
1.666950
 30
0.0
 10
20.470452
 20
1.615140
 30
0.0
 10
20.470452
 20
1.563280
 30
0.0
 10
20.470452
 20
1.511420
 30
0.0
 10
20.470452
 20
1.459350
 30
0.0
 10
20.357482
 20
1.459350
 30
0.0
 10
20.244432
 20
1.459350
 30
0.0
 10
20.131552
 20
1.459350
 30
0.0
 10
20.018472
 20
1.459350
 30
0.0
 10
19.905472
 20
1.459350
 30
0.0
 10
19.905472
 20
1.397710
 30
0.0
 10
19.905472
 20
1.336180
 30
0.0
 10
19.905472
 20
1.274540
 30
0.0
 10
19.905472
 20
1.212780
 30
0.0
 10
19.905472
 20
1.151060
 30
0.0
 10
20.029602
 20
1.151060
 30
0.0
 10
20.153812
 20
1.151060
 30
0.0
 10
20.277852
 20
1.151060
 30
0.0
 10
20.402102
 20
1.151060
 30
0.0
 10
20.526252
 20
1.151060
 30
0.0
 10
20.526252
 20
1.099460
 30
0.0
 10
20.526252
 20
1.047970
 30
0.0
 10
20.526252
 20
0.996380
 30
0.0
 10
20.526252
 20
0.944790
 30
0.0
 10
20.526252
 20
0.892980
 30
0.0
 10
20.329312
 20
0.892980
 30
0.0
 10
20.132262
 20
0.892980
 30
0.0
 10
19.935272
 20
0.892980
 30
0.0
 10
19.738242
 20
0.892980
 30
0.0
 10
19.541382
 20
0.892980
 30
0.0
 10
19.541382
 20
1.165790
 30
0.0
 10
19.541382
 20
1.438760
 30
0.0
 10
19.541382
 20
1.711640
 30
0.0
 10
19.541382
 20
1.984590
 30
0.0
  0
LWPOLYLINE
  5
115
100
AcDbEntity
  8
Layer_1
 62
7
100
AcDbPolyline
 90
59
 70
1
 10
20.884742
 20
0.777090
 30
0.0
 10
20.884742
 20
0.733490
 30
0.0
 10
20.884742
 20
0.649840
 30
0.0
 10
20.884742
 20
0.566200
 30
0.0
 10
20.884742
 20
0.482280
 30
0.0
 10
20.898642
 20
0.483860
 30
0.0
 10
20.912272
 20
0.484920
 30
0.0
 10
20.925902
 20
0.485980
 30
0.0
 10
20.939522
 20
0.487040
 30
0.0
 10
20.953152
 20
0.488100
 30
0.0
 10
20.953152
 20
0.524610
 30
0.0
 10
20.953152
 20
0.561120
 30
0.0
 10
20.953152
 20
0.597630
 30
0.0
 10
20.953152
 20
0.634410
 30
0.0
 10
20.953152
 20
0.670920
 30
0.0
 10
20.964592
 20
0.670920
 30
0.0
 10
20.976032
 20
0.670920
 30
0.0
 10
20.987472
 20
0.670920
 30
0.0
 10
20.998642
 20
0.670920
 30
0.0
 10
21.010372
 20
0.670920
 30
0.0
 10
21.033532
 20
0.634150
 30
0.0
 10
21.056692
 20
0.597900
 30
0.0
 10
21.079842
 20
0.561390
 30
0.0
 10
21.103012
 20
0.524610
 30
0.0
 10
21.126162
 20
0.488100
 30
0.0
 10
21.140332
 20
0.488100
 30
0.0
 10
21.154502
 20
0.488100
 30
0.0
 10
21.168942
 20
0.488100
 30
0.0
 10
21.183112
 20
0.488100
 30
0.0
 10
21.197282
 20
0.488100
 30
0.0
 10
21.173572
 20
0.524610
 30
0.0
 10
21.149862
 20
0.561120
 30
0.0
 10
21.126162
 20
0.597630
 30
0.0
 10
21.102452
 20
0.634410
 30
0.0
 10
21.078752
 20
0.670920
 30
0.0
 10
21.096462
 20
0.671980
 30
0.0
 10
21.113632
 20
0.676210
 30
0.0
 10
21.129972
 20
0.682780
 30
0.0
 10
21.144962
 20
0.692300
 30
0.0
 10
21.158312
 20
0.704260
 30
0.0
 10
21.169202
 20
0.718180
 30
0.0
 10
21.177652
 20
0.733740
 30
0.0
 10
21.183372
 20
0.750350
 30
0.0
 10
21.186382
 20
0.767810
 30
0.0
 10
21.186102
 20
0.777600
 30
0.0
 10
21.118532
 20
0.777600
 30
0.0
 10
21.116102
 20
0.756910
 30
0.0
 10
21.103562
 20
0.735640
 30
0.0
 10
21.082032
 20
0.723100
 30
0.0
 10
21.057782
 20
0.718340
 30
0.0
 10
21.032712
 20
0.717280
 30
0.0
 10
21.016642
 20
0.717280
 30
0.0
 10
21.000842
 20
0.717280
 30
0.0
 10
20.984762
 20
0.717280
 30
0.0
 10
20.968962
 20
0.717280
 30
0.0
 10
20.953162
 20
0.717280
 30
0.0
 10
20.953162
 20
0.742360
 30
0.0
 10
20.953162
 20
0.767440
 30
0.0
 10
20.953162
 20
0.777550
 30
0.0
  0
LWPOLYLINE
  5
116
100
AcDbEntity
  8
Layer_1
 62
7
100
AcDbPolyline
 90
29
 70
1
 10
20.884742
 20
1.306260
 30
0.0
 10
20.953132
 20
1.306260
 30
0.0
 10
20.953132
 20
1.321240
 30
0.0
 10
20.953132
 20
1.346320
 30
0.0
 10
20.953132
 20
1.371400
 30
0.0
 10
20.968932
 20
1.371400
 30
0.0
 10
20.985012
 20
1.371400
 30
0.0
 10
21.000812
 20
1.371400
 30
0.0
 10
21.016612
 20
1.371400
 30
0.0
 10
21.032692
 20
1.371400
 30
0.0
 10
21.056942
 20
1.370340
 30
0.0
 10
21.080652
 20
1.365580
 30
0.0
 10
21.101902
 20
1.353830
 30
0.0
 10
21.115252
 20
1.333940
 30
0.0
 10
21.119062
 20
1.309960
 30
0.0
 10
21.118482
 20
1.306260
 30
0.0
 10
21.186072
 20
1.306260
 30
0.0
 10
21.186072
 20
1.314410
 30
0.0
 10
21.180882
 20
1.355260
 30
0.0
 10
21.161272
 20
1.391770
 30
0.0
 10
21.127752
 20
1.415740
 30
0.0
 10
21.087982
 20
1.427170
 30
0.0
 10
21.046562
 20
1.429820
 30
0.0
 10
21.014142
 20
1.429820
 30
0.0
 10
20.981992
 20
1.429820
 30
0.0
 10
20.949572
 20
1.429820
 30
0.0
 10
20.917152
 20
1.429820
 30
0.0
 10
20.884722
 20
1.429820
 30
0.0
 10
20.884722
 20
1.346170
 30
0.0
  0
LWPOLYLINE
  5
117
100
AcDbEntity
  8
Layer_1
 62
7
100
AcDbPolyline
 90
35
 70
1
 10
20.685302
 20
0.777090
 30
0.0
 10
20.671402
 20
0.686900
 30
0.0
 10
20.688572
 20
0.577920
 30
0.0
 10
20.738702
 20
0.479840
 30
0.0
 10
20.816902
 20
0.401910
 30
0.0
 10
20.915262
 20
0.351800
 30
0.0
 10
21.024242
 20
0.334650
 30
0.0
 10
21.133502
 20
0.352060
 30
0.0
 10
21.231862
 20
0.402760
 30
0.0
 10
21.309782
 20
0.481220
 30
0.0
 10
21.359922
 20
0.579580
 30
0.0
 10
21.377082
 20
0.688840
 30
0.0
 10
21.362922
 20
0.777120
 30
0.0
 10
21.326952
 20
0.777120
 30
0.0
 10
21.328862
 20
0.772880
 30
0.0
 10
21.340572
 20
0.702310
 30
0.0
 10
21.335392
 20
0.630930
 30
0.0
 10
21.313322
 20
0.562810
 30
0.0
 10
21.275992
 20
0.501780
 30
0.0
 10
21.225042
 20
0.451090
 30
0.0
 10
21.164012
 20
0.414040
 30
0.0
 10
21.095622
 20
0.392510
 30
0.0
 10
21.024242
 20
0.387740
 30
0.0
 10
20.978192
 20
0.391980
 30
0.0
 10
20.933242
 20
0.403140
 30
0.0
 10
20.890462
 20
0.421660
 30
0.0
 10
20.851502
 20
0.446480
 30
0.0
 10
20.816892
 20
0.477540
 30
0.0
 10
20.788012
 20
0.513530
 30
0.0
 10
20.764862
 20
0.553850
 30
0.0
 10
20.748782
 20
0.597450
 30
0.0
 10
20.739792
 20
0.642960
 30
0.0
 10
20.738152
 20
0.689260
 30
0.0
 10
20.746872
 20
0.760370
 30
0.0
 10
20.753422
 20
0.777520
 30
0.0
  0
LWPOLYLINE
  5
118
100
AcDbEntity
  8
Layer_1
 62
7
100
AcDbPolyline
 90
24
 70
1
 10
20.685302
 20
1.306260
 30
0.0
 10
20.753422
 20
1.306260
 30
0.0
 10
20.771942
 20
1.356110
 30
0.0
 10
20.812262
 20
1.415230
 30
0.0
 10
20.865122
 20
1.463440
 30
0.0
 10
20.928062
 20
1.497520
 30
0.0
 10
20.997272
 20
1.516040
 30
0.0
 10
21.068922
 20
1.517620
 30
0.0
 10
21.138672
 20
1.502120
 30
0.0
 10
21.202972
 20
1.470790
 30
0.0
 10
21.258282
 20
1.425020
 30
0.0
 10
21.300792
 20
1.367800
 30
0.0
 10
21.326942
 20
1.306230
 30
0.0
 10
21.362912
 20
1.306230
 30
0.0
 10
21.359622
 20
1.326920
 30
0.0
 10
21.309222
 20
1.425000
 30
0.0
 10
21.230752
 20
1.502920
 30
0.0
 10
21.132392
 20
1.552770
 30
0.0
 10
21.023402
 20
1.569390
 30
0.0
 10
20.914422
 20
1.551930
 30
0.0
 10
20.816332
 20
1.501810
 30
0.0
 10
20.738412
 20
1.423340
 30
0.0
 10
20.688282
 20
1.325260
 30
0.0
 10
20.685262
 20
1.306210
 30
0.0
  0
LWPOLYLINE
  5
119
100
AcDbEntity
  8
Layer_1
 62
7
100
AcDbPolyline
 90
42
 70
1
 10
1.633466
 20
1.038110
 30
0.0
 10
1.584706
 20
0.909510
 30
0.0
 10
1.480896
 20
0.636770
 30
0.0
 10
1.377086
 20
0.363770
 30
0.0
 10
1.450646
 20
0.363770
 30
0.0
 10
1.523946
 20
0.363770
 30
0.0
 10
1.597236
 20
0.363770
 30
0.0
 10
1.670796
 20
0.363770
 30
0.0
 10
1.744086
 20
0.363770
 30
0.0
 10
1.766166
 20
0.422070
 30
0.0
 10
1.788236
 20
0.480110
 30
0.0
 10
1.810306
 20
0.538140
 30
0.0
 10
1.832375
 20
0.595900
 30
0.0
 10
1.854175
 20
0.653940
 30
0.0
 10
1.956616
 20
0.653940
 30
0.0
 10
2.059066
 20
0.653940
 30
0.0
 10
2.161505
 20
0.653940
 30
0.0
 10
2.263956
 20
0.653940
 30
0.0
 10
2.366395
 20
0.653940
 30
0.0
 10
2.386555
 20
0.595900
 30
0.0
 10
2.406995
 20
0.537870
 30
0.0
 10
2.427435
 20
0.479840
 30
0.0
 10
2.447865
 20
0.421800
 30
0.0
 10
2.468025
 20
0.363770
 30
0.0
 10
2.548135
 20
0.363770
 30
0.0
 10
2.628235
 20
0.363770
 30
0.0
 10
2.708345
 20
0.363770
 30
0.0
 10
2.788445
 20
0.363770
 30
0.0
 10
2.868545
 20
0.363770
 30
0.0
 10
2.763375
 20
0.636500
 30
0.0
 10
2.658205
 20
0.909510
 30
0.0
 10
2.608615
 20
1.038110
 30
0.0
 10
2.241325
 20
1.038110
 30
0.0
 10
2.247045
 20
1.019320
 30
0.0
 10
2.279746
 20
0.911970
 30
0.0
 10
2.211356
 20
0.911970
 30
0.0
 10
2.142976
 20
0.911970
 30
0.0
 10
2.074586
 20
0.911970
 30
0.0
 10
2.006465
 20
0.911970
 30
0.0
 10
1.938076
 20
0.911970
 30
0.0
 10
1.973776
 20
1.019320
 30
0.0
 10
1.980035
 20
1.038110
 30
0.0
  0
LWPOLYLINE
  5
11a
100
AcDbEntity
  8
Layer_1
 62
7
100
AcDbPolyline
 90
21
 70
1
 10
1.633466
 20
1.567280
 30
0.0
 10
1.980035
 20
1.567280
 30
0.0
 10
2.009465
 20
1.655560
 30
0.0
 10
2.045155
 20
1.762630
 30
0.0
 10
2.080855
 20
1.869710
 30
0.0
 10
2.116546
 20
1.977060
 30
0.0
 10
2.149236
 20
1.869710
 30
0.0
 10
2.181935
 20
1.762630
 30
0.0
 10
2.214355
 20
1.655560
 30
0.0
 10
2.241335
 20
1.567280
 30
0.0
 10
2.608605
 20
1.567280
 30
0.0
 10
2.553025
 20
1.711410
 30
0.0
 10
2.447585
 20
1.984410
 30
0.0
 10
2.342416
 20
2.257420
 30
0.0
 10
2.253316
 20
2.257420
 30
0.0
 10
2.163955
 20
2.257420
 30
0.0
 10
2.074855
 20
2.257420
 30
0.0
 10
1.985486
 20
2.257420
 30
0.0
 10
1.896125
 20
2.257420
 30
0.0
 10
1.792316
 20
1.984690
 30
0.0
 10
1.688506
 20
1.711680
 30
0.0
  0
ENDSEC
  0
SECTION
  2
OBJECTS
  0
DICTIONARY
  5
C
330
0
100
AcDbDictionary
  3
ACAD_GROUP
350
D
  3
ACAD_MLINESTYLE
350
17
  0
DICTIONARY
  5
D
330
C
100
AcDbDictionary
  0
DICTIONARY
  5
1A
330
C
100
AcDbDictionary
  0
DICTIONARY
  5
17
330
C
100
AcDbDictionary
  3
STANDARD
350
18
  0
DICTIONARY
  5
19
330
C
100
AcDbDictionary
  0
ENDSEC
  0
EOF
