<?xml version="1.0" encoding="UTF-8" standalone="no"?>
<!-- Created with Inkscape (http://www.inkscape.org/) -->

<svg
   xmlns:dc="http://purl.org/dc/elements/1.1/"
   xmlns:cc="http://creativecommons.org/ns#"
   xmlns:rdf="http://www.w3.org/1999/02/22-rdf-syntax-ns#"
   xmlns:svg="http://www.w3.org/2000/svg"
   xmlns="http://www.w3.org/2000/svg"
   xmlns:sodipodi="http://sodipodi.sourceforge.net/DTD/sodipodi-0.dtd"
   xmlns:inkscape="http://www.inkscape.org/namespaces/inkscape"
   width="10.00071mm"
   height="9.3382397mm"
   viewBox="0 0 10.00071 9.3382397"
   version="1.1"
   id="svg880"
   inkscape:version="0.92.2 (5c3e80d, 2017-08-06)"
   sodipodi:docname="Australian_Made3.svg">
  <defs
     id="defs874" />
  <sodipodi:namedview
     id="base"
     pagecolor="#ffffff"
     bordercolor="#666666"
     borderopacity="1.0"
     inkscape:pageopacity="0.0"
     inkscape:pageshadow="2"
     inkscape:zoom="5.6"
     inkscape:cx="-13.68982"
     inkscape:cy="5.562221"
     inkscape:document-units="mm"
     inkscape:current-layer="layer1"
     showgrid="false"
     fit-margin-top="0"
     fit-margin-left="0"
     fit-margin-right="0"
     fit-margin-bottom="0"
     inkscape:window-width="2560"
     inkscape:window-height="1017"
     inkscape:window-x="-8"
     inkscape:window-y="-8"
     inkscape:window-maximized="1" />
  <metadata
     id="metadata877">
    <rdf:RDF>
      <cc:Work
         rdf:about="">
        <dc:format>image/svg+xml</dc:format>
        <dc:type
           rdf:resource="http://purl.org/dc/dcmitype/StillImage" />
        <dc:title></dc:title>
      </cc:Work>
    </rdf:RDF>
  </metadata>
  <g
     inkscape:label="Layer 1"
     inkscape:groupmode="layer"
     id="layer1"
     transform="translate(-160.55378,-166.84284)">
    <path
       style="fill:#000000;fill-opacity:1;fill-rule:evenodd;stroke:none;stroke-width:0.06975002;stroke-opacity:1"
       d="m 165.41959,172.97417 h -3.59403 l -0.0336,0.0589 -0.29617,0.51835 -0.29616,0.51822 -0.29617,0.51823 -0.29616,0.51835 -2.7e-4,2.7e-4 -2.8e-4,5.3e-4 -2.7e-4,5.3e-4 -2.7e-4,5.3e-4 -2.7e-4,2.6e-4 h 0.97663 0.97637 0.9765 0.9765 0.9765 c 0,0 -0.0144,-0.0233 -0.0388,-0.0625 -0.0111,-0.0178 -0.0243,-0.0388 -0.0391,-0.0624 -0.012,-0.0192 -0.0251,-0.0402 -0.0391,-0.0624 -0.0125,-0.0198 -0.0257,-0.0406 -0.0394,-0.0623 -0.0128,-0.0201 -0.0261,-0.041 -0.0396,-0.0623 -0.0347,-0.0542 -0.0686,-0.1046 -0.10108,-0.15231 -0.0364,-0.0534 -0.071,-0.10336 -0.10285,-0.15121 -0.0359,-0.0539 -0.0684,-0.10522 -0.0961,-0.15571 -0.0306,-0.0559 -0.0554,-0.11074 -0.0726,-0.16743 -0.0174,-0.0574 -0.027,-0.11655 -0.027,-0.18023 -2.6e-4,-0.0482 0.006,-0.0959 0.018,-0.14237 0.0116,-0.0465 0.0281,-0.0919 0.0477,-0.13554 0.0199,-0.0444 0.0428,-0.0871 0.0668,-0.12738 0.0256,-0.0432 0.0524,-0.0838 0.0776,-0.12097 0.0306,-0.045 0.0591,-0.085 0.0808,-0.11893 0.019,-0.0297 0.044,-0.0691 0.0722,-0.11335 0.0226,-0.0354 0.0472,-0.074 0.0722,-0.11334 0.0241,-0.0378 0.0486,-0.0764 0.0722,-0.11334 0.007,-0.0108 0.0127,-0.0197 0.0193,-0.0301 z"
       id="path940"
       inkscape:connector-curvature="0" />
    <path
       style="fill:#000000;fill-opacity:1;fill-rule:evenodd;stroke:none;stroke-width:0.06975002;stroke-opacity:1"
       d="m 168.89102,172.97417 h -2.03161 c -0.0151,0.0228 -0.0303,0.0454 -0.045,0.0684 -0.0248,0.0388 -0.0491,0.0779 -0.0729,0.1173 -0.0238,0.0394 -0.047,0.0793 -0.0697,0.11934 -0.0227,0.04 -0.0451,0.0804 -0.0667,0.12097 -0.0217,0.0406 -0.0429,0.0814 -0.0635,0.12261 -0.008,0.0135 -0.0174,0.0263 -0.0277,0.038 -0.0104,0.0118 -0.0217,0.0226 -0.0339,0.0323 -0.0123,0.01 -0.0254,0.0185 -0.0392,0.0259 -0.0138,0.007 -0.0282,0.0135 -0.0432,0.0184 -0.0148,0.005 -0.03,0.008 -0.0456,0.0103 l 1.4e-4,5.3e-4 4.3e-4,5.3e-4 2.6e-4,5.3e-4 2.6e-4,5.3e-4 2.7e-4,5.3e-4 c -0.009,1.4e-4 -0.0178,-2.2e-4 -0.0266,-0.001 -0.009,-8e-4 -0.0177,-0.002 -0.0263,-0.004 -0.009,-0.002 -0.0171,-0.004 -0.0255,-0.007 -0.008,-0.003 -0.0166,-0.006 -0.0247,-0.01 -0.008,-0.004 -0.0157,-0.008 -0.0233,-0.0127 -0.0674,-0.0382 -0.0968,-0.0936 -0.10054,-0.15939 -0.003,-0.0575 0.013,-0.1229 0.0407,-0.19154 0.0232,-0.0574 0.0545,-0.11702 0.0888,-0.17614 0.0225,-0.0387 0.0467,-0.0761 0.0706,-0.11362 h -0.37804 c -0.001,0.002 -0.003,0.005 -0.004,0.007 l -0.0954,0.1459 -0.0954,0.14591 -0.0955,0.1459 -0.0954,0.14604 -0.0955,0.1459 c -0.008,0.0118 -0.023,0.0329 -0.0401,0.0594 -0.0118,0.0184 -0.0246,0.0392 -0.0368,0.0614 -0.0114,0.0208 -0.0222,0.0427 -0.0312,0.0646 -0.01,0.0233 -0.0168,0.0464 -0.0204,0.0684 -0.004,0.0261 -0.003,0.0503 0.006,0.0704 0.02,0.0434 0.0464,0.09 0.0797,0.14318 0.0258,0.0411 0.0557,0.0862 0.09,0.13704 0.0278,0.0412 0.0585,0.0863 0.0922,0.13583 0.0284,0.0418 0.059,0.0869 0.0918,0.13582 0.0285,0.0425 0.0587,0.088 0.0906,0.13664 0.0173,0.0265 0.0342,0.0522 0.0504,0.077 0.0176,0.0269 0.0343,0.0526 0.0503,0.077 0.018,0.0276 0.0349,0.0534 0.0504,0.077 0.0192,0.0292 0.0362,0.0551 0.0507,0.0767 0.0313,0.0467 0.0508,0.0738 0.0542,0.0738 h 0.81575 0.81548 0.81575 0.81561 0.81561 l -0.95566,-1.65236 z"
       id="path938"
       inkscape:connector-curvature="0" />
    <path
       style="fill:#000000;fill-opacity:1;fill-rule:evenodd;stroke:none;stroke-width:0.06975002;stroke-opacity:1"
       d="m 165.34466,166.84284 c 0,0 -0.25123,0.43461 -0.60922,1.05456 -0.18177,0.31478 -0.39113,0.67745 -0.60895,1.05511 -0.20039,0.34745 -0.40801,0.70763 -0.60813,1.05524 -0.21753,0.37784 -0.42621,0.74073 -0.60704,1.05606 -0.35434,0.61785 -0.6019,1.05308 -0.6001,1.05987 0,0 0.0797,0.0543 0.20612,0.11661 0.0625,0.0308 0.13648,0.0634 0.21797,0.0925 0.0711,0.0254 0.14785,0.048 0.22777,0.064 0.0764,0.0154 0.15554,0.0248 0.23527,0.0251 0.0784,2.2e-4 0.15722,-0.008 0.23446,-0.029 0.0574,-0.0156 0.10917,-0.0312 0.15598,-0.0469 0.0576,-0.0193 0.10769,-0.0386 0.15203,-0.058 0.0566,-0.0248 0.10385,-0.0496 0.14468,-0.0745 0.0519,-0.0317 0.0937,-0.0635 0.13187,-0.0954 0.0425,-0.0354 0.0806,-0.0708 0.12343,-0.10612 0.0466,-0.0384 0.14121,-0.13927 0.27069,-0.2617 0.0818,-0.0774 0.17752,-0.16329 0.2839,-0.24739 0.0954,-0.0754 0.1993,-0.14943 0.30938,-0.21443 0.10836,-0.064 0.22267,-0.11931 0.34071,-0.15885 0.12015,-0.0402 0.24417,-0.0642 0.3696,-0.0642 0.10881,0 0.20946,0.0185 0.30202,0.0501 0.0998,0.0341 0.19024,0.0837 0.27151,0.14196 0.0859,0.0616 0.16145,0.13301 0.22696,0.20652 0.074,0.0831 0.13532,0.16878 0.18391,0.24603 0.096,0.15255 0.14277,0.27192 0.14277,0.27192 0.005,0.01 0.009,0.0204 0.0117,0.0309 0.003,0.0106 0.005,0.0214 0.007,0.0323 0.001,0.0109 0.002,0.0218 0.002,0.0328 -3.4e-4,0.0109 -0.002,0.0219 -0.004,0.0327 -0.002,0.0108 -0.005,0.0215 -0.009,0.0319 -0.004,0.0104 -0.008,0.0204 -0.0138,0.03 -0.005,0.01 -0.0114,0.0189 -0.0181,0.0275 -0.007,0.009 -0.0143,0.0168 -0.0223,0.0243 -0.008,0.007 -0.0166,0.0143 -0.0257,0.0204 -0.009,0.006 -0.0186,0.0115 -0.0286,0.0162 -0.026,0.0135 -0.0505,0.0216 -0.0734,0.0252 -0.028,0.004 -0.0537,0.002 -0.0772,-0.004 -0.0256,-0.007 -0.0486,-0.0199 -0.0689,-0.0353 -0.0214,-0.0162 -0.0398,-0.0353 -0.0553,-0.0545 -0.0189,-0.0233 -0.0335,-0.0466 -0.0439,-0.0643 -0.0125,-0.0213 -0.044,-0.0879 -0.0936,-0.16974 -0.0301,-0.0497 -0.0669,-0.10502 -0.11021,-0.15925 -0.0393,-0.0492 -0.084,-0.0974 -0.13392,-0.13978 -0.0493,-0.0418 -0.10367,-0.078 -0.16307,-0.10339 -0.0581,-0.0249 -0.12092,-0.0395 -0.1884,-0.0395 -0.11212,0 -0.22077,0.0244 -0.32723,0.0673 -0.0992,0.04 -0.1965,0.0961 -0.29289,0.16335 -0.0882,0.0615 -0.17554,0.13258 -0.26293,0.20925 -0.0821,0.072 -0.16428,0.149 -0.24698,0.22805 -0.0801,0.0766 -0.16075,0.15501 -0.24263,0.23254 -0.0558,0.053 -0.11713,0.10069 -0.18173,0.14318 -0.0649,0.0427 -0.13301,0.0801 -0.20217,0.11293 -0.0713,0.0338 -0.14384,0.0625 -0.21483,0.0867 -0.0771,0.0262 -0.15247,0.047 -0.22301,0.0628 -0.0852,0.0191 -0.16337,0.031 -0.22873,0.0367 -0.008,0.001 -0.0162,0.002 -0.0242,0.002 -0.008,5.3e-4 -0.0163,0.001 -0.0244,0.002 -0.008,2.6e-4 -0.0164,5.3e-4 -0.0245,7.9e-4 -0.008,1.6e-4 -0.0162,2.3e-4 -0.0244,2.6e-4 -0.008,4e-5 -0.0164,0 -0.0245,0 -0.08,5.3e-4 -0.15799,-0.005 -0.23322,-0.0154 -0.0799,-0.0109 -0.15677,-0.0271 -0.22928,-0.0465 -0.0797,-0.0214 -0.1543,-0.0464 -0.22234,-0.0729 -0.0813,-0.0316 -0.15313,-0.0651 -0.21334,-0.0959 -0.12696,-0.065 -0.20176,-0.11825 -0.20176,-0.11825 l -0.26251,0.45924 H 165.42 c 0.0185,-0.0289 0.0372,-0.0581 0.0533,-0.0831 0.0331,-0.0514 0.0596,-0.0922 0.0734,-0.11252 0.0148,-0.0218 0.0332,-0.0494 0.0552,-0.077 0.019,-0.0239 0.0407,-0.0479 0.0652,-0.0681 0.0245,-0.0202 0.0519,-0.0367 0.0822,-0.0459 0.0285,-0.009 0.0597,-0.0108 0.0934,-0.003 0.027,0.006 0.0558,0.0181 0.0862,0.038 0.0268,0.0174 0.047,0.0358 0.0621,0.0546 0.0194,0.0243 0.0301,0.0493 0.0345,0.0745 0.005,0.0277 0.002,0.0554 -0.005,0.0821 -0.007,0.027 -0.0189,0.053 -0.0317,0.0767 -0.0133,0.0245 -0.0275,0.0455 -0.0396,0.0639 h 0.37804 c 0.0114,-0.0179 0.0224,-0.0369 0.0337,-0.0542 0.0391,-0.0604 0.0765,-0.11704 0.10599,-0.16647 0.0233,-0.0409 0.0485,-0.0806 0.0755,-0.11893 0.0271,-0.0385 0.0558,-0.0755 0.0864,-0.11116 0.0305,-0.0357 0.0628,-0.0698 0.0966,-0.10245 0.0338,-0.0326 0.069,-0.0636 0.10585,-0.0929 0.0366,-0.0292 0.0749,-0.0566 0.11429,-0.0823 0.0329,-0.0203 0.0667,-0.0389 0.10136,-0.0555 0.0348,-0.0166 0.0705,-0.0313 0.1068,-0.044 0.0363,-0.0127 0.0734,-0.0235 0.1109,-0.0323 0.0375,-0.009 0.0756,-0.0155 0.11388,-0.0202 0.0382,-0.005 0.0766,-0.007 0.11526,-0.008 0,0 -0.0159,-0.0234 -0.0387,-0.0573 -0.0115,-0.017 -0.0247,-0.0367 -0.0386,-0.0574 -0.0126,-0.0187 -0.0256,-0.0382 -0.0384,-0.0574 -0.0134,-0.0201 -0.0265,-0.0398 -0.0383,-0.0576 -0.0157,-0.0237 -0.0291,-0.0439 -0.0379,-0.0576 -0.0106,-0.0165 -0.0211,-0.0396 -0.0287,-0.0661 -0.006,-0.0219 -0.0107,-0.0462 -0.0116,-0.0711 -8.2e-4,-0.0237 0.001,-0.0479 0.008,-0.0714 0.007,-0.0224 0.0171,-0.0441 0.033,-0.0638 0.0139,-0.0173 0.0319,-0.0331 0.0548,-0.0465 0.0395,-0.0239 0.0762,-0.0362 0.11007,-0.0395 0.0418,-0.004 0.0795,0.005 0.11348,0.0237 0.0335,0.018 0.0635,0.0444 0.0903,0.0745 0.0263,0.0294 0.0496,0.0624 0.0704,0.0943 0.024,0.0367 0.0447,0.0721 0.0628,0.0994 0.0158,0.0239 0.0346,0.0524 0.0548,0.0832 0.0174,0.0266 0.0359,0.0549 0.0545,0.0835 0.0183,0.0281 0.0366,0.0566 0.0542,0.0838 0.0194,0.03 0.0378,0.0585 0.0539,0.0838 0.0239,0.0373 0.0429,0.0674 0.0533,0.0842 0.0101,0.0165 0.0282,0.0397 0.0471,0.0678 0.0143,0.0212 0.0292,0.0453 0.0413,0.0715 0.0113,0.0245 0.0204,0.0509 0.0245,0.0786 0.004,0.0264 0.004,0.0538 -0.004,0.082 -0.006,0.0245 -0.0172,0.0495 -0.0347,0.0746 -0.0183,0.0263 -0.0387,0.0458 -0.0602,0.0602 -0.0251,0.0168 -0.0517,0.0264 -0.079,0.0311 -0.0283,0.005 -0.0572,0.004 -0.0854,7.9e-4 -0.0291,-0.004 -0.0575,-0.0105 -0.0838,-0.0178 -0.031,-0.009 -0.0591,-0.0181 -0.0821,-0.024 -0.0243,-0.009 -0.049,-0.0161 -0.074,-0.0221 -0.025,-0.006 -0.0504,-0.0107 -0.0759,-0.014 -0.0255,-0.003 -0.0511,-0.005 -0.0768,-0.006 -0.0257,-5.3e-4 -0.0514,5e-5 -0.0771,0.002 -0.0256,0.002 -0.0511,0.006 -0.0764,0.0105 -0.0394,0.0102 -0.0788,0.0243 -0.11852,0.0434 -0.0357,0.0172 -0.0716,0.0386 -0.10817,0.065 -0.0318,0.023 -0.064,0.0498 -0.0967,0.0812 -0.0284,0.0272 -0.0572,0.0576 -0.0865,0.0919 -0.0257,0.0301 -0.0518,0.0632 -0.0783,0.0993 -0.0105,0.0155 -0.0206,0.0314 -0.0309,0.047 h 2.03161 l -0.67925,-1.17418 -0.95566,-1.65247 -0.95565,-1.65234 z"
       id="path4"
       inkscape:connector-curvature="0" />
    <path
       style="fill-rule:evenodd;stroke-width:0.06975002"
       d="m 161.23881,176.00216 v 0.15653 h 0.0203 0.0401 l -0.0526,-0.13637 z"
       id="path947"
       inkscape:connector-curvature="0" />
    <path
       style="fill-rule:evenodd;stroke-width:0.06975002"
       d="m 161.14631,175.76212 h -0.17832 l 0.005,0.0153 0.0165,0.0535 0.0165,0.0537 h -0.0346 -0.0346 -0.0346 -0.0346 -0.0346 l 0.0181,-0.0537 0.0181,-0.0535 0.005,-0.0153 h -0.16961 l -0.047,0.1237 -0.0519,0.13637 -0.0519,0.1365 h 0.0369 0.0371 0.0369 0.0369 0.0371 l 0.0108,-0.0292 0.0108,-0.029 0.0108,-0.029 0.0106,-0.0289 0.0108,-0.029 h 0.0514 0.0514 0.0512 0.0514 0.0514 l 0.0101,0.029 0.0101,0.029 0.0101,0.029 0.01,0.029 0.0101,0.029 h 0.0401 0.0401 0.0399 0.0197 v -0.15653 l -0.0448,-0.11634 z"
       id="path945"
       inkscape:connector-curvature="0" />
    <path
       style="fill-rule:evenodd;stroke-width:0.06975002"
       d="m 160.81309,175.47645 -0.0519,0.13636 -0.0519,0.13651 -0.005,0.0128 h 0.16961 l 0.0129,-0.0383 0.0183,-0.0535 0.0181,-0.0537 0.0163,0.0537 0.0165,0.0535 0.0118,0.0383 h 0.17832 l -0.005,-0.0127 -0.0526,-0.1365 -0.0526,-0.13651 h -0.0447 -0.0447 -0.0445 -0.0447 z"
       id="path6"
       inkscape:connector-curvature="0" />
    <path
       d="m 161.59355,176.17818 c -0.0325,0 -0.0631,-0.003 -0.0914,-0.009 -0.0318,-0.006 -0.0607,-0.0166 -0.0862,-0.0305 -0.0275,-0.0151 -0.051,-0.0346 -0.0698,-0.0588 -0.0179,-0.023 -0.0316,-0.0503 -0.0403,-0.0819 -0.008,-0.0271 -0.0114,-0.0573 -0.0114,-0.0909 0,0 0,-0.035 0,-0.0848 0,-0.0253 0,-0.0545 0,-0.0849 0,-0.0279 0,-0.0569 0,-0.0848 0,-0.0304 0,-0.0595 0,-0.0848 0,-0.0498 0,-0.0848 0,-0.0848 0,0 0.015,0 0.0364,0 0.0109,0 0.0234,0 0.0364,0 0.012,0 0.0244,0 0.0364,0 0.013,0 0.0256,0 0.0364,0 0.0214,0 0.0364,0 0.0364,0 0,0 0,0.0324 0,0.0787 0,0.0235 0,0.0505 0,0.0787 0,0.0259 0,0.0528 0,0.0787 0,0.0282 0,0.0552 0,0.0787 0,0.0462 0,0.0786 0,0.0786 0,0.016 7.6e-4,0.0315 0.003,0.0462 0.002,0.0161 0.005,0.0314 0.01,0.0452 0.005,0.0154 0.0124,0.0291 0.022,0.0404 0.01,0.0116 0.0221,0.0207 0.0374,0.0266 0.0129,0.005 0.028,0.008 0.0454,0.008 0.0175,0 0.0326,-0.003 0.0455,-0.008 0.0153,-0.006 0.0276,-0.0149 0.0374,-0.0264 0.01,-0.0113 0.0169,-0.0249 0.0223,-0.0403 0.005,-0.0138 0.008,-0.0291 0.01,-0.0453 0.002,-0.0147 0.003,-0.0303 0.003,-0.0463 0,0 0,-0.0324 0,-0.0787 0,-0.0235 0,-0.0505 0,-0.0787 0,-0.0259 0,-0.0528 0,-0.0787 0,-0.0282 0,-0.0552 0,-0.0787 0,-0.0462 0,-0.0786 0,-0.0786 0,0 0.015,0 0.0364,0 0.0109,0 0.0234,0 0.0364,0 0.012,0 0.0244,0 0.0364,0 0.0131,0 0.0256,0 0.0364,0 0.0214,0 0.0364,0 0.0364,0 0,0 0,0.0352 0,0.0854 0,0.0255 0,0.0548 0,0.0854 0,0.0281 0,0.0573 0,0.0854 0,0.0306 0,0.0599 0,0.0854 0,0.0502 0,0.0853 0,0.0853 0,0.0336 -0.004,0.064 -0.0115,0.0911 -0.009,0.0317 -0.0225,0.0589 -0.0405,0.0819 -0.0189,0.0242 -0.0424,0.0437 -0.07,0.0587 -0.0255,0.0139 -0.0545,0.024 -0.0864,0.0304 -0.0283,0.006 -0.059,0.009 -0.0915,0.009 0,0 0,-2.1e-4 0,-5.3e-4 0,-1.4e-4 0,-2.6e-4 0,-5.3e-4 0,-2.1e-4 0,-5.3e-4 0,-5.3e-4 0,-2.1e-4 0,-5.3e-4 0,-5.3e-4 0,-2.6e-4 0,-5.3e-4 0,-5.3e-4"
       style="fill-rule:evenodd;stroke-width:0.06975002"
       id="path8"
       inkscape:connector-curvature="0" />
    <path
       d="m 162.18851,176.17121 c -0.0138,2e-5 -0.0275,-2.7e-4 -0.0413,-0.001 -0.0138,-8e-4 -0.0275,-0.002 -0.0412,-0.004 -0.0137,-0.002 -0.0274,-0.004 -0.0409,-0.006 -0.0135,-0.002 -0.027,-0.005 -0.0404,-0.008 -0.0134,-0.003 -0.0267,-0.007 -0.0399,-0.0108 0,0 10e-4,-0.0123 0.003,-0.03 9.6e-4,-0.009 0.002,-0.0192 0.003,-0.0299 10e-4,-0.01 0.002,-0.0201 0.003,-0.03 0.001,-0.0108 0.002,-0.0211 0.003,-0.03 0.002,-0.0177 0.003,-0.03 0.003,-0.03 0.0116,0.006 0.0234,0.0113 0.0354,0.0161 0.0121,0.005 0.0244,0.009 0.0368,0.0127 0.0125,0.004 0.0251,0.007 0.0379,0.009 0.0127,0.002 0.0256,0.004 0.0385,0.005 0.0129,0.001 0.0259,0.002 0.039,0.002 0.0102,0 0.0203,-2.7e-4 0.0301,-10e-4 0.0104,-0.001 0.0204,-0.003 0.0296,-0.005 0.0103,-0.003 0.0197,-0.007 0.0276,-0.0119 0.008,-0.006 0.0153,-0.013 0.0197,-0.0223 0.004,-0.008 0.006,-0.0177 0.006,-0.0292 0,-0.0343 -0.0237,-0.0535 -0.0582,-0.0682 -0.026,-0.011 -0.0581,-0.0194 -0.0909,-0.0298 -0.0302,-0.01 -0.061,-0.0207 -0.0881,-0.037 -0.027,-0.0162 -0.0505,-0.0376 -0.0661,-0.0675 -0.0128,-0.0245 -0.0203,-0.0547 -0.0203,-0.0927 0,-0.0306 0.006,-0.057 0.0156,-0.0798 0.0114,-0.026 0.0284,-0.0472 0.0494,-0.0644 0.0205,-0.0168 0.0448,-0.0298 0.0712,-0.0396 0.025,-0.009 0.052,-0.0156 0.0794,-0.0197 0.0272,-0.004 0.0549,-0.006 0.0816,-0.006 0.0119,-1.4e-4 0.0239,6e-5 0.0358,5.3e-4 0.0119,5.3e-4 0.0238,0.002 0.0357,0.003 0.0119,10e-4 0.0237,0.003 0.0355,0.005 0.0117,0.002 0.0234,0.005 0.035,0.007 0.0116,0.003 0.0231,0.006 0.0345,0.01 0,0 -9.2e-4,0.0115 -0.002,0.0279 -6.6e-4,0.008 -0.001,0.0179 -0.002,0.0278 -7.3e-4,0.009 -10e-4,0.0187 -0.002,0.0279 -8e-4,0.01 -0.002,0.0196 -0.002,0.0279 -0.001,0.0165 -0.002,0.028 -0.002,0.028 -0.01,-0.004 -0.0193,-0.008 -0.0292,-0.0114 -0.01,-0.003 -0.02,-0.006 -0.0301,-0.009 -0.0102,-0.003 -0.0204,-0.005 -0.0308,-0.006 -0.0103,-0.002 -0.0207,-0.003 -0.0312,-0.004 -0.0104,-8e-4 -0.0209,-10e-4 -0.0315,-10e-4 -0.009,0 -0.0198,2.1e-4 -0.0307,10e-4 -0.01,7.9e-4 -0.0204,0.002 -0.0304,0.004 -0.0104,0.002 -0.0203,0.005 -0.0291,0.01 -0.01,0.005 -0.0176,0.0112 -0.0231,0.0197 -0.005,0.008 -0.008,0.0174 -0.008,0.0291 0,0.0312 0.0256,0.0477 0.0624,0.0608 0.026,0.009 0.0575,0.0167 0.0896,0.0264 0.0296,0.009 0.0597,0.0198 0.0861,0.0356 0.0265,0.0159 0.0494,0.0368 0.0648,0.0658 0.0126,0.024 0.0201,0.0535 0.0201,0.0904 0,0.032 -0.005,0.0599 -0.0137,0.084 -0.0105,0.0285 -0.0265,0.0519 -0.0467,0.0707 -0.0204,0.0191 -0.0451,0.0336 -0.0725,0.0444 -0.0255,0.0101 -0.0534,0.0169 -0.0826,0.0211 -0.0276,0.004 -0.0564,0.006 -0.0852,0.006 0,0 0,5.3e-4 0,0.001 0,5.3e-4 0,7.9e-4 0,0.001 0,5.3e-4 0,0.001 0,0.001 0,5.3e-4 0,10e-4 0,10e-4 0,7.9e-4 0,0.001 0,0.001"
       style="fill-rule:evenodd;stroke-width:0.06975002"
       id="path10"
       inkscape:connector-curvature="0" />
    <path
       id="polygon12"
       d="m 162.70885,175.61111 c 0,0 -0.0139,0 -0.0338,0 -0.0101,0 -0.0217,0 -0.0338,0 -0.0111,0 -0.0226,0 -0.0337,0 -0.0121,0 -0.0237,0 -0.0338,0 -0.0198,0 -0.0338,0 -0.0338,0 0,0 0,-0.0111 0,-0.0269 0,-0.008 0,-0.0173 0,-0.0269 0,-0.009 0,-0.018 0,-0.0269 0,-0.01 0,-0.0189 0,-0.0269 0,-0.0159 0,-0.027 0,-0.027 0,0 0.0428,0 0.10377,0 0.031,0 0.0667,0 0.10383,0 0.0342,0 0.0696,0 0.10379,0 0.0372,0 0.0729,0 0.10383,0 0.061,0 0.10372,0 0.10372,0 0,0 0,0.0111 0,0.0269 0,0.008 0,0.0172 0,0.0269 0,0.009 0,0.018 0,0.0269 0,0.01 0,0.0189 0,0.0269 0,0.0159 0,0.027 0,0.027 0,0 -0.0139,0 -0.0337,0 -0.0101,0 -0.0217,0 -0.0338,0 -0.0111,0 -0.0226,0 -0.0337,0 -0.0121,0 -0.0237,0 -0.0338,0 -0.0198,0 -0.0338,0 -0.0338,0 0,0 0,0.0451 0,0.10949 0,0.0327 0,0.0703 0,0.10955 0,0.0361 0,0.0735 0,0.10951 0,0.0392 0,0.0769 0,0.10955 0,0.0643 0,0.10944 0,0.10944 0,0 -0.0149,0 -0.0363,0 -0.0108,0 -0.0233,0 -0.0363,0 -0.0119,0 -0.0243,0 -0.0362,0 -0.013,0 -0.0255,0 -0.0363,0 -0.0213,0 -0.0363,0 -0.0363,0 0,0 0,-0.0451 0,-0.10949 0,-0.0327 0,-0.0703 0,-0.10955 0,-0.0361 0,-0.0734 0,-0.10951 0,-0.0392 0,-0.0769 0,-0.10954 0,-0.0643 0,-0.10945 0,-0.10945"
       style="fill-rule:evenodd;stroke-width:0.06975002"
       inkscape:connector-curvature="0" />
    <path
       style="fill-rule:evenodd;stroke-width:0.06975002"
       d="m 163.11893,175.69564 v 0.0512 0.13651 0.13664 0.1365 h 0.0365 0.0364 0.0364 0.0364 0.0365 v -0.0539 -0.0541 -0.0538 -0.0541 -0.0539 h 0.008 0.008 0.008 0.008 0.008 c 0.0163,0 0.03,0.002 0.042,0.006 0.0132,0.005 0.0243,0.0125 0.0343,0.0245 0.008,0.009 0.015,0.0213 0.0221,0.0362 0.005,0.0113 0.0107,0.0243 0.0162,0.0394 0.004,0.0121 0.009,0.0255 0.0138,0.0403 l 0.008,0.0248 0.008,0.0247 0.008,0.0247 0.008,0.0247 0.008,0.0247 h 0.0379 0.038 0.0379 0.038 0.038 l -0.0132,-0.037 -0.0131,-0.0372 -0.0131,-0.0371 -0.0131,-0.037 -0.0132,-0.0372 c -0.005,-0.0124 -0.01,-0.024 -0.0138,-0.035 -0.005,-0.0127 -0.009,-0.0244 -0.0129,-0.0353 -0.005,-0.0129 -0.01,-0.0246 -0.0148,-0.0347 -0.006,-0.012 -0.0134,-0.0219 -0.0225,-0.03 -0.009,-0.008 -0.0193,-0.0137 -0.0328,-0.0177 0.016,-0.003 0.0309,-0.008 0.0447,-0.0153 0.0142,-0.007 0.0272,-0.0167 0.0384,-0.0277 0.0113,-0.0111 0.0209,-0.0238 0.0285,-0.0377 0.007,-0.013 0.0121,-0.0272 0.0154,-0.042 h -0.18119 c -0.001,0.006 -0.001,0.0127 -0.003,0.0174 -0.005,0.0118 -0.0131,0.0205 -0.0229,0.0268 -0.01,0.006 -0.0211,0.0103 -0.0334,0.0129 -0.0113,0.002 -0.0233,0.003 -0.0354,0.004 -0.0121,5.3e-4 -0.0242,7.9e-4 -0.0358,7.9e-4 h -0.01 -0.009 -0.01 -0.009 -0.009 v -0.0311 -0.0309 z"
       id="path952"
       inkscape:connector-curvature="0" />
    <path
       style="fill-rule:evenodd;stroke-width:0.06975002"
       d="m 163.11893,175.69564 h 0.18214 v -1.4e-4 -0.0309 -0.0309 -0.0309 h 0.009 0.01 0.01 0.009 0.01 c 0.0118,0 0.0234,2.7e-4 0.0346,0.001 0.012,0.001 0.0236,0.003 0.0342,0.005 0.0121,0.003 0.0231,0.007 0.0324,0.012 0.0105,0.006 0.019,0.0137 0.0247,0.0237 0.005,0.009 0.008,0.0201 0.008,0.0334 0,0.007 -0.002,0.0118 -0.003,0.0176 h 0.18118 c 2e-4,-8e-4 7.7e-4,-0.002 9.6e-4,-0.002 0.003,-0.0152 0.004,-0.031 0.002,-0.0471 0,-0.0229 -0.004,-0.0435 -0.0108,-0.0617 -0.008,-0.0202 -0.0193,-0.0377 -0.0342,-0.0523 -0.0145,-0.0143 -0.0321,-0.0258 -0.052,-0.0347 -0.0183,-0.008 -0.0385,-0.0144 -0.0601,-0.0183 -0.0198,-0.004 -0.0409,-0.005 -0.0627,-0.005 h -0.065 -0.065 -0.065 -0.0651 -0.065 v 0.1365 z"
       id="path14"
       inkscape:connector-curvature="0" />
    <path
       style="fill-rule:evenodd;stroke-width:0.06975002"
       d="m 163.84627,175.82152 -0.0244,0.0643 -0.0519,0.13637 -0.0519,0.1365 h 0.0368 0.0366 0.0366 0.0368 0.0367 l 0.011,-0.0292 0.011,-0.029 0.011,-0.029 0.011,-0.0289 0.0109,-0.029 h 0.0512 0.0512 0.0512 0.0512 0.0512 l 0.0101,0.029 0.0102,0.029 0.0102,0.029 0.0102,0.029 0.0101,0.029 h 0.04 0.0401 0.0401 0.0401 0.0401 l -0.0526,-0.13637 -0.0526,-0.1365 -0.0248,-0.0643 h -0.18364 l 0.003,0.009 0.0163,0.0537 h -0.0342 -0.0342 -0.0342 -0.0341 -0.0342 l 0.0179,-0.0537 0.003,-0.009 z"
       id="path957"
       inkscape:connector-curvature="0" />
    <path
       style="fill-rule:evenodd;stroke-width:0.06975002"
       d="m 163.84627,175.82152 h 0.17328 l 0.0147,-0.0441 0.0179,-0.0535 0.0179,-0.0535 0.0178,-0.0537 0.0164,0.0537 0.0163,0.0535 0.0162,0.0535 0.0135,0.0441 h 0.18364 l -0.0278,-0.0721 -0.0527,-0.1365 -0.0526,-0.1365 h -0.0445 -0.0447 -0.0446 -0.0447 -0.0447 l -0.0519,0.13636 -0.0519,0.13651 z"
       id="path16"
       inkscape:connector-curvature="0" />
    <path
       id="polygon18"
       d="m 164.53421,175.4765 c 0,0 0.0151,0 0.0365,0 0.0109,0 0.0235,0 0.0366,0 0.012,0 0.0245,0 0.0365,0 0.0131,0 0.0257,0 0.0366,0 0.0215,0 0.0366,0 0.0366,0 0,0 0,0.0451 0,0.10948 0,0.0327 0,0.0703 0,0.10955 0,0.0361 0,0.0735 0,0.10952 0,0.0392 0,0.0769 0,0.10954 0,0.0643 0,0.10944 0,0.10944 0,0 0.0232,0 0.0562,0 0.0168,0 0.0361,0 0.0562,0 0.0185,0 0.0377,0 0.0562,0 0.0201,0 0.0395,0 0.0563,0 0.033,0 0.0562,0 0.0562,0 0,0 0,0.0111 0,0.0269 0,0.008 0,0.0172 0,0.0269 0,0.009 0,0.018 0,0.0269 0,0.01 0,0.0189 0,0.0269 0,0.0159 0,0.027 0,0.027 0,0 -0.0382,0 -0.0927,0 -0.0277,0 -0.0596,0 -0.0928,0 -0.0306,0 -0.0622,0 -0.0928,0 -0.0332,0 -0.0651,0 -0.0928,0 -0.0545,0 -0.0927,0 -0.0927,0 0,0 0,-0.0562 0,-0.1364 0,-0.0407 0,-0.0876 0,-0.13649 0,-0.0449 0,-0.0915 0,-0.13644 0,-0.0489 0,-0.0958 0,-0.13647 0,-0.0802 0,-0.13635 0,-0.13635"
       style="fill-rule:evenodd;stroke-width:0.06975002"
       inkscape:connector-curvature="0" />
    <path
       id="polygon20"
       d="m 165.07965,175.4765 c 0,0 0.015,0 0.0363,0 0.0108,0 0.0233,0 0.0363,0 0.0119,0 0.0243,0 0.0362,0 0.013,0 0.0255,0 0.0363,0 0.0213,0 0.0363,0 0.0363,0 0,0 0,0.0562 0,0.1364 0,0.0407 0,0.0876 0,0.13649 0,0.0449 0,0.0915 0,0.13644 0,0.0488 0,0.0958 0,0.13647 0,0.0801 0,0.13635 0,0.13635 0,0 -0.0149,0 -0.0363,0 -0.0108,0 -0.0233,0 -0.0363,0 -0.0119,0 -0.0243,0 -0.0362,0 -0.013,0 -0.0255,0 -0.0363,0 -0.0213,0 -0.0363,0 -0.0363,0 0,0 0,-0.0562 0,-0.1364 0,-0.0407 0,-0.0876 0,-0.13649 0,-0.0449 0,-0.0915 0,-0.13644 0,-0.0489 0,-0.0958 0,-0.13647 0,-0.0802 0,-0.13635 0,-0.13635"
       style="fill-rule:evenodd;stroke-width:0.06975002"
       inkscape:connector-curvature="0" />
    <path
       d="m 165.33075,176.15865 c 0,0 0.0213,-0.0562 0.0517,-0.1364 0.0155,-0.0407 0.0332,-0.0876 0.0518,-0.13649 0.0171,-0.0449 0.0347,-0.0915 0.0518,-0.13644 0.0185,-0.0489 0.0363,-0.0958 0.0518,-0.13647 0.0304,-0.0802 0.0517,-0.13635 0.0517,-0.13635 0,0 0.0183,0 0.0445,0 0.0133,0 0.0286,0 0.0445,0 0.0146,0 0.0298,0 0.0445,0 0.0159,0 0.0312,0 0.0445,0 0.0262,0 0.0445,0 0.0445,0 0,0 0.0218,0.0562 0.0529,0.1364 0.0158,0.0407 0.034,0.0876 0.0529,0.13649 0.0174,0.0449 0.0355,0.0915 0.0529,0.13644 0.0189,0.0488 0.0371,0.0958 0.0529,0.13647 0.0311,0.0801 0.0528,0.13635 0.0528,0.13635 0,0 -0.0165,0 -0.04,0 -0.0119,0 -0.0257,0 -0.0401,0 -0.0132,0 -0.0268,0 -0.04,0 -0.0143,0 -0.0281,0 -0.0401,0 -0.0235,0 -0.04,0 -0.04,0 0,0 -0.004,-0.012 -0.0102,-0.029 -0.003,-0.009 -0.007,-0.0186 -0.0102,-0.029 -0.003,-0.01 -0.007,-0.0194 -0.0102,-0.029 -0.004,-0.0104 -0.007,-0.0204 -0.0102,-0.0291 -0.006,-0.0171 -0.0102,-0.0291 -0.0102,-0.0291 0,0 -0.0211,0 -0.0512,0 -0.0153,0 -0.0329,0 -0.0512,0 -0.0169,0 -0.0343,0 -0.0512,0 -0.0183,0 -0.0359,0 -0.0512,0 -0.0301,0 -0.0512,0 -0.0512,0 0,0 -0.004,0.012 -0.0107,0.029 -0.003,0.009 -0.007,0.0186 -0.0107,0.029 -0.004,0.01 -0.007,0.0195 -0.0107,0.029 -0.004,0.0104 -0.008,0.0204 -0.0108,0.0291 -0.006,0.0171 -0.0108,0.029 -0.0108,0.029 0,0 -0.0152,0 -0.037,0 -0.011,0 -0.0238,0 -0.037,0 -0.0122,0 -0.0248,0 -0.0369,0 -0.0132,0 -0.026,0 -0.037,0 -0.0217,0 -0.037,0 -0.037,0 m 0.45407,-0.27412 c 0,0 -0.007,-0.0221 -0.0164,-0.0536 -0.005,-0.016 -0.0106,-0.0344 -0.0165,-0.0536 -0.005,-0.0176 -0.011,-0.0359 -0.0165,-0.0535 -0.006,-0.0192 -0.0115,-0.0376 -0.0165,-0.0536 -0.01,-0.0315 -0.0165,-0.0536 -0.0165,-0.0536 0,0 -0.007,0.0221 -0.0178,0.0536 -0.005,0.016 -0.0115,0.0344 -0.0179,0.0536 -0.006,0.0176 -0.012,0.0359 -0.0178,0.0535 -0.006,0.0192 -0.0125,0.0376 -0.0179,0.0536 -0.0105,0.0315 -0.0179,0.0536 -0.0179,0.0536 0,0 0.0142,0 0.0343,0 0.0103,0 0.0221,0 0.0343,0 0.0113,0 0.023,0 0.0343,0 0.0123,0 0.0241,0 0.0343,0 0.0202,0 0.0343,0 0.0343,0"
       style="fill-rule:evenodd;stroke-width:0.06975002"
       id="path22"
       inkscape:connector-curvature="0" />
    <path
       id="polygon24"
       d="m 166.14055,175.4765 c 0,0 0.0191,0 0.0463,0 0.0138,0 0.0297,0 0.0463,0 0.0152,0 0.031,0 0.0463,0 0.0166,0 0.0325,0 0.0463,0 0.0272,0 0.0463,0 0.0463,0 0,0 0.0191,0.0382 0.0464,0.0928 0.0139,0.0277 0.0298,0.0596 0.0465,0.0928 0.0153,0.0306 0.0312,0.0622 0.0465,0.0928 0.0166,0.0332 0.0326,0.0651 0.0465,0.0928 0.0273,0.0545 0.0464,0.0927 0.0464,0.0927 0,0 -1.8e-4,-0.0382 -4.3e-4,-0.0927 -1.2e-4,-0.0277 -2.6e-4,-0.0596 -4.2e-4,-0.0928 -1.4e-4,-0.0306 -2.9e-4,-0.0622 -4.2e-4,-0.0928 -1.5e-4,-0.0332 -2.9e-4,-0.0651 -4.3e-4,-0.0928 -2.4e-4,-0.0545 -4.2e-4,-0.0927 -4.2e-4,-0.0927 0,0 0.0137,0 0.0332,0 0.01,0 0.0213,0 0.0332,0 0.0109,0 0.0223,0 0.0332,0 0.0119,0 0.0233,0 0.0332,0 0.0195,0 0.0332,0 0.0332,0 0,0 0,0.0562 0,0.1364 0,0.0407 0,0.0876 0,0.13649 0,0.0449 0,0.0915 0,0.13644 0,0.0488 0,0.0958 0,0.13647 0,0.0801 0,0.13635 0,0.13635 0,0 -0.0186,0 -0.0452,0 -0.0135,0 -0.029,0 -0.0452,0 -0.0149,0 -0.0303,0 -0.0452,0 -0.0162,0 -0.0317,0 -0.0452,0 -0.0266,0 -0.0452,0 -0.0452,0 0,0 -0.0198,-0.0385 -0.048,-0.0933 -0.0143,-0.0279 -0.0308,-0.0599 -0.048,-0.0934 -0.0158,-0.0307 -0.0322,-0.0626 -0.048,-0.0933 -0.0172,-0.0334 -0.0337,-0.0655 -0.048,-0.0933 -0.0282,-0.0548 -0.048,-0.0933 -0.048,-0.0933 0,0 4.4e-4,0.0385 0.001,0.0933 3.4e-4,0.0279 7.1e-4,0.06 10e-4,0.0934 3.7e-4,0.0307 7.4e-4,0.0626 0.001,0.0933 3.9e-4,0.0334 7.9e-4,0.0655 0.001,0.0934 6.6e-4,0.0548 0.001,0.0933 0.001,0.0933 0,0 -0.0138,0 -0.0335,0 -0.01,0 -0.0215,0 -0.0335,0 -0.011,0 -0.0224,0 -0.0334,0 -0.012,0 -0.0235,0 -0.0335,0 -0.0197,0 -0.0335,0 -0.0335,0 0,0 0,-0.0562 0,-0.1364 0,-0.0407 0,-0.0876 0,-0.13649 0,-0.0449 0,-0.0915 0,-0.13644 0,-0.0489 0,-0.0958 0,-0.13647 0,-0.0802 0,-0.13635 0,-0.13635"
       style="fill-rule:evenodd;stroke-width:0.06975002"
       inkscape:connector-curvature="0" />
    <path
       id="polygon26"
       d="m 167.18331,175.4765 c 0,0 0.0236,0 0.0573,0 0.0171,0 0.0368,0 0.0573,0 0.0189,0 0.0384,0 0.0573,0 0.0205,0 0.0403,0 0.0574,0 0.0337,0 0.0573,0 0.0573,0 0,0 0.012,0.0374 0.0292,0.0908 0.009,0.0271 0.0187,0.0583 0.0292,0.0909 0.01,0.0299 0.0196,0.0609 0.0292,0.0908 0.0104,0.0325 0.0205,0.0637 0.0292,0.0908 0.0171,0.0533 0.0291,0.0908 0.0291,0.0908 0,0 0.0126,-0.0374 0.0306,-0.0908 0.009,-0.0271 0.0196,-0.0583 0.0306,-0.0908 0.0101,-0.0299 0.0205,-0.0609 0.0306,-0.0908 0.0109,-0.0325 0.0214,-0.0637 0.0306,-0.0908 0.018,-0.0533 0.0305,-0.0908 0.0305,-0.0908 0,0 0.0227,0 0.0551,0 0.0164,0 0.0354,0 0.0551,0 0.0181,0 0.0369,0 0.0551,0 0.0197,0 0.0387,0 0.0551,0 0.0324,0 0.0551,0 0.0551,0 0,0 0,0.0562 0,0.1364 0,0.0407 0,0.0876 0,0.13649 0,0.0449 0,0.0915 0,0.13644 0,0.0488 0,0.0958 0,0.13647 0,0.0801 0,0.13635 0,0.13635 0,0 -0.0147,0 -0.0356,0 -0.0106,0 -0.0229,0 -0.0356,0 -0.0117,0 -0.0238,0 -0.0355,0 -0.0127,0 -0.025,0 -0.0356,0 -0.0209,0 -0.0356,0 -0.0356,0 0,0 1.4e-4,-0.0432 4.2e-4,-0.10474 1.4e-4,-0.0313 2.9e-4,-0.0673 4.2e-4,-0.10481 1.4e-4,-0.0345 2.9e-4,-0.0703 4.3e-4,-0.10477 1.4e-4,-0.0375 2.9e-4,-0.0735 4.2e-4,-0.1048 2.9e-4,-0.0615 4.2e-4,-0.1047 4.2e-4,-0.1047 0,0 -0.0145,0.0432 -0.0351,0.10474 -0.0105,0.0313 -0.0226,0.0673 -0.0352,0.10481 -0.0116,0.0345 -0.0236,0.0703 -0.0352,0.10477 -0.0126,0.0375 -0.0247,0.0735 -0.0352,0.1048 -0.0207,0.0615 -0.0351,0.1047 -0.0351,0.1047 0,0 -0.0138,0 -0.0335,0 -0.01,0 -0.0215,0 -0.0335,0 -0.011,0 -0.0224,0 -0.0335,0 -0.012,0 -0.0235,0 -0.0335,0 -0.0197,0 -0.0335,0 -0.0335,0 0,0 -0.0137,-0.0432 -0.0333,-0.10474 -0.01,-0.0313 -0.0214,-0.0673 -0.0334,-0.10481 -0.011,-0.0345 -0.0224,-0.0703 -0.0333,-0.10477 -0.0119,-0.0375 -0.0234,-0.0735 -0.0334,-0.1048 -0.0196,-0.0615 -0.0333,-0.1047 -0.0333,-0.1047 0,0 2.9e-4,0.0432 6.9e-4,0.10474 2.1e-4,0.0313 4.5e-4,0.0673 6.9e-4,0.10481 2.3e-4,0.0345 4.7e-4,0.0703 6.8e-4,0.10477 2.6e-4,0.0375 4.8e-4,0.0735 6.9e-4,0.1048 4.3e-4,0.0615 6.9e-4,0.1047 6.9e-4,0.1047 0,0 -0.0147,0 -0.0357,0 -0.0107,0 -0.0229,0 -0.0357,0 -0.0118,0 -0.0239,0 -0.0357,0 -0.0128,0 -0.0251,0 -0.0357,0 -0.021,0 -0.0357,0 -0.0357,0 0,0 0,-0.0562 0,-0.1364 0,-0.0407 0,-0.0876 0,-0.13649 0,-0.0449 0,-0.0915 0,-0.13644 0,-0.0489 0,-0.0958 0,-0.13647 0,-0.0802 0,-0.13635 0,-0.13635"
       style="fill-rule:evenodd;stroke-width:0.06975002"
       inkscape:connector-curvature="0" />
    <path
       style="fill-rule:evenodd;stroke-width:0.06975002"
       d="m 168.22144,175.81716 -0.0262,0.0687 -0.0519,0.13637 -0.0519,0.1365 h 0.0369 0.037 0.0369 0.0369 0.0371 l 0.0109,-0.0292 0.0109,-0.029 0.0108,-0.029 0.0109,-0.0289 0.0109,-0.029 h 0.0514 0.0514 0.0512 0.0514 0.0514 l 0.0102,0.029 0.0102,0.029 0.0102,0.029 0.0101,0.029 0.0102,0.029 h 0.0401 0.0401 0.04 0.0401 0.0399 l -0.0526,-0.13637 -0.0529,-0.1365 -0.0266,-0.0687 h -0.1831 l 0.004,0.0138 0.0166,0.0537 h -0.0343 -0.0343 -0.0343 -0.0343 -0.0343 l 0.0177,-0.0537 0.004,-0.0138 z"
       id="path962"
       inkscape:connector-curvature="0" />
    <path
       style="fill-rule:evenodd;stroke-width:0.06975002"
       d="m 168.22144,175.81716 h 0.17329 l 0.0132,-0.0398 0.0177,-0.0535 0.0177,-0.0535 0.0177,-0.0537 0.0166,0.0537 0.0166,0.0535 0.0166,0.0535 0.0124,0.0398 h 0.1831 l -0.0262,-0.0677 -0.0527,-0.1365 -0.0527,-0.1365 h -0.0448 -0.0448 -0.0447 -0.0448 -0.0448 l -0.0518,0.13636 -0.0519,0.13651 z"
       id="path28"
       inkscape:connector-curvature="0" />
    <path
       style="fill-rule:evenodd;stroke-width:0.06975002"
       d="m 168.90818,175.8692 v 0.0166 0.13637 0.1365 h 0.0497 0.0497 0.0496 0.0497 0.0496 c 0.0428,0 0.0835,-0.003 0.12152,-0.009 0.0427,-0.007 0.082,-0.0178 0.11675,-0.0339 0.038,-0.0176 0.0707,-0.0414 0.0967,-0.0726 0.0244,-0.0292 0.0431,-0.0648 0.0549,-0.10789 0.005,-0.0193 0.006,-0.044 0.008,-0.0663 h -0.1899 c -6.9e-4,0.004 -4.8e-4,0.009 -0.001,0.0128 -0.005,0.0239 -0.0137,0.0448 -0.0251,0.0627 -0.0123,0.0194 -0.0281,0.0352 -0.0474,0.0475 -0.0179,0.0115 -0.0389,0.0198 -0.0627,0.0251 -0.0204,0.005 -0.0428,0.007 -0.0673,0.007 l -0.014,-0.001 -0.0139,-0.001 -0.0139,-10e-4 -0.014,-0.001 -0.0139,-0.001 v -0.0826 -0.0668 z"
       id="path967"
       inkscape:connector-curvature="0" />
    <path
       style="fill-rule:evenodd;stroke-width:0.06975002"
       d="m 168.90818,175.8692 h 0.18282 v -0.0159 -0.0825 -0.0826 -0.0825 h 0.0139 0.0139 0.014 0.0139 0.014 c 0.0113,-0.001 0.0227,-0.002 0.0339,-8e-4 0.0114,8e-4 0.0225,0.002 0.0335,0.005 0.011,0.003 0.0218,0.007 0.0322,0.0113 0.0103,0.005 0.0201,0.0102 0.0294,0.0166 0.009,0.006 0.0179,0.0137 0.026,0.0218 0.008,0.008 0.0154,0.0168 0.0218,0.026 0.006,0.009 0.0121,0.0193 0.0168,0.0296 0.005,0.0104 0.008,0.0211 0.0112,0.0322 0.003,0.0109 0.005,0.0222 0.005,0.0335 7.4e-4,0.0112 4.7e-4,0.0226 -8.2e-4,0.0339 0,0.0199 -0.002,0.0373 -0.005,0.0543 h 0.1899 c 0.002,-0.0183 0.007,-0.0338 0.007,-0.0543 0,-0.0456 -0.005,-0.0856 -0.0143,-0.12043 -0.0117,-0.0432 -0.0302,-0.0787 -0.0546,-0.10749 -0.0261,-0.0307 -0.059,-0.0539 -0.0975,-0.0708 -0.0347,-0.0153 -0.0739,-0.0255 -0.11689,-0.0317 -0.0377,-0.005 -0.0783,-0.008 -0.12124,-0.008 h -0.0496 -0.0497 -0.0496 -0.0497 -0.0497 v 0.13637 0.1365 z"
       id="path30"
       inkscape:connector-curvature="0" />
    <path
       id="polygon32"
       d="m 169.63572,175.4765 c 0,0 0.0397,0 0.0962,0 0.0287,0 0.0618,0 0.0963,0 0.0317,0 0.0646,0 0.0963,0 0.0345,0 0.0676,0 0.0963,0 0.0565,0 0.0962,0 0.0962,0 0,0 0,0.0106 0,0.0258 0,0.008 0,0.0165 0,0.0258 0,0.008 0,0.0173 0,0.0258 0,0.009 0,0.0181 0,0.0258 0,0.0152 0,0.0259 0,0.0259 0,0 -0.0247,0 -0.0598,0 -0.0179,0 -0.0385,0 -0.0599,0 -0.0197,0 -0.0401,0 -0.0598,0 -0.0214,0 -0.042,0 -0.0599,0 -0.0352,0 -0.0599,0 -0.0599,0 0,0 0,0.0116 0,0.028 0,0.008 0,0.018 0,0.028 0,0.009 0,0.0188 0,0.028 0,0.01 0,0.0197 0,0.028 0,0.0165 0,0.0281 0,0.0281 0,0 0.0233,0 0.0565,0 0.0169,0 0.0363,0 0.0565,0 0.0186,0 0.0378,0 0.0564,0 0.0202,0 0.0397,0 0.0565,0 0.0332,0 0.0565,0 0.0565,0 0,0 0,0.0107 0,0.026 0,0.008 0,0.0166 0,0.0259 0,0.009 0,0.0174 0,0.0259 0,0.009 0,0.0182 0,0.0259 0,0.0153 0,0.026 0,0.026 0,0 -0.0233,0 -0.0565,0 -0.0169,0 -0.0363,0 -0.0565,0 -0.0186,0 -0.0378,0 -0.0564,0 -0.0202,0 -0.0397,0 -0.0565,0 -0.0332,0 -0.0565,0 -0.0565,0 0,0 0,0.0127 0,0.0308 0,0.009 0,0.0198 0,0.0308 0,0.0102 0,0.0207 0,0.0308 0,0.0111 0,0.0217 0,0.0309 0,0.0181 0,0.0309 0,0.0309 0,0 0.0256,0 0.0621,0 0.0185,0 0.0399,0 0.0621,0 0.0204,0 0.0416,0 0.062,0 0.0222,0 0.0436,0 0.0621,0 0.0365,0 0.0621,0 0.0621,0 0,0 0,0.0106 0,0.0258 0,0.008 0,0.0165 0,0.0257 0,0.008 0,0.0173 0,0.0258 0,0.009 0,0.0181 0,0.0258 0,0.0152 0,0.0259 0,0.0259 0,0 -0.0406,0 -0.0985,0 -0.0294,0 -0.0633,0 -0.0985,0 -0.0324,0 -0.0661,0 -0.0985,0 -0.0353,0 -0.0691,0 -0.0985,0 -0.0579,0 -0.0984,0 -0.0984,0 0,0 0,-0.0562 0,-0.13641 0,-0.0407 0,-0.0876 0,-0.13648 0,-0.0449 0,-0.0915 0,-0.13644 0,-0.0488 0,-0.0957 0,-0.13647 0,-0.0801 0,-0.13636 0,-0.13636"
       style="fill-rule:evenodd;stroke-width:0.06975002"
       inkscape:connector-curvature="0" />
    <path
       style="fill-rule:evenodd;stroke-width:0.06975002"
       d="m 170.30741,175.95203 v 0.0218 0.0418 0.0418 0.042 l 0.007,-8e-4 0.007,-5.3e-4 0.007,-5.3e-4 0.007,-5.3e-4 0.007,-5.2e-4 v -0.0183 -0.0183 -0.0182 -0.0184 -0.0183 h 0.006 0.006 0.006 0.006 0.006 l 0.0116,0.0184 0.0116,0.0181 0.0116,0.0183 0.0116,0.0184 0.0116,0.0183 h 0.007 0.007 0.007 0.007 0.007 l -0.0119,-0.0183 -0.0119,-0.0183 -0.0118,-0.0182 -0.0119,-0.0184 -0.0119,-0.0183 c 0.003,7e-5 0.006,0 0.009,-5.3e-4 0.003,-5.3e-4 0.006,-0.001 0.009,-0.002 0.003,-7.9e-4 0.006,-0.002 0.008,-0.003 0.003,-0.001 0.005,-0.003 0.007,-0.005 0.002,-0.002 0.005,-0.004 0.007,-0.006 0.002,-0.002 0.004,-0.004 0.005,-0.007 0.002,-0.002 0.003,-0.005 0.004,-0.008 0.001,-0.003 0.002,-0.005 0.003,-0.008 7.2e-4,-0.003 0.001,-0.006 0.002,-0.009 1.4e-4,-0.002 -1.4e-4,-0.003 -1.4e-4,-0.005 h -0.0338 c -1.4e-4,0.004 -3.5e-4,0.007 -0.001,0.0103 -0.001,0.004 -0.003,0.008 -0.006,0.0106 -0.003,0.003 -0.006,0.005 -0.0108,0.006 -0.004,0.001 -0.008,0.002 -0.0121,0.002 -0.004,5.3e-4 -0.008,5.3e-4 -0.0125,5.3e-4 h -0.008 -0.008 -0.008 -0.008 -0.008 v -0.0125 -0.0125 -0.005 z"
       id="path976"
       inkscape:connector-curvature="0" />
    <path
       style="fill-rule:evenodd;stroke-width:0.06975002"
       d="m 170.30741,175.95203 h 0.0342 v -0.007 -0.0125 -0.0125 h 0.008 0.008 0.008 0.008 0.008 c 0.004,0 0.008,1.4e-4 0.0121,5.3e-4 0.004,5.2e-4 0.008,0.001 0.0119,0.002 0.004,0.001 0.008,0.003 0.0106,0.006 0.003,0.003 0.005,0.006 0.007,0.01 10e-4,0.003 0.002,0.007 0.002,0.012 0,7.9e-4 -2.9e-4,0.001 -2.9e-4,0.002 h 0.0338 c -2e-5,-0.001 1.4e-4,-0.003 0,-0.004 0,-0.008 -8.2e-4,-0.0143 -0.003,-0.0204 -0.002,-0.007 -0.005,-0.0132 -0.01,-0.0183 -0.004,-0.005 -0.01,-0.009 -0.0168,-0.012 -0.006,-0.003 -0.0124,-0.005 -0.0199,-0.006 -0.006,-0.001 -0.0131,-0.001 -0.0207,-0.001 h -0.0162 -0.0161 -0.0162 -0.0162 -0.0162 v 0.0418 z"
       id="path974"
       inkscape:connector-curvature="0" />
    <path
       style="fill-rule:evenodd;stroke-width:0.06975002"
       d="m 170.20769,175.95203 c -0.004,0.0145 -0.007,0.0294 -0.007,0.0451 2e-5,0.019 0.003,0.0373 0.009,0.0545 0.006,0.0178 0.0143,0.0342 0.0251,0.049 0.0109,0.015 0.0241,0.0281 0.0391,0.039 0.0148,0.0108 0.0314,0.0193 0.0492,0.025 0.0172,0.006 0.0355,0.009 0.0545,0.009 0.0191,-6e-5 0.0375,-0.003 0.0546,-0.009 0.0178,-0.006 0.0344,-0.0145 0.0492,-0.0253 0.015,-0.011 0.0281,-0.0242 0.039,-0.0392 0.0108,-0.0149 0.0193,-0.0314 0.0251,-0.0492 0.006,-0.0172 0.009,-0.0356 0.009,-0.0546 -6e-5,-0.0154 -0.003,-0.0299 -0.007,-0.0441 h -0.018 c 2.1e-4,7.9e-4 7.4e-4,0.001 9.5e-4,0.002 0.003,0.0115 0.005,0.0233 0.006,0.0353 5.6e-4,0.0119 -2.9e-4,0.0239 -0.003,0.0357 -0.002,0.0116 -0.006,0.023 -0.011,0.0341 -0.005,0.011 -0.0113,0.0213 -0.0187,0.0305 -0.007,0.009 -0.0161,0.018 -0.0255,0.0254 -0.009,0.007 -0.0196,0.0136 -0.0305,0.0185 -0.0108,0.005 -0.0223,0.009 -0.0342,0.0108 -0.0116,0.002 -0.0236,0.003 -0.0357,0.002 -0.008,-3e-5 -0.0155,-8e-4 -0.023,-0.002 -0.008,-0.001 -0.0152,-0.003 -0.0225,-0.006 -0.007,-0.002 -0.0145,-0.006 -0.0214,-0.009 -0.007,-0.004 -0.0133,-0.008 -0.0195,-0.0124 -0.006,-0.005 -0.0119,-0.01 -0.0173,-0.0155 -0.005,-0.006 -0.0101,-0.0117 -0.0144,-0.018 -0.004,-0.006 -0.008,-0.0131 -0.0116,-0.0202 -0.003,-0.007 -0.006,-0.0143 -0.008,-0.0218 -0.002,-0.007 -0.004,-0.0151 -0.004,-0.0228 -8.7e-4,-0.008 -0.001,-0.0154 -8.2e-4,-0.0232 2e-5,-0.0121 0.002,-0.0241 0.004,-0.0356 7.5e-4,-0.003 0.002,-0.006 0.003,-0.009 z"
       id="path972"
       inkscape:connector-curvature="0" />
    <path
       style="fill-rule:evenodd;stroke-width:0.06975002"
       d="m 170.20769,175.95203 h 0.034 c 0.003,-0.009 0.005,-0.0171 0.009,-0.0249 0.005,-0.0106 0.0123,-0.0205 0.0202,-0.0296 0.008,-0.009 0.0166,-0.0171 0.0264,-0.0241 0.01,-0.007 0.0202,-0.0125 0.0315,-0.017 0.0113,-0.005 0.0229,-0.008 0.0346,-0.009 0.0119,-0.002 0.024,-0.002 0.0358,-7.9e-4 0.0119,0.001 0.0236,0.004 0.0349,0.008 0.0112,0.004 0.022,0.009 0.0322,0.0157 0.01,0.006 0.0193,0.0141 0.0276,0.0229 0.008,0.009 0.0154,0.0184 0.0213,0.0286 0.006,0.01 0.01,0.0202 0.0131,0.0308 h 0.018 c -8.7e-4,-0.003 -5.5e-4,-0.007 -0.002,-0.0103 -0.006,-0.0178 -0.0144,-0.0343 -0.0252,-0.049 -0.0109,-0.0149 -0.0242,-0.0281 -0.0392,-0.039 -0.0148,-0.0107 -0.0314,-0.0192 -0.0492,-0.0249 -0.0172,-0.006 -0.0355,-0.008 -0.0545,-0.008 -0.019,5e-5 -0.0373,0.003 -0.0545,0.009 -0.0178,0.006 -0.0343,0.0143 -0.049,0.0251 -0.0149,0.0109 -0.0281,0.0242 -0.039,0.0392 -0.0108,0.0148 -0.0193,0.0313 -0.0251,0.049 -9.8e-4,0.003 -6.9e-4,0.006 -0.002,0.01 z"
       id="path34"
       inkscape:connector-curvature="0" />
  </g>
</svg>
