<svg id="Layer_1" data-name="Layer 1" xmlns="http://www.w3.org/2000/svg" viewBox="0 0 210.05 186.28"><title>Australian-Made-black-white-logo</title><path d="M100,29.3l.08-.16L9.8,186.48A14.43,14.43,0,0,0,22.34,208h181.2a14.43,14.43,0,0,0,12.27-22l.12.2L125.2,29.07l.07.13a14.42,14.42,0,0,0-25.3.1" transform="translate(-7.92 -21.75)" style="fill:#fff"/><path d="M200.63,177.49a3.58,3.58,0,1,1-3.57,3.58,3.58,3.58,0,0,1,3.57-3.58m0,6.36a2.79,2.79,0,1,0-2.54-2.78,2.6,2.6,0,0,0,2.54,2.78m-1.43-4.78h1.49c1,0,1.59.3,1.59,1.19a1,1,0,0,1-1.05,1.06l1.05,1.72h-.87l-.95-1.68h-.41V183h-.85Zm1.54,1.63c.41,0,.69-.07.69-.52s-.44-.46-.78-.46h-.6v1Z" transform="translate(-7.92 -21.75)" style="fill:#231f20"/><path d="M20,187.45h4.5l5.31,13.77h-4l-1-2.94H19.6l-1.09,2.94H14.78Zm2.25,2.84h0l-1.78,5.39H23.9Z" transform="translate(-7.92 -21.75)" style="fill:#231f20"/><path d="M41.8,196.15c0,3.76-2.45,5.46-6,5.46s-6-1.7-6-5.46V187.6h3.67v7.94c0,1.81.5,3.35,2.37,3.35s2.37-1.54,2.37-3.35V187.6H41.8Z" transform="translate(-7.92 -21.75)" style="fill:#231f20"/><path d="M44,197.83a8.07,8.07,0,0,0,3.78.91c1.17,0,2.27-.24,2.27-1.35,0-2.56-6.51-.94-6.51-5.95,0-3.32,3.24-4.23,6-4.23a11.84,11.84,0,0,1,3.55.51l-.24,2.85a7.25,7.25,0,0,0-3-.63c-.93,0-2.47.07-2.47,1.28,0,2.23,6.51.73,6.51,5.7,0,3.57-3,4.54-6.06,4.54a14.57,14.57,0,0,1-4.1-.59Z" transform="translate(-7.92 -21.75)" style="fill:#231f20"/><polygon points="50.33 168.42 46.94 168.42 46.94 165.7 57.39 165.7 57.39 168.42 54 168.42 54 179.47 50.33 179.47 50.33 168.42" style="fill:#231f20"/><path d="M66.52,187.4h6.55c2.45,0,4.44,1.11,4.44,3.48a3.22,3.22,0,0,1-2.64,3.47v0c1.18.32,1.26,1.36,1.95,3l1.34,3.75H74.34l-.79-2.49c-.75-2.37-1.23-3-2.59-3h-.77v5.45H66.52Zm3.67,5.73h1c1.18,0,2.68,0,2.68-1.6,0-1.28-1.28-1.52-2.68-1.52h-1Z" transform="translate(-7.92 -21.75)" style="fill:#231f20"/><path d="M83.83,187.45h4.5l5.3,13.77h-4l-1-2.94H83.41l-1.08,2.94H78.6Zm2.25,2.84h0l-1.78,5.39h3.45Z" transform="translate(-7.92 -21.75)" style="fill:#231f20"/><polygon points="87.16 165.7 90.83 165.7 90.83 176.75 96.51 176.75 96.51 179.47 87.16 179.47 87.16 165.7" style="fill:#231f20"/><rect x="98.15" y="165.7" width="3.67" height="13.77" style="fill:#231f20"/><path d="M116.35,187.45h4.5l5.3,13.77h-4l-1-2.94h-5.17l-1.08,2.94h-3.73Zm2.25,2.84h0l-1.78,5.39h3.45Z" transform="translate(-7.92 -21.75)" style="fill:#231f20"/><polygon points="119.54 165.7 124.22 165.7 128.88 175.05 128.91 175.05 128.85 165.7 132.21 165.7 132.21 179.47 127.65 179.47 122.84 170.06 122.8 170.06 122.92 179.47 119.54 179.47 119.54 165.7" style="fill:#231f20"/><polygon points="140.57 165.7 146.36 165.7 149.28 174.86 149.31 174.86 152.38 165.7 157.94 165.7 157.94 179.47 154.35 179.47 154.41 168.9 154.37 168.9 150.85 179.47 147.48 179.47 144.13 168.9 144.09 168.9 144.17 179.47 140.57 179.47 140.57 165.7" style="fill:#231f20"/><path d="M172,187.45h4.49l5.31,13.77h-4l-1-2.94h-5.17l-1.08,2.94H166.8Zm2.24,2.84h0l-1.77,5.39h3.45Z" transform="translate(-7.92 -21.75)" style="fill:#231f20"/><path d="M183.28,187.45h5c4.8,0,8.15,1.5,8.15,6.83,0,5.15-3.45,6.94-8.15,6.94h-5ZM187,198.5h1.42c2.75,0,4.29-1.42,4.29-4.16s-1.6-4.17-4.29-4.17H187Z" transform="translate(-7.92 -21.75)" style="fill:#231f20"/><polygon points="190.03 165.7 199.74 165.7 199.74 168.3 193.7 168.3 193.7 171.15 199.4 171.15 199.4 173.75 193.7 173.75 193.7 176.87 199.95 176.87 199.95 179.47 190.03 179.47 190.03 165.7" style="fill:#231f20"/><path d="M197.48,169.32,118.58,32.9a6.78,6.78,0,0,0-11.89.05L51.16,129.83c17.57,1,26.05-6.89,34.26-14.54,7.3-6.78,14.84-13.8,27.42-13.8,16.23,0,24.54,15.11,24.89,15.8a4.62,4.62,0,0,1-8.25,4.16c-.48-.85-6.61-10.72-16.64-10.72-9,0-14.32,5-21.12,11.33-9,8.31-22.17,16.57-44.21,14.12L28.39,169.55a6.77,6.77,0,0,0,5.9,10.09h79.47l-10.48-14.8c-4-6.22-.71-11.38.37-13l11.56-18.52a4.62,4.62,0,0,1,6.36-1.47,4.63,4.63,0,0,1,1.46,6.36l-11.67,18.7c-.84,1.29-1.07,1.75-.24,3.07,2.19,3.52,12.87,19.36,13.08,19.68h67.52a6.76,6.76,0,0,0,5.76-10.32m-31.85-37.25a3.36,3.36,0,0,1-4.25.78,15.48,15.48,0,0,0-7.24-1.83,14.87,14.87,0,0,0-11.62,5.13l-15.94,20a3.55,3.55,0,0,1-2.4,1.12,2.78,2.78,0,0,1-2.29-1,3.06,3.06,0,0,1-.81-2.09,3.5,3.5,0,0,1,.5-1.78l10.53-17.86c5.73-9.35,12.93-11.78,19.3-12-.57-2.06-3-10.83-3-10.85-.24-1-.6-2.63,1-3.62a2.83,2.83,0,0,1,4.09.89L166,128.09a3.58,3.58,0,0,1-.38,4" transform="translate(-7.92 -21.75)" style="fill:#231f20"/><path d="M153.45,109a2.83,2.83,0,0,0-4.09-.89c-1.57,1-1.21,2.66-1,3.62,0,0,2.45,8.79,3,10.85-6.37.22-13.57,2.65-19.3,12l-10.53,17.86a3.5,3.5,0,0,0-.5,1.78,3.06,3.06,0,0,0,.81,2.09,2.78,2.78,0,0,0,2.29,1,3.55,3.55,0,0,0,2.4-1.12l15.94-20A14.87,14.87,0,0,1,154.14,131a15.48,15.48,0,0,1,7.24,1.83,3.36,3.36,0,0,0,4.25-.78,3.58,3.58,0,0,0,.38-4Z" transform="translate(-7.92 -21.75)" style="fill:#fff"/><path d="M91.72,122.06c6.8-6.33,12.17-11.33,21.12-11.33,10,0,16.16,9.87,16.64,10.72a4.62,4.62,0,0,0,8.25-4.16c-.35-.69-8.66-15.8-24.89-15.8-12.58,0-20.12,7-27.42,13.8-8.21,7.65-16.69,15.52-34.26,14.54l-3.65,6.35c22,2.45,35.26-5.81,44.21-14.12" transform="translate(-7.92 -21.75)" style="fill:#fff"/><path d="M111.36,156.89,123,138.19a4.63,4.63,0,0,0-1.46-6.36,4.62,4.62,0,0,0-6.36,1.47l-11.56,18.52c-1.08,1.64-4.4,6.8-.37,13l10.48,14.8H124.2c-.21-.32-10.89-16.16-13.08-19.68-.83-1.32-.6-1.78.24-3.07" transform="translate(-7.92 -21.75)" style="fill:#fff"/></svg>