<?xml version="1.0" encoding="UTF-8" standalone="no"?>
<!-- Created with Inkscape (http://www.inkscape.org/) -->

<svg
   xmlns:dc="http://purl.org/dc/elements/1.1/"
   xmlns:cc="http://creativecommons.org/ns#"
   xmlns:rdf="http://www.w3.org/1999/02/22-rdf-syntax-ns#"
   xmlns:svg="http://www.w3.org/2000/svg"
   xmlns="http://www.w3.org/2000/svg"
   xmlns:sodipodi="http://sodipodi.sourceforge.net/DTD/sodipodi-0.dtd"
   xmlns:inkscape="http://www.inkscape.org/namespaces/inkscape"
   width="0.78740156in"
   height="0.73528659in"
   viewBox="0 0 20 18.676279"
   version="1.1"
   id="svg1524"
   inkscape:version="0.92.2 (5c3e80d, 2017-08-06)"
   sodipodi:docname="Australian_Made4.svg">
  <defs
     id="defs1518" />
  <sodipodi:namedview
     id="base"
     pagecolor="#ffffff"
     bordercolor="#666666"
     borderopacity="1.0"
     inkscape:pageopacity="0.0"
     inkscape:pageshadow="2"
     inkscape:zoom="7.9195959"
     inkscape:cx="35.983245"
     inkscape:cy="35.381726"
     inkscape:document-units="in"
     inkscape:current-layer="layer1"
     showgrid="false"
     inkscape:window-width="2560"
     inkscape:window-height="1017"
     inkscape:window-x="-8"
     inkscape:window-y="-8"
     inkscape:window-maximized="1"
     fit-margin-top="0"
     fit-margin-left="0"
     fit-margin-right="0"
     fit-margin-bottom="0"
     units="in" />
  <metadata
     id="metadata1521">
    <rdf:RDF>
      <cc:Work
         rdf:about="">
        <dc:format>image/svg+xml</dc:format>
        <dc:type
           rdf:resource="http://purl.org/dc/dcmitype/StillImage" />
        <dc:title></dc:title>
      </cc:Work>
    </rdf:RDF>
  </metadata>
  <g
     inkscape:label="Layer 1"
     inkscape:groupmode="layer"
     id="layer1"
     transform="translate(-107.92857,-196.19162)">
    <path
       style="fill:#000000;fill-opacity:1;fill-rule:evenodd;stroke:none;stroke-width:0.13950002;stroke-opacity:1"
       d="M 117.66061,208.45428 H 110.47254 L 110.40524,208.57198 109.81291,209.60869 109.22058,210.64513 108.62825,211.68157 108.03592,212.71829 108.03538,212.71882 108.03483,212.71988 108.03429,212.72094 108.03374,212.722 108.0332,212.72252 H 109.98647 111.9392 113.8922 115.8452 117.7982 C 117.7982,212.72252 117.76948,212.67601 117.72055,212.59747 117.6984,212.56196 117.67195,212.5199 117.64235,212.47268 117.61827,212.43426 117.59221,212.39238 117.56415,212.34789 117.53921,212.30831 117.51286,212.26665 117.48541,212.22338 117.45991,212.18316 117.43329,212.14142 117.40613,212.09886 117.33671,211.99046 117.26893,211.88966 117.20396,211.79425 117.13118,211.68739 117.06199,211.58753 116.99825,211.49182 116.92647,211.38402 116.86154,211.28138 116.80617,211.1804 116.74492,211.06869 116.69535,210.95892 116.66094,210.84554 116.6261,210.73073 116.607,210.61245 116.607,210.48508 116.60648,210.38859 116.61977,210.29323 116.64296,210.20035 116.6662,210.10729 116.69925,210.01656 116.73832,209.92926 116.77808,209.84042 116.824,209.75515 116.87183,209.6745 116.9231,209.58804 116.97656,209.50694 117.02713,209.43256 117.08829,209.34258 117.14528,209.26254 117.1887,209.1947 117.22675,209.13525 117.27676,209.05651 117.3331,208.96801 117.37825,208.89711 117.42744,208.81994 117.47751,208.74132 117.5257,208.66565 117.57467,208.58861 117.62191,208.51464 117.63567,208.4931 117.64722,208.47532 117.6606,208.45443 Z"
       id="path940"
       inkscape:connector-curvature="0" />
    <path
       style="fill:#000000;fill-opacity:1;fill-rule:evenodd;stroke:none;stroke-width:0.13950002;stroke-opacity:1"
       d="M 124.60345,208.45428 H 120.54024 C 120.51015,208.49979 120.47972,208.54507 120.45033,208.59105 120.40074,208.66864 120.35211,208.7468 120.30457,208.82564 120.25698,208.90454 120.21058,208.98421 120.16507,209.06432 120.11957,209.14439 120.07496,209.22502 120.03156,209.30626 119.98817,209.38747 119.94587,209.46913 119.90459,209.55148 119.88835,209.57857 119.86976,209.60413 119.84928,209.62749 119.82857,209.65115 119.80587,209.67263 119.78144,209.69207 119.75687,209.71159 119.73064,209.729 119.70297,209.74382 119.67545,209.75858 119.64655,209.77091 119.6166,209.7806 119.58704,209.79017 119.55663,209.79711 119.52533,209.80129 L 119.52561,209.80235 119.52645,209.8034 119.52698,209.80446 119.52751,209.80552 119.52804,209.80658 C 119.51022,209.80686 119.49253,209.80615 119.47491,209.80446 119.45729,209.80287 119.43958,209.80023 119.42233,209.79631 119.40502,209.79261 119.38814,209.78785 119.37138,209.78213 119.35465,209.77647 119.33809,209.7698 119.32206,209.76223 119.30611,209.75472 119.29056,209.74625 119.27547,209.73689 119.14079,209.66056 119.08198,209.54959 119.0744,209.41811 119.06776,209.303 119.10036,209.1723 119.15586,209.03503 119.20228,208.92023 119.26477,208.80099 119.33351,208.68273 119.37853,208.60528 119.42688,208.53055 119.47464,208.45551 H 118.71856 C 118.71602,208.45921 118.71279,208.46519 118.71039,208.46884 L 118.51966,208.76064 118.32894,209.05245 118.13795,209.34426 117.94722,209.63634 117.75623,209.92814 C 117.74028,209.95169 117.71028,209.99388 117.67613,210.04693 117.65247,210.08366 117.62694,210.12543 117.60256,210.16981 117.57975,210.21135 117.55806,210.25524 117.54017,210.29896 117.52113,210.34547 117.5065,210.39184 117.4993,210.43574 117.49076,210.48786 117.49265,210.53625 117.51075,210.5766 117.55067,210.66344 117.60347,210.75653 117.67014,210.86295 117.72168,210.94524 117.78164,211.03543 117.85023,211.13705 117.90586,211.21946 117.9673,211.3096 118.03469,211.40869 118.09157,211.49234 118.15273,211.58247 118.21833,211.68034 118.27535,211.76542 118.3357,211.85628 118.39951,211.95361 118.43422,212.00653 118.46793,212.058 118.50032,212.10755 118.53549,212.16135 118.56901,212.21276 118.60086,212.26149 118.63689,212.31663 118.67072,212.36831 118.70167,212.41544 118.74006,212.4739 118.77398,212.52553 118.80303,212.56883 118.86562,212.66215 118.9047,212.71651 118.91147,212.71651 H 120.54296 122.17392 123.80541 125.43664 127.06786 L 125.15654,209.4118 Z"
       id="path938"
       inkscape:connector-curvature="0" />
    <path
       style="fill:#000000;fill-opacity:1;fill-rule:evenodd;stroke:none;stroke-width:0.13950002;stroke-opacity:1"
       d="M 117.51075,196.19162 C 117.51075,196.19162 117.00828,197.06086 116.29231,198.30075 115.92877,198.9303 115.51004,199.65565 115.07441,200.41096 114.67361,201.10586 114.25839,201.82623 113.85814,202.52144 113.42308,203.27712 113.00573,204.00291 112.64405,204.63356 111.93537,205.86927 111.44027,206.73973 111.44386,206.7533 111.44386,206.7533 111.60319,206.86195 111.8561,206.98653 111.98112,207.04811 112.12906,207.11338 112.29203,207.17153 112.43424,207.22228 112.58773,207.26744 112.74759,207.29958 112.9003,207.33027 113.05866,207.34927 113.21813,207.3497 113.37483,207.35015 113.53256,207.33287 113.68703,207.29166 113.80187,207.26055 113.90537,207.22928 113.999,207.19794 114.11414,207.15941 114.21438,207.12066 114.30307,207.08187 114.41637,207.03229 114.51076,206.98269 114.59242,206.93283 114.69625,206.86945 114.77973,206.80574 114.85616,206.74211 114.94111,206.67139 115.01727,206.60054 115.10301,206.52986 115.19619,206.45305 115.38544,206.25131 115.64439,206.00646 115.80802,205.85175 115.99944,205.67988 116.2122,205.51168 116.40295,205.36088 116.61079,205.21283 116.83096,205.08282 117.04768,204.95485 117.27631,204.8442 117.51239,204.76514 117.75268,204.68465 118.00071,204.6368 118.25157,204.6368 118.4692,204.6368 118.6705,204.67379 118.85562,204.73707 119.0553,204.80533 119.23611,204.90439 119.39863,205.02098 119.57036,205.14416 119.72154,205.28701 119.85255,205.43402 120.00067,205.60023 120.12319,205.77159 120.22038,205.92609 120.41228,206.23119 120.50591,206.46992 120.50591,206.46992 120.51537,206.48997 120.52324,206.51077 120.52935,206.53177 120.5355,206.55299 120.53996,206.57458 120.5427,206.59634 120.54545,206.6182 120.5464,206.64 120.54571,206.66201 120.54503,206.68391 120.54254,206.70577 120.53836,206.7274 120.53423,206.74888 120.52847,206.77031 120.52092,206.79115 120.51337,206.812 120.50401,206.83195 120.4934,206.85109 120.48272,206.87041 120.47068,206.88882 120.45717,206.90613 120.44362,206.92349 120.42859,206.93963 120.41248,206.95466 120.39646,206.96958 120.37927,206.98323 120.36099,206.99551 120.34286,207.00773 120.32385,207.01858 120.30377,207.02795 120.25183,207.05499 120.20278,207.07113 120.15692,207.07838 120.10091,207.08721 120.04943,207.08314 120.00243,207.06964 119.95114,207.05515 119.90522,207.0298 119.86457,206.99907 119.82184,206.96674 119.78502,206.92839 119.75395,206.89009 119.71611,206.84347 119.68694,206.79686 119.66622,206.76149 119.64121,206.71879 119.57818,206.58566 119.47904,206.422 119.4188,206.32258 119.34528,206.21196 119.25861,206.1035 119.18002,206.00514 119.09057,205.90864 118.99079,205.82396 118.89218,205.74027 118.78343,205.668 118.66465,205.61716 118.5485,205.56742 118.42281,205.53814 118.28784,205.53814 118.06359,205.53814 117.84631,205.58693 117.63339,205.67274 117.43492,205.75272 117.24037,205.86484 117.04759,205.99942 116.87127,206.12251 116.69652,206.26458 116.52174,206.41792 116.35759,206.56193 116.19318,206.71593 116.02777,206.87402 115.86754,207.02716 115.70627,207.18404 115.54252,207.33911 115.43086,207.44521 115.30827,207.54048 115.17906,207.62547 115.04934,207.71079 114.91305,207.78577 114.77473,207.85133 114.63205,207.91896 114.48705,207.97636 114.34505,208.02462 114.19089,208.07701 114.04011,208.11861 113.89904,208.15022 113.7286,208.18843 113.57231,208.21219 113.44157,208.22352 113.42531,208.22564 113.40924,208.22669 113.39308,208.22828 113.37678,208.22934 113.36052,208.2304 113.34431,208.23146 113.32796,208.23199 113.31155,208.23251 113.29526,208.23304 113.27893,208.23337 113.26279,208.2335 113.24649,208.23357 113.2302,208.23365 113.21372,208.23357 113.19745,208.23357 113.03746,208.23463 112.88147,208.22336 112.73099,208.20278 112.57112,208.18092 112.41745,208.14853 112.27244,208.10986 112.11299,208.0671 111.96384,208.017 111.82776,207.96412 111.66521,207.90095 111.52149,207.83392 111.40109,207.7723 111.14717,207.64237 110.99757,207.53581 110.99757,207.53581 L 110.47254,208.45428 H 117.66061 C 117.69752,208.39657 117.735,208.338 117.76714,208.28807 117.83334,208.18522 117.8863,208.10361 117.91399,208.06302 117.94359,208.01947 117.98037,207.96432 118.02434,207.90908 118.06239,207.8613 118.10567,207.81337 118.15485,207.77285 118.20392,207.73242 118.25865,207.69944 118.31914,207.68103 118.37625,207.66368 118.43847,207.65944 118.50605,207.67447 118.56006,207.68648 118.61765,207.71061 118.67852,207.75049 118.73204,207.7852 118.77261,207.82203 118.80276,207.85974 118.84153,207.90827 118.86295,207.95835 118.87169,208.00878 118.8813,208.06417 118.87566,208.11965 118.86134,208.17307 118.84687,208.22704 118.82358,208.27911 118.79785,208.32647 118.77128,208.37542 118.74279,208.41739 118.71857,208.45426 H 119.47465 C 119.49743,208.41843 119.51945,208.38055 119.54194,208.34581 119.62023,208.22495 119.69504,208.11172 119.75392,208.01287 119.80049,207.93109 119.85098,207.85165 119.90486,207.77501 119.95896,207.69807 120.01657,207.62396 120.0776,207.55268 120.1387,207.48133 120.20318,207.41301 120.27078,207.34779 120.33833,207.28261 120.40887,207.22056 120.48248,207.16197 120.55578,207.10364 120.63221,207.04874 120.71107,206.99741 120.77688,206.95677 120.8444,206.91963 120.91379,206.88652 120.98345,206.85328 121.05477,206.82399 121.1274,206.79851 121.20009,206.773 121.27416,206.75147 121.34918,206.73394 121.42415,206.71642 121.50032,206.70298 121.57696,206.69361 121.65326,206.68425 121.73014,206.6789 121.80746,206.67779 121.80746,206.67779 121.7757,206.63091 121.73008,206.56309 121.70715,206.52901 121.68072,206.48973 121.65297,206.44838 121.62786,206.41097 121.6017,206.37193 121.57614,206.33367 121.54928,206.29346 121.52316,206.25399 121.49958,206.21842 121.46821,206.17111 121.44145,206.13061 121.42383,206.10318 121.40263,206.07016 121.38165,206.02403 121.36634,205.97103 121.35371,205.92727 121.34491,205.8787 121.34318,205.82881 121.34154,205.78145 121.34615,205.73302 121.3598,205.68604 121.37284,205.64122 121.39404,205.59787 121.42574,205.55853 121.45363,205.52392 121.48956,205.49235 121.53527,205.46561 121.61438,205.41783 121.68774,205.39324 121.75542,205.3866 121.83906,205.3784 121.91437,205.39745 121.98238,205.43401 122.04937,205.47 122.10926,205.52289 122.16302,205.58305 122.21558,205.64187 122.26215,205.70775 122.30388,205.77159 122.3519,205.84506 122.39326,205.91583 122.42949,205.97049 122.46114,206.01822 122.49864,206.07526 122.53902,206.13696 122.57381,206.19014 122.61086,206.24683 122.648,206.30398 122.68455,206.36023 122.7213,206.41713 122.75644,206.47154 122.79519,206.53155 122.83197,206.58855 122.86433,206.63911 122.91204,206.71363 122.95019,206.7738 122.97087,206.80749 122.99111,206.84051 123.02725,206.8869 123.06514,206.94317 123.09374,206.98567 123.12345,207.0338 123.14769,207.08622 123.17038,207.13527 123.18839,207.18808 123.19674,207.24343 123.20469,207.29619 123.20377,207.35109 123.18965,207.40745 123.1774,207.4564 123.15527,207.50653 123.12017,207.55676 123.08348,207.60925 123.04278,207.64842 122.99974,207.67719 122.94961,207.71068 122.8963,207.73005 122.84172,207.7393 122.78518,207.74888 122.72729,207.74772 122.67088,207.74089 122.61273,207.73359 122.55595,207.71988 122.50332,207.70523 122.44125,207.68792 122.38513,207.66903 122.33903,207.65728 122.29041,207.63993 122.24099,207.62516 122.19108,207.61315 122.14098,207.60109 122.09028,207.59177 122.03932,207.58511 121.98831,207.57844 121.93708,207.57463 121.88565,207.57341 121.83432,207.57235 121.78275,207.57352 121.73144,207.57764 121.6803,207.58188 121.62927,207.58892 121.57859,207.5986 121.49987,207.61908 121.42108,207.64723 121.34155,207.68552 121.27012,207.71991 121.19826,207.76265 121.12521,207.81548 121.06162,207.86146 120.99724,207.91518 120.93177,207.97786 120.87499,208.03221 120.81737,208.0931 120.75875,208.16178 120.70741,208.22192 120.65512,208.28808 120.60209,208.3604 120.58106,208.39146 120.56093,208.4231 120.54024,208.4544 H 124.60345 L 123.24496,206.10605 121.33365,202.8011 119.42234,199.49642 Z"
       id="path4"
       inkscape:connector-curvature="0" />
    <path
       style="fill-rule:evenodd;stroke-width:0.13950002"
       d="M 109.29905,214.51027 V 214.82332 H 109.33965 109.41975 L 109.31458,214.55059 Z"
       id="path947"
       inkscape:connector-curvature="0" />
    <path
       style="fill-rule:evenodd;stroke-width:0.13950002"
       d="M 109.11405,214.03019 H 108.7574 L 108.76666,214.06072 108.79963,214.1678 108.8326,214.27515 H 108.76339 108.69419 108.62498 108.55578 108.48657 L 108.52281,214.1678 108.55905,214.06072 108.5694,214.03019 H 108.23019 L 108.13619,214.27758 108.03238,214.55032 107.92857,214.82332 H 108.00241 108.07652 108.15035 108.22419 108.2983 L 108.31983,214.76502 108.34135,214.70698 108.36287,214.64895 108.38413,214.59119 108.40565,214.53315 H 108.50837 108.61109 108.71353 108.81625 108.91897 L 108.93913,214.59119 108.95929,214.64922 108.97945,214.70725 108.99934,214.76529 109.01951,214.82332 H 109.09961 109.17971 109.25954 109.29905 V 214.51027 L 109.20941,214.27758 Z"
       id="path945"
       inkscape:connector-curvature="0" />
    <path
       style="fill-rule:evenodd;stroke-width:0.13950002"
       d="M 108.44761,213.45884 108.3438,213.73157 108.23999,214.00458 108.23019,214.03019 H 108.5694 L 108.59528,213.95363 108.63179,213.84655 108.66803,213.7392 108.70073,213.84655 108.73369,213.95363 108.7574,214.03019 H 109.11405 L 109.10424,214.00484 108.99907,213.73184 108.8939,213.45883 H 108.80453 108.71517 108.62607 108.5367 Z"
       id="path6"
       inkscape:connector-curvature="0" />
    <path
       d="M 110.00852,214.86231 C 109.94355,214.86231 109.88236,214.8567 109.82573,214.84521 109.76211,214.8323 109.70424,214.81209 109.65324,214.78414 109.59825,214.75403 109.55125,214.71498 109.51364,214.66664 109.47781,214.62055 109.45051,214.56607 109.43296,214.5028 109.41795,214.4487 109.41006,214.38818 109.41006,214.32105 109.41006,214.32105 109.41006,214.25113 109.41006,214.15145 109.41006,214.10081 109.41006,214.04249 109.41006,213.98175 109.41006,213.92589 109.41006,213.86797 109.41006,213.81211 109.41006,213.75137 109.41006,213.69306 109.41006,213.64242 109.41006,213.54278 109.41006,213.47289 109.41006,213.47289 109.41006,213.47289 109.44007,213.47289 109.48287,213.47289 109.5046,213.47289 109.52964,213.47289 109.55571,213.47289 109.57967,213.47289 109.60451,213.47289 109.62846,213.47289 109.65455,213.47289 109.67959,213.47289 109.70134,213.47289 109.74414,213.47289 109.77416,213.47289 109.77416,213.47289 109.77416,213.47289 109.77416,213.53775 109.77416,213.63022 109.77416,213.67721 109.77416,213.73129 109.77416,213.78764 109.77416,213.83944 109.77416,213.89318 109.77416,213.945 109.77416,214.00135 109.77416,214.05544 109.77416,214.10241 109.77416,214.19485 109.77416,214.25967 109.77416,214.25967 109.77416,214.29158 109.77569,214.32259 109.77925,214.35204 109.78315,214.38432 109.78949,214.41477 109.7989,214.44239 109.80943,214.47324 109.82379,214.50061 109.8429,214.52322 109.86251,214.54639 109.8871,214.56454 109.91767,214.57634 109.9435,214.58629 109.97358,214.59168 110.00852,214.59168 110.04349,214.59168 110.07365,214.58629 110.09957,214.57629 110.1301,214.56454 110.15474,214.54649 110.17445,214.52342 110.19373,214.50088 110.20828,214.47357 110.21896,214.44275 110.22856,214.41507 110.23505,214.38457 110.23905,214.35217 110.24269,214.3227 110.24427,214.2916 110.24427,214.25965 110.24427,214.25965 110.24427,214.1948 110.24427,214.10233 110.24427,214.05534 110.24427,214.00126 110.24427,213.94491 110.24427,213.8931 110.24427,213.83937 110.24427,213.78755 110.24427,213.7312 110.24427,213.67711 110.24427,213.63014 110.24427,213.5377 110.24427,213.47288 110.24427,213.47288 110.24427,213.47288 110.27429,213.47288 110.31708,213.47288 110.33882,213.47288 110.36385,213.47288 110.38993,213.47288 110.41388,213.47288 110.43872,213.47288 110.46268,213.47288 110.48876,213.47288 110.5138,213.47288 110.53555,213.47288 110.57835,213.47288 110.60837,213.47288 110.60837,213.47288 110.60837,213.47288 110.60837,213.54325 110.60837,213.64359 110.60837,213.69455 110.60837,213.75327 110.60837,213.81441 110.60837,213.87064 110.60837,213.92893 110.60837,213.98516 110.60837,214.0463 110.60837,214.105 110.60837,214.15597 110.60837,214.25627 110.60837,214.32661 110.60837,214.32661 110.60837,214.39391 110.60045,214.45455 110.58536,214.50875 110.56773,214.57206 110.54033,214.62659 110.50436,214.67265 110.46664,214.72096 110.41949,214.75994 110.36432,214.79001 110.31324,214.81784 110.25527,214.838 110.19153,214.85086 110.13484,214.86229 110.07358,214.8679 110.00852,214.8679 110.00852,214.8679 110.00852,214.86748 110.00852,214.86684 110.00852,214.86656 110.00852,214.86631 110.00852,214.86578 110.00852,214.86536 110.00852,214.86472 110.00852,214.86472 110.00852,214.86431 110.00852,214.86367 110.00852,214.86367 110.00852,214.86314 110.00852,214.86261 110.00852,214.86261"
       style="fill-rule:evenodd;stroke-width:0.13950002"
       id="path8"
       inkscape:connector-curvature="0" />
    <path
       d="M 111.19845,214.84836 C 111.17089,214.84841 111.14336,214.84783 111.1159,214.84624 111.08838,214.84465 111.06093,214.84201 111.03358,214.83904 111.00617,214.83587 110.97887,214.83179 110.9517,214.82698 110.92462,214.82222 110.89767,214.81655 110.87089,214.81015 110.84411,214.80375 110.81751,214.7965 110.79111,214.78851 110.79111,214.78851 110.79376,214.7638 110.79753,214.72853 110.79944,214.71065 110.80164,214.69011 110.80393,214.66868 110.80604,214.64894 110.80823,214.62846 110.81034,214.60871 110.81265,214.58723 110.81485,214.56654 110.81677,214.54863 110.82055,214.51334 110.8232,214.48857 110.8232,214.48857 110.84631,214.50048 110.86992,214.51122 110.89396,214.5208 110.91811,214.53043 110.94269,214.53884 110.9676,214.54609 110.99256,214.55334 111.01786,214.55932 111.04341,214.56414 111.06888,214.5689 111.09459,214.57244 111.12046,214.57477 111.14633,214.57689 111.17236,214.57795 111.19845,214.57795 111.21886,214.57795 111.2391,214.57742 111.25859,214.5753 111.2794,214.57318 111.29936,214.57001 111.31777,214.56514 111.33841,214.55959 111.35711,214.55186 111.37287,214.54133 111.38984,214.53 111.40342,214.5154 111.41237,214.49672 111.42015,214.48053 111.42444,214.46127 111.42444,214.43841 111.42444,214.36973 111.37708,214.33137 111.30797,214.30212 111.25602,214.28011 111.19177,214.26328 111.12612,214.24258 111.06576,214.22353 111.00422,214.20125 110.94997,214.16865 110.89588,214.13616 110.84903,214.09348 110.81781,214.03364 110.79225,213.98464 110.77716,213.92415 110.77716,213.84834 110.77716,213.78719 110.78832,213.73429 110.80826,213.6887 110.83097,213.63673 110.86507,213.59428 110.90702,213.55988 110.9481,213.52622 110.9967,213.50025 111.04951,213.48072 111.09957,213.4622 111.15342,213.44945 111.20822,213.44135 111.2626,213.43331 111.31793,213.42981 111.37143,213.42981 111.39532,213.42953 111.4192,213.42993 111.44301,213.43087 111.46687,213.43193 111.49068,213.43405 111.51439,213.43669 111.53815,213.43934 111.56182,213.44288 111.58536,213.44707 111.60883,213.4513 111.63217,213.45622 111.65535,213.46188 111.67853,213.46754 111.70155,213.474 111.72437,213.48114 111.72437,213.48114 111.72253,213.50416 111.71991,213.53693 111.71858,213.55355 111.71705,213.57271 111.71545,213.59261 111.71398,213.61097 111.71246,213.63002 111.71099,213.6484 111.70939,213.66835 111.70786,213.6875 111.70653,213.70414 111.70389,213.73711 111.70205,213.7602 111.70205,213.7602 111.68288,213.75174 111.6634,213.74412 111.64365,213.73734 111.62381,213.73052 111.60371,213.72459 111.5834,213.71951 111.56306,213.71422 111.5425,213.7102 111.52179,213.70686 111.50114,213.70369 111.48034,213.70104 111.45945,213.69951 111.43856,213.69792 111.41757,213.69739 111.39654,213.69739 111.37803,213.69739 111.35697,213.69781 111.33516,213.69951 111.31507,213.7011 111.29434,213.70321 111.27441,213.70761 111.25365,213.71184 111.23374,213.71819 111.2163,213.72697 111.19724,213.7366 111.18112,213.74941 111.17003,213.76629 111.15977,213.7819 111.15381,213.80106 111.15381,213.82454 111.15381,213.88697 111.20499,213.92001 111.27854,213.94607 111.33051,213.96448 111.39365,213.97941 111.45779,213.99883 111.51702,214.01671 111.5771,214.03841 111.63003,214.07008 111.68306,214.10183 111.72891,214.14364 111.75953,214.20176 111.7848,214.24976 111.7997,214.30883 111.7997,214.38256 111.7997,214.44665 111.79001,214.50232 111.77234,214.55052 111.75143,214.6076 111.71934,214.65421 111.67893,214.69192 111.63811,214.73002 111.58879,214.75907 111.53393,214.78067 111.48289,214.80078 111.42704,214.81443 111.36878,214.82295 111.31351,214.83105 111.25605,214.83454 111.19845,214.83454 111.19845,214.83454 111.19845,214.8356 111.19845,214.83719 111.19845,214.83824 111.19845,214.83877 111.19845,214.83983 111.19845,214.84089 111.19845,214.84195 111.19845,214.84248 111.19845,214.84354 111.19845,214.84459 111.19845,214.84512 111.19845,214.84671 111.19845,214.84777 111.19845,214.84777"
       style="fill-rule:evenodd;stroke-width:0.13950002"
       id="path10"
       inkscape:connector-curvature="0" />
    <path
       id="polygon12"
       d="M 112.23912,213.72817 C 112.23912,213.72817 112.21129,213.72817 112.17162,213.72817 112.15146,213.72817 112.12825,213.72817 112.10407,213.72817 112.08186,213.72817 112.05883,213.72817 112.03662,213.72817 112.01243,213.72817 111.98921,213.72817 111.96905,213.72817 111.92937,213.72817 111.90153,213.72817 111.90153,213.72817 111.90153,213.72817 111.90153,213.706 111.90153,213.67433 111.90153,213.6583 111.90153,213.63983 111.90153,213.62061 111.90153,213.60288 111.90153,213.58452 111.90153,213.56678 111.90153,213.54752 111.90153,213.52905 111.90153,213.51298 111.90153,213.48123 111.90153,213.45893 111.90153,213.45893 111.90153,213.45893 111.98709,213.45893 112.10907,213.45893 112.17103,213.45893 112.2424,213.45893 112.31673,213.45893 112.38509,213.45893 112.45596,213.45893 112.52432,213.45893 112.59864,213.45893 112.67,213.45893 112.73196,213.45893 112.8539,213.45893 112.93941,213.45893 112.93941,213.45893 112.93941,213.45893 112.93941,213.48111 112.93941,213.51277 112.93941,213.52881 112.93941,213.54727 112.93941,213.5665 112.93941,213.58423 112.93941,213.60259 112.93941,213.62033 112.93941,213.63959 112.93941,213.65806 112.93941,213.67413 112.93941,213.70588 112.93941,213.72817 112.93941,213.72817 112.93941,213.72817 112.91158,213.72817 112.87191,213.72817 112.85175,213.72817 112.82854,213.72817 112.80436,213.72817 112.78215,213.72817 112.75912,213.72817 112.73691,213.72817 112.71272,213.72817 112.6895,213.72817 112.66934,213.72817 112.62966,213.72817 112.60182,213.72817 112.60182,213.72817 112.60182,213.72817 112.60182,213.81844 112.60182,213.94714 112.60182,214.01253 112.60182,214.08782 112.60182,214.16624 112.60182,214.23838 112.60182,214.31315 112.60182,214.38527 112.60182,214.46369 112.60182,214.53898 112.60182,214.60436 112.60182,214.73302 112.60182,214.82325 112.60182,214.82325 112.60182,214.82325 112.57192,214.82325 112.5293,214.82325 112.50764,214.82325 112.4827,214.82325 112.45673,214.82325 112.43286,214.82325 112.40812,214.82325 112.38426,214.82325 112.35827,214.82325 112.33332,214.82325 112.31166,214.82325 112.26903,214.82325 112.23912,214.82325 112.23912,214.82325 112.23912,214.82325 112.23912,214.73298 112.23912,214.60427 112.23912,214.53889 112.23912,214.46359 112.23912,214.38517 112.23912,214.31304 112.23912,214.23827 112.23912,214.16614 112.23912,214.08772 112.23912,214.01243 112.23912,213.94706 112.23912,213.8184 112.23912,213.72817 112.23912,213.72817"
       style="fill-rule:evenodd;stroke-width:0.13950002"
       inkscape:connector-curvature="0" />
    <path
       style="fill-rule:evenodd;stroke-width:0.13950002"
       d="M 113.05928,213.89723 V 213.99967 214.27268 214.54596 214.81896 H 113.1323 113.20505 113.2778 113.35054 113.42356 V 214.71107 214.6029 214.49528 214.38711 214.27922 H 113.43882 113.45408 113.46961 113.48486 113.50012 C 113.53269,214.27922 113.56016,214.28292 113.58404,214.29118 113.61047,214.30065 113.63265,214.31626 113.6527,214.34023 113.66837,214.35896 113.68263,214.38283 113.69684,214.4127 113.7076,214.43535 113.71825,214.46133 113.72926,214.49144 113.73812,214.51568 113.74721,214.54251 113.75677,214.57209 L 113.7723,214.62168 113.78756,214.671 113.80282,214.72031 113.81835,214.76963 113.8336,214.81895 H 113.90935 113.98536 114.06111 114.13712 114.21314 L 114.18671,214.74484 114.16056,214.67046 114.1344,214.59635 114.10824,214.52224 114.08182,214.44786 C 114.07144,214.42314 114.06247,214.39981 114.0543,214.37783 114.04482,214.35233 114.03658,214.32899 114.02842,214.30727 114.01871,214.28144 114.00932,214.25811 113.99872,214.23779 113.98625,214.21387 113.972,214.19397 113.95377,214.17785 113.93631,214.1624 113.91522,214.15049 113.8881,214.14245 113.92008,214.13663 113.94992,214.12615 113.97747,214.11192 114.0059,214.0972 114.03187,214.07858 114.0543,214.05661 114.07694,214.03443 114.09605,214.00893 114.11125,213.98114 114.12547,213.9551 114.13548,213.92669 114.14203,213.89722 H 113.77966 C 113.77749,213.90875 113.77749,213.92262 113.7734,213.93209 113.76314,213.95574 113.74725,213.97299 113.72762,213.98576 113.70843,213.99825 113.68546,214.00645 113.66087,214.01164 113.63827,214.0164 113.61433,214.01862 113.59003,214.01979 113.56587,214.02085 113.54153,214.02137 113.51837,214.02137 H 113.4993 113.4805 113.46115 113.44235 113.42355 V 213.95925 213.89741 Z"
       id="path952"
       inkscape:connector-curvature="0" />
    <path
       style="fill-rule:evenodd;stroke-width:0.13950002"
       d="M 113.05928,213.89723 H 113.42356 V 213.89695 213.8351 213.77325 213.71141 H 113.44237 113.46144 113.48051 113.49931 113.51838 C 113.542,213.71141 113.56518,213.71193 113.58759,213.71405 113.61163,213.71617 113.63468,213.71934 113.65597,213.72416 113.68015,213.72971 113.70212,213.73755 113.72082,213.74813 113.74185,213.76004 113.75879,213.77549 113.77013,213.79554 113.78046,213.8138 113.78621,213.83581 113.78621,213.86229 113.78621,213.87631 113.78187,213.88579 113.77967,213.89743 H 114.14204 C 114.14243,213.89584 114.14358,213.89425 114.14395,213.89267 114.15017,213.86229 114.15193,213.83073 114.14887,213.79839 114.14887,213.75256 114.14127,213.71142 114.12734,213.67497 114.11186,213.63449 114.08869,213.59951 114.05895,213.57034 114.02988,213.54182 113.99466,213.5188 113.95487,213.50087 113.91834,213.48436 113.87793,213.47213 113.83472,213.46435 113.79505,213.45721 113.75288,213.45372 113.70939,213.45372 H 113.57941 113.44945 113.31949 113.18925 113.05928 V 213.72672 Z"
       id="path14"
       inkscape:connector-curvature="0" />
    <path
       style="fill-rule:evenodd;stroke-width:0.13950002"
       d="M 114.51395,214.14898 114.46519,214.27758 114.36138,214.55032 114.25757,214.82332 H 114.33113 114.40443 114.47772 114.55128 114.62457 L 114.64665,214.76502 114.66872,214.70698 114.69079,214.64895 114.71286,214.59119 114.73466,214.53315 H 114.8371 114.93955 115.04199 115.14444 115.24688 L 115.26704,214.59119 115.28748,214.64922 115.30792,214.70725 115.32835,214.76529 115.34851,214.82332 H 115.42862 115.50872 115.58883 115.66893 115.74903 L 115.64386,214.55059 115.53869,214.27758 115.4891,214.14898 H 115.12181 L 115.12753,214.16777 115.16023,214.27512 H 115.09184 115.02346 114.95507 114.88695 114.81856 L 114.85426,214.16777 114.86052,214.14898 Z"
       id="path957"
       inkscape:connector-curvature="0" />
    <path
       style="fill-rule:evenodd;stroke-width:0.13950002"
       d="M 114.51395,214.14898 H 114.86052 L 114.88995,214.0607 114.92564,213.95363 114.96134,213.84655 114.99703,213.7392 115.02972,213.84655 115.06242,213.95363 115.09484,214.0607 115.12182,214.14898 H 115.48909 L 115.43351,214.00485 115.32807,213.73185 115.2229,213.45884 H 115.1338 115.04444 114.95534 114.86597 114.77661 L 114.6728,213.73157 114.56899,214.00458 Z"
       id="path16"
       inkscape:connector-curvature="0" />
    <path
       id="polygon18"
       d="M 115.88984,213.45893 C 115.88984,213.45893 115.91996,213.45893 115.96292,213.45893 115.98474,213.45893 116.00987,213.45893 116.03605,213.45893 116.0601,213.45893 116.08503,213.45893 116.10908,213.45893 116.13526,213.45893 116.1604,213.45893 116.18223,213.45893 116.22519,213.45893 116.25533,213.45893 116.25533,213.45893 116.25533,213.45893 116.25533,213.54921 116.25533,213.67791 116.25533,213.74329 116.25533,213.81859 116.25533,213.89701 116.25533,213.96914 116.25533,214.04391 116.25533,214.11604 116.25533,214.19446 116.25533,214.26975 116.25533,214.33512 116.25533,214.46378 116.25533,214.55401 116.25533,214.55401 116.25533,214.55401 116.30167,214.55401 116.36774,214.55401 116.40131,214.55401 116.43996,214.55401 116.48022,214.55401 116.51722,214.55401 116.55556,214.55401 116.59255,214.55401 116.63283,214.55401 116.6715,214.55401 116.70508,214.55401 116.77116,214.55401 116.81751,214.55401 116.81751,214.55401 116.81751,214.55401 116.81751,214.57618 116.81751,214.60785 116.81751,214.62388 116.81751,214.64235 116.81751,214.66158 116.81751,214.6793 116.81751,214.69767 116.81751,214.7154 116.81751,214.73467 116.81751,214.75313 116.81751,214.7692 116.81751,214.80095 116.81751,214.82325 116.81751,214.82325 116.81751,214.82325 116.74104,214.82325 116.63201,214.82325 116.57663,214.82325 116.51284,214.82325 116.4464,214.82325 116.3853,214.82325 116.32196,214.82325 116.26086,214.82325 116.19443,214.82325 116.13064,214.82325 116.07526,214.82325 115.96627,214.82325 115.88984,214.82325 115.88984,214.82325 115.88984,214.82325 115.88984,214.71078 115.88984,214.55044 115.88984,214.46898 115.88984,214.37517 115.88984,214.27747 115.88984,214.1876 115.88984,214.09445 115.88984,214.00458 115.88984,213.90689 115.88984,213.81308 115.88984,213.73164 115.88984,213.57135 115.88984,213.45893 115.88984,213.45893"
       style="fill-rule:evenodd;stroke-width:0.13950002"
       inkscape:connector-curvature="0" />
    <path
       id="polygon20"
       d="M 116.98073,213.45893 C 116.98073,213.45893 117.01063,213.45893 117.05325,213.45893 117.07491,213.45893 117.09985,213.45893 117.12582,213.45893 117.14969,213.45893 117.17443,213.45893 117.19829,213.45893 117.22428,213.45893 117.24923,213.45893 117.27089,213.45893 117.31352,213.45893 117.34343,213.45893 117.34343,213.45893 117.34343,213.45893 117.34343,213.5714 117.34343,213.73175 117.34343,213.8132 117.34343,213.90701 117.34343,214.00472 117.34343,214.09458 117.34343,214.18773 117.34343,214.2776 117.34343,214.3753 117.34343,214.4691 117.34343,214.55054 117.34343,214.71083 117.34343,214.82325 117.34343,214.82325 117.34343,214.82325 117.31353,214.82325 117.2709,214.82325 117.24925,214.82325 117.22431,214.82325 117.19833,214.82325 117.17447,214.82325 117.14973,214.82325 117.12586,214.82325 117.09988,214.82325 117.07493,214.82325 117.05327,214.82325 117.01063,214.82325 116.98073,214.82325 116.98073,214.82325 116.98073,214.82325 116.98073,214.71078 116.98073,214.55044 116.98073,214.46898 116.98073,214.37517 116.98073,214.27747 116.98073,214.1876 116.98073,214.09445 116.98073,214.00458 116.98073,213.90689 116.98073,213.81308 116.98073,213.73164 116.98073,213.57135 116.98073,213.45893 116.98073,213.45893"
       style="fill-rule:evenodd;stroke-width:0.13950002"
       inkscape:connector-curvature="0" />
    <path
       d="M 117.48293,214.82325 C 117.48293,214.82325 117.52559,214.71078 117.58642,214.55044 117.61731,214.46898 117.6529,214.37517 117.68997,214.27747 117.72406,214.1876 117.75939,214.09445 117.79348,214.00458 117.83055,213.90689 117.86613,213.81308 117.89702,213.73164 117.95783,213.57135 118.00047,213.45893 118.00047,213.45893 118.00047,213.45893 118.03715,213.45893 118.08946,213.45893 118.11603,213.45893 118.14662,213.45893 118.17849,213.45893 118.20777,213.45893 118.23813,213.45893 118.26741,213.45893 118.29929,213.45893 118.3299,213.45893 118.35648,213.45893 118.40879,213.45893 118.44548,213.45893 118.44548,213.45893 118.44548,213.45893 118.48906,213.5714 118.5512,213.73175 118.58276,213.8132 118.61912,213.90701 118.65698,214.00472 118.69181,214.09458 118.72791,214.18773 118.76273,214.2776 118.80059,214.3753 118.83694,214.4691 118.8685,214.55054 118.93062,214.71083 118.97418,214.82325 118.97418,214.82325 118.97418,214.82325 118.94118,214.82325 118.89412,214.82325 118.87022,214.82325 118.84269,214.82325 118.81402,214.82325 118.78768,214.82325 118.76037,214.82325 118.73402,214.82325 118.70534,214.82325 118.6778,214.82325 118.65389,214.82325 118.60682,214.82325 118.57382,214.82325 118.57382,214.82325 118.57382,214.82325 118.56542,214.79933 118.55346,214.76522 118.54739,214.74792 118.54041,214.72802 118.53313,214.70732 118.52643,214.68821 118.51948,214.66842 118.51277,214.64931 118.50547,214.62851 118.49845,214.60851 118.49237,214.59118 118.48039,214.55705 118.47198,214.53308 118.47198,214.53308 118.47198,214.53308 118.42978,214.53308 118.36961,214.53308 118.33904,214.53308 118.30384,214.53308 118.26717,214.53308 118.23349,214.53308 118.19857,214.53308 118.16488,214.53308 118.1282,214.53308 118.09298,214.53308 118.06241,214.53308 118.00223,214.53308 117.96001,214.53308 117.96001,214.53308 117.96001,214.53308 117.95116,214.557 117.93854,214.59111 117.93214,214.60841 117.92477,214.62831 117.9171,214.64901 117.91003,214.66812 117.9027,214.68791 117.89563,214.70703 117.88793,214.72782 117.88053,214.74783 117.8741,214.76515 117.86147,214.79928 117.8526,214.82325 117.8526,214.82325 117.8526,214.82325 117.82212,214.82325 117.77868,214.82325 117.75661,214.82325 117.73119,214.82325 117.70471,214.82325 117.68039,214.82325 117.65517,214.82325 117.63085,214.82325 117.60437,214.82325 117.57894,214.82325 117.55686,214.82325 117.5134,214.82325 117.48292,214.82325 117.48292,214.82325 M 118.39107,214.27501 C 118.39107,214.27501 118.3775,214.23088 118.35816,214.1679 118.34833,214.13593 118.33701,214.09908 118.32522,214.06072 118.31439,214.02548 118.30316,213.98893 118.29233,213.95368 118.28054,213.91532 118.26921,213.87846 118.25938,213.84646 118.24003,213.7835 118.22646,213.73933 118.22646,213.73933 118.22646,213.73933 118.21174,213.78346 118.19076,213.84645 118.1801,213.87841 118.16782,213.91526 118.15503,213.95363 118.14329,213.98887 118.13111,214.02541 118.11936,214.06066 118.10657,214.09902 118.09429,214.13588 118.08362,214.16787 118.06263,214.23085 118.0479,214.27501 118.0479,214.27501 118.0479,214.27501 118.07619,214.27501 118.11653,214.27501 118.13701,214.27501 118.16061,214.27501 118.18519,214.27501 118.20777,214.27501 118.23118,214.27501 118.25376,214.27501 118.27834,214.27501 118.30195,214.27501 118.32244,214.27501 118.36278,214.27501 118.39108,214.27501 118.39108,214.27501"
       style="fill-rule:evenodd;stroke-width:0.13950002"
       id="path22"
       inkscape:connector-curvature="0" />
    <path
       id="polygon24"
       d="M 119.10252,213.45893 C 119.10252,213.45893 119.1407,213.45893 119.19513,213.45893 119.22278,213.45893 119.25463,213.45893 119.2878,213.45893 119.31827,213.45893 119.34986,213.45893 119.38034,213.45893 119.41352,213.45893 119.44537,213.45893 119.47304,213.45893 119.52748,213.45893 119.56566,213.45893 119.56566,213.45893 119.56566,213.45893 119.60395,213.5354 119.65855,213.64443 119.68629,213.69982 119.71823,213.76361 119.7515,213.83004 119.78209,213.89115 119.81381,213.95449 119.84441,214.01559 119.87767,214.08202 119.90961,214.1458 119.93734,214.20119 119.99192,214.31017 120.0302,214.38661 120.0302,214.38661 120.0302,214.38661 120.02985,214.31014 120.02935,214.20111 120.0291,214.14572 120.02882,214.08194 120.0285,214.0155 120.02823,213.9544 120.02792,213.89106 120.02766,213.82995 120.02736,213.76352 120.02708,213.69974 120.02681,213.64437 120.02632,213.53537 120.02596,213.45893 120.02596,213.45893 120.02596,213.45893 120.05333,213.45893 120.09235,213.45893 120.11218,213.45893 120.135,213.45893 120.15878,213.45893 120.18063,213.45893 120.20327,213.45893 120.22512,213.45893 120.24891,213.45893 120.27174,213.45893 120.29157,213.45893 120.3306,213.45893 120.35797,213.45893 120.35797,213.45893 120.35797,213.45893 120.35797,213.5714 120.35797,213.73175 120.35797,213.8132 120.35797,213.90701 120.35797,214.00472 120.35797,214.09458 120.35797,214.18773 120.35797,214.2776 120.35797,214.3753 120.35797,214.4691 120.35797,214.55054 120.35797,214.71083 120.35797,214.82325 120.35797,214.82325 120.35797,214.82325 120.32072,214.82325 120.2676,214.82325 120.24061,214.82325 120.20953,214.82325 120.17716,214.82325 120.14742,214.82325 120.11659,214.82325 120.08685,214.82325 120.05447,214.82325 120.02338,214.82325 119.99639,214.82325 119.94326,214.82325 119.90599,214.82325 119.90599,214.82325 119.90599,214.82325 119.86644,214.74632 119.81004,214.63663 119.78139,214.58091 119.74839,214.51674 119.71402,214.4499 119.68241,214.38844 119.64965,214.32471 119.61804,214.26324 119.58368,214.19641 119.55068,214.13225 119.52203,214.07654 119.46565,213.96689 119.42611,213.88999 119.42611,213.88999 119.42611,213.88999 119.42701,213.96692 119.42834,214.0766 119.42902,214.13233 119.42977,214.1965 119.43056,214.26333 119.4313,214.3248 119.43204,214.38853 119.43278,214.44999 119.43358,214.51683 119.43437,214.58099 119.435,214.63671 119.43633,214.74635 119.43723,214.82325 119.43723,214.82325 119.43723,214.82325 119.40963,214.82325 119.37028,214.82325 119.35029,214.82325 119.32727,214.82325 119.30329,214.82325 119.28126,214.82325 119.25842,214.82325 119.2364,214.82325 119.21241,214.82325 119.18938,214.82325 119.16938,214.82325 119.13003,214.82325 119.10243,214.82325 119.10243,214.82325 119.10243,214.82325 119.10243,214.71078 119.10243,214.55044 119.10243,214.46898 119.10243,214.37517 119.10243,214.27747 119.10243,214.1876 119.10243,214.09445 119.10243,214.00458 119.10243,213.90689 119.10243,213.81308 119.10243,213.73164 119.10243,213.57135 119.10243,213.45893 119.10243,213.45893"
       style="fill-rule:evenodd;stroke-width:0.13950002"
       inkscape:connector-curvature="0" />
    <path
       id="polygon26"
       d="M 121.18805,213.45893 C 121.18805,213.45893 121.23531,213.45893 121.30269,213.45893 121.33693,213.45893 121.37635,213.45893 121.41741,213.45893 121.45513,213.45893 121.49424,213.45893 121.53197,213.45893 121.57304,213.45893 121.61248,213.45893 121.64673,213.45893 121.71412,213.45893 121.76139,213.45893 121.76139,213.45893 121.76139,213.45893 121.78543,213.5338 121.81969,213.64053 121.8371,213.69475 121.85715,213.7572 121.87803,213.82223 121.89723,213.88205 121.91714,213.94406 121.93634,214.00387 121.95722,214.0689 121.97727,214.13135 121.99467,214.18556 122.02892,214.29226 122.05295,214.36708 122.05295,214.36708 122.05295,214.36708 122.07813,214.29222 122.11404,214.18549 122.13228,214.13127 122.15329,214.06882 122.17516,214.00379 122.19529,213.94397 122.21615,213.88196 122.23627,213.82214 122.25814,213.75711 122.27915,213.69467 122.29739,213.64046 122.33328,213.53376 122.35845,213.45893 122.35845,213.45893 122.35845,213.45893 122.40388,213.45893 122.46864,213.45893 122.50154,213.45893 122.53942,213.45893 122.57889,213.45893 122.61514,213.45893 122.65273,213.45893 122.68899,213.45893 122.72846,213.45893 122.76636,213.45893 122.79927,213.45893 122.86405,213.45893 122.90948,213.45893 122.90948,213.45893 122.90948,213.45893 122.90948,213.5714 122.90948,213.73175 122.90948,213.8132 122.90948,213.90701 122.90948,214.00472 122.90948,214.09458 122.90948,214.18773 122.90948,214.2776 122.90948,214.3753 122.90948,214.4691 122.90948,214.55054 122.90948,214.71083 122.90948,214.82325 122.90948,214.82325 122.90948,214.82325 122.88016,214.82325 122.83835,214.82325 122.81711,214.82325 122.79265,214.82325 122.76717,214.82325 122.74377,214.82325 122.71951,214.82325 122.6961,214.82325 122.67061,214.82325 122.64614,214.82325 122.6249,214.82325 122.58308,214.82325 122.55375,214.82325 122.55375,214.82325 122.55375,214.82325 122.55403,214.73689 122.5546,214.61376 122.55488,214.55121 122.55518,214.47917 122.55545,214.40414 122.55572,214.33514 122.55603,214.26361 122.55629,214.1946 122.55657,214.11958 122.55687,214.04755 122.55714,213.98501 122.55772,213.86192 122.55799,213.7756 122.55799,213.7756 122.55799,213.7756 122.52901,213.86196 122.48769,213.98509 122.46671,214.04764 122.44253,214.11968 122.41735,214.1947 122.3942,214.26371 122.3702,214.33524 122.34704,214.40424 122.32187,214.47927 122.2977,214.5513 122.27671,214.61384 122.23541,214.73692 122.20645,214.82325 122.20645,214.82325 122.20645,214.82325 122.17885,214.82325 122.1395,214.82325 122.11951,214.82325 122.09649,214.82325 122.07251,214.82325 122.05048,214.82325 122.02764,214.82325 122.00562,214.82325 121.98163,214.82325 121.9586,214.82325 121.9386,214.82325 121.89925,214.82325 121.87165,214.82325 121.87165,214.82325 121.87165,214.82325 121.84416,214.73689 121.80498,214.61376 121.78507,214.55121 121.76215,214.47917 121.73827,214.40414 121.71631,214.33514 121.69354,214.26361 121.67158,214.1946 121.64771,214.11958 121.62479,214.04755 121.60488,213.98501 121.56571,213.86192 121.53824,213.7756 121.53824,213.7756 121.53824,213.7756 121.53882,213.86196 121.53962,213.98509 121.54003,214.04764 121.54052,214.11968 121.54099,214.1947 121.54145,214.26371 121.54194,214.33524 121.54237,214.40424 121.54287,214.47927 121.54332,214.5513 121.54374,214.61384 121.54459,214.73692 121.54512,214.82325 121.54512,214.82325 121.54512,214.82325 121.51568,214.82325 121.47371,214.82325 121.45239,214.82325 121.42783,214.82325 121.40226,214.82325 121.37876,214.82325 121.3544,214.82325 121.3309,214.82325 121.30532,214.82325 121.28075,214.82325 121.25942,214.82325 121.21744,214.82325 121.188,214.82325 121.188,214.82325 121.188,214.82325 121.188,214.71078 121.188,214.55044 121.188,214.46898 121.188,214.37517 121.188,214.27747 121.188,214.1876 121.188,214.09445 121.188,214.00458 121.188,213.90689 121.188,213.81308 121.188,213.73164 121.188,213.57135 121.188,213.45893 121.188,213.45893"
       style="fill-rule:evenodd;stroke-width:0.13950002"
       inkscape:connector-curvature="0" />
    <path
       style="fill-rule:evenodd;stroke-width:0.13950002"
       d="M 123.26431,214.14026 123.212,214.27758 123.10819,214.55032 123.00438,214.82332 H 123.07822 123.15233 123.22616 123.3 123.37411 L 123.39591,214.76502 123.4177,214.70698 123.43923,214.64895 123.46103,214.59119 123.48282,214.53315 H 123.58554 123.68826 123.7907 123.89342 123.99614 L 124.01657,214.59119 124.03701,214.64922 124.05745,214.70725 124.07761,214.76529 124.09804,214.82332 H 124.17815 124.25825 124.33835 124.41846 124.49829 L 124.39312,214.55059 124.28741,214.27758 124.23428,214.14026 H 123.86809 L 123.87654,214.16778 123.90979,214.27513 H 123.84112 123.77246 123.7038 123.63515 123.56648 L 123.60191,214.16778 123.61089,214.14026 Z"
       id="path962"
       inkscape:connector-curvature="0" />
    <path
       style="fill-rule:evenodd;stroke-width:0.13950002"
       d="M 123.26431,214.14026 H 123.61088 L 123.63731,214.0607 123.67273,213.95363 123.70815,213.84655 123.74357,213.7392 123.77681,213.84655 123.81005,213.95363 123.8433,214.0607 123.86809,214.14026 H 124.23428 L 124.18197,214.00485 124.07652,213.73185 123.97108,213.45884 H 123.88144 123.7918 123.70243 123.61279 123.52315 L 123.41962,213.73157 123.31581,214.00458 Z"
       id="path28"
       inkscape:connector-curvature="0" />
    <path
       style="fill-rule:evenodd;stroke-width:0.13950002"
       d="M 124.63779,214.24434 V 214.27758 214.55031 214.82332 H 124.73723 124.83668 124.93586 125.03531 125.13448 C 125.22011,214.82332 125.30155,214.81792 125.37752,214.80591 125.46294,214.79236 125.54148,214.77035 125.61102,214.73806 125.687,214.70277 125.75232,214.65518 125.80446,214.59284 125.85326,214.5345 125.89064,214.46319 125.91426,214.37705 125.92485,214.33843 125.92541,214.28913 125.93034,214.24437 H 125.55053 C 125.54916,214.25241 125.54958,214.26225 125.54783,214.26998 125.53724,214.31771 125.52043,214.3596 125.4977,214.39531 125.47301,214.43409 125.44143,214.46582 125.40288,214.4904 125.36698,214.51331 125.32507,214.52998 125.27755,214.54051 125.23681,214.54956 125.19197,214.55416 125.14295,214.55416 L 125.11489,214.55152 125.0871,214.5494 125.05931,214.54728 125.03125,214.54517 125.00346,214.54305 V 214.37794 214.24443 Z"
       id="path967"
       inkscape:connector-curvature="0" />
    <path
       style="fill-rule:evenodd;stroke-width:0.13950002"
       d="M 124.63779,214.24434 H 125.00343 V 214.21249 214.04738 213.88227 213.71716 H 125.03122 125.05901 125.08707 125.11487 125.14293 C 125.16561,213.71451 125.18836,213.71398 125.21077,213.71557 125.23353,213.71716 125.25584,213.72033 125.2778,213.72594 125.29984,213.7315 125.3214,213.73917 125.3421,213.74854 125.36263,213.75785 125.38227,213.76886 125.40095,213.78177 125.41942,213.79457 125.43683,213.80923 125.45299,213.82537 125.46913,213.84151 125.48379,213.85897 125.49658,213.87744 125.50956,213.89617 125.52075,213.91596 125.53009,213.93656 125.53948,213.95725 125.54691,213.97884 125.55243,214.00086 125.55791,214.02272 125.56155,214.04521 125.56306,214.06789 125.56454,214.09033 125.56402,214.11303 125.56142,214.13573 125.56142,214.17553 125.55645,214.21032 125.55053,214.24445 H 125.93034 C 125.93436,214.20777 125.94369,214.17678 125.94369,214.13573 125.94369,214.04459 125.93385,213.96457 125.91508,213.89488 125.89179,213.8084 125.85471,213.73749 125.80582,213.6799 125.75362,213.61841 125.68783,213.57215 125.61074,213.53822 125.54141,213.50769 125.463,213.48721 125.37697,213.47474 125.30161,213.46379 125.22032,213.45892 125.13448,213.45892 H 125.0353 124.93586 124.83668 124.73723 124.63778 V 213.73165 214.00466 Z"
       id="path30"
       inkscape:connector-curvature="0" />
    <path
       id="polygon32"
       d="M 126.09287,213.45893 C 126.09287,213.45893 126.17221,213.45893 126.28534,213.45893 126.34281,213.45893 126.409,213.45893 126.47793,213.45893 126.54133,213.45893 126.60705,213.45893 126.67045,213.45893 126.73938,213.45893 126.80556,213.45893 126.86302,213.45893 126.97611,213.45893 127.05542,213.45893 127.05542,213.45893 127.05542,213.45893 127.05542,213.48021 127.05542,213.51053 127.05542,213.52587 127.05542,213.5436 127.05542,213.56202 127.05542,213.579 127.05542,213.59662 127.05542,213.61361 127.05542,213.63208 127.05542,213.6498 127.05542,213.6652 127.05542,213.69563 127.05542,213.71701 127.05542,213.71701 127.05542,213.71701 127.00608,213.71701 126.93575,213.71701 126.90002,213.71701 126.85887,213.71701 126.81601,213.71701 126.77663,213.71701 126.73581,213.71701 126.69643,213.71701 126.65356,213.71701 126.6124,213.71701 126.57665,213.71701 126.5063,213.71701 126.45696,213.71701 126.45696,213.71701 126.45696,213.71701 126.45696,213.74013 126.45696,213.77308 126.45696,213.7898 126.45696,213.80901 126.45696,213.82904 126.45696,213.84751 126.45696,213.86661 126.45696,213.8851 126.45696,213.90515 126.45696,213.92442 126.45696,213.94112 126.45696,213.97419 126.45696,213.9974 126.45696,213.9974 126.45696,213.9974 126.50354,213.9974 126.56994,213.9974 126.60367,213.9974 126.64252,213.9974 126.68298,213.9974 126.72015,213.9974 126.75869,213.9974 126.79586,213.9974 126.83634,213.9974 126.8752,213.9974 126.90895,213.9974 126.97536,213.9974 127.02194,213.9974 127.02194,213.9974 127.02194,213.9974 127.02194,214.01878 127.02194,214.04931 127.02194,214.06477 127.02194,214.08255 127.02194,214.10112 127.02194,214.11821 127.02194,214.13589 127.02194,214.15298 127.02194,214.1715 127.02194,214.18933 127.02194,214.20484 127.02194,214.23542 127.02194,214.25691 127.02194,214.25691 127.02194,214.25691 126.97537,214.25691 126.90897,214.25691 126.87523,214.25691 126.83639,214.25691 126.79592,214.25691 126.75875,214.25691 126.72021,214.25691 126.68304,214.25691 126.64256,214.25691 126.6037,214.25691 126.56996,214.25691 126.50355,214.25691 126.45696,214.25691 126.45696,214.25691 126.45696,214.25691 126.45696,214.28231 126.45696,214.31855 126.45696,214.33692 126.45696,214.35808 126.45696,214.38008 126.45696,214.4004 126.45696,214.42141 126.45696,214.44172 126.45696,214.46384 126.45696,214.48506 126.45696,214.50348 126.45696,214.53973 126.45696,214.5652 126.45696,214.5652 126.45696,214.5652 126.50813,214.5652 126.58109,214.5652 126.61816,214.5652 126.66084,214.5652 126.7053,214.5652 126.74615,214.5652 126.78849,214.5652 126.82934,214.5652 126.87381,214.5652 126.91651,214.5652 126.95359,214.5652 127.02656,214.5652 127.07774,214.5652 127.07774,214.5652 127.07774,214.5652 127.07774,214.58648 127.07774,214.6168 127.07774,214.63214 127.07774,214.64987 127.07774,214.66829 127.07774,214.68527 127.07774,214.70289 127.07774,214.71988 127.07774,214.73835 127.07774,214.75608 127.07774,214.77147 127.07774,214.8019 127.07774,214.82328 127.07774,214.82328 127.07774,214.82328 126.99655,214.82328 126.8808,214.82328 126.822,214.82328 126.75428,214.82328 126.68375,214.82328 126.61888,214.82328 126.55163,214.82328 126.48676,214.82328 126.41624,214.82328 126.34852,214.82328 126.28973,214.82328 126.17402,214.82328 126.09287,214.82328 126.09287,214.82328 126.09287,214.82328 126.09287,214.71082 126.09287,214.55047 126.09287,214.46901 126.09287,214.3752 126.09287,214.2775 126.09287,214.18763 126.09287,214.09448 126.09287,214.00462 126.09287,213.90692 126.09287,213.81312 126.09287,213.73167 126.09287,213.57138 126.09287,213.45897 126.09287,213.45897"
       style="fill-rule:evenodd;stroke-width:0.13950002"
       inkscape:connector-curvature="0" />
    <path
       style="fill-rule:evenodd;stroke-width:0.13950002"
       d="M 127.43623,214.41 V 214.4536 214.53725 214.62089 214.70481 L 127.45013,214.70323 127.46376,214.70217 127.47739,214.70111 127.49101,214.70005 127.50464,214.69899 V 214.66248 214.62597 214.58946 214.55268 214.51617 H 127.51608 127.52752 127.53896 127.55013 127.56186 L 127.58502,214.55294 127.60818,214.58919 127.63133,214.6257 127.6545,214.66248 127.67765,214.69899 H 127.69182 127.70599 127.72043 127.7346 127.74877 L 127.72506,214.66248 127.70135,214.62597 127.67765,214.58946 127.65394,214.55268 127.63024,214.51617 C 127.63622,214.5163 127.64211,214.51617 127.64795,214.51511 127.6538,214.51405 127.65953,214.51299 127.66512,214.51088 127.67077,214.50929 127.67619,214.50717 127.68146,214.50431 127.6867,214.50167 127.69172,214.49833 127.69645,214.49479 127.70116,214.49108 127.7057,214.48717 127.7098,214.48283 127.71393,214.4786 127.71745,214.47389 127.72069,214.46891 127.72392,214.46415 127.72678,214.45875 127.72914,214.45335 127.73152,214.44796 127.73342,214.44251 127.73486,214.43674 127.73628,214.43102 127.7374,214.4252 127.73787,214.41928 127.73815,214.4161 127.73759,214.41271 127.73759,214.40949 H 127.67002 C 127.66974,214.41716 127.66933,214.4243 127.66759,214.43018 127.66494,214.43901 127.66068,214.44595 127.65505,214.45145 127.6493,214.45701 127.64209,214.46119 127.63352,214.46399 127.62631,214.46611 127.61825,214.4677 127.60927,214.46875 127.60153,214.46981 127.59311,214.46981 127.5842,214.46981 H 127.56813 127.55233 127.53625 127.52045 127.50465 V 214.44473 214.41965 214.40954 Z"
       id="path976"
       inkscape:connector-curvature="0" />
    <path
       style="fill-rule:evenodd;stroke-width:0.13950002"
       d="M 127.43623,214.41 H 127.50462 V 214.39502 214.36994 214.34486 H 127.52042 127.5365 127.5523 127.5681 127.58418 C 127.59234,214.34486 127.60055,214.34514 127.60843,214.34592 127.61681,214.34698 127.62476,214.34803 127.63214,214.35068 127.64016,214.35333 127.64744,214.35724 127.65339,214.36243 127.65926,214.36772 127.66376,214.37402 127.66674,214.38232 127.66917,214.3891 127.67055,214.39698 127.67055,214.4063 127.67055,214.40788 127.66997,214.40894 127.66997,214.41 H 127.73756 C 127.73751,214.40735 127.73784,214.40455 127.73756,214.40185 127.73756,214.38666 127.73592,214.37322 127.73237,214.361 127.7283,214.34692 127.72163,214.33459 127.71276,214.32449 127.70398,214.31449 127.69283,214.3066 127.67924,214.30052 127.66773,214.29522 127.65452,214.29141 127.63947,214.28909 127.62688,214.28697 127.61315,214.28644 127.59805,214.28644 H 127.56563 127.53348 127.50106 127.46864 127.43621 V 214.37009 Z"
       id="path974"
       inkscape:connector-curvature="0" />
    <path
       style="fill-rule:evenodd;stroke-width:0.13950002"
       d="M 127.23679,214.41 C 127.22913,214.439 127.22285,214.46879 127.22289,214.50019 127.22294,214.53823 127.22888,214.57485 127.24006,214.60917 127.25164,214.64473 127.26864,214.67767 127.29019,214.70725 127.31201,214.73721 127.33843,214.7634 127.36839,214.78518 127.39801,214.80672 127.43119,214.82376 127.46675,214.83529 127.50108,214.8464 127.5377,214.85244 127.57573,214.85244 127.61385,214.8523 127.65062,214.8463 127.68499,214.83503 127.72059,214.82333 127.75373,214.80603 127.78335,214.78433 127.81331,214.76243 127.83948,214.73591 127.86127,214.70587 127.88281,214.67613 127.89986,214.64316 127.91141,214.60751 127.92255,214.57311 127.92857,214.53637 127.92857,214.49825 127.92845,214.46745 127.92193,214.43843 127.91441,214.40997 H 127.87844 C 127.87886,214.41156 127.87993,214.41262 127.88035,214.41421 127.88703,214.43717 127.89098,214.46088 127.89206,214.48478 127.89318,214.50854 127.89148,214.53251 127.88688,214.55616 127.88233,214.57934 127.87497,214.6022 127.86481,214.62428 127.85465,214.64634 127.8421,214.66682 127.82748,214.68531 127.81251,214.70425 127.7953,214.72129 127.77653,214.736 127.75767,214.75071 127.73729,214.76315 127.7155,214.77305 127.69383,214.78289 127.6708,214.79008 127.64711,214.79458 127.62392,214.79882 127.60001,214.80072 127.57573,214.79935 127.56021,214.79929 127.54479,214.79776 127.52968,214.79511 127.51433,214.79247 127.49937,214.78892 127.48473,214.78395 127.47002,214.77918 127.45566,214.77273 127.44195,214.76543 127.42835,214.75823 127.41533,214.75003 127.40299,214.74061 127.39071,214.73129 127.37914,214.72087 127.36838,214.70955 127.3577,214.69827 127.34813,214.68626 127.3395,214.67356 127.33074,214.6607 127.32288,214.64726 127.31635,214.63324 127.30979,214.61916 127.30448,214.60461 127.30027,214.58964 127.29609,214.57482 127.29303,214.55953 127.29128,214.54413 127.28954,214.52884 127.2889,214.51344 127.28964,214.49783 127.28968,214.47354 127.29277,214.44962 127.29836,214.42672 127.29985,214.42068 127.30307,214.41545 127.30491,214.40957 Z"
       id="path972"
       inkscape:connector-curvature="0" />
    <path
       style="fill-rule:evenodd;stroke-width:0.13950002"
       d="M 127.23679,214.41 H 127.30491 C 127.3102,214.39296 127.3153,214.37587 127.32343,214.36015 127.33444,214.33893 127.34806,214.31909 127.36375,214.30103 127.37936,214.28309 127.39695,214.26674 127.41661,214.25282 127.43586,214.23917 127.45697,214.22774 127.47955,214.21874 127.50211,214.20975 127.52541,214.20356 127.54876,214.20022 127.57265,214.19705 127.5967,214.19652 127.62041,214.19864 127.64423,214.20075 127.66757,214.20631 127.69016,214.21414 127.71264,214.22197 127.73421,214.2324 127.75446,214.24547 127.77429,214.25827 127.79304,214.27362 127.80977,214.29124 127.82648,214.30886 127.84053,214.32802 127.85228,214.34846 127.86351,214.36798 127.87189,214.38878 127.87843,214.41003 H 127.9144 C 127.91265,214.40336 127.91328,214.39585 127.91111,214.38934 127.89944,214.35383 127.88234,214.32078 127.86071,214.29126 127.83882,214.26136 127.81226,214.23503 127.78224,214.21334 127.75257,214.1919 127.71947,214.17492 127.68388,214.16349 127.64953,214.15243 127.61293,214.14677 127.57489,214.14687 127.53686,214.14697 127.50021,214.15306 127.46591,214.16433 127.43039,214.17598 127.39738,214.19286 127.36782,214.21445 127.33792,214.2363 127.31163,214.26292 127.2899,214.29292 127.26842,214.32255 127.25126,214.35543 127.23977,214.391 127.23781,214.39698 127.23839,214.40397 127.23675,214.41005 Z"
       id="path34"
       inkscape:connector-curvature="0" />
  </g>
</svg>
