<?xml version="1.0" encoding="UTF-8" standalone="no"?>
<svg
   xmlns:dc="http://purl.org/dc/elements/1.1/"
   xmlns:cc="http://creativecommons.org/ns#"
   xmlns:rdf="http://www.w3.org/1999/02/22-rdf-syntax-ns#"
   xmlns:svg="http://www.w3.org/2000/svg"
   xmlns="http://www.w3.org/2000/svg"
   id="svg4544"
   version="1.1"
   viewBox="0 0 210 297"
   height="297mm"
   width="210mm">
  <defs
     id="defs4538" />
  <metadata
     id="metadata4541">
    <rdf:RDF>
      <cc:Work
         rdf:about="">
        <dc:format>image/svg+xml</dc:format>
        <dc:type
           rdf:resource="http://purl.org/dc/dcmitype/StillImage" />
        <dc:title></dc:title>
      </cc:Work>
    </rdf:RDF>
  </metadata>
  <path
     id="Shape"
     d="m 95.729652,110.8025 c -0.841379,1.50814 -1.603372,2.9845 -2.286,4.42913 -0.317502,-0.15875 -0.571499,-0.28178 -0.762,-0.3691 -0.190501,-0.0873 -0.333375,-0.15478 -0.428625,-0.2024 0.127,-0.33338 0.253999,-0.68263 0.381,-1.04775 0.127,-0.36513 0.269874,-0.75406 0.428625,-1.16681 -0.809629,-0.31751 -1.45256,-0.5596 -1.928813,-0.72629 -0.476252,-0.16668 -0.793749,-0.27384 -0.9525,-0.32146 -0.238126,0.30162 -0.452436,0.68659 -0.642937,1.1549 -0.190501,0.46832 -0.444499,0.98822 -0.762,1.55972 0.174626,0.58738 0.388936,1.16681 0.642937,1.73831 1.333507,0.73026 2.389184,1.30175 3.167063,1.7145 0.777879,0.41276 1.285874,0.68263 1.524,0.80963 0.03175,0.84138 0.05556,1.57559 0.07144,2.20265 0.01588,0.62707 0.02381,1.15491 0.02381,1.58354 v 0.69056 c -0.603254,0.36512 -1.186655,0.71834 -1.75022,1.05965 -0.563565,0.34132 -1.099341,0.67072 -1.607344,0.98822 -0.396877,-0.28575 -0.797716,-0.59928 -1.202531,-0.94059 -0.404815,-0.34132 -0.821529,-0.70247 -1.250156,-1.08347 -0.127001,0.508 -0.261937,1.016 -0.404813,1.524 -0.142876,0.508 -0.301624,1.03981 -0.47625,1.59544 -0.254001,-0.17463 -0.484186,-0.34925 -0.690562,-0.52388 -0.206376,-0.17462 -0.396874,-0.34131 -0.5715,-0.50006 0.222251,-0.92075 0.464342,-1.8534 0.726281,-2.79797 0.261939,-0.94457 0.551655,-1.9169 0.869156,-2.91703 0.301627,0.17463 0.555624,0.32147 0.762,0.44053 0.206376,0.11906 0.373062,0.21828 0.500063,0.29766 -0.03175,0.17462 -0.07144,0.34528 -0.119063,0.51197 -0.04762,0.16668 -0.09525,0.33734 -0.142875,0.51196 0.365127,0.46038 0.678655,0.85725 0.940594,1.19063 0.261939,0.33338 0.47228,0.59531 0.631031,0.78581 0.555628,-0.254 1.015998,-0.47228 1.381125,-0.65484 0.365127,-0.18256 0.634999,-0.32147 0.809625,-0.41672 0,-0.1905 0.004,-0.37703 0.01191,-0.55959 0.0079,-0.18257 0.01191,-0.36116 0.01191,-0.53579 0,-0.254 -0.004,-0.49212 -0.01191,-0.71437 -0.0079,-0.22225 -0.01984,-0.43656 -0.03572,-0.64294 -0.952505,-0.46037 -1.793872,-0.87709 -2.524125,-1.25015 -0.730254,-0.37307 -1.349373,-0.69453 -1.857375,-0.96441 -0.333377,-0.889 -0.59928,-1.5994 -0.797719,-2.13122 -0.198439,-0.53181 -0.329406,-0.88503 -0.392906,-1.05965 0.206376,-0.66676 0.547685,-1.38113 1.023937,-2.14313 0.476253,-0.762 1.087434,-1.57162 1.833563,-2.42887 0.619128,0.22225 1.250153,0.44449 1.893093,0.66675 0.642941,0.22225 1.305716,0.46037 1.988344,0.71437 0.142876,-0.20638 0.281781,-0.40878 0.416719,-0.60722 0.134938,-0.19844 0.265906,-0.3929 0.392906,-0.5834 0.285752,0.26987 0.523874,0.49212 0.714375,0.66675 0.190501,0.17462 0.341312,0.32543 0.452438,0.45243 z m 0.66675,1.28588 c -0.269877,0.33337 -0.888995,1.57161 -1.857375,3.71475 l -0.381,-0.1905 c 0.492127,-1.01601 0.888998,-1.8415 1.190625,-2.4765 0.301626,-0.63501 0.539749,-1.07156 0.714375,-1.30969 z m 0.28575,1.21444 c -0.206376,0.41275 -0.388937,0.78978 -0.547688,1.13109 -0.158751,0.34131 -0.301624,0.65484 -0.428625,0.94059 l -0.214312,-0.0952 c 0.127,-0.28575 0.269874,-0.60325 0.428625,-0.9525 0.158751,-0.34925 0.341311,-0.73024 0.547687,-1.143 z m 1.404937,13.21593 c -0.841379,-0.41275 -1.706558,-0.88106 -2.595562,-1.40494 l 0.142875,-0.21431 c 0.428627,0.254 0.853279,0.4961 1.273969,0.72628 0.420689,0.23019 0.845341,0.45641 1.273968,0.67866 z m 1.214438,-0.47625 c -0.460377,-0.254 -0.984247,-0.5199 -1.571625,-0.79772 -0.587378,-0.27781 -1.230309,-0.61515 -1.928813,-1.01203 l 0.238125,-0.35719 c 0.365127,0.22226 0.841373,0.47625 1.42875,0.762 0.587378,0.28576 1.269997,0.635 2.047875,1.04775 z m 5.929313,-0.9525 c -0.68263,0.14288 -1.34144,0.29369 -1.97644,0.45244 -0.635,0.15875 -1.25412,0.32544 -1.85737,0.50006 -0.0476,-0.17462 -0.10319,-0.37703 -0.16669,-0.60722 -0.0635,-0.23018 -0.13494,-0.48815 -0.21431,-0.7739 0.33337,-0.127 0.73024,-0.34131 1.19062,-0.64294 0.23813,-1.82563 0.42863,-3.7703 0.5715,-5.83406 -0.6985,-0.79376 -1.11919,-1.30969 -1.26206,-1.54781 -0.39688,0.23812 -0.71437,0.44449 -0.9525,0.61912 -0.23813,0.17463 -0.40481,0.30162 -0.50006,0.381 -0.0318,0.90488 -0.07937,1.80181 -0.142878,2.69081 -0.0635,0.88901 -0.142874,1.78594 -0.238125,2.69081 0.238126,0.17463 0.436563,0.31354 0.595313,0.41672 0.15875,0.10319 0.27781,0.17066 0.35719,0.20241 -0.11113,0.22225 -0.21035,0.44847 -0.29766,0.67866 -0.0873,0.23018 -0.17066,0.46434 -0.25003,0.70246 -0.825505,-0.36512 -1.575591,-0.7104 -2.250282,-1.03584 -0.674691,-0.32544 -1.266028,-0.62309 -1.774031,-0.89297 0.158751,-0.39687 0.289718,-0.71437 0.392906,-0.9525 0.103188,-0.23812 0.178594,-0.39687 0.226219,-0.47625 0.301627,0.17463 0.555624,0.30956 0.762,0.40481 0.206376,0.0953 0.357187,0.15875 0.452438,0.1905 0.285751,-2.57176 0.428625,-5.07998 0.428625,-7.52474 0,-0.66676 -0.0079,-1.32556 -0.02381,-1.97644 -0.01588,-0.65088 -0.04763,-1.30175 -0.09525,-1.95263 -0.428627,0.26988 -0.809623,0.50006 -1.143,0.69057 l -0.833438,0.47625 c -0.254001,-0.47626 -0.420687,-0.84932 -0.500062,-1.11919 l 3.952875,-2.61938 c 0.142876,0.77788 0.242093,1.78197 0.297656,3.01228 0.05556,1.23032 0.09128,2.69478 0.107157,4.39341 0.66675,-0.34925 1.18665,-0.62309 1.55972,-0.82153 0.37306,-0.19844 0.59928,-0.32147 0.67865,-0.36909 l 2.4765,3.26231 c -0.14287,0.96838 -0.28575,1.94865 -0.42862,2.94084 -0.14288,0.99219 -0.29369,2.01215 -0.45244,3.05991 0.33338,-0.0159 0.64294,-0.0794 0.92869,-0.1905 0.0476,0.254 0.10319,0.51196 0.16669,0.7739 0.0635,0.26194 0.13493,0.52785 0.21431,0.79772 z m -4.40531,-11.40618 c 0.0318,-0.31751 0.0476,-0.59532 0.0476,-0.83344 v -0.5715 c 0,-0.96838 -0.11906,-2.32568 -0.35719,-4.07194 l 0.40482,-0.0714 c 0.23812,1.61926 0.35718,3.04006 0.35718,4.26244 v 0.67866 c 0,0.21431 -0.0159,0.43259 -0.0476,0.65484 z m 1.19062,-1.09538 c -0.0318,-0.60325 -0.0595,-1.18268 -0.0833,-1.73831 -0.0238,-0.55563 -0.0595,-1.09537 -0.10716,-1.61925 l 0.26194,-0.0238 c 0.0317,0.60326 0.0635,1.18269 0.0952,1.73832 0.0318,0.55563 0.0556,1.10331 0.0714,1.64306 z m 10.0965,7.45331 c -0.42863,0.0794 -0.8374,0.14288 -1.22634,0.1905 -0.38894,0.0476 -0.75803,0.0953 -1.10728,0.14288 -0.15875,0.14287 -0.381,0.36512 -0.66675,0.66675 -0.28575,0.30162 -0.635,0.69056 -1.04775,1.16681 0.14287,0.17463 0.30956,0.38497 0.50006,0.63103 0.1905,0.24607 0.40481,0.52784 0.64294,0.84534 0.254,-0.11112 0.59928,-0.25796 1.03584,-0.44053 0.43656,-0.18256 0.9644,-0.40878 1.58353,-0.67865 0.0476,-0.33338 0.0953,-0.71041 0.14288,-1.1311 0.0476,-0.42069 0.0952,-0.88502 0.14287,-1.39303 z m 3.76238,6.02456 c -0.17463,0.11113 -0.33338,0.25004 -0.47625,0.41672 -0.14288,0.16669 -0.30957,0.32941 -0.50007,0.48816 l -0.16668,-0.1905 c 0.0635,-0.0318 0.17065,-0.127 0.32147,-0.28575 0.15081,-0.15875 0.36909,-0.37306 0.65484,-0.64294 z m 0.1905,-1.54781 c -0.41276,0.41275 -0.80566,0.80963 -1.17872,1.19063 -0.37307,0.381 -0.71041,0.762 -1.01203,1.143 l -0.35719,-0.21432 c 0.3175,-0.41275 0.67072,-0.80565 1.05966,-1.17871 0.38894,-0.37307 0.7739,-0.77391 1.1549,-1.20254 z m -0.73819,-1.00012 c -1.00013,1.04775 -1.78594,1.92881 -2.35744,2.64318 -0.22225,-0.1905 -0.43656,-0.37306 -0.64294,-0.54768 -0.20637,-0.17463 -0.40481,-0.33338 -0.59531,-0.47625 0.0159,-0.254 0.0278,-0.47228 0.0357,-0.65485 0.008,-0.18256 0.0119,-0.3294 0.0119,-0.44053 -0.53975,0.254 -1.09934,0.50403 -1.67878,0.7501 -0.57944,0.24606 -1.17872,0.49609 -1.79784,0.75009 -0.31751,-0.41275 -0.65485,-0.89297 -1.01203,-1.44066 -0.35719,-0.54769 -0.74216,-1.1549 -1.15491,-1.82165 0.46038,-0.53976 0.91678,-1.07553 1.36922,-1.60735 0.45244,-0.53181 0.90884,-1.05171 1.36922,-1.55972 0.58737,-0.11112 1.16284,-0.21828 1.7264,-0.32146 0.56357,-0.10319 1.12316,-0.20241 1.67878,-0.29766 l 0.14287,-1.11919 c -0.3175,-0.22225 -0.5834,-0.41672 -0.79771,-0.5834 -0.21432,-0.16669 -0.38497,-0.3056 -0.51197,-0.41672 l -3.50044,2.78606 c -0.22225,-0.20638 -0.41275,-0.39687 -0.5715,-0.5715 -0.15875,-0.17463 -0.29369,-0.32544 -0.40481,-0.45244 0.46037,-0.9525 0.93662,-2.2463 1.42875,-3.88143 0.36512,0.1905 0.65087,0.33734 0.85725,0.44053 0.20637,0.10318 0.34925,0.17065 0.42862,0.2024 -0.0952,0.3175 -0.19447,0.61119 -0.29765,0.88107 -0.10319,0.26987 -0.20241,0.52387 -0.29766,0.762 0.60325,-0.41276 1.13903,-0.78582 1.60734,-1.11919 0.46832,-0.33338 0.88503,-0.64294 1.25016,-0.92869 0.53975,0.46038 1.016,0.89694 1.42875,1.30969 0.41275,0.41275 0.77787,0.80168 1.09537,1.16681 -0.127,1.19063 -0.25003,2.32568 -0.36909,3.40519 -0.11906,1.0795 -0.22622,2.1193 -0.32147,3.11943 0.23813,-0.20637 0.44053,-0.39687 0.60722,-0.5715 0.16669,-0.17462 0.31353,-0.32543 0.44053,-0.45243 0.23813,0.3175 0.42863,0.55959 0.5715,0.72628 0.14288,0.16669 0.23019,0.27384 0.26194,0.32147 z m 0.69056,-3.07182 c -0.0318,-0.55562 -0.0635,-1.1549 -0.0952,-1.79784 -0.0318,-0.64294 -0.0794,-1.32159 -0.14287,-2.03597 l 0.23812,-0.0238 c 0.0318,0.36513 0.0675,0.86915 0.10716,1.51209 0.0397,0.64294 0.0913,1.42478 0.15478,2.34553 z m 0.97631,0.66675 c -0.0318,-0.71437 -0.0595,-1.39302 -0.0833,-2.03596 -0.0238,-0.64294 -0.0516,-1.25809 -0.0833,-1.84547 l -0.0714,-1.23825 0.40482,-0.0238 0.0714,1.23825 c 0.0476,0.85726 0.0873,1.61131 0.11906,2.26219 0.0318,0.65088 0.0556,1.19856 0.0714,1.64306 z m 10.668,3.26232 c -0.73025,0.254 -1.45256,0.52387 -2.16693,0.80962 -0.71438,0.28575 -1.42875,0.58738 -2.14313,0.90488 -0.0159,-0.26988 -0.0317,-0.53181 -0.0476,-0.78582 -0.0159,-0.254 -0.0397,-0.50799 -0.0714,-0.762 0.3175,-0.0953 0.65881,-0.28574 1.02394,-0.5715 -0.3175,-0.5715 -0.73819,-1.32158 -1.26206,-2.25028 -0.52388,-0.92869 -1.15094,-2.05183 -1.88119,-3.36947 -0.127,0.0952 -0.27781,0.22225 -0.45244,0.381 -0.17462,0.15876 -0.37306,0.34925 -0.59531,0.5715 -0.0318,0.36513 -0.0556,0.75407 -0.0714,1.16682 -0.0159,0.41275 -0.0238,0.84931 -0.0238,1.30968 0,0.30163 0.004,0.61516 0.0119,0.9406 0.008,0.32544 0.0198,0.66278 0.0357,1.01203 0.42863,0.26988 0.96837,0.55562 1.61925,0.85725 -0.127,0.17463 -0.254,0.37306 -0.381,0.59531 -0.127,0.22225 -0.26194,0.46831 -0.40481,0.73819 -0.58738,-0.20638 -1.23825,-0.41275 -1.95263,-0.61913 -0.71438,-0.20637 -1.50812,-0.42068 -2.38125,-0.64293 0.11113,-0.22225 0.21035,-0.46434 0.29766,-0.72628 0.0873,-0.26194 0.17065,-0.54372 0.25003,-0.84535 0.17462,0.0635 0.36909,0.12303 0.58341,0.1786 0.21431,0.0556 0.44053,0.10715 0.67865,0.15478 0.0476,-0.47625 0.0714,-1.03187 0.0714,-1.66688 0,-0.71438 -0.0238,-1.93674 -0.0714,-3.66712 -0.0476,-1.73039 -0.11112,-3.98461 -0.1905,-6.76275 -0.39688,-0.127 -0.81757,-0.22225 -1.26207,-0.28575 v -2.00025 c 0.381,0.0953 0.98821,0.26193 1.82166,0.50006 0.83344,0.23813 1.90896,0.54769 3.22659,0.92869 -0.0953,0.3175 -0.17462,0.59531 -0.23812,0.83344 -0.0635,0.23812 -0.11113,0.42862 -0.14288,0.5715 l -1.40494,-0.381 c -0.0318,0.79375 -0.0595,1.65496 -0.0833,2.58365 -0.0238,0.92869 -0.0516,1.94071 -0.0833,3.0361 0.5715,-0.55563 1.19856,-1.19856 1.88118,-1.92882 0.68263,-0.73025 1.42875,-1.54781 2.23838,-2.45268 l -1.40494,-0.35719 0.0357,-0.14288 c 0.008,-0.0318 0.0119,-0.0635 0.0119,-0.0953 0.0159,-0.127 0.0318,-0.29368 0.0476,-0.50006 0.0159,-0.20638 0.0318,-0.4445 0.0476,-0.71437 0.80963,0.15875 1.58353,0.28574 2.32172,0.381 0.73819,0.0952 1.44859,0.16668 2.13122,0.21431 -0.0476,0.17462 -0.1151,0.3929 -0.20241,0.65484 -0.0873,0.26194 -0.19447,0.57547 -0.32147,0.9406 -0.22225,-0.0159 -0.50799,-0.0635 -0.85725,-0.14288 -0.55562,0.5715 -1.12315,1.17872 -1.70259,1.82166 -0.57944,0.64294 -1.18665,1.32159 -1.82166,2.03597 0.60326,1.2065 1.20253,2.36536 1.79785,3.47662 0.59531,1.11126 1.18665,2.18281 1.77403,3.21469 l 1.66687,-0.47625 c 0.0159,0.17462 0.0278,0.37306 0.0357,0.59531 0.008,0.22225 0.0119,0.46831 0.0119,0.73819 z m -1.02393,-8.763 c -0.30163,0.26987 -0.59928,0.53578 -0.89297,0.79772 -0.29369,0.26194 -0.58341,0.52784 -0.86916,0.79772 l -0.16669,-0.1905 c 0.26988,-0.25401 0.55563,-0.51594 0.85725,-0.78582 0.30163,-0.26987 0.61119,-0.53975 0.92869,-0.80962 z m -0.28575,-1.09538 c -0.38101,0.42863 -0.762,0.83741 -1.143,1.22635 -0.38101,0.38894 -0.762,0.76596 -1.143,1.13109 l -0.26194,-0.30956 c 0.381,-0.36513 0.75803,-0.73819 1.13109,-1.11919 0.37307,-0.381 0.74216,-0.77787 1.10728,-1.19062 z m 7.33425,4.11956 c 0,-0.41275 -0.008,-0.80962 -0.0238,-1.19062 -0.0159,-0.381 -0.0397,-0.75406 -0.0714,-1.11919 -0.26988,-0.0476 -0.55959,-0.0913 -0.86916,-0.13097 -0.30956,-0.0397 -0.6469,-0.0754 -1.01203,-0.10715 -0.26988,0.39687 -0.52784,0.82946 -0.77391,1.29778 -0.24606,0.46831 -0.53578,0.95646 -0.86915,1.46447 0.80962,-0.0476 1.51209,-0.0873 2.1074,-0.11907 0.59532,-0.0318 1.09934,-0.0635 1.5121,-0.0953 z m 1.524,7.57238 c -0.15875,0.0952 -0.34132,0.17859 -0.54769,0.25003 -0.20638,0.0714 -0.42863,0.15478 -0.66675,0.25003 l -0.11906,-0.21431 c 0.1905,-0.0952 0.38893,-0.17066 0.59531,-0.22622 0.20637,-0.0556 0.41275,-0.14684 0.61912,-0.27384 z m 0.30956,-1.26206 c -0.26988,0.17462 -0.62706,0.35718 -1.07156,0.54768 -0.44451,0.19051 -0.9525,0.4445 -1.524,0.762 l -0.21432,-0.35718 c 0.60326,-0.30163 1.12316,-0.56356 1.55972,-0.78582 0.43657,-0.22225 0.78978,-0.39687 1.05966,-0.52387 z m 0.0238,-4.92919 c -1.38113,0.0318 -2.51618,0.0714 -3.40519,0.11906 -0.889,0.0476 -1.53987,0.11113 -1.95262,0.1905 0.0794,0.381 0.15478,0.74216 0.22621,1.08347 0.0714,0.34132 0.15479,0.67072 0.25004,0.98822 0.30162,0.254 0.57546,0.48022 0.82153,0.67866 0.24606,0.19843 0.47228,0.36115 0.67865,0.48815 0.60326,-0.26987 1.15491,-0.5199 1.65497,-0.75009 0.50007,-0.23019 0.93266,-0.44053 1.29778,-0.63103 0.0317,0.26987 0.0556,0.53181 0.0714,0.78581 0.0159,0.254 0.0317,0.50006 0.0476,0.73819 -1.36525,0.71438 -2.41299,1.23825 -3.14325,1.57162 -0.39687,-0.23812 -0.8374,-0.51196 -1.32159,-0.82153 -0.48419,-0.30956 -1.01997,-0.6469 -1.60734,-1.01203 -0.33338,-1.33351 -0.69056,-2.83368 -1.07157,-4.50056 0.0953,-0.254 0.84137,-1.36524 2.23838,-3.33375 l 1.76212,-1.09538 c 1.0795,0.22225 2.02406,0.43656 2.83369,0.64294 0.127,1.01601 0.24209,1.92881 0.34528,2.73844 0.10319,0.80963 0.19447,1.51606 0.27384,2.11931 z m 2.04787,3.90525 -0.83343,-1.83356 -0.30957,-0.73819 0.23813,-0.0952 c 0.0952,0.23813 0.20637,0.50403 0.33337,0.79772 0.127,0.29369 0.26988,0.62309 0.42863,0.98822 l 0.35719,0.78581 z m 1.09538,0.0476 c -0.127,-0.26988 -0.3056,-0.69453 -0.53578,-1.27397 -0.23019,-0.57944 -0.52784,-1.32159 -0.89297,-2.22647 l 0.381,-0.16668 c 0.36513,0.90487 0.66278,1.64702 0.89297,2.22646 0.23018,0.57944 0.40878,1.0041 0.53578,1.27397 z m 6.38175,-7.64382 c -0.0159,0.60326 -0.0397,1.11919 -0.0714,1.54782 -0.14287,0.0476 -0.28575,0.0913 -0.42862,0.13096 -0.14288,0.0397 -0.29369,0.0754 -0.45244,0.10716 -0.6985,2.46064 -1.31762,4.61565 -1.85738,6.46509 -0.53975,1.84945 -1.01599,3.41709 -1.42875,4.70297 -1.28588,0.60326 -2.38918,1.03188 -3.30993,1.28588 -0.69851,-1.04776 -1.23825,-1.94469 -1.61925,-2.69082 0.46037,-0.127 0.8374,-0.21828 1.13109,-0.27384 0.29369,-0.0556 0.50403,-0.0992 0.63103,-0.13097 0.0635,0.15875 0.14685,0.34925 0.25003,0.5715 0.10319,0.22225 0.21828,0.47625 0.34528,0.762 0.38101,-0.0635 0.73025,-0.1905 1.04775,-0.381 0.31751,-1.57163 0.62706,-2.87337 0.92869,-3.90525 -0.0952,-0.3175 -0.33734,-0.95249 -0.72628,-1.905 -0.38894,-0.9525 -0.91678,-2.23043 -1.58353,-3.83381 -0.23813,0.14288 -0.4445,0.26987 -0.61913,0.381 -0.17462,0.11113 -0.32543,0.20637 -0.45243,0.28575 -0.127,-0.22225 -0.2421,-0.42069 -0.34528,-0.59531 -0.10319,-0.17463 -0.19447,-0.34131 -0.27385,-0.50007 0.30163,-0.23812 0.79375,-0.59927 1.47638,-1.08346 0.68262,-0.48419 1.57162,-1.10728 2.667,-1.86928 0.15875,0.5715 0.254,1.04774 0.28575,1.42875 -0.26988,0.26987 -0.50007,0.47624 -0.69057,0.61912 -0.1905,0.14288 -0.32543,0.254 -0.40481,0.33338 0.254,0.79375 0.51594,1.57955 0.78581,2.35743 0.26988,0.77788 0.54769,1.56369 0.83344,2.35744 0.36513,-1.14301 0.66278,-2.05978 0.89297,-2.75034 0.23019,-0.69057 0.38497,-1.17078 0.46434,-1.44066 -0.23812,0.0476 -0.44053,0.0833 -0.60721,0.10716 -0.16669,0.0238 -0.29766,0.0516 -0.39291,0.0833 -0.0794,-0.36513 -0.13494,-0.65881 -0.16669,-0.88106 -0.0317,-0.22225 -0.0556,-0.381 -0.0714,-0.47625 0.66675,-0.14288 1.31365,-0.28178 1.94072,-0.41672 0.62706,-0.13494 1.23427,-0.26591 1.82165,-0.39291 z m -0.66675,5.28638 c -0.60325,1.88913 -1.05171,3.40915 -1.3454,4.56009 -0.29369,1.15094 -0.50404,1.91691 -0.63104,2.29791 l -0.381,-0.11907 c 0.41276,-1.53988 0.77391,-2.8813 1.08347,-4.02431 0.30957,-1.143 0.59928,-2.09549 0.86916,-2.8575 z m 0.5715,1.54781 c -0.22225,0.66675 -0.42862,1.33747 -0.61912,2.01216 -0.1905,0.67469 -0.42069,1.35334 -0.69057,2.03596 l -0.21431,-0.0953 c 0.36513,-1.00013 0.64294,-1.84149 0.83344,-2.52412 0.1905,-0.68263 0.34925,-1.18269 0.47625,-1.50019 z"
     style="fill:#000000;fill-rule:nonzero;stroke-width:0.26458332" />
</svg>
