  0
SECTION
  2
HEADER
  9
$ACADVER
  1
AC1014
  9
$HANDSEED
  5
FFFF
  9
$MEASUREMENT
 70
     1
  0
ENDSEC
  0
SECTION
  2
TABLES
  0
TABLE
  2
VPORT
  5
8
330
0
100
AcDbSymbolTable
 70
     4
  0
VPORT
  5
2E
330
8
100
AcDbSymbolTableRecord
100
AcDbViewportTableRecord
  2
*ACTIVE
 70
     0
 10
0.0
 20
0.0
 11
1.0
 21
1.0
 12
210.0
 22
148.5
 13
0.0
 23
0.0
 14
10.0
 24
10.0
 15
10.0
 25
10.0
 16
0.0
 26
0.0
 36
1.0
 17
0.0
 27
0.0
 37
0.0
 40
341.0
 41
1.24
 42
50.0
 43
0.0
 44
0.0
 50
0.0
 51
0.0
 71
     0
 72
   100
 73
     1
 74
     3
 75
     0
 76
     0
 77
     0
 78
     0
  0
ENDTAB
  0
TABLE
  2
LTYPE
  5
5
330
0
100
AcDbSymbolTable
 70
     1
  0
LTYPE
  5
14
330
5
100
AcDbSymbolTableRecord
100
AcDbLinetypeTableRecord
  2
BYBLOCK
 70
     0
  3

 72
    65
 73
     0
 40
0.0
  0
LTYPE
  5
15
330
5
100
AcDbSymbolTableRecord
100
AcDbLinetypeTableRecord
  2
BYLAYER
 70
     0
  3

 72
    65
 73
     0
 40
0.0
  0
LTYPE
  5
16
330
5
100
AcDbSymbolTableRecord
100
AcDbLinetypeTableRecord
  2
CONTINUOUS
 70
     0
  3
Solid line
 72
    65
 73
     0
 40
0.0
  0
ENDTAB
  0
TABLE
  2
LAYER
  5
2
100
AcDbSymbolTable
 70
1
  0
LAYER
  5
50
100
AcDbSymbolTableRecord
100
AcDbLayerTableRecord
  2
0
 70
0
  6
CONTINUOUS
  0
ENDTAB
  0
TABLE
  2
STYLE
  5
3
330
0
100
AcDbSymbolTable
 70
     1
  0
STYLE
  5
11
330
3
100
AcDbSymbolTableRecord
100
AcDbTextStyleTableRecord
  2
STANDARD
 70
     0
 40
0.0
 41
1.0
 50
0.0
 71
     0
 42
2.5
  3
txt
  4

  0
ENDTAB
  0
TABLE
  2
VIEW
  5
6
330
0
100
AcDbSymbolTable
 70
     0
  0
ENDTAB
  0
TABLE
  2
UCS
  5
7
330
0
100
AcDbSymbolTable
 70
     0
  0
ENDTAB
  0
TABLE
  2
APPID
  5
9
330
0
100
AcDbSymbolTable
 70
     2
  0
APPID
  5
12
330
9
100
AcDbSymbolTableRecord
100
AcDbRegAppTableRecord
  2
ACAD
 70
     0
  0
ENDTAB
  0
TABLE
  2
DIMSTYLE
  5
A
330
0
100
AcDbSymbolTable
 70
     1
  0
DIMSTYLE
105
27
330
A
100
AcDbSymbolTableRecord
100
AcDbDimStyleTableRecord
  2
ISO-25
 70
     0
  3

  4

  5

  6

  7

 40
1.0
 41
2.5
 42
0.625
 43
3.75
 44
1.25
 45
0.0
 46
0.0
 47
0.0
 48
0.0
140
2.5
141
2.5
142
0.0
143
0.03937007874016
144
1.0
145
0.0
146
1.0
147
0.625
 71
     0
 72
     0
 73
     0
 74
     0
 75
     0
 76
     0
 77
     1
 78
     8
170
     0
171
     3
172
     1
173
     0
174
     0
175
     0
176
     0
177
     0
178
     0
270
     2
271
     2
272
     2
273
     2
274
     3
340
11
275
     0
280
     0
281
     0
282
     0
283
     0
284
     8
285
     0
286
     0
287
     3
288
     0
  0
ENDTAB
  0
TABLE
  2
BLOCK_RECORD
  5
1
330
0
100
AcDbSymbolTable
 70
     1
  0
BLOCK_RECORD
  5
1F
330
1
100
AcDbSymbolTableRecord
100
AcDbBlockTableRecord
  2
*MODEL_SPACE
  0
BLOCK_RECORD
  5
1B
330
1
100
AcDbSymbolTableRecord
100
AcDbBlockTableRecord
  2
*PAPER_SPACE
  0
ENDTAB
  0
ENDSEC
  0
SECTION
  2
BLOCKS
  0
BLOCK
  5
20
330
1F
100
AcDbEntity
  8
0
100
AcDbBlockBegin
  2
*MODEL_SPACE
 70
     0
 10
0.0
 20
0.0
 30
0.0
  3
*MODEL_SPACE
  1

  0
ENDBLK
  5
21
330
1F
100
AcDbEntity
  8
0
100
AcDbBlockEnd
  0
BLOCK
  5
1C
330
1B
100
AcDbEntity
 67
     1
  8
0
100
AcDbBlockBegin
  2
*PAPER_SPACE
  1

  0
ENDBLK
  5
1D
330
1B
100
AcDbEntity
 67
     1
  8
0
100
AcDbBlockEnd
  0
ENDSEC
  0
SECTION
  2
ENTITIES
  0
SPLINE
  5
100
100
AcDbEntity
  8
0
 62
7
100
AcDbSpline
 70
8
 71
3
 72
8
 73
4
 74
0
 40
0
 40
0
 40
0
 40
0
 40
1
 40
1
 40
1
 40
1
 10
95.729652
 20
186.197500
 30
0.0
 10
94.888273
 20
184.689360
 30
0.0
 10
94.126280
 20
183.213000
 30
0.0
 10
93.443652
 20
181.768370
 30
0.0
  0
SPLINE
  5
101
100
AcDbEntity
  8
0
 62
7
100
AcDbSpline
 70
8
 71
3
 72
8
 73
4
 74
0
 40
0
 40
0
 40
0
 40
0
 40
1
 40
1
 40
1
 40
1
 10
93.443652
 20
181.768370
 30
0.0
 10
93.126150
 20
181.927120
 30
0.0
 10
92.872153
 20
182.050150
 30
0.0
 10
92.681652
 20
182.137470
 30
0.0
  0
SPLINE
  5
102
100
AcDbEntity
  8
0
 62
7
100
AcDbSpline
 70
8
 71
3
 72
8
 73
4
 74
0
 40
0
 40
0
 40
0
 40
0
 40
1
 40
1
 40
1
 40
1
 10
92.681652
 20
182.137470
 30
0.0
 10
92.491151
 20
182.224770
 30
0.0
 10
92.348277
 20
182.292250
 30
0.0
 10
92.253027
 20
182.339870
 30
0.0
  0
SPLINE
  5
103
100
AcDbEntity
  8
0
 62
7
100
AcDbSpline
 70
8
 71
3
 72
8
 73
4
 74
0
 40
0
 40
0
 40
0
 40
0
 40
1
 40
1
 40
1
 40
1
 10
92.253027
 20
182.339870
 30
0.0
 10
92.380027
 20
182.673250
 30
0.0
 10
92.507026
 20
183.022500
 30
0.0
 10
92.634027
 20
183.387620
 30
0.0
  0
SPLINE
  5
104
100
AcDbEntity
  8
0
 62
7
100
AcDbSpline
 70
8
 71
3
 72
8
 73
4
 74
0
 40
0
 40
0
 40
0
 40
0
 40
1
 40
1
 40
1
 40
1
 10
92.634027
 20
183.387620
 30
0.0
 10
92.761027
 20
183.752750
 30
0.0
 10
92.903901
 20
184.141680
 30
0.0
 10
93.062652
 20
184.554430
 30
0.0
  0
SPLINE
  5
105
100
AcDbEntity
  8
0
 62
7
100
AcDbSpline
 70
8
 71
3
 72
8
 73
4
 74
0
 40
0
 40
0
 40
0
 40
0
 40
1
 40
1
 40
1
 40
1
 10
93.062652
 20
184.554430
 30
0.0
 10
92.253023
 20
184.871940
 30
0.0
 10
91.610092
 20
185.114030
 30
0.0
 10
91.133839
 20
185.280720
 30
0.0
  0
SPLINE
  5
106
100
AcDbEntity
  8
0
 62
7
100
AcDbSpline
 70
8
 71
3
 72
8
 73
4
 74
0
 40
0
 40
0
 40
0
 40
0
 40
1
 40
1
 40
1
 40
1
 10
91.133839
 20
185.280720
 30
0.0
 10
90.657587
 20
185.447400
 30
0.0
 10
90.340090
 20
185.554560
 30
0.0
 10
90.181339
 20
185.602180
 30
0.0
  0
SPLINE
  5
107
100
AcDbEntity
  8
0
 62
7
100
AcDbSpline
 70
8
 71
3
 72
8
 73
4
 74
0
 40
0
 40
0
 40
0
 40
0
 40
1
 40
1
 40
1
 40
1
 10
90.181339
 20
185.602180
 30
0.0
 10
89.943213
 20
185.300560
 30
0.0
 10
89.728903
 20
184.915590
 30
0.0
 10
89.538402
 20
184.447280
 30
0.0
  0
SPLINE
  5
108
100
AcDbEntity
  8
0
 62
7
100
AcDbSpline
 70
8
 71
3
 72
8
 73
4
 74
0
 40
0
 40
0
 40
0
 40
0
 40
1
 40
1
 40
1
 40
1
 10
89.538402
 20
184.447280
 30
0.0
 10
89.347901
 20
183.978960
 30
0.0
 10
89.093903
 20
183.459060
 30
0.0
 10
88.776402
 20
182.887560
 30
0.0
  0
SPLINE
  5
109
100
AcDbEntity
  8
0
 62
7
100
AcDbSpline
 70
8
 71
3
 72
8
 73
4
 74
0
 40
0
 40
0
 40
0
 40
0
 40
1
 40
1
 40
1
 40
1
 10
88.776402
 20
182.887560
 30
0.0
 10
88.951028
 20
182.300180
 30
0.0
 10
89.165338
 20
181.720750
 30
0.0
 10
89.419339
 20
181.149250
 30
0.0
  0
SPLINE
  5
10a
100
AcDbEntity
  8
0
 62
7
100
AcDbSpline
 70
8
 71
3
 72
8
 73
4
 74
0
 40
0
 40
0
 40
0
 40
0
 40
1
 40
1
 40
1
 40
1
 10
89.419339
 20
181.149250
 30
0.0
 10
90.752846
 20
180.418990
 30
0.0
 10
91.808523
 20
179.847500
 30
0.0
 10
92.586402
 20
179.434750
 30
0.0
  0
SPLINE
  5
10b
100
AcDbEntity
  8
0
 62
7
100
AcDbSpline
 70
8
 71
3
 72
8
 73
4
 74
0
 40
0
 40
0
 40
0
 40
0
 40
1
 40
1
 40
1
 40
1
 10
92.586402
 20
179.434750
 30
0.0
 10
93.364281
 20
179.021990
 30
0.0
 10
93.872276
 20
178.752120
 30
0.0
 10
94.110402
 20
178.625120
 30
0.0
  0
SPLINE
  5
10c
100
AcDbEntity
  8
0
 62
7
100
AcDbSpline
 70
8
 71
3
 72
8
 73
4
 74
0
 40
0
 40
0
 40
0
 40
0
 40
1
 40
1
 40
1
 40
1
 10
94.110402
 20
178.625120
 30
0.0
 10
94.142152
 20
177.783740
 30
0.0
 10
94.165962
 20
177.049530
 30
0.0
 10
94.181842
 20
176.422470
 30
0.0
  0
SPLINE
  5
10d
100
AcDbEntity
  8
0
 62
7
100
AcDbSpline
 70
8
 71
3
 72
8
 73
4
 74
0
 40
0
 40
0
 40
0
 40
0
 40
1
 40
1
 40
1
 40
1
 10
94.181842
 20
176.422470
 30
0.0
 10
94.197722
 20
175.795400
 30
0.0
 10
94.205652
 20
175.267560
 30
0.0
 10
94.205652
 20
174.838930
 30
0.0
  0
SPLINE
  5
10e
100
AcDbEntity
  8
0
 62
7
100
AcDbSpline
 70
8
 71
3
 72
8
 73
4
 74
0
 40
0
 40
0
 40
0
 40
0
 40
1
 40
1
 40
1
 40
1
 10
94.205652
 20
174.148370
 30
0.0
 10
93.602398
 20
173.783250
 30
0.0
 10
93.018997
 20
173.430030
 30
0.0
 10
92.455432
 20
173.088720
 30
0.0
  0
SPLINE
  5
10f
100
AcDbEntity
  8
0
 62
7
100
AcDbSpline
 70
8
 71
3
 72
8
 73
4
 74
0
 40
0
 40
0
 40
0
 40
0
 40
1
 40
1
 40
1
 40
1
 10
92.455432
 20
173.088720
 30
0.0
 10
91.891867
 20
172.747400
 30
0.0
 10
91.356091
 20
172.418000
 30
0.0
 10
90.848088
 20
172.100500
 30
0.0
  0
SPLINE
  5
110
100
AcDbEntity
  8
0
 62
7
100
AcDbSpline
 70
8
 71
3
 72
8
 73
4
 74
0
 40
0
 40
0
 40
0
 40
0
 40
1
 40
1
 40
1
 40
1
 10
90.848088
 20
172.100500
 30
0.0
 10
90.451211
 20
172.386250
 30
0.0
 10
90.050372
 20
172.699780
 30
0.0
 10
89.645557
 20
173.041090
 30
0.0
  0
SPLINE
  5
111
100
AcDbEntity
  8
0
 62
7
100
AcDbSpline
 70
8
 71
3
 72
8
 73
4
 74
0
 40
0
 40
0
 40
0
 40
0
 40
1
 40
1
 40
1
 40
1
 10
89.645557
 20
173.041090
 30
0.0
 10
89.240742
 20
173.382410
 30
0.0
 10
88.824028
 20
173.743560
 30
0.0
 10
88.395401
 20
174.124560
 30
0.0
  0
SPLINE
  5
112
100
AcDbEntity
  8
0
 62
7
100
AcDbSpline
 70
8
 71
3
 72
8
 73
4
 74
0
 40
0
 40
0
 40
0
 40
0
 40
1
 40
1
 40
1
 40
1
 10
88.395401
 20
174.124560
 30
0.0
 10
88.268400
 20
173.616560
 30
0.0
 10
88.133464
 20
173.108560
 30
0.0
 10
87.990588
 20
172.600560
 30
0.0
  0
SPLINE
  5
113
100
AcDbEntity
  8
0
 62
7
100
AcDbSpline
 70
8
 71
3
 72
8
 73
4
 74
0
 40
0
 40
0
 40
0
 40
0
 40
1
 40
1
 40
1
 40
1
 10
87.990588
 20
172.600560
 30
0.0
 10
87.847712
 20
172.092560
 30
0.0
 10
87.688964
 20
171.560750
 30
0.0
 10
87.514338
 20
171.005120
 30
0.0
  0
SPLINE
  5
114
100
AcDbEntity
  8
0
 62
7
100
AcDbSpline
 70
8
 71
3
 72
8
 73
4
 74
0
 40
0
 40
0
 40
0
 40
0
 40
1
 40
1
 40
1
 40
1
 10
87.514338
 20
171.005120
 30
0.0
 10
87.260337
 20
171.179750
 30
0.0
 10
87.030152
 20
171.354370
 30
0.0
 10
86.823776
 20
171.529000
 30
0.0
  0
SPLINE
  5
115
100
AcDbEntity
  8
0
 62
7
100
AcDbSpline
 70
8
 71
3
 72
8
 73
4
 74
0
 40
0
 40
0
 40
0
 40
0
 40
1
 40
1
 40
1
 40
1
 10
86.823776
 20
171.529000
 30
0.0
 10
86.617400
 20
171.703620
 30
0.0
 10
86.426902
 20
171.870310
 30
0.0
 10
86.252276
 20
172.029060
 30
0.0
  0
SPLINE
  5
116
100
AcDbEntity
  8
0
 62
7
100
AcDbSpline
 70
8
 71
3
 72
8
 73
4
 74
0
 40
0
 40
0
 40
0
 40
0
 40
1
 40
1
 40
1
 40
1
 10
86.252276
 20
172.029060
 30
0.0
 10
86.474527
 20
172.949810
 30
0.0
 10
86.716618
 20
173.882460
 30
0.0
 10
86.978557
 20
174.827030
 30
0.0
  0
SPLINE
  5
117
100
AcDbEntity
  8
0
 62
7
100
AcDbSpline
 70
8
 71
3
 72
8
 73
4
 74
0
 40
0
 40
0
 40
0
 40
0
 40
1
 40
1
 40
1
 40
1
 10
86.978557
 20
174.827030
 30
0.0
 10
87.240496
 20
175.771600
 30
0.0
 10
87.530212
 20
176.743930
 30
0.0
 10
87.847713
 20
177.744060
 30
0.0
  0
SPLINE
  5
118
100
AcDbEntity
  8
0
 62
7
100
AcDbSpline
 70
8
 71
3
 72
8
 73
4
 74
0
 40
0
 40
0
 40
0
 40
0
 40
1
 40
1
 40
1
 40
1
 10
87.847713
 20
177.744060
 30
0.0
 10
88.149340
 20
177.569430
 30
0.0
 10
88.403337
 20
177.422590
 30
0.0
 10
88.609713
 20
177.303530
 30
0.0
  0
SPLINE
  5
119
100
AcDbEntity
  8
0
 62
7
100
AcDbSpline
 70
8
 71
3
 72
8
 73
4
 74
0
 40
0
 40
0
 40
0
 40
0
 40
1
 40
1
 40
1
 40
1
 10
88.609713
 20
177.303530
 30
0.0
 10
88.816089
 20
177.184470
 30
0.0
 10
88.982775
 20
177.085250
 30
0.0
 10
89.109776
 20
177.005870
 30
0.0
  0
SPLINE
  5
11a
100
AcDbEntity
  8
0
 62
7
100
AcDbSpline
 70
8
 71
3
 72
8
 73
4
 74
0
 40
0
 40
0
 40
0
 40
0
 40
1
 40
1
 40
1
 40
1
 10
89.109776
 20
177.005870
 30
0.0
 10
89.078026
 20
176.831250
 30
0.0
 10
89.038336
 20
176.660590
 30
0.0
 10
88.990713
 20
176.493900
 30
0.0
  0
SPLINE
  5
11b
100
AcDbEntity
  8
0
 62
7
100
AcDbSpline
 70
8
 71
3
 72
8
 73
4
 74
0
 40
0
 40
0
 40
0
 40
0
 40
1
 40
1
 40
1
 40
1
 10
88.990713
 20
176.493900
 30
0.0
 10
88.943093
 20
176.327220
 30
0.0
 10
88.895463
 20
176.156560
 30
0.0
 10
88.847838
 20
175.981940
 30
0.0
  0
SPLINE
  5
11c
100
AcDbEntity
  8
0
 62
7
100
AcDbSpline
 70
8
 71
3
 72
8
 73
4
 74
0
 40
0
 40
0
 40
0
 40
0
 40
1
 40
1
 40
1
 40
1
 10
88.847838
 20
175.981940
 30
0.0
 10
89.212965
 20
175.521560
 30
0.0
 10
89.526493
 20
175.124690
 30
0.0
 10
89.788432
 20
174.791310
 30
0.0
  0
SPLINE
  5
11d
100
AcDbEntity
  8
0
 62
7
100
AcDbSpline
 70
8
 71
3
 72
8
 73
4
 74
0
 40
0
 40
0
 40
0
 40
0
 40
1
 40
1
 40
1
 40
1
 10
89.788432
 20
174.791310
 30
0.0
 10
90.050371
 20
174.457930
 30
0.0
 10
90.260712
 20
174.196000
 30
0.0
 10
90.419463
 20
174.005500
 30
0.0
  0
SPLINE
  5
11e
100
AcDbEntity
  8
0
 62
7
100
AcDbSpline
 70
8
 71
3
 72
8
 73
4
 74
0
 40
0
 40
0
 40
0
 40
0
 40
1
 40
1
 40
1
 40
1
 10
90.419463
 20
174.005500
 30
0.0
 10
90.975091
 20
174.259500
 30
0.0
 10
91.435461
 20
174.477780
 30
0.0
 10
91.800588
 20
174.660340
 30
0.0
  0
SPLINE
  5
11f
100
AcDbEntity
  8
0
 62
7
100
AcDbSpline
 70
8
 71
3
 72
8
 73
4
 74
0
 40
0
 40
0
 40
0
 40
0
 40
1
 40
1
 40
1
 40
1
 10
91.800588
 20
174.660340
 30
0.0
 10
92.165715
 20
174.842900
 30
0.0
 10
92.435587
 20
174.981810
 30
0.0
 10
92.610213
 20
175.077060
 30
0.0
  0
SPLINE
  5
120
100
AcDbEntity
  8
0
 62
7
100
AcDbSpline
 70
8
 71
3
 72
8
 73
4
 74
0
 40
0
 40
0
 40
0
 40
0
 40
1
 40
1
 40
1
 40
1
 10
92.610213
 20
175.077060
 30
0.0
 10
92.610213
 20
175.267560
 30
0.0
 10
92.614213
 20
175.454090
 30
0.0
 10
92.622123
 20
175.636650
 30
0.0
  0
SPLINE
  5
121
100
AcDbEntity
  8
0
 62
7
100
AcDbSpline
 70
8
 71
3
 72
8
 73
4
 74
0
 40
0
 40
0
 40
0
 40
0
 40
1
 40
1
 40
1
 40
1
 10
92.622123
 20
175.636650
 30
0.0
 10
92.630023
 20
175.819220
 30
0.0
 10
92.634033
 20
175.997810
 30
0.0
 10
92.634033
 20
176.172440
 30
0.0
  0
SPLINE
  5
122
100
AcDbEntity
  8
0
 62
7
100
AcDbSpline
 70
8
 71
3
 72
8
 73
4
 74
0
 40
0
 40
0
 40
0
 40
0
 40
1
 40
1
 40
1
 40
1
 10
92.634033
 20
176.172440
 30
0.0
 10
92.634033
 20
176.426440
 30
0.0
 10
92.630033
 20
176.664560
 30
0.0
 10
92.622123
 20
176.886810
 30
0.0
  0
SPLINE
  5
123
100
AcDbEntity
  8
0
 62
7
100
AcDbSpline
 70
8
 71
3
 72
8
 73
4
 74
0
 40
0
 40
0
 40
0
 40
0
 40
1
 40
1
 40
1
 40
1
 10
92.622123
 20
176.886810
 30
0.0
 10
92.614223
 20
177.109060
 30
0.0
 10
92.602283
 20
177.323370
 30
0.0
 10
92.586403
 20
177.529750
 30
0.0
  0
SPLINE
  5
124
100
AcDbEntity
  8
0
 62
7
100
AcDbSpline
 70
8
 71
3
 72
8
 73
4
 74
0
 40
0
 40
0
 40
0
 40
0
 40
1
 40
1
 40
1
 40
1
 10
92.586403
 20
177.529750
 30
0.0
 10
91.633898
 20
177.990120
 30
0.0
 10
90.792531
 20
178.406840
 30
0.0
 10
90.062278
 20
178.779900
 30
0.0
  0
SPLINE
  5
125
100
AcDbEntity
  8
0
 62
7
100
AcDbSpline
 70
8
 71
3
 72
8
 73
4
 74
0
 40
0
 40
0
 40
0
 40
0
 40
1
 40
1
 40
1
 40
1
 10
90.062278
 20
178.779900
 30
0.0
 10
89.332024
 20
179.152970
 30
0.0
 10
88.712905
 20
179.474430
 30
0.0
 10
88.204903
 20
179.744310
 30
0.0
  0
SPLINE
  5
126
100
AcDbEntity
  8
0
 62
7
100
AcDbSpline
 70
8
 71
3
 72
8
 73
4
 74
0
 40
0
 40
0
 40
0
 40
0
 40
1
 40
1
 40
1
 40
1
 10
88.204903
 20
179.744310
 30
0.0
 10
87.871526
 20
180.633310
 30
0.0
 10
87.605623
 20
181.343710
 30
0.0
 10
87.407184
 20
181.875530
 30
0.0
  0
SPLINE
  5
127
100
AcDbEntity
  8
0
 62
7
100
AcDbSpline
 70
8
 71
3
 72
8
 73
4
 74
0
 40
0
 40
0
 40
0
 40
0
 40
1
 40
1
 40
1
 40
1
 10
87.407184
 20
181.875530
 30
0.0
 10
87.208745
 20
182.407340
 30
0.0
 10
87.077778
 20
182.760560
 30
0.0
 10
87.014278
 20
182.935180
 30
0.0
  0
SPLINE
  5
128
100
AcDbEntity
  8
0
 62
7
100
AcDbSpline
 70
8
 71
3
 72
8
 73
4
 74
0
 40
0
 40
0
 40
0
 40
0
 40
1
 40
1
 40
1
 40
1
 10
87.014278
 20
182.935180
 30
0.0
 10
87.220654
 20
183.601940
 30
0.0
 10
87.561963
 20
184.316310
 30
0.0
 10
88.038215
 20
185.078310
 30
0.0
  0
SPLINE
  5
129
100
AcDbEntity
  8
0
 62
7
100
AcDbSpline
 70
8
 71
3
 72
8
 73
4
 74
0
 40
0
 40
0
 40
0
 40
0
 40
1
 40
1
 40
1
 40
1
 10
88.038215
 20
185.078310
 30
0.0
 10
88.514468
 20
185.840310
 30
0.0
 10
89.125649
 20
186.649930
 30
0.0
 10
89.871778
 20
187.507180
 30
0.0
  0
SPLINE
  5
12a
100
AcDbEntity
  8
0
 62
7
100
AcDbSpline
 70
8
 71
3
 72
8
 73
4
 74
0
 40
0
 40
0
 40
0
 40
0
 40
1
 40
1
 40
1
 40
1
 10
89.871778
 20
187.507180
 30
0.0
 10
90.490906
 20
187.284930
 30
0.0
 10
91.121931
 20
187.062690
 30
0.0
 10
91.764871
 20
186.840430
 30
0.0
  0
SPLINE
  5
12b
100
AcDbEntity
  8
0
 62
7
100
AcDbSpline
 70
8
 71
3
 72
8
 73
4
 74
0
 40
0
 40
0
 40
0
 40
0
 40
1
 40
1
 40
1
 40
1
 10
91.764871
 20
186.840430
 30
0.0
 10
92.407812
 20
186.618180
 30
0.0
 10
93.070587
 20
186.380060
 30
0.0
 10
93.753215
 20
186.126060
 30
0.0
  0
SPLINE
  5
12c
100
AcDbEntity
  8
0
 62
7
100
AcDbSpline
 70
8
 71
3
 72
8
 73
4
 74
0
 40
0
 40
0
 40
0
 40
0
 40
1
 40
1
 40
1
 40
1
 10
93.753215
 20
186.126060
 30
0.0
 10
93.896091
 20
186.332440
 30
0.0
 10
94.034996
 20
186.534840
 30
0.0
 10
94.169934
 20
186.733280
 30
0.0
  0
SPLINE
  5
12d
100
AcDbEntity
  8
0
 62
7
100
AcDbSpline
 70
8
 71
3
 72
8
 73
4
 74
0
 40
0
 40
0
 40
0
 40
0
 40
1
 40
1
 40
1
 40
1
 10
94.169934
 20
186.733280
 30
0.0
 10
94.304872
 20
186.931720
 30
0.0
 10
94.435840
 20
187.126180
 30
0.0
 10
94.562840
 20
187.316680
 30
0.0
  0
SPLINE
  5
12e
100
AcDbEntity
  8
0
 62
7
100
AcDbSpline
 70
8
 71
3
 72
8
 73
4
 74
0
 40
0
 40
0
 40
0
 40
0
 40
1
 40
1
 40
1
 40
1
 10
94.562840
 20
187.316680
 30
0.0
 10
94.848592
 20
187.046810
 30
0.0
 10
95.086714
 20
186.824560
 30
0.0
 10
95.277215
 20
186.649930
 30
0.0
  0
SPLINE
  5
12f
100
AcDbEntity
  8
0
 62
7
100
AcDbSpline
 70
8
 71
3
 72
8
 73
4
 74
0
 40
0
 40
0
 40
0
 40
0
 40
1
 40
1
 40
1
 40
1
 10
95.277215
 20
186.649930
 30
0.0
 10
95.467716
 20
186.475310
 30
0.0
 10
95.618527
 20
186.324500
 30
0.0
 10
95.729653
 20
186.197500
 30
0.0
  0
LWPOLYLINE
  5
130
100
AcDbEntity
  8
0
 62
7
100
AcDbPolyline
 90
2
 70
0
 10
94.205652
 20
174.838930
 30
0.0
 10
94.205652
 20
174.148370
 30
0.0
  0
SPLINE
  5
131
100
AcDbEntity
  8
0
 62
7
100
AcDbSpline
 70
8
 71
3
 72
8
 73
4
 74
0
 40
0
 40
0
 40
0
 40
0
 40
1
 40
1
 40
1
 40
1
 10
96.396402
 20
184.911620
 30
0.0
 10
96.126525
 20
184.578250
 30
0.0
 10
95.507407
 20
183.340010
 30
0.0
 10
94.539027
 20
181.196870
 30
0.0
  0
LWPOLYLINE
  5
132
100
AcDbEntity
  8
0
 62
7
100
AcDbPolyline
 90
1
 70
1
 10
95.729653
 20
186.197500
 30
0.0
  0
SPLINE
  5
133
100
AcDbEntity
  8
0
 62
7
100
AcDbSpline
 70
8
 71
3
 72
8
 73
4
 74
0
 40
0
 40
0
 40
0
 40
0
 40
1
 40
1
 40
1
 40
1
 10
94.158027
 20
181.387370
 30
0.0
 10
94.650154
 20
182.403380
 30
0.0
 10
95.047025
 20
183.228870
 30
0.0
 10
95.348652
 20
183.863870
 30
0.0
  0
SPLINE
  5
134
100
AcDbEntity
  8
0
 62
7
100
AcDbSpline
 70
8
 71
3
 72
8
 73
4
 74
0
 40
0
 40
0
 40
0
 40
0
 40
1
 40
1
 40
1
 40
1
 10
95.348652
 20
183.863870
 30
0.0
 10
95.650278
 20
184.498880
 30
0.0
 10
95.888401
 20
184.935430
 30
0.0
 10
96.063027
 20
185.173560
 30
0.0
  0
LWPOLYLINE
  5
135
100
AcDbEntity
  8
0
 62
7
100
AcDbPolyline
 90
2
 70
0
 10
94.539027
 20
181.196870
 30
0.0
 10
94.158027
 20
181.387370
 30
0.0
  0
SPLINE
  5
136
100
AcDbEntity
  8
0
 62
7
100
AcDbSpline
 70
8
 71
3
 72
8
 73
4
 74
0
 40
0
 40
0
 40
0
 40
0
 40
1
 40
1
 40
1
 40
1
 10
96.682152
 20
183.697180
 30
0.0
 10
96.475776
 20
183.284430
 30
0.0
 10
96.293215
 20
182.907400
 30
0.0
 10
96.134464
 20
182.566090
 30
0.0
  0
SPLINE
  5
137
100
AcDbEntity
  8
0
 62
7
100
AcDbSpline
 70
8
 71
3
 72
8
 73
4
 74
0
 40
0
 40
0
 40
0
 40
0
 40
1
 40
1
 40
1
 40
1
 10
96.134464
 20
182.566090
 30
0.0
 10
95.975713
 20
182.224780
 30
0.0
 10
95.832840
 20
181.911250
 30
0.0
 10
95.705839
 20
181.625500
 30
0.0
  0
LWPOLYLINE
  5
138
100
AcDbEntity
  8
0
 62
7
100
AcDbPolyline
 90
2
 70
0
 10
96.063027
 20
185.173560
 30
0.0
 10
96.396402
 20
184.911620
 30
0.0
  0
SPLINE
  5
139
100
AcDbEntity
  8
0
 62
7
100
AcDbSpline
 70
8
 71
3
 72
8
 73
4
 74
0
 40
0
 40
0
 40
0
 40
0
 40
1
 40
1
 40
1
 40
1
 10
95.491527
 20
181.720700
 30
0.0
 10
95.618527
 20
182.006450
 30
0.0
 10
95.761401
 20
182.323950
 30
0.0
 10
95.920152
 20
182.673200
 30
0.0
  0
SPLINE
  5
13a
100
AcDbEntity
  8
0
 62
7
100
AcDbSpline
 70
8
 71
3
 72
8
 73
4
 74
0
 40
0
 40
0
 40
0
 40
0
 40
1
 40
1
 40
1
 40
1
 10
95.920152
 20
182.673200
 30
0.0
 10
96.078903
 20
183.022450
 30
0.0
 10
96.261463
 20
183.403440
 30
0.0
 10
96.467839
 20
183.816200
 30
0.0
  0
LWPOLYLINE
  5
13b
100
AcDbEntity
  8
0
 62
7
100
AcDbPolyline
 90
2
 70
0
 10
95.705839
 20
181.625500
 30
0.0
 10
95.491527
 20
181.720700
 30
0.0
  0
SPLINE
  5
13c
100
AcDbEntity
  8
0
 62
7
100
AcDbSpline
 70
8
 71
3
 72
8
 73
4
 74
0
 40
0
 40
0
 40
0
 40
0
 40
1
 40
1
 40
1
 40
1
 10
98.087089
 20
170.481250
 30
0.0
 10
97.245710
 20
170.894000
 30
0.0
 10
96.380531
 20
171.362310
 30
0.0
 10
95.491527
 20
171.886190
 30
0.0
  0
LWPOLYLINE
  5
13d
100
AcDbEntity
  8
0
 62
7
100
AcDbPolyline
 90
2
 70
0
 10
96.467839
 20
183.816200
 30
0.0
 10
96.682152
 20
183.697180
 30
0.0
  0
SPLINE
  5
13e
100
AcDbEntity
  8
0
 62
7
100
AcDbSpline
 70
8
 71
3
 72
8
 73
4
 74
0
 40
0
 40
0
 40
0
 40
0
 40
1
 40
1
 40
1
 40
1
 10
95.634402
 20
172.100500
 30
0.0
 10
96.063029
 20
171.846500
 30
0.0
 10
96.487681
 20
171.604400
 30
0.0
 10
96.908371
 20
171.374220
 30
0.0
  0
SPLINE
  5
13f
100
AcDbEntity
  8
0
 62
7
100
AcDbSpline
 70
8
 71
3
 72
8
 73
4
 74
0
 40
0
 40
0
 40
0
 40
0
 40
1
 40
1
 40
1
 40
1
 10
96.908371
 20
171.374220
 30
0.0
 10
97.329060
 20
171.144030
 30
0.0
 10
97.753712
 20
170.917810
 30
0.0
 10
98.182339
 20
170.695560
 30
0.0
  0
LWPOLYLINE
  5
140
100
AcDbEntity
  8
0
 62
7
100
AcDbPolyline
 90
2
 70
0
 10
95.491527
 20
171.886190
 30
0.0
 10
95.634402
 20
172.100500
 30
0.0
  0
SPLINE
  5
141
100
AcDbEntity
  8
0
 62
7
100
AcDbSpline
 70
8
 71
3
 72
8
 73
4
 74
0
 40
0
 40
0
 40
0
 40
0
 40
1
 40
1
 40
1
 40
1
 10
99.301527
 20
170.957500
 30
0.0
 10
98.841150
 20
171.211500
 30
0.0
 10
98.317280
 20
171.477400
 30
0.0
 10
97.729902
 20
171.755220
 30
0.0
  0
SPLINE
  5
142
100
AcDbEntity
  8
0
 62
7
100
AcDbSpline
 70
8
 71
3
 72
8
 73
4
 74
0
 40
0
 40
0
 40
0
 40
0
 40
1
 40
1
 40
1
 40
1
 10
97.729902
 20
171.755220
 30
0.0
 10
97.142524
 20
172.033030
 30
0.0
 10
96.499593
 20
172.370370
 30
0.0
 10
95.801089
 20
172.767250
 30
0.0
  0
LWPOLYLINE
  5
143
100
AcDbEntity
  8
0
 62
7
100
AcDbPolyline
 90
2
 70
0
 10
98.182339
 20
170.695560
 30
0.0
 10
98.087089
 20
170.481250
 30
0.0
  0
SPLINE
  5
144
100
AcDbEntity
  8
0
 62
7
100
AcDbSpline
 70
8
 71
3
 72
8
 73
4
 74
0
 40
0
 40
0
 40
0
 40
0
 40
1
 40
1
 40
1
 40
1
 10
96.039214
 20
173.124440
 30
0.0
 10
96.404341
 20
172.902180
 30
0.0
 10
96.880587
 20
172.648190
 30
0.0
 10
97.467964
 20
172.362440
 30
0.0
  0
SPLINE
  5
145
100
AcDbEntity
  8
0
 62
7
100
AcDbSpline
 70
8
 71
3
 72
8
 73
4
 74
0
 40
0
 40
0
 40
0
 40
0
 40
1
 40
1
 40
1
 40
1
 10
97.467964
 20
172.362440
 30
0.0
 10
98.055342
 20
172.076680
 30
0.0
 10
98.737961
 20
171.727440
 30
0.0
 10
99.515839
 20
171.314690
 30
0.0
  0
LWPOLYLINE
  5
146
100
AcDbEntity
  8
0
 62
7
100
AcDbPolyline
 90
2
 70
0
 10
95.801089
 20
172.767250
 30
0.0
 10
96.039214
 20
173.124440
 30
0.0
  0
SPLINE
  5
147
100
AcDbEntity
  8
0
 62
7
100
AcDbSpline
 70
8
 71
3
 72
8
 73
4
 74
0
 40
0
 40
0
 40
0
 40
0
 40
1
 40
1
 40
1
 40
1
 10
105.230840
 20
171.910000
 30
0.0
 10
104.548210
 20
171.767120
 30
0.0
 10
103.889400
 20
171.616310
 30
0.0
 10
103.254400
 20
171.457560
 30
0.0
  0
SPLINE
  5
148
100
AcDbEntity
  8
0
 62
7
100
AcDbSpline
 70
8
 71
3
 72
8
 73
4
 74
0
 40
0
 40
0
 40
0
 40
0
 40
1
 40
1
 40
1
 40
1
 10
103.254400
 20
171.457560
 30
0.0
 10
102.619400
 20
171.298810
 30
0.0
 10
102.000280
 20
171.132120
 30
0.0
 10
101.397030
 20
170.957500
 30
0.0
  0
SPLINE
  5
149
100
AcDbEntity
  8
0
 62
7
100
AcDbSpline
 70
8
 71
3
 72
8
 73
4
 74
0
 40
0
 40
0
 40
0
 40
0
 40
1
 40
1
 40
1
 40
1
 10
101.397030
 20
170.957500
 30
0.0
 10
101.349430
 20
171.132120
 30
0.0
 10
101.293840
 20
171.334530
 30
0.0
 10
101.230340
 20
171.564720
 30
0.0
  0
SPLINE
  5
14a
100
AcDbEntity
  8
0
 62
7
100
AcDbSpline
 70
8
 71
3
 72
8
 73
4
 74
0
 40
0
 40
0
 40
0
 40
0
 40
1
 40
1
 40
1
 40
1
 10
101.230340
 20
171.564720
 30
0.0
 10
101.166840
 20
171.794900
 30
0.0
 10
101.095400
 20
172.052870
 30
0.0
 10
101.016030
 20
172.338620
 30
0.0
  0
SPLINE
  5
14b
100
AcDbEntity
  8
0
 62
7
100
AcDbSpline
 70
8
 71
3
 72
8
 73
4
 74
0
 40
0
 40
0
 40
0
 40
0
 40
1
 40
1
 40
1
 40
1
 10
101.016030
 20
172.338620
 30
0.0
 10
101.349400
 20
172.465620
 30
0.0
 10
101.746270
 20
172.679930
 30
0.0
 10
102.206650
 20
172.981560
 30
0.0
  0
SPLINE
  5
14c
100
AcDbEntity
  8
0
 62
7
100
AcDbSpline
 70
8
 71
3
 72
8
 73
4
 74
0
 40
0
 40
0
 40
0
 40
0
 40
1
 40
1
 40
1
 40
1
 10
102.206650
 20
172.981560
 30
0.0
 10
102.444780
 20
174.807190
 30
0.0
 10
102.635280
 20
176.751860
 30
0.0
 10
102.778150
 20
178.815620
 30
0.0
  0
SPLINE
  5
14d
100
AcDbEntity
  8
0
 62
7
100
AcDbSpline
 70
8
 71
3
 72
8
 73
4
 74
0
 40
0
 40
0
 40
0
 40
0
 40
1
 40
1
 40
1
 40
1
 10
102.778150
 20
178.815620
 30
0.0
 10
102.079650
 20
179.609380
 30
0.0
 10
101.658960
 20
180.125310
 30
0.0
 10
101.516090
 20
180.363430
 30
0.0
  0
SPLINE
  5
14e
100
AcDbEntity
  8
0
 62
7
100
AcDbSpline
 70
8
 71
3
 72
8
 73
4
 74
0
 40
0
 40
0
 40
0
 40
0
 40
1
 40
1
 40
1
 40
1
 10
101.516090
 20
180.363430
 30
0.0
 10
101.119210
 20
180.125310
 30
0.0
 10
100.801720
 20
179.918940
 30
0.0
 10
100.563590
 20
179.744310
 30
0.0
  0
SPLINE
  5
14f
100
AcDbEntity
  8
0
 62
7
100
AcDbSpline
 70
8
 71
3
 72
8
 73
4
 74
0
 40
0
 40
0
 40
0
 40
0
 40
1
 40
1
 40
1
 40
1
 10
100.563590
 20
179.744310
 30
0.0
 10
100.325460
 20
179.569680
 30
0.0
 10
100.158780
 20
179.442690
 30
0.0
 10
100.063530
 20
179.363310
 30
0.0
  0
SPLINE
  5
150
100
AcDbEntity
  8
0
 62
7
100
AcDbSpline
 70
8
 71
3
 72
8
 73
4
 74
0
 40
0
 40
0
 40
0
 40
0
 40
1
 40
1
 40
1
 40
1
 10
100.063530
 20
179.363310
 30
0.0
 10
100.031730
 20
178.458430
 30
0.0
 10
99.984160
 20
177.561500
 30
0.0
 10
99.920652
 20
176.672500
 30
0.0
  0
SPLINE
  5
151
100
AcDbEntity
  8
0
 62
7
100
AcDbSpline
 70
8
 71
3
 72
8
 73
4
 74
0
 40
0
 40
0
 40
0
 40
0
 40
1
 40
1
 40
1
 40
1
 10
99.920652
 20
176.672500
 30
0.0
 10
99.857152
 20
175.783490
 30
0.0
 10
99.777778
 20
174.886560
 30
0.0
 10
99.682527
 20
173.981690
 30
0.0
  0
SPLINE
  5
152
100
AcDbEntity
  8
0
 62
7
100
AcDbSpline
 70
8
 71
3
 72
8
 73
4
 74
0
 40
0
 40
0
 40
0
 40
0
 40
1
 40
1
 40
1
 40
1
 10
99.682527
 20
173.981690
 30
0.0
 10
99.920653
 20
173.807060
 30
0.0
 10
100.119090
 20
173.668150
 30
0.0
 10
100.277840
 20
173.564970
 30
0.0
  0
SPLINE
  5
153
100
AcDbEntity
  8
0
 62
7
100
AcDbSpline
 70
8
 71
3
 72
8
 73
4
 74
0
 40
0
 40
0
 40
0
 40
0
 40
1
 40
1
 40
1
 40
1
 10
100.277840
 20
173.564970
 30
0.0
 10
100.436590
 20
173.461780
 30
0.0
 10
100.555650
 20
173.394310
 30
0.0
 10
100.635030
 20
173.362560
 30
0.0
  0
SPLINE
  5
154
100
AcDbEntity
  8
0
 62
7
100
AcDbSpline
 70
8
 71
3
 72
8
 73
4
 74
0
 40
0
 40
0
 40
0
 40
0
 40
1
 40
1
 40
1
 40
1
 10
100.635030
 20
173.362560
 30
0.0
 10
100.523900
 20
173.140310
 30
0.0
 10
100.424680
 20
172.914090
 30
0.0
 10
100.337370
 20
172.683900
 30
0.0
  0
SPLINE
  5
155
100
AcDbEntity
  8
0
 62
7
100
AcDbSpline
 70
8
 71
3
 72
8
 73
4
 74
0
 40
0
 40
0
 40
0
 40
0
 40
1
 40
1
 40
1
 40
1
 10
100.337370
 20
172.683900
 30
0.0
 10
100.250070
 20
172.453720
 30
0.0
 10
100.166710
 20
172.219560
 30
0.0
 10
100.087340
 20
171.981440
 30
0.0
  0
SPLINE
  5
156
100
AcDbEntity
  8
0
 62
7
100
AcDbSpline
 70
8
 71
3
 72
8
 73
4
 74
0
 40
0
 40
0
 40
0
 40
0
 40
1
 40
1
 40
1
 40
1
 10
100.087340
 20
171.981440
 30
0.0
 10
99.261835
 20
172.346560
 30
0.0
 10
98.511749
 20
172.691840
 30
0.0
 10
97.837058
 20
173.017280
 30
0.0
  0
SPLINE
  5
157
100
AcDbEntity
  8
0
 62
7
100
AcDbSpline
 70
8
 71
3
 72
8
 73
4
 74
0
 40
0
 40
0
 40
0
 40
0
 40
1
 40
1
 40
1
 40
1
 10
97.837058
 20
173.017280
 30
0.0
 10
97.162367
 20
173.342720
 30
0.0
 10
96.571030
 20
173.640370
 30
0.0
 10
96.063027
 20
173.910250
 30
0.0
  0
SPLINE
  5
158
100
AcDbEntity
  8
0
 62
7
100
AcDbSpline
 70
8
 71
3
 72
8
 73
4
 74
0
 40
0
 40
0
 40
0
 40
0
 40
1
 40
1
 40
1
 40
1
 10
96.063027
 20
173.910250
 30
0.0
 10
96.221778
 20
174.307120
 30
0.0
 10
96.352745
 20
174.624620
 30
0.0
 10
96.455933
 20
174.862750
 30
0.0
  0
SPLINE
  5
159
100
AcDbEntity
  8
0
 62
7
100
AcDbSpline
 70
8
 71
3
 72
8
 73
4
 74
0
 40
0
 40
0
 40
0
 40
0
 40
1
 40
1
 40
1
 40
1
 10
96.455933
 20
174.862750
 30
0.0
 10
96.559121
 20
175.100870
 30
0.0
 10
96.634527
 20
175.259620
 30
0.0
 10
96.682152
 20
175.339000
 30
0.0
  0
SPLINE
  5
15a
100
AcDbEntity
  8
0
 62
7
100
AcDbSpline
 70
8
 71
3
 72
8
 73
4
 74
0
 40
0
 40
0
 40
0
 40
0
 40
1
 40
1
 40
1
 40
1
 10
96.682152
 20
175.339000
 30
0.0
 10
96.983779
 20
175.164370
 30
0.0
 10
97.237776
 20
175.029440
 30
0.0
 10
97.444152
 20
174.934190
 30
0.0
  0
SPLINE
  5
15b
100
AcDbEntity
  8
0
 62
7
100
AcDbSpline
 70
8
 71
3
 72
8
 73
4
 74
0
 40
0
 40
0
 40
0
 40
0
 40
1
 40
1
 40
1
 40
1
 10
97.444152
 20
174.934190
 30
0.0
 10
97.650528
 20
174.838890
 30
0.0
 10
97.801339
 20
174.775440
 30
0.0
 10
97.896590
 20
174.743690
 30
0.0
  0
SPLINE
  5
15c
100
AcDbEntity
  8
0
 62
7
100
AcDbSpline
 70
8
 71
3
 72
8
 73
4
 74
0
 40
0
 40
0
 40
0
 40
0
 40
1
 40
1
 40
1
 40
1
 10
97.896590
 20
174.743690
 30
0.0
 10
98.182341
 20
177.315450
 30
0.0
 10
98.325215
 20
179.823670
 30
0.0
 10
98.325215
 20
182.268430
 30
0.0
  0
SPLINE
  5
15d
100
AcDbEntity
  8
0
 62
7
100
AcDbSpline
 70
8
 71
3
 72
8
 73
4
 74
0
 40
0
 40
0
 40
0
 40
0
 40
1
 40
1
 40
1
 40
1
 10
98.325215
 20
182.268430
 30
0.0
 10
98.325215
 20
182.935190
 30
0.0
 10
98.317315
 20
183.593990
 30
0.0
 10
98.301405
 20
184.244870
 30
0.0
  0
SPLINE
  5
15e
100
AcDbEntity
  8
0
 62
7
100
AcDbSpline
 70
8
 71
3
 72
8
 73
4
 74
0
 40
0
 40
0
 40
0
 40
0
 40
1
 40
1
 40
1
 40
1
 10
98.301405
 20
184.244870
 30
0.0
 10
98.285525
 20
184.895750
 30
0.0
 10
98.253775
 20
185.546620
 30
0.0
 10
98.206155
 20
186.197500
 30
0.0
  0
SPLINE
  5
15f
100
AcDbEntity
  8
0
 62
7
100
AcDbSpline
 70
8
 71
3
 72
8
 73
4
 74
0
 40
0
 40
0
 40
0
 40
0
 40
1
 40
1
 40
1
 40
1
 10
98.206155
 20
186.197500
 30
0.0
 10
97.777528
 20
185.927620
 30
0.0
 10
97.396532
 20
185.697440
 30
0.0
 10
97.063155
 20
185.506930
 30
0.0
  0
LWPOLYLINE
  5
160
100
AcDbEntity
  8
0
 62
7
100
AcDbPolyline
 90
2
 70
0
 10
99.515839
 20
171.314690
 30
0.0
 10
99.301527
 20
170.957500
 30
0.0
  0
SPLINE
  5
161
100
AcDbEntity
  8
0
 62
7
100
AcDbSpline
 70
8
 71
3
 72
8
 73
4
 74
0
 40
0
 40
0
 40
0
 40
0
 40
1
 40
1
 40
1
 40
1
 10
96.229717
 20
185.030680
 30
0.0
 10
95.975716
 20
185.506940
 30
0.0
 10
95.809030
 20
185.880000
 30
0.0
 10
95.729655
 20
186.149870
 30
0.0
  0
LWPOLYLINE
  5
162
100
AcDbEntity
  8
0
 62
7
100
AcDbPolyline
 90
2
 70
0
 10
97.063155
 20
185.506930
 30
0.0
 10
96.229717
 20
185.030680
 30
0.0
  0
SPLINE
  5
163
100
AcDbEntity
  8
0
 62
7
100
AcDbSpline
 70
8
 71
3
 72
8
 73
4
 74
0
 40
0
 40
0
 40
0
 40
0
 40
1
 40
1
 40
1
 40
1
 10
99.682530
 20
188.769250
 30
0.0
 10
99.825406
 20
187.991370
 30
0.0
 10
99.924623
 20
186.987280
 30
0.0
 10
99.980186
 20
185.756970
 30
0.0
  0
SPLINE
  5
164
100
AcDbEntity
  8
0
 62
7
100
AcDbSpline
 70
8
 71
3
 72
8
 73
4
 74
0
 40
0
 40
0
 40
0
 40
0
 40
1
 40
1
 40
1
 40
1
 10
99.980186
 20
185.756970
 30
0.0
 10
100.035746
 20
184.526650
 30
0.0
 10
100.071466
 20
183.062190
 30
0.0
 10
100.087343
 20
181.363560
 30
0.0
  0
SPLINE
  5
165
100
AcDbEntity
  8
0
 62
7
100
AcDbSpline
 70
8
 71
3
 72
8
 73
4
 74
0
 40
0
 40
0
 40
0
 40
0
 40
1
 40
1
 40
1
 40
1
 10
100.087343
 20
181.363560
 30
0.0
 10
100.754093
 20
181.712810
 30
0.0
 10
101.273993
 20
181.986650
 30
0.0
 10
101.647063
 20
182.185090
 30
0.0
  0
SPLINE
  5
166
100
AcDbEntity
  8
0
 62
7
100
AcDbSpline
 70
8
 71
3
 72
8
 73
4
 74
0
 40
0
 40
0
 40
0
 40
0
 40
1
 40
1
 40
1
 40
1
 10
101.647063
 20
182.185090
 30
0.0
 10
102.020123
 20
182.383530
 30
0.0
 10
102.246343
 20
182.506560
 30
0.0
 10
102.325713
 20
182.554180
 30
0.0
  0
LWPOLYLINE
  5
167
100
AcDbEntity
  8
0
 62
7
100
AcDbPolyline
 90
2
 70
0
 10
95.729655
 20
186.149870
 30
0.0
 10
99.682530
 20
188.769250
 30
0.0
  0
SPLINE
  5
168
100
AcDbEntity
  8
0
 62
7
100
AcDbSpline
 70
8
 71
3
 72
8
 73
4
 74
0
 40
0
 40
0
 40
0
 40
0
 40
1
 40
1
 40
1
 40
1
 10
104.802213
 20
179.291870
 30
0.0
 10
104.659343
 20
178.323490
 30
0.0
 10
104.516463
 20
177.343220
 30
0.0
 10
104.373593
 20
176.351030
 30
0.0
  0
SPLINE
  5
169
100
AcDbEntity
  8
0
 62
7
100
AcDbSpline
 70
8
 71
3
 72
8
 73
4
 74
0
 40
0
 40
0
 40
0
 40
0
 40
1
 40
1
 40
1
 40
1
 10
104.373593
 20
176.351030
 30
0.0
 10
104.230713
 20
175.358840
 30
0.0
 10
104.079903
 20
174.338880
 30
0.0
 10
103.921153
 20
173.291120
 30
0.0
  0
SPLINE
  5
16a
100
AcDbEntity
  8
0
 62
7
100
AcDbSpline
 70
8
 71
3
 72
8
 73
4
 74
0
 40
0
 40
0
 40
0
 40
0
 40
1
 40
1
 40
1
 40
1
 10
103.921153
 20
173.291120
 30
0.0
 10
104.254533
 20
173.307020
 30
0.0
 10
104.564093
 20
173.370520
 30
0.0
 10
104.849843
 20
173.481620
 30
0.0
  0
SPLINE
  5
16b
100
AcDbEntity
  8
0
 62
7
100
AcDbSpline
 70
8
 71
3
 72
8
 73
4
 74
0
 40
0
 40
0
 40
0
 40
0
 40
1
 40
1
 40
1
 40
1
 10
104.849843
 20
173.481620
 30
0.0
 10
104.897443
 20
173.227620
 30
0.0
 10
104.953033
 20
172.969660
 30
0.0
 10
105.016533
 20
172.707720
 30
0.0
  0
SPLINE
  5
16c
100
AcDbEntity
  8
0
 62
7
100
AcDbSpline
 70
8
 71
3
 72
8
 73
4
 74
0
 40
0
 40
0
 40
0
 40
0
 40
1
 40
1
 40
1
 40
1
 10
105.016533
 20
172.707720
 30
0.0
 10
105.080033
 20
172.445780
 30
0.0
 10
105.151463
 20
172.179870
 30
0.0
 10
105.230843
 20
171.910000
 30
0.0
  0
LWPOLYLINE
  5
16d
100
AcDbEntity
  8
0
 62
7
100
AcDbPolyline
 90
2
 70
0
 10
102.325713
 20
182.554180
 30
0.0
 10
104.802213
 20
179.291870
 30
0.0
  0
SPLINE
  5
16e
100
AcDbEntity
  8
0
 62
7
100
AcDbSpline
 70
8
 71
3
 72
8
 73
4
 74
0
 40
0
 40
0
 40
0
 40
0
 40
1
 40
1
 40
1
 40
1
 10
100.825530
 20
183.316180
 30
0.0
 10
100.857330
 20
183.633690
 30
0.0
 10
100.873130
 20
183.911500
 30
0.0
 10
100.873130
 20
184.149620
 30
0.0
  0
LWPOLYLINE
  5
16f
100
AcDbEntity
  8
0
 62
7
100
AcDbPolyline
 90
1
 70
1
 10
105.230843
 20
171.910000
 30
0.0
  0
SPLINE
  5
170
100
AcDbEntity
  8
0
 62
7
100
AcDbSpline
 70
8
 71
3
 72
8
 73
4
 74
0
 40
0
 40
0
 40
0
 40
0
 40
1
 40
1
 40
1
 40
1
 10
100.873130
 20
184.721120
 30
0.0
 10
100.873130
 20
185.689500
 30
0.0
 10
100.754070
 20
187.046800
 30
0.0
 10
100.515940
 20
188.793060
 30
0.0
  0
LWPOLYLINE
  5
171
100
AcDbEntity
  8
0
 62
7
100
AcDbPolyline
 90
2
 70
0
 10
100.873130
 20
184.149620
 30
0.0
 10
100.873130
 20
184.721120
 30
0.0
  0
SPLINE
  5
172
100
AcDbEntity
  8
0
 62
7
100
AcDbSpline
 70
8
 71
3
 72
8
 73
4
 74
0
 40
0
 40
0
 40
0
 40
0
 40
1
 40
1
 40
1
 40
1
 10
100.920760
 20
188.864460
 30
0.0
 10
101.158880
 20
187.245200
 30
0.0
 10
101.277940
 20
185.824400
 30
0.0
 10
101.277940
 20
184.602020
 30
0.0
  0
LWPOLYLINE
  5
173
100
AcDbEntity
  8
0
 62
7
100
AcDbPolyline
 90
2
 70
0
 10
100.515940
 20
188.793060
 30
0.0
 10
100.920760
 20
188.864460
 30
0.0
  0
SPLINE
  5
174
100
AcDbEntity
  8
0
 62
7
100
AcDbSpline
 70
8
 71
3
 72
8
 73
4
 74
0
 40
0
 40
0
 40
0
 40
0
 40
1
 40
1
 40
1
 40
1
 10
101.277940
 20
183.923360
 30
0.0
 10
101.277940
 20
183.709050
 30
0.0
 10
101.262040
 20
183.490770
 30
0.0
 10
101.230340
 20
183.268520
 30
0.0
  0
LWPOLYLINE
  5
175
100
AcDbEntity
  8
0
 62
7
100
AcDbPolyline
 90
2
 70
0
 10
101.277940
 20
184.602020
 30
0.0
 10
101.277940
 20
183.923360
 30
0.0
  0
SPLINE
  5
176
100
AcDbEntity
  8
0
 62
7
100
AcDbSpline
 70
8
 71
3
 72
8
 73
4
 74
0
 40
0
 40
0
 40
0
 40
0
 40
1
 40
1
 40
1
 40
1
 10
102.016150
 20
184.411560
 30
0.0
 10
101.984350
 20
185.014810
 30
0.0
 10
101.956650
 20
185.594240
 30
0.0
 10
101.932850
 20
186.149870
 30
0.0
  0
SPLINE
  5
177
100
AcDbEntity
  8
0
 62
7
100
AcDbSpline
 70
8
 71
3
 72
8
 73
4
 74
0
 40
0
 40
0
 40
0
 40
0
 40
1
 40
1
 40
1
 40
1
 10
101.932850
 20
186.149870
 30
0.0
 10
101.909050
 20
186.705500
 30
0.0
 10
101.873350
 20
187.245240
 30
0.0
 10
101.825690
 20
187.769120
 30
0.0
  0
LWPOLYLINE
  5
178
100
AcDbEntity
  8
0
 62
7
100
AcDbPolyline
 90
2
 70
0
 10
101.230340
 20
183.268520
 30
0.0
 10
100.825530
 20
183.316180
 30
0.0
  0
SPLINE
  5
179
100
AcDbEntity
  8
0
 62
7
100
AcDbSpline
 70
8
 71
3
 72
8
 73
4
 74
0
 40
0
 40
0
 40
0
 40
0
 40
1
 40
1
 40
1
 40
1
 10
102.087630
 20
187.792920
 30
0.0
 10
102.119330
 20
187.189660
 30
0.0
 10
102.151130
 20
186.610230
 30
0.0
 10
102.182830
 20
186.054600
 30
0.0
  0
SPLINE
  5
17a
100
AcDbEntity
  8
0
 62
7
100
AcDbSpline
 70
8
 71
3
 72
8
 73
4
 74
0
 40
0
 40
0
 40
0
 40
0
 40
1
 40
1
 40
1
 40
1
 10
102.182830
 20
186.054600
 30
0.0
 10
102.214630
 20
185.498970
 30
0.0
 10
102.238430
 20
184.951290
 30
0.0
 10
102.254230
 20
184.411540
 30
0.0
  0
LWPOLYLINE
  5
17b
100
AcDbEntity
  8
0
 62
7
100
AcDbPolyline
 90
2
 70
0
 10
101.825690
 20
187.769120
 30
0.0
 10
102.087630
 20
187.792920
 30
0.0
  0
SPLINE
  5
17c
100
AcDbEntity
  8
0
 62
7
100
AcDbSpline
 70
8
 71
3
 72
8
 73
4
 74
0
 40
0
 40
0
 40
0
 40
0
 40
1
 40
1
 40
1
 40
1
 10
112.112650
 20
176.958250
 30
0.0
 10
111.684020
 20
176.878850
 30
0.0
 10
111.275250
 20
176.815370
 30
0.0
 10
110.886310
 20
176.767750
 30
0.0
  0
SPLINE
  5
17d
100
AcDbEntity
  8
0
 62
7
100
AcDbSpline
 70
8
 71
3
 72
8
 73
4
 74
0
 40
0
 40
0
 40
0
 40
0
 40
1
 40
1
 40
1
 40
1
 10
110.886310
 20
176.767750
 30
0.0
 10
110.497370
 20
176.720150
 30
0.0
 10
110.128280
 20
176.672450
 30
0.0
 10
109.779030
 20
176.624870
 30
0.0
  0
SPLINE
  5
17e
100
AcDbEntity
  8
0
 62
7
100
AcDbSpline
 70
8
 71
3
 72
8
 73
4
 74
0
 40
0
 40
0
 40
0
 40
0
 40
1
 40
1
 40
1
 40
1
 10
109.779030
 20
176.624870
 30
0.0
 10
109.620280
 20
176.482000
 30
0.0
 10
109.398030
 20
176.259750
 30
0.0
 10
109.112280
 20
175.958120
 30
0.0
  0
SPLINE
  5
17f
100
AcDbEntity
  8
0
 62
7
100
AcDbSpline
 70
8
 71
3
 72
8
 73
4
 74
0
 40
0
 40
0
 40
0
 40
0
 40
1
 40
1
 40
1
 40
1
 10
109.112280
 20
175.958120
 30
0.0
 10
108.826530
 20
175.656500
 30
0.0
 10
108.477280
 20
175.267560
 30
0.0
 10
108.064530
 20
174.791310
 30
0.0
  0
SPLINE
  5
180
100
AcDbEntity
  8
0
 62
7
100
AcDbSpline
 70
8
 71
3
 72
8
 73
4
 74
0
 40
0
 40
0
 40
0
 40
0
 40
1
 40
1
 40
1
 40
1
 10
108.064530
 20
174.791310
 30
0.0
 10
108.207400
 20
174.616680
 30
0.0
 10
108.374090
 20
174.406340
 30
0.0
 10
108.564590
 20
174.160280
 30
0.0
  0
SPLINE
  5
181
100
AcDbEntity
  8
0
 62
7
100
AcDbSpline
 70
8
 71
3
 72
8
 73
4
 74
0
 40
0
 40
0
 40
0
 40
0
 40
1
 40
1
 40
1
 40
1
 10
108.564590
 20
174.160280
 30
0.0
 10
108.755090
 20
173.914210
 30
0.0
 10
108.969400
 20
173.632440
 30
0.0
 10
109.207530
 20
173.314940
 30
0.0
  0
SPLINE
  5
182
100
AcDbEntity
  8
0
 62
7
100
AcDbSpline
 70
8
 71
3
 72
8
 73
4
 74
0
 40
0
 40
0
 40
0
 40
0
 40
1
 40
1
 40
1
 40
1
 10
109.207530
 20
173.314940
 30
0.0
 10
109.461530
 20
173.426060
 30
0.0
 10
109.806810
 20
173.572900
 30
0.0
 10
110.243370
 20
173.755470
 30
0.0
  0
SPLINE
  5
183
100
AcDbEntity
  8
0
 62
7
100
AcDbSpline
 70
8
 71
3
 72
8
 73
4
 74
0
 40
0
 40
0
 40
0
 40
0
 40
1
 40
1
 40
1
 40
1
 10
110.243370
 20
173.755470
 30
0.0
 10
110.679930
 20
173.938030
 30
0.0
 10
111.207770
 20
174.164250
 30
0.0
 10
111.826900
 20
174.434120
 30
0.0
  0
SPLINE
  5
184
100
AcDbEntity
  8
0
 62
7
100
AcDbSpline
 70
8
 71
3
 72
8
 73
4
 74
0
 40
0
 40
0
 40
0
 40
0
 40
1
 40
1
 40
1
 40
1
 10
111.826900
 20
174.434120
 30
0.0
 10
111.874500
 20
174.767500
 30
0.0
 10
111.922200
 20
175.144530
 30
0.0
 10
111.969780
 20
175.565220
 30
0.0
  0
SPLINE
  5
185
100
AcDbEntity
  8
0
 62
7
100
AcDbSpline
 70
8
 71
3
 72
8
 73
4
 74
0
 40
0
 40
0
 40
0
 40
0
 40
1
 40
1
 40
1
 40
1
 10
111.969780
 20
175.565220
 30
0.0
 10
112.017380
 20
175.985910
 30
0.0
 10
112.064980
 20
176.450240
 30
0.0
 10
112.112650
 20
176.958250
 30
0.0
  0
LWPOLYLINE
  5
186
100
AcDbEntity
  8
0
 62
7
100
AcDbPolyline
 90
2
 70
0
 10
102.254230
 20
184.411540
 30
0.0
 10
102.016150
 20
184.411560
 30
0.0
  0
SPLINE
  5
187
100
AcDbEntity
  8
0
 62
7
100
AcDbSpline
 70
8
 71
3
 72
8
 73
4
 74
0
 40
0
 40
0
 40
0
 40
0
 40
1
 40
1
 40
1
 40
1
 10
115.875030
 20
170.933690
 30
0.0
 10
115.700400
 20
170.822560
 30
0.0
 10
115.541650
 20
170.683650
 30
0.0
 10
115.398780
 20
170.516970
 30
0.0
  0
SPLINE
  5
188
100
AcDbEntity
  8
0
 62
7
100
AcDbSpline
 70
8
 71
3
 72
8
 73
4
 74
0
 40
0
 40
0
 40
0
 40
0
 40
1
 40
1
 40
1
 40
1
 10
115.398780
 20
170.516970
 30
0.0
 10
115.255900
 20
170.350280
 30
0.0
 10
115.089210
 20
170.187560
 30
0.0
 10
114.898710
 20
170.028810
 30
0.0
  0
LWPOLYLINE
  5
189
100
AcDbEntity
  8
0
 62
7
100
AcDbPolyline
 90
1
 70
1
 10
112.112650
 20
176.958250
 30
0.0
  0
SPLINE
  5
18a
100
AcDbEntity
  8
0
 62
7
100
AcDbSpline
 70
8
 71
3
 72
8
 73
4
 74
0
 40
0
 40
0
 40
0
 40
0
 40
1
 40
1
 40
1
 40
1
 10
114.732030
 20
170.219310
 30
0.0
 10
114.795530
 20
170.251110
 30
0.0
 10
114.902680
 20
170.346310
 30
0.0
 10
115.053500
 20
170.505060
 30
0.0
  0
SPLINE
  5
18b
100
AcDbEntity
  8
0
 62
7
100
AcDbSpline
 70
8
 71
3
 72
8
 73
4
 74
0
 40
0
 40
0
 40
0
 40
0
 40
1
 40
1
 40
1
 40
1
 10
115.053500
 20
170.505060
 30
0.0
 10
115.204310
 20
170.663810
 30
0.0
 10
115.422590
 20
170.878120
 30
0.0
 10
115.708340
 20
171.148000
 30
0.0
  0
LWPOLYLINE
  5
18c
100
AcDbEntity
  8
0
 62
7
100
AcDbPolyline
 90
2
 70
0
 10
114.898710
 20
170.028810
 30
0.0
 10
114.732030
 20
170.219310
 30
0.0
  0
SPLINE
  5
18d
100
AcDbEntity
  8
0
 62
7
100
AcDbSpline
 70
8
 71
3
 72
8
 73
4
 74
0
 40
0
 40
0
 40
0
 40
0
 40
1
 40
1
 40
1
 40
1
 10
116.065530
 20
172.481500
 30
0.0
 10
115.652770
 20
172.068750
 30
0.0
 10
115.259870
 20
171.671870
 30
0.0
 10
114.886810
 20
171.290870
 30
0.0
  0
SPLINE
  5
18e
100
AcDbEntity
  8
0
 62
7
100
AcDbSpline
 70
8
 71
3
 72
8
 73
4
 74
0
 40
0
 40
0
 40
0
 40
0
 40
1
 40
1
 40
1
 40
1
 10
114.886810
 20
171.290870
 30
0.0
 10
114.513740
 20
170.909870
 30
0.0
 10
114.176400
 20
170.528870
 30
0.0
 10
113.874780
 20
170.147870
 30
0.0
  0
LWPOLYLINE
  5
18f
100
AcDbEntity
  8
0
 62
7
100
AcDbPolyline
 90
2
 70
0
 10
115.708340
 20
171.148000
 30
0.0
 10
115.875030
 20
170.933690
 30
0.0
  0
SPLINE
  5
190
100
AcDbEntity
  8
0
 62
7
100
AcDbSpline
 70
8
 71
3
 72
8
 73
4
 74
0
 40
0
 40
0
 40
0
 40
0
 40
1
 40
1
 40
1
 40
1
 10
113.517590
 20
170.362190
 30
0.0
 10
113.835090
 20
170.774940
 30
0.0
 10
114.188310
 20
171.167840
 30
0.0
 10
114.577250
 20
171.540900
 30
0.0
  0
SPLINE
  5
191
100
AcDbEntity
  8
0
 62
7
100
AcDbSpline
 70
8
 71
3
 72
8
 73
4
 74
0
 40
0
 40
0
 40
0
 40
0
 40
1
 40
1
 40
1
 40
1
 10
114.577250
 20
171.540900
 30
0.0
 10
114.966190
 20
171.913970
 30
0.0
 10
115.351150
 20
172.314810
 30
0.0
 10
115.732150
 20
172.743440
 30
0.0
  0
LWPOLYLINE
  5
192
100
AcDbEntity
  8
0
 62
7
100
AcDbPolyline
 90
2
 70
0
 10
113.874780
 20
170.147870
 30
0.0
 10
113.517590
 20
170.362190
 30
0.0
  0
SPLINE
  5
193
100
AcDbEntity
  8
0
 62
7
100
AcDbSpline
 70
8
 71
3
 72
8
 73
4
 74
0
 40
0
 40
0
 40
0
 40
0
 40
1
 40
1
 40
1
 40
1
 10
115.327340
 20
173.481620
 30
0.0
 10
114.327210
 20
172.433870
 30
0.0
 10
113.541400
 20
171.552810
 30
0.0
 10
112.969900
 20
170.838440
 30
0.0
  0
SPLINE
  5
194
100
AcDbEntity
  8
0
 62
7
100
AcDbSpline
 70
8
 71
3
 72
8
 73
4
 74
0
 40
0
 40
0
 40
0
 40
0
 40
1
 40
1
 40
1
 40
1
 10
112.969900
 20
170.838440
 30
0.0
 10
112.747650
 20
171.028940
 30
0.0
 10
112.533340
 20
171.211500
 30
0.0
 10
112.326960
 20
171.386120
 30
0.0
  0
SPLINE
  5
195
100
AcDbEntity
  8
0
 62
7
100
AcDbSpline
 70
8
 71
3
 72
8
 73
4
 74
0
 40
0
 40
0
 40
0
 40
0
 40
1
 40
1
 40
1
 40
1
 10
112.326960
 20
171.386120
 30
0.0
 10
112.120590
 20
171.560750
 30
0.0
 10
111.922150
 20
171.719500
 30
0.0
 10
111.731650
 20
171.862370
 30
0.0
  0
SPLINE
  5
196
100
AcDbEntity
  8
0
 62
7
100
AcDbSpline
 70
8
 71
3
 72
8
 73
4
 74
0
 40
0
 40
0
 40
0
 40
0
 40
1
 40
1
 40
1
 40
1
 10
111.731650
 20
171.862370
 30
0.0
 10
111.747550
 20
172.116370
 30
0.0
 10
111.759450
 20
172.334650
 30
0.0
 10
111.767350
 20
172.517220
 30
0.0
  0
SPLINE
  5
197
100
AcDbEntity
  8
0
 62
7
100
AcDbSpline
 70
8
 71
3
 72
8
 73
4
 74
0
 40
0
 40
0
 40
0
 40
0
 40
1
 40
1
 40
1
 40
1
 10
111.767350
 20
172.517220
 30
0.0
 10
111.775350
 20
172.699780
 30
0.0
 10
111.779250
 20
172.846620
 30
0.0
 10
111.779250
 20
172.957750
 30
0.0
  0
SPLINE
  5
198
100
AcDbEntity
  8
0
 62
7
100
AcDbSpline
 70
8
 71
3
 72
8
 73
4
 74
0
 40
0
 40
0
 40
0
 40
0
 40
1
 40
1
 40
1
 40
1
 10
111.779250
 20
172.957750
 30
0.0
 10
111.239500
 20
172.703750
 30
0.0
 10
110.679910
 20
172.453720
 30
0.0
 10
110.100470
 20
172.207650
 30
0.0
  0
SPLINE
  5
199
100
AcDbEntity
  8
0
 62
7
100
AcDbSpline
 70
8
 71
3
 72
8
 73
4
 74
0
 40
0
 40
0
 40
0
 40
0
 40
1
 40
1
 40
1
 40
1
 10
110.100470
 20
172.207650
 30
0.0
 10
109.521030
 20
171.961590
 30
0.0
 10
108.921750
 20
171.711560
 30
0.0
 10
108.302630
 20
171.457560
 30
0.0
  0
SPLINE
  5
19a
100
AcDbEntity
  8
0
 62
7
100
AcDbSpline
 70
8
 71
3
 72
8
 73
4
 74
0
 40
0
 40
0
 40
0
 40
0
 40
1
 40
1
 40
1
 40
1
 10
108.302630
 20
171.457560
 30
0.0
 10
107.985120
 20
171.870310
 30
0.0
 10
107.647780
 20
172.350530
 30
0.0
 10
107.290600
 20
172.898220
 30
0.0
  0
SPLINE
  5
19b
100
AcDbEntity
  8
0
 62
7
100
AcDbSpline
 70
8
 71
3
 72
8
 73
4
 74
0
 40
0
 40
0
 40
0
 40
0
 40
1
 40
1
 40
1
 40
1
 10
107.290600
 20
172.898220
 30
0.0
 10
106.933410
 20
173.445910
 30
0.0
 10
106.548440
 20
174.053120
 30
0.0
 10
106.135690
 20
174.719870
 30
0.0
  0
SPLINE
  5
19c
100
AcDbEntity
  8
0
 62
7
100
AcDbSpline
 70
8
 71
3
 72
8
 73
4
 74
0
 40
0
 40
0
 40
0
 40
0
 40
1
 40
1
 40
1
 40
1
 10
106.135690
 20
174.719870
 30
0.0
 10
106.596070
 20
175.259630
 30
0.0
 10
107.052470
 20
175.795400
 30
0.0
 10
107.504910
 20
176.327220
 30
0.0
  0
SPLINE
  5
19d
100
AcDbEntity
  8
0
 62
7
100
AcDbSpline
 70
8
 71
3
 72
8
 73
4
 74
0
 40
0
 40
0
 40
0
 40
0
 40
1
 40
1
 40
1
 40
1
 10
107.504910
 20
176.327220
 30
0.0
 10
107.957350
 20
176.859030
 30
0.0
 10
108.413750
 20
177.378930
 30
0.0
 10
108.874130
 20
177.886940
 30
0.0
  0
SPLINE
  5
19e
100
AcDbEntity
  8
0
 62
7
100
AcDbSpline
 70
8
 71
3
 72
8
 73
4
 74
0
 40
0
 40
0
 40
0
 40
0
 40
1
 40
1
 40
1
 40
1
 10
108.874130
 20
177.886940
 30
0.0
 10
109.461500
 20
177.998060
 30
0.0
 10
110.036970
 20
178.105220
 30
0.0
 10
110.600530
 20
178.208400
 30
0.0
  0
SPLINE
  5
19f
100
AcDbEntity
  8
0
 62
7
100
AcDbSpline
 70
8
 71
3
 72
8
 73
4
 74
0
 40
0
 40
0
 40
0
 40
0
 40
1
 40
1
 40
1
 40
1
 10
110.600530
 20
178.208400
 30
0.0
 10
111.164100
 20
178.311590
 30
0.0
 10
111.723690
 20
178.410810
 30
0.0
 10
112.279310
 20
178.506060
 30
0.0
  0
LWPOLYLINE
  5
1a0
100
AcDbEntity
  8
0
 62
7
100
AcDbPolyline
 90
2
 70
0
 10
115.732150
 20
172.743440
 30
0.0
 10
116.065530
 20
172.481500
 30
0.0
  0
SPLINE
  5
1a1
100
AcDbEntity
  8
0
 62
7
100
AcDbSpline
 70
8
 71
3
 72
8
 73
4
 74
0
 40
0
 40
0
 40
0
 40
0
 40
1
 40
1
 40
1
 40
1
 10
112.422180
 20
179.625250
 30
0.0
 10
112.104680
 20
179.847500
 30
0.0
 10
111.838780
 20
180.041970
 30
0.0
 10
111.624470
 20
180.208650
 30
0.0
  0
SPLINE
  5
1a2
100
AcDbEntity
  8
0
 62
7
100
AcDbSpline
 70
8
 71
3
 72
8
 73
4
 74
0
 40
0
 40
0
 40
0
 40
0
 40
1
 40
1
 40
1
 40
1
 10
111.624470
 20
180.208650
 30
0.0
 10
111.410150
 20
180.375340
 30
0.0
 10
111.239500
 20
180.514250
 30
0.0
 10
111.112500
 20
180.625370
 30
0.0
  0
LWPOLYLINE
  5
1a3
100
AcDbEntity
  8
0
 62
7
100
AcDbPolyline
 90
2
 70
0
 10
112.279310
 20
178.506060
 30
0.0
 10
112.422180
 20
179.625250
 30
0.0
  0
SPLINE
  5
1a4
100
AcDbEntity
  8
0
 62
7
100
AcDbSpline
 70
8
 71
3
 72
8
 73
4
 74
0
 40
0
 40
0
 40
0
 40
0
 40
1
 40
1
 40
1
 40
1
 10
107.612060
 20
177.839310
 30
0.0
 10
107.389810
 20
178.045690
 30
0.0
 10
107.199310
 20
178.236180
 30
0.0
 10
107.040560
 20
178.410810
 30
0.0
  0
SPLINE
  5
1a5
100
AcDbEntity
  8
0
 62
7
100
AcDbSpline
 70
8
 71
3
 72
8
 73
4
 74
0
 40
0
 40
0
 40
0
 40
0
 40
1
 40
1
 40
1
 40
1
 10
107.040560
 20
178.410810
 30
0.0
 10
106.881810
 20
178.585440
 30
0.0
 10
106.746870
 20
178.736250
 30
0.0
 10
106.635750
 20
178.863250
 30
0.0
  0
SPLINE
  5
1a6
100
AcDbEntity
  8
0
 62
7
100
AcDbSpline
 70
8
 71
3
 72
8
 73
4
 74
0
 40
0
 40
0
 40
0
 40
0
 40
1
 40
1
 40
1
 40
1
 10
106.635750
 20
178.863250
 30
0.0
 10
107.096120
 20
179.815750
 30
0.0
 10
107.572370
 20
181.109550
 30
0.0
 10
108.064500
 20
182.744680
 30
0.0
  0
SPLINE
  5
1a7
100
AcDbEntity
  8
0
 62
7
100
AcDbSpline
 70
8
 71
3
 72
8
 73
4
 74
0
 40
0
 40
0
 40
0
 40
0
 40
1
 40
1
 40
1
 40
1
 10
108.064500
 20
182.744680
 30
0.0
 10
108.429620
 20
182.554180
 30
0.0
 10
108.715370
 20
182.407340
 30
0.0
 10
108.921750
 20
182.304150
 30
0.0
  0
SPLINE
  5
1a8
100
AcDbEntity
  8
0
 62
7
100
AcDbSpline
 70
8
 71
3
 72
8
 73
4
 74
0
 40
0
 40
0
 40
0
 40
0
 40
1
 40
1
 40
1
 40
1
 10
108.921750
 20
182.304150
 30
0.0
 10
109.128120
 20
182.200970
 30
0.0
 10
109.271000
 20
182.133500
 30
0.0
 10
109.350370
 20
182.101750
 30
0.0
  0
SPLINE
  5
1a9
100
AcDbEntity
  8
0
 62
7
100
AcDbSpline
 70
8
 71
3
 72
8
 73
4
 74
0
 40
0
 40
0
 40
0
 40
0
 40
1
 40
1
 40
1
 40
1
 10
109.350370
 20
182.101750
 30
0.0
 10
109.255170
 20
181.784250
 30
0.0
 10
109.155900
 20
181.490560
 30
0.0
 10
109.052720
 20
181.220680
 30
0.0
  0
SPLINE
  5
1aa
100
AcDbEntity
  8
0
 62
7
100
AcDbSpline
 70
8
 71
3
 72
8
 73
4
 74
0
 40
0
 40
0
 40
0
 40
0
 40
1
 40
1
 40
1
 40
1
 10
109.052720
 20
181.220680
 30
0.0
 10
108.949530
 20
180.950810
 30
0.0
 10
108.850310
 20
180.696810
 30
0.0
 10
108.755060
 20
180.458680
 30
0.0
  0
SPLINE
  5
1ab
100
AcDbEntity
  8
0
 62
7
100
AcDbSpline
 70
8
 71
3
 72
8
 73
4
 74
0
 40
0
 40
0
 40
0
 40
0
 40
1
 40
1
 40
1
 40
1
 10
108.755060
 20
180.458680
 30
0.0
 10
109.358310
 20
180.871440
 30
0.0
 10
109.894090
 20
181.244500
 30
0.0
 10
110.362400
 20
181.577870
 30
0.0
  0
SPLINE
  5
1ac
100
AcDbEntity
  8
0
 62
7
100
AcDbSpline
 70
8
 71
3
 72
8
 73
4
 74
0
 40
0
 40
0
 40
0
 40
0
 40
1
 40
1
 40
1
 40
1
 10
110.362400
 20
181.577870
 30
0.0
 10
110.830720
 20
181.911250
 30
0.0
 10
111.247430
 20
182.220810
 30
0.0
 10
111.612560
 20
182.506560
 30
0.0
  0
SPLINE
  5
1ad
100
AcDbEntity
  8
0
 62
7
100
AcDbSpline
 70
8
 71
3
 72
8
 73
4
 74
0
 40
0
 40
0
 40
0
 40
0
 40
1
 40
1
 40
1
 40
1
 10
111.612560
 20
182.506560
 30
0.0
 10
112.152310
 20
182.046180
 30
0.0
 10
112.628560
 20
181.609620
 30
0.0
 10
113.041310
 20
181.196870
 30
0.0
  0
SPLINE
  5
1ae
100
AcDbEntity
  8
0
 62
7
100
AcDbSpline
 70
8
 71
3
 72
8
 73
4
 74
0
 40
0
 40
0
 40
0
 40
0
 40
1
 40
1
 40
1
 40
1
 10
113.041310
 20
181.196870
 30
0.0
 10
113.454060
 20
180.784120
 30
0.0
 10
113.819180
 20
180.395190
 30
0.0
 10
114.136680
 20
180.030060
 30
0.0
  0
SPLINE
  5
1af
100
AcDbEntity
  8
0
 62
7
100
AcDbSpline
 70
8
 71
3
 72
8
 73
4
 74
0
 40
0
 40
0
 40
0
 40
0
 40
1
 40
1
 40
1
 40
1
 10
114.136680
 20
180.030060
 30
0.0
 10
114.009680
 20
178.839430
 30
0.0
 10
113.886650
 20
177.704380
 30
0.0
 10
113.767590
 20
176.624870
 30
0.0
  0
SPLINE
  5
1b0
100
AcDbEntity
  8
0
 62
7
100
AcDbSpline
 70
8
 71
3
 72
8
 73
4
 74
0
 40
0
 40
0
 40
0
 40
0
 40
1
 40
1
 40
1
 40
1
 10
113.767590
 20
176.624870
 30
0.0
 10
113.648530
 20
175.545370
 30
0.0
 10
113.541370
 20
174.505570
 30
0.0
 10
113.446120
 20
173.505440
 30
0.0
  0
SPLINE
  5
1b1
100
AcDbEntity
  8
0
 62
7
100
AcDbSpline
 70
8
 71
3
 72
8
 73
4
 74
0
 40
0
 40
0
 40
0
 40
0
 40
1
 40
1
 40
1
 40
1
 10
113.446120
 20
173.505440
 30
0.0
 10
113.684250
 20
173.711810
 30
0.0
 10
113.886650
 20
173.902310
 30
0.0
 10
114.053340
 20
174.076940
 30
0.0
  0
SPLINE
  5
1b2
100
AcDbEntity
  8
0
 62
7
100
AcDbSpline
 70
8
 71
3
 72
8
 73
4
 74
0
 40
0
 40
0
 40
0
 40
0
 40
1
 40
1
 40
1
 40
1
 10
114.053340
 20
174.076940
 30
0.0
 10
114.220030
 20
174.251560
 30
0.0
 10
114.366870
 20
174.402370
 30
0.0
 10
114.493870
 20
174.529370
 30
0.0
  0
SPLINE
  5
1b3
100
AcDbEntity
  8
0
 62
7
100
AcDbSpline
 70
8
 71
3
 72
8
 73
4
 74
0
 40
0
 40
0
 40
0
 40
0
 40
1
 40
1
 40
1
 40
1
 10
114.493870
 20
174.529370
 30
0.0
 10
114.732000
 20
174.211870
 30
0.0
 10
114.922500
 20
173.969780
 30
0.0
 10
115.065370
 20
173.803090
 30
0.0
  0
SPLINE
  5
1b4
100
AcDbEntity
  8
0
 62
7
100
AcDbSpline
 70
8
 71
3
 72
8
 73
4
 74
0
 40
0
 40
0
 40
0
 40
0
 40
1
 40
1
 40
1
 40
1
 10
115.065370
 20
173.803090
 30
0.0
 10
115.208250
 20
173.636400
 30
0.0
 10
115.295560
 20
173.529250
 30
0.0
 10
115.327310
 20
173.481620
 30
0.0
  0
LWPOLYLINE
  5
1b5
100
AcDbEntity
  8
0
 62
7
100
AcDbPolyline
 90
2
 70
0
 10
111.112500
 20
180.625370
 30
0.0
 10
107.612060
 20
177.839310
 30
0.0
  0
SPLINE
  5
1b6
100
AcDbEntity
  8
0
 62
7
100
AcDbSpline
 70
8
 71
3
 72
8
 73
4
 74
0
 40
0
 40
0
 40
0
 40
0
 40
1
 40
1
 40
1
 40
1
 10
116.017900
 20
176.553440
 30
0.0
 10
115.986100
 20
177.109060
 30
0.0
 10
115.954400
 20
177.708340
 30
0.0
 10
115.922700
 20
178.351280
 30
0.0
  0
SPLINE
  5
1b7
100
AcDbEntity
  8
0
 62
7
100
AcDbSpline
 70
8
 71
3
 72
8
 73
4
 74
0
 40
0
 40
0
 40
0
 40
0
 40
1
 40
1
 40
1
 40
1
 10
115.922700
 20
178.351280
 30
0.0
 10
115.890900
 20
178.994220
 30
0.0
 10
115.843300
 20
179.672870
 30
0.0
 10
115.779830
 20
180.387250
 30
0.0
  0
LWPOLYLINE
  5
1b8
100
AcDbEntity
  8
0
 62
7
100
AcDbPolyline
 90
1
 70
1
 10
115.327310
 20
173.481620
 30
0.0
  0
SPLINE
  5
1b9
100
AcDbEntity
  8
0
 62
7
100
AcDbSpline
 70
8
 71
3
 72
8
 73
4
 74
0
 40
0
 40
0
 40
0
 40
0
 40
1
 40
1
 40
1
 40
1
 10
116.017950
 20
180.411050
 30
0.0
 10
116.049750
 20
180.045920
 30
0.0
 10
116.085450
 20
179.541900
 30
0.0
 10
116.125110
 20
178.898960
 30
0.0
  0
SPLINE
  5
1ba
100
AcDbEntity
  8
0
 62
7
100
AcDbSpline
 70
8
 71
3
 72
8
 73
4
 74
0
 40
0
 40
0
 40
0
 40
0
 40
1
 40
1
 40
1
 40
1
 10
116.125110
 20
178.898960
 30
0.0
 10
116.164810
 20
178.256020
 30
0.0
 10
116.216410
 20
177.474180
 30
0.0
 10
116.279890
 20
176.553430
 30
0.0
  0
LWPOLYLINE
  5
1bb
100
AcDbEntity
  8
0
 62
7
100
AcDbPolyline
 90
2
 70
0
 10
115.779830
 20
180.387250
 30
0.0
 10
116.017950
 20
180.411050
 30
0.0
  0
SPLINE
  5
1bc
100
AcDbEntity
  8
0
 62
7
100
AcDbSpline
 70
8
 71
3
 72
8
 73
4
 74
0
 40
0
 40
0
 40
0
 40
0
 40
1
 40
1
 40
1
 40
1
 10
116.994210
 20
175.886690
 30
0.0
 10
116.962410
 20
176.601060
 30
0.0
 10
116.934710
 20
177.279710
 30
0.0
 10
116.910910
 20
177.922650
 30
0.0
  0
SPLINE
  5
1bd
100
AcDbEntity
  8
0
 62
7
100
AcDbSpline
 70
8
 71
3
 72
8
 73
4
 74
0
 40
0
 40
0
 40
0
 40
0
 40
1
 40
1
 40
1
 40
1
 10
116.910910
 20
177.922650
 30
0.0
 10
116.887110
 20
178.565590
 30
0.0
 10
116.859310
 20
179.180740
 30
0.0
 10
116.827610
 20
179.768120
 30
0.0
  0
LWPOLYLINE
  5
1be
100
AcDbEntity
  8
0
 62
7
100
AcDbPolyline
 90
2
 70
0
 10
116.279890
 20
176.553430
 30
0.0
 10
116.017900
 20
176.553440
 30
0.0
  0
SPLINE
  5
1bf
100
AcDbEntity
  8
0
 62
7
100
AcDbSpline
 70
8
 71
3
 72
8
 73
4
 74
0
 40
0
 40
0
 40
0
 40
0
 40
1
 40
1
 40
1
 40
1
 10
117.232430
 20
179.791920
 30
0.0
 10
117.280030
 20
178.934660
 30
0.0
 10
117.319730
 20
178.180610
 30
0.0
 10
117.351490
 20
177.529730
 30
0.0
  0
SPLINE
  5
1c0
100
AcDbEntity
  8
0
 62
7
100
AcDbSpline
 70
8
 71
3
 72
8
 73
4
 74
0
 40
0
 40
0
 40
0
 40
0
 40
1
 40
1
 40
1
 40
1
 10
117.351490
 20
177.529730
 30
0.0
 10
117.383290
 20
176.878850
 30
0.0
 10
117.407090
 20
176.331170
 30
0.0
 10
117.422890
 20
175.886670
 30
0.0
  0
LWPOLYLINE
  5
1c1
100
AcDbEntity
  8
0
 62
7
100
AcDbPolyline
 90
4
 70
0
 10
116.827610
 20
179.768120
 30
0.0
 10
116.756210
 20
181.006370
 30
0.0
 10
117.161030
 20
181.030170
 30
0.0
 10
117.232430
 20
179.791920
 30
0.0
  0
SPLINE
  5
1c2
100
AcDbEntity
  8
0
 62
7
100
AcDbSpline
 70
8
 71
3
 72
8
 73
4
 74
0
 40
0
 40
0
 40
0
 40
0
 40
1
 40
1
 40
1
 40
1
 10
127.662210
 20
172.624370
 30
0.0
 10
126.931960
 20
172.370370
 30
0.0
 10
126.209650
 20
172.100500
 30
0.0
 10
125.495280
 20
171.814750
 30
0.0
  0
SPLINE
  5
1c3
100
AcDbEntity
  8
0
 62
7
100
AcDbSpline
 70
8
 71
3
 72
8
 73
4
 74
0
 40
0
 40
0
 40
0
 40
0
 40
1
 40
1
 40
1
 40
1
 10
125.495280
 20
171.814750
 30
0.0
 10
124.780900
 20
171.529000
 30
0.0
 10
124.066530
 20
171.227370
 30
0.0
 10
123.352150
 20
170.909870
 30
0.0
  0
SPLINE
  5
1c4
100
AcDbEntity
  8
0
 62
7
100
AcDbSpline
 70
8
 71
3
 72
8
 73
4
 74
0
 40
0
 40
0
 40
0
 40
0
 40
1
 40
1
 40
1
 40
1
 10
123.352150
 20
170.909870
 30
0.0
 10
123.336250
 20
171.179750
 30
0.0
 10
123.320450
 20
171.441680
 30
0.0
 10
123.304550
 20
171.695690
 30
0.0
  0
SPLINE
  5
1c5
100
AcDbEntity
  8
0
 62
7
100
AcDbSpline
 70
8
 71
3
 72
8
 73
4
 74
0
 40
0
 40
0
 40
0
 40
0
 40
1
 40
1
 40
1
 40
1
 10
123.304550
 20
171.695690
 30
0.0
 10
123.288650
 20
171.949690
 30
0.0
 10
123.264850
 20
172.203680
 30
0.0
 10
123.233150
 20
172.457690
 30
0.0
  0
SPLINE
  5
1c6
100
AcDbEntity
  8
0
 62
7
100
AcDbSpline
 70
8
 71
3
 72
8
 73
4
 74
0
 40
0
 40
0
 40
0
 40
0
 40
1
 40
1
 40
1
 40
1
 10
123.233150
 20
172.457690
 30
0.0
 10
123.550650
 20
172.552990
 30
0.0
 10
123.891960
 20
172.743430
 30
0.0
 10
124.257090
 20
173.029190
 30
0.0
  0
SPLINE
  5
1c7
100
AcDbEntity
  8
0
 62
7
100
AcDbSpline
 70
8
 71
3
 72
8
 73
4
 74
0
 40
0
 40
0
 40
0
 40
0
 40
1
 40
1
 40
1
 40
1
 10
124.257090
 20
173.029190
 30
0.0
 10
123.939590
 20
173.600690
 30
0.0
 10
123.518900
 20
174.350770
 30
0.0
 10
122.995030
 20
175.279470
 30
0.0
  0
SPLINE
  5
1c8
100
AcDbEntity
  8
0
 62
7
100
AcDbSpline
 70
8
 71
3
 72
8
 73
4
 74
0
 40
0
 40
0
 40
0
 40
0
 40
1
 40
1
 40
1
 40
1
 10
122.995030
 20
175.279470
 30
0.0
 10
122.471150
 20
176.208160
 30
0.0
 10
121.844090
 20
177.331300
 30
0.0
 10
121.113840
 20
178.648940
 30
0.0
  0
SPLINE
  5
1c9
100
AcDbEntity
  8
0
 62
7
100
AcDbSpline
 70
8
 71
3
 72
8
 73
4
 74
0
 40
0
 40
0
 40
0
 40
0
 40
1
 40
1
 40
1
 40
1
 10
121.113840
 20
178.648940
 30
0.0
 10
120.986840
 20
178.553740
 30
0.0
 10
120.836030
 20
178.426690
 30
0.0
 10
120.661400
 20
178.267940
 30
0.0
  0
SPLINE
  5
1ca
100
AcDbEntity
  8
0
 62
7
100
AcDbSpline
 70
8
 71
3
 72
8
 73
4
 74
0
 40
0
 40
0
 40
0
 40
0
 40
1
 40
1
 40
1
 40
1
 10
120.661400
 20
178.267940
 30
0.0
 10
120.486780
 20
178.109180
 30
0.0
 10
120.288340
 20
177.918690
 30
0.0
 10
120.066090
 20
177.696440
 30
0.0
  0
SPLINE
  5
1cb
100
AcDbEntity
  8
0
 62
7
100
AcDbSpline
 70
8
 71
3
 72
8
 73
4
 74
0
 40
0
 40
0
 40
0
 40
0
 40
1
 40
1
 40
1
 40
1
 10
120.066090
 20
177.696440
 30
0.0
 10
120.034290
 20
177.331310
 30
0.0
 10
120.010490
 20
176.942370
 30
0.0
 10
119.994690
 20
176.529620
 30
0.0
  0
SPLINE
  5
1cc
100
AcDbEntity
  8
0
 62
7
100
AcDbSpline
 70
8
 71
3
 72
8
 73
4
 74
0
 40
0
 40
0
 40
0
 40
0
 40
1
 40
1
 40
1
 40
1
 10
119.994690
 20
176.529620
 30
0.0
 10
119.978790
 20
176.116870
 30
0.0
 10
119.970890
 20
175.680310
 30
0.0
 10
119.970890
 20
175.219940
 30
0.0
  0
SPLINE
  5
1cd
100
AcDbEntity
  8
0
 62
7
100
AcDbSpline
 70
8
 71
3
 72
8
 73
4
 74
0
 40
0
 40
0
 40
0
 40
0
 40
1
 40
1
 40
1
 40
1
 10
119.970890
 20
175.219940
 30
0.0
 10
119.970890
 20
174.918310
 30
0.0
 10
119.974890
 20
174.604780
 30
0.0
 10
119.982790
 20
174.279340
 30
0.0
  0
SPLINE
  5
1ce
100
AcDbEntity
  8
0
 62
7
100
AcDbSpline
 70
8
 71
3
 72
8
 73
4
 74
0
 40
0
 40
0
 40
0
 40
0
 40
1
 40
1
 40
1
 40
1
 10
119.982790
 20
174.279340
 30
0.0
 10
119.990790
 20
173.953900
 30
0.0
 10
120.002590
 20
173.616560
 30
0.0
 10
120.018490
 20
173.267310
 30
0.0
  0
SPLINE
  5
1cf
100
AcDbEntity
  8
0
 62
7
100
AcDbSpline
 70
8
 71
3
 72
8
 73
4
 74
0
 40
0
 40
0
 40
0
 40
0
 40
1
 40
1
 40
1
 40
1
 10
120.018490
 20
173.267310
 30
0.0
 10
120.447120
 20
172.997430
 30
0.0
 10
120.986860
 20
172.711690
 30
0.0
 10
121.637740
 20
172.410060
 30
0.0
  0
SPLINE
  5
1d0
100
AcDbEntity
  8
0
 62
7
100
AcDbSpline
 70
8
 71
3
 72
8
 73
4
 74
0
 40
0
 40
0
 40
0
 40
0
 40
1
 40
1
 40
1
 40
1
 10
121.637740
 20
172.410060
 30
0.0
 10
121.510740
 20
172.235430
 30
0.0
 10
121.383740
 20
172.037000
 30
0.0
 10
121.256740
 20
171.814750
 30
0.0
  0
SPLINE
  5
1d1
100
AcDbEntity
  8
0
 62
7
100
AcDbSpline
 70
8
 71
3
 72
8
 73
4
 74
0
 40
0
 40
0
 40
0
 40
0
 40
1
 40
1
 40
1
 40
1
 10
121.256740
 20
171.814750
 30
0.0
 10
121.129740
 20
171.592500
 30
0.0
 10
120.994800
 20
171.346440
 30
0.0
 10
120.851930
 20
171.076560
 30
0.0
  0
SPLINE
  5
1d2
100
AcDbEntity
  8
0
 62
7
100
AcDbSpline
 70
8
 71
3
 72
8
 73
4
 74
0
 40
0
 40
0
 40
0
 40
0
 40
1
 40
1
 40
1
 40
1
 10
120.851930
 20
171.076560
 30
0.0
 10
120.264550
 20
171.282940
 30
0.0
 10
119.613680
 20
171.489310
 30
0.0
 10
118.899300
 20
171.695690
 30
0.0
  0
SPLINE
  5
1d3
100
AcDbEntity
  8
0
 62
7
100
AcDbSpline
 70
8
 71
3
 72
8
 73
4
 74
0
 40
0
 40
0
 40
0
 40
0
 40
1
 40
1
 40
1
 40
1
 10
118.899300
 20
171.695690
 30
0.0
 10
118.184920
 20
171.902060
 30
0.0
 10
117.391180
 20
172.116370
 30
0.0
 10
116.518050
 20
172.338620
 30
0.0
  0
SPLINE
  5
1d4
100
AcDbEntity
  8
0
 62
7
100
AcDbSpline
 70
8
 71
3
 72
8
 73
4
 74
0
 40
0
 40
0
 40
0
 40
0
 40
1
 40
1
 40
1
 40
1
 10
116.518050
 20
172.338620
 30
0.0
 10
116.629180
 20
172.560870
 30
0.0
 10
116.728400
 20
172.802960
 30
0.0
 10
116.815710
 20
173.064900
 30
0.0
  0
SPLINE
  5
1d5
100
AcDbEntity
  8
0
 62
7
100
AcDbSpline
 70
8
 71
3
 72
8
 73
4
 74
0
 40
0
 40
0
 40
0
 40
0
 40
1
 40
1
 40
1
 40
1
 10
116.815710
 20
173.064900
 30
0.0
 10
116.903010
 20
173.326840
 30
0.0
 10
116.986360
 20
173.608620
 30
0.0
 10
117.065740
 20
173.910250
 30
0.0
  0
SPLINE
  5
1d6
100
AcDbEntity
  8
0
 62
7
100
AcDbSpline
 70
8
 71
3
 72
8
 73
4
 74
0
 40
0
 40
0
 40
0
 40
0
 40
1
 40
1
 40
1
 40
1
 10
117.065740
 20
173.910250
 30
0.0
 10
117.240360
 20
173.846750
 30
0.0
 10
117.434830
 20
173.787220
 30
0.0
 10
117.649150
 20
173.731650
 30
0.0
  0
SPLINE
  5
1d7
100
AcDbEntity
  8
0
 62
7
100
AcDbSpline
 70
8
 71
3
 72
8
 73
4
 74
0
 40
0
 40
0
 40
0
 40
0
 40
1
 40
1
 40
1
 40
1
 10
117.649150
 20
173.731650
 30
0.0
 10
117.863460
 20
173.676050
 30
0.0
 10
118.089680
 20
173.624500
 30
0.0
 10
118.327800
 20
173.576870
 30
0.0
  0
SPLINE
  5
1d8
100
AcDbEntity
  8
0
 62
7
100
AcDbSpline
 70
8
 71
3
 72
8
 73
4
 74
0
 40
0
 40
0
 40
0
 40
0
 40
1
 40
1
 40
1
 40
1
 10
118.327800
 20
173.576870
 30
0.0
 10
118.375400
 20
174.053120
 30
0.0
 10
118.399200
 20
174.608740
 30
0.0
 10
118.399200
 20
175.243750
 30
0.0
  0
SPLINE
  5
1d9
100
AcDbEntity
  8
0
 62
7
100
AcDbSpline
 70
8
 71
3
 72
8
 73
4
 74
0
 40
0
 40
0
 40
0
 40
0
 40
1
 40
1
 40
1
 40
1
 10
118.399200
 20
175.243750
 30
0.0
 10
118.399200
 20
175.958130
 30
0.0
 10
118.375400
 20
177.180490
 30
0.0
 10
118.327800
 20
178.910870
 30
0.0
  0
SPLINE
  5
1da
100
AcDbEntity
  8
0
 62
7
100
AcDbSpline
 70
8
 71
3
 72
8
 73
4
 74
0
 40
0
 40
0
 40
0
 40
0
 40
1
 40
1
 40
1
 40
1
 10
118.327800
 20
178.910870
 30
0.0
 10
118.280200
 20
180.641260
 30
0.0
 10
118.216680
 20
182.895480
 30
0.0
 10
118.137300
 20
185.673620
 30
0.0
  0
SPLINE
  5
1db
100
AcDbEntity
  8
0
 62
7
100
AcDbSpline
 70
8
 71
3
 72
8
 73
4
 74
0
 40
0
 40
0
 40
0
 40
0
 40
1
 40
1
 40
1
 40
1
 10
118.137300
 20
185.673620
 30
0.0
 10
117.740420
 20
185.800620
 30
0.0
 10
117.319730
 20
185.895870
 30
0.0
 10
116.875230
 20
185.959370
 30
0.0
  0
LWPOLYLINE
  5
1dc
100
AcDbEntity
  8
0
 62
7
100
AcDbPolyline
 90
2
 70
0
 10
117.422890
 20
175.886670
 30
0.0
 10
116.994210
 20
175.886690
 30
0.0
  0
SPLINE
  5
1dd
100
AcDbEntity
  8
0
 62
7
100
AcDbSpline
 70
8
 71
3
 72
8
 73
4
 74
0
 40
0
 40
0
 40
0
 40
0
 40
1
 40
1
 40
1
 40
1
 10
116.875230
 20
187.959620
 30
0.0
 10
117.256230
 20
187.864320
 30
0.0
 10
117.863440
 20
187.697690
 30
0.0
 10
118.696890
 20
187.459560
 30
0.0
  0
SPLINE
  5
1de
100
AcDbEntity
  8
0
 62
7
100
AcDbSpline
 70
8
 71
3
 72
8
 73
4
 74
0
 40
0
 40
0
 40
0
 40
0
 40
1
 40
1
 40
1
 40
1
 10
118.696890
 20
187.459560
 30
0.0
 10
119.530330
 20
187.221430
 30
0.0
 10
120.605850
 20
186.911870
 30
0.0
 10
121.923480
 20
186.530870
 30
0.0
  0
SPLINE
  5
1df
100
AcDbEntity
  8
0
 62
7
100
AcDbSpline
 70
8
 71
3
 72
8
 73
4
 74
0
 40
0
 40
0
 40
0
 40
0
 40
1
 40
1
 40
1
 40
1
 10
121.923480
 20
186.530870
 30
0.0
 10
121.828180
 20
186.213370
 30
0.0
 10
121.748860
 20
185.935560
 30
0.0
 10
121.685360
 20
185.697430
 30
0.0
  0
SPLINE
  5
1e0
100
AcDbEntity
  8
0
 62
7
100
AcDbSpline
 70
8
 71
3
 72
8
 73
4
 74
0
 40
0
 40
0
 40
0
 40
0
 40
1
 40
1
 40
1
 40
1
 10
121.685360
 20
185.697430
 30
0.0
 10
121.621860
 20
185.459310
 30
0.0
 10
121.574230
 20
185.268810
 30
0.0
 10
121.542480
 20
185.125930
 30
0.0
  0
LWPOLYLINE
  5
1e1
100
AcDbEntity
  8
0
 62
7
100
AcDbPolyline
 90
2
 70
0
 10
116.875230
 20
185.959370
 30
0.0
 10
116.875230
 20
187.959620
 30
0.0
  0
SPLINE
  5
1e2
100
AcDbEntity
  8
0
 62
7
100
AcDbSpline
 70
8
 71
3
 72
8
 73
4
 74
0
 40
0
 40
0
 40
0
 40
0
 40
1
 40
1
 40
1
 40
1
 10
120.137540
 20
185.506930
 30
0.0
 10
120.105740
 20
184.713180
 30
0.0
 10
120.078040
 20
183.851970
 30
0.0
 10
120.054240
 20
182.923280
 30
0.0
  0
SPLINE
  5
1e3
100
AcDbEntity
  8
0
 62
7
100
AcDbSpline
 70
8
 71
3
 72
8
 73
4
 74
0
 40
0
 40
0
 40
0
 40
0
 40
1
 40
1
 40
1
 40
1
 10
120.054240
 20
182.923280
 30
0.0
 10
120.030440
 20
181.994590
 30
0.0
 10
120.002640
 20
180.982570
 30
0.0
 10
119.970940
 20
179.887180
 30
0.0
  0
SPLINE
  5
1e4
100
AcDbEntity
  8
0
 62
7
100
AcDbSpline
 70
8
 71
3
 72
8
 73
4
 74
0
 40
0
 40
0
 40
0
 40
0
 40
1
 40
1
 40
1
 40
1
 10
119.970940
 20
179.887180
 30
0.0
 10
120.542440
 20
180.442810
 30
0.0
 10
121.169500
 20
181.085740
 30
0.0
 10
121.852120
 20
181.816000
 30
0.0
  0
SPLINE
  5
1e5
100
AcDbEntity
  8
0
 62
7
100
AcDbSpline
 70
8
 71
3
 72
8
 73
4
 74
0
 40
0
 40
0
 40
0
 40
0
 40
1
 40
1
 40
1
 40
1
 10
121.852120
 20
181.816000
 30
0.0
 10
122.534750
 20
182.546250
 30
0.0
 10
123.280870
 20
183.363810
 30
0.0
 10
124.090500
 20
184.268680
 30
0.0
  0
LWPOLYLINE
  5
1e6
100
AcDbEntity
  8
0
 62
7
100
AcDbPolyline
 90
2
 70
0
 10
121.542480
 20
185.125930
 30
0.0
 10
120.137540
 20
185.506930
 30
0.0
  0
SPLINE
  5
1e7
100
AcDbEntity
  8
0
 62
7
100
AcDbSpline
 70
8
 71
3
 72
8
 73
4
 74
0
 40
0
 40
0
 40
0
 40
0
 40
1
 40
1
 40
1
 40
1
 10
122.721260
 20
184.768750
 30
0.0
 10
122.729260
 20
184.800550
 30
0.0
 10
122.733160
 20
184.832250
 30
0.0
 10
122.733160
 20
184.864050
 30
0.0
  0
SPLINE
  5
1e8
100
AcDbEntity
  8
0
 62
7
100
AcDbSpline
 70
8
 71
3
 72
8
 73
4
 74
0
 40
0
 40
0
 40
0
 40
0
 40
1
 40
1
 40
1
 40
1
 10
122.733160
 20
184.864050
 30
0.0
 10
122.749060
 20
184.991050
 30
0.0
 10
122.764960
 20
185.157730
 30
0.0
 10
122.780760
 20
185.364110
 30
0.0
  0
SPLINE
  5
1e9
100
AcDbEntity
  8
0
 62
7
100
AcDbSpline
 70
8
 71
3
 72
8
 73
4
 74
0
 40
0
 40
0
 40
0
 40
0
 40
1
 40
1
 40
1
 40
1
 10
122.780760
 20
185.364110
 30
0.0
 10
122.796660
 20
185.570490
 30
0.0
 10
122.812560
 20
185.808610
 30
0.0
 10
122.828360
 20
186.078480
 30
0.0
  0
SPLINE
  5
1ea
100
AcDbEntity
  8
0
 62
7
100
AcDbSpline
 70
8
 71
3
 72
8
 73
4
 74
0
 40
0
 40
0
 40
0
 40
0
 40
1
 40
1
 40
1
 40
1
 10
122.828360
 20
186.078480
 30
0.0
 10
123.637990
 20
185.919730
 30
0.0
 10
124.411890
 20
185.792740
 30
0.0
 10
125.150080
 20
185.697480
 30
0.0
  0
SPLINE
  5
1eb
100
AcDbEntity
  8
0
 62
7
100
AcDbSpline
 70
8
 71
3
 72
8
 73
4
 74
0
 40
0
 40
0
 40
0
 40
0
 40
1
 40
1
 40
1
 40
1
 10
125.150080
 20
185.697480
 30
0.0
 10
125.888270
 20
185.602280
 30
0.0
 10
126.598670
 20
185.530800
 30
0.0
 10
127.281300
 20
185.483170
 30
0.0
  0
SPLINE
  5
1ec
100
AcDbEntity
  8
0
 62
7
100
AcDbSpline
 70
8
 71
3
 72
8
 73
4
 74
0
 40
0
 40
0
 40
0
 40
0
 40
1
 40
1
 40
1
 40
1
 10
127.281300
 20
185.483170
 30
0.0
 10
127.233700
 20
185.308550
 30
0.0
 10
127.166200
 20
185.090270
 30
0.0
 10
127.078890
 20
184.828330
 30
0.0
  0
SPLINE
  5
1ed
100
AcDbEntity
  8
0
 62
7
100
AcDbSpline
 70
8
 71
3
 72
8
 73
4
 74
0
 40
0
 40
0
 40
0
 40
0
 40
1
 40
1
 40
1
 40
1
 10
127.078890
 20
184.828330
 30
0.0
 10
126.991590
 20
184.566390
 30
0.0
 10
126.884420
 20
184.252860
 30
0.0
 10
126.757420
 20
183.887730
 30
0.0
  0
SPLINE
  5
1ee
100
AcDbEntity
  8
0
 62
7
100
AcDbSpline
 70
8
 71
3
 72
8
 73
4
 74
0
 40
0
 40
0
 40
0
 40
0
 40
1
 40
1
 40
1
 40
1
 10
126.757420
 20
183.887730
 30
0.0
 10
126.535170
 20
183.903630
 30
0.0
 10
126.249430
 20
183.951230
 30
0.0
 10
125.900170
 20
184.030610
 30
0.0
  0
SPLINE
  5
1ef
100
AcDbEntity
  8
0
 62
7
100
AcDbSpline
 70
8
 71
3
 72
8
 73
4
 74
0
 40
0
 40
0
 40
0
 40
0
 40
1
 40
1
 40
1
 40
1
 10
125.900170
 20
184.030610
 30
0.0
 10
125.344550
 20
183.459110
 30
0.0
 10
124.777020
 20
182.851890
 30
0.0
 10
124.197580
 20
182.208950
 30
0.0
  0
SPLINE
  5
1f0
100
AcDbEntity
  8
0
 62
7
100
AcDbSpline
 70
8
 71
3
 72
8
 73
4
 74
0
 40
0
 40
0
 40
0
 40
0
 40
1
 40
1
 40
1
 40
1
 10
124.197580
 20
182.208950
 30
0.0
 10
123.618140
 20
181.566010
 30
0.0
 10
123.010930
 20
180.887360
 30
0.0
 10
122.375920
 20
180.172980
 30
0.0
  0
SPLINE
  5
1f1
100
AcDbEntity
  8
0
 62
7
100
AcDbSpline
 70
8
 71
3
 72
8
 73
4
 74
0
 40
0
 40
0
 40
0
 40
0
 40
1
 40
1
 40
1
 40
1
 10
122.375920
 20
180.172980
 30
0.0
 10
122.979180
 20
178.966480
 30
0.0
 10
123.578450
 20
177.807620
 30
0.0
 10
124.173770
 20
176.696360
 30
0.0
  0
SPLINE
  5
1f2
100
AcDbEntity
  8
0
 62
7
100
AcDbSpline
 70
8
 71
3
 72
8
 73
4
 74
0
 40
0
 40
0
 40
0
 40
0
 40
1
 40
1
 40
1
 40
1
 10
124.173770
 20
176.696360
 30
0.0
 10
124.769080
 20
175.585100
 30
0.0
 10
125.360420
 20
174.513550
 30
0.0
 10
125.947800
 20
173.481670
 30
0.0
  0
LWPOLYLINE
  5
1f3
100
AcDbEntity
  8
0
 62
7
100
AcDbPolyline
 90
3
 70
0
 10
124.090500
 20
184.268680
 30
0.0
 10
122.685560
 20
184.625870
 30
0.0
 10
122.721260
 20
184.768750
 30
0.0
  0
SPLINE
  5
1f4
100
AcDbEntity
  8
0
 62
7
100
AcDbSpline
 70
8
 71
3
 72
8
 73
4
 74
0
 40
0
 40
0
 40
0
 40
0
 40
1
 40
1
 40
1
 40
1
 10
127.614670
 20
173.957920
 30
0.0
 10
127.630570
 20
173.783300
 30
0.0
 10
127.642470
 20
173.584860
 30
0.0
 10
127.650370
 20
173.362610
 30
0.0
  0
SPLINE
  5
1f5
100
AcDbEntity
  8
0
 62
7
100
AcDbSpline
 70
8
 71
3
 72
8
 73
4
 74
0
 40
0
 40
0
 40
0
 40
0
 40
1
 40
1
 40
1
 40
1
 10
127.650370
 20
173.362610
 30
0.0
 10
127.658370
 20
173.140360
 30
0.0
 10
127.662270
 20
172.894300
 30
0.0
 10
127.662270
 20
172.624420
 30
0.0
  0
LWPOLYLINE
  5
1f6
100
AcDbEntity
  8
0
 62
7
100
AcDbPolyline
 90
2
 70
0
 10
125.947800
 20
173.481670
 30
0.0
 10
127.614670
 20
173.957920
 30
0.0
  0
SPLINE
  5
1f7
100
AcDbEntity
  8
0
 62
7
100
AcDbSpline
 70
8
 71
3
 72
8
 73
4
 74
0
 40
0
 40
0
 40
0
 40
0
 40
1
 40
1
 40
1
 40
1
 10
126.638280
 20
181.387370
 30
0.0
 10
126.336650
 20
181.117500
 30
0.0
 10
126.039000
 20
180.851590
 30
0.0
 10
125.745310
 20
180.589650
 30
0.0
  0
SPLINE
  5
1f8
100
AcDbEntity
  8
0
 62
7
100
AcDbSpline
 70
8
 71
3
 72
8
 73
4
 74
0
 40
0
 40
0
 40
0
 40
0
 40
1
 40
1
 40
1
 40
1
 10
125.745310
 20
180.589650
 30
0.0
 10
125.451620
 20
180.327710
 30
0.0
 10
125.161900
 20
180.061810
 30
0.0
 10
124.876150
 20
179.791930
 30
0.0
  0
LWPOLYLINE
  5
1f9
100
AcDbEntity
  8
0
 62
7
100
AcDbPolyline
 90
1
 70
1
 10
127.662270
 20
172.624420
 30
0.0
  0
SPLINE
  5
1fa
100
AcDbEntity
  8
0
 62
7
100
AcDbSpline
 70
8
 71
3
 72
8
 73
4
 74
0
 40
0
 40
0
 40
0
 40
0
 40
1
 40
1
 40
1
 40
1
 10
124.709460
 20
179.982430
 30
0.0
 10
124.979340
 20
180.236440
 30
0.0
 10
125.265090
 20
180.498370
 30
0.0
 10
125.566710
 20
180.768250
 30
0.0
  0
SPLINE
  5
1fb
100
AcDbEntity
  8
0
 62
7
100
AcDbSpline
 70
8
 71
3
 72
8
 73
4
 74
0
 40
0
 40
0
 40
0
 40
0
 40
1
 40
1
 40
1
 40
1
 10
125.566710
 20
180.768250
 30
0.0
 10
125.868340
 20
181.038120
 30
0.0
 10
126.177900
 20
181.308000
 30
0.0
 10
126.495400
 20
181.577870
 30
0.0
  0
LWPOLYLINE
  5
1fc
100
AcDbEntity
  8
0
 62
7
100
AcDbPolyline
 90
2
 70
0
 10
124.876150
 20
179.791930
 30
0.0
 10
124.709460
 20
179.982430
 30
0.0
  0
SPLINE
  5
1fd
100
AcDbEntity
  8
0
 62
7
100
AcDbSpline
 70
8
 71
3
 72
8
 73
4
 74
0
 40
0
 40
0
 40
0
 40
0
 40
1
 40
1
 40
1
 40
1
 10
126.352530
 20
182.482750
 30
0.0
 10
125.971520
 20
182.054120
 30
0.0
 10
125.590530
 20
181.645340
 30
0.0
 10
125.209530
 20
181.256400
 30
0.0
  0
SPLINE
  5
1fe
100
AcDbEntity
  8
0
 62
7
100
AcDbSpline
 70
8
 71
3
 72
8
 73
4
 74
0
 40
0
 40
0
 40
0
 40
0
 40
1
 40
1
 40
1
 40
1
 10
125.209530
 20
181.256400
 30
0.0
 10
124.828520
 20
180.867460
 30
0.0
 10
124.447530
 20
180.490440
 30
0.0
 10
124.066530
 20
180.125310
 30
0.0
  0
LWPOLYLINE
  5
1ff
100
AcDbEntity
  8
0
 62
7
100
AcDbPolyline
 90
2
 70
0
 10
126.495400
 20
181.577870
 30
0.0
 10
126.638280
 20
181.387370
 30
0.0
  0
SPLINE
  5
200
100
AcDbEntity
  8
0
 62
7
100
AcDbSpline
 70
8
 71
3
 72
8
 73
4
 74
0
 40
0
 40
0
 40
0
 40
0
 40
1
 40
1
 40
1
 40
1
 10
123.804590
 20
180.434870
 30
0.0
 10
124.185590
 20
180.800000
 30
0.0
 10
124.562620
 20
181.173060
 30
0.0
 10
124.935680
 20
181.554060
 30
0.0
  0
SPLINE
  5
201
100
AcDbEntity
  8
0
 62
7
100
AcDbSpline
 70
8
 71
3
 72
8
 73
4
 74
0
 40
0
 40
0
 40
0
 40
0
 40
1
 40
1
 40
1
 40
1
 10
124.935680
 20
181.554060
 30
0.0
 10
125.308750
 20
181.935060
 30
0.0
 10
125.677840
 20
182.331930
 30
0.0
 10
126.042960
 20
182.744680
 30
0.0
  0
LWPOLYLINE
  5
202
100
AcDbEntity
  8
0
 62
7
100
AcDbPolyline
 90
2
 70
0
 10
124.066530
 20
180.125310
 30
0.0
 10
123.804590
 20
180.434870
 30
0.0
  0
SPLINE
  5
203
100
AcDbEntity
  8
0
 62
7
100
AcDbSpline
 70
8
 71
3
 72
8
 73
4
 74
0
 40
0
 40
0
 40
0
 40
0
 40
1
 40
1
 40
1
 40
1
 10
133.686780
 20
178.363190
 30
0.0
 10
133.686780
 20
178.775940
 30
0.0
 10
133.678780
 20
179.172810
 30
0.0
 10
133.662980
 20
179.553810
 30
0.0
  0
SPLINE
  5
204
100
AcDbEntity
  8
0
 62
7
100
AcDbSpline
 70
8
 71
3
 72
8
 73
4
 74
0
 40
0
 40
0
 40
0
 40
0
 40
1
 40
1
 40
1
 40
1
 10
133.662980
 20
179.553810
 30
0.0
 10
133.647080
 20
179.934810
 30
0.0
 10
133.623280
 20
180.307870
 30
0.0
 10
133.591580
 20
180.673000
 30
0.0
  0
SPLINE
  5
205
100
AcDbEntity
  8
0
 62
7
100
AcDbSpline
 70
8
 71
3
 72
8
 73
4
 74
0
 40
0
 40
0
 40
0
 40
0
 40
1
 40
1
 40
1
 40
1
 10
133.591580
 20
180.673000
 30
0.0
 10
133.321700
 20
180.720600
 30
0.0
 10
133.031990
 20
180.764300
 30
0.0
 10
132.722420
 20
180.803970
 30
0.0
  0
SPLINE
  5
206
100
AcDbEntity
  8
0
 62
7
100
AcDbSpline
 70
8
 71
3
 72
8
 73
4
 74
0
 40
0
 40
0
 40
0
 40
0
 40
1
 40
1
 40
1
 40
1
 10
132.722420
 20
180.803970
 30
0.0
 10
132.412860
 20
180.843670
 30
0.0
 10
132.075520
 20
180.879370
 30
0.0
 10
131.710390
 20
180.911120
 30
0.0
  0
SPLINE
  5
207
100
AcDbEntity
  8
0
 62
7
100
AcDbSpline
 70
8
 71
3
 72
8
 73
4
 74
0
 40
0
 40
0
 40
0
 40
0
 40
1
 40
1
 40
1
 40
1
 10
131.710390
 20
180.911120
 30
0.0
 10
131.440510
 20
180.514250
 30
0.0
 10
131.182550
 20
180.081660
 30
0.0
 10
130.936480
 20
179.613340
 30
0.0
  0
SPLINE
  5
208
100
AcDbEntity
  8
0
 62
7
100
AcDbSpline
 70
8
 71
3
 72
8
 73
4
 74
0
 40
0
 40
0
 40
0
 40
0
 40
1
 40
1
 40
1
 40
1
 10
130.936480
 20
179.613340
 30
0.0
 10
130.690420
 20
179.145030
 30
0.0
 10
130.400700
 20
178.656880
 30
0.0
 10
130.067330
 20
178.148870
 30
0.0
  0
SPLINE
  5
209
100
AcDbEntity
  8
0
 62
7
100
AcDbSpline
 70
8
 71
3
 72
8
 73
4
 74
0
 40
0
 40
0
 40
0
 40
0
 40
1
 40
1
 40
1
 40
1
 10
130.067330
 20
178.148870
 30
0.0
 10
130.876950
 20
178.196470
 30
0.0
 10
131.579420
 20
178.236170
 30
0.0
 10
132.174730
 20
178.267940
 30
0.0
  0
SPLINE
  5
20a
100
AcDbEntity
  8
0
 62
7
100
AcDbSpline
 70
8
 71
3
 72
8
 73
4
 74
0
 40
0
 40
0
 40
0
 40
0
 40
1
 40
1
 40
1
 40
1
 10
132.174730
 20
178.267940
 30
0.0
 10
132.770050
 20
178.299740
 30
0.0
 10
133.274070
 20
178.331440
 30
0.0
 10
133.686830
 20
178.363240
 30
0.0
  0
LWPOLYLINE
  5
20b
100
AcDbEntity
  8
0
 62
7
100
AcDbPolyline
 90
2
 70
0
 10
126.042960
 20
182.744680
 30
0.0
 10
126.352530
 20
182.482750
 30
0.0
  0
SPLINE
  5
20c
100
AcDbEntity
  8
0
 62
7
100
AcDbSpline
 70
8
 71
3
 72
8
 73
4
 74
0
 40
0
 40
0
 40
0
 40
0
 40
1
 40
1
 40
1
 40
1
 10
135.210780
 20
170.790810
 30
0.0
 10
135.052030
 20
170.695610
 30
0.0
 10
134.869460
 20
170.612220
 30
0.0
 10
134.663090
 20
170.540780
 30
0.0
  0
SPLINE
  5
20d
100
AcDbEntity
  8
0
 62
7
100
AcDbSpline
 70
8
 71
3
 72
8
 73
4
 74
0
 40
0
 40
0
 40
0
 40
0
 40
1
 40
1
 40
1
 40
1
 10
134.663090
 20
170.540780
 30
0.0
 10
134.456710
 20
170.469380
 30
0.0
 10
134.234460
 20
170.386000
 30
0.0
 10
133.996340
 20
170.290750
 30
0.0
  0
LWPOLYLINE
  5
20e
100
AcDbEntity
  8
0
 62
7
100
AcDbPolyline
 90
1
 70
1
 10
133.686830
 20
178.363240
 30
0.0
  0
SPLINE
  5
20f
100
AcDbEntity
  8
0
 62
7
100
AcDbSpline
 70
8
 71
3
 72
8
 73
4
 74
0
 40
0
 40
0
 40
0
 40
0
 40
1
 40
1
 40
1
 40
1
 10
133.877280
 20
170.505060
 30
0.0
 10
134.067780
 20
170.600260
 30
0.0
 10
134.266210
 20
170.675720
 30
0.0
 10
134.472590
 20
170.731280
 30
0.0
  0
SPLINE
  5
210
100
AcDbEntity
  8
0
 62
7
100
AcDbSpline
 70
8
 71
3
 72
8
 73
4
 74
0
 40
0
 40
0
 40
0
 40
0
 40
1
 40
1
 40
1
 40
1
 10
134.472590
 20
170.731280
 30
0.0
 10
134.678960
 20
170.786880
 30
0.0
 10
134.885340
 20
170.878120
 30
0.0
 10
135.091710
 20
171.005120
 30
0.0
  0
LWPOLYLINE
  5
211
100
AcDbEntity
  8
0
 62
7
100
AcDbPolyline
 90
2
 70
0
 10
133.996340
 20
170.290750
 30
0.0
 10
133.877280
 20
170.505060
 30
0.0
  0
SPLINE
  5
212
100
AcDbEntity
  8
0
 62
7
100
AcDbSpline
 70
8
 71
3
 72
8
 73
4
 74
0
 40
0
 40
0
 40
0
 40
0
 40
1
 40
1
 40
1
 40
1
 10
135.520340
 20
172.052870
 30
0.0
 10
135.250460
 20
171.878250
 30
0.0
 10
134.893280
 20
171.695690
 30
0.0
 10
134.448780
 20
171.505190
 30
0.0
  0
SPLINE
  5
213
100
AcDbEntity
  8
0
 62
7
100
AcDbSpline
 70
8
 71
3
 72
8
 73
4
 74
0
 40
0
 40
0
 40
0
 40
0
 40
1
 40
1
 40
1
 40
1
 10
134.448780
 20
171.505190
 30
0.0
 10
134.004270
 20
171.314680
 30
0.0
 10
133.496280
 20
171.060690
 30
0.0
 10
132.924780
 20
170.743190
 30
0.0
  0
LWPOLYLINE
  5
214
100
AcDbEntity
  8
0
 62
7
100
AcDbPolyline
 90
2
 70
0
 10
135.091710
 20
171.005120
 30
0.0
 10
135.210780
 20
170.790810
 30
0.0
  0
SPLINE
  5
215
100
AcDbEntity
  8
0
 62
7
100
AcDbSpline
 70
8
 71
3
 72
8
 73
4
 74
0
 40
0
 40
0
 40
0
 40
0
 40
1
 40
1
 40
1
 40
1
 10
132.710460
 20
171.100370
 30
0.0
 10
133.313720
 20
171.402000
 30
0.0
 10
133.833620
 20
171.663930
 30
0.0
 10
134.270180
 20
171.886190
 30
0.0
  0
SPLINE
  5
216
100
AcDbEntity
  8
0
 62
7
100
AcDbSpline
 70
8
 71
3
 72
8
 73
4
 74
0
 40
0
 40
0
 40
0
 40
0
 40
1
 40
1
 40
1
 40
1
 10
134.270180
 20
171.886190
 30
0.0
 10
134.706750
 20
172.108440
 30
0.0
 10
135.059960
 20
172.283060
 30
0.0
 10
135.329840
 20
172.410060
 30
0.0
  0
LWPOLYLINE
  5
217
100
AcDbEntity
  8
0
 62
7
100
AcDbPolyline
 90
2
 70
0
 10
132.924780
 20
170.743190
 30
0.0
 10
132.710460
 20
171.100370
 30
0.0
  0
SPLINE
  5
218
100
AcDbEntity
  8
0
 62
7
100
AcDbSpline
 70
8
 71
3
 72
8
 73
4
 74
0
 40
0
 40
0
 40
0
 40
0
 40
1
 40
1
 40
1
 40
1
 10
135.544140
 20
176.982060
 30
0.0
 10
134.163010
 20
176.950260
 30
0.0
 10
133.027960
 20
176.910660
 30
0.0
 10
132.138950
 20
176.863000
 30
0.0
  0
SPLINE
  5
219
100
AcDbEntity
  8
0
 62
7
100
AcDbSpline
 70
8
 71
3
 72
8
 73
4
 74
0
 40
0
 40
0
 40
0
 40
0
 40
1
 40
1
 40
1
 40
1
 10
132.138950
 20
176.863000
 30
0.0
 10
131.249950
 20
176.815400
 30
0.0
 10
130.599080
 20
176.751870
 30
0.0
 10
130.186330
 20
176.672500
 30
0.0
  0
SPLINE
  5
21a
100
AcDbEntity
  8
0
 62
7
100
AcDbSpline
 70
8
 71
3
 72
8
 73
4
 74
0
 40
0
 40
0
 40
0
 40
0
 40
1
 40
1
 40
1
 40
1
 10
130.186330
 20
176.672500
 30
0.0
 10
130.265730
 20
176.291500
 30
0.0
 10
130.341110
 20
175.930340
 30
0.0
 10
130.412540
 20
175.589030
 30
0.0
  0
SPLINE
  5
21b
100
AcDbEntity
  8
0
 62
7
100
AcDbSpline
 70
8
 71
3
 72
8
 73
4
 74
0
 40
0
 40
0
 40
0
 40
0
 40
1
 40
1
 40
1
 40
1
 10
130.412540
 20
175.589030
 30
0.0
 10
130.483940
 20
175.247710
 30
0.0
 10
130.567330
 20
174.918310
 30
0.0
 10
130.662580
 20
174.600810
 30
0.0
  0
SPLINE
  5
21c
100
AcDbEntity
  8
0
 62
7
100
AcDbSpline
 70
8
 71
3
 72
8
 73
4
 74
0
 40
0
 40
0
 40
0
 40
0
 40
1
 40
1
 40
1
 40
1
 10
130.662580
 20
174.600810
 30
0.0
 10
130.964200
 20
174.346810
 30
0.0
 10
131.238040
 20
174.120590
 30
0.0
 10
131.484110
 20
173.922150
 30
0.0
  0
SPLINE
  5
21d
100
AcDbEntity
  8
0
 62
7
100
AcDbSpline
 70
8
 71
3
 72
8
 73
4
 74
0
 40
0
 40
0
 40
0
 40
0
 40
1
 40
1
 40
1
 40
1
 10
131.484110
 20
173.922150
 30
0.0
 10
131.730170
 20
173.723720
 30
0.0
 10
131.956390
 20
173.561000
 30
0.0
 10
132.162760
 20
173.434000
 30
0.0
  0
SPLINE
  5
21e
100
AcDbEntity
  8
0
 62
7
100
AcDbSpline
 70
8
 71
3
 72
8
 73
4
 74
0
 40
0
 40
0
 40
0
 40
0
 40
1
 40
1
 40
1
 40
1
 10
132.162760
 20
173.434000
 30
0.0
 10
132.766020
 20
173.703870
 30
0.0
 10
133.317670
 20
173.953900
 30
0.0
 10
133.817730
 20
174.184090
 30
0.0
  0
SPLINE
  5
21f
100
AcDbEntity
  8
0
 62
7
100
AcDbSpline
 70
8
 71
3
 72
8
 73
4
 74
0
 40
0
 40
0
 40
0
 40
0
 40
1
 40
1
 40
1
 40
1
 10
133.817730
 20
174.184090
 30
0.0
 10
134.317800
 20
174.414280
 30
0.0
 10
134.750390
 20
174.624620
 30
0.0
 10
135.115510
 20
174.815120
 30
0.0
  0
SPLINE
  5
220
100
AcDbEntity
  8
0
 62
7
100
AcDbSpline
 70
8
 71
3
 72
8
 73
4
 74
0
 40
0
 40
0
 40
0
 40
0
 40
1
 40
1
 40
1
 40
1
 10
135.115510
 20
174.815120
 30
0.0
 10
135.147210
 20
174.545250
 30
0.0
 10
135.171110
 20
174.283310
 30
0.0
 10
135.186910
 20
174.029310
 30
0.0
  0
SPLINE
  5
221
100
AcDbEntity
  8
0
 62
7
100
AcDbSpline
 70
8
 71
3
 72
8
 73
4
 74
0
 40
0
 40
0
 40
0
 40
0
 40
1
 40
1
 40
1
 40
1
 10
135.186910
 20
174.029310
 30
0.0
 10
135.202810
 20
173.775310
 30
0.0
 10
135.218610
 20
173.529250
 30
0.0
 10
135.234510
 20
173.291120
 30
0.0
  0
SPLINE
  5
222
100
AcDbEntity
  8
0
 62
7
100
AcDbSpline
 70
8
 71
3
 72
8
 73
4
 74
0
 40
0
 40
0
 40
0
 40
0
 40
1
 40
1
 40
1
 40
1
 10
135.234510
 20
173.291120
 30
0.0
 10
133.869260
 20
172.576740
 30
0.0
 10
132.821520
 20
172.052870
 30
0.0
 10
132.091260
 20
171.719500
 30
0.0
  0
SPLINE
  5
223
100
AcDbEntity
  8
0
 62
7
100
AcDbSpline
 70
8
 71
3
 72
8
 73
4
 74
0
 40
0
 40
0
 40
0
 40
0
 40
1
 40
1
 40
1
 40
1
 10
132.091260
 20
171.719500
 30
0.0
 10
131.694390
 20
171.957620
 30
0.0
 10
131.253860
 20
172.231460
 30
0.0
 10
130.769670
 20
172.541030
 30
0.0
  0
SPLINE
  5
224
100
AcDbEntity
  8
0
 62
7
100
AcDbSpline
 70
8
 71
3
 72
8
 73
4
 74
0
 40
0
 40
0
 40
0
 40
0
 40
1
 40
1
 40
1
 40
1
 10
130.769670
 20
172.541030
 30
0.0
 10
130.285480
 20
172.850590
 30
0.0
 10
129.749700
 20
173.187930
 30
0.0
 10
129.162330
 20
173.553060
 30
0.0
  0
SPLINE
  5
225
100
AcDbEntity
  8
0
 62
7
100
AcDbSpline
 70
8
 71
3
 72
8
 73
4
 74
0
 40
0
 40
0
 40
0
 40
0
 40
1
 40
1
 40
1
 40
1
 10
129.162330
 20
173.553060
 30
0.0
 10
128.828950
 20
174.886570
 30
0.0
 10
128.471770
 20
176.386740
 30
0.0
 10
128.090760
 20
178.053620
 30
0.0
  0
SPLINE
  5
226
100
AcDbEntity
  8
0
 62
7
100
AcDbSpline
 70
8
 71
3
 72
8
 73
4
 74
0
 40
0
 40
0
 40
0
 40
0
 40
1
 40
1
 40
1
 40
1
 10
128.090760
 20
178.053620
 30
0.0
 10
128.186060
 20
178.307620
 30
0.0
 10
128.932130
 20
179.418860
 30
0.0
 10
130.329140
 20
181.387370
 30
0.0
  0
LWPOLYLINE
  5
227
100
AcDbEntity
  8
0
 62
7
100
AcDbPolyline
 90
2
 70
0
 10
135.329840
 20
172.410060
 30
0.0
 10
135.520340
 20
172.052870
 30
0.0
  0
SPLINE
  5
228
100
AcDbEntity
  8
0
 62
7
100
AcDbSpline
 70
8
 71
3
 72
8
 73
4
 74
0
 40
0
 40
0
 40
0
 40
0
 40
1
 40
1
 40
1
 40
1
 10
132.091260
 20
182.482750
 30
0.0
 10
133.170760
 20
182.260500
 30
0.0
 10
134.115320
 20
182.046190
 30
0.0
 10
134.924950
 20
181.839810
 30
0.0
  0
SPLINE
  5
229
100
AcDbEntity
  8
0
 62
7
100
AcDbSpline
 70
8
 71
3
 72
8
 73
4
 74
0
 40
0
 40
0
 40
0
 40
0
 40
1
 40
1
 40
1
 40
1
 10
134.924950
 20
181.839810
 30
0.0
 10
135.051950
 20
180.823800
 30
0.0
 10
135.167040
 20
179.911000
 30
0.0
 10
135.270230
 20
179.101370
 30
0.0
  0
SPLINE
  5
22a
100
AcDbEntity
  8
0
 62
7
100
AcDbSpline
 70
8
 71
3
 72
8
 73
4
 74
0
 40
0
 40
0
 40
0
 40
0
 40
1
 40
1
 40
1
 40
1
 10
135.270230
 20
179.101370
 30
0.0
 10
135.373420
 20
178.291740
 30
0.0
 10
135.464700
 20
177.585310
 30
0.0
 10
135.544070
 20
176.982060
 30
0.0
  0
LWPOLYLINE
  5
22b
100
AcDbEntity
  8
0
 62
7
100
AcDbPolyline
 90
2
 70
0
 10
130.329140
 20
181.387370
 30
0.0
 10
132.091260
 20
182.482750
 30
0.0
  0
LWPOLYLINE
  5
22c
100
AcDbEntity
  8
0
 62
7
100
AcDbPolyline
 90
1
 70
1
 10
135.544070
 20
176.982060
 30
0.0
  0
SPLINE
  5
22d
100
AcDbEntity
  8
0
 62
7
100
AcDbSpline
 70
8
 71
3
 72
8
 73
4
 74
0
 40
0
 40
0
 40
0
 40
0
 40
1
 40
1
 40
1
 40
1
 10
136.687140
 20
175.743760
 30
0.0
 10
136.782340
 20
175.505630
 30
0.0
 10
136.893510
 20
175.239730
 30
0.0
 10
137.020510
 20
174.946040
 30
0.0
  0
SPLINE
  5
22e
100
AcDbEntity
  8
0
 62
7
100
AcDbSpline
 70
8
 71
3
 72
8
 73
4
 74
0
 40
0
 40
0
 40
0
 40
0
 40
1
 40
1
 40
1
 40
1
 10
137.020510
 20
174.946040
 30
0.0
 10
137.147510
 20
174.652350
 30
0.0
 10
137.290390
 20
174.322950
 30
0.0
 10
137.449140
 20
173.957820
 30
0.0
  0
LWPOLYLINE
  5
22f
100
AcDbEntity
  8
0
 62
7
100
AcDbPolyline
 90
4
 70
0
 10
137.592010
 20
173.076810
 30
0.0
 10
136.758580
 20
174.910370
 30
0.0
 10
136.449010
 20
175.648560
 30
0.0
 10
136.687140
 20
175.743760
 30
0.0
  0
SPLINE
  5
230
100
AcDbEntity
  8
0
 62
7
100
AcDbSpline
 70
8
 71
3
 72
8
 73
4
 74
0
 40
0
 40
0
 40
0
 40
0
 40
1
 40
1
 40
1
 40
1
 10
138.687390
 20
173.029210
 30
0.0
 10
138.560390
 20
173.299090
 30
0.0
 10
138.381790
 20
173.723740
 30
0.0
 10
138.151610
 20
174.303180
 30
0.0
  0
SPLINE
  5
231
100
AcDbEntity
  8
0
 62
7
100
AcDbSpline
 70
8
 71
3
 72
8
 73
4
 74
0
 40
0
 40
0
 40
0
 40
0
 40
1
 40
1
 40
1
 40
1
 10
138.151610
 20
174.303180
 30
0.0
 10
137.921420
 20
174.882620
 30
0.0
 10
137.623770
 20
175.624770
 30
0.0
 10
137.258640
 20
176.529650
 30
0.0
  0
LWPOLYLINE
  5
232
100
AcDbEntity
  8
0
 62
7
100
AcDbPolyline
 90
3
 70
0
 10
137.449140
 20
173.957820
 30
0.0
 10
137.806330
 20
173.172010
 30
0.0
 10
137.592010
 20
173.076810
 30
0.0
  0
SPLINE
  5
233
100
AcDbEntity
  8
0
 62
7
100
AcDbSpline
 70
8
 71
3
 72
8
 73
4
 74
0
 40
0
 40
0
 40
0
 40
0
 40
1
 40
1
 40
1
 40
1
 10
137.639640
 20
176.696330
 30
0.0
 10
138.004770
 20
175.791460
 30
0.0
 10
138.302420
 20
175.049310
 30
0.0
 10
138.532610
 20
174.469870
 30
0.0
  0
SPLINE
  5
234
100
AcDbEntity
  8
0
 62
7
100
AcDbSpline
 70
8
 71
3
 72
8
 73
4
 74
0
 40
0
 40
0
 40
0
 40
0
 40
1
 40
1
 40
1
 40
1
 10
138.532610
 20
174.469870
 30
0.0
 10
138.762790
 20
173.890430
 30
0.0
 10
138.941390
 20
173.465770
 30
0.0
 10
139.068390
 20
173.195900
 30
0.0
  0
LWPOLYLINE
  5
235
100
AcDbEntity
  8
0
 62
7
100
AcDbPolyline
 90
2
 70
0
 10
137.258640
 20
176.529650
 30
0.0
 10
137.639640
 20
176.696330
 30
0.0
  0
SPLINE
  5
236
100
AcDbEntity
  8
0
 62
7
100
AcDbSpline
 70
8
 71
3
 72
8
 73
4
 74
0
 40
0
 40
0
 40
0
 40
0
 40
1
 40
1
 40
1
 40
1
 10
145.069140
 20
180.673030
 30
0.0
 10
145.053240
 20
180.069770
 30
0.0
 10
145.029440
 20
179.553840
 30
0.0
 10
144.997740
 20
179.125210
 30
0.0
  0
SPLINE
  5
237
100
AcDbEntity
  8
0
 62
7
100
AcDbSpline
 70
8
 71
3
 72
8
 73
4
 74
0
 40
0
 40
0
 40
0
 40
0
 40
1
 40
1
 40
1
 40
1
 10
144.997740
 20
179.125210
 30
0.0
 10
144.854870
 20
179.077610
 30
0.0
 10
144.711990
 20
179.033910
 30
0.0
 10
144.569120
 20
178.994250
 30
0.0
  0
SPLINE
  5
238
100
AcDbEntity
  8
0
 62
7
100
AcDbSpline
 70
8
 71
3
 72
8
 73
4
 74
0
 40
0
 40
0
 40
0
 40
0
 40
1
 40
1
 40
1
 40
1
 10
144.569120
 20
178.994250
 30
0.0
 10
144.426240
 20
178.954550
 30
0.0
 10
144.275430
 20
178.918850
 30
0.0
 10
144.116680
 20
178.887090
 30
0.0
  0
SPLINE
  5
239
100
AcDbEntity
  8
0
 62
7
100
AcDbSpline
 70
8
 71
3
 72
8
 73
4
 74
0
 40
0
 40
0
 40
0
 40
0
 40
1
 40
1
 40
1
 40
1
 10
144.116680
 20
178.887090
 30
0.0
 10
143.418180
 20
176.426450
 30
0.0
 10
142.799060
 20
174.271440
 30
0.0
 10
142.259300
 20
172.422000
 30
0.0
  0
SPLINE
  5
23a
100
AcDbEntity
  8
0
 62
7
100
AcDbSpline
 70
8
 71
3
 72
8
 73
4
 74
0
 40
0
 40
0
 40
0
 40
0
 40
1
 40
1
 40
1
 40
1
 10
142.259300
 20
172.422000
 30
0.0
 10
141.719550
 20
170.572550
 30
0.0
 10
141.243310
 20
169.004910
 30
0.0
 10
140.830550
 20
167.719030
 30
0.0
  0
SPLINE
  5
23b
100
AcDbEntity
  8
0
 62
7
100
AcDbSpline
 70
8
 71
3
 72
8
 73
4
 74
0
 40
0
 40
0
 40
0
 40
0
 40
1
 40
1
 40
1
 40
1
 10
140.830550
 20
167.719030
 30
0.0
 10
139.544670
 20
167.115770
 30
0.0
 10
138.441370
 20
166.687150
 30
0.0
 10
137.520620
 20
166.433150
 30
0.0
  0
SPLINE
  5
23c
100
AcDbEntity
  8
0
 62
7
100
AcDbSpline
 70
8
 71
3
 72
8
 73
4
 74
0
 40
0
 40
0
 40
0
 40
0
 40
1
 40
1
 40
1
 40
1
 10
137.520620
 20
166.433150
 30
0.0
 10
136.822110
 20
167.480910
 30
0.0
 10
136.282370
 20
168.377840
 30
0.0
 10
135.901370
 20
169.123970
 30
0.0
  0
SPLINE
  5
23d
100
AcDbEntity
  8
0
 62
7
100
AcDbSpline
 70
8
 71
3
 72
8
 73
4
 74
0
 40
0
 40
0
 40
0
 40
0
 40
1
 40
1
 40
1
 40
1
 10
135.901370
 20
169.123970
 30
0.0
 10
136.361740
 20
169.250970
 30
0.0
 10
136.738770
 20
169.342250
 30
0.0
 10
137.032460
 20
169.397810
 30
0.0
  0
SPLINE
  5
23e
100
AcDbEntity
  8
0
 62
7
100
AcDbSpline
 70
8
 71
3
 72
8
 73
4
 74
0
 40
0
 40
0
 40
0
 40
0
 40
1
 40
1
 40
1
 40
1
 10
137.032460
 20
169.397810
 30
0.0
 10
137.326150
 20
169.453410
 30
0.0
 10
137.536490
 20
169.497010
 30
0.0
 10
137.663490
 20
169.528780
 30
0.0
  0
SPLINE
  5
23f
100
AcDbEntity
  8
0
 62
7
100
AcDbSpline
 70
8
 71
3
 72
8
 73
4
 74
0
 40
0
 40
0
 40
0
 40
0
 40
1
 40
1
 40
1
 40
1
 10
137.663490
 20
169.528780
 30
0.0
 10
137.726990
 20
169.370030
 30
0.0
 10
137.810340
 20
169.179530
 30
0.0
 10
137.913520
 20
168.957280
 30
0.0
  0
SPLINE
  5
240
100
AcDbEntity
  8
0
 62
7
100
AcDbSpline
 70
8
 71
3
 72
8
 73
4
 74
0
 40
0
 40
0
 40
0
 40
0
 40
1
 40
1
 40
1
 40
1
 10
137.913520
 20
168.957280
 30
0.0
 10
138.016710
 20
168.735030
 30
0.0
 10
138.131800
 20
168.481030
 30
0.0
 10
138.258800
 20
168.195280
 30
0.0
  0
SPLINE
  5
241
100
AcDbEntity
  8
0
 62
7
100
AcDbSpline
 70
8
 71
3
 72
8
 73
4
 74
0
 40
0
 40
0
 40
0
 40
0
 40
1
 40
1
 40
1
 40
1
 10
138.258800
 20
168.195280
 30
0.0
 10
138.639810
 20
168.258780
 30
0.0
 10
138.989050
 20
168.385780
 30
0.0
 10
139.306550
 20
168.576280
 30
0.0
  0
SPLINE
  5
242
100
AcDbEntity
  8
0
 62
7
100
AcDbSpline
 70
8
 71
3
 72
8
 73
4
 74
0
 40
0
 40
0
 40
0
 40
0
 40
1
 40
1
 40
1
 40
1
 10
139.306550
 20
168.576280
 30
0.0
 10
139.624060
 20
170.147910
 30
0.0
 10
139.933610
 20
171.449650
 30
0.0
 10
140.235240
 20
172.481530
 30
0.0
  0
SPLINE
  5
243
100
AcDbEntity
  8
0
 62
7
100
AcDbSpline
 70
8
 71
3
 72
8
 73
4
 74
0
 40
0
 40
0
 40
0
 40
0
 40
1
 40
1
 40
1
 40
1
 10
140.235240
 20
172.481530
 30
0.0
 10
140.140040
 20
172.799030
 30
0.0
 10
139.897900
 20
173.434020
 30
0.0
 10
139.508960
 20
174.386530
 30
0.0
  0
SPLINE
  5
244
100
AcDbEntity
  8
0
 62
7
100
AcDbSpline
 70
8
 71
3
 72
8
 73
4
 74
0
 40
0
 40
0
 40
0
 40
0
 40
1
 40
1
 40
1
 40
1
 10
139.508960
 20
174.386530
 30
0.0
 10
139.120020
 20
175.339030
 30
0.0
 10
138.592180
 20
176.616960
 30
0.0
 10
137.925430
 20
178.220340
 30
0.0
  0
SPLINE
  5
245
100
AcDbEntity
  8
0
 62
7
100
AcDbSpline
 70
8
 71
3
 72
8
 73
4
 74
0
 40
0
 40
0
 40
0
 40
0
 40
1
 40
1
 40
1
 40
1
 10
137.925430
 20
178.220340
 30
0.0
 10
137.687300
 20
178.077460
 30
0.0
 10
137.480930
 20
177.950470
 30
0.0
 10
137.306300
 20
177.839340
 30
0.0
  0
SPLINE
  5
246
100
AcDbEntity
  8
0
 62
7
100
AcDbSpline
 70
8
 71
3
 72
8
 73
4
 74
0
 40
0
 40
0
 40
0
 40
0
 40
1
 40
1
 40
1
 40
1
 10
137.306300
 20
177.839340
 30
0.0
 10
137.131680
 20
177.728210
 30
0.0
 10
136.980870
 20
177.632970
 30
0.0
 10
136.853870
 20
177.553590
 30
0.0
  0
SPLINE
  5
247
100
AcDbEntity
  8
0
 62
7
100
AcDbSpline
 70
8
 71
3
 72
8
 73
4
 74
0
 40
0
 40
0
 40
0
 40
0
 40
1
 40
1
 40
1
 40
1
 10
136.853870
 20
177.553590
 30
0.0
 10
136.726870
 20
177.775840
 30
0.0
 10
136.611770
 20
177.974280
 30
0.0
 10
136.508590
 20
178.148900
 30
0.0
  0
SPLINE
  5
248
100
AcDbEntity
  8
0
 62
7
100
AcDbSpline
 70
8
 71
3
 72
8
 73
4
 74
0
 40
0
 40
0
 40
0
 40
0
 40
1
 40
1
 40
1
 40
1
 10
136.508590
 20
178.148900
 30
0.0
 10
136.405400
 20
178.323530
 30
0.0
 10
136.314120
 20
178.490210
 30
0.0
 10
136.234740
 20
178.648970
 30
0.0
  0
SPLINE
  5
249
100
AcDbEntity
  8
0
 62
7
100
AcDbSpline
 70
8
 71
3
 72
8
 73
4
 74
0
 40
0
 40
0
 40
0
 40
0
 40
1
 40
1
 40
1
 40
1
 10
136.234740
 20
178.648970
 30
0.0
 10
136.536370
 20
178.887090
 30
0.0
 10
137.028490
 20
179.248240
 30
0.0
 10
137.711120
 20
179.732430
 30
0.0
  0
SPLINE
  5
24a
100
AcDbEntity
  8
0
 62
7
100
AcDbSpline
 70
8
 71
3
 72
8
 73
4
 74
0
 40
0
 40
0
 40
0
 40
0
 40
1
 40
1
 40
1
 40
1
 10
137.711120
 20
179.732430
 30
0.0
 10
138.393740
 20
180.216620
 30
0.0
 10
139.282740
 20
180.839710
 30
0.0
 10
140.378120
 20
181.601710
 30
0.0
  0
SPLINE
  5
24b
100
AcDbEntity
  8
0
 62
7
100
AcDbSpline
 70
8
 71
3
 72
8
 73
4
 74
0
 40
0
 40
0
 40
0
 40
0
 40
1
 40
1
 40
1
 40
1
 10
140.378120
 20
181.601710
 30
0.0
 10
140.536870
 20
181.030210
 30
0.0
 10
140.632120
 20
180.553970
 30
0.0
 10
140.663870
 20
180.172960
 30
0.0
  0
SPLINE
  5
24c
100
AcDbEntity
  8
0
 62
7
100
AcDbSpline
 70
8
 71
3
 72
8
 73
4
 74
0
 40
0
 40
0
 40
0
 40
0
 40
1
 40
1
 40
1
 40
1
 10
140.663870
 20
180.172960
 30
0.0
 10
140.393990
 20
179.903090
 30
0.0
 10
140.163800
 20
179.696720
 30
0.0
 10
139.973300
 20
179.553840
 30
0.0
  0
SPLINE
  5
24d
100
AcDbEntity
  8
0
 62
7
100
AcDbSpline
 70
8
 71
3
 72
8
 73
4
 74
0
 40
0
 40
0
 40
0
 40
0
 40
1
 40
1
 40
1
 40
1
 10
139.973300
 20
179.553840
 30
0.0
 10
139.782800
 20
179.410960
 30
0.0
 10
139.647870
 20
179.299840
 30
0.0
 10
139.568490
 20
179.220460
 30
0.0
  0
SPLINE
  5
24e
100
AcDbEntity
  8
0
 62
7
100
AcDbSpline
 70
8
 71
3
 72
8
 73
4
 74
0
 40
0
 40
0
 40
0
 40
0
 40
1
 40
1
 40
1
 40
1
 10
139.568490
 20
179.220460
 30
0.0
 10
139.822490
 20
178.426710
 30
0.0
 10
140.084430
 20
177.640910
 30
0.0
 10
140.354300
 20
176.863030
 30
0.0
  0
SPLINE
  5
24f
100
AcDbEntity
  8
0
 62
7
100
AcDbSpline
 70
8
 71
3
 72
8
 73
4
 74
0
 40
0
 40
0
 40
0
 40
0
 40
1
 40
1
 40
1
 40
1
 10
140.354300
 20
176.863030
 30
0.0
 10
140.624180
 20
176.085150
 30
0.0
 10
140.901990
 20
175.299340
 30
0.0
 10
141.187740
 20
174.505590
 30
0.0
  0
SPLINE
  5
250
100
AcDbEntity
  8
0
 62
7
100
AcDbSpline
 70
8
 71
3
 72
8
 73
4
 74
0
 40
0
 40
0
 40
0
 40
0
 40
1
 40
1
 40
1
 40
1
 10
141.187740
 20
174.505590
 30
0.0
 10
141.552870
 20
175.648600
 30
0.0
 10
141.850520
 20
176.565370
 30
0.0
 10
142.080710
 20
177.255930
 30
0.0
  0
SPLINE
  5
251
100
AcDbEntity
  8
0
 62
7
100
AcDbSpline
 70
8
 71
3
 72
8
 73
4
 74
0
 40
0
 40
0
 40
0
 40
0
 40
1
 40
1
 40
1
 40
1
 10
142.080710
 20
177.255930
 30
0.0
 10
142.310900
 20
177.946500
 30
0.0
 10
142.465680
 20
178.426710
 30
0.0
 10
142.545050
 20
178.696590
 30
0.0
  0
SPLINE
  5
252
100
AcDbEntity
  8
0
 62
7
100
AcDbSpline
 70
8
 71
3
 72
8
 73
4
 74
0
 40
0
 40
0
 40
0
 40
0
 40
1
 40
1
 40
1
 40
1
 10
142.545050
 20
178.696590
 30
0.0
 10
142.306930
 20
178.648990
 30
0.0
 10
142.104520
 20
178.613290
 30
0.0
 10
141.937840
 20
178.589430
 30
0.0
  0
SPLINE
  5
253
100
AcDbEntity
  8
0
 62
7
100
AcDbSpline
 70
8
 71
3
 72
8
 73
4
 74
0
 40
0
 40
0
 40
0
 40
0
 40
1
 40
1
 40
1
 40
1
 10
141.937840
 20
178.589430
 30
0.0
 10
141.771150
 20
178.565630
 30
0.0
 10
141.640180
 20
178.537830
 30
0.0
 10
141.544930
 20
178.506130
 30
0.0
  0
SPLINE
  5
254
100
AcDbEntity
  8
0
 62
7
100
AcDbSpline
 70
8
 71
3
 72
8
 73
4
 74
0
 40
0
 40
0
 40
0
 40
0
 40
1
 40
1
 40
1
 40
1
 10
141.544930
 20
178.506130
 30
0.0
 10
141.465530
 20
178.871260
 30
0.0
 10
141.409990
 20
179.164940
 30
0.0
 10
141.378240
 20
179.387190
 30
0.0
  0
SPLINE
  5
255
100
AcDbEntity
  8
0
 62
7
100
AcDbSpline
 70
8
 71
3
 72
8
 73
4
 74
0
 40
0
 40
0
 40
0
 40
0
 40
1
 40
1
 40
1
 40
1
 10
141.378240
 20
179.387190
 30
0.0
 10
141.346540
 20
179.609440
 30
0.0
 10
141.322640
 20
179.768190
 30
0.0
 10
141.306840
 20
179.863440
 30
0.0
  0
SPLINE
  5
256
100
AcDbEntity
  8
0
 62
7
100
AcDbSpline
 70
8
 71
3
 72
8
 73
4
 74
0
 40
0
 40
0
 40
0
 40
0
 40
1
 40
1
 40
1
 40
1
 10
141.306840
 20
179.863440
 30
0.0
 10
141.973590
 20
180.006320
 30
0.0
 10
142.620490
 20
180.145220
 30
0.0
 10
143.247560
 20
180.280160
 30
0.0
  0
SPLINE
  5
257
100
AcDbEntity
  8
0
 62
7
100
AcDbSpline
 70
8
 71
3
 72
8
 73
4
 74
0
 40
0
 40
0
 40
0
 40
0
 40
1
 40
1
 40
1
 40
1
 10
143.247560
 20
180.280160
 30
0.0
 10
143.874620
 20
180.415100
 30
0.0
 10
144.481830
 20
180.546070
 30
0.0
 10
145.069210
 20
180.673070
 30
0.0
  0
LWPOLYLINE
  5
258
100
AcDbEntity
  8
0
 62
7
100
AcDbPolyline
 90
2
 70
0
 10
139.068390
 20
173.195900
 30
0.0
 10
138.687390
 20
173.029210
 30
0.0
  0
SPLINE
  5
259
100
AcDbEntity
  8
0
 62
7
100
AcDbSpline
 70
8
 71
3
 72
8
 73
4
 74
0
 40
0
 40
0
 40
0
 40
0
 40
1
 40
1
 40
1
 40
1
 10
144.402390
 20
175.386650
 30
0.0
 10
143.799140
 20
173.497520
 30
0.0
 10
143.350680
 20
171.977500
 30
0.0
 10
143.056990
 20
170.826560
 30
0.0
  0
SPLINE
  5
25a
100
AcDbEntity
  8
0
 62
7
100
AcDbSpline
 70
8
 71
3
 72
8
 73
4
 74
0
 40
0
 40
0
 40
0
 40
0
 40
1
 40
1
 40
1
 40
1
 10
143.056990
 20
170.826560
 30
0.0
 10
142.763300
 20
169.675620
 30
0.0
 10
142.552950
 20
168.909650
 30
0.0
 10
142.425950
 20
168.528650
 30
0.0
  0
LWPOLYLINE
  5
25b
100
AcDbEntity
  8
0
 62
7
100
AcDbPolyline
 90
1
 70
1
 10
145.069210
 20
180.673070
 30
0.0
  0
SPLINE
  5
25c
100
AcDbEntity
  8
0
 62
7
100
AcDbSpline
 70
8
 71
3
 72
8
 73
4
 74
0
 40
0
 40
0
 40
0
 40
0
 40
1
 40
1
 40
1
 40
1
 10
142.044950
 20
168.647720
 30
0.0
 10
142.457710
 20
170.187600
 30
0.0
 10
142.818860
 20
171.529020
 30
0.0
 10
143.128420
 20
172.672030
 30
0.0
  0
SPLINE
  5
25d
100
AcDbEntity
  8
0
 62
7
100
AcDbSpline
 70
8
 71
3
 72
8
 73
4
 74
0
 40
0
 40
0
 40
0
 40
0
 40
1
 40
1
 40
1
 40
1
 10
143.128420
 20
172.672030
 30
0.0
 10
143.437990
 20
173.815030
 30
0.0
 10
143.727700
 20
174.767520
 30
0.0
 10
143.997580
 20
175.529530
 30
0.0
  0
LWPOLYLINE
  5
25e
100
AcDbEntity
  8
0
 62
7
100
AcDbPolyline
 90
2
 70
0
 10
142.425950
 20
168.528650
 30
0.0
 10
142.044950
 20
168.647720
 30
0.0
  0
SPLINE
  5
25f
100
AcDbEntity
  8
0
 62
7
100
AcDbSpline
 70
8
 71
3
 72
8
 73
4
 74
0
 40
0
 40
0
 40
0
 40
0
 40
1
 40
1
 40
1
 40
1
 10
144.973890
 20
173.838840
 30
0.0
 10
144.751640
 20
173.172090
 30
0.0
 10
144.545270
 20
172.501370
 30
0.0
 10
144.354770
 20
171.826680
 30
0.0
  0
SPLINE
  5
260
100
AcDbEntity
  8
0
 62
7
100
AcDbSpline
 70
8
 71
3
 72
8
 73
4
 74
0
 40
0
 40
0
 40
0
 40
0
 40
1
 40
1
 40
1
 40
1
 10
144.354770
 20
171.826680
 30
0.0
 10
144.164270
 20
171.151990
 30
0.0
 10
143.934080
 20
170.473340
 30
0.0
 10
143.664200
 20
169.790720
 30
0.0
  0
LWPOLYLINE
  5
261
100
AcDbEntity
  8
0
 62
7
100
AcDbPolyline
 90
2
 70
0
 10
143.997580
 20
175.529530
 30
0.0
 10
144.402390
 20
175.386650
 30
0.0
  0
SPLINE
  5
262
100
AcDbEntity
  8
0
 62
7
100
AcDbSpline
 70
8
 71
3
 72
8
 73
4
 74
0
 40
0
 40
0
 40
0
 40
0
 40
1
 40
1
 40
1
 40
1
 10
143.449890
 20
169.886020
 30
0.0
 10
143.815020
 20
170.886150
 30
0.0
 10
144.092830
 20
171.727510
 30
0.0
 10
144.283330
 20
172.410140
 30
0.0
  0
SPLINE
  5
263
100
AcDbEntity
  8
0
 62
7
100
AcDbSpline
 70
8
 71
3
 72
8
 73
4
 74
0
 40
0
 40
0
 40
0
 40
0
 40
1
 40
1
 40
1
 40
1
 10
144.283330
 20
172.410140
 30
0.0
 10
144.473830
 20
173.092770
 30
0.0
 10
144.632580
 20
173.592830
 30
0.0
 10
144.759580
 20
173.910330
 30
0.0
  0
LWPOLYLINE
  5
264
100
AcDbEntity
  8
0
 62
7
100
AcDbPolyline
 90
2
 70
0
 10
143.664200
 20
169.790720
 30
0.0
 10
143.449890
 20
169.886020
 30
0.0
  0
LWPOLYLINE
  5
265
100
AcDbEntity
  8
0
 62
7
100
AcDbPolyline
 90
2
 70
0
 10
144.759580
 20
173.910330
 30
0.0
 10
144.973890
 20
173.838840
 30
0.0
  0
ENDSEC
  0
SECTION
  2
OBJECTS
  0
DICTIONARY
  5
C
330
0
100
AcDbDictionary
  3
ACAD_GROUP
350
D
  3
ACAD_MLINESTYLE
350
17
  0
DICTIONARY
  5
D
330
C
100
AcDbDictionary
  0
DICTIONARY
  5
1A
330
C
100
AcDbDictionary
  0
DICTIONARY
  5
17
330
C
100
AcDbDictionary
  3
STANDARD
350
18
  0
DICTIONARY
  5
19
330
C
100
AcDbDictionary
  0
ENDSEC
  0
EOF
