<?xml version="1.0" encoding="UTF-8"?>
<svg width="223px" height="85px" viewBox="0 0 223 85" version="1.1" xmlns="http://www.w3.org/2000/svg" xmlns:xlink="http://www.w3.org/1999/xlink">
    <!-- Generator: Sketch 52.1 (67048) - http://www.bohemiancoding.com/sketch -->
    <title>Shape</title>
    <desc>Created with Sketch.</desc>
    <g id="Page-1" stroke="none" stroke-width="1" fill="none" fill-rule="evenodd">
        <path d="M35.82,10.08 C32.639984,15.780028 29.760013,21.359973 27.18,26.82 C25.979994,26.219997 25.020004,25.755002 24.3,25.425 C23.579996,25.094998 23.040002,24.840001 22.68,24.66 C23.160002,23.399994 23.639998,22.080007 24.12,20.7 C24.600002,19.319993 25.139997,17.850008 25.74,16.29 C22.679985,15.089994 20.250009,14.175003 18.45,13.545 C16.649991,12.914997 15.450003,12.510001 14.85,12.33 C13.949996,13.470006 13.140004,14.924991 12.42,16.695 C11.699996,18.465009 10.740006,20.429989 9.54,22.59 C10.200003,24.810011 11.009995,26.999989 11.97,29.16 C17.010025,31.920014 20.999985,34.079992 23.94,35.64 C26.880015,37.200008 28.799996,38.219998 29.7,38.7 C29.820001,41.880016 29.91,44.654988 29.97,47.025 C30.03,49.395012 30.06,51.389992 30.06,53.01 L30.06,55.62 C27.779989,57.000007 25.575011,58.334994 23.445,59.625 C21.314989,60.915006 19.29001,62.159994 17.37,63.36 C15.869993,62.279995 14.355008,61.095006 12.825,59.805 C11.294992,58.514994 9.720008,57.150007 8.1,55.71 C7.619998,57.63001 7.110003,59.54999 6.57,61.47 C6.029997,63.39001 5.430003,65.399989 4.77,67.5 C3.809995,66.839997 2.940004,66.180003 2.16,65.52 C1.379996,64.859997 0.660003,64.230003 0,63.63 C0.840004,60.149983 1.754995,56.625018 2.745,53.055 C3.735005,49.484982 4.829994,45.810019 6.03,42.03 C7.170006,42.690003 8.129996,43.244998 8.91,43.695 C9.690004,44.145002 10.319998,44.519999 10.8,44.82 C10.679999,45.480003 10.530001,46.124997 10.35,46.755 C10.169999,47.385003 9.990001,48.029997 9.81,48.69 C11.190007,50.430009 12.374995,51.929994 13.365,53.19 C14.355005,54.450006 15.149997,55.439996 15.75,56.16 C17.85001,55.199995 19.589993,54.375003 20.97,53.685 C22.350007,52.994997 23.369997,52.470002 24.03,52.11 C24.03,51.389996 24.045,50.685003 24.075,49.995 C24.105,49.304997 24.12,48.630003 24.12,47.97 C24.12,47.009995 24.105,46.110004 24.075,45.27 C24.045,44.429996 24,43.620004 23.94,42.84 C20.339982,41.099991 17.160014,39.525007 14.4,38.115 C11.639986,36.704993 9.30001,35.490005 7.38,34.47 C6.119994,31.109983 5.115004,28.42501 4.365,26.415 C3.614996,24.40499 3.120001,23.070003 2.88,22.41 C3.660004,19.889987 4.949991,17.190014 6.75,14.31 C8.550009,11.429986 10.859986,8.370016 13.68,5.13 C16.020012,5.970004 18.404988,6.809996 20.835,7.65 C23.265012,8.490004 25.769987,9.389995 28.35,10.35 C28.890003,9.569996 29.414997,8.805004 29.925,8.055 C30.435003,7.304996 30.929998,6.570004 31.41,5.85 C32.490005,6.870005 33.389996,7.709997 34.11,8.37 C34.830004,9.030003 35.399998,9.599998 35.82,10.08 Z M38.34,14.94 C37.319995,16.200006 34.980018,20.879959 31.32,28.98 L29.88,28.26 C31.740009,24.419981 33.239994,21.300012 34.38,18.9 C35.520006,16.499988 36.419997,14.850004 37.08,13.95 L38.34,14.94 Z M39.42,19.53 C38.639996,21.090008 37.950003,22.514994 37.35,23.805 C36.749997,25.095006 36.210002,26.279995 35.73,27.36 L34.92,27 C35.400002,25.919995 35.939997,24.720007 36.54,23.4 C37.140003,22.079993 37.829996,20.640008 38.61,19.08 L39.42,19.53 Z M44.73,69.48 C41.549984,67.919992 38.280017,66.15001 34.92,64.17 L35.46,63.36 C37.080008,64.320005 38.684992,65.234996 40.275,66.105 C41.865008,66.975004 43.469992,67.829996 45.09,68.67 L44.73,69.48 Z M49.32,67.68 C47.579991,66.719995 45.600011,65.715005 43.38,64.665 C41.159989,63.614995 38.730013,62.340007 36.09,60.84 L36.99,59.49 C38.370007,60.330004 40.169989,61.289995 42.39,62.37 C44.610011,63.450005 47.189985,64.769992 50.13,66.33 L49.32,67.68 Z M71.73,64.08 C69.149987,64.620003 66.660012,65.189997 64.26,65.79 C61.859988,66.390003 59.520011,67.019997 57.24,67.68 C57.059999,67.019997 56.850001,66.255004 56.61,65.385 C56.369999,64.514996 56.100002,63.540005 55.8,62.46 C57.060006,61.979998 58.559991,61.170006 60.3,60.03 C61.200005,53.129965 61.919997,45.780039 62.46,37.98 C59.819987,34.979985 58.230003,33.030004 57.69,32.13 C56.189993,33.030004 54.990005,33.809997 54.09,34.47 C53.189996,35.130003 52.560002,35.609998 52.2,35.91 C52.079999,39.330017 51.900001,42.719983 51.66,46.08 C51.419999,49.440017 51.120002,52.829983 50.76,56.25 C51.660005,56.910003 52.409997,57.434998 53.01,57.825 C53.610003,58.215002 54.059999,58.469999 54.36,58.59 C53.939998,59.430004 53.565002,60.284996 53.235,61.155 C52.904998,62.025004 52.590002,62.909996 52.29,63.81 C49.169984,62.429993 46.335013,61.125006 43.785,59.895 C41.234987,58.664994 39.00001,57.540005 37.08,56.52 C37.680003,55.019992 38.174998,53.820004 38.565,52.92 C38.955002,52.019995 39.239999,51.420001 39.42,51.12 C40.560006,51.780003 41.519996,52.289998 42.3,52.65 C43.080004,53.010002 43.649998,53.249999 44.01,53.37 C45.090005,43.649951 45.63,34.170046 45.63,24.93 C45.63,22.409987 45.6,19.920012 45.54,17.46 C45.48,14.999988 45.360001,12.540012 45.18,10.08 C43.559992,11.100005 42.120006,11.969996 40.86,12.69 L37.71,14.49 C36.749995,12.689991 36.120002,11.280005 35.82,10.26 L50.76,0.36 C51.300003,3.300015 51.674999,7.094977 51.885,11.745 C52.095001,16.395023 52.23,21.929968 52.29,28.35 C54.810013,27.029993 56.774993,25.995004 58.185,25.245 C59.595007,24.494996 60.449999,24.030001 60.75,23.85 L70.11,36.18 C69.569997,39.840018 69.030003,43.544981 68.49,47.295 C67.949997,51.045019 67.380003,54.89998 66.78,58.86 C68.040006,58.8 69.209995,58.560002 70.29,58.14 C70.470001,59.100005 70.679999,60.074995 70.92,61.065 C71.160001,62.055005 71.429999,63.059995 71.73,64.08 Z M55.08,20.97 C55.200001,19.769994 55.26,18.720004 55.26,17.82 L55.26,15.66 C55.26,11.999982 54.810005,6.870033 53.91,0.27 L55.44,0 C56.340005,6.120031 56.79,11.489977 56.79,16.11 L56.79,18.675 C56.79,19.485004 56.730001,20.309996 56.61,21.15 L55.08,20.97 Z M59.58,16.83 C59.459999,14.549989 59.355,12.36001 59.265,10.26 C59.175,8.159989 59.040001,6.12001 58.86,4.14 L59.85,4.05 C59.970001,6.330011 60.089999,8.519989 60.21,10.62 C60.330001,12.72001 60.42,14.78999 60.48,16.83 L59.58,16.83 Z M97.74,45 C96.119992,45.300001 94.575007,45.539999 93.105,45.72 C91.634993,45.900001 90.240007,46.079999 88.92,46.26 C88.319997,46.800003 87.480005,47.639994 86.4,48.78 C85.319995,49.920006 84.000008,51.389991 82.44,53.19 C82.980003,53.850003 83.609996,54.644995 84.33,55.575 C85.050004,56.505005 85.859996,57.569994 86.76,58.77 C87.720005,58.349998 89.024992,57.795003 90.675,57.105 C92.325008,56.414997 94.319988,55.560005 96.66,54.54 C96.840001,53.279994 97.019999,51.855008 97.2,50.265 C97.380001,48.674992 97.559999,46.92001 97.74,45 Z M111.96,67.77 C111.299997,68.190002 110.700003,68.714997 110.16,69.345 C109.619997,69.975003 108.990004,70.589997 108.27,71.19 L107.64,70.47 C107.880001,70.349999 108.284997,69.990003 108.855,69.39 C109.425003,68.789997 110.249995,67.980005 111.33,66.96 L111.96,67.77 Z M112.68,61.92 C111.119992,63.480008 109.635007,64.979993 108.225,66.42 C106.814993,67.860007 105.540006,69.299993 104.4,70.74 L103.05,69.93 C104.250006,68.369992 105.584993,66.885007 107.055,65.475 C108.525007,64.064993 109.979993,62.550008 111.42,60.93 L112.68,61.92 Z M109.89,58.14 C106.109981,62.10002 103.140011,65.429987 100.98,68.13 C100.139996,67.409996 99.330004,66.720003 98.55,66.06 C97.769996,65.399997 97.020004,64.800003 96.3,64.26 C96.36,63.299995 96.405,62.475003 96.435,61.785 C96.465,61.094997 96.48,60.540002 96.48,60.12 C94.43999,61.080005 92.325011,62.024995 90.135,62.955 C87.944989,63.885005 85.680012,64.829995 83.34,65.79 C82.139994,64.229992 80.865007,62.41501 79.515,60.345 C78.164993,58.27499 76.710008,55.980013 75.15,53.46 C76.890009,51.41999 78.614991,49.39501 80.325,47.385 C82.035009,45.37499 83.759991,43.41001 85.5,41.49 C87.720011,41.069998 89.894989,40.665002 92.025,40.275 C94.155011,39.884998 96.26999,39.510002 98.37,39.15 L98.91,34.92 C97.709994,34.079996 96.705004,33.345003 95.895,32.715 C95.084996,32.084997 94.440002,31.560002 93.96,31.14 L80.73,41.67 C79.889996,40.889996 79.170003,40.170003 78.57,39.51 C77.969997,38.849997 77.460002,38.280002 77.04,37.8 C78.780009,34.199982 80.579991,29.310031 82.44,23.13 C83.820007,23.850004 84.899996,24.404998 85.68,24.795 C86.460004,25.185002 86.999999,25.439999 87.3,25.56 C86.939998,26.760006 86.565002,27.869995 86.175,28.89 C85.784998,29.910005 85.410002,30.869995 85.05,31.77 C87.330011,30.209992 89.354991,28.800006 91.125,27.54 C92.895009,26.279994 94.469993,25.110005 95.85,24.03 C97.89001,25.770009 99.689992,27.419992 101.25,28.98 C102.810008,30.540008 104.189994,32.009993 105.39,33.39 C104.909998,37.890022 104.445002,42.17998 103.995,46.26 C103.544998,50.34002 103.140002,54.269981 102.78,58.05 C103.680005,57.269996 104.444997,56.550003 105.075,55.89 C105.705003,55.229997 106.259998,54.660002 106.74,54.18 C107.640005,55.380006 108.359997,56.294997 108.9,56.925 C109.440003,57.555003 109.769999,57.959999 109.89,58.14 Z M112.5,46.53 C112.379999,44.42999 112.260001,42.165012 112.14,39.735 C112.019999,37.304988 111.840001,34.740014 111.6,32.04 L112.5,31.95 C112.620001,33.330007 112.754999,35.234988 112.905,37.665 C113.055001,40.095012 113.249999,43.049983 113.49,46.53 L112.5,46.53 Z M116.19,49.05 C116.069999,46.349986 115.965,43.785012 115.875,41.355 C115.785,38.924988 115.680001,36.600011 115.56,34.38 L115.29,29.7 L116.82,29.61 L117.09,34.29 C117.270001,37.530016 117.419999,40.379988 117.54,42.84 C117.660001,45.300012 117.75,47.369992 117.81,49.05 L116.19,49.05 Z M156.51,61.38 C153.749986,62.340005 151.020014,63.359995 148.32,64.44 C145.619987,65.520005 142.920014,66.659994 140.22,67.86 C140.16,66.839995 140.1,65.850005 140.04,64.89 C139.98,63.929995 139.890001,62.970005 139.77,62.01 C140.970006,61.649998 142.259993,60.930005 143.64,59.85 C142.439994,57.689989 140.85001,54.855018 138.87,51.345 C136.88999,47.834982 134.520014,43.590025 131.76,38.61 C131.279998,38.970002 130.710003,39.449997 130.05,40.05 C129.389997,40.650003 128.640004,41.369996 127.8,42.21 C127.679999,43.590007 127.59,45.059992 127.53,46.62 C127.47,48.180008 127.44,49.829991 127.44,51.57 C127.44,52.710006 127.455,53.894994 127.485,55.125 C127.515,56.355006 127.56,57.629993 127.62,58.95 C129.240008,59.970005 131.279988,61.049994 133.74,62.19 C133.259998,62.850003 132.780002,63.599996 132.3,64.44 C131.819998,65.280004 131.310003,66.209995 130.77,67.23 C128.549989,66.449996 126.090014,65.670004 123.39,64.89 C120.689987,64.109996 117.690017,63.300004 114.39,62.46 C114.810002,61.619996 115.184998,60.705005 115.515,59.715 C115.845002,58.724995 116.159999,57.660006 116.46,56.52 C117.120003,56.760001 117.854996,56.984999 118.665,57.195 C119.475004,57.405001 120.329996,57.599999 121.23,57.78 C121.410001,55.979991 121.5,53.880012 121.5,51.48 C121.5,48.779986 121.410001,44.160033 121.23,37.62 C121.049999,31.079967 120.810002,22.560052 120.51,12.06 C119.009993,11.579998 117.420008,11.220001 115.74,10.98 L115.74,3.42 C117.180007,3.780002 119.474984,4.409996 122.625,5.31 C125.775016,6.210004 129.839975,7.379993 134.82,8.82 C134.459998,10.020006 134.160001,11.069995 133.92,11.97 C133.679999,12.870004 133.500001,13.589997 133.38,14.13 L128.07,12.69 C127.949999,15.690015 127.845,18.944982 127.755,22.455 C127.665,25.965018 127.560001,29.789979 127.44,33.93 C129.600011,31.829989 131.969987,29.400014 134.55,26.64 C137.130013,23.879986 139.949985,20.790017 143.01,17.37 L137.7,16.02 L137.835,15.48 C137.865,15.359999 137.88,15.240001 137.88,15.12 C137.94,14.639998 138,14.010004 138.06,13.23 C138.12,12.449996 138.18,11.550005 138.24,10.53 C141.300015,11.130003 144.224986,11.609998 147.015,11.97 C149.805014,12.330002 152.489987,12.599999 155.07,12.78 C154.889999,13.440003 154.635002,14.264995 154.305,15.255 C153.974998,16.245005 153.570002,17.429993 153.09,18.81 C152.249996,18.75 151.170007,18.570001 149.85,18.27 C147.74999,20.430011 145.605011,22.724988 143.415,25.155 C141.224989,27.585012 138.930012,30.149986 136.53,32.85 C138.810011,37.410023 141.074989,41.789979 143.325,45.99 C145.575011,50.190021 147.809989,54.23998 150.03,58.14 L156.33,56.34 C156.39,57.000003 156.435,57.749996 156.465,58.59 C156.495,59.430004 156.51,60.359995 156.51,61.38 Z M152.64,28.26 C151.499994,29.280005 150.375006,30.284995 149.265,31.275 C148.154994,32.265005 147.060005,33.269995 145.98,34.29 L145.35,33.57 C146.370005,32.609995 147.449994,31.620005 148.59,30.6 C149.730006,29.579995 150.899994,28.560005 152.1,27.54 L152.64,28.26 Z M151.56,24.12 C150.119993,25.740008 148.680007,27.284993 147.24,28.755 C145.799993,30.225007 144.360007,31.649993 142.92,33.03 L141.93,31.86 C143.370007,30.479993 144.794993,29.070007 146.205,27.63 C147.615007,26.189993 149.009993,24.690008 150.39,23.13 L151.56,24.12 Z M179.28,39.69 C179.28,38.129992 179.25,36.630007 179.19,35.19 C179.13,33.749993 179.040001,32.340007 178.92,30.96 C177.899995,30.779999 176.805006,30.615001 175.635,30.465 C174.464994,30.314999 173.190007,30.180001 171.81,30.06 C170.789995,31.560007 169.815005,33.194991 168.885,34.965 C167.954995,36.735009 166.860006,38.57999 165.6,40.5 C168.660015,40.319999 171.314989,40.170001 173.565,40.05 C175.815011,39.929999 177.719992,39.810001 179.28,39.69 Z M185.04,68.31 C184.439997,68.670002 183.750004,68.984999 182.97,69.255 C182.189996,69.525001 181.350005,69.839998 180.45,70.2 L180,69.39 C180.720004,69.029998 181.469996,68.745001 182.25,68.535 C183.030004,68.324999 183.809996,67.980002 184.59,67.5 L185.04,68.31 Z M186.21,63.54 C185.189995,64.200003 183.840008,64.889996 182.16,65.61 C180.479992,66.330004 178.560011,67.289994 176.4,68.49 L175.59,67.14 C177.870011,65.999994 179.834992,65.010004 181.485,64.17 C183.135008,63.329996 184.469995,62.670002 185.49,62.19 L186.21,63.54 Z M186.3,44.91 C181.079974,45.030001 176.790017,45.179999 173.43,45.36 C170.069983,45.540001 167.610008,45.779999 166.05,46.08 C166.350002,47.520007 166.634999,48.884994 166.905,50.175 C167.175001,51.465006 167.489998,52.709994 167.85,53.91 C168.990006,54.870005 170.024995,55.724996 170.955,56.475 C171.885005,57.225004 172.739996,57.839998 173.52,58.32 C175.800011,57.299995 177.884991,56.355004 179.775,55.485 C181.665009,54.614996 183.299993,53.820004 184.68,53.1 C184.800001,54.120005 184.89,55.109995 184.95,56.07 C185.01,57.030005 185.07,57.959995 185.13,58.86 C179.969974,61.560013 176.010014,63.539994 173.25,64.8 C171.749993,63.899995 170.085009,62.865006 168.255,61.695 C166.424991,60.524994 164.400011,59.250007 162.18,57.87 C160.919994,52.829975 159.570007,47.160031 158.13,40.86 C158.490002,39.899995 161.309974,35.700037 166.59,28.26 L173.25,24.12 C177.33002,24.960004 180.899985,25.769996 183.96,26.55 C184.440002,30.390019 184.874998,33.839985 185.265,36.9 C185.655002,39.960015 185.999999,42.629989 186.3,44.91 Z M194.04,59.67 L190.89,52.74 L189.72,49.95 L190.62,49.59 C190.980002,50.490004 191.399998,51.494994 191.88,52.605 C192.360002,53.715006 192.899997,54.959993 193.5,56.34 L194.85,59.31 L194.04,59.67 Z M198.18,59.85 C197.699998,58.829995 197.025004,57.225011 196.155,55.035 C195.284996,52.844989 194.160007,50.040017 192.78,46.62 L194.22,45.99 C195.600007,49.410017 196.724996,52.214989 197.595,54.405 C198.465004,56.595011 199.139998,58.199995 199.62,59.22 L198.18,59.85 Z M222.3,30.96 C222.24,33.240011 222.150001,35.189992 222.03,36.81 C221.489997,36.990001 220.950003,37.154999 220.41,37.305 C219.869997,37.455001 219.300003,37.589999 218.7,37.71 C216.059987,47.010046 213.72001,55.154965 211.68,62.145 C209.63999,69.135035 207.840008,75.059976 206.28,79.92 C201.419976,82.200011 197.250017,83.819995 193.77,84.78 C191.129987,80.81998 189.090007,77.430014 187.65,74.61 C189.390009,74.129998 190.814994,73.785001 191.925,73.575 C193.035006,73.364999 193.829998,73.200001 194.31,73.08 C194.550001,73.680003 194.864998,74.399996 195.255,75.24 C195.645002,76.080004 196.079998,77.039995 196.56,78.12 C198.000007,77.879999 199.319994,77.400004 200.52,76.68 C201.720006,70.73997 202.889994,65.820019 204.03,61.92 C203.669998,60.719994 202.755007,58.320018 201.285,54.72 C199.814993,51.119982 197.820013,46.29003 195.3,40.23 C194.399996,40.770003 193.620003,41.249998 192.96,41.67 C192.299997,42.090002 191.730002,42.449998 191.25,42.75 C190.769998,41.909996 190.335002,41.160003 189.945,40.5 C189.554998,39.839997 189.210002,39.210003 188.91,38.61 C190.050006,37.709995 191.909987,36.345009 194.49,34.515 C197.070013,32.684991 200.429979,30.330014 204.57,27.45 C205.170003,29.610011 205.529999,31.409993 205.65,32.85 C204.629995,33.870005 203.760004,34.649997 203.04,35.19 C202.319996,35.730003 201.810002,36.149998 201.51,36.45 C202.470005,39.450015 203.459995,42.419985 204.48,45.36 C205.500005,48.300015 206.549995,51.269985 207.63,54.27 C209.010007,49.949978 210.134996,46.485013 211.005,43.875 C211.875004,41.264987 212.459999,39.450005 212.76,38.43 C211.859996,38.610001 211.095003,38.745 210.465,38.835 C209.834997,38.925 209.340002,39.029999 208.98,39.15 C208.679999,37.769993 208.470001,36.660004 208.35,35.82 C208.229999,34.979996 208.14,34.380002 208.08,34.02 C210.600013,33.479997 213.044988,32.955003 215.415,32.445 C217.785012,31.934997 220.079989,31.440002 222.3,30.96 Z M219.78,50.94 C217.499989,58.080036 215.805006,63.824978 214.695,68.175 C213.584994,72.525022 212.790002,75.419993 212.31,76.86 L210.87,76.41 C212.430008,70.589971 213.794994,65.520022 214.965,61.2 C216.135006,56.879978 217.229995,53.280014 218.25,50.4 L219.78,50.94 Z M221.94,56.79 C221.099996,59.310013 220.320004,61.844987 219.6,64.395 C218.879996,66.945013 218.010005,69.509987 216.99,72.09 L216.18,71.73 C217.560007,67.949981 218.609996,64.770013 219.33,62.19 C220.050004,59.609987 220.649998,57.720006 221.13,56.52 L221.94,56.79 Z" id="Shape" fill="#000000" fill-rule="nonzero"></path>
    </g>
</svg>