  0
SECTION
  2
HEADER
  9
$ACADVER
  1
AC1014
  9
$HANDSEED
  5
FFFF
  9
$MEASUREMENT
 70
     1
  0
ENDSEC
  0
SECTION
  2
TABLES
  0
TABLE
  2
VPORT
  5
8
330
0
100
AcDbSymbolTable
 70
     4
  0
VPORT
  5
2E
330
8
100
AcDbSymbolTableRecord
100
AcDbViewportTableRecord
  2
*ACTIVE
 70
     0
 10
0.0
 20
0.0
 11
1.0
 21
1.0
 12
210.0
 22
148.5
 13
0.0
 23
0.0
 14
10.0
 24
10.0
 15
10.0
 25
10.0
 16
0.0
 26
0.0
 36
1.0
 17
0.0
 27
0.0
 37
0.0
 40
341.0
 41
1.24
 42
50.0
 43
0.0
 44
0.0
 50
0.0
 51
0.0
 71
     0
 72
   100
 73
     1
 74
     3
 75
     0
 76
     0
 77
     0
 78
     0
  0
ENDTAB
  0
TABLE
  2
LTYPE
  5
5
330
0
100
AcDbSymbolTable
 70
     1
  0
LTYPE
  5
14
330
5
100
AcDbSymbolTableRecord
100
AcDbLinetypeTableRecord
  2
BYBLOCK
 70
     0
  3

 72
    65
 73
     0
 40
0.0
  0
LTYPE
  5
15
330
5
100
AcDbSymbolTableRecord
100
AcDbLinetypeTableRecord
  2
BYLAYER
 70
     0
  3

 72
    65
 73
     0
 40
0.0
  0
LTYPE
  5
16
330
5
100
AcDbSymbolTableRecord
100
AcDbLinetypeTableRecord
  2
CONTINUOUS
 70
     0
  3
Solid line
 72
    65
 73
     0
 40
0.0
  0
ENDTAB
  0
TABLE
  2
LAYER
  5
2
100
AcDbSymbolTable
 70
2
  0
LAYER
  5
50
100
AcDbSymbolTableRecord
100
AcDbLayerTableRecord
  2
0
 70
0
  6
CONTINUOUS
  0
LAYER
  5
51
100
AcDbSymbolTableRecord
100
AcDbLayerTableRecord
  2
1
 70
0
  6
CONTINUOUS
  0
ENDTAB
  0
TABLE
  2
STYLE
  5
3
330
0
100
AcDbSymbolTable
 70
     1
  0
STYLE
  5
11
330
3
100
AcDbSymbolTableRecord
100
AcDbTextStyleTableRecord
  2
STANDARD
 70
     0
 40
0.0
 41
1.0
 50
0.0
 71
     0
 42
2.5
  3
txt
  4

  0
ENDTAB
  0
TABLE
  2
VIEW
  5
6
330
0
100
AcDbSymbolTable
 70
     0
  0
ENDTAB
  0
TABLE
  2
UCS
  5
7
330
0
100
AcDbSymbolTable
 70
     0
  0
ENDTAB
  0
TABLE
  2
APPID
  5
9
330
0
100
AcDbSymbolTable
 70
     2
  0
APPID
  5
12
330
9
100
AcDbSymbolTableRecord
100
AcDbRegAppTableRecord
  2
ACAD
 70
     0
  0
ENDTAB
  0
TABLE
  2
DIMSTYLE
  5
A
330
0
100
AcDbSymbolTable
 70
     1
  0
DIMSTYLE
105
27
330
A
100
AcDbSymbolTableRecord
100
AcDbDimStyleTableRecord
  2
ISO-25
 70
     0
  3

  4

  5

  6

  7

 40
1.0
 41
2.5
 42
0.625
 43
3.75
 44
1.25
 45
0.0
 46
0.0
 47
0.0
 48
0.0
140
2.5
141
2.5
142
0.0
143
0.03937007874016
144
1.0
145
0.0
146
1.0
147
0.625
 71
     0
 72
     0
 73
     0
 74
     0
 75
     0
 76
     0
 77
     1
 78
     8
170
     0
171
     3
172
     1
173
     0
174
     0
175
     0
176
     0
177
     0
178
     0
270
     2
271
     2
272
     2
273
     2
274
     3
340
11
275
     0
280
     0
281
     0
282
     0
283
     0
284
     8
285
     0
286
     0
287
     3
288
     0
  0
ENDTAB
  0
TABLE
  2
BLOCK_RECORD
  5
1
330
0
100
AcDbSymbolTable
 70
     1
  0
BLOCK_RECORD
  5
1F
330
1
100
AcDbSymbolTableRecord
100
AcDbBlockTableRecord
  2
*MODEL_SPACE
  0
BLOCK_RECORD
  5
1B
330
1
100
AcDbSymbolTableRecord
100
AcDbBlockTableRecord
  2
*PAPER_SPACE
  0
ENDTAB
  0
ENDSEC
  0
SECTION
  2
BLOCKS
  0
BLOCK
  5
20
330
1F
100
AcDbEntity
  8
0
100
AcDbBlockBegin
  2
*MODEL_SPACE
 70
     0
 10
0.0
 20
0.0
 30
0.0
  3
*MODEL_SPACE
  1

  0
ENDBLK
  5
21
330
1F
100
AcDbEntity
  8
0
100
AcDbBlockEnd
  0
BLOCK
  5
1C
330
1B
100
AcDbEntity
 67
     1
  8
0
100
AcDbBlockBegin
  2
*PAPER_SPACE
  1

  0
ENDBLK
  5
1D
330
1B
100
AcDbEntity
 67
     1
  8
0
100
AcDbBlockEnd
  0
ENDSEC
  0
SECTION
  2
ENTITIES
  0
SPLINE
  5
100
100
AcDbEntity
  8
1
 62
7
100
AcDbSpline
 70
8
 71
3
 72
8
 73
4
 74
0
 40
0
 40
0
 40
0
 40
0
 40
1
 40
1
 40
1
 40
1
 10
72.649784
 20
70.984908
 30
0.0
 10
72.640725
 20
70.985200
 30
0.0
 10
72.632198
 20
70.980637
 30
0.0
 10
72.627417
 20
70.972938
 30
0.0
  0
SPLINE
  5
101
100
AcDbEntity
  8
1
 62
7
100
AcDbSpline
 70
8
 71
3
 72
8
 73
4
 74
0
 40
0
 40
0
 40
0
 40
0
 40
1
 40
1
 40
1
 40
1
 10
72.627417
 20
70.972938
 30
0.0
 10
72.622635
 20
70.965238
 30
0.0
 10
72.622325
 20
70.955573
 30
0.0
 10
72.626603
 20
70.947582
 30
0.0
  0
SPLINE
  5
102
100
AcDbEntity
  8
1
 62
7
100
AcDbSpline
 70
8
 71
3
 72
8
 73
4
 74
0
 40
0
 40
0
 40
0
 40
0
 40
1
 40
1
 40
1
 40
1
 10
72.626603
 20
70.947582
 30
0.0
 10
72.630881
 20
70.939592
 30
0.0
 10
72.639098
 20
70.934492
 30
0.0
 10
72.648157
 20
70.934203
 30
0.0
  0
SPLINE
  5
103
100
AcDbEntity
  8
1
 62
7
100
AcDbSpline
 70
8
 71
3
 72
8
 73
4
 74
0
 40
0
 40
0
 40
0
 40
0
 40
1
 40
1
 40
1
 40
1
 10
72.649784
 20
70.984908
 30
0.0
 10
72.640725
 20
70.985200
 30
0.0
 10
72.632198
 20
70.980637
 30
0.0
 10
72.627417
 20
70.972938
 30
0.0
  0
SPLINE
  5
104
100
AcDbEntity
  8
1
 62
7
100
AcDbSpline
 70
8
 71
3
 72
8
 73
4
 74
0
 40
0
 40
0
 40
0
 40
0
 40
1
 40
1
 40
1
 40
1
 10
72.627417
 20
70.972938
 30
0.0
 10
72.622635
 20
70.965238
 30
0.0
 10
72.622325
 20
70.955573
 30
0.0
 10
72.626603
 20
70.947582
 30
0.0
  0
SPLINE
  5
105
100
AcDbEntity
  8
1
 62
7
100
AcDbSpline
 70
8
 71
3
 72
8
 73
4
 74
0
 40
0
 40
0
 40
0
 40
0
 40
1
 40
1
 40
1
 40
1
 10
72.626603
 20
70.947582
 30
0.0
 10
72.630881
 20
70.939592
 30
0.0
 10
72.639098
 20
70.934492
 30
0.0
 10
72.648157
 20
70.934203
 30
0.0
  0
SPLINE
  5
106
100
AcDbEntity
  8
1
 62
7
100
AcDbSpline
 70
8
 71
3
 72
8
 73
4
 74
0
 40
0
 40
0
 40
0
 40
0
 40
1
 40
1
 40
1
 40
1
 10
64.870423
 20
72.410393
 30
0.0
 10
64.883639
 20
72.405651
 30
0.0
 10
64.898197
 20
72.412521
 30
0.0
 10
64.902939
 20
72.425737
 30
0.0
  0
SPLINE
  5
107
100
AcDbEntity
  8
1
 62
7
100
AcDbSpline
 70
8
 71
3
 72
8
 73
4
 74
0
 40
0
 40
0
 40
0
 40
0
 40
1
 40
1
 40
1
 40
1
 10
64.902939
 20
72.425737
 30
0.0
 10
64.907680
 20
72.438954
 30
0.0
 10
64.900810
 20
72.453511
 30
0.0
 10
64.887594
 20
72.458253
 30
0.0
  0
SPLINE
  5
108
100
AcDbEntity
  8
1
 62
7
100
AcDbSpline
 70
8
 71
3
 72
8
 73
4
 74
0
 40
0
 40
0
 40
0
 40
0
 40
1
 40
1
 40
1
 40
1
 10
64.886070
 20
72.458761
 30
0.0
 10
64.877357
 20
72.461286
 30
0.0
 10
64.867959
 20
72.458970
 30
0.0
 10
64.861417
 20
72.452686
 30
0.0
  0
SPLINE
  5
109
100
AcDbEntity
  8
1
 62
7
100
AcDbSpline
 70
8
 71
3
 72
8
 73
4
 74
0
 40
0
 40
0
 40
0
 40
0
 40
1
 40
1
 40
1
 40
1
 10
64.861417
 20
72.452686
 30
0.0
 10
64.854875
 20
72.446402
 30
0.0
 10
64.852182
 20
72.437104
 30
0.0
 10
64.854354
 20
72.428297
 30
0.0
  0
SPLINE
  5
10a
100
AcDbEntity
  8
1
 62
7
100
AcDbSpline
 70
8
 71
3
 72
8
 73
4
 74
0
 40
0
 40
0
 40
0
 40
0
 40
1
 40
1
 40
1
 40
1
 10
64.854354
 20
72.428297
 30
0.0
 10
64.856526
 20
72.419489
 30
0.0
 10
64.863233
 20
72.412510
 30
0.0
 10
64.871947
 20
72.409988
 30
0.0
  0
SPLINE
  5
10b
100
AcDbEntity
  8
1
 62
7
100
AcDbSpline
 70
8
 71
3
 72
8
 73
4
 74
0
 40
0
 40
0
 40
0
 40
0
 40
1
 40
1
 40
1
 40
1
 10
70.672148
 20
71.118729
 30
0.0
 10
70.685911
 20
71.116735
 30
0.0
 10
70.698720
 20
71.126176
 30
0.0
 10
70.700889
 20
71.139912
 30
0.0
  0
SPLINE
  5
10c
100
AcDbEntity
  8
1
 62
7
100
AcDbSpline
 70
8
 71
3
 72
8
 73
4
 74
0
 40
0
 40
0
 40
0
 40
0
 40
1
 40
1
 40
1
 40
1
 10
70.700889
 20
71.139912
 30
0.0
 10
70.703057
 20
71.153649
 30
0.0
 10
70.693780
 20
71.166577
 30
0.0
 10
70.680072
 20
71.168920
 30
0.0
  0
SPLINE
  5
10d
100
AcDbEntity
  8
1
 62
7
100
AcDbSpline
 70
8
 71
3
 72
8
 73
4
 74
0
 40
0
 40
0
 40
0
 40
0
 40
1
 40
1
 40
1
 40
1
 10
66.775100
 20
71.857940
 30
0.0
 10
66.788558
 20
71.854121
 30
0.0
 10
66.802576
 20
71.861880
 30
0.0
 10
66.806485
 20
71.875312
 30
0.0
  0
SPLINE
  5
10e
100
AcDbEntity
  8
1
 62
7
100
AcDbSpline
 70
8
 71
3
 72
8
 73
4
 74
0
 40
0
 40
0
 40
0
 40
0
 40
1
 40
1
 40
1
 40
1
 10
66.806485
 20
71.875312
 30
0.0
 10
66.810395
 20
71.888744
 30
0.0
 10
66.802732
 20
71.902813
 30
0.0
 10
66.789326
 20
71.906814
 30
0.0
  0
SPLINE
  5
10f
100
AcDbEntity
  8
1
 62
7
100
AcDbSpline
 70
8
 71
3
 72
8
 73
4
 74
0
 40
0
 40
0
 40
0
 40
0
 40
1
 40
1
 40
1
 40
1
 10
70.678450
 20
71.169127
 30
0.0
 10
70.664500
 20
71.170378
 30
0.0
 10
70.652167
 20
71.160104
 30
0.0
 10
70.650878
 20
71.146157
 30
0.0
  0
SPLINE
  5
110
100
AcDbEntity
  8
1
 62
7
100
AcDbSpline
 70
8
 71
3
 72
8
 73
4
 74
0
 40
0
 40
0
 40
0
 40
0
 40
1
 40
1
 40
1
 40
1
 10
70.650878
 20
71.146157
 30
0.0
 10
70.649590
 20
71.132210
 30
0.0
 10
70.659831
 20
71.119850
 30
0.0
 10
70.673775
 20
71.118525
 30
0.0
  0
LWPOLYLINE
  5
111
100
AcDbEntity
  8
1
 62
7
100
AcDbPolyline
 90
2
 70
0
 10
72.648969
 20
70.959606
 30
0.0
 10
70.676111
 20
71.143824
 30
0.0
  0
SPLINE
  5
112
100
AcDbEntity
  8
1
 62
7
100
AcDbSpline
 70
8
 71
3
 72
8
 73
4
 74
0
 40
0
 40
0
 40
0
 40
0
 40
1
 40
1
 40
1
 40
1
 10
63.022544
 20
73.129792
 30
0.0
 10
63.009362
 20
73.134413
 30
0.0
 10
62.994921
 20
73.127535
 30
0.0
 10
62.990203
 20
73.114387
 30
0.0
  0
SPLINE
  5
113
100
AcDbEntity
  8
1
 62
7
100
AcDbSpline
 70
8
 71
3
 72
8
 73
4
 74
0
 40
0
 40
0
 40
0
 40
0
 40
1
 40
1
 40
1
 40
1
 10
62.990203
 20
73.114387
 30
0.0
 10
62.985485
 20
73.101240
 30
0.0
 10
62.992257
 20
73.086749
 30
0.0
 10
63.005369
 20
73.081934
 30
0.0
  0
LWPOLYLINE
  5
114
100
AcDbEntity
  8
1
 62
7
100
AcDbPolyline
 90
2
 70
0
 10
64.879059
 20
72.434375
 30
0.0
 10
63.014008
 20
73.105914
 30
0.0
  0
SPLINE
  5
115
100
AcDbEntity
  8
1
 62
7
100
AcDbSpline
 70
8
 71
3
 72
8
 73
4
 74
0
 40
0
 40
0
 40
0
 40
0
 40
1
 40
1
 40
1
 40
1
 10
68.721340
 20
71.476699
 30
0.0
 10
68.707479
 20
71.478860
 30
0.0
 10
68.694491
 20
71.469374
 30
0.0
 10
68.692330
 20
71.455513
 30
0.0
  0
SPLINE
  5
116
100
AcDbEntity
  8
1
 62
7
100
AcDbSpline
 70
8
 71
3
 72
8
 73
4
 74
0
 40
0
 40
0
 40
0
 40
0
 40
1
 40
1
 40
1
 40
1
 10
68.692330
 20
71.455513
 30
0.0
 10
68.690170
 20
71.441651
 30
0.0
 10
68.699655
 20
71.428663
 30
0.0
 10
68.713517
 20
71.426503
 30
0.0
  0
LWPOLYLINE
  5
117
100
AcDbEntity
  8
1
 62
7
100
AcDbPolyline
 90
3
 70
0
 10
70.676111
 20
71.143824
 30
0.0
 10
68.717377
 20
71.451601
 30
0.0
 10
66.782214
 20
71.882327
 30
0.0
  0
SPLINE
  5
118
100
AcDbEntity
  8
1
 62
7
100
AcDbSpline
 70
8
 71
3
 72
8
 73
4
 74
0
 40
0
 40
0
 40
0
 40
0
 40
1
 40
1
 40
1
 40
1
 10
61.204843
 20
73.917372
 30
0.0
 10
61.191992
 20
73.922926
 30
0.0
 10
61.177072
 20
73.917012
 30
0.0
 10
61.171517
 20
73.904162
 30
0.0
  0
SPLINE
  5
119
100
AcDbEntity
  8
1
 62
7
100
AcDbSpline
 70
8
 71
3
 72
8
 73
4
 74
0
 40
0
 40
0
 40
0
 40
0
 40
1
 40
1
 40
1
 40
1
 10
61.171517
 20
73.904162
 30
0.0
 10
61.165962
 20
73.891312
 30
0.0
 10
61.171874
 20
73.876391
 30
0.0
 10
61.184724
 20
73.870835
 30
0.0
  0
SPLINE
  5
11a
100
AcDbEntity
  8
1
 62
7
100
AcDbSpline
 70
8
 71
3
 72
8
 73
4
 74
0
 40
0
 40
0
 40
0
 40
0
 40
1
 40
1
 40
1
 40
1
 10
72.646633
 20
70.934304
 30
0.0
 10
72.655672
 20
70.933468
 30
0.0
 10
72.664471
 20
70.937519
 30
0.0
 10
72.669714
 20
70.944930
 30
0.0
  0
SPLINE
  5
11b
100
AcDbEntity
  8
1
 62
7
100
AcDbSpline
 70
8
 71
3
 72
8
 73
4
 74
0
 40
0
 40
0
 40
0
 40
0
 40
1
 40
1
 40
1
 40
1
 10
72.669714
 20
70.944930
 30
0.0
 10
72.674957
 20
70.952341
 30
0.0
 10
72.675848
 20
70.961986
 30
0.0
 10
72.672051
 20
70.970232
 30
0.0
  0
SPLINE
  5
11c
100
AcDbEntity
  8
1
 62
7
100
AcDbSpline
 70
8
 71
3
 72
8
 73
4
 74
0
 40
0
 40
0
 40
0
 40
0
 40
1
 40
1
 40
1
 40
1
 10
72.672051
 20
70.970232
 30
0.0
 10
72.668255
 20
70.978478
 30
0.0
 10
72.660347
 20
70.984073
 30
0.0
 10
72.651308
 20
70.984908
 30
0.0
  0
SPLINE
  5
11d
100
AcDbEntity
  8
1
 62
7
100
AcDbSpline
 70
8
 71
3
 72
8
 73
4
 74
0
 40
0
 40
0
 40
0
 40
0
 40
1
 40
1
 40
1
 40
1
 10
68.711890
 20
71.426810
 30
0.0
 10
68.720757
 20
71.424806
 30
0.0
 10
68.730019
 20
71.427693
 30
0.0
 10
68.736177
 20
71.434381
 30
0.0
  0
SPLINE
  5
11e
100
AcDbEntity
  8
1
 62
7
100
AcDbSpline
 70
8
 71
3
 72
8
 73
4
 74
0
 40
0
 40
0
 40
0
 40
0
 40
1
 40
1
 40
1
 40
1
 10
68.736177
 20
71.434381
 30
0.0
 10
68.742335
 20
71.441068
 30
0.0
 10
68.744450
 20
71.450537
 30
0.0
 10
68.741723
 20
71.459209
 30
0.0
  0
SPLINE
  5
11f
100
AcDbEntity
  8
1
 62
7
100
AcDbSpline
 70
8
 71
3
 72
8
 73
4
 74
0
 40
0
 40
0
 40
0
 40
0
 40
1
 40
1
 40
1
 40
1
 10
68.741723
 20
71.459209
 30
0.0
 10
68.738996
 20
71.467882
 30
0.0
 10
68.731842
 20
71.474436
 30
0.0
 10
68.722965
 20
71.476395
 30
0.0
  0
SPLINE
  5
120
100
AcDbEntity
  8
1
 62
7
100
AcDbSpline
 70
8
 71
3
 72
8
 73
4
 74
0
 40
0
 40
0
 40
0
 40
0
 40
1
 40
1
 40
1
 40
1
 10
66.787702
 20
71.907118
 30
0.0
 10
66.778844
 20
71.909079
 30
0.0
 10
66.769614
 20
71.906165
 30
0.0
 10
66.763487
 20
71.899474
 30
0.0
  0
SPLINE
  5
121
100
AcDbEntity
  8
1
 62
7
100
AcDbSpline
 70
8
 71
3
 72
8
 73
4
 74
0
 40
0
 40
0
 40
0
 40
0
 40
1
 40
1
 40
1
 40
1
 10
66.763487
 20
71.899474
 30
0.0
 10
66.757360
 20
71.892783
 30
0.0
 10
66.755269
 20
71.883332
 30
0.0
 10
66.758000
 20
71.874681
 30
0.0
  0
SPLINE
  5
122
100
AcDbEntity
  8
1
 62
7
100
AcDbSpline
 70
8
 71
3
 72
8
 73
4
 74
0
 40
0
 40
0
 40
0
 40
0
 40
1
 40
1
 40
1
 40
1
 10
66.758000
 20
71.874681
 30
0.0
 10
66.760731
 20
71.866030
 30
0.0
 10
66.767869
 20
71.859493
 30
0.0
 10
66.776727
 20
71.857533
 30
0.0
  0
LWPOLYLINE
  5
123
100
AcDbEntity
  8
1
 62
7
100
AcDbPolyline
 90
2
 70
0
 10
63.014008
 20
73.105914
 30
0.0
 10
61.194781
 20
73.894102
 30
0.0
  0
SPLINE
  5
124
100
AcDbEntity
  8
1
 62
7
100
AcDbSpline
 70
8
 71
3
 72
8
 73
4
 74
0
 40
0
 40
0
 40
0
 40
0
 40
1
 40
1
 40
1
 40
1
 10
70.678450
 20
71.169127
 30
0.0
 10
70.664500
 20
71.170378
 30
0.0
 10
70.652167
 20
71.160104
 30
0.0
 10
70.650878
 20
71.146157
 30
0.0
  0
SPLINE
  5
125
100
AcDbEntity
  8
1
 62
7
100
AcDbSpline
 70
8
 71
3
 72
8
 73
4
 74
0
 40
0
 40
0
 40
0
 40
0
 40
1
 40
1
 40
1
 40
1
 10
70.650878
 20
71.146157
 30
0.0
 10
70.649590
 20
71.132210
 30
0.0
 10
70.659831
 20
71.119850
 30
0.0
 10
70.673775
 20
71.118525
 30
0.0
  0
LWPOLYLINE
  5
126
100
AcDbEntity
  8
1
 62
7
100
AcDbPolyline
 90
2
 70
0
 10
66.782214
 20
71.882327
 30
0.0
 10
64.879059
 20
72.434375
 30
0.0
  0
SPLINE
  5
127
100
AcDbEntity
  8
1
 62
7
100
AcDbSpline
 70
8
 71
3
 72
8
 73
4
 74
0
 40
0
 40
0
 40
0
 40
0
 40
1
 40
1
 40
1
 40
1
 10
70.672148
 20
71.118729
 30
0.0
 10
70.685911
 20
71.116735
 30
0.0
 10
70.698720
 20
71.126176
 30
0.0
 10
70.700889
 20
71.139912
 30
0.0
  0
SPLINE
  5
128
100
AcDbEntity
  8
1
 62
7
100
AcDbSpline
 70
8
 71
3
 72
8
 73
4
 74
0
 40
0
 40
0
 40
0
 40
0
 40
1
 40
1
 40
1
 40
1
 10
70.700889
 20
71.139912
 30
0.0
 10
70.703057
 20
71.153649
 30
0.0
 10
70.693780
 20
71.166577
 30
0.0
 10
70.680072
 20
71.168920
 30
0.0
  0
LWPOLYLINE
  5
129
100
AcDbEntity
  8
1
 62
7
100
AcDbPolyline
 90
2
 70
0
 10
72.648969
 20
70.959606
 30
0.0
 10
70.676111
 20
71.143824
 30
0.0
  0
SPLINE
  5
12a
100
AcDbEntity
  8
1
 62
7
100
AcDbSpline
 70
8
 71
3
 72
8
 73
4
 74
0
 40
0
 40
0
 40
0
 40
0
 40
1
 40
1
 40
1
 40
1
 10
68.711890
 20
71.426810
 30
0.0
 10
68.720757
 20
71.424806
 30
0.0
 10
68.730019
 20
71.427693
 30
0.0
 10
68.736177
 20
71.434381
 30
0.0
  0
SPLINE
  5
12b
100
AcDbEntity
  8
1
 62
7
100
AcDbSpline
 70
8
 71
3
 72
8
 73
4
 74
0
 40
0
 40
0
 40
0
 40
0
 40
1
 40
1
 40
1
 40
1
 10
68.736177
 20
71.434381
 30
0.0
 10
68.742335
 20
71.441068
 30
0.0
 10
68.744450
 20
71.450537
 30
0.0
 10
68.741723
 20
71.459209
 30
0.0
  0
SPLINE
  5
12c
100
AcDbEntity
  8
1
 62
7
100
AcDbSpline
 70
8
 71
3
 72
8
 73
4
 74
0
 40
0
 40
0
 40
0
 40
0
 40
1
 40
1
 40
1
 40
1
 10
68.741723
 20
71.459209
 30
0.0
 10
68.738996
 20
71.467882
 30
0.0
 10
68.731842
 20
71.474436
 30
0.0
 10
68.722965
 20
71.476395
 30
0.0
  0
SPLINE
  5
12d
100
AcDbEntity
  8
1
 62
7
100
AcDbSpline
 70
8
 71
3
 72
8
 73
4
 74
0
 40
0
 40
0
 40
0
 40
0
 40
1
 40
1
 40
1
 40
1
 10
68.721340
 20
71.476699
 30
0.0
 10
68.707479
 20
71.478860
 30
0.0
 10
68.694491
 20
71.469374
 30
0.0
 10
68.692330
 20
71.455513
 30
0.0
  0
SPLINE
  5
12e
100
AcDbEntity
  8
1
 62
7
100
AcDbSpline
 70
8
 71
3
 72
8
 73
4
 74
0
 40
0
 40
0
 40
0
 40
0
 40
1
 40
1
 40
1
 40
1
 10
68.692330
 20
71.455513
 30
0.0
 10
68.690170
 20
71.441651
 30
0.0
 10
68.699655
 20
71.428663
 30
0.0
 10
68.713517
 20
71.426503
 30
0.0
  0
LWPOLYLINE
  5
12f
100
AcDbEntity
  8
1
 62
7
100
AcDbPolyline
 90
2
 70
0
 10
66.782214
 20
71.882327
 30
0.0
 10
64.879059
 20
72.434375
 30
0.0
  0
SPLINE
  5
130
100
AcDbEntity
  8
1
 62
7
100
AcDbSpline
 70
8
 71
3
 72
8
 73
4
 74
0
 40
0
 40
0
 40
0
 40
0
 40
1
 40
1
 40
1
 40
1
 10
72.646633
 20
70.934304
 30
0.0
 10
72.655672
 20
70.933468
 30
0.0
 10
72.664471
 20
70.937519
 30
0.0
 10
72.669714
 20
70.944930
 30
0.0
  0
SPLINE
  5
131
100
AcDbEntity
  8
1
 62
7
100
AcDbSpline
 70
8
 71
3
 72
8
 73
4
 74
0
 40
0
 40
0
 40
0
 40
0
 40
1
 40
1
 40
1
 40
1
 10
72.669714
 20
70.944930
 30
0.0
 10
72.674957
 20
70.952341
 30
0.0
 10
72.675848
 20
70.961986
 30
0.0
 10
72.672051
 20
70.970232
 30
0.0
  0
SPLINE
  5
132
100
AcDbEntity
  8
1
 62
7
100
AcDbSpline
 70
8
 71
3
 72
8
 73
4
 74
0
 40
0
 40
0
 40
0
 40
0
 40
1
 40
1
 40
1
 40
1
 10
72.672051
 20
70.970232
 30
0.0
 10
72.668255
 20
70.978478
 30
0.0
 10
72.660347
 20
70.984073
 30
0.0
 10
72.651308
 20
70.984908
 30
0.0
  0
SPLINE
  5
133
100
AcDbEntity
  8
1
 62
7
100
AcDbSpline
 70
8
 71
3
 72
8
 73
4
 74
0
 40
0
 40
0
 40
0
 40
0
 40
1
 40
1
 40
1
 40
1
 10
66.787702
 20
71.907118
 30
0.0
 10
66.778844
 20
71.909079
 30
0.0
 10
66.769614
 20
71.906165
 30
0.0
 10
66.763487
 20
71.899474
 30
0.0
  0
SPLINE
  5
134
100
AcDbEntity
  8
1
 62
7
100
AcDbSpline
 70
8
 71
3
 72
8
 73
4
 74
0
 40
0
 40
0
 40
0
 40
0
 40
1
 40
1
 40
1
 40
1
 10
66.763487
 20
71.899474
 30
0.0
 10
66.757360
 20
71.892783
 30
0.0
 10
66.755269
 20
71.883332
 30
0.0
 10
66.758000
 20
71.874681
 30
0.0
  0
SPLINE
  5
135
100
AcDbEntity
  8
1
 62
7
100
AcDbSpline
 70
8
 71
3
 72
8
 73
4
 74
0
 40
0
 40
0
 40
0
 40
0
 40
1
 40
1
 40
1
 40
1
 10
66.758000
 20
71.874681
 30
0.0
 10
66.760731
 20
71.866030
 30
0.0
 10
66.767869
 20
71.859493
 30
0.0
 10
66.776727
 20
71.857533
 30
0.0
  0
SPLINE
  5
136
100
AcDbEntity
  8
1
 62
7
100
AcDbSpline
 70
8
 71
3
 72
8
 73
4
 74
0
 40
0
 40
0
 40
0
 40
0
 40
1
 40
1
 40
1
 40
1
 10
63.022544
 20
73.129792
 30
0.0
 10
63.009362
 20
73.134413
 30
0.0
 10
62.994921
 20
73.127535
 30
0.0
 10
62.990203
 20
73.114387
 30
0.0
  0
SPLINE
  5
137
100
AcDbEntity
  8
1
 62
7
100
AcDbSpline
 70
8
 71
3
 72
8
 73
4
 74
0
 40
0
 40
0
 40
0
 40
0
 40
1
 40
1
 40
1
 40
1
 10
62.990203
 20
73.114387
 30
0.0
 10
62.985485
 20
73.101240
 30
0.0
 10
62.992257
 20
73.086749
 30
0.0
 10
63.005369
 20
73.081934
 30
0.0
  0
SPLINE
  5
138
100
AcDbEntity
  8
1
 62
7
100
AcDbSpline
 70
8
 71
3
 72
8
 73
4
 74
0
 40
0
 40
0
 40
0
 40
0
 40
1
 40
1
 40
1
 40
1
 10
64.886070
 20
72.458761
 30
0.0
 10
64.877357
 20
72.461286
 30
0.0
 10
64.867959
 20
72.458970
 30
0.0
 10
64.861417
 20
72.452686
 30
0.0
  0
SPLINE
  5
139
100
AcDbEntity
  8
1
 62
7
100
AcDbSpline
 70
8
 71
3
 72
8
 73
4
 74
0
 40
0
 40
0
 40
0
 40
0
 40
1
 40
1
 40
1
 40
1
 10
64.861417
 20
72.452686
 30
0.0
 10
64.854875
 20
72.446402
 30
0.0
 10
64.852182
 20
72.437104
 30
0.0
 10
64.854354
 20
72.428297
 30
0.0
  0
SPLINE
  5
13a
100
AcDbEntity
  8
1
 62
7
100
AcDbSpline
 70
8
 71
3
 72
8
 73
4
 74
0
 40
0
 40
0
 40
0
 40
0
 40
1
 40
1
 40
1
 40
1
 10
64.854354
 20
72.428297
 30
0.0
 10
64.856526
 20
72.419489
 30
0.0
 10
64.863233
 20
72.412510
 30
0.0
 10
64.871947
 20
72.409988
 30
0.0
  0
SPLINE
  5
13b
100
AcDbEntity
  8
1
 62
7
100
AcDbSpline
 70
8
 71
3
 72
8
 73
4
 74
0
 40
0
 40
0
 40
0
 40
0
 40
1
 40
1
 40
1
 40
1
 10
66.775100
 20
71.857940
 30
0.0
 10
66.788558
 20
71.854121
 30
0.0
 10
66.802576
 20
71.861880
 30
0.0
 10
66.806485
 20
71.875312
 30
0.0
  0
SPLINE
  5
13c
100
AcDbEntity
  8
1
 62
7
100
AcDbSpline
 70
8
 71
3
 72
8
 73
4
 74
0
 40
0
 40
0
 40
0
 40
0
 40
1
 40
1
 40
1
 40
1
 10
66.806485
 20
71.875312
 30
0.0
 10
66.810395
 20
71.888744
 30
0.0
 10
66.802732
 20
71.902813
 30
0.0
 10
66.789326
 20
71.906814
 30
0.0
  0
LWPOLYLINE
  5
13d
100
AcDbEntity
  8
1
 62
7
100
AcDbPolyline
 90
3
 70
0
 10
70.676111
 20
71.143824
 30
0.0
 10
68.717377
 20
71.451601
 30
0.0
 10
66.782214
 20
71.882327
 30
0.0
  0
SPLINE
  5
13e
100
AcDbEntity
  8
1
 62
7
100
AcDbSpline
 70
8
 71
3
 72
8
 73
4
 74
0
 40
0
 40
0
 40
0
 40
0
 40
1
 40
1
 40
1
 40
1
 10
64.870423
 20
72.410393
 30
0.0
 10
64.883639
 20
72.405651
 30
0.0
 10
64.898197
 20
72.412521
 30
0.0
 10
64.902939
 20
72.425737
 30
0.0
  0
SPLINE
  5
13f
100
AcDbEntity
  8
1
 62
7
100
AcDbSpline
 70
8
 71
3
 72
8
 73
4
 74
0
 40
0
 40
0
 40
0
 40
0
 40
1
 40
1
 40
1
 40
1
 10
64.902939
 20
72.425737
 30
0.0
 10
64.907680
 20
72.438954
 30
0.0
 10
64.900810
 20
72.453511
 30
0.0
 10
64.887594
 20
72.458253
 30
0.0
  0
SPLINE
  5
140
100
AcDbEntity
  8
1
 62
7
100
AcDbSpline
 70
8
 71
3
 72
8
 73
4
 74
0
 40
0
 40
0
 40
0
 40
0
 40
1
 40
1
 40
1
 40
1
 10
63.003845
 20
73.082543
 30
0.0
 10
63.012177
 20
73.078931
 30
0.0
 10
63.021803
 20
73.080037
 30
0.0
 10
63.029097
 20
73.085447
 30
0.0
  0
SPLINE
  5
141
100
AcDbEntity
  8
1
 62
7
100
AcDbSpline
 70
8
 71
3
 72
8
 73
4
 74
0
 40
0
 40
0
 40
0
 40
0
 40
1
 40
1
 40
1
 40
1
 10
63.029097
 20
73.085447
 30
0.0
 10
63.036391
 20
73.090856
 30
0.0
 10
63.040245
 20
73.099746
 30
0.0
 10
63.039208
 20
73.108767
 30
0.0
  0
SPLINE
  5
142
100
AcDbEntity
  8
1
 62
7
100
AcDbSpline
 70
8
 71
3
 72
8
 73
4
 74
0
 40
0
 40
0
 40
0
 40
0
 40
1
 40
1
 40
1
 40
1
 10
63.039208
 20
73.108767
 30
0.0
 10
63.038171
 20
73.117789
 30
0.0
 10
63.032399
 20
73.125571
 30
0.0
 10
63.024067
 20
73.129184
 30
0.0
  0
SPLINE
  5
143
100
AcDbEntity
  8
1
 62
7
100
AcDbSpline
 70
8
 71
3
 72
8
 73
4
 74
0
 40
0
 40
0
 40
0
 40
0
 40
1
 40
1
 40
1
 40
1
 10
61.204843
 20
73.917372
 30
0.0
 10
61.191992
 20
73.922926
 30
0.0
 10
61.177072
 20
73.917012
 30
0.0
 10
61.171517
 20
73.904162
 30
0.0
  0
SPLINE
  5
144
100
AcDbEntity
  8
1
 62
7
100
AcDbSpline
 70
8
 71
3
 72
8
 73
4
 74
0
 40
0
 40
0
 40
0
 40
0
 40
1
 40
1
 40
1
 40
1
 10
61.171517
 20
73.904162
 30
0.0
 10
61.165962
 20
73.891312
 30
0.0
 10
61.171874
 20
73.876391
 30
0.0
 10
61.184724
 20
73.870835
 30
0.0
  0
SPLINE
  5
145
100
AcDbEntity
  8
1
 62
7
100
AcDbSpline
 70
8
 71
3
 72
8
 73
4
 74
0
 40
0
 40
0
 40
0
 40
0
 40
1
 40
1
 40
1
 40
1
 10
63.003845
 20
73.082543
 30
0.0
 10
63.012177
 20
73.078931
 30
0.0
 10
63.021803
 20
73.080037
 30
0.0
 10
63.029097
 20
73.085447
 30
0.0
  0
SPLINE
  5
146
100
AcDbEntity
  8
1
 62
7
100
AcDbSpline
 70
8
 71
3
 72
8
 73
4
 74
0
 40
0
 40
0
 40
0
 40
0
 40
1
 40
1
 40
1
 40
1
 10
63.029097
 20
73.085447
 30
0.0
 10
63.036391
 20
73.090856
 30
0.0
 10
63.040245
 20
73.099746
 30
0.0
 10
63.039208
 20
73.108767
 30
0.0
  0
SPLINE
  5
147
100
AcDbEntity
  8
1
 62
7
100
AcDbSpline
 70
8
 71
3
 72
8
 73
4
 74
0
 40
0
 40
0
 40
0
 40
0
 40
1
 40
1
 40
1
 40
1
 10
63.039208
 20
73.108767
 30
0.0
 10
63.038171
 20
73.117789
 30
0.0
 10
63.032399
 20
73.125571
 30
0.0
 10
63.024067
 20
73.129184
 30
0.0
  0
LWPOLYLINE
  5
148
100
AcDbEntity
  8
1
 62
7
100
AcDbPolyline
 90
3
 70
0
 10
64.879059
 20
72.434375
 30
0.0
 10
63.014008
 20
73.105914
 30
0.0
 10
61.194781
 20
73.894102
 30
0.0
  0
SPLINE
  5
149
100
AcDbEntity
  8
1
 62
7
100
AcDbSpline
 70
8
 71
3
 72
8
 73
4
 74
0
 40
0
 40
0
 40
0
 40
0
 40
1
 40
1
 40
1
 40
1
 10
43.167446
 20
104.429323
 30
0.0
 10
43.167823
 20
104.443305
 30
0.0
 10
43.156832
 20
104.454964
 30
0.0
 10
43.142852
 20
104.455411
 30
0.0
  0
SPLINE
  5
14a
100
AcDbEntity
  8
1
 62
7
100
AcDbSpline
 70
8
 71
3
 72
8
 73
4
 74
0
 40
0
 40
0
 40
0
 40
0
 40
1
 40
1
 40
1
 40
1
 10
43.142852
 20
104.455411
 30
0.0
 10
43.128873
 20
104.455859
 30
0.0
 10
43.117159
 20
104.444927
 30
0.0
 10
43.116640
 20
104.430950
 30
0.0
  0
SPLINE
  5
14b
100
AcDbEntity
  8
1
 62
7
100
AcDbSpline
 70
8
 71
3
 72
8
 73
4
 74
0
 40
0
 40
0
 40
0
 40
0
 40
1
 40
1
 40
1
 40
1
 10
50.338265
 20
82.355369
 30
0.0
 10
50.332258
 20
82.362178
 30
0.0
 10
50.323074
 20
82.365264
 30
0.0
 10
50.314174
 20
82.363465
 30
0.0
  0
SPLINE
  5
14c
100
AcDbEntity
  8
1
 62
7
100
AcDbSpline
 70
8
 71
3
 72
8
 73
4
 74
0
 40
0
 40
0
 40
0
 40
0
 40
1
 40
1
 40
1
 40
1
 10
50.314174
 20
82.363465
 30
0.0
 10
50.305274
 20
82.361666
 30
0.0
 10
50.298010
 20
82.355255
 30
0.0
 10
50.295119
 20
82.346648
 30
0.0
  0
SPLINE
  5
14d
100
AcDbEntity
  8
1
 62
7
100
AcDbSpline
 70
8
 71
3
 72
8
 73
4
 74
0
 40
0
 40
0
 40
0
 40
0
 40
1
 40
1
 40
1
 40
1
 10
50.295119
 20
82.346648
 30
0.0
 10
50.292228
 20
82.338040
 30
0.0
 10
50.294150
 20
82.328544
 30
0.0
 10
50.300160
 20
82.321737
 30
0.0
  0
SPLINE
  5
14e
100
AcDbEntity
  8
1
 62
7
100
AcDbSpline
 70
8
 71
3
 72
8
 73
4
 74
0
 40
0
 40
0
 40
0
 40
0
 40
1
 40
1
 40
1
 40
1
 10
51.612250
 20
80.834469
 30
0.0
 10
51.621538
 20
80.823951
 30
0.0
 10
51.637594
 20
80.822953
 30
0.0
 10
51.648115
 20
80.832239
 30
0.0
  0
SPLINE
  5
14f
100
AcDbEntity
  8
1
 62
7
100
AcDbSpline
 70
8
 71
3
 72
8
 73
4
 74
0
 40
0
 40
0
 40
0
 40
0
 40
1
 40
1
 40
1
 40
1
 10
51.648115
 20
80.832239
 30
0.0
 10
51.658635
 20
80.841525
 30
0.0
 10
51.659638
 20
80.857580
 30
0.0
 10
51.650355
 20
80.868103
 30
0.0
  0
SPLINE
  5
150
100
AcDbEntity
  8
1
 62
7
100
AcDbSpline
 70
8
 71
3
 72
8
 73
4
 74
0
 40
0
 40
0
 40
0
 40
0
 40
1
 40
1
 40
1
 40
1
 10
44.040375
 20
110.303904
 30
0.0
 10
44.036556
 20
110.290464
 30
0.0
 10
44.044314
 20
110.276464
 30
0.0
 10
44.057735
 20
110.272578
 30
0.0
  0
SPLINE
  5
151
100
AcDbEntity
  8
1
 62
7
100
AcDbSpline
 70
8
 71
3
 72
8
 73
4
 74
0
 40
0
 40
0
 40
0
 40
0
 40
1
 40
1
 40
1
 40
1
 10
44.057735
 20
110.272578
 30
0.0
 10
44.071156
 20
110.268692
 30
0.0
 10
44.085194
 20
110.276380
 30
0.0
 10
44.089148
 20
110.289781
 30
0.0
  0
LWPOLYLINE
  5
152
100
AcDbEntity
  8
1
 62
7
100
AcDbPolyline
 90
2
 70
0
 10
43.080773
 20
102.448642
 30
0.0
 10
43.142043
 20
104.430135
 30
0.0
  0
SPLINE
  5
153
100
AcDbEntity
  8
1
 62
7
100
AcDbSpline
 70
8
 71
3
 72
8
 73
4
 74
0
 40
0
 40
0
 40
0
 40
0
 40
1
 40
1
 40
1
 40
1
 10
59.415998
 20
74.773738
 30
0.0
 10
59.423803
 20
74.769110
 30
0.0
 10
59.433484
 20
74.768997
 30
0.0
 10
59.441395
 20
74.773442
 30
0.0
  0
SPLINE
  5
154
100
AcDbEntity
  8
1
 62
7
100
AcDbSpline
 70
8
 71
3
 72
8
 73
4
 74
0
 40
0
 40
0
 40
0
 40
0
 40
1
 40
1
 40
1
 40
1
 10
59.441395
 20
74.773442
 30
0.0
 10
59.449306
 20
74.777887
 30
0.0
 10
59.454244
 20
74.786215
 30
0.0
 10
59.454350
 20
74.795289
 30
0.0
  0
SPLINE
  5
155
100
AcDbEntity
  8
1
 62
7
100
AcDbSpline
 70
8
 71
3
 72
8
 73
4
 74
0
 40
0
 40
0
 40
0
 40
0
 40
1
 40
1
 40
1
 40
1
 10
59.454350
 20
74.795289
 30
0.0
 10
59.454456
 20
74.804362
 30
0.0
 10
59.449713
 20
74.812803
 30
0.0
 10
59.441908
 20
74.817432
 30
0.0
  0
SPLINE
  5
156
100
AcDbEntity
  8
1
 62
7
100
AcDbSpline
 70
8
 71
3
 72
8
 73
4
 74
0
 40
0
 40
0
 40
0
 40
0
 40
1
 40
1
 40
1
 40
1
 10
59.440487
 20
74.818247
 30
0.0
 10
59.427973
 20
74.824614
 30
0.0
 10
59.412666
 20
74.819632
 30
0.0
 10
59.406297
 20
74.807118
 30
0.0
  0
SPLINE
  5
157
100
AcDbEntity
  8
1
 62
7
100
AcDbSpline
 70
8
 71
3
 72
8
 73
4
 74
0
 40
0
 40
0
 40
0
 40
0
 40
1
 40
1
 40
1
 40
1
 10
59.406297
 20
74.807118
 30
0.0
 10
59.399928
 20
74.794604
 30
0.0
 10
59.404908
 20
74.779297
 30
0.0
 10
59.417421
 20
74.772926
 30
0.0
  0
SPLINE
  5
158
100
AcDbEntity
  8
1
 62
7
100
AcDbSpline
 70
8
 71
3
 72
8
 73
4
 74
0
 40
0
 40
0
 40
0
 40
0
 40
1
 40
1
 40
1
 40
1
 10
57.736081
 20
75.828450
 30
0.0
 10
57.724028
 20
75.835464
 30
0.0
 10
57.708573
 20
75.831449
 30
0.0
 10
57.701460
 20
75.819453
 30
0.0
  0
SPLINE
  5
159
100
AcDbEntity
  8
1
 62
7
100
AcDbSpline
 70
8
 71
3
 72
8
 73
4
 74
0
 40
0
 40
0
 40
0
 40
0
 40
1
 40
1
 40
1
 40
1
 10
57.701460
 20
75.819453
 30
0.0
 10
57.694346
 20
75.807458
 30
0.0
 10
57.698234
 20
75.791971
 30
0.0
 10
57.710171
 20
75.784759
 30
0.0
  0
LWPOLYLINE
  5
15a
100
AcDbEntity
  8
1
 62
7
100
AcDbPolyline
 90
3
 70
0
 10
61.194781
 20
73.894102
 30
0.0
 10
59.429004
 20
74.795585
 30
0.0
 10
57.723074
 20
75.806603
 30
0.0
  0
LWPOLYLINE
  5
15b
100
AcDbEntity
  8
1
 62
7
100
AcDbPolyline
 90
2
 70
0
 10
43.080773
 20
102.448642
 30
0.0
 10
43.142043
 20
104.430135
 30
0.0
  0
SPLINE
  5
15c
100
AcDbEntity
  8
1
 62
7
100
AcDbSpline
 70
8
 71
3
 72
8
 73
4
 74
0
 40
0
 40
0
 40
0
 40
0
 40
1
 40
1
 40
1
 40
1
 10
49.082669
 20
83.889272
 30
0.0
 10
49.090555
 20
83.877686
 30
0.0
 10
49.106339
 20
83.874685
 30
0.0
 10
49.117926
 20
83.882569
 30
0.0
  0
SPLINE
  5
15d
100
AcDbEntity
  8
1
 62
7
100
AcDbSpline
 70
8
 71
3
 72
8
 73
4
 74
0
 40
0
 40
0
 40
0
 40
0
 40
1
 40
1
 40
1
 40
1
 10
49.117926
 20
83.882569
 30
0.0
 10
49.129514
 20
83.890453
 30
0.0
 10
49.132517
 20
83.906237
 30
0.0
 10
49.124635
 20
83.917826
 30
0.0
  0
LWPOLYLINE
  5
15e
100
AcDbEntity
  8
1
 62
7
100
AcDbPolyline
 90
2
 70
0
 10
49.103703
 20
83.903599
 30
0.0
 10
47.988432
 20
85.541552
 30
0.0
  0
SPLINE
  5
15f
100
AcDbEntity
  8
1
 62
7
100
AcDbSpline
 70
8
 71
3
 72
8
 73
4
 74
0
 40
0
 40
0
 40
0
 40
0
 40
1
 40
1
 40
1
 40
1
 10
48.009463
 20
85.555779
 30
0.0
 10
48.001541
 20
85.567266
 30
0.0
 10
47.985831
 20
85.570201
 30
0.0
 10
47.974295
 20
85.562352
 30
0.0
  0
SPLINE
  5
160
100
AcDbEntity
  8
1
 62
7
100
AcDbSpline
 70
8
 71
3
 72
8
 73
4
 74
0
 40
0
 40
0
 40
0
 40
0
 40
1
 40
1
 40
1
 40
1
 10
47.974295
 20
85.562352
 30
0.0
 10
47.962759
 20
85.554502
 30
0.0
 10
47.959724
 20
85.538811
 30
0.0
 10
47.967500
 20
85.527225
 30
0.0
  0
SPLINE
  5
161
100
AcDbEntity
  8
1
 62
7
100
AcDbSpline
 70
8
 71
3
 72
8
 73
4
 74
0
 40
0
 40
0
 40
0
 40
0
 40
1
 40
1
 40
1
 40
1
 10
44.641095
 20
112.192936
 30
0.0
 10
44.643670
 20
112.201665
 30
0.0
 10
44.641375
 20
112.211104
 30
0.0
 10
44.635081
 20
112.217677
 30
0.0
  0
SPLINE
  5
162
100
AcDbEntity
  8
1
 62
7
100
AcDbSpline
 70
8
 71
3
 72
8
 73
4
 74
0
 40
0
 40
0
 40
0
 40
0
 40
1
 40
1
 40
1
 40
1
 10
44.635081
 20
112.217677
 30
0.0
 10
44.628787
 20
112.224250
 30
0.0
 10
44.619456
 20
112.226952
 30
0.0
 10
44.610624
 20
112.224758
 30
0.0
  0
SPLINE
  5
163
100
AcDbEntity
  8
1
 62
7
100
AcDbSpline
 70
8
 71
3
 72
8
 73
4
 74
0
 40
0
 40
0
 40
0
 40
0
 40
1
 40
1
 40
1
 40
1
 10
44.610624
 20
112.224758
 30
0.0
 10
44.601792
 20
112.222565
 30
0.0
 10
44.594809
 20
112.215811
 30
0.0
 10
44.592322
 20
112.207057
 30
0.0
  0
SPLINE
  5
164
100
AcDbEntity
  8
1
 62
7
100
AcDbSpline
 70
8
 71
3
 72
8
 73
4
 74
0
 40
0
 40
0
 40
0
 40
0
 40
1
 40
1
 40
1
 40
1
 10
43.055471
 20
102.449351
 30
0.0
 10
43.055157
 20
102.435421
 30
0.0
 10
43.066139
 20
102.423846
 30
0.0
 10
43.080066
 20
102.423428
 30
0.0
  0
SPLINE
  5
165
100
AcDbEntity
  8
1
 62
7
100
AcDbSpline
 70
8
 71
3
 72
8
 73
4
 74
0
 40
0
 40
0
 40
0
 40
0
 40
1
 40
1
 40
1
 40
1
 10
43.080066
 20
102.423428
 30
0.0
 10
43.093993
 20
102.423009
 30
0.0
 10
43.105650
 20
102.433903
 30
0.0
 10
43.106173
 20
102.447827
 30
0.0
  0
SPLINE
  5
166
100
AcDbEntity
  8
1
 62
7
100
AcDbSpline
 70
8
 71
3
 72
8
 73
4
 74
0
 40
0
 40
0
 40
0
 40
0
 40
1
 40
1
 40
1
 40
1
 10
43.167446
 20
104.429323
 30
0.0
 10
43.167823
 20
104.443305
 30
0.0
 10
43.156832
 20
104.454964
 30
0.0
 10
43.142852
 20
104.455411
 30
0.0
  0
SPLINE
  5
167
100
AcDbEntity
  8
1
 62
7
100
AcDbSpline
 70
8
 71
3
 72
8
 73
4
 74
0
 40
0
 40
0
 40
0
 40
0
 40
1
 40
1
 40
1
 40
1
 10
43.142852
 20
104.455411
 30
0.0
 10
43.128873
 20
104.455859
 30
0.0
 10
43.117159
 20
104.444927
 30
0.0
 10
43.116640
 20
104.430950
 30
0.0
  0
LWPOLYLINE
  5
168
100
AcDbEntity
  8
1
 62
7
100
AcDbPolyline
 90
3
 70
0
 10
44.064761
 20
110.296792
 30
0.0
 10
44.616709
 20
112.199948
 30
0.0
 10
45.288248
 20
114.064998
 30
0.0
  0
SPLINE
  5
169
100
AcDbEntity
  8
1
 62
7
100
AcDbSpline
 70
8
 71
3
 72
8
 73
4
 74
0
 40
0
 40
0
 40
0
 40
0
 40
1
 40
1
 40
1
 40
1
 10
61.183200
 20
73.871443
 30
0.0
 10
61.191301
 20
73.867251
 30
0.0
 10
61.201026
 20
73.867716
 30
0.0
 10
61.208691
 20
73.872662
 30
0.0
  0
SPLINE
  5
16a
100
AcDbEntity
  8
1
 62
7
100
AcDbSpline
 70
8
 71
3
 72
8
 73
4
 74
0
 40
0
 40
0
 40
0
 40
0
 40
1
 40
1
 40
1
 40
1
 10
61.208691
 20
73.872662
 30
0.0
 10
61.216356
 20
73.877607
 30
0.0
 10
61.220787
 20
73.886276
 30
0.0
 10
61.220307
 20
73.895385
 30
0.0
  0
SPLINE
  5
16b
100
AcDbEntity
  8
1
 62
7
100
AcDbSpline
 70
8
 71
3
 72
8
 73
4
 74
0
 40
0
 40
0
 40
0
 40
0
 40
1
 40
1
 40
1
 40
1
 10
61.220307
 20
73.895385
 30
0.0
 10
61.219827
 20
73.904494
 30
0.0
 10
61.214509
 20
73.912649
 30
0.0
 10
61.206367
 20
73.916761
 30
0.0
  0
LWPOLYLINE
  5
16c
100
AcDbEntity
  8
1
 62
7
100
AcDbPolyline
 90
2
 70
0
 10
51.631353
 20
80.851337
 30
0.0
 10
50.319263
 20
82.338605
 30
0.0
  0
LWPOLYLINE
  5
16d
100
AcDbEntity
  8
1
 62
7
100
AcDbPolyline
 90
2
 70
0
 10
61.194781
 20
73.894102
 30
0.0
 10
59.429004
 20
74.795585
 30
0.0
  0
SPLINE
  5
16e
100
AcDbEntity
  8
1
 62
7
100
AcDbSpline
 70
8
 71
3
 72
8
 73
4
 74
0
 40
0
 40
0
 40
0
 40
0
 40
1
 40
1
 40
1
 40
1
 10
43.055471
 20
102.449351
 30
0.0
 10
43.055157
 20
102.435421
 30
0.0
 10
43.066139
 20
102.423846
 30
0.0
 10
43.080066
 20
102.423428
 30
0.0
  0
SPLINE
  5
16f
100
AcDbEntity
  8
1
 62
7
100
AcDbSpline
 70
8
 71
3
 72
8
 73
4
 74
0
 40
0
 40
0
 40
0
 40
0
 40
1
 40
1
 40
1
 40
1
 10
43.080066
 20
102.423428
 30
0.0
 10
43.093993
 20
102.423009
 30
0.0
 10
43.105650
 20
102.433903
 30
0.0
 10
43.106173
 20
102.447827
 30
0.0
  0
SPLINE
  5
170
100
AcDbEntity
  8
1
 62
7
100
AcDbSpline
 70
8
 71
3
 72
8
 73
4
 74
0
 40
0
 40
0
 40
0
 40
0
 40
1
 40
1
 40
1
 40
1
 10
49.082669
 20
83.889272
 30
0.0
 10
49.090555
 20
83.877686
 30
0.0
 10
49.106339
 20
83.874685
 30
0.0
 10
49.117926
 20
83.882569
 30
0.0
  0
SPLINE
  5
171
100
AcDbEntity
  8
1
 62
7
100
AcDbSpline
 70
8
 71
3
 72
8
 73
4
 74
0
 40
0
 40
0
 40
0
 40
0
 40
1
 40
1
 40
1
 40
1
 10
49.117926
 20
83.882569
 30
0.0
 10
49.129514
 20
83.890453
 30
0.0
 10
49.132517
 20
83.906237
 30
0.0
 10
49.124635
 20
83.917826
 30
0.0
  0
SPLINE
  5
172
100
AcDbEntity
  8
1
 62
7
100
AcDbSpline
 70
8
 71
3
 72
8
 73
4
 74
0
 40
0
 40
0
 40
0
 40
0
 40
1
 40
1
 40
1
 40
1
 10
59.440487
 20
74.818247
 30
0.0
 10
59.427973
 20
74.824614
 30
0.0
 10
59.412666
 20
74.819632
 30
0.0
 10
59.406297
 20
74.807118
 30
0.0
  0
SPLINE
  5
173
100
AcDbEntity
  8
1
 62
7
100
AcDbSpline
 70
8
 71
3
 72
8
 73
4
 74
0
 40
0
 40
0
 40
0
 40
0
 40
1
 40
1
 40
1
 40
1
 10
59.406297
 20
74.807118
 30
0.0
 10
59.399928
 20
74.794604
 30
0.0
 10
59.404908
 20
74.779297
 30
0.0
 10
59.417421
 20
74.772926
 30
0.0
  0
SPLINE
  5
174
100
AcDbEntity
  8
1
 62
7
100
AcDbSpline
 70
8
 71
3
 72
8
 73
4
 74
0
 40
0
 40
0
 40
0
 40
0
 40
1
 40
1
 40
1
 40
1
 10
48.009463
 20
85.555779
 30
0.0
 10
48.001541
 20
85.567266
 30
0.0
 10
47.985831
 20
85.570201
 30
0.0
 10
47.974295
 20
85.562352
 30
0.0
  0
SPLINE
  5
175
100
AcDbEntity
  8
1
 62
7
100
AcDbSpline
 70
8
 71
3
 72
8
 73
4
 74
0
 40
0
 40
0
 40
0
 40
0
 40
1
 40
1
 40
1
 40
1
 10
47.974295
 20
85.562352
 30
0.0
 10
47.962759
 20
85.554502
 30
0.0
 10
47.959724
 20
85.538811
 30
0.0
 10
47.967500
 20
85.527225
 30
0.0
  0
SPLINE
  5
176
100
AcDbEntity
  8
1
 62
7
100
AcDbSpline
 70
8
 71
3
 72
8
 73
4
 74
0
 40
0
 40
0
 40
0
 40
0
 40
1
 40
1
 40
1
 40
1
 10
61.183200
 20
73.871443
 30
0.0
 10
61.191301
 20
73.867251
 30
0.0
 10
61.201026
 20
73.867716
 30
0.0
 10
61.208691
 20
73.872662
 30
0.0
  0
SPLINE
  5
177
100
AcDbEntity
  8
1
 62
7
100
AcDbSpline
 70
8
 71
3
 72
8
 73
4
 74
0
 40
0
 40
0
 40
0
 40
0
 40
1
 40
1
 40
1
 40
1
 10
61.208691
 20
73.872662
 30
0.0
 10
61.216356
 20
73.877607
 30
0.0
 10
61.220787
 20
73.886276
 30
0.0
 10
61.220307
 20
73.895385
 30
0.0
  0
SPLINE
  5
178
100
AcDbEntity
  8
1
 62
7
100
AcDbSpline
 70
8
 71
3
 72
8
 73
4
 74
0
 40
0
 40
0
 40
0
 40
0
 40
1
 40
1
 40
1
 40
1
 10
61.220307
 20
73.895385
 30
0.0
 10
61.219827
 20
73.904494
 30
0.0
 10
61.214509
 20
73.912649
 30
0.0
 10
61.206367
 20
73.916761
 30
0.0
  0
LWPOLYLINE
  5
179
100
AcDbEntity
  8
1
 62
7
100
AcDbPolyline
 90
2
 70
0
 10
49.103703
 20
83.903599
 30
0.0
 10
47.988432
 20
85.541552
 30
0.0
  0
SPLINE
  5
17a
100
AcDbEntity
  8
1
 62
7
100
AcDbSpline
 70
8
 71
3
 72
8
 73
4
 74
0
 40
0
 40
0
 40
0
 40
0
 40
1
 40
1
 40
1
 40
1
 10
57.736081
 20
75.828450
 30
0.0
 10
57.724028
 20
75.835464
 30
0.0
 10
57.708573
 20
75.831449
 30
0.0
 10
57.701460
 20
75.819453
 30
0.0
  0
SPLINE
  5
17b
100
AcDbEntity
  8
1
 62
7
100
AcDbSpline
 70
8
 71
3
 72
8
 73
4
 74
0
 40
0
 40
0
 40
0
 40
0
 40
1
 40
1
 40
1
 40
1
 10
57.701460
 20
75.819453
 30
0.0
 10
57.694346
 20
75.807458
 30
0.0
 10
57.698234
 20
75.791971
 30
0.0
 10
57.710171
 20
75.784759
 30
0.0
  0
SPLINE
  5
17c
100
AcDbEntity
  8
1
 62
7
100
AcDbSpline
 70
8
 71
3
 72
8
 73
4
 74
0
 40
0
 40
0
 40
0
 40
0
 40
1
 40
1
 40
1
 40
1
 10
51.612250
 20
80.834469
 30
0.0
 10
51.621538
 20
80.823951
 30
0.0
 10
51.637594
 20
80.822953
 30
0.0
 10
51.648115
 20
80.832239
 30
0.0
  0
SPLINE
  5
17d
100
AcDbEntity
  8
1
 62
7
100
AcDbSpline
 70
8
 71
3
 72
8
 73
4
 74
0
 40
0
 40
0
 40
0
 40
0
 40
1
 40
1
 40
1
 40
1
 10
51.648115
 20
80.832239
 30
0.0
 10
51.658635
 20
80.841525
 30
0.0
 10
51.659638
 20
80.857580
 30
0.0
 10
51.650355
 20
80.868103
 30
0.0
  0
SPLINE
  5
17e
100
AcDbEntity
  8
1
 62
7
100
AcDbSpline
 70
8
 71
3
 72
8
 73
4
 74
0
 40
0
 40
0
 40
0
 40
0
 40
1
 40
1
 40
1
 40
1
 10
50.338265
 20
82.355369
 30
0.0
 10
50.332258
 20
82.362178
 30
0.0
 10
50.323074
 20
82.365264
 30
0.0
 10
50.314174
 20
82.363465
 30
0.0
  0
SPLINE
  5
17f
100
AcDbEntity
  8
1
 62
7
100
AcDbSpline
 70
8
 71
3
 72
8
 73
4
 74
0
 40
0
 40
0
 40
0
 40
0
 40
1
 40
1
 40
1
 40
1
 10
50.314174
 20
82.363465
 30
0.0
 10
50.305274
 20
82.361666
 30
0.0
 10
50.298010
 20
82.355255
 30
0.0
 10
50.295119
 20
82.346648
 30
0.0
  0
SPLINE
  5
180
100
AcDbEntity
  8
1
 62
7
100
AcDbSpline
 70
8
 71
3
 72
8
 73
4
 74
0
 40
0
 40
0
 40
0
 40
0
 40
1
 40
1
 40
1
 40
1
 10
50.295119
 20
82.346648
 30
0.0
 10
50.292228
 20
82.338040
 30
0.0
 10
50.294150
 20
82.328544
 30
0.0
 10
50.300160
 20
82.321737
 30
0.0
  0
LWPOLYLINE
  5
181
100
AcDbEntity
  8
1
 62
7
100
AcDbPolyline
 90
2
 70
0
 10
51.631353
 20
80.851337
 30
0.0
 10
50.319263
 20
82.338605
 30
0.0
  0
SPLINE
  5
182
100
AcDbEntity
  8
1
 62
7
100
AcDbSpline
 70
8
 71
3
 72
8
 73
4
 74
0
 40
0
 40
0
 40
0
 40
0
 40
1
 40
1
 40
1
 40
1
 10
44.040375
 20
110.303904
 30
0.0
 10
44.036556
 20
110.290464
 30
0.0
 10
44.044314
 20
110.276464
 30
0.0
 10
44.057735
 20
110.272578
 30
0.0
  0
SPLINE
  5
183
100
AcDbEntity
  8
1
 62
7
100
AcDbSpline
 70
8
 71
3
 72
8
 73
4
 74
0
 40
0
 40
0
 40
0
 40
0
 40
1
 40
1
 40
1
 40
1
 10
44.057735
 20
110.272578
 30
0.0
 10
44.071156
 20
110.268692
 30
0.0
 10
44.085194
 20
110.276380
 30
0.0
 10
44.089148
 20
110.289781
 30
0.0
  0
LWPOLYLINE
  5
184
100
AcDbEntity
  8
1
 62
7
100
AcDbPolyline
 90
2
 70
0
 10
44.064761
 20
110.296792
 30
0.0
 10
44.616709
 20
112.199948
 30
0.0
  0
SPLINE
  5
185
100
AcDbEntity
  8
1
 62
7
100
AcDbSpline
 70
8
 71
3
 72
8
 73
4
 74
0
 40
0
 40
0
 40
0
 40
0
 40
1
 40
1
 40
1
 40
1
 10
44.641095
 20
112.192936
 30
0.0
 10
44.643670
 20
112.201665
 30
0.0
 10
44.641375
 20
112.211104
 30
0.0
 10
44.635081
 20
112.217677
 30
0.0
  0
SPLINE
  5
186
100
AcDbEntity
  8
1
 62
7
100
AcDbSpline
 70
8
 71
3
 72
8
 73
4
 74
0
 40
0
 40
0
 40
0
 40
0
 40
1
 40
1
 40
1
 40
1
 10
44.635081
 20
112.217677
 30
0.0
 10
44.628787
 20
112.224250
 30
0.0
 10
44.619456
 20
112.226952
 30
0.0
 10
44.610624
 20
112.224758
 30
0.0
  0
SPLINE
  5
187
100
AcDbEntity
  8
1
 62
7
100
AcDbSpline
 70
8
 71
3
 72
8
 73
4
 74
0
 40
0
 40
0
 40
0
 40
0
 40
1
 40
1
 40
1
 40
1
 10
44.610624
 20
112.224758
 30
0.0
 10
44.601792
 20
112.222565
 30
0.0
 10
44.594809
 20
112.215811
 30
0.0
 10
44.592322
 20
112.207057
 30
0.0
  0
SPLINE
  5
188
100
AcDbEntity
  8
1
 62
7
100
AcDbSpline
 70
8
 71
3
 72
8
 73
4
 74
0
 40
0
 40
0
 40
0
 40
0
 40
1
 40
1
 40
1
 40
1
 10
44.592830
 20
112.208584
 30
0.0
 10
44.588088
 20
112.195396
 30
0.0
 10
44.594935
 20
112.180861
 30
0.0
 10
44.608123
 20
112.176119
 30
0.0
  0
SPLINE
  5
189
100
AcDbEntity
  8
1
 62
7
100
AcDbSpline
 70
8
 71
3
 72
8
 73
4
 74
0
 40
0
 40
0
 40
0
 40
0
 40
1
 40
1
 40
1
 40
1
 10
44.608123
 20
112.176119
 30
0.0
 10
44.621311
 20
112.171378
 30
0.0
 10
44.635846
 20
112.178225
 30
0.0
 10
44.640587
 20
112.191412
 30
0.0
  0
LWPOLYLINE
  5
18a
100
AcDbEntity
  8
1
 62
7
100
AcDbPolyline
 90
2
 70
0
 10
59.429004
 20
74.795585
 30
0.0
 10
57.723074
 20
75.806603
 30
0.0
  0
LWPOLYLINE
  5
18b
100
AcDbEntity
  8
1
 62
7
100
AcDbPolyline
 90
2
 70
0
 10
46.977514
 20
87.247379
 30
0.0
 10
46.076436
 20
89.012447
 30
0.0
  0
SPLINE
  5
18c
100
AcDbEntity
  8
1
 62
7
100
AcDbSpline
 70
8
 71
3
 72
8
 73
4
 74
0
 40
0
 40
0
 40
0
 40
0
 40
1
 40
1
 40
1
 40
1
 10
46.954855
 20
87.235899
 30
0.0
 10
46.958976
 20
87.227804
 30
0.0
 10
46.967102
 20
87.222522
 30
0.0
 10
46.976173
 20
87.222043
 30
0.0
  0
SPLINE
  5
18d
100
AcDbEntity
  8
1
 62
7
100
AcDbSpline
 70
8
 71
3
 72
8
 73
4
 74
0
 40
0
 40
0
 40
0
 40
0
 40
1
 40
1
 40
1
 40
1
 10
46.976173
 20
87.222043
 30
0.0
 10
46.985244
 20
87.221563
 30
0.0
 10
46.993881
 20
87.225960
 30
0.0
 10
46.998832
 20
87.233576
 30
0.0
  0
SPLINE
  5
18e
100
AcDbEntity
  8
1
 62
7
100
AcDbSpline
 70
8
 71
3
 72
8
 73
4
 74
0
 40
0
 40
0
 40
0
 40
0
 40
1
 40
1
 40
1
 40
1
 10
46.998832
 20
87.233576
 30
0.0
 10
47.003782
 20
87.241192
 30
0.0
 10
47.004294
 20
87.250870
 30
0.0
 10
47.000173
 20
87.258966
 30
0.0
  0
SPLINE
  5
18f
100
AcDbEntity
  8
1
 62
7
100
AcDbSpline
 70
8
 71
3
 72
8
 73
4
 74
0
 40
0
 40
0
 40
0
 40
0
 40
1
 40
1
 40
1
 40
1
 10
59.415998
 20
74.773738
 30
0.0
 10
59.423803
 20
74.769110
 30
0.0
 10
59.433484
 20
74.768997
 30
0.0
 10
59.441395
 20
74.773442
 30
0.0
  0
SPLINE
  5
190
100
AcDbEntity
  8
1
 62
7
100
AcDbSpline
 70
8
 71
3
 72
8
 73
4
 74
0
 40
0
 40
0
 40
0
 40
0
 40
1
 40
1
 40
1
 40
1
 10
59.441395
 20
74.773442
 30
0.0
 10
59.449306
 20
74.777887
 30
0.0
 10
59.454244
 20
74.786215
 30
0.0
 10
59.454350
 20
74.795289
 30
0.0
  0
SPLINE
  5
191
100
AcDbEntity
  8
1
 62
7
100
AcDbSpline
 70
8
 71
3
 72
8
 73
4
 74
0
 40
0
 40
0
 40
0
 40
0
 40
1
 40
1
 40
1
 40
1
 10
59.454350
 20
74.795289
 30
0.0
 10
59.454456
 20
74.804362
 30
0.0
 10
59.449713
 20
74.812803
 30
0.0
 10
59.441908
 20
74.817432
 30
0.0
  0
LWPOLYLINE
  5
192
100
AcDbEntity
  8
1
 62
7
100
AcDbPolyline
 90
2
 70
0
 10
45.288351
 20
90.831267
 30
0.0
 10
44.616912
 20
92.696113
 30
0.0
  0
SPLINE
  5
193
100
AcDbEntity
  8
1
 62
7
100
AcDbSpline
 70
8
 71
3
 72
8
 73
4
 74
0
 40
0
 40
0
 40
0
 40
0
 40
1
 40
1
 40
1
 40
1
 10
45.312126
 20
114.056360
 30
0.0
 10
45.315305
 20
114.064931
 30
0.0
 10
45.313640
 20
114.074549
 30
0.0
 10
45.307765
 20
114.081554
 30
0.0
  0
SPLINE
  5
194
100
AcDbEntity
  8
1
 62
7
100
AcDbSpline
 70
8
 71
3
 72
8
 73
4
 74
0
 40
0
 40
0
 40
0
 40
0
 40
1
 40
1
 40
1
 40
1
 10
45.307765
 20
114.081554
 30
0.0
 10
45.301891
 20
114.088558
 30
0.0
 10
45.292710
 20
114.091872
 30
0.0
 10
45.283715
 20
114.090235
 30
0.0
  0
SPLINE
  5
195
100
AcDbEntity
  8
1
 62
7
100
AcDbSpline
 70
8
 71
3
 72
8
 73
4
 74
0
 40
0
 40
0
 40
0
 40
0
 40
1
 40
1
 40
1
 40
1
 10
45.283715
 20
114.090235
 30
0.0
 10
45.274721
 20
114.088597
 30
0.0
 10
45.267297
 20
114.082260
 30
0.0
 10
45.264268
 20
114.073634
 30
0.0
  0
SPLINE
  5
196
100
AcDbEntity
  8
1
 62
7
100
AcDbSpline
 70
8
 71
3
 72
8
 73
4
 74
0
 40
0
 40
0
 40
0
 40
0
 40
1
 40
1
 40
1
 40
1
 10
45.264472
 20
90.822731
 30
0.0
 10
45.269214
 20
90.809543
 30
0.0
 10
45.283749
 20
90.802696
 30
0.0
 10
45.296937
 20
90.807438
 30
0.0
  0
SPLINE
  5
197
100
AcDbEntity
  8
1
 62
7
100
AcDbSpline
 70
8
 71
3
 72
8
 73
4
 74
0
 40
0
 40
0
 40
0
 40
0
 40
1
 40
1
 40
1
 40
1
 10
45.296937
 20
90.807438
 30
0.0
 10
45.310124
 20
90.812180
 30
0.0
 10
45.316971
 20
90.826715
 30
0.0
 10
45.312229
 20
90.839903
 30
0.0
  0
SPLINE
  5
198
100
AcDbEntity
  8
1
 62
7
100
AcDbSpline
 70
8
 71
3
 72
8
 73
4
 74
0
 40
0
 40
0
 40
0
 40
0
 40
1
 40
1
 40
1
 40
1
 10
46.099095
 20
89.024033
 30
0.0
 10
46.094975
 20
89.032110
 30
0.0
 10
46.086858
 20
89.037376
 30
0.0
 10
46.077803
 20
89.037846
 30
0.0
  0
SPLINE
  5
199
100
AcDbEntity
  8
1
 62
7
100
AcDbSpline
 70
8
 71
3
 72
8
 73
4
 74
0
 40
0
 40
0
 40
0
 40
0
 40
1
 40
1
 40
1
 40
1
 10
46.077803
 20
89.037846
 30
0.0
 10
46.068747
 20
89.038316
 30
0.0
 10
46.060129
 20
89.033920
 30
0.0
 10
46.055194
 20
89.026313
 30
0.0
  0
SPLINE
  5
19a
100
AcDbEntity
  8
1
 62
7
100
AcDbSpline
 70
8
 71
3
 72
8
 73
4
 74
0
 40
0
 40
0
 40
0
 40
0
 40
1
 40
1
 40
1
 40
1
 10
46.055194
 20
89.026313
 30
0.0
 10
46.050259
 20
89.018706
 30
0.0
 10
46.049757
 20
89.009044
 30
0.0
 10
46.053878
 20
89.000966
 30
0.0
  0
LWPOLYLINE
  5
19b
100
AcDbEntity
  8
1
 62
7
100
AcDbPolyline
 90
2
 70
0
 10
44.616709
 20
112.199948
 30
0.0
 10
45.288248
 20
114.064998
 30
0.0
  0
SPLINE
  5
19c
100
AcDbEntity
  8
1
 62
7
100
AcDbSpline
 70
8
 71
3
 72
8
 73
4
 74
0
 40
0
 40
0
 40
0
 40
0
 40
1
 40
1
 40
1
 40
1
 10
43.659134
 20
108.357666
 30
0.0
 10
43.660608
 20
108.366668
 30
0.0
 10
43.657143
 20
108.375768
 30
0.0
 10
43.650055
 20
108.381510
 30
0.0
  0
SPLINE
  5
19d
100
AcDbEntity
  8
1
 62
7
100
AcDbSpline
 70
8
 71
3
 72
8
 73
4
 74
0
 40
0
 40
0
 40
0
 40
0
 40
1
 40
1
 40
1
 40
1
 10
43.650055
 20
108.381510
 30
0.0
 10
43.642967
 20
108.387251
 30
0.0
 10
43.633344
 20
108.388751
 30
0.0
 10
43.624845
 20
108.385439
 30
0.0
  0
SPLINE
  5
19e
100
AcDbEntity
  8
1
 62
7
100
AcDbSpline
 70
8
 71
3
 72
8
 73
4
 74
0
 40
0
 40
0
 40
0
 40
0
 40
1
 40
1
 40
1
 40
1
 10
43.624845
 20
108.385439
 30
0.0
 10
43.616346
 20
108.382127
 30
0.0
 10
43.610275
 20
108.374513
 30
0.0
 10
43.608940
 20
108.365490
 30
0.0
  0
SPLINE
  5
19f
100
AcDbEntity
  8
1
 62
7
100
AcDbSpline
 70
8
 71
3
 72
8
 73
4
 74
0
 40
0
 40
0
 40
0
 40
0
 40
1
 40
1
 40
1
 40
1
 10
43.301166
 20
106.406859
 30
0.0
 10
43.299199
 20
106.393096
 30
0.0
 10
43.308662
 20
106.380309
 30
0.0
 10
43.322399
 20
106.378168
 30
0.0
  0
SPLINE
  5
1a0
100
AcDbEntity
  8
1
 62
7
100
AcDbSpline
 70
8
 71
3
 72
8
 73
4
 74
0
 40
0
 40
0
 40
0
 40
0
 40
1
 40
1
 40
1
 40
1
 10
43.322399
 20
106.378168
 30
0.0
 10
43.336136
 20
106.376026
 30
0.0
 10
43.349042
 20
106.385326
 30
0.0
 10
43.351357
 20
106.399035
 30
0.0
  0
LWPOLYLINE
  5
1a1
100
AcDbEntity
  8
1
 62
7
100
AcDbPolyline
 90
2
 70
0
 10
43.326262
 20
106.402996
 30
0.0
 10
43.634038
 20
108.361630
 30
0.0
  0
SPLINE
  5
1a2
100
AcDbEntity
  8
1
 62
7
100
AcDbSpline
 70
8
 71
3
 72
8
 73
4
 74
0
 40
0
 40
0
 40
0
 40
0
 40
1
 40
1
 40
1
 40
1
 10
44.640788
 20
92.704752
 30
0.0
 10
44.637755
 20
92.713353
 30
0.0
 10
44.630342
 20
92.719667
 30
0.0
 10
44.621367
 20
92.721293
 30
0.0
  0
SPLINE
  5
1a3
100
AcDbEntity
  8
1
 62
7
100
AcDbSpline
 70
8
 71
3
 72
8
 73
4
 74
0
 40
0
 40
0
 40
0
 40
0
 40
1
 40
1
 40
1
 40
1
 10
44.621367
 20
92.721293
 30
0.0
 10
44.612393
 20
92.722919
 30
0.0
 10
44.603236
 20
92.719606
 30
0.0
 10
44.597378
 20
92.712615
 30
0.0
  0
SPLINE
  5
1a4
100
AcDbEntity
  8
1
 62
7
100
AcDbSpline
 70
8
 71
3
 72
8
 73
4
 74
0
 40
0
 40
0
 40
0
 40
0
 40
1
 40
1
 40
1
 40
1
 10
44.597378
 20
92.712615
 30
0.0
 10
44.591520
 20
92.705624
 30
0.0
 10
44.589862
 20
92.696029
 30
0.0
 10
44.593034
 20
92.687477
 30
0.0
  0
SPLINE
  5
1a5
100
AcDbEntity
  8
1
 62
7
100
AcDbSpline
 70
8
 71
3
 72
8
 73
4
 74
0
 40
0
 40
0
 40
0
 40
0
 40
1
 40
1
 40
1
 40
1
 10
56.099652
 20
76.942705
 30
0.0
 10
56.088067
 20
76.950483
 30
0.0
 10
56.072377
 20
76.947462
 30
0.0
 10
56.064508
 20
76.935938
 30
0.0
  0
SPLINE
  5
1a6
100
AcDbEntity
  8
1
 62
7
100
AcDbSpline
 70
8
 71
3
 72
8
 73
4
 74
0
 40
0
 40
0
 40
0
 40
0
 40
1
 40
1
 40
1
 40
1
 10
56.064508
 20
76.935938
 30
0.0
 10
56.056639
 20
76.924415
 30
0.0
 10
56.059536
 20
76.908702
 30
0.0
 10
56.070997
 20
76.900742
 30
0.0
  0
SPLINE
  5
1a7
100
AcDbEntity
  8
1
 62
7
100
AcDbSpline
 70
8
 71
3
 72
8
 73
4
 74
0
 40
0
 40
0
 40
0
 40
0
 40
1
 40
1
 40
1
 40
1
 10
57.708850
 20
75.785574
 30
0.0
 10
57.720435
 20
75.777851
 30
0.0
 10
57.736078
 20
75.780903
 30
0.0
 10
57.743910
 20
75.792414
 30
0.0
  0
SPLINE
  5
1a8
100
AcDbEntity
  8
1
 62
7
100
AcDbSpline
 70
8
 71
3
 72
8
 73
4
 74
0
 40
0
 40
0
 40
0
 40
0
 40
1
 40
1
 40
1
 40
1
 10
57.743910
 20
75.792414
 30
0.0
 10
57.751741
 20
75.803925
 30
0.0
 10
57.748838
 20
75.819596
 30
0.0
 10
57.737401
 20
75.827537
 30
0.0
  0
LWPOLYLINE
  5
1a9
100
AcDbEntity
  8
1
 62
7
100
AcDbPolyline
 90
2
 70
0
 10
45.288248
 20
114.064998
 30
0.0
 10
46.076436
 20
115.884123
 30
0.0
  0
SPLINE
  5
1aa
100
AcDbEntity
  8
1
 62
7
100
AcDbSpline
 70
8
 71
3
 72
8
 73
4
 74
0
 40
0
 40
0
 40
0
 40
0
 40
1
 40
1
 40
1
 40
1
 10
43.351259
 20
98.498452
 30
0.0
 10
43.349861
 20
98.507419
 30
0.0
 10
43.343786
 20
98.514959
 30
0.0
 10
43.335321
 20
98.518232
 30
0.0
  0
SPLINE
  5
1ab
100
AcDbEntity
  8
1
 62
7
100
AcDbSpline
 70
8
 71
3
 72
8
 73
4
 74
0
 40
0
 40
0
 40
0
 40
0
 40
1
 40
1
 40
1
 40
1
 10
43.335321
 20
98.518232
 30
0.0
 10
43.326857
 20
98.521504
 30
0.0
 10
43.317289
 20
98.520012
 30
0.0
 10
43.310223
 20
98.514318
 30
0.0
  0
SPLINE
  5
1ac
100
AcDbEntity
  8
1
 62
7
100
AcDbSpline
 70
8
 71
3
 72
8
 73
4
 74
0
 40
0
 40
0
 40
0
 40
0
 40
1
 40
1
 40
1
 40
1
 10
43.310223
 20
98.514318
 30
0.0
 10
43.303157
 20
98.508624
 30
0.0
 10
43.299665
 20
98.499593
 30
0.0
 10
43.301063
 20
98.490626
 30
0.0
  0
SPLINE
  5
1ad
100
AcDbEntity
  8
1
 62
7
100
AcDbSpline
 70
8
 71
3
 72
8
 73
4
 74
0
 40
0
 40
0
 40
0
 40
0
 40
1
 40
1
 40
1
 40
1
 10
44.592830
 20
112.208584
 30
0.0
 10
44.588088
 20
112.195396
 30
0.0
 10
44.594935
 20
112.180861
 30
0.0
 10
44.608123
 20
112.176119
 30
0.0
  0
SPLINE
  5
1ae
100
AcDbEntity
  8
1
 62
7
100
AcDbSpline
 70
8
 71
3
 72
8
 73
4
 74
0
 40
0
 40
0
 40
0
 40
0
 40
1
 40
1
 40
1
 40
1
 10
44.608123
 20
112.176119
 30
0.0
 10
44.621311
 20
112.171378
 30
0.0
 10
44.635846
 20
112.178225
 30
0.0
 10
44.640587
 20
112.191412
 30
0.0
  0
LWPOLYLINE
  5
1af
100
AcDbEntity
  8
1
 62
7
100
AcDbPolyline
 90
2
 70
0
 10
43.633935
 20
96.535448
 30
0.0
 10
43.326158
 20
98.494489
 30
0.0
  0
SPLINE
  5
1b0
100
AcDbEntity
  8
1
 62
7
100
AcDbSpline
 70
8
 71
3
 72
8
 73
4
 74
0
 40
0
 40
0
 40
0
 40
0
 40
1
 40
1
 40
1
 40
1
 10
43.301166
 20
106.406859
 30
0.0
 10
43.299199
 20
106.393096
 30
0.0
 10
43.308662
 20
106.380309
 30
0.0
 10
43.322399
 20
106.378168
 30
0.0
  0
SPLINE
  5
1b1
100
AcDbEntity
  8
1
 62
7
100
AcDbSpline
 70
8
 71
3
 72
8
 73
4
 74
0
 40
0
 40
0
 40
0
 40
0
 40
1
 40
1
 40
1
 40
1
 10
43.322399
 20
106.378168
 30
0.0
 10
43.336136
 20
106.376026
 30
0.0
 10
43.349042
 20
106.385326
 30
0.0
 10
43.351357
 20
106.399035
 30
0.0
  0
SPLINE
  5
1b2
100
AcDbEntity
  8
1
 62
7
100
AcDbSpline
 70
8
 71
3
 72
8
 73
4
 74
0
 40
0
 40
0
 40
0
 40
0
 40
1
 40
1
 40
1
 40
1
 10
45.264472
 20
90.822731
 30
0.0
 10
45.269214
 20
90.809543
 30
0.0
 10
45.283749
 20
90.802696
 30
0.0
 10
45.296937
 20
90.807438
 30
0.0
  0
SPLINE
  5
1b3
100
AcDbEntity
  8
1
 62
7
100
AcDbSpline
 70
8
 71
3
 72
8
 73
4
 74
0
 40
0
 40
0
 40
0
 40
0
 40
1
 40
1
 40
1
 40
1
 10
45.296937
 20
90.807438
 30
0.0
 10
45.310124
 20
90.812180
 30
0.0
 10
45.316971
 20
90.826715
 30
0.0
 10
45.312229
 20
90.839903
 30
0.0
  0
LWPOLYLINE
  5
1b4
100
AcDbEntity
  8
1
 62
7
100
AcDbPolyline
 90
2
 70
0
 10
43.326262
 20
106.402996
 30
0.0
 10
43.634038
 20
108.361630
 30
0.0
  0
SPLINE
  5
1b5
100
AcDbEntity
  8
1
 62
7
100
AcDbSpline
 70
8
 71
3
 72
8
 73
4
 74
0
 40
0
 40
0
 40
0
 40
0
 40
1
 40
1
 40
1
 40
1
 10
45.264877
 20
114.075161
 30
0.0
 10
45.259293
 20
114.062282
 30
0.0
 10
45.265207
 20
114.047314
 30
0.0
 10
45.278086
 20
114.041730
 30
0.0
  0
SPLINE
  5
1b6
100
AcDbEntity
  8
1
 62
7
100
AcDbSpline
 70
8
 71
3
 72
8
 73
4
 74
0
 40
0
 40
0
 40
0
 40
0
 40
1
 40
1
 40
1
 40
1
 10
45.278086
 20
114.041730
 30
0.0
 10
45.290966
 20
114.036145
 30
0.0
 10
45.305934
 20
114.042059
 30
0.0
 10
45.311518
 20
114.054939
 30
0.0
  0
LWPOLYLINE
  5
1b7
100
AcDbEntity
  8
1
 62
7
100
AcDbPolyline
 90
2
 70
0
 10
45.288248
 20
114.064998
 30
0.0
 10
46.076436
 20
115.884123
 30
0.0
  0
SPLINE
  5
1b8
100
AcDbEntity
  8
1
 62
7
100
AcDbSpline
 70
8
 71
3
 72
8
 73
4
 74
0
 40
0
 40
0
 40
0
 40
0
 40
1
 40
1
 40
1
 40
1
 10
43.659134
 20
108.357666
 30
0.0
 10
43.660608
 20
108.366668
 30
0.0
 10
43.657143
 20
108.375768
 30
0.0
 10
43.650055
 20
108.381510
 30
0.0
  0
SPLINE
  5
1b9
100
AcDbEntity
  8
1
 62
7
100
AcDbSpline
 70
8
 71
3
 72
8
 73
4
 74
0
 40
0
 40
0
 40
0
 40
0
 40
1
 40
1
 40
1
 40
1
 10
43.650055
 20
108.381510
 30
0.0
 10
43.642967
 20
108.387251
 30
0.0
 10
43.633344
 20
108.388751
 30
0.0
 10
43.624845
 20
108.385439
 30
0.0
  0
SPLINE
  5
1ba
100
AcDbEntity
  8
1
 62
7
100
AcDbSpline
 70
8
 71
3
 72
8
 73
4
 74
0
 40
0
 40
0
 40
0
 40
0
 40
1
 40
1
 40
1
 40
1
 10
43.624845
 20
108.385439
 30
0.0
 10
43.616346
 20
108.382127
 30
0.0
 10
43.610275
 20
108.374513
 30
0.0
 10
43.608940
 20
108.365490
 30
0.0
  0
SPLINE
  5
1bb
100
AcDbEntity
  8
1
 62
7
100
AcDbSpline
 70
8
 71
3
 72
8
 73
4
 74
0
 40
0
 40
0
 40
0
 40
0
 40
1
 40
1
 40
1
 40
1
 10
46.099095
 20
89.024033
 30
0.0
 10
46.094975
 20
89.032110
 30
0.0
 10
46.086858
 20
89.037376
 30
0.0
 10
46.077803
 20
89.037846
 30
0.0
  0
SPLINE
  5
1bc
100
AcDbEntity
  8
1
 62
7
100
AcDbSpline
 70
8
 71
3
 72
8
 73
4
 74
0
 40
0
 40
0
 40
0
 40
0
 40
1
 40
1
 40
1
 40
1
 10
46.077803
 20
89.037846
 30
0.0
 10
46.068747
 20
89.038316
 30
0.0
 10
46.060129
 20
89.033920
 30
0.0
 10
46.055194
 20
89.026313
 30
0.0
  0
SPLINE
  5
1bd
100
AcDbEntity
  8
1
 62
7
100
AcDbSpline
 70
8
 71
3
 72
8
 73
4
 74
0
 40
0
 40
0
 40
0
 40
0
 40
1
 40
1
 40
1
 40
1
 10
46.055194
 20
89.026313
 30
0.0
 10
46.050259
 20
89.018706
 30
0.0
 10
46.049757
 20
89.009044
 30
0.0
 10
46.053878
 20
89.000966
 30
0.0
  0
LWPOLYLINE
  5
1be
100
AcDbEntity
  8
1
 62
7
100
AcDbPolyline
 90
2
 70
0
 10
46.076436
 20
89.012447
 30
0.0
 10
45.288351
 20
90.831267
 30
0.0
  0
SPLINE
  5
1bf
100
AcDbEntity
  8
1
 62
7
100
AcDbSpline
 70
8
 71
3
 72
8
 73
4
 74
0
 40
0
 40
0
 40
0
 40
0
 40
1
 40
1
 40
1
 40
1
 10
46.053169
 20
89.002387
 30
0.0
 10
46.058804
 20
88.989592
 30
0.0
 10
46.073714
 20
88.983751
 30
0.0
 10
46.086541
 20
88.989312
 30
0.0
  0
SPLINE
  5
1c0
100
AcDbEntity
  8
1
 62
7
100
AcDbSpline
 70
8
 71
3
 72
8
 73
4
 74
0
 40
0
 40
0
 40
0
 40
0
 40
1
 40
1
 40
1
 40
1
 10
46.086541
 20
88.989312
 30
0.0
 10
46.099368
 20
88.994874
 30
0.0
 10
46.105295
 20
89.009751
 30
0.0
 10
46.099807
 20
89.022609
 30
0.0
  0
SPLINE
  5
1c1
100
AcDbEntity
  8
1
 62
7
100
AcDbSpline
 70
8
 71
3
 72
8
 73
4
 74
0
 40
0
 40
0
 40
0
 40
0
 40
1
 40
1
 40
1
 40
1
 10
46.099706
 20
115.874061
 30
0.0
 10
46.103321
 20
115.882374
 30
0.0
 10
46.102226
 20
115.891985
 30
0.0
 10
46.096832
 20
115.899272
 30
0.0
  0
SPLINE
  5
1c2
100
AcDbEntity
  8
1
 62
7
100
AcDbSpline
 70
8
 71
3
 72
8
 73
4
 74
0
 40
0
 40
0
 40
0
 40
0
 40
1
 40
1
 40
1
 40
1
 10
46.096832
 20
115.899272
 30
0.0
 10
46.091439
 20
115.906559
 30
0.0
 10
46.082567
 20
115.910414
 30
0.0
 10
46.073560
 20
115.909384
 30
0.0
  0
SPLINE
  5
1c3
100
AcDbEntity
  8
1
 62
7
100
AcDbSpline
 70
8
 71
3
 72
8
 73
4
 74
0
 40
0
 40
0
 40
0
 40
0
 40
1
 40
1
 40
1
 40
1
 10
46.073560
 20
115.909384
 30
0.0
 10
46.064553
 20
115.908355
 30
0.0
 10
46.056779
 20
115.902598
 30
0.0
 10
46.053169
 20
115.894283
 30
0.0
  0
SPLINE
  5
1c4
100
AcDbEntity
  8
1
 62
7
100
AcDbSpline
 70
8
 71
3
 72
8
 73
4
 74
0
 40
0
 40
0
 40
0
 40
0
 40
1
 40
1
 40
1
 40
1
 10
46.954855
 20
87.235899
 30
0.0
 10
46.958976
 20
87.227804
 30
0.0
 10
46.967102
 20
87.222522
 30
0.0
 10
46.976173
 20
87.222043
 30
0.0
  0
SPLINE
  5
1c5
100
AcDbEntity
  8
1
 62
7
100
AcDbSpline
 70
8
 71
3
 72
8
 73
4
 74
0
 40
0
 40
0
 40
0
 40
0
 40
1
 40
1
 40
1
 40
1
 10
46.976173
 20
87.222043
 30
0.0
 10
46.985244
 20
87.221563
 30
0.0
 10
46.993881
 20
87.225960
 30
0.0
 10
46.998832
 20
87.233576
 30
0.0
  0
SPLINE
  5
1c6
100
AcDbEntity
  8
1
 62
7
100
AcDbSpline
 70
8
 71
3
 72
8
 73
4
 74
0
 40
0
 40
0
 40
0
 40
0
 40
1
 40
1
 40
1
 40
1
 10
46.998832
 20
87.233576
 30
0.0
 10
47.003782
 20
87.241192
 30
0.0
 10
47.004294
 20
87.250870
 30
0.0
 10
47.000173
 20
87.258966
 30
0.0
  0
SPLINE
  5
1c7
100
AcDbEntity
  8
1
 62
7
100
AcDbSpline
 70
8
 71
3
 72
8
 73
4
 74
0
 40
0
 40
0
 40
0
 40
0
 40
1
 40
1
 40
1
 40
1
 10
45.311618
 20
90.841427
 30
0.0
 10
45.305946
 20
90.854130
 30
0.0
 10
45.291102
 20
90.859896
 30
0.0
 10
45.278342
 20
90.854352
 30
0.0
  0
SPLINE
  5
1c8
100
AcDbEntity
  8
1
 62
7
100
AcDbSpline
 70
8
 71
3
 72
8
 73
4
 74
0
 40
0
 40
0
 40
0
 40
0
 40
1
 40
1
 40
1
 40
1
 10
45.278342
 20
90.854352
 30
0.0
 10
45.265582
 20
90.848807
 30
0.0
 10
45.259668
 20
90.834022
 30
0.0
 10
45.265083
 20
90.821207
 30
0.0
  0
LWPOLYLINE
  5
1c9
100
AcDbEntity
  8
1
 62
7
100
AcDbPolyline
 90
2
 70
0
 10
46.977514
 20
87.247379
 30
0.0
 10
46.076436
 20
89.012447
 30
0.0
  0
SPLINE
  5
1ca
100
AcDbEntity
  8
1
 62
7
100
AcDbSpline
 70
8
 71
3
 72
8
 73
4
 74
0
 40
0
 40
0
 40
0
 40
0
 40
1
 40
1
 40
1
 40
1
 10
44.040073
 20
94.593885
 30
0.0
 10
44.043261
 20
94.580338
 30
0.0
 10
44.056756
 20
94.571878
 30
0.0
 10
44.070338
 20
94.574912
 30
0.0
  0
SPLINE
  5
1cb
100
AcDbEntity
  8
1
 62
7
100
AcDbSpline
 70
8
 71
3
 72
8
 73
4
 74
0
 40
0
 40
0
 40
0
 40
0
 40
1
 40
1
 40
1
 40
1
 10
44.070338
 20
94.574912
 30
0.0
 10
44.083920
 20
94.577945
 30
0.0
 10
44.092534
 20
94.591342
 30
0.0
 10
44.089656
 20
94.604958
 30
0.0
  0
SPLINE
  5
1cc
100
AcDbEntity
  8
1
 62
7
100
AcDbSpline
 70
8
 71
3
 72
8
 73
4
 74
0
 40
0
 40
0
 40
0
 40
0
 40
1
 40
1
 40
1
 40
1
 10
45.312126
 20
114.056360
 30
0.0
 10
45.315305
 20
114.064931
 30
0.0
 10
45.313640
 20
114.074549
 30
0.0
 10
45.307765
 20
114.081554
 30
0.0
  0
SPLINE
  5
1cd
100
AcDbEntity
  8
1
 62
7
100
AcDbSpline
 70
8
 71
3
 72
8
 73
4
 74
0
 40
0
 40
0
 40
0
 40
0
 40
1
 40
1
 40
1
 40
1
 10
45.307765
 20
114.081554
 30
0.0
 10
45.301891
 20
114.088558
 30
0.0
 10
45.292710
 20
114.091872
 30
0.0
 10
45.283715
 20
114.090235
 30
0.0
  0
SPLINE
  5
1ce
100
AcDbEntity
  8
1
 62
7
100
AcDbSpline
 70
8
 71
3
 72
8
 73
4
 74
0
 40
0
 40
0
 40
0
 40
0
 40
1
 40
1
 40
1
 40
1
 10
45.283715
 20
114.090235
 30
0.0
 10
45.274721
 20
114.088597
 30
0.0
 10
45.267297
 20
114.082260
 30
0.0
 10
45.264268
 20
114.073634
 30
0.0
  0
LWPOLYLINE
  5
1cf
100
AcDbEntity
  8
1
 62
7
100
AcDbPolyline
 90
2
 70
0
 10
44.064865
 20
94.599470
 30
0.0
 10
43.633935
 20
96.535448
 30
0.0
  0
SPLINE
  5
1d0
100
AcDbEntity
  8
1
 62
7
100
AcDbSpline
 70
8
 71
3
 72
8
 73
4
 74
0
 40
0
 40
0
 40
0
 40
0
 40
1
 40
1
 40
1
 40
1
 10
44.640788
 20
92.704752
 30
0.0
 10
44.637755
 20
92.713353
 30
0.0
 10
44.630342
 20
92.719667
 30
0.0
 10
44.621367
 20
92.721293
 30
0.0
  0
SPLINE
  5
1d1
100
AcDbEntity
  8
1
 62
7
100
AcDbSpline
 70
8
 71
3
 72
8
 73
4
 74
0
 40
0
 40
0
 40
0
 40
0
 40
1
 40
1
 40
1
 40
1
 10
44.621367
 20
92.721293
 30
0.0
 10
44.612393
 20
92.722919
 30
0.0
 10
44.603236
 20
92.719606
 30
0.0
 10
44.597378
 20
92.712615
 30
0.0
  0
SPLINE
  5
1d2
100
AcDbEntity
  8
1
 62
7
100
AcDbSpline
 70
8
 71
3
 72
8
 73
4
 74
0
 40
0
 40
0
 40
0
 40
0
 40
1
 40
1
 40
1
 40
1
 10
44.597378
 20
92.712615
 30
0.0
 10
44.591520
 20
92.705624
 30
0.0
 10
44.589862
 20
92.696029
 30
0.0
 10
44.593034
 20
92.687477
 30
0.0
  0
SPLINE
  5
1d3
100
AcDbEntity
  8
1
 62
7
100
AcDbSpline
 70
8
 71
3
 72
8
 73
4
 74
0
 40
0
 40
0
 40
0
 40
0
 40
1
 40
1
 40
1
 40
1
 10
43.658729
 20
96.540935
 30
0.0
 10
43.656769
 20
96.549793
 30
0.0
 10
43.650232
 20
96.556932
 30
0.0
 10
43.641580
 20
96.559663
 30
0.0
  0
SPLINE
  5
1d4
100
AcDbEntity
  8
1
 62
7
100
AcDbSpline
 70
8
 71
3
 72
8
 73
4
 74
0
 40
0
 40
0
 40
0
 40
0
 40
1
 40
1
 40
1
 40
1
 10
43.641580
 20
96.559663
 30
0.0
 10
43.632929
 20
96.562394
 30
0.0
 10
43.623478
 20
96.560302
 30
0.0
 10
43.616788
 20
96.554175
 30
0.0
  0
SPLINE
  5
1d5
100
AcDbEntity
  8
1
 62
7
100
AcDbSpline
 70
8
 71
3
 72
8
 73
4
 74
0
 40
0
 40
0
 40
0
 40
0
 40
1
 40
1
 40
1
 40
1
 10
43.616788
 20
96.554175
 30
0.0
 10
43.610097
 20
96.548049
 30
0.0
 10
43.607183
 20
96.538818
 30
0.0
 10
43.609144
 20
96.529960
 30
0.0
  0
LWPOLYLINE
  5
1d6
100
AcDbEntity
  8
1
 62
7
100
AcDbPolyline
 90
2
 70
0
 10
45.288351
 20
90.831267
 30
0.0
 10
44.616912
 20
92.696113
 30
0.0
  0
LWPOLYLINE
  5
1d7
100
AcDbEntity
  8
1
 62
7
100
AcDbPolyline
 90
2
 70
0
 10
57.723074
 20
75.806603
 30
0.0
 10
56.085325
 20
76.921774
 30
0.0
  0
LWPOLYLINE
  5
1d8
100
AcDbEntity
  8
1
 62
7
100
AcDbPolyline
 90
2
 70
0
 10
44.064865
 20
94.599470
 30
0.0
 10
43.633935
 20
96.535448
 30
0.0
  0
LWPOLYLINE
  5
1d9
100
AcDbEntity
  8
1
 62
7
100
AcDbPolyline
 90
2
 70
0
 10
46.076436
 20
89.012447
 30
0.0
 10
45.288351
 20
90.831267
 30
0.0
  0
SPLINE
  5
1da
100
AcDbEntity
  8
1
 62
7
100
AcDbSpline
 70
8
 71
3
 72
8
 73
4
 74
0
 40
0
 40
0
 40
0
 40
0
 40
1
 40
1
 40
1
 40
1
 10
45.264877
 20
114.075161
 30
0.0
 10
45.259293
 20
114.062282
 30
0.0
 10
45.265207
 20
114.047314
 30
0.0
 10
45.278086
 20
114.041730
 30
0.0
  0
SPLINE
  5
1db
100
AcDbEntity
  8
1
 62
7
100
AcDbSpline
 70
8
 71
3
 72
8
 73
4
 74
0
 40
0
 40
0
 40
0
 40
0
 40
1
 40
1
 40
1
 40
1
 10
45.278086
 20
114.041730
 30
0.0
 10
45.290966
 20
114.036145
 30
0.0
 10
45.305934
 20
114.042059
 30
0.0
 10
45.311518
 20
114.054939
 30
0.0
  0
SPLINE
  5
1dc
100
AcDbEntity
  8
1
 62
7
100
AcDbSpline
 70
8
 71
3
 72
8
 73
4
 74
0
 40
0
 40
0
 40
0
 40
0
 40
1
 40
1
 40
1
 40
1
 10
45.311618
 20
90.841427
 30
0.0
 10
45.305946
 20
90.854130
 30
0.0
 10
45.291102
 20
90.859896
 30
0.0
 10
45.278342
 20
90.854352
 30
0.0
  0
SPLINE
  5
1dd
100
AcDbEntity
  8
1
 62
7
100
AcDbSpline
 70
8
 71
3
 72
8
 73
4
 74
0
 40
0
 40
0
 40
0
 40
0
 40
1
 40
1
 40
1
 40
1
 10
45.278342
 20
90.854352
 30
0.0
 10
45.265582
 20
90.848807
 30
0.0
 10
45.259668
 20
90.834022
 30
0.0
 10
45.265083
 20
90.821207
 30
0.0
  0
SPLINE
  5
1de
100
AcDbEntity
  8
1
 62
7
100
AcDbSpline
 70
8
 71
3
 72
8
 73
4
 74
0
 40
0
 40
0
 40
0
 40
0
 40
1
 40
1
 40
1
 40
1
 10
46.053169
 20
89.002387
 30
0.0
 10
46.058804
 20
88.989592
 30
0.0
 10
46.073714
 20
88.983751
 30
0.0
 10
46.086541
 20
88.989312
 30
0.0
  0
SPLINE
  5
1df
100
AcDbEntity
  8
1
 62
7
100
AcDbSpline
 70
8
 71
3
 72
8
 73
4
 74
0
 40
0
 40
0
 40
0
 40
0
 40
1
 40
1
 40
1
 40
1
 10
46.086541
 20
88.989312
 30
0.0
 10
46.099368
 20
88.994874
 30
0.0
 10
46.105295
 20
89.009751
 30
0.0
 10
46.099807
 20
89.022609
 30
0.0
  0
SPLINE
  5
1e0
100
AcDbEntity
  8
1
 62
7
100
AcDbSpline
 70
8
 71
3
 72
8
 73
4
 74
0
 40
0
 40
0
 40
0
 40
0
 40
1
 40
1
 40
1
 40
1
 10
46.099706
 20
115.874061
 30
0.0
 10
46.103321
 20
115.882374
 30
0.0
 10
46.102226
 20
115.891985
 30
0.0
 10
46.096832
 20
115.899272
 30
0.0
  0
SPLINE
  5
1e1
100
AcDbEntity
  8
1
 62
7
100
AcDbSpline
 70
8
 71
3
 72
8
 73
4
 74
0
 40
0
 40
0
 40
0
 40
0
 40
1
 40
1
 40
1
 40
1
 10
46.096832
 20
115.899272
 30
0.0
 10
46.091439
 20
115.906559
 30
0.0
 10
46.082567
 20
115.910414
 30
0.0
 10
46.073560
 20
115.909384
 30
0.0
  0
SPLINE
  5
1e2
100
AcDbEntity
  8
1
 62
7
100
AcDbSpline
 70
8
 71
3
 72
8
 73
4
 74
0
 40
0
 40
0
 40
0
 40
0
 40
1
 40
1
 40
1
 40
1
 10
46.073560
 20
115.909384
 30
0.0
 10
46.064553
 20
115.908355
 30
0.0
 10
46.056779
 20
115.902598
 30
0.0
 10
46.053169
 20
115.894283
 30
0.0
  0
SPLINE
  5
1e3
100
AcDbEntity
  8
1
 62
7
100
AcDbSpline
 70
8
 71
3
 72
8
 73
4
 74
0
 40
0
 40
0
 40
0
 40
0
 40
1
 40
1
 40
1
 40
1
 10
43.658729
 20
96.540935
 30
0.0
 10
43.656769
 20
96.549793
 30
0.0
 10
43.650232
 20
96.556932
 30
0.0
 10
43.641580
 20
96.559663
 30
0.0
  0
SPLINE
  5
1e4
100
AcDbEntity
  8
1
 62
7
100
AcDbSpline
 70
8
 71
3
 72
8
 73
4
 74
0
 40
0
 40
0
 40
0
 40
0
 40
1
 40
1
 40
1
 40
1
 10
43.641580
 20
96.559663
 30
0.0
 10
43.632929
 20
96.562394
 30
0.0
 10
43.623478
 20
96.560302
 30
0.0
 10
43.616788
 20
96.554175
 30
0.0
  0
SPLINE
  5
1e5
100
AcDbEntity
  8
1
 62
7
100
AcDbSpline
 70
8
 71
3
 72
8
 73
4
 74
0
 40
0
 40
0
 40
0
 40
0
 40
1
 40
1
 40
1
 40
1
 10
43.616788
 20
96.554175
 30
0.0
 10
43.610097
 20
96.548049
 30
0.0
 10
43.607183
 20
96.538818
 30
0.0
 10
43.609144
 20
96.529960
 30
0.0
  0
SPLINE
  5
1e6
100
AcDbEntity
  8
1
 62
7
100
AcDbSpline
 70
8
 71
3
 72
8
 73
4
 74
0
 40
0
 40
0
 40
0
 40
0
 40
1
 40
1
 40
1
 40
1
 10
44.040073
 20
94.593885
 30
0.0
 10
44.043261
 20
94.580338
 30
0.0
 10
44.056756
 20
94.571878
 30
0.0
 10
44.070338
 20
94.574912
 30
0.0
  0
SPLINE
  5
1e7
100
AcDbEntity
  8
1
 62
7
100
AcDbSpline
 70
8
 71
3
 72
8
 73
4
 74
0
 40
0
 40
0
 40
0
 40
0
 40
1
 40
1
 40
1
 40
1
 10
44.070338
 20
94.574912
 30
0.0
 10
44.083920
 20
94.577945
 30
0.0
 10
44.092534
 20
94.591342
 30
0.0
 10
44.089656
 20
94.604958
 30
0.0
  0
SPLINE
  5
1e8
100
AcDbEntity
  8
1
 62
7
100
AcDbSpline
 70
8
 71
3
 72
8
 73
4
 74
0
 40
0
 40
0
 40
0
 40
0
 40
1
 40
1
 40
1
 40
1
 10
56.099652
 20
76.942705
 30
0.0
 10
56.088067
 20
76.950483
 30
0.0
 10
56.072377
 20
76.947462
 30
0.0
 10
56.064508
 20
76.935938
 30
0.0
  0
SPLINE
  5
1e9
100
AcDbEntity
  8
1
 62
7
100
AcDbSpline
 70
8
 71
3
 72
8
 73
4
 74
0
 40
0
 40
0
 40
0
 40
0
 40
1
 40
1
 40
1
 40
1
 10
56.064508
 20
76.935938
 30
0.0
 10
56.056639
 20
76.924415
 30
0.0
 10
56.059536
 20
76.908702
 30
0.0
 10
56.070997
 20
76.900742
 30
0.0
  0
SPLINE
  5
1ea
100
AcDbEntity
  8
1
 62
7
100
AcDbSpline
 70
8
 71
3
 72
8
 73
4
 74
0
 40
0
 40
0
 40
0
 40
0
 40
1
 40
1
 40
1
 40
1
 10
43.351259
 20
98.498452
 30
0.0
 10
43.349861
 20
98.507419
 30
0.0
 10
43.343786
 20
98.514959
 30
0.0
 10
43.335321
 20
98.518232
 30
0.0
  0
SPLINE
  5
1eb
100
AcDbEntity
  8
1
 62
7
100
AcDbSpline
 70
8
 71
3
 72
8
 73
4
 74
0
 40
0
 40
0
 40
0
 40
0
 40
1
 40
1
 40
1
 40
1
 10
43.335321
 20
98.518232
 30
0.0
 10
43.326857
 20
98.521504
 30
0.0
 10
43.317289
 20
98.520012
 30
0.0
 10
43.310223
 20
98.514318
 30
0.0
  0
SPLINE
  5
1ec
100
AcDbEntity
  8
1
 62
7
100
AcDbSpline
 70
8
 71
3
 72
8
 73
4
 74
0
 40
0
 40
0
 40
0
 40
0
 40
1
 40
1
 40
1
 40
1
 10
43.310223
 20
98.514318
 30
0.0
 10
43.303157
 20
98.508624
 30
0.0
 10
43.299665
 20
98.499593
 30
0.0
 10
43.301063
 20
98.490626
 30
0.0
  0
SPLINE
  5
1ed
100
AcDbEntity
  8
1
 62
7
100
AcDbSpline
 70
8
 71
3
 72
8
 73
4
 74
0
 40
0
 40
0
 40
0
 40
0
 40
1
 40
1
 40
1
 40
1
 10
54.534551
 20
78.158572
 30
0.0
 10
54.523465
 20
78.167113
 30
0.0
 10
54.507559
 20
78.165084
 30
0.0
 10
54.498971
 20
78.154034
 30
0.0
  0
SPLINE
  5
1ee
100
AcDbEntity
  8
1
 62
7
100
AcDbSpline
 70
8
 71
3
 72
8
 73
4
 74
0
 40
0
 40
0
 40
0
 40
0
 40
1
 40
1
 40
1
 40
1
 10
54.498971
 20
78.154034
 30
0.0
 10
54.490382
 20
78.142983
 30
0.0
 10
54.492343
 20
78.127069
 30
0.0
 10
54.503357
 20
78.118434
 30
0.0
  0
LWPOLYLINE
  5
1ef
100
AcDbEntity
  8
1
 62
7
100
AcDbPolyline
 90
4
 70
0
 10
57.723074
 20
75.806603
 30
0.0
 10
56.085325
 20
76.921774
 30
0.0
 10
54.518907
 20
78.138553
 30
0.0
 10
53.032858
 20
79.449730
 30
0.0
  0
SPLINE
  5
1f0
100
AcDbEntity
  8
1
 62
7
100
AcDbSpline
 70
8
 71
3
 72
8
 73
4
 74
0
 40
0
 40
0
 40
0
 40
0
 40
1
 40
1
 40
1
 40
1
 10
57.708850
 20
75.785574
 30
0.0
 10
57.720435
 20
75.777851
 30
0.0
 10
57.736078
 20
75.780903
 30
0.0
 10
57.743910
 20
75.792414
 30
0.0
  0
SPLINE
  5
1f1
100
AcDbEntity
  8
1
 62
7
100
AcDbSpline
 70
8
 71
3
 72
8
 73
4
 74
0
 40
0
 40
0
 40
0
 40
0
 40
1
 40
1
 40
1
 40
1
 10
57.743910
 20
75.792414
 30
0.0
 10
57.751741
 20
75.803925
 30
0.0
 10
57.748838
 20
75.819596
 30
0.0
 10
57.737401
 20
75.827537
 30
0.0
  0
SPLINE
  5
1f2
100
AcDbEntity
  8
1
 62
7
100
AcDbSpline
 70
8
 71
3
 72
8
 73
4
 74
0
 40
0
 40
0
 40
0
 40
0
 40
1
 40
1
 40
1
 40
1
 10
43.608839
 20
96.531484
 30
0.0
 10
43.610255
 20
96.522517
 30
0.0
 10
43.616347
 20
96.514987
 30
0.0
 10
43.624821
 20
96.511730
 30
0.0
  0
SPLINE
  5
1f3
100
AcDbEntity
  8
1
 62
7
100
AcDbSpline
 70
8
 71
3
 72
8
 73
4
 74
0
 40
0
 40
0
 40
0
 40
0
 40
1
 40
1
 40
1
 40
1
 10
43.624821
 20
96.511730
 30
0.0
 10
43.633294
 20
96.508473
 30
0.0
 10
43.642862
 20
96.509984
 30
0.0
 10
43.649919
 20
96.515694
 30
0.0
  0
SPLINE
  5
1f4
100
AcDbEntity
  8
1
 62
7
100
AcDbSpline
 70
8
 71
3
 72
8
 73
4
 74
0
 40
0
 40
0
 40
0
 40
0
 40
1
 40
1
 40
1
 40
1
 10
43.649919
 20
96.515694
 30
0.0
 10
43.656977
 20
96.521403
 30
0.0
 10
43.660452
 20
96.530444
 30
0.0
 10
43.659036
 20
96.539411
 30
0.0
  0
SPLINE
  5
1f5
100
AcDbEntity
  8
1
 62
7
100
AcDbSpline
 70
8
 71
3
 72
8
 73
4
 74
0
 40
0
 40
0
 40
0
 40
0
 40
1
 40
1
 40
1
 40
1
 10
56.069778
 20
76.901655
 30
0.0
 10
56.080861
 20
76.893069
 30
0.0
 10
56.096807
 20
76.895093
 30
0.0
 10
56.105393
 20
76.906177
 30
0.0
  0
SPLINE
  5
1f6
100
AcDbEntity
  8
1
 62
7
100
AcDbSpline
 70
8
 71
3
 72
8
 73
4
 74
0
 40
0
 40
0
 40
0
 40
0
 40
1
 40
1
 40
1
 40
1
 10
56.105393
 20
76.906177
 30
0.0
 10
56.113980
 20
76.917261
 30
0.0
 10
56.111955
 20
76.933206
 30
0.0
 10
56.100872
 20
76.941792
 30
0.0
  0
SPLINE
  5
1f7
100
AcDbEntity
  8
1
 62
7
100
AcDbSpline
 70
8
 71
3
 72
8
 73
4
 74
0
 40
0
 40
0
 40
0
 40
0
 40
1
 40
1
 40
1
 40
1
 10
46.999358
 20
87.260386
 30
0.0
 10
46.994769
 20
87.268272
 30
0.0
 10
46.986303
 20
87.273090
 30
0.0
 10
46.977179
 20
87.273009
 30
0.0
  0
SPLINE
  5
1f8
100
AcDbEntity
  8
1
 62
7
100
AcDbSpline
 70
8
 71
3
 72
8
 73
4
 74
0
 40
0
 40
0
 40
0
 40
0
 40
1
 40
1
 40
1
 40
1
 10
46.977179
 20
87.273009
 30
0.0
 10
46.968055
 20
87.272927
 30
0.0
 10
46.959677
 20
87.267958
 30
0.0
 10
46.955229
 20
87.259991
 30
0.0
  0
SPLINE
  5
1f9
100
AcDbEntity
  8
1
 62
7
100
AcDbSpline
 70
8
 71
3
 72
8
 73
4
 74
0
 40
0
 40
0
 40
0
 40
0
 40
1
 40
1
 40
1
 40
1
 10
46.955229
 20
87.259991
 30
0.0
 10
46.950782
 20
87.252025
 30
0.0
 10
46.950949
 20
87.242285
 30
0.0
 10
46.955668
 20
87.234476
 30
0.0
  0
SPLINE
  5
1fa
100
AcDbEntity
  8
1
 62
7
100
AcDbSpline
 70
8
 71
3
 72
8
 73
4
 74
0
 40
0
 40
0
 40
0
 40
0
 40
1
 40
1
 40
1
 40
1
 10
53.049625
 20
79.468730
 30
0.0
 10
53.039091
 20
79.477876
 30
0.0
 10
53.023151
 20
79.476806
 30
0.0
 10
53.013935
 20
79.466333
 30
0.0
  0
SPLINE
  5
1fb
100
AcDbEntity
  8
1
 62
7
100
AcDbSpline
 70
8
 71
3
 72
8
 73
4
 74
0
 40
0
 40
0
 40
0
 40
0
 40
1
 40
1
 40
1
 40
1
 10
53.013935
 20
79.466333
 30
0.0
 10
53.004719
 20
79.455860
 30
0.0
 10
53.005683
 20
79.439913
 30
0.0
 10
53.016094
 20
79.430627
 30
0.0
  0
SPLINE
  5
1fc
100
AcDbEntity
  8
1
 62
7
100
AcDbSpline
 70
8
 71
3
 72
8
 73
4
 74
0
 40
0
 40
0
 40
0
 40
0
 40
1
 40
1
 40
1
 40
1
 10
43.167242
 20
100.471003
 30
0.0
 10
43.166420
 20
100.480067
 30
0.0
 10
43.160814
 20
100.488000
 30
0.0
 10
43.152544
 20
100.491800
 30
0.0
  0
SPLINE
  5
1fd
100
AcDbEntity
  8
1
 62
7
100
AcDbSpline
 70
8
 71
3
 72
8
 73
4
 74
0
 40
0
 40
0
 40
0
 40
0
 40
1
 40
1
 40
1
 40
1
 10
43.152544
 20
100.491800
 30
0.0
 10
43.144274
 20
100.495600
 30
0.0
 10
43.134603
 20
100.494688
 30
0.0
 10
43.127190
 20
100.489408
 30
0.0
  0
SPLINE
  5
1fe
100
AcDbEntity
  8
1
 62
7
100
AcDbSpline
 70
8
 71
3
 72
8
 73
4
 74
0
 40
0
 40
0
 40
0
 40
0
 40
1
 40
1
 40
1
 40
1
 10
43.127190
 20
100.489408
 30
0.0
 10
43.119777
 20
100.484129
 30
0.0
 10
43.115753
 20
100.475288
 30
0.0
 10
43.116640
 20
100.466230
 30
0.0
  0
SPLINE
  5
1ff
100
AcDbEntity
  8
1
 62
7
100
AcDbSpline
 70
8
 71
3
 72
8
 73
4
 74
0
 40
0
 40
0
 40
0
 40
0
 40
1
 40
1
 40
1
 40
1
 10
54.502140
 20
78.119450
 30
0.0
 10
54.508946
 20
78.113439
 30
0.0
 10
54.518443
 20
78.111517
 30
0.0
 10
54.527051
 20
78.114407
 30
0.0
  0
SPLINE
  5
200
100
AcDbEntity
  8
1
 62
7
100
AcDbSpline
 70
8
 71
3
 72
8
 73
4
 74
0
 40
0
 40
0
 40
0
 40
0
 40
1
 40
1
 40
1
 40
1
 10
54.527051
 20
78.114407
 30
0.0
 10
54.535660
 20
78.117298
 30
0.0
 10
54.542072
 20
78.124562
 30
0.0
 10
54.543871
 20
78.133463
 30
0.0
  0
SPLINE
  5
201
100
AcDbEntity
  8
1
 62
7
100
AcDbSpline
 70
8
 71
3
 72
8
 73
4
 74
0
 40
0
 40
0
 40
0
 40
0
 40
1
 40
1
 40
1
 40
1
 10
54.543871
 20
78.133463
 30
0.0
 10
54.545670
 20
78.142364
 30
0.0
 10
54.542583
 20
78.151548
 30
0.0
 10
54.535774
 20
78.157556
 30
0.0
  0
SPLINE
  5
202
100
AcDbEntity
  8
1
 62
7
100
AcDbSpline
 70
8
 71
3
 72
8
 73
4
 74
0
 40
0
 40
0
 40
0
 40
0
 40
1
 40
1
 40
1
 40
1
 10
43.300859
 20
98.492150
 30
0.0
 10
43.302204
 20
98.478199
 30
0.0
 10
43.314591
 20
98.467971
 30
0.0
 10
43.328544
 20
98.469288
 30
0.0
  0
SPLINE
  5
203
100
AcDbEntity
  8
1
 62
7
100
AcDbSpline
 70
8
 71
3
 72
8
 73
4
 74
0
 40
0
 40
0
 40
0
 40
0
 40
1
 40
1
 40
1
 40
1
 10
43.328544
 20
98.469288
 30
0.0
 10
43.342498
 20
98.470606
 30
0.0
 10
43.352751
 20
98.482972
 30
0.0
 10
43.351461
 20
98.496928
 30
0.0
  0
LWPOLYLINE
  5
204
100
AcDbEntity
  8
1
 62
7
100
AcDbPolyline
 90
3
 70
0
 10
43.633935
 20
96.535448
 30
0.0
 10
43.326158
 20
98.494489
 30
0.0
 10
43.141940
 20
100.468667
 30
0.0
  0
SPLINE
  5
205
100
AcDbEntity
  8
1
 62
7
100
AcDbSpline
 70
8
 71
3
 72
8
 73
4
 74
0
 40
0
 40
0
 40
0
 40
0
 40
1
 40
1
 40
1
 40
1
 10
47.966588
 20
85.528548
 30
0.0
 10
47.973815
 20
85.516647
 30
0.0
 10
47.989276
 20
85.512783
 30
0.0
 10
48.001252
 20
85.519885
 30
0.0
  0
SPLINE
  5
206
100
AcDbEntity
  8
1
 62
7
100
AcDbSpline
 70
8
 71
3
 72
8
 73
4
 74
0
 40
0
 40
0
 40
0
 40
0
 40
1
 40
1
 40
1
 40
1
 10
48.001252
 20
85.519885
 30
0.0
 10
48.013228
 20
85.526987
 30
0.0
 10
48.017254
 20
85.542406
 30
0.0
 10
48.010278
 20
85.554456
 30
0.0
  0
LWPOLYLINE
  5
207
100
AcDbEntity
  8
1
 62
7
100
AcDbPolyline
 90
2
 70
0
 10
47.988432
 20
85.541552
 30
0.0
 10
46.977514
 20
87.247379
 30
0.0
  0
SPLINE
  5
208
100
AcDbEntity
  8
1
 62
7
100
AcDbSpline
 70
8
 71
3
 72
8
 73
4
 74
0
 40
0
 40
0
 40
0
 40
0
 40
1
 40
1
 40
1
 40
1
 10
50.299144
 20
82.322954
 30
0.0
 10
50.304716
 20
82.315785
 30
0.0
 10
50.313690
 20
82.312132
 30
0.0
 10
50.322686
 20
82.313373
 30
0.0
  0
SPLINE
  5
209
100
AcDbEntity
  8
1
 62
7
100
AcDbSpline
 70
8
 71
3
 72
8
 73
4
 74
0
 40
0
 40
0
 40
0
 40
0
 40
1
 40
1
 40
1
 40
1
 10
50.322686
 20
82.313373
 30
0.0
 10
50.331681
 20
82.314614
 30
0.0
 10
50.339331
 20
82.320560
 30
0.0
 10
50.342754
 20
82.328970
 30
0.0
  0
SPLINE
  5
20a
100
AcDbEntity
  8
1
 62
7
100
AcDbSpline
 70
8
 71
3
 72
8
 73
4
 74
0
 40
0
 40
0
 40
0
 40
0
 40
1
 40
1
 40
1
 40
1
 10
50.342754
 20
82.328970
 30
0.0
 10
50.346177
 20
82.337381
 30
0.0
 10
50.344853
 20
82.346979
 30
0.0
 10
50.339281
 20
82.354149
 30
0.0
  0
SPLINE
  5
20b
100
AcDbEntity
  8
1
 62
7
100
AcDbSpline
 70
8
 71
3
 72
8
 73
4
 74
0
 40
0
 40
0
 40
0
 40
0
 40
1
 40
1
 40
1
 40
1
 10
43.116741
 20
104.432474
 30
0.0
 10
43.115880
 20
104.423422
 30
0.0
 10
43.119923
 20
104.414599
 30
0.0
 10
43.127342
 20
104.409341
 30
0.0
  0
SPLINE
  5
20c
100
AcDbEntity
  8
1
 62
7
100
AcDbSpline
 70
8
 71
3
 72
8
 73
4
 74
0
 40
0
 40
0
 40
0
 40
0
 40
1
 40
1
 40
1
 40
1
 10
43.127342
 20
104.409341
 30
0.0
 10
43.134761
 20
104.404082
 30
0.0
 10
43.144425
 20
104.403189
 30
0.0
 10
43.152682
 20
104.406999
 30
0.0
  0
SPLINE
  5
20d
100
AcDbEntity
  8
1
 62
7
100
AcDbSpline
 70
8
 71
3
 72
8
 73
4
 74
0
 40
0
 40
0
 40
0
 40
0
 40
1
 40
1
 40
1
 40
1
 10
43.152682
 20
104.406999
 30
0.0
 10
43.160939
 20
104.410810
 30
0.0
 10
43.166530
 20
104.418742
 30
0.0
 10
43.167342
 20
104.427799
 30
0.0
  0
SPLINE
  5
20e
100
AcDbEntity
  8
1
 62
7
100
AcDbSpline
 70
8
 71
3
 72
8
 73
4
 74
0
 40
0
 40
0
 40
0
 40
0
 40
1
 40
1
 40
1
 40
1
 10
43.351561
 20
106.400556
 30
0.0
 10
43.352825
 20
106.414498
 30
0.0
 10
43.342576
 20
106.426836
 30
0.0
 10
43.328639
 20
106.428151
 30
0.0
  0
SPLINE
  5
20f
100
AcDbEntity
  8
1
 62
7
100
AcDbSpline
 70
8
 71
3
 72
8
 73
4
 74
0
 40
0
 40
0
 40
0
 40
0
 40
1
 40
1
 40
1
 40
1
 10
43.328639
 20
106.428151
 30
0.0
 10
43.314703
 20
106.429467
 30
0.0
 10
43.302327
 20
106.419264
 30
0.0
 10
43.300960
 20
106.405332
 30
0.0
  0
SPLINE
  5
210
100
AcDbEntity
  8
1
 62
7
100
AcDbSpline
 70
8
 71
3
 72
8
 73
4
 74
0
 40
0
 40
0
 40
0
 40
0
 40
1
 40
1
 40
1
 40
1
 10
43.609247
 20
108.367117
 30
0.0
 10
43.607162
 20
108.358219
 30
0.0
 10
43.610017
 20
108.348887
 30
0.0
 10
43.616724
 20
108.342679
 30
0.0
  0
SPLINE
  5
211
100
AcDbEntity
  8
1
 62
7
100
AcDbSpline
 70
8
 71
3
 72
8
 73
4
 74
0
 40
0
 40
0
 40
0
 40
0
 40
1
 40
1
 40
1
 40
1
 10
43.616724
 20
108.342679
 30
0.0
 10
43.623430
 20
108.336471
 30
0.0
 10
43.632954
 20
108.334344
 30
0.0
 10
43.641665
 20
108.337108
 30
0.0
  0
SPLINE
  5
212
100
AcDbEntity
  8
1
 62
7
100
AcDbSpline
 70
8
 71
3
 72
8
 73
4
 74
0
 40
0
 40
0
 40
0
 40
0
 40
1
 40
1
 40
1
 40
1
 10
43.641665
 20
108.337108
 30
0.0
 10
43.650376
 20
108.339872
 30
0.0
 10
43.656930
 20
108.347102
 30
0.0
 10
43.658830
 20
108.356042
 30
0.0
  0
LWPOLYLINE
  5
213
100
AcDbEntity
  8
1
 62
7
100
AcDbPolyline
 90
2
 70
0
 10
50.319263
 20
82.338605
 30
0.0
 10
49.103703
 20
83.903599
 30
0.0
  0
LWPOLYLINE
  5
214
100
AcDbEntity
  8
1
 62
7
100
AcDbPolyline
 90
2
 70
0
 10
44.616912
 20
92.696113
 30
0.0
 10
44.064865
 20
94.599470
 30
0.0
  0
SPLINE
  5
215
100
AcDbEntity
  8
1
 62
7
100
AcDbSpline
 70
8
 71
3
 72
8
 73
4
 74
0
 40
0
 40
0
 40
0
 40
0
 40
1
 40
1
 40
1
 40
1
 10
49.123719
 20
83.919146
 30
0.0
 10
49.118170
 20
83.926386
 30
0.0
 10
49.109168
 20
83.930098
 30
0.0
 10
49.100129
 20
83.928871
 30
0.0
  0
SPLINE
  5
216
100
AcDbEntity
  8
1
 62
7
100
AcDbSpline
 70
8
 71
3
 72
8
 73
4
 74
0
 40
0
 40
0
 40
0
 40
0
 40
1
 40
1
 40
1
 40
1
 10
49.100129
 20
83.928871
 30
0.0
 10
49.091090
 20
83.927645
 30
0.0
 10
49.083401
 20
83.921669
 30
0.0
 10
49.079982
 20
83.913212
 30
0.0
  0
SPLINE
  5
217
100
AcDbEntity
  8
1
 62
7
100
AcDbSpline
 70
8
 71
3
 72
8
 73
4
 74
0
 40
0
 40
0
 40
0
 40
0
 40
1
 40
1
 40
1
 40
1
 10
49.079982
 20
83.913212
 30
0.0
 10
49.076563
 20
83.904756
 30
0.0
 10
49.077938
 20
83.895115
 30
0.0
 10
49.083584
 20
83.887952
 30
0.0
  0
LWPOLYLINE
  5
218
100
AcDbEntity
  8
1
 62
7
100
AcDbPolyline
 90
2
 70
0
 10
53.032858
 20
79.449730
 30
0.0
 10
51.631353
 20
80.851337
 30
0.0
  0
LWPOLYLINE
  5
219
100
AcDbEntity
  8
1
 62
7
100
AcDbPolyline
 90
2
 70
0
 10
43.142043
 20
104.430135
 30
0.0
 10
43.326262
 20
106.402996
 30
0.0
  0
SPLINE
  5
21a
100
AcDbEntity
  8
1
 62
7
100
AcDbSpline
 70
8
 71
3
 72
8
 73
4
 74
0
 40
0
 40
0
 40
0
 40
0
 40
1
 40
1
 40
1
 40
1
 10
44.089555
 20
110.291305
 30
0.0
 10
44.091516
 20
110.300162
 30
0.0
 10
44.088602
 20
110.309393
 30
0.0
 10
44.081911
 20
110.315519
 30
0.0
  0
SPLINE
  5
21b
100
AcDbEntity
  8
1
 62
7
100
AcDbSpline
 70
8
 71
3
 72
8
 73
4
 74
0
 40
0
 40
0
 40
0
 40
0
 40
1
 40
1
 40
1
 40
1
 10
44.081911
 20
110.315519
 30
0.0
 10
44.075221
 20
110.321646
 30
0.0
 10
44.065770
 20
110.323738
 30
0.0
 10
44.057119
 20
110.321007
 30
0.0
  0
SPLINE
  5
21c
100
AcDbEntity
  8
1
 62
7
100
AcDbSpline
 70
8
 71
3
 72
8
 73
4
 74
0
 40
0
 40
0
 40
0
 40
0
 40
1
 40
1
 40
1
 40
1
 10
44.057119
 20
110.321007
 30
0.0
 10
44.048467
 20
110.318276
 30
0.0
 10
44.041930
 20
110.311137
 30
0.0
 10
44.039970
 20
110.302279
 30
0.0
  0
SPLINE
  5
21d
100
AcDbEntity
  8
1
 62
7
100
AcDbSpline
 70
8
 71
3
 72
8
 73
4
 74
0
 40
0
 40
0
 40
0
 40
0
 40
1
 40
1
 40
1
 40
1
 10
44.089251
 20
94.606482
 30
0.0
 10
44.085299
 20
94.619883
 30
0.0
 10
44.071260
 20
94.627572
 30
0.0
 10
44.057839
 20
94.623687
 30
0.0
  0
SPLINE
  5
21e
100
AcDbEntity
  8
1
 62
7
100
AcDbSpline
 70
8
 71
3
 72
8
 73
4
 74
0
 40
0
 40
0
 40
0
 40
0
 40
1
 40
1
 40
1
 40
1
 10
44.057839
 20
94.623687
 30
0.0
 10
44.044418
 20
94.619801
 30
0.0
 10
44.036659
 20
94.605801
 30
0.0
 10
44.040478
 20
94.592361
 30
0.0
  0
SPLINE
  5
21f
100
AcDbEntity
  8
1
 62
7
100
AcDbSpline
 70
8
 71
3
 72
8
 73
4
 74
0
 40
0
 40
0
 40
0
 40
0
 40
1
 40
1
 40
1
 40
1
 10
44.592526
 20
92.689102
 30
0.0
 10
44.594997
 20
92.680329
 30
0.0
 10
44.601982
 20
92.673553
 30
0.0
 10
44.610827
 20
92.671350
 30
0.0
  0
SPLINE
  5
220
100
AcDbEntity
  8
1
 62
7
100
AcDbSpline
 70
8
 71
3
 72
8
 73
4
 74
0
 40
0
 40
0
 40
0
 40
0
 40
1
 40
1
 40
1
 40
1
 10
44.610827
 20
92.671350
 30
0.0
 10
44.619671
 20
92.669147
 30
0.0
 10
44.629018
 20
92.671854
 30
0.0
 10
44.635316
 20
92.678443
 30
0.0
  0
SPLINE
  5
221
100
AcDbEntity
  8
1
 62
7
100
AcDbSpline
 70
8
 71
3
 72
8
 73
4
 74
0
 40
0
 40
0
 40
0
 40
0
 40
1
 40
1
 40
1
 40
1
 10
44.635316
 20
92.678443
 30
0.0
 10
44.641614
 20
92.685032
 30
0.0
 10
44.643897
 20
92.694492
 30
0.0
 10
44.641296
 20
92.703228
 30
0.0
  0
SPLINE
  5
222
100
AcDbEntity
  8
1
 62
7
100
AcDbSpline
 70
8
 71
3
 72
8
 73
4
 74
0
 40
0
 40
0
 40
0
 40
0
 40
1
 40
1
 40
1
 40
1
 10
43.116540
 20
100.467857
 30
0.0
 10
43.117096
 20
100.453931
 30
0.0
 10
43.128764
 20
100.443051
 30
0.0
 10
43.142695
 20
100.443469
 30
0.0
  0
SPLINE
  5
223
100
AcDbEntity
  8
1
 62
7
100
AcDbSpline
 70
8
 71
3
 72
8
 73
4
 74
0
 40
0
 40
0
 40
0
 40
0
 40
1
 40
1
 40
1
 40
1
 10
43.142695
 20
100.443469
 30
0.0
 10
43.156626
 20
100.443887
 30
0.0
 10
43.167622
 20
100.455447
 30
0.0
 10
43.167342
 20
100.469381
 30
0.0
  0
SPLINE
  5
224
100
AcDbEntity
  8
1
 62
7
100
AcDbSpline
 70
8
 71
3
 72
8
 73
4
 74
0
 40
0
 40
0
 40
0
 40
0
 40
1
 40
1
 40
1
 40
1
 10
51.649236
 20
80.869220
 30
0.0
 10
51.639312
 20
80.879011
 30
0.0
 10
51.623345
 20
80.878957
 30
0.0
 10
51.613487
 20
80.869099
 30
0.0
  0
SPLINE
  5
225
100
AcDbEntity
  8
1
 62
7
100
AcDbSpline
 70
8
 71
3
 72
8
 73
4
 74
0
 40
0
 40
0
 40
0
 40
0
 40
1
 40
1
 40
1
 40
1
 10
51.613487
 20
80.869099
 30
0.0
 10
51.603629
 20
80.859240
 30
0.0
 10
51.603577
 20
80.843274
 30
0.0
 10
51.613369
 20
80.833350
 30
0.0
  0
SPLINE
  5
226
100
AcDbEntity
  8
1
 62
7
100
AcDbSpline
 70
8
 71
3
 72
8
 73
4
 74
0
 40
0
 40
0
 40
0
 40
0
 40
1
 40
1
 40
1
 40
1
 10
53.014875
 20
79.431744
 30
0.0
 10
53.024830
 20
79.421943
 30
0.0
 10
53.040826
 20
79.422006
 30
0.0
 10
53.050705
 20
79.431884
 30
0.0
  0
SPLINE
  5
227
100
AcDbEntity
  8
1
 62
7
100
AcDbSpline
 70
8
 71
3
 72
8
 73
4
 74
0
 40
0
 40
0
 40
0
 40
0
 40
1
 40
1
 40
1
 40
1
 10
53.050705
 20
79.431884
 30
0.0
 10
53.060583
 20
79.441762
 30
0.0
 10
53.060645
 20
79.457759
 30
0.0
 10
53.050845
 20
79.467714
 30
0.0
  0
LWPOLYLINE
  5
228
100
AcDbEntity
  8
1
 62
7
100
AcDbPolyline
 90
2
 70
0
 10
43.634038
 20
108.361630
 30
0.0
 10
44.064761
 20
110.296792
 30
0.0
  0
SPLINE
  5
229
100
AcDbEntity
  8
1
 62
7
100
AcDbSpline
 70
8
 71
3
 72
8
 73
4
 74
0
 40
0
 40
0
 40
0
 40
0
 40
1
 40
1
 40
1
 40
1
 10
43.106173
 20
102.449351
 30
0.0
 10
43.105650
 20
102.463274
 30
0.0
 10
43.093993
 20
102.474169
 30
0.0
 10
43.080066
 20
102.473750
 30
0.0
  0
SPLINE
  5
22a
100
AcDbEntity
  8
1
 62
7
100
AcDbSpline
 70
8
 71
3
 72
8
 73
4
 74
0
 40
0
 40
0
 40
0
 40
0
 40
1
 40
1
 40
1
 40
1
 10
43.080066
 20
102.473750
 30
0.0
 10
43.066139
 20
102.473332
 30
0.0
 10
43.055157
 20
102.461757
 30
0.0
 10
43.055471
 20
102.447827
 30
0.0
  0
LWPOLYLINE
  5
22b
100
AcDbEntity
  8
1
 62
7
100
AcDbPolyline
 90
2
 70
0
 10
43.141940
 20
100.468667
 30
0.0
 10
43.080773
 20
102.448642
 30
0.0
  0
SPLINE
  5
22c
100
AcDbEntity
  8
1
 62
7
100
AcDbSpline
 70
8
 71
3
 72
8
 73
4
 74
0
 40
0
 40
0
 40
0
 40
0
 40
1
 40
1
 40
1
 40
1
 10
53.049625
 20
79.468730
 30
0.0
 10
53.039091
 20
79.477876
 30
0.0
 10
53.023151
 20
79.476806
 30
0.0
 10
53.013935
 20
79.466333
 30
0.0
  0
SPLINE
  5
22d
100
AcDbEntity
  8
1
 62
7
100
AcDbSpline
 70
8
 71
3
 72
8
 73
4
 74
0
 40
0
 40
0
 40
0
 40
0
 40
1
 40
1
 40
1
 40
1
 10
53.013935
 20
79.466333
 30
0.0
 10
53.004719
 20
79.455860
 30
0.0
 10
53.005683
 20
79.439913
 30
0.0
 10
53.016094
 20
79.430627
 30
0.0
  0
LWPOLYLINE
  5
22e
100
AcDbEntity
  8
1
 62
7
100
AcDbPolyline
 90
2
 70
0
 10
50.319263
 20
82.338605
 30
0.0
 10
49.103703
 20
83.903599
 30
0.0
  0
SPLINE
  5
22f
100
AcDbEntity
  8
1
 62
7
100
AcDbSpline
 70
8
 71
3
 72
8
 73
4
 74
0
 40
0
 40
0
 40
0
 40
0
 40
1
 40
1
 40
1
 40
1
 10
49.123719
 20
83.919146
 30
0.0
 10
49.118170
 20
83.926386
 30
0.0
 10
49.109168
 20
83.930098
 30
0.0
 10
49.100129
 20
83.928871
 30
0.0
  0
SPLINE
  5
230
100
AcDbEntity
  8
1
 62
7
100
AcDbSpline
 70
8
 71
3
 72
8
 73
4
 74
0
 40
0
 40
0
 40
0
 40
0
 40
1
 40
1
 40
1
 40
1
 10
49.100129
 20
83.928871
 30
0.0
 10
49.091090
 20
83.927645
 30
0.0
 10
49.083401
 20
83.921669
 30
0.0
 10
49.079982
 20
83.913212
 30
0.0
  0
SPLINE
  5
231
100
AcDbEntity
  8
1
 62
7
100
AcDbSpline
 70
8
 71
3
 72
8
 73
4
 74
0
 40
0
 40
0
 40
0
 40
0
 40
1
 40
1
 40
1
 40
1
 10
49.079982
 20
83.913212
 30
0.0
 10
49.076563
 20
83.904756
 30
0.0
 10
49.077938
 20
83.895115
 30
0.0
 10
49.083584
 20
83.887952
 30
0.0
  0
SPLINE
  5
232
100
AcDbEntity
  8
1
 62
7
100
AcDbSpline
 70
8
 71
3
 72
8
 73
4
 74
0
 40
0
 40
0
 40
0
 40
0
 40
1
 40
1
 40
1
 40
1
 10
44.089555
 20
110.291305
 30
0.0
 10
44.091516
 20
110.300162
 30
0.0
 10
44.088602
 20
110.309393
 30
0.0
 10
44.081911
 20
110.315519
 30
0.0
  0
SPLINE
  5
233
100
AcDbEntity
  8
1
 62
7
100
AcDbSpline
 70
8
 71
3
 72
8
 73
4
 74
0
 40
0
 40
0
 40
0
 40
0
 40
1
 40
1
 40
1
 40
1
 10
44.081911
 20
110.315519
 30
0.0
 10
44.075221
 20
110.321646
 30
0.0
 10
44.065770
 20
110.323738
 30
0.0
 10
44.057119
 20
110.321007
 30
0.0
  0
SPLINE
  5
234
100
AcDbEntity
  8
1
 62
7
100
AcDbSpline
 70
8
 71
3
 72
8
 73
4
 74
0
 40
0
 40
0
 40
0
 40
0
 40
1
 40
1
 40
1
 40
1
 10
44.057119
 20
110.321007
 30
0.0
 10
44.048467
 20
110.318276
 30
0.0
 10
44.041930
 20
110.311137
 30
0.0
 10
44.039970
 20
110.302279
 30
0.0
  0
SPLINE
  5
235
100
AcDbEntity
  8
1
 62
7
100
AcDbSpline
 70
8
 71
3
 72
8
 73
4
 74
0
 40
0
 40
0
 40
0
 40
0
 40
1
 40
1
 40
1
 40
1
 10
44.592526
 20
92.689102
 30
0.0
 10
44.594997
 20
92.680329
 30
0.0
 10
44.601982
 20
92.673553
 30
0.0
 10
44.610827
 20
92.671350
 30
0.0
  0
SPLINE
  5
236
100
AcDbEntity
  8
1
 62
7
100
AcDbSpline
 70
8
 71
3
 72
8
 73
4
 74
0
 40
0
 40
0
 40
0
 40
0
 40
1
 40
1
 40
1
 40
1
 10
44.610827
 20
92.671350
 30
0.0
 10
44.619671
 20
92.669147
 30
0.0
 10
44.629018
 20
92.671854
 30
0.0
 10
44.635316
 20
92.678443
 30
0.0
  0
SPLINE
  5
237
100
AcDbEntity
  8
1
 62
7
100
AcDbSpline
 70
8
 71
3
 72
8
 73
4
 74
0
 40
0
 40
0
 40
0
 40
0
 40
1
 40
1
 40
1
 40
1
 10
44.635316
 20
92.678443
 30
0.0
 10
44.641614
 20
92.685032
 30
0.0
 10
44.643897
 20
92.694492
 30
0.0
 10
44.641296
 20
92.703228
 30
0.0
  0
SPLINE
  5
238
100
AcDbEntity
  8
1
 62
7
100
AcDbSpline
 70
8
 71
3
 72
8
 73
4
 74
0
 40
0
 40
0
 40
0
 40
0
 40
1
 40
1
 40
1
 40
1
 10
43.609247
 20
108.367117
 30
0.0
 10
43.607162
 20
108.358219
 30
0.0
 10
43.610017
 20
108.348887
 30
0.0
 10
43.616724
 20
108.342679
 30
0.0
  0
SPLINE
  5
239
100
AcDbEntity
  8
1
 62
7
100
AcDbSpline
 70
8
 71
3
 72
8
 73
4
 74
0
 40
0
 40
0
 40
0
 40
0
 40
1
 40
1
 40
1
 40
1
 10
43.616724
 20
108.342679
 30
0.0
 10
43.623430
 20
108.336471
 30
0.0
 10
43.632954
 20
108.334344
 30
0.0
 10
43.641665
 20
108.337108
 30
0.0
  0
SPLINE
  5
23a
100
AcDbEntity
  8
1
 62
7
100
AcDbSpline
 70
8
 71
3
 72
8
 73
4
 74
0
 40
0
 40
0
 40
0
 40
0
 40
1
 40
1
 40
1
 40
1
 10
43.641665
 20
108.337108
 30
0.0
 10
43.650376
 20
108.339872
 30
0.0
 10
43.656930
 20
108.347102
 30
0.0
 10
43.658830
 20
108.356042
 30
0.0
  0
SPLINE
  5
23b
100
AcDbEntity
  8
1
 62
7
100
AcDbSpline
 70
8
 71
3
 72
8
 73
4
 74
0
 40
0
 40
0
 40
0
 40
0
 40
1
 40
1
 40
1
 40
1
 10
43.167242
 20
100.471003
 30
0.0
 10
43.166420
 20
100.480067
 30
0.0
 10
43.160814
 20
100.488000
 30
0.0
 10
43.152544
 20
100.491800
 30
0.0
  0
SPLINE
  5
23c
100
AcDbEntity
  8
1
 62
7
100
AcDbSpline
 70
8
 71
3
 72
8
 73
4
 74
0
 40
0
 40
0
 40
0
 40
0
 40
1
 40
1
 40
1
 40
1
 10
43.152544
 20
100.491800
 30
0.0
 10
43.144274
 20
100.495600
 30
0.0
 10
43.134603
 20
100.494688
 30
0.0
 10
43.127190
 20
100.489408
 30
0.0
  0
SPLINE
  5
23d
100
AcDbEntity
  8
1
 62
7
100
AcDbSpline
 70
8
 71
3
 72
8
 73
4
 74
0
 40
0
 40
0
 40
0
 40
0
 40
1
 40
1
 40
1
 40
1
 10
43.127190
 20
100.489408
 30
0.0
 10
43.119777
 20
100.484129
 30
0.0
 10
43.115753
 20
100.475288
 30
0.0
 10
43.116640
 20
100.466230
 30
0.0
  0
LWPOLYLINE
  5
23e
100
AcDbEntity
  8
1
 62
7
100
AcDbPolyline
 90
3
 70
0
 10
56.085325
 20
76.921774
 30
0.0
 10
54.518907
 20
78.138553
 30
0.0
 10
53.032858
 20
79.449730
 30
0.0
  0
SPLINE
  5
23f
100
AcDbEntity
  8
1
 62
7
100
AcDbSpline
 70
8
 71
3
 72
8
 73
4
 74
0
 40
0
 40
0
 40
0
 40
0
 40
1
 40
1
 40
1
 40
1
 10
46.999358
 20
87.260386
 30
0.0
 10
46.994769
 20
87.268272
 30
0.0
 10
46.986303
 20
87.273090
 30
0.0
 10
46.977179
 20
87.273009
 30
0.0
  0
SPLINE
  5
240
100
AcDbEntity
  8
1
 62
7
100
AcDbSpline
 70
8
 71
3
 72
8
 73
4
 74
0
 40
0
 40
0
 40
0
 40
0
 40
1
 40
1
 40
1
 40
1
 10
46.977179
 20
87.273009
 30
0.0
 10
46.968055
 20
87.272927
 30
0.0
 10
46.959677
 20
87.267958
 30
0.0
 10
46.955229
 20
87.259991
 30
0.0
  0
SPLINE
  5
241
100
AcDbEntity
  8
1
 62
7
100
AcDbSpline
 70
8
 71
3
 72
8
 73
4
 74
0
 40
0
 40
0
 40
0
 40
0
 40
1
 40
1
 40
1
 40
1
 10
46.955229
 20
87.259991
 30
0.0
 10
46.950782
 20
87.252025
 30
0.0
 10
46.950949
 20
87.242285
 30
0.0
 10
46.955668
 20
87.234476
 30
0.0
  0
LWPOLYLINE
  5
242
100
AcDbEntity
  8
1
 62
7
100
AcDbPolyline
 90
2
 70
0
 10
47.988432
 20
85.541552
 30
0.0
 10
46.977514
 20
87.247379
 30
0.0
  0
SPLINE
  5
243
100
AcDbEntity
  8
1
 62
7
100
AcDbSpline
 70
8
 71
3
 72
8
 73
4
 74
0
 40
0
 40
0
 40
0
 40
0
 40
1
 40
1
 40
1
 40
1
 10
50.299144
 20
82.322954
 30
0.0
 10
50.304716
 20
82.315785
 30
0.0
 10
50.313690
 20
82.312132
 30
0.0
 10
50.322686
 20
82.313373
 30
0.0
  0
SPLINE
  5
244
100
AcDbEntity
  8
1
 62
7
100
AcDbSpline
 70
8
 71
3
 72
8
 73
4
 74
0
 40
0
 40
0
 40
0
 40
0
 40
1
 40
1
 40
1
 40
1
 10
50.322686
 20
82.313373
 30
0.0
 10
50.331681
 20
82.314614
 30
0.0
 10
50.339331
 20
82.320560
 30
0.0
 10
50.342754
 20
82.328970
 30
0.0
  0
SPLINE
  5
245
100
AcDbEntity
  8
1
 62
7
100
AcDbSpline
 70
8
 71
3
 72
8
 73
4
 74
0
 40
0
 40
0
 40
0
 40
0
 40
1
 40
1
 40
1
 40
1
 10
50.342754
 20
82.328970
 30
0.0
 10
50.346177
 20
82.337381
 30
0.0
 10
50.344853
 20
82.346979
 30
0.0
 10
50.339281
 20
82.354149
 30
0.0
  0
LWPOLYLINE
  5
246
100
AcDbEntity
  8
1
 62
7
100
AcDbPolyline
 90
2
 70
0
 10
43.142043
 20
104.430135
 30
0.0
 10
43.326262
 20
106.402996
 30
0.0
  0
SPLINE
  5
247
100
AcDbEntity
  8
1
 62
7
100
AcDbSpline
 70
8
 71
3
 72
8
 73
4
 74
0
 40
0
 40
0
 40
0
 40
0
 40
1
 40
1
 40
1
 40
1
 10
54.534551
 20
78.158572
 30
0.0
 10
54.523465
 20
78.167113
 30
0.0
 10
54.507559
 20
78.165084
 30
0.0
 10
54.498971
 20
78.154034
 30
0.0
  0
SPLINE
  5
248
100
AcDbEntity
  8
1
 62
7
100
AcDbSpline
 70
8
 71
3
 72
8
 73
4
 74
0
 40
0
 40
0
 40
0
 40
0
 40
1
 40
1
 40
1
 40
1
 10
54.498971
 20
78.154034
 30
0.0
 10
54.490382
 20
78.142983
 30
0.0
 10
54.492343
 20
78.127069
 30
0.0
 10
54.503357
 20
78.118434
 30
0.0
  0
SPLINE
  5
249
100
AcDbEntity
  8
1
 62
7
100
AcDbSpline
 70
8
 71
3
 72
8
 73
4
 74
0
 40
0
 40
0
 40
0
 40
0
 40
1
 40
1
 40
1
 40
1
 10
54.502140
 20
78.119450
 30
0.0
 10
54.508946
 20
78.113439
 30
0.0
 10
54.518443
 20
78.111517
 30
0.0
 10
54.527051
 20
78.114407
 30
0.0
  0
SPLINE
  5
24a
100
AcDbEntity
  8
1
 62
7
100
AcDbSpline
 70
8
 71
3
 72
8
 73
4
 74
0
 40
0
 40
0
 40
0
 40
0
 40
1
 40
1
 40
1
 40
1
 10
54.527051
 20
78.114407
 30
0.0
 10
54.535660
 20
78.117298
 30
0.0
 10
54.542072
 20
78.124562
 30
0.0
 10
54.543871
 20
78.133463
 30
0.0
  0
SPLINE
  5
24b
100
AcDbEntity
  8
1
 62
7
100
AcDbSpline
 70
8
 71
3
 72
8
 73
4
 74
0
 40
0
 40
0
 40
0
 40
0
 40
1
 40
1
 40
1
 40
1
 10
54.543871
 20
78.133463
 30
0.0
 10
54.545670
 20
78.142364
 30
0.0
 10
54.542583
 20
78.151548
 30
0.0
 10
54.535774
 20
78.157556
 30
0.0
  0
SPLINE
  5
24c
100
AcDbEntity
  8
1
 62
7
100
AcDbSpline
 70
8
 71
3
 72
8
 73
4
 74
0
 40
0
 40
0
 40
0
 40
0
 40
1
 40
1
 40
1
 40
1
 10
43.300859
 20
98.492150
 30
0.0
 10
43.302204
 20
98.478199
 30
0.0
 10
43.314591
 20
98.467971
 30
0.0
 10
43.328544
 20
98.469288
 30
0.0
  0
SPLINE
  5
24d
100
AcDbEntity
  8
1
 62
7
100
AcDbSpline
 70
8
 71
3
 72
8
 73
4
 74
0
 40
0
 40
0
 40
0
 40
0
 40
1
 40
1
 40
1
 40
1
 10
43.328544
 20
98.469288
 30
0.0
 10
43.342498
 20
98.470606
 30
0.0
 10
43.352751
 20
98.482972
 30
0.0
 10
43.351461
 20
98.496928
 30
0.0
  0
SPLINE
  5
24e
100
AcDbEntity
  8
1
 62
7
100
AcDbSpline
 70
8
 71
3
 72
8
 73
4
 74
0
 40
0
 40
0
 40
0
 40
0
 40
1
 40
1
 40
1
 40
1
 10
43.351561
 20
106.400556
 30
0.0
 10
43.352825
 20
106.414498
 30
0.0
 10
43.342576
 20
106.426836
 30
0.0
 10
43.328639
 20
106.428151
 30
0.0
  0
SPLINE
  5
24f
100
AcDbEntity
  8
1
 62
7
100
AcDbSpline
 70
8
 71
3
 72
8
 73
4
 74
0
 40
0
 40
0
 40
0
 40
0
 40
1
 40
1
 40
1
 40
1
 10
43.328639
 20
106.428151
 30
0.0
 10
43.314703
 20
106.429467
 30
0.0
 10
43.302327
 20
106.419264
 30
0.0
 10
43.300960
 20
106.405332
 30
0.0
  0
SPLINE
  5
250
100
AcDbEntity
  8
1
 62
7
100
AcDbSpline
 70
8
 71
3
 72
8
 73
4
 74
0
 40
0
 40
0
 40
0
 40
0
 40
1
 40
1
 40
1
 40
1
 10
43.608839
 20
96.531484
 30
0.0
 10
43.610255
 20
96.522517
 30
0.0
 10
43.616347
 20
96.514987
 30
0.0
 10
43.624821
 20
96.511730
 30
0.0
  0
SPLINE
  5
251
100
AcDbEntity
  8
1
 62
7
100
AcDbSpline
 70
8
 71
3
 72
8
 73
4
 74
0
 40
0
 40
0
 40
0
 40
0
 40
1
 40
1
 40
1
 40
1
 10
43.624821
 20
96.511730
 30
0.0
 10
43.633294
 20
96.508473
 30
0.0
 10
43.642862
 20
96.509984
 30
0.0
 10
43.649919
 20
96.515694
 30
0.0
  0
SPLINE
  5
252
100
AcDbEntity
  8
1
 62
7
100
AcDbSpline
 70
8
 71
3
 72
8
 73
4
 74
0
 40
0
 40
0
 40
0
 40
0
 40
1
 40
1
 40
1
 40
1
 10
43.649919
 20
96.515694
 30
0.0
 10
43.656977
 20
96.521403
 30
0.0
 10
43.660452
 20
96.530444
 30
0.0
 10
43.659036
 20
96.539411
 30
0.0
  0
SPLINE
  5
253
100
AcDbEntity
  8
1
 62
7
100
AcDbSpline
 70
8
 71
3
 72
8
 73
4
 74
0
 40
0
 40
0
 40
0
 40
0
 40
1
 40
1
 40
1
 40
1
 10
56.069778
 20
76.901655
 30
0.0
 10
56.080861
 20
76.893069
 30
0.0
 10
56.096807
 20
76.895093
 30
0.0
 10
56.105393
 20
76.906177
 30
0.0
  0
SPLINE
  5
254
100
AcDbEntity
  8
1
 62
7
100
AcDbSpline
 70
8
 71
3
 72
8
 73
4
 74
0
 40
0
 40
0
 40
0
 40
0
 40
1
 40
1
 40
1
 40
1
 10
56.105393
 20
76.906177
 30
0.0
 10
56.113980
 20
76.917261
 30
0.0
 10
56.111955
 20
76.933206
 30
0.0
 10
56.100872
 20
76.941792
 30
0.0
  0
SPLINE
  5
255
100
AcDbEntity
  8
1
 62
7
100
AcDbSpline
 70
8
 71
3
 72
8
 73
4
 74
0
 40
0
 40
0
 40
0
 40
0
 40
1
 40
1
 40
1
 40
1
 10
43.116741
 20
104.432474
 30
0.0
 10
43.115880
 20
104.423422
 30
0.0
 10
43.119923
 20
104.414599
 30
0.0
 10
43.127342
 20
104.409341
 30
0.0
  0
SPLINE
  5
256
100
AcDbEntity
  8
1
 62
7
100
AcDbSpline
 70
8
 71
3
 72
8
 73
4
 74
0
 40
0
 40
0
 40
0
 40
0
 40
1
 40
1
 40
1
 40
1
 10
43.127342
 20
104.409341
 30
0.0
 10
43.134761
 20
104.404082
 30
0.0
 10
43.144425
 20
104.403189
 30
0.0
 10
43.152682
 20
104.406999
 30
0.0
  0
SPLINE
  5
257
100
AcDbEntity
  8
1
 62
7
100
AcDbSpline
 70
8
 71
3
 72
8
 73
4
 74
0
 40
0
 40
0
 40
0
 40
0
 40
1
 40
1
 40
1
 40
1
 10
43.152682
 20
104.406999
 30
0.0
 10
43.160939
 20
104.410810
 30
0.0
 10
43.166530
 20
104.418742
 30
0.0
 10
43.167342
 20
104.427799
 30
0.0
  0
LWPOLYLINE
  5
258
100
AcDbEntity
  8
1
 62
7
100
AcDbPolyline
 90
2
 70
0
 10
43.326158
 20
98.494489
 30
0.0
 10
43.141940
 20
100.468667
 30
0.0
  0
LWPOLYLINE
  5
259
100
AcDbEntity
  8
1
 62
7
100
AcDbPolyline
 90
2
 70
0
 10
43.634038
 20
108.361630
 30
0.0
 10
44.064761
 20
110.296792
 30
0.0
  0
SPLINE
  5
25a
100
AcDbEntity
  8
1
 62
7
100
AcDbSpline
 70
8
 71
3
 72
8
 73
4
 74
0
 40
0
 40
0
 40
0
 40
0
 40
1
 40
1
 40
1
 40
1
 10
44.089251
 20
94.606482
 30
0.0
 10
44.085299
 20
94.619883
 30
0.0
 10
44.071260
 20
94.627572
 30
0.0
 10
44.057839
 20
94.623687
 30
0.0
  0
SPLINE
  5
25b
100
AcDbEntity
  8
1
 62
7
100
AcDbSpline
 70
8
 71
3
 72
8
 73
4
 74
0
 40
0
 40
0
 40
0
 40
0
 40
1
 40
1
 40
1
 40
1
 10
44.057839
 20
94.623687
 30
0.0
 10
44.044418
 20
94.619801
 30
0.0
 10
44.036659
 20
94.605801
 30
0.0
 10
44.040478
 20
94.592361
 30
0.0
  0
SPLINE
  5
25c
100
AcDbEntity
  8
1
 62
7
100
AcDbSpline
 70
8
 71
3
 72
8
 73
4
 74
0
 40
0
 40
0
 40
0
 40
0
 40
1
 40
1
 40
1
 40
1
 10
47.966588
 20
85.528548
 30
0.0
 10
47.973815
 20
85.516647
 30
0.0
 10
47.989276
 20
85.512783
 30
0.0
 10
48.001252
 20
85.519885
 30
0.0
  0
SPLINE
  5
25d
100
AcDbEntity
  8
1
 62
7
100
AcDbSpline
 70
8
 71
3
 72
8
 73
4
 74
0
 40
0
 40
0
 40
0
 40
0
 40
1
 40
1
 40
1
 40
1
 10
48.001252
 20
85.519885
 30
0.0
 10
48.013228
 20
85.526987
 30
0.0
 10
48.017254
 20
85.542406
 30
0.0
 10
48.010278
 20
85.554456
 30
0.0
  0
SPLINE
  5
25e
100
AcDbEntity
  8
1
 62
7
100
AcDbSpline
 70
8
 71
3
 72
8
 73
4
 74
0
 40
0
 40
0
 40
0
 40
0
 40
1
 40
1
 40
1
 40
1
 10
43.106173
 20
102.449351
 30
0.0
 10
43.105650
 20
102.463274
 30
0.0
 10
43.093993
 20
102.474169
 30
0.0
 10
43.080066
 20
102.473750
 30
0.0
  0
SPLINE
  5
25f
100
AcDbEntity
  8
1
 62
7
100
AcDbSpline
 70
8
 71
3
 72
8
 73
4
 74
0
 40
0
 40
0
 40
0
 40
0
 40
1
 40
1
 40
1
 40
1
 10
43.080066
 20
102.473750
 30
0.0
 10
43.066139
 20
102.473332
 30
0.0
 10
43.055157
 20
102.461757
 30
0.0
 10
43.055471
 20
102.447827
 30
0.0
  0
SPLINE
  5
260
100
AcDbEntity
  8
1
 62
7
100
AcDbSpline
 70
8
 71
3
 72
8
 73
4
 74
0
 40
0
 40
0
 40
0
 40
0
 40
1
 40
1
 40
1
 40
1
 10
43.116540
 20
100.467857
 30
0.0
 10
43.117096
 20
100.453931
 30
0.0
 10
43.128764
 20
100.443051
 30
0.0
 10
43.142695
 20
100.443469
 30
0.0
  0
SPLINE
  5
261
100
AcDbEntity
  8
1
 62
7
100
AcDbSpline
 70
8
 71
3
 72
8
 73
4
 74
0
 40
0
 40
0
 40
0
 40
0
 40
1
 40
1
 40
1
 40
1
 10
43.142695
 20
100.443469
 30
0.0
 10
43.156626
 20
100.443887
 30
0.0
 10
43.167622
 20
100.455447
 30
0.0
 10
43.167342
 20
100.469381
 30
0.0
  0
SPLINE
  5
262
100
AcDbEntity
  8
1
 62
7
100
AcDbSpline
 70
8
 71
3
 72
8
 73
4
 74
0
 40
0
 40
0
 40
0
 40
0
 40
1
 40
1
 40
1
 40
1
 10
53.014875
 20
79.431744
 30
0.0
 10
53.024830
 20
79.421943
 30
0.0
 10
53.040826
 20
79.422006
 30
0.0
 10
53.050705
 20
79.431884
 30
0.0
  0
SPLINE
  5
263
100
AcDbEntity
  8
1
 62
7
100
AcDbSpline
 70
8
 71
3
 72
8
 73
4
 74
0
 40
0
 40
0
 40
0
 40
0
 40
1
 40
1
 40
1
 40
1
 10
53.050705
 20
79.431884
 30
0.0
 10
53.060583
 20
79.441762
 30
0.0
 10
53.060645
 20
79.457759
 30
0.0
 10
53.050845
 20
79.467714
 30
0.0
  0
LWPOLYLINE
  5
264
100
AcDbEntity
  8
1
 62
7
100
AcDbPolyline
 90
2
 70
0
 10
44.616912
 20
92.696113
 30
0.0
 10
44.064865
 20
94.599470
 30
0.0
  0
LWPOLYLINE
  5
265
100
AcDbEntity
  8
1
 62
7
100
AcDbPolyline
 90
2
 70
0
 10
53.032858
 20
79.449730
 30
0.0
 10
51.631353
 20
80.851337
 30
0.0
  0
SPLINE
  5
266
100
AcDbEntity
  8
1
 62
7
100
AcDbSpline
 70
8
 71
3
 72
8
 73
4
 74
0
 40
0
 40
0
 40
0
 40
0
 40
1
 40
1
 40
1
 40
1
 10
51.649236
 20
80.869220
 30
0.0
 10
51.639312
 20
80.879011
 30
0.0
 10
51.623345
 20
80.878957
 30
0.0
 10
51.613487
 20
80.869099
 30
0.0
  0
SPLINE
  5
267
100
AcDbEntity
  8
1
 62
7
100
AcDbSpline
 70
8
 71
3
 72
8
 73
4
 74
0
 40
0
 40
0
 40
0
 40
0
 40
1
 40
1
 40
1
 40
1
 10
51.613487
 20
80.869099
 30
0.0
 10
51.603629
 20
80.859240
 30
0.0
 10
51.603577
 20
80.843274
 30
0.0
 10
51.613369
 20
80.833350
 30
0.0
  0
SPLINE
  5
268
100
AcDbEntity
  8
1
 62
7
100
AcDbSpline
 70
8
 71
3
 72
8
 73
4
 74
0
 40
0
 40
0
 40
0
 40
0
 40
1
 40
1
 40
1
 40
1
 10
53.016706
 20
125.466654
 30
0.0
 10
53.006326
 20
125.457333
 30
0.0
 10
53.005400
 20
125.441388
 30
0.0
 10
53.014631
 20
125.430929
 30
0.0
  0
SPLINE
  5
269
100
AcDbEntity
  8
1
 62
7
100
AcDbSpline
 70
8
 71
3
 72
8
 73
4
 74
0
 40
0
 40
0
 40
0
 40
0
 40
1
 40
1
 40
1
 40
1
 10
53.014631
 20
125.430929
 30
0.0
 10
53.023863
 20
125.420470
 30
0.0
 10
53.039800
 20
125.419409
 30
0.0
 10
53.050337
 20
125.428551
 30
0.0
  0
LWPOLYLINE
  5
26a
100
AcDbEntity
  8
1
 62
7
100
AcDbPolyline
 90
2
 70
0
 10
43.141940
 20
100.468667
 30
0.0
 10
43.080773
 20
102.448642
 30
0.0
  0
SPLINE
  5
26b
100
AcDbEntity
  8
1
 62
7
100
AcDbSpline
 70
8
 71
3
 72
8
 73
4
 74
0
 40
0
 40
0
 40
0
 40
0
 40
1
 40
1
 40
1
 40
1
 10
64.871031
 20
132.486481
 30
0.0
 10
64.862253
 20
132.483996
 30
0.0
 10
64.855481
 20
132.476994
 30
0.0
 10
64.853291
 20
132.468137
 30
0.0
  0
SPLINE
  5
26c
100
AcDbEntity
  8
1
 62
7
100
AcDbSpline
 70
8
 71
3
 72
8
 73
4
 74
0
 40
0
 40
0
 40
0
 40
0
 40
1
 40
1
 40
1
 40
1
 10
64.853291
 20
132.468137
 30
0.0
 10
64.851101
 20
132.459280
 30
0.0
 10
64.853828
 20
132.449929
 30
0.0
 10
64.860437
 20
132.443639
 30
0.0
  0
SPLINE
  5
26d
100
AcDbEntity
  8
1
 62
7
100
AcDbSpline
 70
8
 71
3
 72
8
 73
4
 74
0
 40
0
 40
0
 40
0
 40
0
 40
1
 40
1
 40
1
 40
1
 10
64.860437
 20
132.443639
 30
0.0
 10
64.867046
 20
132.437349
 30
0.0
 10
64.876520
 20
132.435086
 30
0.0
 10
64.885258
 20
132.437710
 30
0.0
  0
SPLINE
  5
26e
100
AcDbEntity
  8
1
 62
7
100
AcDbSpline
 70
8
 71
3
 72
8
 73
4
 74
0
 40
0
 40
0
 40
0
 40
0
 40
1
 40
1
 40
1
 40
1
 10
56.101279
 20
127.955184
 30
0.0
 10
56.112362
 20
127.963771
 30
0.0
 10
56.114385
 20
127.979717
 30
0.0
 10
56.105798
 20
127.990800
 30
0.0
  0
SPLINE
  5
26f
100
AcDbEntity
  8
1
 62
7
100
AcDbSpline
 70
8
 71
3
 72
8
 73
4
 74
0
 40
0
 40
0
 40
0
 40
0
 40
1
 40
1
 40
1
 40
1
 10
56.105798
 20
127.990800
 30
0.0
 10
56.097211
 20
128.001883
 30
0.0
 10
56.081265
 20
128.003906
 30
0.0
 10
56.070183
 20
127.995319
 30
0.0
  0
SPLINE
  5
270
100
AcDbEntity
  8
1
 62
7
100
AcDbSpline
 70
8
 71
3
 72
8
 73
4
 74
0
 40
0
 40
0
 40
0
 40
0
 40
1
 40
1
 40
1
 40
1
 10
54.505188
 20
126.779760
 30
0.0
 10
54.498018
 20
126.774205
 30
0.0
 10
54.494356
 20
126.765248
 30
0.0
 10
54.495581
 20
126.756261
 30
0.0
  0
SPLINE
  5
271
100
AcDbEntity
  8
1
 62
7
100
AcDbSpline
 70
8
 71
3
 72
8
 73
4
 74
0
 40
0
 40
0
 40
0
 40
0
 40
1
 40
1
 40
1
 40
1
 10
54.495581
 20
126.756261
 30
0.0
 10
54.496807
 20
126.747275
 30
0.0
 10
54.502733
 20
126.739625
 30
0.0
 10
54.511128
 20
126.736193
 30
0.0
  0
SPLINE
  5
272
100
AcDbEntity
  8
1
 62
7
100
AcDbSpline
 70
8
 71
3
 72
8
 73
4
 74
0
 40
0
 40
0
 40
0
 40
0
 40
1
 40
1
 40
1
 40
1
 10
54.511128
 20
126.736193
 30
0.0
 10
54.519524
 20
126.732760
 30
0.0
 10
54.529112
 20
126.734068
 30
0.0
 10
54.536282
 20
126.739622
 30
0.0
  0
LWPOLYLINE
  5
273
100
AcDbEntity
  8
1
 62
7
100
AcDbPolyline
 90
2
 70
0
 10
54.520732
 20
126.759641
 30
0.0
 10
56.085732
 20
127.975203
 30
0.0
  0
SPLINE
  5
274
100
AcDbEntity
  8
1
 62
7
100
AcDbSpline
 70
8
 71
3
 72
8
 73
4
 74
0
 40
0
 40
0
 40
0
 40
0
 40
1
 40
1
 40
1
 40
1
 10
54.537502
 20
126.740638
 30
0.0
 10
54.544308
 20
126.746628
 30
0.0
 10
54.547402
 20
126.755795
 30
0.0
 10
54.545618
 20
126.764685
 30
0.0
  0
SPLINE
  5
275
100
AcDbEntity
  8
1
 62
7
100
AcDbSpline
 70
8
 71
3
 72
8
 73
4
 74
0
 40
0
 40
0
 40
0
 40
0
 40
1
 40
1
 40
1
 40
1
 10
54.545618
 20
126.764685
 30
0.0
 10
54.543834
 20
126.773575
 30
0.0
 10
54.537443
 20
126.780838
 30
0.0
 10
54.528852
 20
126.783738
 30
0.0
  0
SPLINE
  5
276
100
AcDbEntity
  8
1
 62
7
100
AcDbSpline
 70
8
 71
3
 72
8
 73
4
 74
0
 40
0
 40
0
 40
0
 40
0
 40
1
 40
1
 40
1
 40
1
 10
54.528852
 20
126.783738
 30
0.0
 10
54.520261
 20
126.786637
 30
0.0
 10
54.510775
 20
126.784734
 30
0.0
 10
54.503968
 20
126.778744
 30
0.0
  0
LWPOLYLINE
  5
277
100
AcDbEntity
  8
1
 62
7
100
AcDbPolyline
 90
2
 70
0
 10
53.033470
 20
125.447551
 30
0.0
 10
54.520732
 20
126.759641
 30
0.0
  0
LWPOLYLINE
  5
278
100
AcDbEntity
  8
1
 62
7
100
AcDbPolyline
 90
2
 70
0
 10
64.878143
 20
132.462097
 30
0.0
 10
66.781400
 20
133.014142
 30
0.0
  0
SPLINE
  5
279
100
AcDbEntity
  8
1
 62
7
100
AcDbSpline
 70
8
 71
3
 72
8
 73
4
 74
0
 40
0
 40
0
 40
0
 40
0
 40
1
 40
1
 40
1
 40
1
 10
66.788514
 20
132.989755
 30
0.0
 10
66.801980
 20
132.993657
 30
0.0
 10
66.809735
 20
133.007736
 30
0.0
 10
66.805835
 20
133.021202
 30
0.0
  0
SPLINE
  5
27a
100
AcDbEntity
  8
1
 62
7
100
AcDbSpline
 70
8
 71
3
 72
8
 73
4
 74
0
 40
0
 40
0
 40
0
 40
0
 40
1
 40
1
 40
1
 40
1
 10
66.805835
 20
133.021202
 30
0.0
 10
66.801935
 20
133.034669
 30
0.0
 10
66.787858
 20
133.042426
 30
0.0
 10
66.774391
 20
133.038529
 30
0.0
  0
SPLINE
  5
27b
100
AcDbEntity
  8
1
 62
7
100
AcDbSpline
 70
8
 71
3
 72
8
 73
4
 74
0
 40
0
 40
0
 40
0
 40
0
 40
1
 40
1
 40
1
 40
1
 10
48.010686
 20
119.342822
 30
0.0
 10
48.017841
 20
119.354888
 30
0.0
 10
48.013860
 20
119.370469
 30
0.0
 10
48.001794
 20
119.377624
 30
0.0
  0
SPLINE
  5
27c
100
AcDbEntity
  8
1
 62
7
100
AcDbSpline
 70
8
 71
3
 72
8
 73
4
 74
0
 40
0
 40
0
 40
0
 40
0
 40
1
 40
1
 40
1
 40
1
 10
48.001794
 20
119.377624
 30
0.0
 10
47.989729
 20
119.384779
 30
0.0
 10
47.974148
 20
119.380798
 30
0.0
 10
47.966992
 20
119.368733
 30
0.0
  0
SPLINE
  5
27d
100
AcDbEntity
  8
1
 62
7
100
AcDbSpline
 70
8
 71
3
 72
8
 73
4
 74
0
 40
0
 40
0
 40
0
 40
0
 40
1
 40
1
 40
1
 40
1
 10
51.650964
 20
124.029278
 30
0.0
 10
51.660092
 20
124.039814
 30
0.0
 10
51.659014
 20
124.055740
 30
0.0
 10
51.648549
 20
124.064949
 30
0.0
  0
SPLINE
  5
27e
100
AcDbEntity
  8
1
 62
7
100
AcDbSpline
 70
8
 71
3
 72
8
 73
4
 74
0
 40
0
 40
0
 40
0
 40
0
 40
1
 40
1
 40
1
 40
1
 10
51.648549
 20
124.064949
 30
0.0
 10
51.638084
 20
124.074158
 30
0.0
 10
51.622150
 20
124.073203
 30
0.0
 10
51.612861
 20
124.062809
 30
0.0
  0
LWPOLYLINE
  5
27f
100
AcDbEntity
  8
1
 62
7
100
AcDbPolyline
 90
2
 70
0
 10
46.977922
 20
117.650002
 30
0.0
 10
47.988839
 20
119.355829
 30
0.0
  0
LWPOLYLINE
  5
280
100
AcDbEntity
  8
1
 62
7
100
AcDbPolyline
 90
2
 70
0
 10
61.194580
 20
131.002467
 30
0.0
 10
63.013397
 20
131.790555
 30
0.0
  0
SPLINE
  5
281
100
AcDbEntity
  8
1
 62
7
100
AcDbSpline
 70
8
 71
3
 72
8
 73
4
 74
0
 40
0
 40
0
 40
0
 40
0
 40
1
 40
1
 40
1
 40
1
 10
50.301686
 20
122.576766
 30
0.0
 10
50.295675
 20
122.569960
 30
0.0
 10
50.293752
 20
122.560464
 30
0.0
 10
50.296642
 20
122.551855
 30
0.0
  0
SPLINE
  5
282
100
AcDbEntity
  8
1
 62
7
100
AcDbSpline
 70
8
 71
3
 72
8
 73
4
 74
0
 40
0
 40
0
 40
0
 40
0
 40
1
 40
1
 40
1
 40
1
 10
50.296642
 20
122.551855
 30
0.0
 10
50.299532
 20
122.543247
 30
0.0
 10
50.306796
 20
122.536834
 30
0.0
 10
50.315696
 20
122.535034
 30
0.0
  0
SPLINE
  5
283
100
AcDbEntity
  8
1
 62
7
100
AcDbSpline
 70
8
 71
3
 72
8
 73
4
 74
0
 40
0
 40
0
 40
0
 40
0
 40
1
 40
1
 40
1
 40
1
 10
50.315696
 20
122.535034
 30
0.0
 10
50.324597
 20
122.533235
 30
0.0
 10
50.333781
 20
122.536320
 30
0.0
 10
50.339789
 20
122.543129
 30
0.0
  0
SPLINE
  5
284
100
AcDbEntity
  8
1
 62
7
100
AcDbSpline
 70
8
 71
3
 72
8
 73
4
 74
0
 40
0
 40
0
 40
0
 40
0
 40
1
 40
1
 40
1
 40
1
 10
63.023456
 20
131.767285
 30
0.0
 10
63.031849
 20
131.770857
 30
0.0
 10
63.037684
 20
131.778652
 30
0.0
 10
63.038746
 20
131.787711
 30
0.0
  0
SPLINE
  5
285
100
AcDbEntity
  8
1
 62
7
100
AcDbSpline
 70
8
 71
3
 72
8
 73
4
 74
0
 40
0
 40
0
 40
0
 40
0
 40
1
 40
1
 40
1
 40
1
 10
63.038746
 20
131.787711
 30
0.0
 10
63.039809
 20
131.796770
 30
0.0
 10
63.035936
 20
131.805704
 30
0.0
 10
63.028597
 20
131.811121
 30
0.0
  0
SPLINE
  5
286
100
AcDbEntity
  8
1
 62
7
100
AcDbSpline
 70
8
 71
3
 72
8
 73
4
 74
0
 40
0
 40
0
 40
0
 40
0
 40
1
 40
1
 40
1
 40
1
 10
63.028597
 20
131.811121
 30
0.0
 10
63.021259
 20
131.816538
 30
0.0
 10
63.011581
 20
131.817607
 30
0.0
 10
63.003237
 20
131.813923
 30
0.0
  0
SPLINE
  5
287
100
AcDbEntity
  8
1
 62
7
100
AcDbSpline
 70
8
 71
3
 72
8
 73
4
 74
0
 40
0
 40
0
 40
0
 40
0
 40
1
 40
1
 40
1
 40
1
 10
72.652932
 20
133.911868
 30
0.0
 10
72.666885
 20
133.913210
 30
0.0
 10
72.677116
 20
133.925597
 30
0.0
 10
72.675799
 20
133.939552
 30
0.0
  0
SPLINE
  5
288
100
AcDbEntity
  8
1
 62
7
100
AcDbSpline
 70
8
 71
3
 72
8
 73
4
 74
0
 40
0
 40
0
 40
0
 40
0
 40
1
 40
1
 40
1
 40
1
 10
72.675799
 20
133.939552
 30
0.0
 10
72.674482
 20
133.953507
 30
0.0
 10
72.662114
 20
133.963761
 30
0.0
 10
72.648157
 20
133.962469
 30
0.0
  0
LWPOLYLINE
  5
289
100
AcDbEntity
  8
1
 62
7
100
AcDbPolyline
 90
2
 70
0
 10
50.320787
 20
122.559997
 30
0.0
 10
51.631964
 20
124.046045
 30
0.0
  0
SPLINE
  5
28a
100
AcDbEntity
  8
1
 62
7
100
AcDbSpline
 70
8
 71
3
 72
8
 73
4
 74
0
 40
0
 40
0
 40
0
 40
0
 40
1
 40
1
 40
1
 40
1
 10
57.710679
 20
129.112318
 30
0.0
 10
57.698742
 20
129.105106
 30
0.0
 10
57.694854
 20
129.089619
 30
0.0
 10
57.701968
 20
129.077624
 30
0.0
  0
SPLINE
  5
28b
100
AcDbEntity
  8
1
 62
7
100
AcDbSpline
 70
8
 71
3
 72
8
 73
4
 74
0
 40
0
 40
0
 40
0
 40
0
 40
1
 40
1
 40
1
 40
1
 10
57.701968
 20
129.077624
 30
0.0
 10
57.709081
 20
129.065629
 30
0.0
 10
57.724536
 20
129.061613
 30
0.0
 10
57.736589
 20
129.068628
 30
0.0
  0
SPLINE
  5
28c
100
AcDbEntity
  8
1
 62
7
100
AcDbSpline
 70
8
 71
3
 72
8
 73
4
 74
0
 40
0
 40
0
 40
0
 40
0
 40
1
 40
1
 40
1
 40
1
 10
59.442416
 20
130.079545
 30
0.0
 10
59.450302
 20
130.084134
 30
0.0
 10
59.455120
 20
130.092601
 30
0.0
 10
59.455038
 20
130.101724
 30
0.0
  0
SPLINE
  5
28d
100
AcDbEntity
  8
1
 62
7
100
AcDbSpline
 70
8
 71
3
 72
8
 73
4
 74
0
 40
0
 40
0
 40
0
 40
0
 40
1
 40
1
 40
1
 40
1
 10
59.455038
 20
130.101724
 30
0.0
 10
59.454957
 20
130.110848
 30
0.0
 10
59.449988
 20
130.119227
 30
0.0
 10
59.442021
 20
130.123674
 30
0.0
  0
SPLINE
  5
28e
100
AcDbEntity
  8
1
 62
7
100
AcDbSpline
 70
8
 71
3
 72
8
 73
4
 74
0
 40
0
 40
0
 40
0
 40
0
 40
1
 40
1
 40
1
 40
1
 10
59.442021
 20
130.123674
 30
0.0
 10
59.434055
 20
130.128121
 30
0.0
 10
59.424315
 20
130.127954
 30
0.0
 10
59.416505
 20
130.123236
 30
0.0
  0
LWPOLYLINE
  5
28f
100
AcDbEntity
  8
1
 62
7
100
AcDbPolyline
 90
2
 70
0
 10
57.723685
 20
129.090474
 30
0.0
 10
59.429512
 20
130.101389
 30
0.0
  0
SPLINE
  5
290
100
AcDbEntity
  8
1
 62
7
100
AcDbSpline
 70
8
 71
3
 72
8
 73
4
 74
0
 40
0
 40
0
 40
0
 40
0
 40
1
 40
1
 40
1
 40
1
 10
61.184417
 20
131.025735
 30
0.0
 10
61.176101
 20
131.022124
 30
0.0
 10
61.170344
 20
131.014350
 30
0.0
 10
61.169315
 20
131.005343
 30
0.0
  0
SPLINE
  5
291
100
AcDbEntity
  8
1
 62
7
100
AcDbSpline
 70
8
 71
3
 72
8
 73
4
 74
0
 40
0
 40
0
 40
0
 40
0
 40
1
 40
1
 40
1
 40
1
 10
61.169315
 20
131.005343
 30
0.0
 10
61.168286
 20
130.996336
 30
0.0
 10
61.172141
 20
130.987465
 30
0.0
 10
61.179428
 20
130.982071
 30
0.0
  0
SPLINE
  5
292
100
AcDbEntity
  8
1
 62
7
100
AcDbSpline
 70
8
 71
3
 72
8
 73
4
 74
0
 40
0
 40
0
 40
0
 40
0
 40
1
 40
1
 40
1
 40
1
 10
61.179428
 20
130.982071
 30
0.0
 10
61.186714
 20
130.976677
 30
0.0
 10
61.196325
 20
130.975582
 30
0.0
 10
61.204639
 20
130.979197
 30
0.0
  0
SPLINE
  5
293
100
AcDbEntity
  8
1
 62
7
100
AcDbSpline
 70
8
 71
3
 72
8
 73
4
 74
0
 40
0
 40
0
 40
0
 40
0
 40
1
 40
1
 40
1
 40
1
 10
70.674079
 20
133.778147
 30
0.0
 10
70.660147
 20
133.776780
 30
0.0
 10
70.649944
 20
133.764404
 30
0.0
 10
70.651260
 20
133.750468
 30
0.0
  0
SPLINE
  5
294
100
AcDbEntity
  8
1
 62
7
100
AcDbSpline
 70
8
 71
3
 72
8
 73
4
 74
0
 40
0
 40
0
 40
0
 40
0
 40
1
 40
1
 40
1
 40
1
 10
70.651260
 20
133.750468
 30
0.0
 10
70.652575
 20
133.736531
 30
0.0
 10
70.664913
 20
133.726282
 30
0.0
 10
70.678855
 20
133.727546
 30
0.0
  0
SPLINE
  5
295
100
AcDbEntity
  8
1
 62
7
100
AcDbSpline
 70
8
 71
3
 72
8
 73
4
 74
0
 40
0
 40
0
 40
0
 40
0
 40
1
 40
1
 40
1
 40
1
 10
47.967908
 20
119.370156
 30
0.0
 10
47.960132
 20
119.358571
 30
0.0
 10
47.963153
 20
119.342882
 30
0.0
 10
47.974676
 20
119.335014
 30
0.0
  0
SPLINE
  5
296
100
AcDbEntity
  8
1
 62
7
100
AcDbSpline
 70
8
 71
3
 72
8
 73
4
 74
0
 40
0
 40
0
 40
0
 40
0
 40
1
 40
1
 40
1
 40
1
 10
47.974676
 20
119.335014
 30
0.0
 10
47.986199
 20
119.327146
 30
0.0
 10
48.001911
 20
119.330042
 30
0.0
 10
48.009871
 20
119.341502
 30
0.0
  0
LWPOLYLINE
  5
297
100
AcDbEntity
  8
1
 62
7
100
AcDbPolyline
 90
2
 70
0
 10
70.676418
 20
133.752845
 30
0.0
 10
72.650493
 20
133.937167
 30
0.0
  0
SPLINE
  5
298
100
AcDbEntity
  8
1
 62
7
100
AcDbSpline
 70
8
 71
3
 72
8
 73
4
 74
0
 40
0
 40
0
 40
0
 40
0
 40
1
 40
1
 40
1
 40
1
 10
49.125042
 20
120.979355
 30
0.0
 10
49.132838
 20
120.990941
 30
0.0
 10
49.129808
 20
121.006650
 30
0.0
 10
49.118262
 20
121.014506
 30
0.0
  0
SPLINE
  5
299
100
AcDbEntity
  8
1
 62
7
100
AcDbSpline
 70
8
 71
3
 72
8
 73
4
 74
0
 40
0
 40
0
 40
0
 40
0
 40
1
 40
1
 40
1
 40
1
 10
49.118262
 20
121.014506
 30
0.0
 10
49.106715
 20
121.022361
 30
0.0
 10
49.090991
 20
121.019412
 30
0.0
 10
49.083076
 20
121.007906
 30
0.0
  0
LWPOLYLINE
  5
29a
100
AcDbEntity
  8
1
 62
7
100
AcDbPolyline
 90
3
 70
0
 10
47.988839
 20
119.355829
 30
0.0
 10
49.104008
 20
120.993579
 30
0.0
 10
50.320787
 20
122.559997
 30
0.0
  0
LWPOLYLINE
  5
29b
100
AcDbEntity
  8
1
 62
7
100
AcDbPolyline
 90
2
 70
0
 10
68.717377
 20
133.445069
 30
0.0
 10
70.676418
 20
133.752845
 30
0.0
  0
SPLINE
  5
29c
100
AcDbEntity
  8
1
 62
7
100
AcDbSpline
 70
8
 71
3
 72
8
 73
4
 74
0
 40
0
 40
0
 40
0
 40
0
 40
1
 40
1
 40
1
 40
1
 10
68.713517
 20
133.470167
 30
0.0
 10
68.699747
 20
133.467913
 30
0.0
 10
68.690373
 20
133.454974
 30
0.0
 10
68.692522
 20
133.441188
 30
0.0
  0
SPLINE
  5
29d
100
AcDbEntity
  8
1
 62
7
100
AcDbSpline
 70
8
 71
3
 72
8
 73
4
 74
0
 40
0
 40
0
 40
0
 40
0
 40
1
 40
1
 40
1
 40
1
 10
68.692522
 20
133.441188
 30
0.0
 10
68.694671
 20
133.427401
 30
0.0
 10
68.707538
 20
133.417929
 30
0.0
 10
68.721340
 20
133.419973
 30
0.0
  0
SPLINE
  5
29e
100
AcDbEntity
  8
1
 62
7
100
AcDbSpline
 70
8
 71
3
 72
8
 73
4
 74
0
 40
0
 40
0
 40
0
 40
0
 40
1
 40
1
 40
1
 40
1
 10
47.000477
 20
117.638416
 30
0.0
 10
47.006847
 20
117.650902
 30
0.0
 10
47.001888
 20
117.666188
 30
0.0
 10
46.989402
 20
117.672558
 30
0.0
  0
SPLINE
  5
29f
100
AcDbEntity
  8
1
 62
7
100
AcDbSpline
 70
8
 71
3
 72
8
 73
4
 74
0
 40
0
 40
0
 40
0
 40
0
 40
1
 40
1
 40
1
 40
1
 10
46.989402
 20
117.672558
 30
0.0
 10
46.976916
 20
117.678927
 30
0.0
 10
46.961630
 20
117.673969
 30
0.0
 10
46.955260
 20
117.661482
 30
0.0
  0
SPLINE
  5
2a0
100
AcDbEntity
  8
1
 62
7
100
AcDbSpline
 70
8
 71
3
 72
8
 73
4
 74
0
 40
0
 40
0
 40
0
 40
0
 40
1
 40
1
 40
1
 40
1
 10
70.680379
 20
133.727747
 30
0.0
 10
70.689346
 20
133.729145
 30
0.0
 10
70.696886
 20
133.735220
 30
0.0
 10
70.700159
 20
133.743684
 30
0.0
  0
SPLINE
  5
2a1
100
AcDbEntity
  8
1
 62
7
100
AcDbSpline
 70
8
 71
3
 72
8
 73
4
 74
0
 40
0
 40
0
 40
0
 40
0
 40
1
 40
1
 40
1
 40
1
 10
70.700159
 20
133.743684
 30
0.0
 10
70.703432
 20
133.752148
 30
0.0
 10
70.701941
 20
133.761716
 30
0.0
 10
70.696247
 20
133.768782
 30
0.0
  0
SPLINE
  5
2a2
100
AcDbEntity
  8
1
 62
7
100
AcDbSpline
 70
8
 71
3
 72
8
 73
4
 74
0
 40
0
 40
0
 40
0
 40
0
 40
1
 40
1
 40
1
 40
1
 10
70.696247
 20
133.768782
 30
0.0
 10
70.690553
 20
133.775849
 30
0.0
 10
70.681522
 20
133.779341
 30
0.0
 10
70.672555
 20
133.777944
 30
0.0
  0
SPLINE
  5
2a3
100
AcDbEntity
  8
1
 62
7
100
AcDbSpline
 70
8
 71
3
 72
8
 73
4
 74
0
 40
0
 40
0
 40
0
 40
0
 40
1
 40
1
 40
1
 40
1
 10
46.053780
 20
115.895706
 30
0.0
 10
46.049560
 20
115.887600
 30
0.0
 10
46.050015
 20
115.877852
 30
0.0
 10
46.054972
 20
115.870175
 30
0.0
  0
SPLINE
  5
2a4
100
AcDbEntity
  8
1
 62
7
100
AcDbSpline
 70
8
 71
3
 72
8
 73
4
 74
0
 40
0
 40
0
 40
0
 40
0
 40
1
 40
1
 40
1
 40
1
 10
46.054972
 20
115.870175
 30
0.0
 10
46.059929
 20
115.862497
 30
0.0
 10
46.068626
 20
115.858071
 30
0.0
 10
46.077750
 20
115.858580
 30
0.0
  0
SPLINE
  5
2a5
100
AcDbEntity
  8
1
 62
7
100
AcDbSpline
 70
8
 71
3
 72
8
 73
4
 74
0
 40
0
 40
0
 40
0
 40
0
 40
1
 40
1
 40
1
 40
1
 10
46.077750
 20
115.858580
 30
0.0
 10
46.086875
 20
115.859090
 30
0.0
 10
46.095024
 20
115.864458
 30
0.0
 10
46.099095
 20
115.872640
 30
0.0
  0
SPLINE
  5
2a6
100
AcDbEntity
  8
1
 62
7
100
AcDbSpline
 70
8
 71
3
 72
8
 73
4
 74
0
 40
0
 40
0
 40
0
 40
0
 40
1
 40
1
 40
1
 40
1
 10
50.340805
 20
122.544352
 30
0.0
 10
50.346377
 20
122.551522
 30
0.0
 10
50.347701
 20
122.561120
 30
0.0
 10
50.344278
 20
122.569530
 30
0.0
  0
SPLINE
  5
2a7
100
AcDbEntity
  8
1
 62
7
100
AcDbSpline
 70
8
 71
3
 72
8
 73
4
 74
0
 40
0
 40
0
 40
0
 40
0
 40
1
 40
1
 40
1
 40
1
 10
50.344278
 20
122.569530
 30
0.0
 10
50.340855
 20
122.577941
 30
0.0
 10
50.333205
 20
122.583887
 30
0.0
 10
50.324210
 20
122.585128
 30
0.0
  0
SPLINE
  5
2a8
100
AcDbEntity
  8
1
 62
7
100
AcDbSpline
 70
8
 71
3
 72
8
 73
4
 74
0
 40
0
 40
0
 40
0
 40
0
 40
1
 40
1
 40
1
 40
1
 10
50.324210
 20
122.585128
 30
0.0
 10
50.315214
 20
122.586368
 30
0.0
 10
50.306240
 20
122.582716
 30
0.0
 10
50.300668
 20
122.575546
 30
0.0
  0
SPLINE
  5
2a9
100
AcDbEntity
  8
1
 62
7
100
AcDbSpline
 70
8
 71
3
 72
8
 73
4
 74
0
 40
0
 40
0
 40
0
 40
0
 40
1
 40
1
 40
1
 40
1
 10
49.083989
 20
121.009229
 30
0.0
 10
49.075375
 20
120.998145
 30
0.0
 10
49.077377
 20
120.982177
 30
0.0
 10
49.088461
 20
120.973563
 30
0.0
  0
SPLINE
  5
2aa
100
AcDbEntity
  8
1
 62
7
100
AcDbSpline
 70
8
 71
3
 72
8
 73
4
 74
0
 40
0
 40
0
 40
0
 40
0
 40
1
 40
1
 40
1
 40
1
 10
49.088461
 20
120.973563
 30
0.0
 10
49.099544
 20
120.964949
 30
0.0
 10
49.115512
 20
120.966951
 30
0.0
 10
49.124127
 20
120.978034
 30
0.0
  0
LWPOLYLINE
  5
2ab
100
AcDbEntity
  8
1
 62
7
100
AcDbPolyline
 90
2
 70
0
 10
46.076436
 20
115.884123
 30
0.0
 10
46.977922
 20
117.650002
 30
0.0
  0
SPLINE
  5
2ac
100
AcDbEntity
  8
1
 62
7
100
AcDbSpline
 70
8
 71
3
 72
8
 73
4
 74
0
 40
0
 40
0
 40
0
 40
0
 40
1
 40
1
 40
1
 40
1
 10
56.071405
 20
127.996234
 30
0.0
 10
56.059911
 20
127.988287
 30
0.0
 10
56.056993
 20
127.972550
 30
0.0
 10
56.064872
 20
127.961010
 30
0.0
  0
SPLINE
  5
2ad
100
AcDbEntity
  8
1
 62
7
100
AcDbSpline
 70
8
 71
3
 72
8
 73
4
 74
0
 40
0
 40
0
 40
0
 40
0
 40
1
 40
1
 40
1
 40
1
 10
56.064872
 20
127.961010
 30
0.0
 10
56.072751
 20
127.949470
 30
0.0
 10
56.088470
 20
127.946458
 30
0.0
 10
56.100057
 20
127.954269
 30
0.0
  0
LWPOLYLINE
  5
2ae
100
AcDbEntity
  8
1
 62
7
100
AcDbPolyline
 90
2
 70
0
 10
63.013397
 20
131.790555
 30
0.0
 10
64.878143
 20
132.462097
 30
0.0
  0
SPLINE
  5
2af
100
AcDbEntity
  8
1
 62
7
100
AcDbSpline
 70
8
 71
3
 72
8
 73
4
 74
0
 40
0
 40
0
 40
0
 40
0
 40
1
 40
1
 40
1
 40
1
 10
59.417929
 20
130.124048
 30
0.0
 10
59.405573
 20
130.117569
 30
0.0
 10
59.400738
 20
130.102349
 30
0.0
 10
59.407088
 20
130.089926
 30
0.0
  0
SPLINE
  5
2b0
100
AcDbEntity
  8
1
 62
7
100
AcDbSpline
 70
8
 71
3
 72
8
 73
4
 74
0
 40
0
 40
0
 40
0
 40
0
 40
1
 40
1
 40
1
 40
1
 10
59.407088
 20
130.089926
 30
0.0
 10
59.413439
 20
130.077504
 30
0.0
 10
59.428608
 20
130.072511
 30
0.0
 10
59.441096
 20
130.078733
 30
0.0
  0
LWPOLYLINE
  5
2b1
100
AcDbEntity
  8
1
 62
7
100
AcDbPolyline
 90
2
 70
0
 10
56.085732
 20
127.975203
 30
0.0
 10
57.723685
 20
129.090474
 30
0.0
  0
SPLINE
  5
2b2
100
AcDbEntity
  8
1
 62
7
100
AcDbSpline
 70
8
 71
3
 72
8
 73
4
 74
0
 40
0
 40
0
 40
0
 40
0
 40
1
 40
1
 40
1
 40
1
 10
57.737909
 20
129.069440
 30
0.0
 10
57.749416
 20
129.077355
 30
0.0
 10
57.752365
 20
129.093079
 30
0.0
 10
57.744509
 20
129.104625
 30
0.0
  0
SPLINE
  5
2b3
100
AcDbEntity
  8
1
 62
7
100
AcDbSpline
 70
8
 71
3
 72
8
 73
4
 74
0
 40
0
 40
0
 40
0
 40
0
 40
1
 40
1
 40
1
 40
1
 10
57.744509
 20
129.104625
 30
0.0
 10
57.736654
 20
129.116172
 30
0.0
 10
57.720945
 20
129.119202
 30
0.0
 10
57.709358
 20
129.111405
 30
0.0
  0
SPLINE
  5
2b4
100
AcDbEntity
  8
1
 62
7
100
AcDbSpline
 70
8
 71
3
 72
8
 73
4
 74
0
 40
0
 40
0
 40
0
 40
0
 40
1
 40
1
 40
1
 40
1
 10
61.206063
 20
130.979808
 30
0.0
 10
61.214220
 20
130.983893
 30
0.0
 10
61.219564
 20
130.992036
 30
0.0
 10
61.220065
 20
131.001146
 30
0.0
  0
SPLINE
  5
2b5
100
AcDbEntity
  8
1
 62
7
100
AcDbSpline
 70
8
 71
3
 72
8
 73
4
 74
0
 40
0
 40
0
 40
0
 40
0
 40
1
 40
1
 40
1
 40
1
 10
61.220065
 20
131.001146
 30
0.0
 10
61.220567
 20
131.010256
 30
0.0
 10
61.216149
 20
131.018936
 30
0.0
 10
61.208488
 20
131.023891
 30
0.0
  0
SPLINE
  5
2b6
100
AcDbEntity
  8
1
 62
7
100
AcDbSpline
 70
8
 71
3
 72
8
 73
4
 74
0
 40
0
 40
0
 40
0
 40
0
 40
1
 40
1
 40
1
 40
1
 10
61.208488
 20
131.023891
 30
0.0
 10
61.200828
 20
131.028847
 30
0.0
 10
61.191100
 20
131.029318
 30
0.0
 10
61.182996
 20
131.025126
 30
0.0
  0
SPLINE
  5
2b7
100
AcDbEntity
  8
1
 62
7
100
AcDbSpline
 70
8
 71
3
 72
8
 73
4
 74
0
 40
0
 40
0
 40
0
 40
0
 40
1
 40
1
 40
1
 40
1
 10
63.004763
 20
131.814534
 30
0.0
 10
62.991660
 20
131.809715
 30
0.0
 10
62.984894
 20
131.795231
 30
0.0
 10
62.989609
 20
131.782089
 30
0.0
  0
SPLINE
  5
2b8
100
AcDbEntity
  8
1
 62
7
100
AcDbSpline
 70
8
 71
3
 72
8
 73
4
 74
0
 40
0
 40
0
 40
0
 40
0
 40
1
 40
1
 40
1
 40
1
 10
62.989609
 20
131.782089
 30
0.0
 10
62.994323
 20
131.768947
 30
0.0
 10
63.008754
 20
131.762067
 30
0.0
 10
63.021932
 20
131.766676
 30
0.0
  0
SPLINE
  5
2b9
100
AcDbEntity
  8
1
 62
7
100
AcDbSpline
 70
8
 71
3
 72
8
 73
4
 74
0
 40
0
 40
0
 40
0
 40
0
 40
1
 40
1
 40
1
 40
1
 10
72.649784
 20
133.962567
 30
0.0
 10
72.635858
 20
133.962011
 30
0.0
 10
72.624978
 20
133.950343
 30
0.0
 10
72.625396
 20
133.936412
 30
0.0
  0
SPLINE
  5
2ba
100
AcDbEntity
  8
1
 62
7
100
AcDbSpline
 70
8
 71
3
 72
8
 73
4
 74
0
 40
0
 40
0
 40
0
 40
0
 40
1
 40
1
 40
1
 40
1
 10
72.625396
 20
133.936412
 30
0.0
 10
72.625814
 20
133.922481
 30
0.0
 10
72.637373
 20
133.911485
 30
0.0
 10
72.651308
 20
133.911765
 30
0.0
  0
SPLINE
  5
2bb
100
AcDbEntity
  8
1
 62
7
100
AcDbSpline
 70
8
 71
3
 72
8
 73
4
 74
0
 40
0
 40
0
 40
0
 40
0
 40
1
 40
1
 40
1
 40
1
 10
64.886782
 20
132.438218
 30
0.0
 10
64.895401
 20
132.441238
 30
0.0
 10
64.901734
 20
132.448653
 30
0.0
 10
64.903368
 20
132.457639
 30
0.0
  0
SPLINE
  5
2bc
100
AcDbEntity
  8
1
 62
7
100
AcDbSpline
 70
8
 71
3
 72
8
 73
4
 74
0
 40
0
 40
0
 40
0
 40
0
 40
1
 40
1
 40
1
 40
1
 10
64.903368
 20
132.457639
 30
0.0
 10
64.905002
 20
132.466624
 30
0.0
 10
64.901685
 20
132.475794
 30
0.0
 10
64.894681
 20
132.481655
 30
0.0
  0
SPLINE
  5
2bd
100
AcDbEntity
  8
1
 62
7
100
AcDbSpline
 70
8
 71
3
 72
8
 73
4
 74
0
 40
0
 40
0
 40
0
 40
0
 40
1
 40
1
 40
1
 40
1
 10
64.894681
 20
132.481655
 30
0.0
 10
64.887678
 20
132.487516
 30
0.0
 10
64.878066
 20
132.489165
 30
0.0
 10
64.869510
 20
132.485973
 30
0.0
  0
LWPOLYLINE
  5
2be
100
AcDbEntity
  8
1
 62
7
100
AcDbPolyline
 90
2
 70
0
 10
59.429512
 20
130.101389
 30
0.0
 10
61.194580
 20
131.002467
 30
0.0
  0
SPLINE
  5
2bf
100
AcDbEntity
  8
1
 62
7
100
AcDbSpline
 70
8
 71
3
 72
8
 73
4
 74
0
 40
0
 40
0
 40
0
 40
0
 40
1
 40
1
 40
1
 40
1
 10
56.101279
 20
127.955184
 30
0.0
 10
56.112362
 20
127.963771
 30
0.0
 10
56.114385
 20
127.979717
 30
0.0
 10
56.105798
 20
127.990800
 30
0.0
  0
SPLINE
  5
2c0
100
AcDbEntity
  8
1
 62
7
100
AcDbSpline
 70
8
 71
3
 72
8
 73
4
 74
0
 40
0
 40
0
 40
0
 40
0
 40
1
 40
1
 40
1
 40
1
 10
56.105798
 20
127.990800
 30
0.0
 10
56.097211
 20
128.001883
 30
0.0
 10
56.081265
 20
128.003906
 30
0.0
 10
56.070183
 20
127.995319
 30
0.0
  0
SPLINE
  5
2c1
100
AcDbEntity
  8
1
 62
7
100
AcDbSpline
 70
8
 71
3
 72
8
 73
4
 74
0
 40
0
 40
0
 40
0
 40
0
 40
1
 40
1
 40
1
 40
1
 10
54.505188
 20
126.779760
 30
0.0
 10
54.498018
 20
126.774205
 30
0.0
 10
54.494356
 20
126.765248
 30
0.0
 10
54.495581
 20
126.756261
 30
0.0
  0
SPLINE
  5
2c2
100
AcDbEntity
  8
1
 62
7
100
AcDbSpline
 70
8
 71
3
 72
8
 73
4
 74
0
 40
0
 40
0
 40
0
 40
0
 40
1
 40
1
 40
1
 40
1
 10
54.495581
 20
126.756261
 30
0.0
 10
54.496807
 20
126.747275
 30
0.0
 10
54.502733
 20
126.739625
 30
0.0
 10
54.511128
 20
126.736193
 30
0.0
  0
SPLINE
  5
2c3
100
AcDbEntity
  8
1
 62
7
100
AcDbSpline
 70
8
 71
3
 72
8
 73
4
 74
0
 40
0
 40
0
 40
0
 40
0
 40
1
 40
1
 40
1
 40
1
 10
54.511128
 20
126.736193
 30
0.0
 10
54.519524
 20
126.732760
 30
0.0
 10
54.529112
 20
126.734068
 30
0.0
 10
54.536282
 20
126.739622
 30
0.0
  0
SPLINE
  5
2c4
100
AcDbEntity
  8
1
 62
7
100
AcDbSpline
 70
8
 71
3
 72
8
 73
4
 74
0
 40
0
 40
0
 40
0
 40
0
 40
1
 40
1
 40
1
 40
1
 10
54.537502
 20
126.740638
 30
0.0
 10
54.544308
 20
126.746628
 30
0.0
 10
54.547402
 20
126.755795
 30
0.0
 10
54.545618
 20
126.764685
 30
0.0
  0
SPLINE
  5
2c5
100
AcDbEntity
  8
1
 62
7
100
AcDbSpline
 70
8
 71
3
 72
8
 73
4
 74
0
 40
0
 40
0
 40
0
 40
0
 40
1
 40
1
 40
1
 40
1
 10
54.545618
 20
126.764685
 30
0.0
 10
54.543834
 20
126.773575
 30
0.0
 10
54.537443
 20
126.780838
 30
0.0
 10
54.528852
 20
126.783738
 30
0.0
  0
SPLINE
  5
2c6
100
AcDbEntity
  8
1
 62
7
100
AcDbSpline
 70
8
 71
3
 72
8
 73
4
 74
0
 40
0
 40
0
 40
0
 40
0
 40
1
 40
1
 40
1
 40
1
 10
54.528852
 20
126.783738
 30
0.0
 10
54.520261
 20
126.786637
 30
0.0
 10
54.510775
 20
126.784734
 30
0.0
 10
54.503968
 20
126.778744
 30
0.0
  0
SPLINE
  5
2c7
100
AcDbEntity
  8
1
 62
7
100
AcDbSpline
 70
8
 71
3
 72
8
 73
4
 74
0
 40
0
 40
0
 40
0
 40
0
 40
1
 40
1
 40
1
 40
1
 10
53.016706
 20
125.466654
 30
0.0
 10
53.006326
 20
125.457333
 30
0.0
 10
53.005400
 20
125.441388
 30
0.0
 10
53.014631
 20
125.430929
 30
0.0
  0
SPLINE
  5
2c8
100
AcDbEntity
  8
1
 62
7
100
AcDbSpline
 70
8
 71
3
 72
8
 73
4
 74
0
 40
0
 40
0
 40
0
 40
0
 40
1
 40
1
 40
1
 40
1
 10
53.014631
 20
125.430929
 30
0.0
 10
53.023863
 20
125.420470
 30
0.0
 10
53.039800
 20
125.419409
 30
0.0
 10
53.050337
 20
125.428551
 30
0.0
  0
LWPOLYLINE
  5
2c9
100
AcDbEntity
  8
1
 62
7
100
AcDbPolyline
 90
3
 70
0
 10
53.033470
 20
125.447551
 30
0.0
 10
54.520732
 20
126.759641
 30
0.0
 10
56.085732
 20
127.975203
 30
0.0
  0
SPLINE
  5
2ca
100
AcDbEntity
  8
1
 62
7
100
AcDbSpline
 70
8
 71
3
 72
8
 73
4
 74
0
 40
0
 40
0
 40
0
 40
0
 40
1
 40
1
 40
1
 40
1
 10
66.788514
 20
132.989755
 30
0.0
 10
66.801980
 20
132.993657
 30
0.0
 10
66.809735
 20
133.007736
 30
0.0
 10
66.805835
 20
133.021202
 30
0.0
  0
SPLINE
  5
2cb
100
AcDbEntity
  8
1
 62
7
100
AcDbSpline
 70
8
 71
3
 72
8
 73
4
 74
0
 40
0
 40
0
 40
0
 40
0
 40
1
 40
1
 40
1
 40
1
 10
66.805835
 20
133.021202
 30
0.0
 10
66.801935
 20
133.034669
 30
0.0
 10
66.787858
 20
133.042426
 30
0.0
 10
66.774391
 20
133.038529
 30
0.0
  0
SPLINE
  5
2cc
100
AcDbEntity
  8
1
 62
7
100
AcDbSpline
 70
8
 71
3
 72
8
 73
4
 74
0
 40
0
 40
0
 40
0
 40
0
 40
1
 40
1
 40
1
 40
1
 10
64.871031
 20
132.486481
 30
0.0
 10
64.862253
 20
132.483996
 30
0.0
 10
64.855481
 20
132.476994
 30
0.0
 10
64.853291
 20
132.468137
 30
0.0
  0
SPLINE
  5
2cd
100
AcDbEntity
  8
1
 62
7
100
AcDbSpline
 70
8
 71
3
 72
8
 73
4
 74
0
 40
0
 40
0
 40
0
 40
0
 40
1
 40
1
 40
1
 40
1
 10
64.853291
 20
132.468137
 30
0.0
 10
64.851101
 20
132.459280
 30
0.0
 10
64.853828
 20
132.449929
 30
0.0
 10
64.860437
 20
132.443639
 30
0.0
  0
SPLINE
  5
2ce
100
AcDbEntity
  8
1
 62
7
100
AcDbSpline
 70
8
 71
3
 72
8
 73
4
 74
0
 40
0
 40
0
 40
0
 40
0
 40
1
 40
1
 40
1
 40
1
 10
64.860437
 20
132.443639
 30
0.0
 10
64.867046
 20
132.437349
 30
0.0
 10
64.876520
 20
132.435086
 30
0.0
 10
64.885258
 20
132.437710
 30
0.0
  0
SPLINE
  5
2cf
100
AcDbEntity
  8
1
 62
7
100
AcDbSpline
 70
8
 71
3
 72
8
 73
4
 74
0
 40
0
 40
0
 40
0
 40
0
 40
1
 40
1
 40
1
 40
1
 10
48.010686
 20
119.342822
 30
0.0
 10
48.017841
 20
119.354888
 30
0.0
 10
48.013860
 20
119.370469
 30
0.0
 10
48.001794
 20
119.377624
 30
0.0
  0
SPLINE
  5
2d0
100
AcDbEntity
  8
1
 62
7
100
AcDbSpline
 70
8
 71
3
 72
8
 73
4
 74
0
 40
0
 40
0
 40
0
 40
0
 40
1
 40
1
 40
1
 40
1
 10
48.001794
 20
119.377624
 30
0.0
 10
47.989729
 20
119.384779
 30
0.0
 10
47.974148
 20
119.380798
 30
0.0
 10
47.966992
 20
119.368733
 30
0.0
  0
SPLINE
  5
2d1
100
AcDbEntity
  8
1
 62
7
100
AcDbSpline
 70
8
 71
3
 72
8
 73
4
 74
0
 40
0
 40
0
 40
0
 40
0
 40
1
 40
1
 40
1
 40
1
 10
46.956075
 20
117.662906
 30
0.0
 10
46.951447
 20
117.655101
 30
0.0
 10
46.951334
 20
117.645419
 30
0.0
 10
46.955779
 20
117.637508
 30
0.0
  0
SPLINE
  5
2d2
100
AcDbEntity
  8
1
 62
7
100
AcDbSpline
 70
8
 71
3
 72
8
 73
4
 74
0
 40
0
 40
0
 40
0
 40
0
 40
1
 40
1
 40
1
 40
1
 10
46.955779
 20
117.637508
 30
0.0
 10
46.960224
 20
117.629597
 30
0.0
 10
46.968552
 20
117.624659
 30
0.0
 10
46.977625
 20
117.624553
 30
0.0
  0
SPLINE
  5
2d3
100
AcDbEntity
  8
1
 62
7
100
AcDbSpline
 70
8
 71
3
 72
8
 73
4
 74
0
 40
0
 40
0
 40
0
 40
0
 40
1
 40
1
 40
1
 40
1
 10
46.977625
 20
117.624553
 30
0.0
 10
46.986699
 20
117.624447
 30
0.0
 10
46.995140
 20
117.629190
 30
0.0
 10
46.999768
 20
117.636995
 30
0.0
  0
LWPOLYLINE
  5
2d4
100
AcDbEntity
  8
1
 62
7
100
AcDbPolyline
 90
2
 70
0
 10
64.878143
 20
132.462097
 30
0.0
 10
66.781400
 20
133.014142
 30
0.0
  0
SPLINE
  5
2d5
100
AcDbEntity
  8
1
 62
7
100
AcDbSpline
 70
8
 71
3
 72
8
 73
4
 74
0
 40
0
 40
0
 40
0
 40
0
 40
1
 40
1
 40
1
 40
1
 10
53.051456
 20
125.429668
 30
0.0
 10
53.061247
 20
125.439592
 30
0.0
 10
53.061193
 20
125.455558
 30
0.0
 10
53.051335
 20
125.465416
 30
0.0
  0
SPLINE
  5
2d6
100
AcDbEntity
  8
1
 62
7
100
AcDbSpline
 70
8
 71
3
 72
8
 73
4
 74
0
 40
0
 40
0
 40
0
 40
0
 40
1
 40
1
 40
1
 40
1
 10
53.051335
 20
125.465416
 30
0.0
 10
53.041477
 20
125.475274
 30
0.0
 10
53.025510
 20
125.475327
 30
0.0
 10
53.015586
 20
125.465534
 30
0.0
  0
SPLINE
  5
2d7
100
AcDbEntity
  8
1
 62
7
100
AcDbSpline
 70
8
 71
3
 72
8
 73
4
 74
0
 40
0
 40
0
 40
0
 40
0
 40
1
 40
1
 40
1
 40
1
 10
51.613977
 20
124.064029
 30
0.0
 10
51.604049
 20
124.054095
 30
0.0
 10
51.604051
 20
124.037994
 30
0.0
 10
51.613982
 20
124.028063
 30
0.0
  0
SPLINE
  5
2d8
100
AcDbEntity
  8
1
 62
7
100
AcDbSpline
 70
8
 71
3
 72
8
 73
4
 74
0
 40
0
 40
0
 40
0
 40
0
 40
1
 40
1
 40
1
 40
1
 10
51.613982
 20
124.028063
 30
0.0
 10
51.623913
 20
124.018132
 30
0.0
 10
51.640014
 20
124.018130
 30
0.0
 10
51.649947
 20
124.028058
 30
0.0
  0
SPLINE
  5
2d9
100
AcDbEntity
  8
1
 62
7
100
AcDbSpline
 70
8
 71
3
 72
8
 73
4
 74
0
 40
0
 40
0
 40
0
 40
0
 40
1
 40
1
 40
1
 40
1
 10
66.775912
 20
133.038933
 30
0.0
 10
66.762221
 20
133.035873
 30
0.0
 10
66.753602
 20
133.022294
 30
0.0
 10
66.756661
 20
133.008602
 30
0.0
  0
SPLINE
  5
2da
100
AcDbEntity
  8
1
 62
7
100
AcDbSpline
 70
8
 71
3
 72
8
 73
4
 74
0
 40
0
 40
0
 40
0
 40
0
 40
1
 40
1
 40
1
 40
1
 10
66.756661
 20
133.008602
 30
0.0
 10
66.759720
 20
132.994910
 30
0.0
 10
66.773298
 20
132.986290
 30
0.0
 10
66.786990
 20
132.989348
 30
0.0
  0
LWPOLYLINE
  5
2db
100
AcDbEntity
  8
1
 62
7
100
AcDbPolyline
 90
2
 70
0
 10
46.977922
 20
117.650002
 30
0.0
 10
47.988839
 20
119.355829
 30
0.0
  0
LWPOLYLINE
  5
2dc
100
AcDbEntity
  8
1
 62
7
100
AcDbPolyline
 90
2
 70
0
 10
51.631964
 20
124.046045
 30
0.0
 10
53.033470
 20
125.447551
 30
0.0
  0
SPLINE
  5
2dd
100
AcDbEntity
  8
1
 62
7
100
AcDbSpline
 70
8
 71
3
 72
8
 73
4
 74
0
 40
0
 40
0
 40
0
 40
0
 40
1
 40
1
 40
1
 40
1
 10
68.722965
 20
133.420277
 30
0.0
 10
68.731842
 20
133.422237
 30
0.0
 10
68.738996
 20
133.428791
 30
0.0
 10
68.741723
 20
133.437463
 30
0.0
  0
SPLINE
  5
2de
100
AcDbEntity
  8
1
 62
7
100
AcDbSpline
 70
8
 71
3
 72
8
 73
4
 74
0
 40
0
 40
0
 40
0
 40
0
 40
1
 40
1
 40
1
 40
1
 10
68.741723
 20
133.437463
 30
0.0
 10
68.744450
 20
133.446135
 30
0.0
 10
68.742335
 20
133.455604
 30
0.0
 10
68.736177
 20
133.462292
 30
0.0
  0
SPLINE
  5
2df
100
AcDbEntity
  8
1
 62
7
100
AcDbSpline
 70
8
 71
3
 72
8
 73
4
 74
0
 40
0
 40
0
 40
0
 40
0
 40
1
 40
1
 40
1
 40
1
 10
68.736177
 20
133.462292
 30
0.0
 10
68.730019
 20
133.468980
 30
0.0
 10
68.720757
 20
133.471867
 30
0.0
 10
68.711890
 20
133.469863
 30
0.0
  0
SPLINE
  5
2e0
100
AcDbEntity
  8
1
 62
7
100
AcDbSpline
 70
8
 71
3
 72
8
 73
4
 74
0
 40
0
 40
0
 40
0
 40
0
 40
1
 40
1
 40
1
 40
1
 10
46.053780
 20
115.895706
 30
0.0
 10
46.049560
 20
115.887600
 30
0.0
 10
46.050015
 20
115.877852
 30
0.0
 10
46.054972
 20
115.870175
 30
0.0
  0
SPLINE
  5
2e1
100
AcDbEntity
  8
1
 62
7
100
AcDbSpline
 70
8
 71
3
 72
8
 73
4
 74
0
 40
0
 40
0
 40
0
 40
0
 40
1
 40
1
 40
1
 40
1
 10
46.054972
 20
115.870175
 30
0.0
 10
46.059929
 20
115.862497
 30
0.0
 10
46.068626
 20
115.858071
 30
0.0
 10
46.077750
 20
115.858580
 30
0.0
  0
SPLINE
  5
2e2
100
AcDbEntity
  8
1
 62
7
100
AcDbSpline
 70
8
 71
3
 72
8
 73
4
 74
0
 40
0
 40
0
 40
0
 40
0
 40
1
 40
1
 40
1
 40
1
 10
46.077750
 20
115.858580
 30
0.0
 10
46.086875
 20
115.859090
 30
0.0
 10
46.095024
 20
115.864458
 30
0.0
 10
46.099095
 20
115.872640
 30
0.0
  0
SPLINE
  5
2e3
100
AcDbEntity
  8
1
 62
7
100
AcDbSpline
 70
8
 71
3
 72
8
 73
4
 74
0
 40
0
 40
0
 40
0
 40
0
 40
1
 40
1
 40
1
 40
1
 10
68.713517
 20
133.470167
 30
0.0
 10
68.699747
 20
133.467913
 30
0.0
 10
68.690373
 20
133.454974
 30
0.0
 10
68.692522
 20
133.441188
 30
0.0
  0
SPLINE
  5
2e4
100
AcDbEntity
  8
1
 62
7
100
AcDbSpline
 70
8
 71
3
 72
8
 73
4
 74
0
 40
0
 40
0
 40
0
 40
0
 40
1
 40
1
 40
1
 40
1
 10
68.692522
 20
133.441188
 30
0.0
 10
68.694671
 20
133.427401
 30
0.0
 10
68.707538
 20
133.417929
 30
0.0
 10
68.721340
 20
133.419973
 30
0.0
  0
SPLINE
  5
2e5
100
AcDbEntity
  8
1
 62
7
100
AcDbSpline
 70
8
 71
3
 72
8
 73
4
 74
0
 40
0
 40
0
 40
0
 40
0
 40
1
 40
1
 40
1
 40
1
 10
57.737909
 20
129.069440
 30
0.0
 10
57.749416
 20
129.077355
 30
0.0
 10
57.752365
 20
129.093079
 30
0.0
 10
57.744509
 20
129.104625
 30
0.0
  0
SPLINE
  5
2e6
100
AcDbEntity
  8
1
 62
7
100
AcDbSpline
 70
8
 71
3
 72
8
 73
4
 74
0
 40
0
 40
0
 40
0
 40
0
 40
1
 40
1
 40
1
 40
1
 10
57.744509
 20
129.104625
 30
0.0
 10
57.736654
 20
129.116172
 30
0.0
 10
57.720945
 20
129.119202
 30
0.0
 10
57.709358
 20
129.111405
 30
0.0
  0
LWPOLYLINE
  5
2e7
100
AcDbEntity
  8
1
 62
7
100
AcDbPolyline
 90
2
 70
0
 10
66.781400
 20
133.014142
 30
0.0
 10
68.717377
 20
133.445069
 30
0.0
  0
SPLINE
  5
2e8
100
AcDbEntity
  8
1
 62
7
100
AcDbSpline
 70
8
 71
3
 72
8
 73
4
 74
0
 40
0
 40
0
 40
0
 40
0
 40
1
 40
1
 40
1
 40
1
 10
59.417929
 20
130.124048
 30
0.0
 10
59.405573
 20
130.117569
 30
0.0
 10
59.400738
 20
130.102349
 30
0.0
 10
59.407088
 20
130.089926
 30
0.0
  0
SPLINE
  5
2e9
100
AcDbEntity
  8
1
 62
7
100
AcDbSpline
 70
8
 71
3
 72
8
 73
4
 74
0
 40
0
 40
0
 40
0
 40
0
 40
1
 40
1
 40
1
 40
1
 10
59.407088
 20
130.089926
 30
0.0
 10
59.413439
 20
130.077504
 30
0.0
 10
59.428608
 20
130.072511
 30
0.0
 10
59.441096
 20
130.078733
 30
0.0
  0
SPLINE
  5
2ea
100
AcDbEntity
  8
1
 62
7
100
AcDbSpline
 70
8
 71
3
 72
8
 73
4
 74
0
 40
0
 40
0
 40
0
 40
0
 40
1
 40
1
 40
1
 40
1
 10
64.886782
 20
132.438218
 30
0.0
 10
64.895401
 20
132.441238
 30
0.0
 10
64.901734
 20
132.448653
 30
0.0
 10
64.903368
 20
132.457639
 30
0.0
  0
SPLINE
  5
2eb
100
AcDbEntity
  8
1
 62
7
100
AcDbSpline
 70
8
 71
3
 72
8
 73
4
 74
0
 40
0
 40
0
 40
0
 40
0
 40
1
 40
1
 40
1
 40
1
 10
64.903368
 20
132.457639
 30
0.0
 10
64.905002
 20
132.466624
 30
0.0
 10
64.901685
 20
132.475794
 30
0.0
 10
64.894681
 20
132.481655
 30
0.0
  0
SPLINE
  5
2ec
100
AcDbEntity
  8
1
 62
7
100
AcDbSpline
 70
8
 71
3
 72
8
 73
4
 74
0
 40
0
 40
0
 40
0
 40
0
 40
1
 40
1
 40
1
 40
1
 10
64.894681
 20
132.481655
 30
0.0
 10
64.887678
 20
132.487516
 30
0.0
 10
64.878066
 20
132.489165
 30
0.0
 10
64.869510
 20
132.485973
 30
0.0
  0
SPLINE
  5
2ed
100
AcDbEntity
  8
1
 62
7
100
AcDbSpline
 70
8
 71
3
 72
8
 73
4
 74
0
 40
0
 40
0
 40
0
 40
0
 40
1
 40
1
 40
1
 40
1
 10
47.967908
 20
119.370156
 30
0.0
 10
47.960132
 20
119.358571
 30
0.0
 10
47.963153
 20
119.342882
 30
0.0
 10
47.974676
 20
119.335014
 30
0.0
  0
SPLINE
  5
2ee
100
AcDbEntity
  8
1
 62
7
100
AcDbSpline
 70
8
 71
3
 72
8
 73
4
 74
0
 40
0
 40
0
 40
0
 40
0
 40
1
 40
1
 40
1
 40
1
 10
47.974676
 20
119.335014
 30
0.0
 10
47.986199
 20
119.327146
 30
0.0
 10
48.001911
 20
119.330042
 30
0.0
 10
48.009871
 20
119.341502
 30
0.0
  0
LWPOLYLINE
  5
2ef
100
AcDbEntity
  8
1
 62
7
100
AcDbPolyline
 90
2
 70
0
 10
59.429512
 20
130.101389
 30
0.0
 10
61.194580
 20
131.002467
 30
0.0
  0
SPLINE
  5
2f0
100
AcDbEntity
  8
1
 62
7
100
AcDbSpline
 70
8
 71
3
 72
8
 73
4
 74
0
 40
0
 40
0
 40
0
 40
0
 40
1
 40
1
 40
1
 40
1
 10
70.680379
 20
133.727747
 30
0.0
 10
70.689346
 20
133.729145
 30
0.0
 10
70.696886
 20
133.735220
 30
0.0
 10
70.700159
 20
133.743684
 30
0.0
  0
SPLINE
  5
2f1
100
AcDbEntity
  8
1
 62
7
100
AcDbSpline
 70
8
 71
3
 72
8
 73
4
 74
0
 40
0
 40
0
 40
0
 40
0
 40
1
 40
1
 40
1
 40
1
 10
70.700159
 20
133.743684
 30
0.0
 10
70.703432
 20
133.752148
 30
0.0
 10
70.701941
 20
133.761716
 30
0.0
 10
70.696247
 20
133.768782
 30
0.0
  0
SPLINE
  5
2f2
100
AcDbEntity
  8
1
 62
7
100
AcDbSpline
 70
8
 71
3
 72
8
 73
4
 74
0
 40
0
 40
0
 40
0
 40
0
 40
1
 40
1
 40
1
 40
1
 10
70.696247
 20
133.768782
 30
0.0
 10
70.690553
 20
133.775849
 30
0.0
 10
70.681522
 20
133.779341
 30
0.0
 10
70.672555
 20
133.777944
 30
0.0
  0
SPLINE
  5
2f3
100
AcDbEntity
  8
1
 62
7
100
AcDbSpline
 70
8
 71
3
 72
8
 73
4
 74
0
 40
0
 40
0
 40
0
 40
0
 40
1
 40
1
 40
1
 40
1
 10
47.000477
 20
117.638416
 30
0.0
 10
47.006847
 20
117.650902
 30
0.0
 10
47.001888
 20
117.666188
 30
0.0
 10
46.989402
 20
117.672558
 30
0.0
  0
SPLINE
  5
2f4
100
AcDbEntity
  8
1
 62
7
100
AcDbSpline
 70
8
 71
3
 72
8
 73
4
 74
0
 40
0
 40
0
 40
0
 40
0
 40
1
 40
1
 40
1
 40
1
 10
46.989402
 20
117.672558
 30
0.0
 10
46.976916
 20
117.678927
 30
0.0
 10
46.961630
 20
117.673969
 30
0.0
 10
46.955260
 20
117.661482
 30
0.0
  0
SPLINE
  5
2f5
100
AcDbEntity
  8
1
 62
7
100
AcDbSpline
 70
8
 71
3
 72
8
 73
4
 74
0
 40
0
 40
0
 40
0
 40
0
 40
1
 40
1
 40
1
 40
1
 10
49.083989
 20
121.009229
 30
0.0
 10
49.075375
 20
120.998145
 30
0.0
 10
49.077377
 20
120.982177
 30
0.0
 10
49.088461
 20
120.973563
 30
0.0
  0
SPLINE
  5
2f6
100
AcDbEntity
  8
1
 62
7
100
AcDbSpline
 70
8
 71
3
 72
8
 73
4
 74
0
 40
0
 40
0
 40
0
 40
0
 40
1
 40
1
 40
1
 40
1
 10
49.088461
 20
120.973563
 30
0.0
 10
49.099544
 20
120.964949
 30
0.0
 10
49.115512
 20
120.966951
 30
0.0
 10
49.124127
 20
120.978034
 30
0.0
  0
LWPOLYLINE
  5
2f7
100
AcDbEntity
  8
1
 62
7
100
AcDbPolyline
 90
2
 70
0
 10
68.717377
 20
133.445069
 30
0.0
 10
70.676418
 20
133.752845
 30
0.0
  0
LWPOLYLINE
  5
2f8
100
AcDbEntity
  8
1
 62
7
100
AcDbPolyline
 90
2
 70
0
 10
46.076436
 20
115.884123
 30
0.0
 10
46.977922
 20
117.650002
 30
0.0
  0
LWPOLYLINE
  5
2f9
100
AcDbEntity
  8
1
 62
7
100
AcDbPolyline
 90
2
 70
0
 10
49.104008
 20
120.993579
 30
0.0
 10
50.320787
 20
122.559997
 30
0.0
  0
SPLINE
  5
2fa
100
AcDbEntity
  8
1
 62
7
100
AcDbSpline
 70
8
 71
3
 72
8
 73
4
 74
0
 40
0
 40
0
 40
0
 40
0
 40
1
 40
1
 40
1
 40
1
 10
49.125042
 20
120.979355
 30
0.0
 10
49.132838
 20
120.990941
 30
0.0
 10
49.129808
 20
121.006650
 30
0.0
 10
49.118262
 20
121.014506
 30
0.0
  0
SPLINE
  5
2fb
100
AcDbEntity
  8
1
 62
7
100
AcDbSpline
 70
8
 71
3
 72
8
 73
4
 74
0
 40
0
 40
0
 40
0
 40
0
 40
1
 40
1
 40
1
 40
1
 10
49.118262
 20
121.014506
 30
0.0
 10
49.106715
 20
121.022361
 30
0.0
 10
49.090991
 20
121.019412
 30
0.0
 10
49.083076
 20
121.007906
 30
0.0
  0
SPLINE
  5
2fc
100
AcDbEntity
  8
1
 62
7
100
AcDbSpline
 70
8
 71
3
 72
8
 73
4
 74
0
 40
0
 40
0
 40
0
 40
0
 40
1
 40
1
 40
1
 40
1
 10
50.340805
 20
122.544352
 30
0.0
 10
50.346377
 20
122.551522
 30
0.0
 10
50.347701
 20
122.561120
 30
0.0
 10
50.344278
 20
122.569530
 30
0.0
  0
SPLINE
  5
2fd
100
AcDbEntity
  8
1
 62
7
100
AcDbSpline
 70
8
 71
3
 72
8
 73
4
 74
0
 40
0
 40
0
 40
0
 40
0
 40
1
 40
1
 40
1
 40
1
 10
50.344278
 20
122.569530
 30
0.0
 10
50.340855
 20
122.577941
 30
0.0
 10
50.333205
 20
122.583887
 30
0.0
 10
50.324210
 20
122.585128
 30
0.0
  0
SPLINE
  5
2fe
100
AcDbEntity
  8
1
 62
7
100
AcDbSpline
 70
8
 71
3
 72
8
 73
4
 74
0
 40
0
 40
0
 40
0
 40
0
 40
1
 40
1
 40
1
 40
1
 10
50.324210
 20
122.585128
 30
0.0
 10
50.315214
 20
122.586368
 30
0.0
 10
50.306240
 20
122.582716
 30
0.0
 10
50.300668
 20
122.575546
 30
0.0
  0
LWPOLYLINE
  5
2ff
100
AcDbEntity
  8
1
 62
7
100
AcDbPolyline
 90
2
 70
0
 10
47.988839
 20
119.355829
 30
0.0
 10
49.104008
 20
120.993579
 30
0.0
  0
SPLINE
  5
300
100
AcDbEntity
  8
1
 62
7
100
AcDbSpline
 70
8
 71
3
 72
8
 73
4
 74
0
 40
0
 40
0
 40
0
 40
0
 40
1
 40
1
 40
1
 40
1
 10
56.071405
 20
127.996234
 30
0.0
 10
56.059911
 20
127.988287
 30
0.0
 10
56.056993
 20
127.972550
 30
0.0
 10
56.064872
 20
127.961010
 30
0.0
  0
SPLINE
  5
301
100
AcDbEntity
  8
1
 62
7
100
AcDbSpline
 70
8
 71
3
 72
8
 73
4
 74
0
 40
0
 40
0
 40
0
 40
0
 40
1
 40
1
 40
1
 40
1
 10
56.064872
 20
127.961010
 30
0.0
 10
56.072751
 20
127.949470
 30
0.0
 10
56.088470
 20
127.946458
 30
0.0
 10
56.100057
 20
127.954269
 30
0.0
  0
SPLINE
  5
302
100
AcDbEntity
  8
1
 62
7
100
AcDbSpline
 70
8
 71
3
 72
8
 73
4
 74
0
 40
0
 40
0
 40
0
 40
0
 40
1
 40
1
 40
1
 40
1
 10
61.206063
 20
130.979808
 30
0.0
 10
61.214220
 20
130.983893
 30
0.0
 10
61.219564
 20
130.992036
 30
0.0
 10
61.220065
 20
131.001146
 30
0.0
  0
SPLINE
  5
303
100
AcDbEntity
  8
1
 62
7
100
AcDbSpline
 70
8
 71
3
 72
8
 73
4
 74
0
 40
0
 40
0
 40
0
 40
0
 40
1
 40
1
 40
1
 40
1
 10
61.220065
 20
131.001146
 30
0.0
 10
61.220567
 20
131.010256
 30
0.0
 10
61.216149
 20
131.018936
 30
0.0
 10
61.208488
 20
131.023891
 30
0.0
  0
SPLINE
  5
304
100
AcDbEntity
  8
1
 62
7
100
AcDbSpline
 70
8
 71
3
 72
8
 73
4
 74
0
 40
0
 40
0
 40
0
 40
0
 40
1
 40
1
 40
1
 40
1
 10
61.208488
 20
131.023891
 30
0.0
 10
61.200828
 20
131.028847
 30
0.0
 10
61.191100
 20
131.029318
 30
0.0
 10
61.182996
 20
131.025126
 30
0.0
  0
LWPOLYLINE
  5
305
100
AcDbEntity
  8
1
 62
7
100
AcDbPolyline
 90
2
 70
0
 10
56.085732
 20
127.975203
 30
0.0
 10
57.723685
 20
129.090474
 30
0.0
  0
SPLINE
  5
306
100
AcDbEntity
  8
1
 62
7
100
AcDbSpline
 70
8
 71
3
 72
8
 73
4
 74
0
 40
0
 40
0
 40
0
 40
0
 40
1
 40
1
 40
1
 40
1
 10
72.649784
 20
133.962567
 30
0.0
 10
72.635858
 20
133.962011
 30
0.0
 10
72.624978
 20
133.950343
 30
0.0
 10
72.625396
 20
133.936412
 30
0.0
  0
SPLINE
  5
307
100
AcDbEntity
  8
1
 62
7
100
AcDbSpline
 70
8
 71
3
 72
8
 73
4
 74
0
 40
0
 40
0
 40
0
 40
0
 40
1
 40
1
 40
1
 40
1
 10
72.625396
 20
133.936412
 30
0.0
 10
72.625814
 20
133.922481
 30
0.0
 10
72.637373
 20
133.911485
 30
0.0
 10
72.651308
 20
133.911765
 30
0.0
  0
LWPOLYLINE
  5
308
100
AcDbEntity
  8
1
 62
7
100
AcDbPolyline
 90
2
 70
0
 10
63.013397
 20
131.790555
 30
0.0
 10
64.878143
 20
132.462097
 30
0.0
  0
SPLINE
  5
309
100
AcDbEntity
  8
1
 62
7
100
AcDbSpline
 70
8
 71
3
 72
8
 73
4
 74
0
 40
0
 40
0
 40
0
 40
0
 40
1
 40
1
 40
1
 40
1
 10
63.004763
 20
131.814534
 30
0.0
 10
62.991660
 20
131.809715
 30
0.0
 10
62.984894
 20
131.795231
 30
0.0
 10
62.989609
 20
131.782089
 30
0.0
  0
SPLINE
  5
30a
100
AcDbEntity
  8
1
 62
7
100
AcDbSpline
 70
8
 71
3
 72
8
 73
4
 74
0
 40
0
 40
0
 40
0
 40
0
 40
1
 40
1
 40
1
 40
1
 10
62.989609
 20
131.782089
 30
0.0
 10
62.994323
 20
131.768947
 30
0.0
 10
63.008754
 20
131.762067
 30
0.0
 10
63.021932
 20
131.766676
 30
0.0
  0
LWPOLYLINE
  5
30b
100
AcDbEntity
  8
1
 62
7
100
AcDbPolyline
 90
6
 70
0
 10
72.650493
 20
133.937167
 30
0.0
 10
74.500002
 20
134.000011
 30
0.0
 10
37.082886
 20
134.373238
 30
0.0
 10
37.499999
 20
71.000010
 30
0.0
 10
74.500002
 20
71.000010
 30
0.0
 10
72.648969
 20
70.959606
 30
0.0
  0
SPLINE
  5
30c
100
AcDbEntity
  8
1
 62
7
100
AcDbSpline
 70
8
 71
3
 72
8
 73
4
 74
0
 40
0
 40
0
 40
0
 40
0
 40
1
 40
1
 40
1
 40
1
 10
53.051456
 20
125.429668
 30
0.0
 10
53.061247
 20
125.439592
 30
0.0
 10
53.061193
 20
125.455558
 30
0.0
 10
53.051335
 20
125.465416
 30
0.0
  0
SPLINE
  5
30d
100
AcDbEntity
  8
1
 62
7
100
AcDbSpline
 70
8
 71
3
 72
8
 73
4
 74
0
 40
0
 40
0
 40
0
 40
0
 40
1
 40
1
 40
1
 40
1
 10
53.051335
 20
125.465416
 30
0.0
 10
53.041477
 20
125.475274
 30
0.0
 10
53.025510
 20
125.475327
 30
0.0
 10
53.015586
 20
125.465534
 30
0.0
  0
LWPOLYLINE
  5
30e
100
AcDbEntity
  8
1
 62
7
100
AcDbPolyline
 90
2
 70
0
 10
50.320787
 20
122.559997
 30
0.0
 10
51.631964
 20
124.046045
 30
0.0
  0
SPLINE
  5
30f
100
AcDbEntity
  8
1
 62
7
100
AcDbSpline
 70
8
 71
3
 72
8
 73
4
 74
0
 40
0
 40
0
 40
0
 40
0
 40
1
 40
1
 40
1
 40
1
 10
68.722965
 20
133.420277
 30
0.0
 10
68.731842
 20
133.422237
 30
0.0
 10
68.738996
 20
133.428791
 30
0.0
 10
68.741723
 20
133.437463
 30
0.0
  0
SPLINE
  5
310
100
AcDbEntity
  8
1
 62
7
100
AcDbSpline
 70
8
 71
3
 72
8
 73
4
 74
0
 40
0
 40
0
 40
0
 40
0
 40
1
 40
1
 40
1
 40
1
 10
68.741723
 20
133.437463
 30
0.0
 10
68.744450
 20
133.446135
 30
0.0
 10
68.742335
 20
133.455604
 30
0.0
 10
68.736177
 20
133.462292
 30
0.0
  0
SPLINE
  5
311
100
AcDbEntity
  8
1
 62
7
100
AcDbSpline
 70
8
 71
3
 72
8
 73
4
 74
0
 40
0
 40
0
 40
0
 40
0
 40
1
 40
1
 40
1
 40
1
 10
68.736177
 20
133.462292
 30
0.0
 10
68.730019
 20
133.468980
 30
0.0
 10
68.720757
 20
133.471867
 30
0.0
 10
68.711890
 20
133.469863
 30
0.0
  0
SPLINE
  5
312
100
AcDbEntity
  8
1
 62
7
100
AcDbSpline
 70
8
 71
3
 72
8
 73
4
 74
0
 40
0
 40
0
 40
0
 40
0
 40
1
 40
1
 40
1
 40
1
 10
57.710679
 20
129.112318
 30
0.0
 10
57.698742
 20
129.105106
 30
0.0
 10
57.694854
 20
129.089619
 30
0.0
 10
57.701968
 20
129.077624
 30
0.0
  0
SPLINE
  5
313
100
AcDbEntity
  8
1
 62
7
100
AcDbSpline
 70
8
 71
3
 72
8
 73
4
 74
0
 40
0
 40
0
 40
0
 40
0
 40
1
 40
1
 40
1
 40
1
 10
57.701968
 20
129.077624
 30
0.0
 10
57.709081
 20
129.065629
 30
0.0
 10
57.724536
 20
129.061613
 30
0.0
 10
57.736589
 20
129.068628
 30
0.0
  0
SPLINE
  5
314
100
AcDbEntity
  8
1
 62
7
100
AcDbSpline
 70
8
 71
3
 72
8
 73
4
 74
0
 40
0
 40
0
 40
0
 40
0
 40
1
 40
1
 40
1
 40
1
 10
66.775912
 20
133.038933
 30
0.0
 10
66.762221
 20
133.035873
 30
0.0
 10
66.753602
 20
133.022294
 30
0.0
 10
66.756661
 20
133.008602
 30
0.0
  0
SPLINE
  5
315
100
AcDbEntity
  8
1
 62
7
100
AcDbSpline
 70
8
 71
3
 72
8
 73
4
 74
0
 40
0
 40
0
 40
0
 40
0
 40
1
 40
1
 40
1
 40
1
 10
66.756661
 20
133.008602
 30
0.0
 10
66.759720
 20
132.994910
 30
0.0
 10
66.773298
 20
132.986290
 30
0.0
 10
66.786990
 20
132.989348
 30
0.0
  0
SPLINE
  5
316
100
AcDbEntity
  8
1
 62
7
100
AcDbSpline
 70
8
 71
3
 72
8
 73
4
 74
0
 40
0
 40
0
 40
0
 40
0
 40
1
 40
1
 40
1
 40
1
 10
72.652932
 20
133.911868
 30
0.0
 10
72.666885
 20
133.913210
 30
0.0
 10
72.677116
 20
133.925597
 30
0.0
 10
72.675799
 20
133.939552
 30
0.0
  0
SPLINE
  5
317
100
AcDbEntity
  8
1
 62
7
100
AcDbSpline
 70
8
 71
3
 72
8
 73
4
 74
0
 40
0
 40
0
 40
0
 40
0
 40
1
 40
1
 40
1
 40
1
 10
72.675799
 20
133.939552
 30
0.0
 10
72.674482
 20
133.953507
 30
0.0
 10
72.662114
 20
133.963761
 30
0.0
 10
72.648157
 20
133.962469
 30
0.0
  0
SPLINE
  5
318
100
AcDbEntity
  8
1
 62
7
100
AcDbSpline
 70
8
 71
3
 72
8
 73
4
 74
0
 40
0
 40
0
 40
0
 40
0
 40
1
 40
1
 40
1
 40
1
 10
46.956075
 20
117.662906
 30
0.0
 10
46.951447
 20
117.655101
 30
0.0
 10
46.951334
 20
117.645419
 30
0.0
 10
46.955779
 20
117.637508
 30
0.0
  0
SPLINE
  5
319
100
AcDbEntity
  8
1
 62
7
100
AcDbSpline
 70
8
 71
3
 72
8
 73
4
 74
0
 40
0
 40
0
 40
0
 40
0
 40
1
 40
1
 40
1
 40
1
 10
46.955779
 20
117.637508
 30
0.0
 10
46.960224
 20
117.629597
 30
0.0
 10
46.968552
 20
117.624659
 30
0.0
 10
46.977625
 20
117.624553
 30
0.0
  0
SPLINE
  5
31a
100
AcDbEntity
  8
1
 62
7
100
AcDbSpline
 70
8
 71
3
 72
8
 73
4
 74
0
 40
0
 40
0
 40
0
 40
0
 40
1
 40
1
 40
1
 40
1
 10
46.977625
 20
117.624553
 30
0.0
 10
46.986699
 20
117.624447
 30
0.0
 10
46.995140
 20
117.629190
 30
0.0
 10
46.999768
 20
117.636995
 30
0.0
  0
LWPOLYLINE
  5
31b
100
AcDbEntity
  8
1
 62
7
100
AcDbPolyline
 90
2
 70
0
 10
70.676418
 20
133.752845
 30
0.0
 10
72.650493
 20
133.937167
 30
0.0
  0
SPLINE
  5
31c
100
AcDbEntity
  8
1
 62
7
100
AcDbSpline
 70
8
 71
3
 72
8
 73
4
 74
0
 40
0
 40
0
 40
0
 40
0
 40
1
 40
1
 40
1
 40
1
 10
51.613977
 20
124.064029
 30
0.0
 10
51.604049
 20
124.054095
 30
0.0
 10
51.604051
 20
124.037994
 30
0.0
 10
51.613982
 20
124.028063
 30
0.0
  0
SPLINE
  5
31d
100
AcDbEntity
  8
1
 62
7
100
AcDbSpline
 70
8
 71
3
 72
8
 73
4
 74
0
 40
0
 40
0
 40
0
 40
0
 40
1
 40
1
 40
1
 40
1
 10
51.613982
 20
124.028063
 30
0.0
 10
51.623913
 20
124.018132
 30
0.0
 10
51.640014
 20
124.018130
 30
0.0
 10
51.649947
 20
124.028058
 30
0.0
  0
LWPOLYLINE
  5
31e
100
AcDbEntity
  8
1
 62
7
100
AcDbPolyline
 90
2
 70
0
 10
51.631964
 20
124.046045
 30
0.0
 10
53.033470
 20
125.447551
 30
0.0
  0
SPLINE
  5
31f
100
AcDbEntity
  8
1
 62
7
100
AcDbSpline
 70
8
 71
3
 72
8
 73
4
 74
0
 40
0
 40
0
 40
0
 40
0
 40
1
 40
1
 40
1
 40
1
 10
51.650964
 20
124.029278
 30
0.0
 10
51.660092
 20
124.039814
 30
0.0
 10
51.659014
 20
124.055740
 30
0.0
 10
51.648549
 20
124.064949
 30
0.0
  0
SPLINE
  5
320
100
AcDbEntity
  8
1
 62
7
100
AcDbSpline
 70
8
 71
3
 72
8
 73
4
 74
0
 40
0
 40
0
 40
0
 40
0
 40
1
 40
1
 40
1
 40
1
 10
51.648549
 20
124.064949
 30
0.0
 10
51.638084
 20
124.074158
 30
0.0
 10
51.622150
 20
124.073203
 30
0.0
 10
51.612861
 20
124.062809
 30
0.0
  0
SPLINE
  5
321
100
AcDbEntity
  8
1
 62
7
100
AcDbSpline
 70
8
 71
3
 72
8
 73
4
 74
0
 40
0
 40
0
 40
0
 40
0
 40
1
 40
1
 40
1
 40
1
 10
50.301686
 20
122.576766
 30
0.0
 10
50.295675
 20
122.569960
 30
0.0
 10
50.293752
 20
122.560464
 30
0.0
 10
50.296642
 20
122.551855
 30
0.0
  0
SPLINE
  5
322
100
AcDbEntity
  8
1
 62
7
100
AcDbSpline
 70
8
 71
3
 72
8
 73
4
 74
0
 40
0
 40
0
 40
0
 40
0
 40
1
 40
1
 40
1
 40
1
 10
50.296642
 20
122.551855
 30
0.0
 10
50.299532
 20
122.543247
 30
0.0
 10
50.306796
 20
122.536834
 30
0.0
 10
50.315696
 20
122.535034
 30
0.0
  0
SPLINE
  5
323
100
AcDbEntity
  8
1
 62
7
100
AcDbSpline
 70
8
 71
3
 72
8
 73
4
 74
0
 40
0
 40
0
 40
0
 40
0
 40
1
 40
1
 40
1
 40
1
 10
50.315696
 20
122.535034
 30
0.0
 10
50.324597
 20
122.533235
 30
0.0
 10
50.333781
 20
122.536320
 30
0.0
 10
50.339789
 20
122.543129
 30
0.0
  0
SPLINE
  5
324
100
AcDbEntity
  8
1
 62
7
100
AcDbSpline
 70
8
 71
3
 72
8
 73
4
 74
0
 40
0
 40
0
 40
0
 40
0
 40
1
 40
1
 40
1
 40
1
 10
63.023456
 20
131.767285
 30
0.0
 10
63.031849
 20
131.770857
 30
0.0
 10
63.037684
 20
131.778652
 30
0.0
 10
63.038746
 20
131.787711
 30
0.0
  0
SPLINE
  5
325
100
AcDbEntity
  8
1
 62
7
100
AcDbSpline
 70
8
 71
3
 72
8
 73
4
 74
0
 40
0
 40
0
 40
0
 40
0
 40
1
 40
1
 40
1
 40
1
 10
63.038746
 20
131.787711
 30
0.0
 10
63.039809
 20
131.796770
 30
0.0
 10
63.035936
 20
131.805704
 30
0.0
 10
63.028597
 20
131.811121
 30
0.0
  0
SPLINE
  5
326
100
AcDbEntity
  8
1
 62
7
100
AcDbSpline
 70
8
 71
3
 72
8
 73
4
 74
0
 40
0
 40
0
 40
0
 40
0
 40
1
 40
1
 40
1
 40
1
 10
63.028597
 20
131.811121
 30
0.0
 10
63.021259
 20
131.816538
 30
0.0
 10
63.011581
 20
131.817607
 30
0.0
 10
63.003237
 20
131.813923
 30
0.0
  0
LWPOLYLINE
  5
327
100
AcDbEntity
  8
1
 62
7
100
AcDbPolyline
 90
2
 70
0
 10
66.781400
 20
133.014142
 30
0.0
 10
68.717377
 20
133.445069
 30
0.0
  0
SPLINE
  5
328
100
AcDbEntity
  8
1
 62
7
100
AcDbSpline
 70
8
 71
3
 72
8
 73
4
 74
0
 40
0
 40
0
 40
0
 40
0
 40
1
 40
1
 40
1
 40
1
 10
61.184417
 20
131.025735
 30
0.0
 10
61.176101
 20
131.022124
 30
0.0
 10
61.170344
 20
131.014350
 30
0.0
 10
61.169315
 20
131.005343
 30
0.0
  0
SPLINE
  5
329
100
AcDbEntity
  8
1
 62
7
100
AcDbSpline
 70
8
 71
3
 72
8
 73
4
 74
0
 40
0
 40
0
 40
0
 40
0
 40
1
 40
1
 40
1
 40
1
 10
61.169315
 20
131.005343
 30
0.0
 10
61.168286
 20
130.996336
 30
0.0
 10
61.172141
 20
130.987465
 30
0.0
 10
61.179428
 20
130.982071
 30
0.0
  0
SPLINE
  5
32a
100
AcDbEntity
  8
1
 62
7
100
AcDbSpline
 70
8
 71
3
 72
8
 73
4
 74
0
 40
0
 40
0
 40
0
 40
0
 40
1
 40
1
 40
1
 40
1
 10
61.179428
 20
130.982071
 30
0.0
 10
61.186714
 20
130.976677
 30
0.0
 10
61.196325
 20
130.975582
 30
0.0
 10
61.204639
 20
130.979197
 30
0.0
  0
LWPOLYLINE
  5
32b
100
AcDbEntity
  8
1
 62
7
100
AcDbPolyline
 90
2
 70
0
 10
61.194580
 20
131.002467
 30
0.0
 10
63.013397
 20
131.790555
 30
0.0
  0
SPLINE
  5
32c
100
AcDbEntity
  8
1
 62
7
100
AcDbSpline
 70
8
 71
3
 72
8
 73
4
 74
0
 40
0
 40
0
 40
0
 40
0
 40
1
 40
1
 40
1
 40
1
 10
59.442416
 20
130.079545
 30
0.0
 10
59.450302
 20
130.084134
 30
0.0
 10
59.455120
 20
130.092601
 30
0.0
 10
59.455038
 20
130.101724
 30
0.0
  0
SPLINE
  5
32d
100
AcDbEntity
  8
1
 62
7
100
AcDbSpline
 70
8
 71
3
 72
8
 73
4
 74
0
 40
0
 40
0
 40
0
 40
0
 40
1
 40
1
 40
1
 40
1
 10
59.455038
 20
130.101724
 30
0.0
 10
59.454957
 20
130.110848
 30
0.0
 10
59.449988
 20
130.119227
 30
0.0
 10
59.442021
 20
130.123674
 30
0.0
  0
SPLINE
  5
32e
100
AcDbEntity
  8
1
 62
7
100
AcDbSpline
 70
8
 71
3
 72
8
 73
4
 74
0
 40
0
 40
0
 40
0
 40
0
 40
1
 40
1
 40
1
 40
1
 10
59.442021
 20
130.123674
 30
0.0
 10
59.434055
 20
130.128121
 30
0.0
 10
59.424315
 20
130.127954
 30
0.0
 10
59.416505
 20
130.123236
 30
0.0
  0
SPLINE
  5
32f
100
AcDbEntity
  8
1
 62
7
100
AcDbSpline
 70
8
 71
3
 72
8
 73
4
 74
0
 40
0
 40
0
 40
0
 40
0
 40
1
 40
1
 40
1
 40
1
 10
70.674079
 20
133.778147
 30
0.0
 10
70.660147
 20
133.776780
 30
0.0
 10
70.649944
 20
133.764404
 30
0.0
 10
70.651260
 20
133.750468
 30
0.0
  0
SPLINE
  5
330
100
AcDbEntity
  8
1
 62
7
100
AcDbSpline
 70
8
 71
3
 72
8
 73
4
 74
0
 40
0
 40
0
 40
0
 40
0
 40
1
 40
1
 40
1
 40
1
 10
70.651260
 20
133.750468
 30
0.0
 10
70.652575
 20
133.736531
 30
0.0
 10
70.664913
 20
133.726282
 30
0.0
 10
70.678855
 20
133.727546
 30
0.0
  0
LWPOLYLINE
  5
331
100
AcDbEntity
  8
1
 62
7
100
AcDbPolyline
 90
2
 70
0
 10
57.723685
 20
129.090474
 30
0.0
 10
59.429512
 20
130.101389
 30
0.0
  0
LWPOLYLINE
  5
332
100
AcDbEntity
  8
1
 62
1
100
AcDbPolyline
 90
4
 70
1
 10
36.733337
 20
134.894083
 30
0.0
 10
75.000001
 20
134.894083
 30
0.0
 10
75.000001
 20
133.460079
 30
0.0
 10
36.733337
 20
133.460079
 30
0.0
  0
LWPOLYLINE
  5
333
100
AcDbEntity
  8
1
 62
1
100
AcDbPolyline
 90
4
 70
1
 10
36.892188
 20
71.495143
 30
0.0
 10
75.158851
 20
71.495143
 30
0.0
 10
75.158851
 20
70.061139
 30
0.0
 10
36.892188
 20
70.061139
 30
0.0
  0
ENDSEC
  0
SECTION
  2
OBJECTS
  0
DICTIONARY
  5
C
330
0
100
AcDbDictionary
  3
ACAD_GROUP
350
D
  3
ACAD_MLINESTYLE
350
17
  0
DICTIONARY
  5
D
330
C
100
AcDbDictionary
  0
DICTIONARY
  5
1A
330
C
100
AcDbDictionary
  0
DICTIONARY
  5
17
330
C
100
AcDbDictionary
  3
STANDARD
350
18
  0
DICTIONARY
  5
19
330
C
100
AcDbDictionary
  0
ENDSEC
  0
EOF
