  0
SECTION
  2
HEADER
  9
$ACADVER
  1
AC1009
  9
$INSBASE
 10
0.0
 20
0.0
 30
0.0
  9
$EXTMIN
 10
0.0
 20
0.0
 30
0.0
  9
$EXTMAX
 10
0.0
 20
0.0
 30
0.0
  0
ENDSEC
  0
SECTION
  2
TABLES
  0
TABLE
  2
VPORT
 70
0
  0
ENDTAB
  0
TABLE
  2
LTYPE
 70
1
  0
LTYPE
  2
CONTINUOUS
 70
0
  3
Solid line
 72
65
 73
0
 40
0.0
  0
ENDTAB
  0
TABLE
  2
LAYER
 70
1
  0
LAYER
  2
0
 70
64
 62
7
  6
continuous
  0
ENDTAB
  0
TABLE
  2
STYLE
 70
1
  0
STYLE
  2
STANDARD
 70
0
 40
0
 41
1.0
 50
0.0
 71
0
 42
1
 3
ARIAL.TTF
 4

  0
ENDTAB
  0
TABLE
  2
VIEW
 70
0
  0
ENDTAB
  0
ENDSEC
  0
SECTION
  2
BLOCKS
  0
ENDSEC
  0
SECTION
  2
ENTITIES
  0
POLYLINE
  8
0
 62
0
 70
0
 66
1
 10
0.0
 20
0.0
 30
0.0
  0
VERTEX
  8
0
 10
61.203881
 20
220.126692
 30
0.0
  0
VERTEX
  8
0
 10
59.517879
 20
219.751343
 30
0.0
  0
SEQEND
  8
0
  0
POLYLINE
  8
0
 62
0
 70
0
 66
1
 10
0.0
 20
0.0
 30
0.0
  0
VERTEX
  8
0
 10
59.517879
 20
219.751343
 30
0.0
  0
VERTEX
  8
0
 10
57.809615
 20
219.482805
 30
0.0
  0
SEQEND
  8
0
  0
POLYLINE
  8
0
 62
0
 70
0
 66
1
 10
0.0
 20
0.0
 30
0.0
  0
VERTEX
  8
0
 10
67.612623
 20
222.665972
 30
0.0
  0
VERTEX
  8
0
 10
66.074034
 20
221.880432
 30
0.0
  0
SEQEND
  8
0
  0
POLYLINE
  8
0
 62
0
 70
0
 66
1
 10
0.0
 20
0.0
 30
0.0
  0
VERTEX
  8
0
 10
66.074034
 20
221.880432
 30
0.0
  0
VERTEX
  8
0
 10
64.488561
 20
221.19336
 30
0.0
  0
SEQEND
  8
0
  0
POLYLINE
  8
0
 62
0
 70
0
 66
1
 10
0.0
 20
0.0
 30
0.0
  0
VERTEX
  8
0
 10
62.862995
 20
220.607969
 30
0.0
  0
VERTEX
  8
0
 10
61.203881
 20
220.126692
 30
0.0
  0
SEQEND
  8
0
  0
POLYLINE
  8
0
 62
0
 70
0
 66
1
 10
0.0
 20
0.0
 30
0.0
  0
VERTEX
  8
0
 10
64.488561
 20
221.19336
 30
0.0
  0
VERTEX
  8
0
 10
62.862995
 20
220.607969
 30
0.0
  0
SEQEND
  8
0
  0
POLYLINE
  8
0
 62
0
 70
0
 66
1
 10
0.0
 20
0.0
 30
0.0
  0
VERTEX
  8
0
 10
45.863034
 20
272.922607
 30
0.0
  0
VERTEX
  8
0
 10
46.687695
 20
273.176372
 30
0.0
  0
SEQEND
  8
0
  0
POLYLINE
  8
0
 62
0
 70
0
 66
1
 10
0.0
 20
0.0
 30
0.0
  0
VERTEX
  8
0
 10
49.206993
 20
273.781434
 30
0.0
  0
VERTEX
  8
0
 10
50.058573
 20
273.930108
 30
0.0
  0
SEQEND
  8
0
  0
POLYLINE
  8
0
 62
0
 70
0
 66
1
 10
0.0
 20
0.0
 30
0.0
  0
VERTEX
  8
0
 10
45.045773
 20
272.642754
 30
0.0
  0
VERTEX
  8
0
 10
45.863034
 20
272.922607
 30
0.0
  0
SEQEND
  8
0
  0
POLYLINE
  8
0
 62
0
 70
0
 66
1
 10
0.0
 20
0.0
 30
0.0
  0
VERTEX
  8
0
 10
43.43968
 20
272.006808
 30
0.0
  0
VERTEX
  8
0
 10
44.237981
 20
272.337489
 30
0.0
  0
SEQEND
  8
0
  0
POLYLINE
  8
0
 62
0
 70
0
 66
1
 10
0.0
 20
0.0
 30
0.0
  0
VERTEX
  8
0
 10
40.363261
 20
270.439366
 30
0.0
  0
VERTEX
  8
0
 10
41.113774
 20
270.867411
 30
0.0
  0
SEQEND
  8
0
  0
POLYLINE
  8
0
 62
0
 70
0
 66
1
 10
0.0
 20
0.0
 30
0.0
  0
VERTEX
  8
0
 10
44.237981
 20
272.337489
 30
0.0
  0
VERTEX
  8
0
 10
45.045773
 20
272.642754
 30
0.0
  0
SEQEND
  8
0
  0
POLYLINE
  8
0
 62
0
 70
0
 66
1
 10
0.0
 20
0.0
 30
0.0
  0
VERTEX
  8
0
 10
42.652449
 20
271.651356
 30
0.0
  0
VERTEX
  8
0
 10
43.43968
 20
272.006808
 30
0.0
  0
SEQEND
  8
0
  0
POLYLINE
  8
0
 62
0
 70
0
 66
1
 10
0.0
 20
0.0
 30
0.0
  0
VERTEX
  8
0
 10
41.113774
 20
270.867411
 30
0.0
  0
VERTEX
  8
0
 10
41.876732
 20
271.271347
 30
0.0
  0
SEQEND
  8
0
  0
POLYLINE
  8
0
 62
0
 70
0
 66
1
 10
0.0
 20
0.0
 30
0.0
  0
VERTEX
  8
0
 10
41.876732
 20
271.271347
 30
0.0
  0
VERTEX
  8
0
 10
42.652449
 20
271.651356
 30
0.0
  0
SEQEND
  8
0
  0
POLYLINE
  8
0
 62
0
 70
0
 66
1
 10
0.0
 20
0.0
 30
0.0
  0
VERTEX
  8
0
 10
46.687695
 20
273.176372
 30
0.0
  0
VERTEX
  8
0
 10
47.521207
 20
273.404475
 30
0.0
  0
SEQEND
  8
0
  0
POLYLINE
  8
0
 62
0
 70
0
 66
1
 10
0.0
 20
0.0
 30
0.0
  0
VERTEX
  8
0
 10
47.521207
 20
273.404475
 30
0.0
  0
VERTEX
  8
0
 10
48.361822
 20
273.606351
 30
0.0
  0
SEQEND
  8
0
  0
POLYLINE
  8
0
 62
0
 70
0
 66
1
 10
0.0
 20
0.0
 30
0.0
  0
VERTEX
  8
0
 10
48.361822
 20
273.606351
 30
0.0
  0
VERTEX
  8
0
 10
49.206993
 20
273.781434
 30
0.0
  0
SEQEND
  8
0
  0
POLYLINE
  8
0
 62
0
 70
0
 66
1
 10
0.0
 20
0.0
 30
0.0
  0
VERTEX
  8
0
 10
38.905228
 20
269.514164
 30
0.0
  0
VERTEX
  8
0
 10
39.626861
 20
269.988141
 30
0.0
  0
SEQEND
  8
0
  0
POLYLINE
  8
0
 62
0
 70
0
 66
1
 10
0.0
 20
0.0
 30
0.0
  0
VERTEX
  8
0
 10
39.626861
 20
269.988141
 30
0.0
  0
VERTEX
  8
0
 10
40.363261
 20
270.439366
 30
0.0
  0
SEQEND
  8
0
  0
POLYLINE
  8
0
 62
0
 70
0
 66
1
 10
0.0
 20
0.0
 30
0.0
  0
VERTEX
  8
0
 10
34.916253
 20
266.214182
 30
0.0
  0
VERTEX
  8
0
 10
35.535988
 20
266.814787
 30
0.0
  0
SEQEND
  8
0
  0
POLYLINE
  8
0
 62
0
 70
0
 66
1
 10
0.0
 20
0.0
 30
0.0
  0
VERTEX
  8
0
 10
33.172573
 20
264.298028
 30
0.0
  0
VERTEX
  8
0
 10
33.733191
 20
264.95439
 30
0.0
  0
SEQEND
  8
0
  0
POLYLINE
  8
0
 62
0
 70
0
 66
1
 10
0.0
 20
0.0
 30
0.0
  0
VERTEX
  8
0
 10
35.535988
 20
266.814787
 30
0.0
  0
VERTEX
  8
0
 10
36.174968
 20
267.396295
 30
0.0
  0
SEQEND
  8
0
  0
POLYLINE
  8
0
 62
0
 70
0
 66
1
 10
0.0
 20
0.0
 30
0.0
  0
VERTEX
  8
0
 10
34.315117
 20
265.593882
 30
0.0
  0
VERTEX
  8
0
 10
34.916253
 20
266.214182
 30
0.0
  0
SEQEND
  8
0
  0
POLYLINE
  8
0
 62
0
 70
0
 66
1
 10
0.0
 20
0.0
 30
0.0
  0
VERTEX
  8
0
 10
36.174968
 20
267.396295
 30
0.0
  0
VERTEX
  8
0
 10
36.831985
 20
267.957514
 30
0.0
  0
SEQEND
  8
0
  0
POLYLINE
  8
0
 62
0
 70
0
 66
1
 10
0.0
 20
0.0
 30
0.0
  0
VERTEX
  8
0
 10
36.831985
 20
267.957514
 30
0.0
  0
VERTEX
  8
0
 10
37.507206
 20
268.498498
 30
0.0
  0
SEQEND
  8
0
  0
POLYLINE
  8
0
 62
0
 70
0
 66
1
 10
0.0
 20
0.0
 30
0.0
  0
VERTEX
  8
0
 10
33.733191
 20
264.95439
 30
0.0
  0
VERTEX
  8
0
 10
34.315117
 20
265.593882
 30
0.0
  0
SEQEND
  8
0
  0
POLYLINE
  8
0
 62
0
 70
0
 66
1
 10
0.0
 20
0.0
 30
0.0
  0
VERTEX
  8
0
 10
32.632366
 20
263.623782
 30
0.0
  0
VERTEX
  8
0
 10
33.172573
 20
264.298028
 30
0.0
  0
SEQEND
  8
0
  0
POLYLINE
  8
0
 62
0
 70
0
 66
1
 10
0.0
 20
0.0
 30
0.0
  0
VERTEX
  8
0
 10
37.507206
 20
268.498498
 30
0.0
  0
VERTEX
  8
0
 10
38.197659
 20
269.016903
 30
0.0
  0
SEQEND
  8
0
  0
POLYLINE
  8
0
 62
0
 70
0
 66
1
 10
0.0
 20
0.0
 30
0.0
  0
VERTEX
  8
0
 10
38.197659
 20
269.016903
 30
0.0
  0
VERTEX
  8
0
 10
38.905228
 20
269.514164
 30
0.0
  0
SEQEND
  8
0
  0
POLYLINE
  8
0
 62
0
 70
0
 66
1
 10
0.0
 20
0.0
 30
0.0
  0
VERTEX
  8
0
 10
56.0899
 20
219.322165
 30
0.0
  0
VERTEX
  8
0
 10
54.361682
 20
219.268745
 30
0.0
  0
SEQEND
  8
0
  0
POLYLINE
  8
0
 62
0
 70
0
 66
1
 10
0.0
 20
0.0
 30
0.0
  0
VERTEX
  8
0
 10
41.111047
 20
222.665803
 30
0.0
  0
VERTEX
  8
0
 10
39.624404
 20
223.546887
 30
0.0
  0
SEQEND
  8
0
  0
POLYLINE
  8
0
 62
0
 70
0
 66
1
 10
0.0
 20
0.0
 30
0.0
  0
VERTEX
  8
0
 10
39.624404
 20
223.546887
 30
0.0
  0
VERTEX
  8
0
 10
38.19705
 20
224.518765
 30
0.0
  0
SEQEND
  8
0
  0
POLYLINE
  8
0
 62
0
 70
0
 66
1
 10
0.0
 20
0.0
 30
0.0
  0
VERTEX
  8
0
 10
50.914904
 20
219.482667
 30
0.0
  0
VERTEX
  8
0
 10
49.208909
 20
219.750698
 30
0.0
  0
SEQEND
  8
0
  0
POLYLINE
  8
0
 62
0
 70
0
 66
1
 10
0.0
 20
0.0
 30
0.0
  0
VERTEX
  8
0
 10
49.208909
 20
219.750698
 30
0.0
  0
VERTEX
  8
0
 10
47.52146
 20
220.126187
 30
0.0
  0
SEQEND
  8
0
  0
POLYLINE
  8
0
 62
0
 70
0
 66
1
 10
0.0
 20
0.0
 30
0.0
  0
VERTEX
  8
0
 10
54.361682
 20
219.268745
 30
0.0
  0
VERTEX
  8
0
 10
52.634511
 20
219.322105
 30
0.0
  0
SEQEND
  8
0
  0
POLYLINE
  8
0
 62
0
 70
0
 66
1
 10
0.0
 20
0.0
 30
0.0
  0
VERTEX
  8
0
 10
47.52146
 20
220.126187
 30
0.0
  0
VERTEX
  8
0
 10
45.861964
 20
220.60745
 30
0.0
  0
SEQEND
  8
0
  0
POLYLINE
  8
0
 62
0
 70
0
 66
1
 10
0.0
 20
0.0
 30
0.0
  0
VERTEX
  8
0
 10
57.809615
 20
219.482805
 30
0.0
  0
VERTEX
  8
0
 10
56.0899
 20
219.322165
 30
0.0
  0
SEQEND
  8
0
  0
POLYLINE
  8
0
 62
0
 70
0
 66
1
 10
0.0
 20
0.0
 30
0.0
  0
VERTEX
  8
0
 10
52.634511
 20
219.322105
 30
0.0
  0
VERTEX
  8
0
 10
50.914904
 20
219.482667
 30
0.0
  0
SEQEND
  8
0
  0
POLYLINE
  8
0
 62
0
 70
0
 66
1
 10
0.0
 20
0.0
 30
0.0
  0
VERTEX
  8
0
 10
45.861964
 20
220.60745
 30
0.0
  0
VERTEX
  8
0
 10
44.235324
 20
221.193153
 30
0.0
  0
SEQEND
  8
0
  0
POLYLINE
  8
0
 62
0
 70
0
 66
1
 10
0.0
 20
0.0
 30
0.0
  0
VERTEX
  8
0
 10
44.235324
 20
221.193153
 30
0.0
  0
VERTEX
  8
0
 10
42.649944
 20
221.880144
 30
0.0
  0
SEQEND
  8
0
  0
POLYLINE
  8
0
 62
0
 70
0
 66
1
 10
0.0
 20
0.0
 30
0.0
  0
VERTEX
  8
0
 10
42.649944
 20
221.880144
 30
0.0
  0
VERTEX
  8
0
 10
41.111047
 20
222.665803
 30
0.0
  0
SEQEND
  8
0
  0
POLYLINE
  8
0
 62
0
 70
0
 66
1
 10
0.0
 20
0.0
 30
0.0
  0
VERTEX
  8
0
 10
70.524911
 20
269.01749
 30
0.0
  0
VERTEX
  8
0
 10
71.216728
 20
268.498067
 30
0.0
  0
SEQEND
  8
0
  0
POLYLINE
  8
0
 62
0
 70
0
 66
1
 10
0.0
 20
0.0
 30
0.0
  0
VERTEX
  8
0
 10
63.676669
 20
272.643091
 30
0.0
  0
VERTEX
  8
0
 10
64.484667
 20
272.337776
 30
0.0
  0
SEQEND
  8
0
  0
POLYLINE
  8
0
 62
0
 70
0
 66
1
 10
0.0
 20
0.0
 30
0.0
  0
VERTEX
  8
0
 10
61.200963
 20
273.404784
 30
0.0
  0
VERTEX
  8
0
 10
62.034329
 20
273.176764
 30
0.0
  0
SEQEND
  8
0
  0
POLYLINE
  8
0
 62
0
 70
0
 66
1
 10
0.0
 20
0.0
 30
0.0
  0
VERTEX
  8
0
 10
62.034329
 20
273.176764
 30
0.0
  0
VERTEX
  8
0
 10
62.859448
 20
272.922897
 30
0.0
  0
SEQEND
  8
0
  0
POLYLINE
  8
0
 62
0
 70
0
 66
1
 10
0.0
 20
0.0
 30
0.0
  0
VERTEX
  8
0
 10
64.484667
 20
272.337776
 30
0.0
  0
VERTEX
  8
0
 10
65.282978
 20
272.007118
 30
0.0
  0
SEQEND
  8
0
  0
POLYLINE
  8
0
 62
0
 70
0
 66
1
 10
0.0
 20
0.0
 30
0.0
  0
VERTEX
  8
0
 10
66.070029
 20
271.651779
 30
0.0
  0
VERTEX
  8
0
 10
66.845806
 20
271.271774
 30
0.0
  0
SEQEND
  8
0
  0
POLYLINE
  8
0
 62
0
 70
0
 66
1
 10
0.0
 20
0.0
 30
0.0
  0
VERTEX
  8
0
 10
60.361186
 20
273.606433
 30
0.0
  0
VERTEX
  8
0
 10
61.200963
 20
273.404784
 30
0.0
  0
SEQEND
  8
0
  0
POLYLINE
  8
0
 62
0
 70
0
 66
1
 10
0.0
 20
0.0
 30
0.0
  0
VERTEX
  8
0
 10
62.859448
 20
272.922897
 30
0.0
  0
VERTEX
  8
0
 10
63.676669
 20
272.643091
 30
0.0
  0
SEQEND
  8
0
  0
POLYLINE
  8
0
 62
0
 70
0
 66
1
 10
0.0
 20
0.0
 30
0.0
  0
VERTEX
  8
0
 10
69.817624
 20
269.514521
 30
0.0
  0
VERTEX
  8
0
 10
70.524911
 20
269.01749
 30
0.0
  0
SEQEND
  8
0
  0
POLYLINE
  8
0
 62
0
 70
0
 66
1
 10
0.0
 20
0.0
 30
0.0
  0
VERTEX
  8
0
 10
72.547336
 20
267.397243
 30
0.0
  0
VERTEX
  8
0
 10
73.186829
 20
266.815317
 30
0.0
  0
SEQEND
  8
0
  0
POLYLINE
  8
0
 62
0
 70
0
 66
1
 10
0.0
 20
0.0
 30
0.0
  0
VERTEX
  8
0
 10
71.216728
 20
268.498067
 30
0.0
  0
VERTEX
  8
0
 10
71.890974
 20
267.957861
 30
0.0
  0
SEQEND
  8
0
  0
POLYLINE
  8
0
 62
0
 70
0
 66
1
 10
0.0
 20
0.0
 30
0.0
  0
VERTEX
  8
0
 10
73.186829
 20
266.815317
 30
0.0
  0
VERTEX
  8
0
 10
73.807128
 20
266.214181
 30
0.0
  0
SEQEND
  8
0
  0
POLYLINE
  8
0
 62
0
 70
0
 66
1
 10
0.0
 20
0.0
 30
0.0
  0
VERTEX
  8
0
 10
74.407733
 20
265.594446
 30
0.0
  0
VERTEX
  8
0
 10
74.989242
 20
264.955466
 30
0.0
  0
SEQEND
  8
0
  0
POLYLINE
  8
0
 62
0
 70
0
 66
1
 10
0.0
 20
0.0
 30
0.0
  0
VERTEX
  8
0
 10
65.282978
 20
272.007118
 30
0.0
  0
VERTEX
  8
0
 10
66.070029
 20
271.651779
 30
0.0
  0
SEQEND
  8
0
  0
POLYLINE
  8
0
 62
0
 70
0
 66
1
 10
0.0
 20
0.0
 30
0.0
  0
VERTEX
  8
0
 10
67.608367
 20
270.868089
 30
0.0
  0
VERTEX
  8
0
 10
68.359045
 20
270.440001
 30
0.0
  0
SEQEND
  8
0
  0
POLYLINE
  8
0
 62
0
 70
0
 66
1
 10
0.0
 20
0.0
 30
0.0
  0
VERTEX
  8
0
 10
68.359045
 20
270.440001
 30
0.0
  0
VERTEX
  8
0
 10
69.096196
 20
269.988344
 30
0.0
  0
SEQEND
  8
0
  0
POLYLINE
  8
0
 62
0
 70
0
 66
1
 10
0.0
 20
0.0
 30
0.0
  0
VERTEX
  8
0
 10
69.096196
 20
269.988344
 30
0.0
  0
VERTEX
  8
0
 10
69.817624
 20
269.514521
 30
0.0
  0
SEQEND
  8
0
  0
POLYLINE
  8
0
 62
0
 70
0
 66
1
 10
0.0
 20
0.0
 30
0.0
  0
VERTEX
  8
0
 10
71.890974
 20
267.957861
 30
0.0
  0
VERTEX
  8
0
 10
72.547336
 20
267.397243
 30
0.0
  0
SEQEND
  8
0
  0
POLYLINE
  8
0
 62
0
 70
0
 66
1
 10
0.0
 20
0.0
 30
0.0
  0
VERTEX
  8
0
 10
73.807128
 20
266.214181
 30
0.0
  0
VERTEX
  8
0
 10
74.407733
 20
265.594446
 30
0.0
  0
SEQEND
  8
0
  0
POLYLINE
  8
0
 62
0
 70
0
 66
1
 10
0.0
 20
0.0
 30
0.0
  0
VERTEX
  8
0
 10
74.989242
 20
264.955466
 30
0.0
  0
VERTEX
  8
0
 10
75.55046
 20
264.298449
 30
0.0
  0
SEQEND
  8
0
  0
POLYLINE
  8
0
 62
0
 70
0
 66
1
 10
0.0
 20
0.0
 30
0.0
  0
VERTEX
  8
0
 10
75.55046
 20
264.298449
 30
0.0
  0
VERTEX
  8
0
 10
76.091443
 20
263.623228
 30
0.0
  0
SEQEND
  8
0
  0
POLYLINE
  8
0
 62
0
 70
0
 66
1
 10
0.0
 20
0.0
 30
0.0
  0
VERTEX
  8
0
 10
76.609849
 20
262.932774
 30
0.0
  0
VERTEX
  8
0
 10
77.10711
 20
262.225206
 30
0.0
  0
SEQEND
  8
0
  0
POLYLINE
  8
0
 62
0
 70
0
 66
1
 10
0.0
 20
0.0
 30
0.0
  0
VERTEX
  8
0
 10
76.091443
 20
263.623228
 30
0.0
  0
VERTEX
  8
0
 10
76.609849
 20
262.932774
 30
0.0
  0
SEQEND
  8
0
  0
POLYLINE
  8
0
 62
0
 70
0
 66
1
 10
0.0
 20
0.0
 30
0.0
  0
VERTEX
  8
0
 10
77.10711
 20
262.225206
 30
0.0
  0
VERTEX
  8
0
 10
77.581087
 20
261.503573
 30
0.0
  0
SEQEND
  8
0
  0
POLYLINE
  8
0
 62
0
 70
0
 66
1
 10
0.0
 20
0.0
 30
0.0
  0
VERTEX
  8
0
 10
66.845806
 20
271.271774
 30
0.0
  0
VERTEX
  8
0
 10
67.608367
 20
270.868089
 30
0.0
  0
SEQEND
  8
0
  0
POLYLINE
  8
0
 62
0
 70
0
 66
1
 10
0.0
 20
0.0
 30
0.0
  0
VERTEX
  8
0
 10
163.8659
 20
264.990463
 30
0.0
  0
VERTEX
  8
0
 10
164.96168
 20
263.38108
 30
0.0
  0
SEQEND
  8
0
  0
POLYLINE
  8
0
 62
0
 70
0
 66
1
 10
0.0
 20
0.0
 30
0.0
  0
VERTEX
  8
0
 10
168.81697
 20
254.481082
 30
0.0
  0
VERTEX
  8
0
 10
169.24037
 20
252.57881
 30
0.0
  0
SEQEND
  8
0
  0
POLYLINE
  8
0
 62
0
 70
0
 66
1
 10
0.0
 20
0.0
 30
0.0
  0
VERTEX
  8
0
 10
168.27454
 20
256.351204
 30
0.0
  0
VERTEX
  8
0
 10
168.81697
 20
254.481082
 30
0.0
  0
SEQEND
  8
0
  0
POLYLINE
  8
0
 62
0
 70
0
 66
1
 10
0.0
 20
0.0
 30
0.0
  0
VERTEX
  8
0
 10
169.72379
 20
244.821747
 30
0.0
  0
VERTEX
  8
0
 10
169.5428
 20
242.88328
 30
0.0
  0
SEQEND
  8
0
  0
POLYLINE
  8
0
 62
0
 70
0
 66
1
 10
0.0
 20
0.0
 30
0.0
  0
VERTEX
  8
0
 10
162.67152
 20
266.528182
 30
0.0
  0
VERTEX
  8
0
 10
163.8659
 20
264.990463
 30
0.0
  0
SEQEND
  8
0
  0
POLYLINE
  8
0
 62
0
 70
0
 66
1
 10
0.0
 20
0.0
 30
0.0
  0
VERTEX
  8
0
 10
161.38229
 20
267.989505
 30
0.0
  0
VERTEX
  8
0
 10
162.67152
 20
266.528182
 30
0.0
  0
SEQEND
  8
0
  0
POLYLINE
  8
0
 62
0
 70
0
 66
1
 10
0.0
 20
0.0
 30
0.0
  0
VERTEX
  8
0
 10
169.24037
 20
252.57881
 30
0.0
  0
VERTEX
  8
0
 10
169.54283
 20
250.653899
 30
0.0
  0
SEQEND
  8
0
  0
POLYLINE
  8
0
 62
0
 70
0
 66
1
 10
0.0
 20
0.0
 30
0.0
  0
VERTEX
  8
0
 10
169.72389
 20
248.714207
 30
0.0
  0
VERTEX
  8
0
 10
169.78389
 20
246.768739
 30
0.0
  0
SEQEND
  8
0
  0
POLYLINE
  8
0
 62
0
 70
0
 66
1
 10
0.0
 20
0.0
 30
0.0
  0
VERTEX
  8
0
 10
157.00589
 20
271.850535
 30
0.0
  0
VERTEX
  8
0
 10
158.54496
 20
270.655001
 30
0.0
  0
SEQEND
  8
0
  0
POLYLINE
  8
0
 62
0
 70
0
 66
1
 10
0.0
 20
0.0
 30
0.0
  0
VERTEX
  8
0
 10
158.54496
 20
270.655001
 30
0.0
  0
VERTEX
  8
0
 10
160.00517
 20
269.366649
 30
0.0
  0
SEQEND
  8
0
  0
POLYLINE
  8
0
 62
0
 70
0
 66
1
 10
0.0
 20
0.0
 30
0.0
  0
VERTEX
  8
0
 10
153.7205
 20
273.939617
 30
0.0
  0
VERTEX
  8
0
 10
155.39662
 20
272.946266
 30
0.0
  0
SEQEND
  8
0
  0
POLYLINE
  8
0
 62
0
 70
0
 66
1
 10
0.0
 20
0.0
 30
0.0
  0
VERTEX
  8
0
 10
164.96168
 20
263.38108
 30
0.0
  0
VERTEX
  8
0
 10
165.955
 20
261.704939
 30
0.0
  0
SEQEND
  8
0
  0
POLYLINE
  8
0
 62
0
 70
0
 66
1
 10
0.0
 20
0.0
 30
0.0
  0
VERTEX
  8
0
 10
169.78389
 20
246.768739
 30
0.0
  0
VERTEX
  8
0
 10
169.72379
 20
244.821747
 30
0.0
  0
SEQEND
  8
0
  0
POLYLINE
  8
0
 62
0
 70
0
 66
1
 10
0.0
 20
0.0
 30
0.0
  0
VERTEX
  8
0
 10
169.5428
 20
242.88328
 30
0.0
  0
VERTEX
  8
0
 10
169.24038
 20
240.958751
 30
0.0
  0
SEQEND
  8
0
  0
POLYLINE
  8
0
 62
0
 70
0
 66
1
 10
0.0
 20
0.0
 30
0.0
  0
VERTEX
  8
0
 10
169.24038
 20
240.958751
 30
0.0
  0
VERTEX
  8
0
 10
168.81719
 20
239.057251
 30
0.0
  0
SEQEND
  8
0
  0
POLYLINE
  8
0
 62
0
 70
0
 66
1
 10
0.0
 20
0.0
 30
0.0
  0
VERTEX
  8
0
 10
168.81719
 20
239.057251
 30
0.0
  0
VERTEX
  8
0
 10
168.27485
 20
237.187237
 30
0.0
  0
SEQEND
  8
0
  0
POLYLINE
  8
0
 62
0
 70
0
 66
1
 10
0.0
 20
0.0
 30
0.0
  0
VERTEX
  8
0
 10
167.61505
 20
235.354685
 30
0.0
  0
VERTEX
  8
0
 10
166.84056
 20
233.567226
 30
0.0
  0
SEQEND
  8
0
  0
POLYLINE
  8
0
 62
0
 70
0
 66
1
 10
0.0
 20
0.0
 30
0.0
  0
VERTEX
  8
0
 10
168.27485
 20
237.187237
 30
0.0
  0
VERTEX
  8
0
 10
167.61505
 20
235.354685
 30
0.0
  0
SEQEND
  8
0
  0
POLYLINE
  8
0
 62
0
 70
0
 66
1
 10
0.0
 20
0.0
 30
0.0
  0
VERTEX
  8
0
 10
160.00517
 20
269.366649
 30
0.0
  0
VERTEX
  8
0
 10
161.38229
 20
267.989505
 30
0.0
  0
SEQEND
  8
0
  0
POLYLINE
  8
0
 62
0
 70
0
 66
1
 10
0.0
 20
0.0
 30
0.0
  0
VERTEX
  8
0
 10
169.54283
 20
250.653899
 30
0.0
  0
VERTEX
  8
0
 10
169.72389
 20
248.714207
 30
0.0
  0
SEQEND
  8
0
  0
POLYLINE
  8
0
 62
0
 70
0
 66
1
 10
0.0
 20
0.0
 30
0.0
  0
VERTEX
  8
0
 10
151.98546
 20
274.825364
 30
0.0
  0
VERTEX
  8
0
 10
153.7205
 20
273.939617
 30
0.0
  0
SEQEND
  8
0
  0
POLYLINE
  8
0
 62
0
 70
0
 66
1
 10
0.0
 20
0.0
 30
0.0
  0
VERTEX
  8
0
 10
165.955
 20
261.704939
 30
0.0
  0
VERTEX
  8
0
 10
166.84038
 20
259.970646
 30
0.0
  0
SEQEND
  8
0
  0
POLYLINE
  8
0
 62
0
 70
0
 66
1
 10
0.0
 20
0.0
 30
0.0
  0
VERTEX
  8
0
 10
167.61476
 20
258.183516
 30
0.0
  0
VERTEX
  8
0
 10
168.27454
 20
256.351204
 30
0.0
  0
SEQEND
  8
0
  0
POLYLINE
  8
0
 62
0
 70
0
 66
1
 10
0.0
 20
0.0
 30
0.0
  0
VERTEX
  8
0
 10
155.39662
 20
272.946266
 30
0.0
  0
VERTEX
  8
0
 10
157.00589
 20
271.850535
 30
0.0
  0
SEQEND
  8
0
  0
POLYLINE
  8
0
 62
0
 70
0
 66
1
 10
0.0
 20
0.0
 30
0.0
  0
VERTEX
  8
0
 10
166.84038
 20
259.970646
 30
0.0
  0
VERTEX
  8
0
 10
167.61476
 20
258.183516
 30
0.0
  0
SEQEND
  8
0
  0
POLYLINE
  8
0
 62
0
 70
0
 66
1
 10
0.0
 20
0.0
 30
0.0
  0
VERTEX
  8
0
 10
81.807435
 20
248.496099
 30
0.0
  0
VERTEX
  8
0
 10
81.848145
 20
247.632428
 30
0.0
  0
SEQEND
  8
0
  0
POLYLINE
  8
0
 62
0
 70
0
 66
1
 10
0.0
 20
0.0
 30
0.0
  0
VERTEX
  8
0
 10
79.599755
 20
257.690753
 30
0.0
  0
VERTEX
  8
0
 10
79.930433
 20
256.892453
 30
0.0
  0
SEQEND
  8
0
  0
POLYLINE
  8
0
 62
0
 70
0
 66
1
 10
0.0
 20
0.0
 30
0.0
  0
VERTEX
  8
0
 10
81.848145
 20
247.632428
 30
0.0
  0
VERTEX
  8
0
 10
81.861695
 20
246.768741
 30
0.0
  0
SEQEND
  8
0
  0
POLYLINE
  8
0
 62
0
 70
0
 66
1
 10
0.0
 20
0.0
 30
0.0
  0
VERTEX
  8
0
 10
79.244303
 20
258.477985
 30
0.0
  0
VERTEX
  8
0
 10
79.599755
 20
257.690753
 30
0.0
  0
SEQEND
  8
0
  0
POLYLINE
  8
0
 62
0
 70
0
 66
1
 10
0.0
 20
0.0
 30
0.0
  0
VERTEX
  8
0
 10
79.930433
 20
256.892453
 30
0.0
  0
VERTEX
  8
0
 10
80.235699
 20
256.084661
 30
0.0
  0
SEQEND
  8
0
  0
POLYLINE
  8
0
 62
0
 70
0
 66
1
 10
0.0
 20
0.0
 30
0.0
  0
VERTEX
  8
0
 10
81.199298
 20
252.768612
 30
0.0
  0
VERTEX
  8
0
 10
81.374381
 20
251.923441
 30
0.0
  0
SEQEND
  8
0
  0
POLYLINE
  8
0
 62
0
 70
0
 66
1
 10
0.0
 20
0.0
 30
0.0
  0
VERTEX
  8
0
 10
81.523053
 20
251.071858
 30
0.0
  0
VERTEX
  8
0
 10
81.644955
 20
250.215383
 30
0.0
  0
SEQEND
  8
0
  0
POLYLINE
  8
0
 62
0
 70
0
 66
1
 10
0.0
 20
0.0
 30
0.0
  0
VERTEX
  8
0
 10
165.80194
 20
241.61597
 30
0.0
  0
VERTEX
  8
0
 10
165.42645
 20
239.928519
 30
0.0
  0
SEQEND
  8
0
  0
POLYLINE
  8
0
 62
0
 70
0
 66
1
 10
0.0
 20
0.0
 30
0.0
  0
VERTEX
  8
0
 10
165.42645
 20
239.928519
 30
0.0
  0
VERTEX
  8
0
 10
164.94518
 20
238.269026
 30
0.0
  0
SEQEND
  8
0
  0
POLYLINE
  8
0
 62
0
 70
0
 66
1
 10
0.0
 20
0.0
 30
0.0
  0
VERTEX
  8
0
 10
81.374381
 20
251.923441
 30
0.0
  0
VERTEX
  8
0
 10
81.523053
 20
251.071858
 30
0.0
  0
SEQEND
  8
0
  0
POLYLINE
  8
0
 62
0
 70
0
 66
1
 10
0.0
 20
0.0
 30
0.0
  0
VERTEX
  8
0
 10
164.35948
 20
236.642386
 30
0.0
  0
VERTEX
  8
0
 10
163.67249
 20
235.057005
 30
0.0
  0
SEQEND
  8
0
  0
POLYLINE
  8
0
 62
0
 70
0
 66
1
 10
0.0
 20
0.0
 30
0.0
  0
VERTEX
  8
0
 10
166.28393
 20
246.768744
 30
0.0
  0
VERTEX
  8
0
 10
166.23053
 20
245.041573
 30
0.0
  0
SEQEND
  8
0
  0
POLYLINE
  8
0
 62
0
 70
0
 66
1
 10
0.0
 20
0.0
 30
0.0
  0
VERTEX
  8
0
 10
166.06997
 20
243.321967
 30
0.0
  0
VERTEX
  8
0
 10
165.80194
 20
241.61597
 30
0.0
  0
SEQEND
  8
0
  0
POLYLINE
  8
0
 62
0
 70
0
 66
1
 10
0.0
 20
0.0
 30
0.0
  0
VERTEX
  8
0
 10
81.739735
 20
249.356636
 30
0.0
  0
VERTEX
  8
0
 10
81.807435
 20
248.496099
 30
0.0
  0
SEQEND
  8
0
  0
POLYLINE
  8
0
 62
0
 70
0
 66
1
 10
0.0
 20
0.0
 30
0.0
  0
VERTEX
  8
0
 10
80.769319
 20
254.442738
 30
0.0
  0
VERTEX
  8
0
 10
80.997421
 20
253.609226
 30
0.0
  0
SEQEND
  8
0
  0
POLYLINE
  8
0
 62
0
 70
0
 66
1
 10
0.0
 20
0.0
 30
0.0
  0
VERTEX
  8
0
 10
80.235699
 20
256.084661
 30
0.0
  0
VERTEX
  8
0
 10
80.515554
 20
255.267399
 30
0.0
  0
SEQEND
  8
0
  0
POLYLINE
  8
0
 62
0
 70
0
 66
1
 10
0.0
 20
0.0
 30
0.0
  0
VERTEX
  8
0
 10
78.032313
 20
260.767173
 30
0.0
  0
VERTEX
  8
0
 10
78.460358
 20
260.016659
 30
0.0
  0
SEQEND
  8
0
  0
POLYLINE
  8
0
 62
0
 70
0
 66
1
 10
0.0
 20
0.0
 30
0.0
  0
VERTEX
  8
0
 10
77.581087
 20
261.503573
 30
0.0
  0
VERTEX
  8
0
 10
78.032313
 20
260.767173
 30
0.0
  0
SEQEND
  8
0
  0
POLYLINE
  8
0
 62
0
 70
0
 66
1
 10
0.0
 20
0.0
 30
0.0
  0
VERTEX
  8
0
 10
166.23053
 20
245.041573
 30
0.0
  0
VERTEX
  8
0
 10
166.06997
 20
243.321967
 30
0.0
  0
SEQEND
  8
0
  0
POLYLINE
  8
0
 62
0
 70
0
 66
1
 10
0.0
 20
0.0
 30
0.0
  0
VERTEX
  8
0
 10
164.94518
 20
238.269026
 30
0.0
  0
VERTEX
  8
0
 10
164.35948
 20
236.642386
 30
0.0
  0
SEQEND
  8
0
  0
POLYLINE
  8
0
 62
0
 70
0
 66
1
 10
0.0
 20
0.0
 30
0.0
  0
VERTEX
  8
0
 10
78.864292
 20
259.253701
 30
0.0
  0
VERTEX
  8
0
 10
79.244303
 20
258.477985
 30
0.0
  0
SEQEND
  8
0
  0
POLYLINE
  8
0
 62
0
 70
0
 66
1
 10
0.0
 20
0.0
 30
0.0
  0
VERTEX
  8
0
 10
80.515554
 20
255.267399
 30
0.0
  0
VERTEX
  8
0
 10
80.769319
 20
254.442738
 30
0.0
  0
SEQEND
  8
0
  0
POLYLINE
  8
0
 62
0
 70
0
 66
1
 10
0.0
 20
0.0
 30
0.0
  0
VERTEX
  8
0
 10
80.997421
 20
253.609226
 30
0.0
  0
VERTEX
  8
0
 10
81.199298
 20
252.768612
 30
0.0
  0
SEQEND
  8
0
  0
POLYLINE
  8
0
 62
0
 70
0
 66
1
 10
0.0
 20
0.0
 30
0.0
  0
VERTEX
  8
0
 10
81.644955
 20
250.215383
 30
0.0
  0
VERTEX
  8
0
 10
81.739735
 20
249.356636
 30
0.0
  0
SEQEND
  8
0
  0
POLYLINE
  8
0
 62
0
 70
0
 66
1
 10
0.0
 20
0.0
 30
0.0
  0
VERTEX
  8
0
 10
78.460358
 20
260.016659
 30
0.0
  0
VERTEX
  8
0
 10
78.864292
 20
259.253701
 30
0.0
  0
SEQEND
  8
0
  0
POLYLINE
  8
0
 62
0
 70
0
 66
1
 10
0.0
 20
0.0
 30
0.0
  0
VERTEX
  8
0
 10
122.61826
 20
269.017961
 30
0.0
  0
VERTEX
  8
0
 10
124.04602
 20
269.99019
 30
0.0
  0
SEQEND
  8
0
  0
POLYLINE
  8
0
 62
0
 70
0
 66
1
 10
0.0
 20
0.0
 30
0.0
  0
VERTEX
  8
0
 10
140.51112
 20
274.215389
 30
0.0
  0
VERTEX
  8
0
 10
142.23073
 20
274.054829
 30
0.0
  0
SEQEND
  8
0
  0
POLYLINE
  8
0
 62
0
 70
0
 66
1
 10
0.0
 20
0.0
 30
0.0
  0
VERTEX
  8
0
 10
142.23073
 20
274.054829
 30
0.0
  0
VERTEX
  8
0
 10
143.93672
 20
273.786796
 30
0.0
  0
SEQEND
  8
0
  0
POLYLINE
  8
0
 62
0
 70
0
 66
1
 10
0.0
 20
0.0
 30
0.0
  0
VERTEX
  8
0
 10
116.53397
 20
262.933382
 30
0.0
  0
VERTEX
  8
0
 10
117.59433
 20
264.298458
 30
0.0
  0
SEQEND
  8
0
  0
POLYLINE
  8
0
 62
0
 70
0
 66
1
 10
0.0
 20
0.0
 30
0.0
  0
VERTEX
  8
0
 10
137.05573
 20
274.215329
 30
0.0
  0
VERTEX
  8
0
 10
138.78395
 20
274.268749
 30
0.0
  0
SEQEND
  8
0
  0
POLYLINE
  8
0
 62
0
 70
0
 66
1
 10
0.0
 20
0.0
 30
0.0
  0
VERTEX
  8
0
 10
138.78395
 20
274.268749
 30
0.0
  0
VERTEX
  8
0
 10
140.51112
 20
274.215389
 30
0.0
  0
SEQEND
  8
0
  0
POLYLINE
  8
0
 62
0
 70
0
 66
1
 10
0.0
 20
0.0
 30
0.0
  0
VERTEX
  8
0
 10
115.5621
 20
261.506028
 30
0.0
  0
VERTEX
  8
0
 10
116.53397
 20
262.933382
 30
0.0
  0
SEQEND
  8
0
  0
POLYLINE
  8
0
 62
0
 70
0
 66
1
 10
0.0
 20
0.0
 30
0.0
  0
VERTEX
  8
0
 10
125.53301
 20
270.871522
 30
0.0
  0
VERTEX
  8
0
 10
127.0716
 20
271.657061
 30
0.0
  0
SEQEND
  8
0
  0
POLYLINE
  8
0
 62
0
 70
0
 66
1
 10
0.0
 20
0.0
 30
0.0
  0
VERTEX
  8
0
 10
128.65707
 20
272.344135
 30
0.0
  0
VERTEX
  8
0
 10
130.28264
 20
272.929526
 30
0.0
  0
SEQEND
  8
0
  0
POLYLINE
  8
0
 62
0
 70
0
 66
1
 10
0.0
 20
0.0
 30
0.0
  0
VERTEX
  8
0
 10
118.73699
 20
265.593581
 30
0.0
  0
VERTEX
  8
0
 10
119.9584
 20
266.815031
 30
0.0
  0
SEQEND
  8
0
  0
POLYLINE
  8
0
 62
0
 70
0
 66
1
 10
0.0
 20
0.0
 30
0.0
  0
VERTEX
  8
0
 10
113.89535
 20
258.480488
 30
0.0
  0
VERTEX
  8
0
 10
114.68101
 20
260.019385
 30
0.0
  0
SEQEND
  8
0
  0
POLYLINE
  8
0
 62
0
 70
0
 66
1
 10
0.0
 20
0.0
 30
0.0
  0
VERTEX
  8
0
 10
114.68101
 20
260.019385
 30
0.0
  0
VERTEX
  8
0
 10
115.5621
 20
261.506028
 30
0.0
  0
SEQEND
  8
0
  0
POLYLINE
  8
0
 62
0
 70
0
 66
1
 10
0.0
 20
0.0
 30
0.0
  0
VERTEX
  8
0
 10
124.04602
 20
269.99019
 30
0.0
  0
VERTEX
  8
0
 10
125.53301
 20
270.871522
 30
0.0
  0
SEQEND
  8
0
  0
POLYLINE
  8
0
 62
0
 70
0
 66
1
 10
0.0
 20
0.0
 30
0.0
  0
VERTEX
  8
0
 10
135.33601
 20
274.05469
 30
0.0
  0
VERTEX
  8
0
 10
137.05573
 20
274.215329
 30
0.0
  0
SEQEND
  8
0
  0
POLYLINE
  8
0
 62
0
 70
0
 66
1
 10
0.0
 20
0.0
 30
0.0
  0
VERTEX
  8
0
 10
131.94175
 20
273.410803
 30
0.0
  0
VERTEX
  8
0
 10
133.62775
 20
273.786152
 30
0.0
  0
SEQEND
  8
0
  0
POLYLINE
  8
0
 62
0
 70
0
 66
1
 10
0.0
 20
0.0
 30
0.0
  0
VERTEX
  8
0
 10
119.9584
 20
266.815031
 30
0.0
  0
VERTEX
  8
0
 10
121.25316
 20
267.957473
 30
0.0
  0
SEQEND
  8
0
  0
POLYLINE
  8
0
 62
0
 70
0
 66
1
 10
0.0
 20
0.0
 30
0.0
  0
VERTEX
  8
0
 10
133.62775
 20
273.786152
 30
0.0
  0
VERTEX
  8
0
 10
135.33601
 20
274.05469
 30
0.0
  0
SEQEND
  8
0
  0
POLYLINE
  8
0
 62
0
 70
0
 66
1
 10
0.0
 20
0.0
 30
0.0
  0
VERTEX
  8
0
 10
148.91031
 20
272.344336
 30
0.0
  0
VERTEX
  8
0
 10
150.49569
 20
271.657345
 30
0.0
  0
SEQEND
  8
0
  0
POLYLINE
  8
0
 62
0
 70
0
 66
1
 10
0.0
 20
0.0
 30
0.0
  0
VERTEX
  8
0
 10
127.0716
 20
271.657061
 30
0.0
  0
VERTEX
  8
0
 10
128.65707
 20
272.344135
 30
0.0
  0
SEQEND
  8
0
  0
POLYLINE
  8
0
 62
0
 70
0
 66
1
 10
0.0
 20
0.0
 30
0.0
  0
VERTEX
  8
0
 10
121.25316
 20
267.957473
 30
0.0
  0
VERTEX
  8
0
 10
122.61826
 20
269.017961
 30
0.0
  0
SEQEND
  8
0
  0
POLYLINE
  8
0
 62
0
 70
0
 66
1
 10
0.0
 20
0.0
 30
0.0
  0
VERTEX
  8
0
 10
143.93672
 20
273.786796
 30
0.0
  0
VERTEX
  8
0
 10
145.62417
 20
273.411303
 30
0.0
  0
SEQEND
  8
0
  0
POLYLINE
  8
0
 62
0
 70
0
 66
1
 10
0.0
 20
0.0
 30
0.0
  0
VERTEX
  8
0
 10
145.62417
 20
273.411303
 30
0.0
  0
VERTEX
  8
0
 10
147.28367
 20
272.930039
 30
0.0
  0
SEQEND
  8
0
  0
POLYLINE
  8
0
 62
0
 70
0
 66
1
 10
0.0
 20
0.0
 30
0.0
  0
VERTEX
  8
0
 10
147.28367
 20
272.930039
 30
0.0
  0
VERTEX
  8
0
 10
148.91031
 20
272.344336
 30
0.0
  0
SEQEND
  8
0
  0
POLYLINE
  8
0
 62
0
 70
0
 66
1
 10
0.0
 20
0.0
 30
0.0
  0
VERTEX
  8
0
 10
117.59433
 20
264.298458
 30
0.0
  0
VERTEX
  8
0
 10
118.73699
 20
265.593581
 30
0.0
  0
SEQEND
  8
0
  0
POLYLINE
  8
0
 62
0
 70
0
 66
1
 10
0.0
 20
0.0
 30
0.0
  0
VERTEX
  8
0
 10
130.28264
 20
272.929526
 30
0.0
  0
VERTEX
  8
0
 10
131.94175
 20
273.410803
 30
0.0
  0
SEQEND
  8
0
  0
POLYLINE
  8
0
 62
0
 70
0
 66
1
 10
0.0
 20
0.0
 30
0.0
  0
VERTEX
  8
0
 10
125.82466
 20
218.587715
 30
0.0
  0
VERTEX
  8
0
 10
125.19021
 20
218.892793
 30
0.0
  0
SEQEND
  8
0
  0
POLYLINE
  8
0
 62
0
 70
0
 66
1
 10
0.0
 20
0.0
 30
0.0
  0
VERTEX
  8
0
 10
127.76846
 20
217.769584
 30
0.0
  0
VERTEX
  8
0
 10
127.11316
 20
218.026751
 30
0.0
  0
SEQEND
  8
0
  0
POLYLINE
  8
0
 62
0
 70
0
 66
1
 10
0.0
 20
0.0
 30
0.0
  0
VERTEX
  8
0
 10
122.74075
 20
220.277191
 30
0.0
  0
VERTEX
  8
0
 10
122.15389
 20
220.665258
 30
0.0
  0
SEQEND
  8
0
  0
POLYLINE
  8
0
 62
0
 70
0
 66
1
 10
0.0
 20
0.0
 30
0.0
  0
VERTEX
  8
0
 10
128.42906
 20
217.528387
 30
0.0
  0
VERTEX
  8
0
 10
127.76846
 20
217.769584
 30
0.0
  0
SEQEND
  8
0
  0
POLYLINE
  8
0
 62
0
 70
0
 66
1
 10
0.0
 20
0.0
 30
0.0
  0
VERTEX
  8
0
 10
133.8784
 20
216.155983
 30
0.0
  0
VERTEX
  8
0
 10
133.18571
 20
216.273463
 30
0.0
  0
SEQEND
  8
0
  0
POLYLINE
  8
0
 62
0
 70
0
 66
1
 10
0.0
 20
0.0
 30
0.0
  0
VERTEX
  8
0
 10
121.25593
 20
221.306791
 30
0.0
  0
VERTEX
  8
0
 10
120.34635
 20
221.930652
 30
0.0
  0
SEQEND
  8
0
  0
POLYLINE
  8
0
 62
0
 70
0
 66
1
 10
0.0
 20
0.0
 30
0.0
  0
VERTEX
  8
0
 10
130.44279
 20
216.897959
 30
0.0
  0
VERTEX
  8
0
 10
129.76642
 20
217.092706
 30
0.0
  0
SEQEND
  8
0
  0
POLYLINE
  8
0
 62
0
 70
0
 66
1
 10
0.0
 20
0.0
 30
0.0
  0
VERTEX
  8
0
 10
125.19021
 20
218.892793
 30
0.0
  0
VERTEX
  8
0
 10
124.56375
 20
219.214214
 30
0.0
  0
SEQEND
  8
0
  0
POLYLINE
  8
0
 62
0
 70
0
 66
1
 10
0.0
 20
0.0
 30
0.0
  0
VERTEX
  8
0
 10
132.49508
 20
216.406464
 30
0.0
  0
VERTEX
  8
0
 10
131.80706
 20
216.554969
 30
0.0
  0
SEQEND
  8
0
  0
POLYLINE
  8
0
 62
0
 70
0
 66
1
 10
0.0
 20
0.0
 30
0.0
  0
VERTEX
  8
0
 10
133.18571
 20
216.273463
 30
0.0
  0
VERTEX
  8
0
 10
132.49508
 20
216.406464
 30
0.0
  0
SEQEND
  8
0
  0
POLYLINE
  8
0
 62
0
 70
0
 66
1
 10
0.0
 20
0.0
 30
0.0
  0
VERTEX
  8
0
 10
123.33844
 20
219.906174
 30
0.0
  0
VERTEX
  8
0
 10
122.74075
 20
220.277191
 30
0.0
  0
SEQEND
  8
0
  0
POLYLINE
  8
0
 62
0
 70
0
 66
1
 10
0.0
 20
0.0
 30
0.0
  0
VERTEX
  8
0
 10
131.12348
 20
216.718643
 30
0.0
  0
VERTEX
  8
0
 10
130.44279
 20
216.897959
 30
0.0
  0
SEQEND
  8
0
  0
POLYLINE
  8
0
 62
0
 70
0
 66
1
 10
0.0
 20
0.0
 30
0.0
  0
VERTEX
  8
0
 10
127.11316
 20
218.026751
 30
0.0
  0
VERTEX
  8
0
 10
126.46559
 20
218.299206
 30
0.0
  0
SEQEND
  8
0
  0
POLYLINE
  8
0
 62
0
 70
0
 66
1
 10
0.0
 20
0.0
 30
0.0
  0
VERTEX
  8
0
 10
124.56375
 20
219.214214
 30
0.0
  0
VERTEX
  8
0
 10
123.94691
 20
219.551592
 30
0.0
  0
SEQEND
  8
0
  0
POLYLINE
  8
0
 62
0
 70
0
 66
1
 10
0.0
 20
0.0
 30
0.0
  0
VERTEX
  8
0
 10
123.94691
 20
219.551592
 30
0.0
  0
VERTEX
  8
0
 10
123.33844
 20
219.906174
 30
0.0
  0
SEQEND
  8
0
  0
POLYLINE
  8
0
 62
0
 70
0
 66
1
 10
0.0
 20
0.0
 30
0.0
  0
VERTEX
  8
0
 10
120.34635
 20
221.930652
 30
0.0
  0
VERTEX
  8
0
 10
119.42474
 20
222.536383
 30
0.0
  0
SEQEND
  8
0
  0
POLYLINE
  8
0
 62
0
 70
0
 66
1
 10
0.0
 20
0.0
 30
0.0
  0
VERTEX
  8
0
 10
118.48998
 20
223.123883
 30
0.0
  0
VERTEX
  8
0
 10
117.54401
 20
223.691141
 30
0.0
  0
SEQEND
  8
0
  0
POLYLINE
  8
0
 62
0
 70
0
 66
1
 10
0.0
 20
0.0
 30
0.0
  0
VERTEX
  8
0
 10
122.15389
 20
220.665258
 30
0.0
  0
VERTEX
  8
0
 10
121.25593
 20
221.306791
 30
0.0
  0
SEQEND
  8
0
  0
POLYLINE
  8
0
 62
0
 70
0
 66
1
 10
0.0
 20
0.0
 30
0.0
  0
VERTEX
  8
0
 10
129.09497
 20
217.302859
 30
0.0
  0
VERTEX
  8
0
 10
128.42906
 20
217.528387
 30
0.0
  0
SEQEND
  8
0
  0
POLYLINE
  8
0
 62
0
 70
0
 66
1
 10
0.0
 20
0.0
 30
0.0
  0
VERTEX
  8
0
 10
117.54401
 20
223.691141
 30
0.0
  0
VERTEX
  8
0
 10
116.5863
 20
224.237739
 30
0.0
  0
SEQEND
  8
0
  0
POLYLINE
  8
0
 62
0
 70
0
 66
1
 10
0.0
 20
0.0
 30
0.0
  0
VERTEX
  8
0
 10
116.5863
 20
224.237739
 30
0.0
  0
VERTEX
  8
0
 10
115.61599
 20
224.763373
 30
0.0
  0
SEQEND
  8
0
  0
POLYLINE
  8
0
 62
0
 70
0
 66
1
 10
0.0
 20
0.0
 30
0.0
  0
VERTEX
  8
0
 10
129.76642
 20
217.092706
 30
0.0
  0
VERTEX
  8
0
 10
129.09497
 20
217.302859
 30
0.0
  0
SEQEND
  8
0
  0
POLYLINE
  8
0
 62
0
 70
0
 66
1
 10
0.0
 20
0.0
 30
0.0
  0
VERTEX
  8
0
 10
126.46559
 20
218.299206
 30
0.0
  0
VERTEX
  8
0
 10
125.82466
 20
218.587715
 30
0.0
  0
SEQEND
  8
0
  0
POLYLINE
  8
0
 62
0
 70
0
 66
1
 10
0.0
 20
0.0
 30
0.0
  0
VERTEX
  8
0
 10
131.80706
 20
216.554969
 30
0.0
  0
VERTEX
  8
0
 10
131.12348
 20
216.718643
 30
0.0
  0
SEQEND
  8
0
  0
POLYLINE
  8
0
 62
0
 70
0
 66
1
 10
0.0
 20
0.0
 30
0.0
  0
VERTEX
  8
0
 10
119.42474
 20
222.536383
 30
0.0
  0
VERTEX
  8
0
 10
118.48998
 20
223.123883
 30
0.0
  0
SEQEND
  8
0
  0
POLYLINE
  8
0
 62
0
 70
0
 66
1
 10
0.0
 20
0.0
 30
0.0
  0
VERTEX
  8
0
 10
154.94958
 20
224.519532
 30
0.0
  0
VERTEX
  8
0
 10
153.52182
 20
223.547305
 30
0.0
  0
SEQEND
  8
0
  0
POLYLINE
  8
0
 62
0
 70
0
 66
1
 10
0.0
 20
0.0
 30
0.0
  0
VERTEX
  8
0
 10
133.63112
 20
219.750698
 30
0.0
  0
VERTEX
  8
0
 10
131.94366
 20
220.126192
 30
0.0
  0
SEQEND
  8
0
  0
POLYLINE
  8
0
 62
0
 70
0
 66
1
 10
0.0
 20
0.0
 30
0.0
  0
VERTEX
  8
0
 10
137.05672
 20
219.322105
 30
0.0
  0
VERTEX
  8
0
 10
135.3371
 20
219.482664
 30
0.0
  0
SEQEND
  8
0
  0
POLYLINE
  8
0
 62
0
 70
0
 66
1
 10
0.0
 20
0.0
 30
0.0
  0
VERTEX
  8
0
 10
131.94366
 20
220.126192
 30
0.0
  0
VERTEX
  8
0
 10
130.28417
 20
220.607456
 30
0.0
  0
SEQEND
  8
0
  0
POLYLINE
  8
0
 62
0
 70
0
 66
1
 10
0.0
 20
0.0
 30
0.0
  0
VERTEX
  8
0
 10
162.88683
 20
233.518109
 30
0.0
  0
VERTEX
  8
0
 10
162.00574
 20
232.031466
 30
0.0
  0
SEQEND
  8
0
  0
POLYLINE
  8
0
 62
0
 70
0
 66
1
 10
0.0
 20
0.0
 30
0.0
  0
VERTEX
  8
0
 10
153.52182
 20
223.547305
 30
0.0
  0
VERTEX
  8
0
 10
152.03483
 20
222.665972
 30
0.0
  0
SEQEND
  8
0
  0
POLYLINE
  8
0
 62
0
 70
0
 66
1
 10
0.0
 20
0.0
 30
0.0
  0
VERTEX
  8
0
 10
150.49623
 20
221.880432
 30
0.0
  0
VERTEX
  8
0
 10
148.91077
 20
221.19336
 30
0.0
  0
SEQEND
  8
0
  0
POLYLINE
  8
0
 62
0
 70
0
 66
1
 10
0.0
 20
0.0
 30
0.0
  0
VERTEX
  8
0
 10
156.31468
 20
225.580022
 30
0.0
  0
VERTEX
  8
0
 10
154.94958
 20
224.519532
 30
0.0
  0
SEQEND
  8
0
  0
POLYLINE
  8
0
 62
0
 70
0
 66
1
 10
0.0
 20
0.0
 30
0.0
  0
VERTEX
  8
0
 10
135.3371
 20
219.482664
 30
0.0
  0
VERTEX
  8
0
 10
133.63112
 20
219.750698
 30
0.0
  0
SEQEND
  8
0
  0
POLYLINE
  8
0
 62
0
 70
0
 66
1
 10
0.0
 20
0.0
 30
0.0
  0
VERTEX
  8
0
 10
130.28417
 20
220.607456
 30
0.0
  0
VERTEX
  8
0
 10
128.65753
 20
221.193159
 30
0.0
  0
SEQEND
  8
0
  0
POLYLINE
  8
0
 62
0
 70
0
 66
1
 10
0.0
 20
0.0
 30
0.0
  0
VERTEX
  8
0
 10
128.65753
 20
221.193159
 30
0.0
  0
VERTEX
  8
0
 10
127.07215
 20
221.880149
 30
0.0
  0
SEQEND
  8
0
  0
POLYLINE
  8
0
 62
0
 70
0
 66
1
 10
0.0
 20
0.0
 30
0.0
  0
VERTEX
  8
0
 10
162.00574
 20
232.031466
 30
0.0
  0
VERTEX
  8
0
 10
161.03387
 20
230.60411
 30
0.0
  0
SEQEND
  8
0
  0
POLYLINE
  8
0
 62
0
 70
0
 66
1
 10
0.0
 20
0.0
 30
0.0
  0
VERTEX
  8
0
 10
148.91077
 20
221.19336
 30
0.0
  0
VERTEX
  8
0
 10
147.2852
 20
220.607969
 30
0.0
  0
SEQEND
  8
0
  0
POLYLINE
  8
0
 62
0
 70
0
 66
1
 10
0.0
 20
0.0
 30
0.0
  0
VERTEX
  8
0
 10
138.78388
 20
219.268745
 30
0.0
  0
VERTEX
  8
0
 10
137.05672
 20
219.322105
 30
0.0
  0
SEQEND
  8
0
  0
POLYLINE
  8
0
 62
0
 70
0
 66
1
 10
0.0
 20
0.0
 30
0.0
  0
VERTEX
  8
0
 10
140.51211
 20
219.322165
 30
0.0
  0
VERTEX
  8
0
 10
138.78388
 20
219.268745
 30
0.0
  0
SEQEND
  8
0
  0
POLYLINE
  8
0
 62
0
 70
0
 66
1
 10
0.0
 20
0.0
 30
0.0
  0
VERTEX
  8
0
 10
152.03483
 20
222.665972
 30
0.0
  0
VERTEX
  8
0
 10
150.49623
 20
221.880432
 30
0.0
  0
SEQEND
  8
0
  0
POLYLINE
  8
0
 62
0
 70
0
 66
1
 10
0.0
 20
0.0
 30
0.0
  0
VERTEX
  8
0
 10
159.97351
 20
229.239035
 30
0.0
  0
VERTEX
  8
0
 10
158.83084
 20
227.943912
 30
0.0
  0
SEQEND
  8
0
  0
POLYLINE
  8
0
 62
0
 70
0
 66
1
 10
0.0
 20
0.0
 30
0.0
  0
VERTEX
  8
0
 10
163.67249
 20
235.057005
 30
0.0
  0
VERTEX
  8
0
 10
162.88683
 20
233.518109
 30
0.0
  0
SEQEND
  8
0
  0
POLYLINE
  8
0
 62
0
 70
0
 66
1
 10
0.0
 20
0.0
 30
0.0
  0
VERTEX
  8
0
 10
145.62609
 20
220.126692
 30
0.0
  0
VERTEX
  8
0
 10
143.94009
 20
219.751341
 30
0.0
  0
SEQEND
  8
0
  0
POLYLINE
  8
0
 62
0
 70
0
 66
1
 10
0.0
 20
0.0
 30
0.0
  0
VERTEX
  8
0
 10
158.83084
 20
227.943912
 30
0.0
  0
VERTEX
  8
0
 10
157.60944
 20
226.722463
 30
0.0
  0
SEQEND
  8
0
  0
POLYLINE
  8
0
 62
0
 70
0
 66
1
 10
0.0
 20
0.0
 30
0.0
  0
VERTEX
  8
0
 10
161.03387
 20
230.60411
 30
0.0
  0
VERTEX
  8
0
 10
159.97351
 20
229.239035
 30
0.0
  0
SEQEND
  8
0
  0
POLYLINE
  8
0
 62
0
 70
0
 66
1
 10
0.0
 20
0.0
 30
0.0
  0
VERTEX
  8
0
 10
147.2852
 20
220.607969
 30
0.0
  0
VERTEX
  8
0
 10
145.62609
 20
220.126692
 30
0.0
  0
SEQEND
  8
0
  0
POLYLINE
  8
0
 62
0
 70
0
 66
1
 10
0.0
 20
0.0
 30
0.0
  0
VERTEX
  8
0
 10
143.94009
 20
219.751341
 30
0.0
  0
VERTEX
  8
0
 10
142.23182
 20
219.482805
 30
0.0
  0
SEQEND
  8
0
  0
POLYLINE
  8
0
 62
0
 70
0
 66
1
 10
0.0
 20
0.0
 30
0.0
  0
VERTEX
  8
0
 10
142.23182
 20
219.482805
 30
0.0
  0
VERTEX
  8
0
 10
140.51211
 20
219.322165
 30
0.0
  0
SEQEND
  8
0
  0
POLYLINE
  8
0
 62
0
 70
0
 66
1
 10
0.0
 20
0.0
 30
0.0
  0
VERTEX
  8
0
 10
157.60944
 20
226.722463
 30
0.0
  0
VERTEX
  8
0
 10
156.31468
 20
225.580022
 30
0.0
  0
SEQEND
  8
0
  0
POLYLINE
  8
0
 62
0
 70
0
 66
1
 10
0.0
 20
0.0
 30
0.0
  0
VERTEX
  8
0
 10
27.078514
 20
250.21608
 30
0.0
  0
VERTEX
  8
0
 10
27.20017
 20
251.070872
 30
0.0
  0
SEQEND
  8
0
  0
POLYLINE
  8
0
 62
0
 70
0
 66
1
 10
0.0
 20
0.0
 30
0.0
  0
VERTEX
  8
0
 10
27.075744
 20
243.32081
 30
0.0
  0
VERTEX
  8
0
 10
26.915104
 20
245.040525
 30
0.0
  0
SEQEND
  8
0
  0
POLYLINE
  8
0
 62
0
 70
0
 66
1
 10
0.0
 20
0.0
 30
0.0
  0
VERTEX
  8
0
 10
26.983594
 20
249.356094
 30
0.0
  0
VERTEX
  8
0
 10
27.078514
 20
250.21608
 30
0.0
  0
SEQEND
  8
0
  0
POLYLINE
  8
0
 62
0
 70
0
 66
1
 10
0.0
 20
0.0
 30
0.0
  0
VERTEX
  8
0
 10
26.875214
 20
247.631653
 30
0.0
  0
VERTEX
  8
0
 10
26.915854
 20
248.494669
 30
0.0
  0
SEQEND
  8
0
  0
POLYLINE
  8
0
 62
0
 70
0
 66
1
 10
0.0
 20
0.0
 30
0.0
  0
VERTEX
  8
0
 10
26.915104
 20
245.040525
 30
0.0
  0
VERTEX
  8
0
 10
26.861684
 20
246.768744
 30
0.0
  0
SEQEND
  8
0
  0
POLYLINE
  8
0
 62
0
 70
0
 66
1
 10
0.0
 20
0.0
 30
0.0
  0
VERTEX
  8
0
 10
27.344281
 20
241.612547
 30
0.0
  0
VERTEX
  8
0
 10
27.075744
 20
243.32081
 30
0.0
  0
SEQEND
  8
0
  0
POLYLINE
  8
0
 62
0
 70
0
 66
1
 10
0.0
 20
0.0
 30
0.0
  0
VERTEX
  8
0
 10
26.861684
 20
246.768744
 30
0.0
  0
VERTEX
  8
0
 10
26.875214
 20
247.631653
 30
0.0
  0
SEQEND
  8
0
  0
POLYLINE
  8
0
 62
0
 70
0
 66
1
 10
0.0
 20
0.0
 30
0.0
  0
VERTEX
  8
0
 10
26.915854
 20
248.494669
 30
0.0
  0
VERTEX
  8
0
 10
26.983594
 20
249.356094
 30
0.0
  0
SEQEND
  8
0
  0
POLYLINE
  8
0
 62
0
 70
0
 66
1
 10
0.0
 20
0.0
 30
0.0
  0
VERTEX
  8
0
 10
27.20017
 20
251.070872
 30
0.0
  0
VERTEX
  8
0
 10
27.348881
 20
251.922815
 30
0.0
  0
SEQEND
  8
0
  0
POLYLINE
  8
0
 62
0
 70
0
 66
1
 10
0.0
 20
0.0
 30
0.0
  0
VERTEX
  8
0
 10
27.348881
 20
251.922815
 30
0.0
  0
VERTEX
  8
0
 10
27.524
 20
252.768239
 30
0.0
  0
SEQEND
  8
0
  0
POLYLINE
  8
0
 62
0
 70
0
 66
1
 10
0.0
 20
0.0
 30
0.0
  0
VERTEX
  8
0
 10
27.725649
 20
253.608017
 30
0.0
  0
VERTEX
  8
0
 10
27.953669
 20
254.441383
 30
0.0
  0
SEQEND
  8
0
  0
POLYLINE
  8
0
 62
0
 70
0
 66
1
 10
0.0
 20
0.0
 30
0.0
  0
VERTEX
  8
0
 10
27.524
 20
252.768239
 30
0.0
  0
VERTEX
  8
0
 10
27.725649
 20
253.608017
 30
0.0
  0
SEQEND
  8
0
  0
POLYLINE
  8
0
 62
0
 70
0
 66
1
 10
0.0
 20
0.0
 30
0.0
  0
VERTEX
  8
0
 10
29.478654
 20
258.477083
 30
0.0
  0
VERTEX
  8
0
 10
29.858659
 20
259.25286
 30
0.0
  0
SEQEND
  8
0
  0
POLYLINE
  8
0
 62
0
 70
0
 66
1
 10
0.0
 20
0.0
 30
0.0
  0
VERTEX
  8
0
 10
30.262344
 20
260.015422
 30
0.0
  0
VERTEX
  8
0
 10
30.690432
 20
260.766098
 30
0.0
  0
SEQEND
  8
0
  0
POLYLINE
  8
0
 62
0
 70
0
 66
1
 10
0.0
 20
0.0
 30
0.0
  0
VERTEX
  8
0
 10
31.142089
 20
261.50325
 30
0.0
  0
VERTEX
  8
0
 10
31.615912
 20
262.224678
 30
0.0
  0
SEQEND
  8
0
  0
POLYLINE
  8
0
 62
0
 70
0
 66
1
 10
0.0
 20
0.0
 30
0.0
  0
VERTEX
  8
0
 10
30.690432
 20
260.766098
 30
0.0
  0
VERTEX
  8
0
 10
31.142089
 20
261.50325
 30
0.0
  0
SEQEND
  8
0
  0
POLYLINE
  8
0
 62
0
 70
0
 66
1
 10
0.0
 20
0.0
 30
0.0
  0
VERTEX
  8
0
 10
28.207536
 20
255.266501
 30
0.0
  0
VERTEX
  8
0
 10
28.487343
 20
256.083723
 30
0.0
  0
SEQEND
  8
0
  0
POLYLINE
  8
0
 62
0
 70
0
 66
1
 10
0.0
 20
0.0
 30
0.0
  0
VERTEX
  8
0
 10
27.953669
 20
254.441383
 30
0.0
  0
VERTEX
  8
0
 10
28.207536
 20
255.266501
 30
0.0
  0
SEQEND
  8
0
  0
POLYLINE
  8
0
 62
0
 70
0
 66
1
 10
0.0
 20
0.0
 30
0.0
  0
VERTEX
  8
0
 10
32.112943
 20
262.931965
 30
0.0
  0
VERTEX
  8
0
 10
32.632366
 20
263.623782
 30
0.0
  0
SEQEND
  8
0
  0
POLYLINE
  8
0
 62
0
 70
0
 66
1
 10
0.0
 20
0.0
 30
0.0
  0
VERTEX
  8
0
 10
28.487343
 20
256.083723
 30
0.0
  0
VERTEX
  8
0
 10
28.792657
 20
256.891722
 30
0.0
  0
SEQEND
  8
0
  0
POLYLINE
  8
0
 62
0
 70
0
 66
1
 10
0.0
 20
0.0
 30
0.0
  0
VERTEX
  8
0
 10
29.123315
 20
257.690032
 30
0.0
  0
VERTEX
  8
0
 10
29.478654
 20
258.477083
 30
0.0
  0
SEQEND
  8
0
  0
POLYLINE
  8
0
 62
0
 70
0
 66
1
 10
0.0
 20
0.0
 30
0.0
  0
VERTEX
  8
0
 10
31.615912
 20
262.224678
 30
0.0
  0
VERTEX
  8
0
 10
32.112943
 20
262.931965
 30
0.0
  0
SEQEND
  8
0
  0
POLYLINE
  8
0
 62
0
 70
0
 66
1
 10
0.0
 20
0.0
 30
0.0
  0
VERTEX
  8
0
 10
29.858659
 20
259.25286
 30
0.0
  0
VERTEX
  8
0
 10
30.262344
 20
260.015422
 30
0.0
  0
SEQEND
  8
0
  0
POLYLINE
  8
0
 62
0
 70
0
 66
1
 10
0.0
 20
0.0
 30
0.0
  0
VERTEX
  8
0
 10
28.792657
 20
256.891722
 30
0.0
  0
VERTEX
  8
0
 10
29.123315
 20
257.690032
 30
0.0
  0
SEQEND
  8
0
  0
POLYLINE
  8
0
 62
0
 70
0
 66
1
 10
0.0
 20
0.0
 30
0.0
  0
VERTEX
  8
0
 10
52.634331
 20
274.214489
 30
0.0
  0
VERTEX
  8
0
 10
53.498003
 20
274.255199
 30
0.0
  0
SEQEND
  8
0
  0
POLYLINE
  8
0
 62
0
 70
0
 66
1
 10
0.0
 20
0.0
 30
0.0
  0
VERTEX
  8
0
 10
59.51576
 20
273.781552
 30
0.0
  0
VERTEX
  8
0
 10
60.361186
 20
273.606433
 30
0.0
  0
SEQEND
  8
0
  0
POLYLINE
  8
0
 62
0
 70
0
 66
1
 10
0.0
 20
0.0
 30
0.0
  0
VERTEX
  8
0
 10
50.915048
 20
274.052009
 30
0.0
  0
VERTEX
  8
0
 10
51.773798
 20
274.146789
 30
0.0
  0
SEQEND
  8
0
  0
POLYLINE
  8
0
 62
0
 70
0
 66
1
 10
0.0
 20
0.0
 30
0.0
  0
VERTEX
  8
0
 10
55.2246
 20
274.255219
 30
0.0
  0
VERTEX
  8
0
 10
56.087615
 20
274.214579
 30
0.0
  0
SEQEND
  8
0
  0
POLYLINE
  8
0
 62
0
 70
0
 66
1
 10
0.0
 20
0.0
 30
0.0
  0
VERTEX
  8
0
 10
58.663818
 20
273.930264
 30
0.0
  0
VERTEX
  8
0
 10
59.51576
 20
273.781552
 30
0.0
  0
SEQEND
  8
0
  0
POLYLINE
  8
0
 62
0
 70
0
 66
1
 10
0.0
 20
0.0
 30
0.0
  0
VERTEX
  8
0
 10
53.498003
 20
274.255199
 30
0.0
  0
VERTEX
  8
0
 10
54.36169
 20
274.268749
 30
0.0
  0
SEQEND
  8
0
  0
POLYLINE
  8
0
 62
0
 70
0
 66
1
 10
0.0
 20
0.0
 30
0.0
  0
VERTEX
  8
0
 10
56.94904
 20
274.146839
 30
0.0
  0
VERTEX
  8
0
 10
57.809026
 20
274.051919
 30
0.0
  0
SEQEND
  8
0
  0
POLYLINE
  8
0
 62
0
 70
0
 66
1
 10
0.0
 20
0.0
 30
0.0
  0
VERTEX
  8
0
 10
56.087615
 20
274.214579
 30
0.0
  0
VERTEX
  8
0
 10
56.94904
 20
274.146839
 30
0.0
  0
SEQEND
  8
0
  0
POLYLINE
  8
0
 62
0
 70
0
 66
1
 10
0.0
 20
0.0
 30
0.0
  0
VERTEX
  8
0
 10
50.058573
 20
273.930108
 30
0.0
  0
VERTEX
  8
0
 10
50.915048
 20
274.052009
 30
0.0
  0
SEQEND
  8
0
  0
POLYLINE
  8
0
 62
0
 70
0
 66
1
 10
0.0
 20
0.0
 30
0.0
  0
VERTEX
  8
0
 10
54.36169
 20
274.268749
 30
0.0
  0
VERTEX
  8
0
 10
55.2246
 20
274.255219
 30
0.0
  0
SEQEND
  8
0
  0
POLYLINE
  8
0
 62
0
 70
0
 66
1
 10
0.0
 20
0.0
 30
0.0
  0
VERTEX
  8
0
 10
57.809026
 20
274.051919
 30
0.0
  0
VERTEX
  8
0
 10
58.663818
 20
273.930264
 30
0.0
  0
SEQEND
  8
0
  0
POLYLINE
  8
0
 62
0
 70
0
 66
1
 10
0.0
 20
0.0
 30
0.0
  0
VERTEX
  8
0
 10
51.773798
 20
274.146789
 30
0.0
  0
VERTEX
  8
0
 10
52.634331
 20
274.214489
 30
0.0
  0
SEQEND
  8
0
  0
POLYLINE
  8
0
 62
0
 70
0
 66
1
 10
0.0
 20
0.0
 30
0.0
  0
VERTEX
  8
0
 10
54.411721
 20
215.768356
 30
0.0
  0
VERTEX
  8
0
 10
52.461586
 20
215.828656
 30
0.0
  0
SEQEND
  8
0
  0
POLYLINE
  8
0
 62
0
 70
0
 66
1
 10
0.0
 20
0.0
 30
0.0
  0
VERTEX
  8
0
 10
64.087502
 20
217.409763
 30
0.0
  0
VERTEX
  8
0
 10
63.236544
 20
217.130286
 30
0.0
  0
SEQEND
  8
0
  0
POLYLINE
  8
0
 62
0
 70
0
 66
1
 10
0.0
 20
0.0
 30
0.0
  0
VERTEX
  8
0
 10
69.01512
 20
219.552967
 30
0.0
  0
VERTEX
  8
0
 10
68.216928
 20
219.145048
 30
0.0
  0
SEQEND
  8
0
  0
POLYLINE
  8
0
 62
0
 70
0
 66
1
 10
0.0
 20
0.0
 30
0.0
  0
VERTEX
  8
0
 10
58.876819
 20
216.111968
 30
0.0
  0
VERTEX
  8
0
 10
57.988681
 20
215.988156
 30
0.0
  0
SEQEND
  8
0
  0
POLYLINE
  8
0
 62
0
 70
0
 66
1
 10
0.0
 20
0.0
 30
0.0
  0
VERTEX
  8
0
 10
57.988681
 20
215.988156
 30
0.0
  0
VERTEX
  8
0
 10
57.097919
 20
215.891856
 30
0.0
  0
SEQEND
  8
0
  0
POLYLINE
  8
0
 62
0
 70
0
 66
1
 10
0.0
 20
0.0
 30
0.0
  0
VERTEX
  8
0
 10
65.766773
 20
218.0395
 30
0.0
  0
VERTEX
  8
0
 10
64.9317
 20
217.713343
 30
0.0
  0
SEQEND
  8
0
  0
POLYLINE
  8
0
 62
0
 70
0
 66
1
 10
0.0
 20
0.0
 30
0.0
  0
VERTEX
  8
0
 10
66.592598
 20
218.387369
 30
0.0
  0
VERTEX
  8
0
 10
65.766773
 20
218.0395
 30
0.0
  0
SEQEND
  8
0
  0
POLYLINE
  8
0
 62
0
 70
0
 66
1
 10
0.0
 20
0.0
 30
0.0
  0
VERTEX
  8
0
 10
55.307463
 20
215.781956
 30
0.0
  0
VERTEX
  8
0
 10
54.411721
 20
215.768356
 30
0.0
  0
SEQEND
  8
0
  0
POLYLINE
  8
0
 62
0
 70
0
 66
1
 10
0.0
 20
0.0
 30
0.0
  0
VERTEX
  8
0
 10
52.461586
 20
215.828656
 30
0.0
  0
VERTEX
  8
0
 10
50.519989
 20
216.009957
 30
0.0
  0
SEQEND
  8
0
  0
POLYLINE
  8
0
 62
0
 70
0
 66
1
 10
0.0
 20
0.0
 30
0.0
  0
VERTEX
  8
0
 10
50.519989
 20
216.009957
 30
0.0
  0
VERTEX
  8
0
 10
48.592355
 20
216.31287
 30
0.0
  0
SEQEND
  8
0
  0
POLYLINE
  8
0
 62
0
 70
0
 66
1
 10
0.0
 20
0.0
 30
0.0
  0
VERTEX
  8
0
 10
48.592355
 20
216.31287
 30
0.0
  0
VERTEX
  8
0
 10
46.687789
 20
216.736844
 30
0.0
  0
SEQEND
  8
0
  0
POLYLINE
  8
0
 62
0
 70
0
 66
1
 10
0.0
 20
0.0
 30
0.0
  0
VERTEX
  8
0
 10
46.687789
 20
216.736844
 30
0.0
  0
VERTEX
  8
0
 10
44.81476
 20
217.280073
 30
0.0
  0
SEQEND
  8
0
  0
POLYLINE
  8
0
 62
0
 70
0
 66
1
 10
0.0
 20
0.0
 30
0.0
  0
VERTEX
  8
0
 10
44.81476
 20
217.280073
 30
0.0
  0
VERTEX
  8
0
 10
42.979252
 20
217.940958
 30
0.0
  0
SEQEND
  8
0
  0
POLYLINE
  8
0
 62
0
 70
0
 66
1
 10
0.0
 20
0.0
 30
0.0
  0
VERTEX
  8
0
 10
56.203334
 20
215.823056
 30
0.0
  0
VERTEX
  8
0
 10
55.307463
 20
215.781956
 30
0.0
  0
SEQEND
  8
0
  0
POLYLINE
  8
0
 62
0
 70
0
 66
1
 10
0.0
 20
0.0
 30
0.0
  0
VERTEX
  8
0
 10
42.979252
 20
217.940958
 30
0.0
  0
VERTEX
  8
0
 10
41.188913
 20
218.716705
 30
0.0
  0
SEQEND
  8
0
  0
POLYLINE
  8
0
 62
0
 70
0
 66
1
 10
0.0
 20
0.0
 30
0.0
  0
VERTEX
  8
0
 10
68.216928
 20
219.145048
 30
0.0
  0
VERTEX
  8
0
 10
67.409449
 20
218.756232
 30
0.0
  0
SEQEND
  8
0
  0
POLYLINE
  8
0
 62
0
 70
0
 66
1
 10
0.0
 20
0.0
 30
0.0
  0
VERTEX
  8
0
 10
63.236544
 20
217.130286
 30
0.0
  0
VERTEX
  8
0
 10
62.378098
 20
216.875246
 30
0.0
  0
SEQEND
  8
0
  0
POLYLINE
  8
0
 62
0
 70
0
 66
1
 10
0.0
 20
0.0
 30
0.0
  0
VERTEX
  8
0
 10
64.9317
 20
217.713343
 30
0.0
  0
VERTEX
  8
0
 10
64.087502
 20
217.409763
 30
0.0
  0
SEQEND
  8
0
  0
POLYLINE
  8
0
 62
0
 70
0
 66
1
 10
0.0
 20
0.0
 30
0.0
  0
VERTEX
  8
0
 10
69.803052
 20
219.978533
 30
0.0
  0
VERTEX
  8
0
 10
69.01512
 20
219.552967
 30
0.0
  0
SEQEND
  8
0
  0
POLYLINE
  8
0
 62
0
 70
0
 66
1
 10
0.0
 20
0.0
 30
0.0
  0
VERTEX
  8
0
 10
60.639494
 20
216.440967
 30
0.0
  0
VERTEX
  8
0
 10
59.759956
 20
216.262897
 30
0.0
  0
SEQEND
  8
0
  0
POLYLINE
  8
0
 62
0
 70
0
 66
1
 10
0.0
 20
0.0
 30
0.0
  0
VERTEX
  8
0
 10
62.378098
 20
216.875246
 30
0.0
  0
VERTEX
  8
0
 10
61.511582
 20
216.645085
 30
0.0
  0
SEQEND
  8
0
  0
POLYLINE
  8
0
 62
0
 70
0
 66
1
 10
0.0
 20
0.0
 30
0.0
  0
VERTEX
  8
0
 10
59.759956
 20
216.262897
 30
0.0
  0
VERTEX
  8
0
 10
58.876819
 20
216.111968
 30
0.0
  0
SEQEND
  8
0
  0
POLYLINE
  8
0
 62
0
 70
0
 66
1
 10
0.0
 20
0.0
 30
0.0
  0
VERTEX
  8
0
 10
67.409449
 20
218.756232
 30
0.0
  0
VERTEX
  8
0
 10
66.592598
 20
218.387369
 30
0.0
  0
SEQEND
  8
0
  0
POLYLINE
  8
0
 62
0
 70
0
 66
1
 10
0.0
 20
0.0
 30
0.0
  0
VERTEX
  8
0
 10
61.511582
 20
216.645085
 30
0.0
  0
VERTEX
  8
0
 10
60.639494
 20
216.440967
 30
0.0
  0
SEQEND
  8
0
  0
POLYLINE
  8
0
 62
0
 70
0
 66
1
 10
0.0
 20
0.0
 30
0.0
  0
VERTEX
  8
0
 10
57.097919
 20
215.891856
 30
0.0
  0
VERTEX
  8
0
 10
56.203334
 20
215.823056
 30
0.0
  0
SEQEND
  8
0
  0
POLYLINE
  8
0
 62
0
 70
0
 66
1
 10
0.0
 20
0.0
 30
0.0
  0
VERTEX
  8
0
 10
23.361939
 20
246.818771
 30
0.0
  0
VERTEX
  8
0
 10
23.422199
 20
248.768886
 30
0.0
  0
SEQEND
  8
0
  0
POLYLINE
  8
0
 62
0
 70
0
 66
1
 10
0.0
 20
0.0
 30
0.0
  0
VERTEX
  8
0
 10
29.289366
 20
228.567572
 30
0.0
  0
VERTEX
  8
0
 10
28.191828
 20
230.179565
 30
0.0
  0
SEQEND
  8
0
  0
POLYLINE
  8
0
 62
0
 70
0
 66
1
 10
0.0
 20
0.0
 30
0.0
  0
VERTEX
  8
0
 10
41.188913
 20
218.716705
 30
0.0
  0
VERTEX
  8
0
 10
39.451073
 20
219.603896
 30
0.0
  0
SEQEND
  8
0
  0
POLYLINE
  8
0
 62
0
 70
0
 66
1
 10
0.0
 20
0.0
 30
0.0
  0
VERTEX
  8
0
 10
31.776965
 20
225.563668
 30
0.0
  0
VERTEX
  8
0
 10
30.485664
 20
227.027361
 30
0.0
  0
SEQEND
  8
0
  0
POLYLINE
  8
0
 62
0
 70
0
 66
1
 10
0.0
 20
0.0
 30
0.0
  0
VERTEX
  8
0
 10
24.330285
 20
254.542618
 30
0.0
  0
VERTEX
  8
0
 10
24.873503
 20
256.415629
 30
0.0
  0
SEQEND
  8
0
  0
POLYLINE
  8
0
 62
0
 70
0
 66
1
 10
0.0
 20
0.0
 30
0.0
  0
VERTEX
  8
0
 10
39.451073
 20
219.603896
 30
0.0
  0
VERTEX
  8
0
 10
37.772252
 20
220.598864
 30
0.0
  0
SEQEND
  8
0
  0
POLYLINE
  8
0
 62
0
 70
0
 66
1
 10
0.0
 20
0.0
 30
0.0
  0
VERTEX
  8
0
 10
24.873503
 20
256.415629
 30
0.0
  0
VERTEX
  8
0
 10
25.534374
 20
258.251119
 30
0.0
  0
SEQEND
  8
0
  0
POLYLINE
  8
0
 62
0
 70
0
 66
1
 10
0.0
 20
0.0
 30
0.0
  0
VERTEX
  8
0
 10
27.196907
 20
231.85842
 30
0.0
  0
VERTEX
  8
0
 10
26.31013
 20
233.595521
 30
0.0
  0
SEQEND
  8
0
  0
POLYLINE
  8
0
 62
0
 70
0
 66
1
 10
0.0
 20
0.0
 30
0.0
  0
VERTEX
  8
0
 10
25.534511
 20
235.385544
 30
0.0
  0
VERTEX
  8
0
 10
24.873685
 20
237.220821
 30
0.0
  0
SEQEND
  8
0
  0
POLYLINE
  8
0
 62
0
 70
0
 66
1
 10
0.0
 20
0.0
 30
0.0
  0
VERTEX
  8
0
 10
23.603496
 20
250.710459
 30
0.0
  0
VERTEX
  8
0
 10
23.906404
 20
252.638072
 30
0.0
  0
SEQEND
  8
0
  0
POLYLINE
  8
0
 62
0
 70
0
 66
1
 10
0.0
 20
0.0
 30
0.0
  0
VERTEX
  8
0
 10
25.534374
 20
258.251119
 30
0.0
  0
VERTEX
  8
0
 10
26.310107
 20
260.041443
 30
0.0
  0
SEQEND
  8
0
  0
POLYLINE
  8
0
 62
0
 70
0
 66
1
 10
0.0
 20
0.0
 30
0.0
  0
VERTEX
  8
0
 10
26.31013
 20
233.595521
 30
0.0
  0
VERTEX
  8
0
 10
25.534511
 20
235.385544
 30
0.0
  0
SEQEND
  8
0
  0
POLYLINE
  8
0
 62
0
 70
0
 66
1
 10
0.0
 20
0.0
 30
0.0
  0
VERTEX
  8
0
 10
24.330392
 20
239.093967
 30
0.0
  0
VERTEX
  8
0
 10
23.906331
 20
240.999314
 30
0.0
  0
SEQEND
  8
0
  0
POLYLINE
  8
0
 62
0
 70
0
 66
1
 10
0.0
 20
0.0
 30
0.0
  0
VERTEX
  8
0
 10
37.772252
 20
220.598864
 30
0.0
  0
VERTEX
  8
0
 10
36.160395
 20
221.696374
 30
0.0
  0
SEQEND
  8
0
  0
POLYLINE
  8
0
 62
0
 70
0
 66
1
 10
0.0
 20
0.0
 30
0.0
  0
VERTEX
  8
0
 10
23.906331
 20
240.999314
 30
0.0
  0
VERTEX
  8
0
 10
23.603395
 20
242.927338
 30
0.0
  0
SEQEND
  8
0
  0
POLYLINE
  8
0
 62
0
 70
0
 66
1
 10
0.0
 20
0.0
 30
0.0
  0
VERTEX
  8
0
 10
36.160395
 20
221.696374
 30
0.0
  0
VERTEX
  8
0
 10
34.618838
 20
222.893845
 30
0.0
  0
SEQEND
  8
0
  0
POLYLINE
  8
0
 62
0
 70
0
 66
1
 10
0.0
 20
0.0
 30
0.0
  0
VERTEX
  8
0
 10
34.618838
 20
222.893845
 30
0.0
  0
VERTEX
  8
0
 10
33.156293
 20
224.184289
 30
0.0
  0
SEQEND
  8
0
  0
POLYLINE
  8
0
 62
0
 70
0
 66
1
 10
0.0
 20
0.0
 30
0.0
  0
VERTEX
  8
0
 10
23.603395
 20
242.927338
 30
0.0
  0
VERTEX
  8
0
 10
23.422069
 20
244.870163
 30
0.0
  0
SEQEND
  8
0
  0
POLYLINE
  8
0
 62
0
 70
0
 66
1
 10
0.0
 20
0.0
 30
0.0
  0
VERTEX
  8
0
 10
28.191828
 20
230.179565
 30
0.0
  0
VERTEX
  8
0
 10
27.196907
 20
231.85842
 30
0.0
  0
SEQEND
  8
0
  0
POLYLINE
  8
0
 62
0
 70
0
 66
1
 10
0.0
 20
0.0
 30
0.0
  0
VERTEX
  8
0
 10
30.485664
 20
227.027361
 30
0.0
  0
VERTEX
  8
0
 10
29.289366
 20
228.567572
 30
0.0
  0
SEQEND
  8
0
  0
POLYLINE
  8
0
 62
0
 70
0
 66
1
 10
0.0
 20
0.0
 30
0.0
  0
VERTEX
  8
0
 10
23.422199
 20
248.768886
 30
0.0
  0
VERTEX
  8
0
 10
23.603496
 20
250.710459
 30
0.0
  0
SEQEND
  8
0
  0
POLYLINE
  8
0
 62
0
 70
0
 66
1
 10
0.0
 20
0.0
 30
0.0
  0
VERTEX
  8
0
 10
23.906404
 20
252.638072
 30
0.0
  0
VERTEX
  8
0
 10
24.330285
 20
254.542618
 30
0.0
  0
SEQEND
  8
0
  0
POLYLINE
  8
0
 62
0
 70
0
 66
1
 10
0.0
 20
0.0
 30
0.0
  0
VERTEX
  8
0
 10
24.873685
 20
237.220821
 30
0.0
  0
VERTEX
  8
0
 10
24.330392
 20
239.093967
 30
0.0
  0
SEQEND
  8
0
  0
POLYLINE
  8
0
 62
0
 70
0
 66
1
 10
0.0
 20
0.0
 30
0.0
  0
VERTEX
  8
0
 10
33.156293
 20
224.184289
 30
0.0
  0
VERTEX
  8
0
 10
31.776965
 20
225.563668
 30
0.0
  0
SEQEND
  8
0
  0
POLYLINE
  8
0
 62
0
 70
0
 66
1
 10
0.0
 20
0.0
 30
0.0
  0
VERTEX
  8
0
 10
23.422069
 20
244.870163
 30
0.0
  0
VERTEX
  8
0
 10
23.361939
 20
246.818771
 30
0.0
  0
SEQEND
  8
0
  0
POLYLINE
  8
0
 62
0
 70
0
 66
1
 10
0.0
 20
0.0
 30
0.0
  0
VERTEX
  8
0
 10
165.80135
 20
251.92494
 30
0.0
  0
VERTEX
  8
0
 10
166.06988
 20
250.216678
 30
0.0
  0
SEQEND
  8
0
  0
POLYLINE
  8
0
 62
0
 70
0
 66
1
 10
0.0
 20
0.0
 30
0.0
  0
VERTEX
  8
0
 10
166.06988
 20
250.216678
 30
0.0
  0
VERTEX
  8
0
 10
166.23053
 20
248.496963
 30
0.0
  0
SEQEND
  8
0
  0
POLYLINE
  8
0
 62
0
 70
0
 66
1
 10
0.0
 20
0.0
 30
0.0
  0
VERTEX
  8
0
 10
138.78394
 20
277.768745
 30
0.0
  0
VERTEX
  8
0
 10
140.73093
 20
277.708595
 30
0.0
  0
SEQEND
  8
0
  0
POLYLINE
  8
0
 62
0
 70
0
 66
1
 10
0.0
 20
0.0
 30
0.0
  0
VERTEX
  8
0
 10
157.60878
 20
266.8157
 30
0.0
  0
VERTEX
  8
0
 10
158.83023
 20
265.594294
 30
0.0
  0
SEQEND
  8
0
  0
POLYLINE
  8
0
 62
0
 70
0
 66
1
 10
0.0
 20
0.0
 30
0.0
  0
VERTEX
  8
0
 10
144.59393
 20
277.225187
 30
0.0
  0
VERTEX
  8
0
 10
146.49543
 20
276.801994
 30
0.0
  0
SEQEND
  8
0
  0
POLYLINE
  8
0
 62
0
 70
0
 66
1
 10
0.0
 20
0.0
 30
0.0
  0
VERTEX
  8
0
 10
146.49543
 20
276.801994
 30
0.0
  0
VERTEX
  8
0
 10
148.36544
 20
276.259653
 30
0.0
  0
SEQEND
  8
0
  0
POLYLINE
  8
0
 62
0
 70
0
 66
1
 10
0.0
 20
0.0
 30
0.0
  0
VERTEX
  8
0
 10
148.36544
 20
276.259653
 30
0.0
  0
VERTEX
  8
0
 10
150.198
 20
275.599848
 30
0.0
  0
SEQEND
  8
0
  0
POLYLINE
  8
0
 62
0
 70
0
 66
1
 10
0.0
 20
0.0
 30
0.0
  0
VERTEX
  8
0
 10
159.97267
 20
264.299537
 30
0.0
  0
VERTEX
  8
0
 10
161.03315
 20
262.934432
 30
0.0
  0
SEQEND
  8
0
  0
POLYLINE
  8
0
 62
0
 70
0
 66
1
 10
0.0
 20
0.0
 30
0.0
  0
VERTEX
  8
0
 10
166.23053
 20
248.496963
 30
0.0
  0
VERTEX
  8
0
 10
166.28393
 20
246.768744
 30
0.0
  0
SEQEND
  8
0
  0
POLYLINE
  8
0
 62
0
 70
0
 66
1
 10
0.0
 20
0.0
 30
0.0
  0
VERTEX
  8
0
 10
140.73093
 20
277.708595
 30
0.0
  0
VERTEX
  8
0
 10
142.6694
 20
277.5276
 30
0.0
  0
SEQEND
  8
0
  0
POLYLINE
  8
0
 62
0
 70
0
 66
1
 10
0.0
 20
0.0
 30
0.0
  0
VERTEX
  8
0
 10
163.67226
 20
258.481096
 30
0.0
  0
VERTEX
  8
0
 10
164.35933
 20
256.895622
 30
0.0
  0
SEQEND
  8
0
  0
POLYLINE
  8
0
 62
0
 70
0
 66
1
 10
0.0
 20
0.0
 30
0.0
  0
VERTEX
  8
0
 10
142.6694
 20
277.5276
 30
0.0
  0
VERTEX
  8
0
 10
144.59393
 20
277.225187
 30
0.0
  0
SEQEND
  8
0
  0
POLYLINE
  8
0
 62
0
 70
0
 66
1
 10
0.0
 20
0.0
 30
0.0
  0
VERTEX
  8
0
 10
161.03315
 20
262.934432
 30
0.0
  0
VERTEX
  8
0
 10
162.00538
 20
261.506677
 30
0.0
  0
SEQEND
  8
0
  0
POLYLINE
  8
0
 62
0
 70
0
 66
1
 10
0.0
 20
0.0
 30
0.0
  0
VERTEX
  8
0
 10
150.198
 20
275.599848
 30
0.0
  0
VERTEX
  8
0
 10
151.98546
 20
274.825364
 30
0.0
  0
SEQEND
  8
0
  0
POLYLINE
  8
0
 62
0
 70
0
 66
1
 10
0.0
 20
0.0
 30
0.0
  0
VERTEX
  8
0
 10
150.49569
 20
271.657345
 30
0.0
  0
VERTEX
  8
0
 10
152.03459
 20
270.871686
 30
0.0
  0
SEQEND
  8
0
  0
POLYLINE
  8
0
 62
0
 70
0
 66
1
 10
0.0
 20
0.0
 30
0.0
  0
VERTEX
  8
0
 10
153.52123
 20
269.990601
 30
0.0
  0
VERTEX
  8
0
 10
154.94858
 20
269.018723
 30
0.0
  0
SEQEND
  8
0
  0
POLYLINE
  8
0
 62
0
 70
0
 66
1
 10
0.0
 20
0.0
 30
0.0
  0
VERTEX
  8
0
 10
154.94858
 20
269.018723
 30
0.0
  0
VERTEX
  8
0
 10
156.31365
 20
267.958366
 30
0.0
  0
SEQEND
  8
0
  0
POLYLINE
  8
0
 62
0
 70
0
 66
1
 10
0.0
 20
0.0
 30
0.0
  0
VERTEX
  8
0
 10
158.83023
 20
265.594294
 30
0.0
  0
VERTEX
  8
0
 10
159.97267
 20
264.299537
 30
0.0
  0
SEQEND
  8
0
  0
POLYLINE
  8
0
 62
0
 70
0
 66
1
 10
0.0
 20
0.0
 30
0.0
  0
VERTEX
  8
0
 10
162.00538
 20
261.506677
 30
0.0
  0
VERTEX
  8
0
 10
162.88672
 20
260.019686
 30
0.0
  0
SEQEND
  8
0
  0
POLYLINE
  8
0
 62
0
 70
0
 66
1
 10
0.0
 20
0.0
 30
0.0
  0
VERTEX
  8
0
 10
164.35933
 20
256.895622
 30
0.0
  0
VERTEX
  8
0
 10
164.94472
 20
255.270058
 30
0.0
  0
SEQEND
  8
0
  0
POLYLINE
  8
0
 62
0
 70
0
 66
1
 10
0.0
 20
0.0
 30
0.0
  0
VERTEX
  8
0
 10
156.31365
 20
267.958366
 30
0.0
  0
VERTEX
  8
0
 10
157.60878
 20
266.8157
 30
0.0
  0
SEQEND
  8
0
  0
POLYLINE
  8
0
 62
0
 70
0
 66
1
 10
0.0
 20
0.0
 30
0.0
  0
VERTEX
  8
0
 10
164.94472
 20
255.270058
 30
0.0
  0
VERTEX
  8
0
 10
165.42599
 20
253.610943
 30
0.0
  0
SEQEND
  8
0
  0
POLYLINE
  8
0
 62
0
 70
0
 66
1
 10
0.0
 20
0.0
 30
0.0
  0
VERTEX
  8
0
 10
152.03459
 20
270.871686
 30
0.0
  0
VERTEX
  8
0
 10
153.52123
 20
269.990601
 30
0.0
  0
SEQEND
  8
0
  0
POLYLINE
  8
0
 62
0
 70
0
 66
1
 10
0.0
 20
0.0
 30
0.0
  0
VERTEX
  8
0
 10
165.42599
 20
253.610943
 30
0.0
  0
VERTEX
  8
0
 10
165.80135
 20
251.92494
 30
0.0
  0
SEQEND
  8
0
  0
POLYLINE
  8
0
 62
0
 70
0
 66
1
 10
0.0
 20
0.0
 30
0.0
  0
VERTEX
  8
0
 10
162.88672
 20
260.019686
 30
0.0
  0
VERTEX
  8
0
 10
163.67226
 20
258.481096
 30
0.0
  0
SEQEND
  8
0
  0
POLYLINE
  8
0
 62
0
 70
0
 66
1
 10
0.0
 20
0.0
 30
0.0
  0
VERTEX
  8
0
 10
109.5567
 20
227.420309
 30
0.0
  0
VERTEX
  8
0
 10
108.511
 20
227.772286
 30
0.0
  0
SEQEND
  8
0
  0
POLYLINE
  8
0
 62
0
 70
0
 66
1
 10
0.0
 20
0.0
 30
0.0
  0
VERTEX
  8
0
 10
111.61972
 20
226.634978
 30
0.0
  0
VERTEX
  8
0
 10
110.59299
 20
227.040997
 30
0.0
  0
SEQEND
  8
0
  0
POLYLINE
  8
0
 62
0
 70
0
 66
1
 10
0.0
 20
0.0
 30
0.0
  0
VERTEX
  8
0
 10
115.61599
 20
224.763373
 30
0.0
  0
VERTEX
  8
0
 10
114.63416
 20
225.266669
 30
0.0
  0
SEQEND
  8
0
  0
POLYLINE
  8
0
 62
0
 70
0
 66
1
 10
0.0
 20
0.0
 30
0.0
  0
VERTEX
  8
0
 10
97.676578
 20
229.65817
 30
0.0
  0
VERTEX
  8
0
 10
96.572969
 20
229.6755
 30
0.0
  0
SEQEND
  8
0
  0
POLYLINE
  8
0
 62
0
 70
0
 66
1
 10
0.0
 20
0.0
 30
0.0
  0
VERTEX
  8
0
 10
100.97773
 20
229.416735
 30
0.0
  0
VERTEX
  8
0
 10
99.87925
 20
229.52885
 30
0.0
  0
SEQEND
  8
0
  0
POLYLINE
  8
0
 62
0
 70
0
 66
1
 10
0.0
 20
0.0
 30
0.0
  0
VERTEX
  8
0
 10
104.24523
 20
228.893117
 30
0.0
  0
VERTEX
  8
0
 10
103.16006
 20
229.09882
 30
0.0
  0
SEQEND
  8
0
  0
POLYLINE
  8
0
 62
0
 70
0
 66
1
 10
0.0
 20
0.0
 30
0.0
  0
VERTEX
  8
0
 10
108.511
 20
227.772286
 30
0.0
  0
VERTEX
  8
0
 10
107.45741
 20
228.095912
 30
0.0
  0
SEQEND
  8
0
  0
POLYLINE
  8
0
 62
0
 70
0
 66
1
 10
0.0
 20
0.0
 30
0.0
  0
VERTEX
  8
0
 10
96.572969
 20
229.6755
 30
0.0
  0
VERTEX
  8
0
 10
95.662618
 20
229.66513
 30
0.0
  0
SEQEND
  8
0
  0
POLYLINE
  8
0
 62
0
 70
0
 66
1
 10
0.0
 20
0.0
 30
0.0
  0
VERTEX
  8
0
 10
106.39484
 20
228.391033
 30
0.0
  0
VERTEX
  8
0
 10
105.32362
 20
228.65704
 30
0.0
  0
SEQEND
  8
0
  0
POLYLINE
  8
0
 62
0
 70
0
 66
1
 10
0.0
 20
0.0
 30
0.0
  0
VERTEX
  8
0
 10
95.662618
 20
229.66513
 30
0.0
  0
VERTEX
  8
0
 10
94.75439
 20
229.63636
 30
0.0
  0
SEQEND
  8
0
  0
POLYLINE
  8
0
 62
0
 70
0
 66
1
 10
0.0
 20
0.0
 30
0.0
  0
VERTEX
  8
0
 10
94.75439
 20
229.63636
 30
0.0
  0
VERTEX
  8
0
 10
93.845404
 20
229.58871
 30
0.0
  0
SEQEND
  8
0
  0
POLYLINE
  8
0
 62
0
 70
0
 66
1
 10
0.0
 20
0.0
 30
0.0
  0
VERTEX
  8
0
 10
114.63416
 20
225.266669
 30
0.0
  0
VERTEX
  8
0
 10
113.64072
 20
225.746917
 30
0.0
  0
SEQEND
  8
0
  0
POLYLINE
  8
0
 62
0
 70
0
 66
1
 10
0.0
 20
0.0
 30
0.0
  0
VERTEX
  8
0
 10
92.938214
 20
229.52192
 30
0.0
  0
VERTEX
  8
0
 10
92.032981
 20
229.43567
 30
0.0
  0
SEQEND
  8
0
  0
POLYLINE
  8
0
 62
0
 70
0
 66
1
 10
0.0
 20
0.0
 30
0.0
  0
VERTEX
  8
0
 10
102.07136
 20
229.273329
 30
0.0
  0
VERTEX
  8
0
 10
100.97773
 20
229.416735
 30
0.0
  0
SEQEND
  8
0
  0
POLYLINE
  8
0
 62
0
 70
0
 66
1
 10
0.0
 20
0.0
 30
0.0
  0
VERTEX
  8
0
 10
91.129525
 20
229.329594
 30
0.0
  0
VERTEX
  8
0
 10
90.228251
 20
229.203374
 30
0.0
  0
SEQEND
  8
0
  0
POLYLINE
  8
0
 62
0
 70
0
 66
1
 10
0.0
 20
0.0
 30
0.0
  0
VERTEX
  8
0
 10
99.87925
 20
229.52885
 30
0.0
  0
VERTEX
  8
0
 10
98.77924
 20
229.60928
 30
0.0
  0
SEQEND
  8
0
  0
POLYLINE
  8
0
 62
0
 70
0
 66
1
 10
0.0
 20
0.0
 30
0.0
  0
VERTEX
  8
0
 10
92.032981
 20
229.43567
 30
0.0
  0
VERTEX
  8
0
 10
91.129525
 20
229.329594
 30
0.0
  0
SEQEND
  8
0
  0
POLYLINE
  8
0
 62
0
 70
0
 66
1
 10
0.0
 20
0.0
 30
0.0
  0
VERTEX
  8
0
 10
98.77924
 20
229.60928
 30
0.0
  0
VERTEX
  8
0
 10
97.676578
 20
229.65817
 30
0.0
  0
SEQEND
  8
0
  0
POLYLINE
  8
0
 62
0
 70
0
 66
1
 10
0.0
 20
0.0
 30
0.0
  0
VERTEX
  8
0
 10
93.845404
 20
229.58871
 30
0.0
  0
VERTEX
  8
0
 10
92.938214
 20
229.52192
 30
0.0
  0
SEQEND
  8
0
  0
POLYLINE
  8
0
 62
0
 70
0
 66
1
 10
0.0
 20
0.0
 30
0.0
  0
VERTEX
  8
0
 10
112.63559
 20
226.203408
 30
0.0
  0
VERTEX
  8
0
 10
111.61972
 20
226.634978
 30
0.0
  0
SEQEND
  8
0
  0
POLYLINE
  8
0
 62
0
 70
0
 66
1
 10
0.0
 20
0.0
 30
0.0
  0
VERTEX
  8
0
 10
110.59299
 20
227.040997
 30
0.0
  0
VERTEX
  8
0
 10
109.5567
 20
227.420309
 30
0.0
  0
SEQEND
  8
0
  0
POLYLINE
  8
0
 62
0
 70
0
 66
1
 10
0.0
 20
0.0
 30
0.0
  0
VERTEX
  8
0
 10
113.64072
 20
225.746917
 30
0.0
  0
VERTEX
  8
0
 10
112.63559
 20
226.203408
 30
0.0
  0
SEQEND
  8
0
  0
POLYLINE
  8
0
 62
0
 70
0
 66
1
 10
0.0
 20
0.0
 30
0.0
  0
VERTEX
  8
0
 10
107.45741
 20
228.095912
 30
0.0
  0
VERTEX
  8
0
 10
106.39484
 20
228.391033
 30
0.0
  0
SEQEND
  8
0
  0
POLYLINE
  8
0
 62
0
 70
0
 66
1
 10
0.0
 20
0.0
 30
0.0
  0
VERTEX
  8
0
 10
105.32362
 20
228.65704
 30
0.0
  0
VERTEX
  8
0
 10
104.24523
 20
228.893117
 30
0.0
  0
SEQEND
  8
0
  0
POLYLINE
  8
0
 62
0
 70
0
 66
1
 10
0.0
 20
0.0
 30
0.0
  0
VERTEX
  8
0
 10
103.16006
 20
229.09882
 30
0.0
  0
VERTEX
  8
0
 10
102.07136
 20
229.273329
 30
0.0
  0
SEQEND
  8
0
  0
POLYLINE
  8
0
 62
0
 70
0
 66
1
 10
0.0
 20
0.0
 30
0.0
  0
VERTEX
  8
0
 10
81.379733
 20
241.61597
 30
0.0
  0
VERTEX
  8
0
 10
81.004242
 20
239.928519
 30
0.0
  0
SEQEND
  8
0
  0
POLYLINE
  8
0
 62
0
 70
0
 66
1
 10
0.0
 20
0.0
 30
0.0
  0
VERTEX
  8
0
 10
81.004242
 20
239.928519
 30
0.0
  0
VERTEX
  8
0
 10
80.522975
 20
238.269026
 30
0.0
  0
SEQEND
  8
0
  0
POLYLINE
  8
0
 62
0
 70
0
 66
1
 10
0.0
 20
0.0
 30
0.0
  0
VERTEX
  8
0
 10
81.647766
 20
243.321964
 30
0.0
  0
VERTEX
  8
0
 10
81.379733
 20
241.61597
 30
0.0
  0
SEQEND
  8
0
  0
POLYLINE
  8
0
 62
0
 70
0
 66
1
 10
0.0
 20
0.0
 30
0.0
  0
VERTEX
  8
0
 10
81.861686
 20
246.768744
 30
0.0
  0
VERTEX
  8
0
 10
81.808326
 20
245.041573
 30
0.0
  0
SEQEND
  8
0
  0
POLYLINE
  8
0
 62
0
 70
0
 66
1
 10
0.0
 20
0.0
 30
0.0
  0
VERTEX
  8
0
 10
81.808326
 20
245.041573
 30
0.0
  0
VERTEX
  8
0
 10
81.647766
 20
243.321964
 30
0.0
  0
SEQEND
  8
0
  0
POLYLINE
  8
0
 62
0
 70
0
 66
1
 10
0.0
 20
0.0
 30
0.0
  0
VERTEX
  8
0
 10
27.719631
 20
239.926545
 30
0.0
  0
VERTEX
  8
0
 10
27.344281
 20
241.612547
 30
0.0
  0
SEQEND
  8
0
  0
POLYLINE
  8
0
 62
0
 70
0
 66
1
 10
0.0
 20
0.0
 30
0.0
  0
VERTEX
  8
0
 10
31.140243
 20
232.030812
 30
0.0
  0
VERTEX
  8
0
 10
30.258911
 20
233.517802
 30
0.0
  0
SEQEND
  8
0
  0
POLYLINE
  8
0
 62
0
 70
0
 66
1
 10
0.0
 20
0.0
 30
0.0
  0
VERTEX
  8
0
 10
36.831974
 20
225.579122
 30
0.0
  0
VERTEX
  8
0
 10
35.536851
 20
226.721789
 30
0.0
  0
SEQEND
  8
0
  0
POLYLINE
  8
0
 62
0
 70
0
 66
1
 10
0.0
 20
0.0
 30
0.0
  0
VERTEX
  8
0
 10
33.17296
 20
229.237952
 30
0.0
  0
VERTEX
  8
0
 10
32.112472
 20
230.603057
 30
0.0
  0
SEQEND
  8
0
  0
POLYLINE
  8
0
 62
0
 70
0
 66
1
 10
0.0
 20
0.0
 30
0.0
  0
VERTEX
  8
0
 10
35.536851
 20
226.721789
 30
0.0
  0
VERTEX
  8
0
 10
34.315402
 20
227.943195
 30
0.0
  0
SEQEND
  8
0
  0
POLYLINE
  8
0
 62
0
 70
0
 66
1
 10
0.0
 20
0.0
 30
0.0
  0
VERTEX
  8
0
 10
30.258911
 20
233.517802
 30
0.0
  0
VERTEX
  8
0
 10
29.473372
 20
235.056391
 30
0.0
  0
SEQEND
  8
0
  0
POLYLINE
  8
0
 62
0
 70
0
 66
1
 10
0.0
 20
0.0
 30
0.0
  0
VERTEX
  8
0
 10
34.315402
 20
227.943195
 30
0.0
  0
VERTEX
  8
0
 10
33.17296
 20
229.237952
 30
0.0
  0
SEQEND
  8
0
  0
POLYLINE
  8
0
 62
0
 70
0
 66
1
 10
0.0
 20
0.0
 30
0.0
  0
VERTEX
  8
0
 10
38.19705
 20
224.518765
 30
0.0
  0
VERTEX
  8
0
 10
36.831974
 20
225.579122
 30
0.0
  0
SEQEND
  8
0
  0
POLYLINE
  8
0
 62
0
 70
0
 66
1
 10
0.0
 20
0.0
 30
0.0
  0
VERTEX
  8
0
 10
28.786298
 20
236.641867
 30
0.0
  0
VERTEX
  8
0
 10
28.200908
 20
238.26743
 30
0.0
  0
SEQEND
  8
0
  0
POLYLINE
  8
0
 62
0
 70
0
 66
1
 10
0.0
 20
0.0
 30
0.0
  0
VERTEX
  8
0
 10
32.112472
 20
230.603057
 30
0.0
  0
VERTEX
  8
0
 10
31.140243
 20
232.030812
 30
0.0
  0
SEQEND
  8
0
  0
POLYLINE
  8
0
 62
0
 70
0
 66
1
 10
0.0
 20
0.0
 30
0.0
  0
VERTEX
  8
0
 10
29.473372
 20
235.056391
 30
0.0
  0
VERTEX
  8
0
 10
28.786298
 20
236.641867
 30
0.0
  0
SEQEND
  8
0
  0
POLYLINE
  8
0
 62
0
 70
0
 66
1
 10
0.0
 20
0.0
 30
0.0
  0
VERTEX
  8
0
 10
28.200908
 20
238.26743
 30
0.0
  0
VERTEX
  8
0
 10
27.719631
 20
239.926545
 30
0.0
  0
SEQEND
  8
0
  0
POLYLINE
  8
0
 62
0
 70
0
 66
1
 10
0.0
 20
0.0
 30
0.0
  0
VERTEX
  8
0
 10
40.77841
 20
255.236736
 30
0.0
  0
VERTEX
  8
0
 10
38.556753
 20
255.222036
 30
0.0
  0
SEQEND
  8
0
  0
POLYLINE
  8
0
 62
0
 70
0
 66
1
 10
0.0
 20
0.0
 30
0.0
  0
VERTEX
  8
0
 10
36.334541
 20
255.207336
 30
0.0
  0
VERTEX
  8
0
 10
34.114308
 20
255.192636
 30
0.0
  0
SEQEND
  8
0
  0
POLYLINE
  8
0
 62
0
 70
0
 66
1
 10
0.0
 20
0.0
 30
0.0
  0
VERTEX
  8
0
 10
33.400231
 20
255.078016
 30
0.0
  0
VERTEX
  8
0
 10
32.755544
 20
254.750076
 30
0.0
  0
SEQEND
  8
0
  0
POLYLINE
  8
0
 62
0
 70
0
 66
1
 10
0.0
 20
0.0
 30
0.0
  0
VERTEX
  8
0
 10
135.94815
 20
277.680919
 30
0.0
  0
VERTEX
  8
0
 10
136.20529
 20
277.699199
 30
0.0
  0
SEQEND
  8
0
  0
POLYLINE
  8
0
 62
0
 70
0
 66
1
 10
0.0
 20
0.0
 30
0.0
  0
VERTEX
  8
0
 10
135.43323
 20
277.636019
 30
0.0
  0
VERTEX
  8
0
 10
135.69042
 20
277.659869
 30
0.0
  0
SEQEND
  8
0
  0
POLYLINE
  8
0
 62
0
 70
0
 66
1
 10
0.0
 20
0.0
 30
0.0
  0
VERTEX
  8
0
 10
136.20529
 20
277.699199
 30
0.0
  0
VERTEX
  8
0
 10
136.46351
 20
277.714969
 30
0.0
  0
SEQEND
  8
0
  0
POLYLINE
  8
0
 62
0
 70
0
 66
1
 10
0.0
 20
0.0
 30
0.0
  0
VERTEX
  8
0
 10
136.721
 20
277.728259
 30
0.0
  0
VERTEX
  8
0
 10
136.97817
 20
277.739269
 30
0.0
  0
SEQEND
  8
0
  0
POLYLINE
  8
0
 62
0
 70
0
 66
1
 10
0.0
 20
0.0
 30
0.0
  0
VERTEX
  8
0
 10
138.26737
 20
277.766869
 30
0.0
  0
VERTEX
  8
0
 10
138.52626
 20
277.768269
 30
0.0
  0
SEQEND
  8
0
  0
POLYLINE
  8
0
 62
0
 70
0
 66
1
 10
0.0
 20
0.0
 30
0.0
  0
VERTEX
  8
0
 10
53.31697
 20
247.117716
 30
0.0
  0
VERTEX
  8
0
 10
51.698272
 20
248.747086
 30
0.0
  0
SEQEND
  8
0
  0
POLYLINE
  8
0
 62
0
 70
0
 66
1
 10
0.0
 20
0.0
 30
0.0
  0
VERTEX
  8
0
 10
136.97817
 20
277.739269
 30
0.0
  0
VERTEX
  8
0
 10
137.23546
 20
277.748169
 30
0.0
  0
SEQEND
  8
0
  0
POLYLINE
  8
0
 62
0
 70
0
 66
1
 10
0.0
 20
0.0
 30
0.0
  0
VERTEX
  8
0
 10
134.92032
 20
277.579619
 30
0.0
  0
VERTEX
  8
0
 10
135.1764
 20
277.609279
 30
0.0
  0
SEQEND
  8
0
  0
POLYLINE
  8
0
 62
0
 70
0
 66
1
 10
0.0
 20
0.0
 30
0.0
  0
VERTEX
  8
0
 10
136.46351
 20
277.714969
 30
0.0
  0
VERTEX
  8
0
 10
136.721
 20
277.728259
 30
0.0
  0
SEQEND
  8
0
  0
POLYLINE
  8
0
 62
0
 70
0
 66
1
 10
0.0
 20
0.0
 30
0.0
  0
VERTEX
  8
0
 10
51.698272
 20
248.747086
 30
0.0
  0
VERTEX
  8
0
 10
50.078611
 20
250.377426
 30
0.0
  0
SEQEND
  8
0
  0
POLYLINE
  8
0
 62
0
 70
0
 66
1
 10
0.0
 20
0.0
 30
0.0
  0
VERTEX
  8
0
 10
46.841042
 20
253.636336
 30
0.0
  0
VERTEX
  8
0
 10
45.221921
 20
255.266136
 30
0.0
  0
SEQEND
  8
0
  0
POLYLINE
  8
0
 62
0
 70
0
 66
1
 10
0.0
 20
0.0
 30
0.0
  0
VERTEX
  8
0
 10
137.75155
 20
277.760569
 30
0.0
  0
VERTEX
  8
0
 10
138.01001
 20
277.764369
 30
0.0
  0
SEQEND
  8
0
  0
POLYLINE
  8
0
 62
0
 70
0
 66
1
 10
0.0
 20
0.0
 30
0.0
  0
VERTEX
  8
0
 10
137.23546
 20
277.748169
 30
0.0
  0
VERTEX
  8
0
 10
137.49401
 20
277.755269
 30
0.0
  0
SEQEND
  8
0
  0
POLYLINE
  8
0
 62
0
 70
0
 66
1
 10
0.0
 20
0.0
 30
0.0
  0
VERTEX
  8
0
 10
137.49401
 20
277.755269
 30
0.0
  0
VERTEX
  8
0
 10
137.75155
 20
277.760569
 30
0.0
  0
SEQEND
  8
0
  0
POLYLINE
  8
0
 62
0
 70
0
 66
1
 10
0.0
 20
0.0
 30
0.0
  0
VERTEX
  8
0
 10
138.01001
 20
277.764369
 30
0.0
  0
VERTEX
  8
0
 10
138.26737
 20
277.766869
 30
0.0
  0
SEQEND
  8
0
  0
POLYLINE
  8
0
 62
0
 70
0
 66
1
 10
0.0
 20
0.0
 30
0.0
  0
VERTEX
  8
0
 10
138.52626
 20
277.768269
 30
0.0
  0
VERTEX
  8
0
 10
138.78394
 20
277.76868
 30
0.0
  0
SEQEND
  8
0
  0
POLYLINE
  8
0
 62
0
 70
0
 66
1
 10
0.0
 20
0.0
 30
0.0
  0
VERTEX
  8
0
 10
48.459503
 20
252.007206
 30
0.0
  0
VERTEX
  8
0
 10
46.841042
 20
253.636336
 30
0.0
  0
SEQEND
  8
0
  0
POLYLINE
  8
0
 62
0
 70
0
 66
1
 10
0.0
 20
0.0
 30
0.0
  0
VERTEX
  8
0
 10
45.221921
 20
255.266136
 30
0.0
  0
VERTEX
  8
0
 10
43.000826
 20
255.251436
 30
0.0
  0
SEQEND
  8
0
  0
POLYLINE
  8
0
 62
0
 70
0
 66
1
 10
0.0
 20
0.0
 30
0.0
  0
VERTEX
  8
0
 10
43.000826
 20
255.251436
 30
0.0
  0
VERTEX
  8
0
 10
40.77841
 20
255.236736
 30
0.0
  0
SEQEND
  8
0
  0
POLYLINE
  8
0
 62
0
 70
0
 66
1
 10
0.0
 20
0.0
 30
0.0
  0
VERTEX
  8
0
 10
134.66403
 20
277.546879
 30
0.0
  0
VERTEX
  8
0
 10
134.92032
 20
277.579619
 30
0.0
  0
SEQEND
  8
0
  0
POLYLINE
  8
0
 62
0
 70
0
 66
1
 10
0.0
 20
0.0
 30
0.0
  0
VERTEX
  8
0
 10
135.1764
 20
277.609279
 30
0.0
  0
VERTEX
  8
0
 10
135.43323
 20
277.636019
 30
0.0
  0
SEQEND
  8
0
  0
POLYLINE
  8
0
 62
0
 70
0
 66
1
 10
0.0
 20
0.0
 30
0.0
  0
VERTEX
  8
0
 10
50.078611
 20
250.377426
 30
0.0
  0
VERTEX
  8
0
 10
48.459503
 20
252.007206
 30
0.0
  0
SEQEND
  8
0
  0
POLYLINE
  8
0
 62
0
 70
0
 66
1
 10
0.0
 20
0.0
 30
0.0
  0
VERTEX
  8
0
 10
135.69042
 20
277.659869
 30
0.0
  0
VERTEX
  8
0
 10
135.94815
 20
277.680919
 30
0.0
  0
SEQEND
  8
0
  0
POLYLINE
  8
0
 62
0
 70
0
 66
1
 10
0.0
 20
0.0
 30
0.0
  0
VERTEX
  8
0
 10
38.556753
 20
255.222036
 30
0.0
  0
VERTEX
  8
0
 10
36.334541
 20
255.207336
 30
0.0
  0
SEQEND
  8
0
  0
POLYLINE
  8
0
 62
0
 70
0
 66
1
 10
0.0
 20
0.0
 30
0.0
  0
VERTEX
  8
0
 10
34.114308
 20
255.192636
 30
0.0
  0
VERTEX
  8
0
 10
33.400231
 20
255.078016
 30
0.0
  0
SEQEND
  8
0
  0
POLYLINE
  8
0
 62
0
 70
0
 66
1
 10
0.0
 20
0.0
 30
0.0
  0
VERTEX
  8
0
 10
31.914936
 20
240.626476
 30
0.0
  0
VERTEX
  8
0
 10
32.243252
 20
239.980646
 30
0.0
  0
SEQEND
  8
0
  0
POLYLINE
  8
0
 62
0
 70
0
 66
1
 10
0.0
 20
0.0
 30
0.0
  0
VERTEX
  8
0
 10
36.335403
 20
239.029576
 30
0.0
  0
VERTEX
  8
0
 10
38.557819
 20
239.029576
 30
0.0
  0
SEQEND
  8
0
  0
POLYLINE
  8
0
 62
0
 70
0
 66
1
 10
0.0
 20
0.0
 30
0.0
  0
VERTEX
  8
0
 10
32.755544
 20
254.750076
 30
0.0
  0
VERTEX
  8
0
 10
32.243651
 20
254.239816
 30
0.0
  0
SEQEND
  8
0
  0
POLYLINE
  8
0
 62
0
 70
0
 66
1
 10
0.0
 20
0.0
 30
0.0
  0
VERTEX
  8
0
 10
34.449181
 20
247.147922
 30
0.0
  0
VERTEX
  8
0
 10
34.888521
 20
248.208582
 30
0.0
  0
SEQEND
  8
0
  0
POLYLINE
  8
0
 62
0
 70
0
 66
1
 10
0.0
 20
0.0
 30
0.0
  0
VERTEX
  8
0
 10
35.949181
 20
248.647922
 30
0.0
  0
VERTEX
  8
0
 10
37.009842
 20
248.208582
 30
0.0
  0
SEQEND
  8
0
  0
POLYLINE
  8
0
 62
0
 70
0
 66
1
 10
0.0
 20
0.0
 30
0.0
  0
VERTEX
  8
0
 10
31.803348
 20
248.264736
 30
0.0
  0
VERTEX
  8
0
 10
31.803348
 20
245.956376
 30
0.0
  0
SEQEND
  8
0
  0
POLYLINE
  8
0
 62
0
 70
0
 66
1
 10
0.0
 20
0.0
 30
0.0
  0
VERTEX
  8
0
 10
43.001688
 20
239.029576
 30
0.0
  0
VERTEX
  8
0
 10
45.221921
 20
239.029576
 30
0.0
  0
SEQEND
  8
0
  0
POLYLINE
  8
0
 62
0
 70
0
 66
1
 10
0.0
 20
0.0
 30
0.0
  0
VERTEX
  8
0
 10
35.949181
 20
245.647922
 30
0.0
  0
VERTEX
  8
0
 10
34.449181
 20
247.147922
 30
0.0
  0
SEQEND
  8
0
  0
POLYLINE
  8
0
 62
0
 70
0
 66
1
 10
0.0
 20
0.0
 30
0.0
  0
VERTEX
  8
0
 10
34.114308
 20
239.029576
 30
0.0
  0
VERTEX
  8
0
 10
36.335403
 20
239.029576
 30
0.0
  0
SEQEND
  8
0
  0
POLYLINE
  8
0
 62
0
 70
0
 66
1
 10
0.0
 20
0.0
 30
0.0
  0
VERTEX
  8
0
 10
38.811737
 20
247.147922
 30
0.0
  0
VERTEX
  8
0
 10
39.251077
 20
248.208582
 30
0.0
  0
SEQEND
  8
0
  0
POLYLINE
  8
0
 62
0
 70
0
 66
1
 10
0.0
 20
0.0
 30
0.0
  0
VERTEX
  8
0
 10
45.221921
 20
239.029576
 30
0.0
  0
VERTEX
  8
0
 10
46.840619
 20
240.646876
 30
0.0
  0
SEQEND
  8
0
  0
POLYLINE
  8
0
 62
0
 70
0
 66
1
 10
0.0
 20
0.0
 30
0.0
  0
VERTEX
  8
0
 10
40.779476
 20
239.029576
 30
0.0
  0
VERTEX
  8
0
 10
43.001688
 20
239.029576
 30
0.0
  0
SEQEND
  8
0
  0
POLYLINE
  8
0
 62
0
 70
0
 66
1
 10
0.0
 20
0.0
 30
0.0
  0
VERTEX
  8
0
 10
32.243252
 20
239.980646
 30
0.0
  0
VERTEX
  8
0
 10
32.75461
 20
239.469336
 30
0.0
  0
SEQEND
  8
0
  0
POLYLINE
  8
0
 62
0
 70
0
 66
1
 10
0.0
 20
0.0
 30
0.0
  0
VERTEX
  8
0
 10
32.243651
 20
254.239816
 30
0.0
  0
VERTEX
  8
0
 10
31.915194
 20
253.595796
 30
0.0
  0
SEQEND
  8
0
  0
POLYLINE
  8
0
 62
0
 70
0
 66
1
 10
0.0
 20
0.0
 30
0.0
  0
VERTEX
  8
0
 10
31.915194
 20
253.595796
 30
0.0
  0
VERTEX
  8
0
 10
31.803348
 20
252.881646
 30
0.0
  0
SEQEND
  8
0
  0
POLYLINE
  8
0
 62
0
 70
0
 66
1
 10
0.0
 20
0.0
 30
0.0
  0
VERTEX
  8
0
 10
31.803348
 20
252.881646
 30
0.0
  0
VERTEX
  8
0
 10
31.803348
 20
250.573876
 30
0.0
  0
SEQEND
  8
0
  0
POLYLINE
  8
0
 62
0
 70
0
 66
1
 10
0.0
 20
0.0
 30
0.0
  0
VERTEX
  8
0
 10
31.803348
 20
245.956376
 30
0.0
  0
VERTEX
  8
0
 10
31.803348
 20
243.648946
 30
0.0
  0
SEQEND
  8
0
  0
POLYLINE
  8
0
 62
0
 70
0
 66
1
 10
0.0
 20
0.0
 30
0.0
  0
VERTEX
  8
0
 10
31.803348
 20
243.648946
 30
0.0
  0
VERTEX
  8
0
 10
31.803348
 20
241.340576
 30
0.0
  0
SEQEND
  8
0
  0
POLYLINE
  8
0
 62
0
 70
0
 66
1
 10
0.0
 20
0.0
 30
0.0
  0
VERTEX
  8
0
 10
31.803348
 20
250.573876
 30
0.0
  0
VERTEX
  8
0
 10
31.803348
 20
248.264736
 30
0.0
  0
SEQEND
  8
0
  0
POLYLINE
  8
0
 62
0
 70
0
 66
1
 10
0.0
 20
0.0
 30
0.0
  0
VERTEX
  8
0
 10
31.803348
 20
241.340576
 30
0.0
  0
VERTEX
  8
0
 10
31.914936
 20
240.626476
 30
0.0
  0
SEQEND
  8
0
  0
POLYLINE
  8
0
 62
0
 70
0
 66
1
 10
0.0
 20
0.0
 30
0.0
  0
VERTEX
  8
0
 10
32.75461
 20
239.469336
 30
0.0
  0
VERTEX
  8
0
 10
33.399867
 20
239.141276
 30
0.0
  0
SEQEND
  8
0
  0
POLYLINE
  8
0
 62
0
 70
0
 66
1
 10
0.0
 20
0.0
 30
0.0
  0
VERTEX
  8
0
 10
38.557819
 20
239.029576
 30
0.0
  0
VERTEX
  8
0
 10
40.779476
 20
239.029576
 30
0.0
  0
SEQEND
  8
0
  0
POLYLINE
  8
0
 62
0
 70
0
 66
1
 10
0.0
 20
0.0
 30
0.0
  0
VERTEX
  8
0
 10
46.840619
 20
240.646876
 30
0.0
  0
VERTEX
  8
0
 10
48.46028
 20
242.265136
 30
0.0
  0
SEQEND
  8
0
  0
POLYLINE
  8
0
 62
0
 70
0
 66
1
 10
0.0
 20
0.0
 30
0.0
  0
VERTEX
  8
0
 10
33.399867
 20
239.141276
 30
0.0
  0
VERTEX
  8
0
 10
34.114308
 20
239.029576
 30
0.0
  0
SEQEND
  8
0
  0
POLYLINE
  8
0
 62
0
 70
0
 66
1
 10
0.0
 20
0.0
 30
0.0
  0
VERTEX
  8
0
 10
48.46028
 20
242.265136
 30
0.0
  0
VERTEX
  8
0
 10
50.079388
 20
243.882836
 30
0.0
  0
SEQEND
  8
0
  0
POLYLINE
  8
0
 62
0
 70
0
 66
1
 10
0.0
 20
0.0
 30
0.0
  0
VERTEX
  8
0
 10
37.449181
 20
247.147922
 30
0.0
  0
VERTEX
  8
0
 10
37.009842
 20
246.087262
 30
0.0
  0
SEQEND
  8
0
  0
POLYLINE
  8
0
 62
0
 70
0
 66
1
 10
0.0
 20
0.0
 30
0.0
  0
VERTEX
  8
0
 10
37.009842
 20
246.087262
 30
0.0
  0
VERTEX
  8
0
 10
35.949181
 20
245.647922
 30
0.0
  0
SEQEND
  8
0
  0
POLYLINE
  8
0
 62
0
 70
0
 66
1
 10
0.0
 20
0.0
 30
0.0
  0
VERTEX
  8
0
 10
50.079388
 20
243.882836
 30
0.0
  0
VERTEX
  8
0
 10
51.697849
 20
245.499896
 30
0.0
  0
SEQEND
  8
0
  0
POLYLINE
  8
0
 62
0
 70
0
 66
1
 10
0.0
 20
0.0
 30
0.0
  0
VERTEX
  8
0
 10
51.697849
 20
245.499896
 30
0.0
  0
VERTEX
  8
0
 10
53.31697
 20
247.117616
 30
0.0
  0
SEQEND
  8
0
  0
POLYLINE
  8
0
 62
0
 70
0
 66
1
 10
0.0
 20
0.0
 30
0.0
  0
VERTEX
  8
0
 10
34.888521
 20
248.208582
 30
0.0
  0
VERTEX
  8
0
 10
35.949181
 20
248.647922
 30
0.0
  0
SEQEND
  8
0
  0
POLYLINE
  8
0
 62
0
 70
0
 66
1
 10
0.0
 20
0.0
 30
0.0
  0
VERTEX
  8
0
 10
37.009842
 20
248.208582
 30
0.0
  0
VERTEX
  8
0
 10
37.449181
 20
247.147922
 30
0.0
  0
SEQEND
  8
0
  0
POLYLINE
  8
0
 62
0
 70
0
 66
1
 10
0.0
 20
0.0
 30
0.0
  0
VERTEX
  8
0
 10
41.811737
 20
247.147922
 30
0.0
  0
VERTEX
  8
0
 10
41.372398
 20
246.087262
 30
0.0
  0
SEQEND
  8
0
  0
POLYLINE
  8
0
 62
0
 70
0
 66
1
 10
0.0
 20
0.0
 30
0.0
  0
VERTEX
  8
0
 10
41.372398
 20
246.087262
 30
0.0
  0
VERTEX
  8
0
 10
40.311737
 20
245.647922
 30
0.0
  0
SEQEND
  8
0
  0
POLYLINE
  8
0
 62
0
 70
0
 66
1
 10
0.0
 20
0.0
 30
0.0
  0
VERTEX
  8
0
 10
40.311737
 20
245.647922
 30
0.0
  0
VERTEX
  8
0
 10
39.251077
 20
246.087262
 30
0.0
  0
SEQEND
  8
0
  0
POLYLINE
  8
0
 62
0
 70
0
 66
1
 10
0.0
 20
0.0
 30
0.0
  0
VERTEX
  8
0
 10
39.251077
 20
246.087262
 30
0.0
  0
VERTEX
  8
0
 10
38.811737
 20
247.147922
 30
0.0
  0
SEQEND
  8
0
  0
POLYLINE
  8
0
 62
0
 70
0
 66
1
 10
0.0
 20
0.0
 30
0.0
  0
VERTEX
  8
0
 10
39.251077
 20
248.208582
 30
0.0
  0
VERTEX
  8
0
 10
40.311737
 20
248.647922
 30
0.0
  0
SEQEND
  8
0
  0
POLYLINE
  8
0
 62
0
 70
0
 66
1
 10
0.0
 20
0.0
 30
0.0
  0
VERTEX
  8
0
 10
82.301012
 20
232.458505
 30
0.0
  0
VERTEX
  8
0
 10
83.361672
 20
232.897845
 30
0.0
  0
SEQEND
  8
0
  0
POLYLINE
  8
0
 62
0
 70
0
 66
1
 10
0.0
 20
0.0
 30
0.0
  0
VERTEX
  8
0
 10
89.967227
 20
230.95617
 30
0.0
  0
VERTEX
  8
0
 10
88.906567
 20
231.39551
 30
0.0
  0
SEQEND
  8
0
  0
POLYLINE
  8
0
 62
0
 70
0
 66
1
 10
0.0
 20
0.0
 30
0.0
  0
VERTEX
  8
0
 10
91.467227
 20
236.818726
 30
0.0
  0
VERTEX
  8
0
 10
91.027887
 20
235.758066
 30
0.0
  0
SEQEND
  8
0
  0
POLYLINE
  8
0
 62
0
 70
0
 66
1
 10
0.0
 20
0.0
 30
0.0
  0
VERTEX
  8
0
 10
89.967227
 20
235.318726
 30
0.0
  0
VERTEX
  8
0
 10
88.906567
 20
235.758066
 30
0.0
  0
SEQEND
  8
0
  0
POLYLINE
  8
0
 62
0
 70
0
 66
1
 10
0.0
 20
0.0
 30
0.0
  0
VERTEX
  8
0
 10
41.372398
 20
248.208582
 30
0.0
  0
VERTEX
  8
0
 10
41.811737
 20
247.147922
 30
0.0
  0
SEQEND
  8
0
  0
POLYLINE
  8
0
 62
0
 70
0
 66
1
 10
0.0
 20
0.0
 30
0.0
  0
VERTEX
  8
0
 10
83.361672
 20
232.897845
 30
0.0
  0
VERTEX
  8
0
 10
84.422332
 20
232.458505
 30
0.0
  0
SEQEND
  8
0
  0
POLYLINE
  8
0
 62
0
 70
0
 66
1
 10
0.0
 20
0.0
 30
0.0
  0
VERTEX
  8
0
 10
81.861672
 20
231.397845
 30
0.0
  0
VERTEX
  8
0
 10
82.301012
 20
232.458505
 30
0.0
  0
SEQEND
  8
0
  0
POLYLINE
  8
0
 62
0
 70
0
 66
1
 10
0.0
 20
0.0
 30
0.0
  0
VERTEX
  8
0
 10
84.861672
 20
235.760401
 30
0.0
  0
VERTEX
  8
0
 10
84.422332
 20
234.699741
 30
0.0
  0
SEQEND
  8
0
  0
POLYLINE
  8
0
 62
0
 70
0
 66
1
 10
0.0
 20
0.0
 30
0.0
  0
VERTEX
  8
0
 10
91.027887
 20
237.879386
 30
0.0
  0
VERTEX
  8
0
 10
91.467227
 20
236.818726
 30
0.0
  0
SEQEND
  8
0
  0
POLYLINE
  8
0
 62
0
 70
0
 66
1
 10
0.0
 20
0.0
 30
0.0
  0
VERTEX
  8
0
 10
88.467227
 20
232.45617
 30
0.0
  0
VERTEX
  8
0
 10
88.906567
 20
233.51683
 30
0.0
  0
SEQEND
  8
0
  0
POLYLINE
  8
0
 62
0
 70
0
 66
1
 10
0.0
 20
0.0
 30
0.0
  0
VERTEX
  8
0
 10
83.361672
 20
237.260401
 30
0.0
  0
VERTEX
  8
0
 10
84.422332
 20
236.821061
 30
0.0
  0
SEQEND
  8
0
  0
POLYLINE
  8
0
 62
0
 70
0
 66
1
 10
0.0
 20
0.0
 30
0.0
  0
VERTEX
  8
0
 10
84.422332
 20
236.821061
 30
0.0
  0
VERTEX
  8
0
 10
84.861672
 20
235.760401
 30
0.0
  0
SEQEND
  8
0
  0
POLYLINE
  8
0
 62
0
 70
0
 66
1
 10
0.0
 20
0.0
 30
0.0
  0
VERTEX
  8
0
 10
88.906567
 20
231.39551
 30
0.0
  0
VERTEX
  8
0
 10
88.467227
 20
232.45617
 30
0.0
  0
SEQEND
  8
0
  0
POLYLINE
  8
0
 62
0
 70
0
 66
1
 10
0.0
 20
0.0
 30
0.0
  0
VERTEX
  8
0
 10
89.967227
 20
238.318726
 30
0.0
  0
VERTEX
  8
0
 10
91.027887
 20
237.879386
 30
0.0
  0
SEQEND
  8
0
  0
POLYLINE
  8
0
 62
0
 70
0
 66
1
 10
0.0
 20
0.0
 30
0.0
  0
VERTEX
  8
0
 10
84.861672
 20
231.397845
 30
0.0
  0
VERTEX
  8
0
 10
83.361672
 20
229.897845
 30
0.0
  0
SEQEND
  8
0
  0
POLYLINE
  8
0
 62
0
 70
0
 66
1
 10
0.0
 20
0.0
 30
0.0
  0
VERTEX
  8
0
 10
82.301012
 20
230.337185
 30
0.0
  0
VERTEX
  8
0
 10
81.861672
 20
231.397845
 30
0.0
  0
SEQEND
  8
0
  0
POLYLINE
  8
0
 62
0
 70
0
 66
1
 10
0.0
 20
0.0
 30
0.0
  0
VERTEX
  8
0
 10
83.361672
 20
234.260401
 30
0.0
  0
VERTEX
  8
0
 10
82.301012
 20
234.699741
 30
0.0
  0
SEQEND
  8
0
  0
POLYLINE
  8
0
 62
0
 70
0
 66
1
 10
0.0
 20
0.0
 30
0.0
  0
VERTEX
  8
0
 10
82.301012
 20
234.699741
 30
0.0
  0
VERTEX
  8
0
 10
81.861672
 20
235.760401
 30
0.0
  0
SEQEND
  8
0
  0
POLYLINE
  8
0
 62
0
 70
0
 66
1
 10
0.0
 20
0.0
 30
0.0
  0
VERTEX
  8
0
 10
81.861672
 20
235.760401
 30
0.0
  0
VERTEX
  8
0
 10
82.301012
 20
236.821061
 30
0.0
  0
SEQEND
  8
0
  0
POLYLINE
  8
0
 62
0
 70
0
 66
1
 10
0.0
 20
0.0
 30
0.0
  0
VERTEX
  8
0
 10
84.422332
 20
234.699741
 30
0.0
  0
VERTEX
  8
0
 10
83.361672
 20
234.260401
 30
0.0
  0
SEQEND
  8
0
  0
POLYLINE
  8
0
 62
0
 70
0
 66
1
 10
0.0
 20
0.0
 30
0.0
  0
VERTEX
  8
0
 10
82.301012
 20
236.821061
 30
0.0
  0
VERTEX
  8
0
 10
83.361672
 20
237.260401
 30
0.0
  0
SEQEND
  8
0
  0
POLYLINE
  8
0
 62
0
 70
0
 66
1
 10
0.0
 20
0.0
 30
0.0
  0
VERTEX
  8
0
 10
40.311737
 20
248.647922
 30
0.0
  0
VERTEX
  8
0
 10
41.372398
 20
248.208582
 30
0.0
  0
SEQEND
  8
0
  0
POLYLINE
  8
0
 62
0
 70
0
 66
1
 10
0.0
 20
0.0
 30
0.0
  0
VERTEX
  8
0
 10
83.361672
 20
229.897845
 30
0.0
  0
VERTEX
  8
0
 10
82.301012
 20
230.337185
 30
0.0
  0
SEQEND
  8
0
  0
POLYLINE
  8
0
 62
0
 70
0
 66
1
 10
0.0
 20
0.0
 30
0.0
  0
VERTEX
  8
0
 10
89.967227
 20
233.95617
 30
0.0
  0
VERTEX
  8
0
 10
91.027887
 20
233.51683
 30
0.0
  0
SEQEND
  8
0
  0
POLYLINE
  8
0
 62
0
 70
0
 66
1
 10
0.0
 20
0.0
 30
0.0
  0
VERTEX
  8
0
 10
91.027887
 20
233.51683
 30
0.0
  0
VERTEX
  8
0
 10
91.467227
 20
232.45617
 30
0.0
  0
SEQEND
  8
0
  0
POLYLINE
  8
0
 62
0
 70
0
 66
1
 10
0.0
 20
0.0
 30
0.0
  0
VERTEX
  8
0
 10
84.422332
 20
232.458505
 30
0.0
  0
VERTEX
  8
0
 10
84.861672
 20
231.397845
 30
0.0
  0
SEQEND
  8
0
  0
POLYLINE
  8
0
 62
0
 70
0
 66
1
 10
0.0
 20
0.0
 30
0.0
  0
VERTEX
  8
0
 10
91.467227
 20
232.45617
 30
0.0
  0
VERTEX
  8
0
 10
89.967227
 20
230.95617
 30
0.0
  0
SEQEND
  8
0
  0
POLYLINE
  8
0
 62
0
 70
0
 66
1
 10
0.0
 20
0.0
 30
0.0
  0
VERTEX
  8
0
 10
88.906567
 20
233.51683
 30
0.0
  0
VERTEX
  8
0
 10
89.967227
 20
233.95617
 30
0.0
  0
SEQEND
  8
0
  0
POLYLINE
  8
0
 62
0
 70
0
 66
1
 10
0.0
 20
0.0
 30
0.0
  0
VERTEX
  8
0
 10
91.027887
 20
235.758066
 30
0.0
  0
VERTEX
  8
0
 10
89.967227
 20
235.318726
 30
0.0
  0
SEQEND
  8
0
  0
POLYLINE
  8
0
 62
0
 70
0
 66
1
 10
0.0
 20
0.0
 30
0.0
  0
VERTEX
  8
0
 10
88.906567
 20
235.758066
 30
0.0
  0
VERTEX
  8
0
 10
88.467227
 20
236.818726
 30
0.0
  0
SEQEND
  8
0
  0
POLYLINE
  8
0
 62
0
 70
0
 66
1
 10
0.0
 20
0.0
 30
0.0
  0
VERTEX
  8
0
 10
88.467227
 20
236.818726
 30
0.0
  0
VERTEX
  8
0
 10
88.906567
 20
237.879386
 30
0.0
  0
SEQEND
  8
0
  0
POLYLINE
  8
0
 62
0
 70
0
 66
1
 10
0.0
 20
0.0
 30
0.0
  0
VERTEX
  8
0
 10
88.906567
 20
237.879386
 30
0.0
  0
VERTEX
  8
0
 10
89.967227
 20
238.318726
 30
0.0
  0
SEQEND
  8
0
  0
POLYLINE
  8
0
 62
0
 70
0
 66
1
 10
0.0
 20
0.0
 30
0.0
  0
VERTEX
  8
0
 10
96.572811
 20
234.485346
 30
0.0
  0
VERTEX
  8
0
 10
97.633471
 20
234.046006
 30
0.0
  0
SEQEND
  8
0
  0
POLYLINE
  8
0
 62
0
 70
0
 66
1
 10
0.0
 20
0.0
 30
0.0
  0
VERTEX
  8
0
 10
97.633471
 20
234.046006
 30
0.0
  0
VERTEX
  8
0
 10
98.072811
 20
232.985346
 30
0.0
  0
SEQEND
  8
0
  0
POLYLINE
  8
0
 62
0
 70
0
 66
1
 10
0.0
 20
0.0
 30
0.0
  0
VERTEX
  8
0
 10
98.072811
 20
232.985346
 30
0.0
  0
VERTEX
  8
0
 10
96.572811
 20
231.485346
 30
0.0
  0
SEQEND
  8
0
  0
POLYLINE
  8
0
 62
0
 70
0
 66
1
 10
0.0
 20
0.0
 30
0.0
  0
VERTEX
  8
0
 10
96.572811
 20
231.485346
 30
0.0
  0
VERTEX
  8
0
 10
95.512151
 20
231.924686
 30
0.0
  0
SEQEND
  8
0
  0
POLYLINE
  8
0
 62
0
 70
0
 66
1
 10
0.0
 20
0.0
 30
0.0
  0
VERTEX
  8
0
 10
95.512151
 20
231.924686
 30
0.0
  0
VERTEX
  8
0
 10
95.072811
 20
232.985346
 30
0.0
  0
SEQEND
  8
0
  0
POLYLINE
  8
0
 62
0
 70
0
 66
1
 10
0.0
 20
0.0
 30
0.0
  0
VERTEX
  8
0
 10
95.072811
 20
232.985346
 30
0.0
  0
VERTEX
  8
0
 10
95.512151
 20
234.046006
 30
0.0
  0
SEQEND
  8
0
  0
POLYLINE
  8
0
 62
0
 70
0
 66
1
 10
0.0
 20
0.0
 30
0.0
  0
VERTEX
  8
0
 10
71.892476
 20
225.580022
 30
0.0
  0
VERTEX
  8
0
 10
70.527371
 20
224.519532
 30
0.0
  0
SEQEND
  8
0
  0
POLYLINE
  8
0
 62
0
 70
0
 66
1
 10
0.0
 20
0.0
 30
0.0
  0
VERTEX
  8
0
 10
70.527371
 20
224.519532
 30
0.0
  0
VERTEX
  8
0
 10
69.099616
 20
223.547305
 30
0.0
  0
SEQEND
  8
0
  0
POLYLINE
  8
0
 62
0
 70
0
 66
1
 10
0.0
 20
0.0
 30
0.0
  0
VERTEX
  8
0
 10
69.099616
 20
223.547305
 30
0.0
  0
VERTEX
  8
0
 10
67.612623
 20
222.665972
 30
0.0
  0
SEQEND
  8
0
  0
POLYLINE
  8
0
 62
0
 70
0
 66
1
 10
0.0
 20
0.0
 30
0.0
  0
VERTEX
  8
0
 10
80.522975
 20
238.269026
 30
0.0
  0
VERTEX
  8
0
 10
79.937272
 20
236.642386
 30
0.0
  0
SEQEND
  8
0
  0
POLYLINE
  8
0
 62
0
 70
0
 66
1
 10
0.0
 20
0.0
 30
0.0
  0
VERTEX
  8
0
 10
78.464623
 20
233.518109
 30
0.0
  0
VERTEX
  8
0
 10
77.583539
 20
232.031466
 30
0.0
  0
SEQEND
  8
0
  0
POLYLINE
  8
0
 62
0
 70
0
 66
1
 10
0.0
 20
0.0
 30
0.0
  0
VERTEX
  8
0
 10
73.187233
 20
226.722463
 30
0.0
  0
VERTEX
  8
0
 10
71.892476
 20
225.580022
 30
0.0
  0
SEQEND
  8
0
  0
POLYLINE
  8
0
 62
0
 70
0
 66
1
 10
0.0
 20
0.0
 30
0.0
  0
VERTEX
  8
0
 10
79.250282
 20
235.057005
 30
0.0
  0
VERTEX
  8
0
 10
78.464623
 20
233.518109
 30
0.0
  0
SEQEND
  8
0
  0
POLYLINE
  8
0
 62
0
 70
0
 66
1
 10
0.0
 20
0.0
 30
0.0
  0
VERTEX
  8
0
 10
76.611661
 20
230.60411
 30
0.0
  0
VERTEX
  8
0
 10
75.551303
 20
229.239035
 30
0.0
  0
SEQEND
  8
0
  0
POLYLINE
  8
0
 62
0
 70
0
 66
1
 10
0.0
 20
0.0
 30
0.0
  0
VERTEX
  8
0
 10
75.551303
 20
229.239035
 30
0.0
  0
VERTEX
  8
0
 10
74.408639
 20
227.943912
 30
0.0
  0
SEQEND
  8
0
  0
POLYLINE
  8
0
 62
0
 70
0
 66
1
 10
0.0
 20
0.0
 30
0.0
  0
VERTEX
  8
0
 10
77.583539
 20
232.031466
 30
0.0
  0
VERTEX
  8
0
 10
76.611661
 20
230.60411
 30
0.0
  0
SEQEND
  8
0
  0
POLYLINE
  8
0
 62
0
 70
0
 66
1
 10
0.0
 20
0.0
 30
0.0
  0
VERTEX
  8
0
 10
74.408639
 20
227.943912
 30
0.0
  0
VERTEX
  8
0
 10
73.187233
 20
226.722463
 30
0.0
  0
SEQEND
  8
0
  0
POLYLINE
  8
0
 62
0
 70
0
 66
1
 10
0.0
 20
0.0
 30
0.0
  0
VERTEX
  8
0
 10
79.937272
 20
236.642386
 30
0.0
  0
VERTEX
  8
0
 10
79.250282
 20
235.057005
 30
0.0
  0
SEQEND
  8
0
  0
POLYLINE
  8
0
 62
0
 70
0
 66
1
 10
0.0
 20
0.0
 30
0.0
  0
VERTEX
  8
0
 10
153.906776
 20
239.361079
 30
0.0
  0
VERTEX
  8
0
 10
152.761866
 20
239.635959
 30
0.0
  0
SEQEND
  8
0
  0
POLYLINE
  8
0
 62
0
 70
0
 66
1
 10
0.0
 20
0.0
 30
0.0
  0
VERTEX
  8
0
 10
149.776426
 20
241.465519
 30
0.0
  0
VERTEX
  8
0
 10
149.012256
 20
242.360159
 30
0.0
  0
SEQEND
  8
0
  0
POLYLINE
  8
0
 62
0
 70
0
 66
1
 10
0.0
 20
0.0
 30
0.0
  0
VERTEX
  8
0
 10
150.671616
 20
252.837284
 30
0.0
  0
VERTEX
  8
0
 10
152.761076
 20
253.903529
 30
0.0
  0
SEQEND
  8
0
  0
POLYLINE
  8
0
 62
0
 70
0
 66
1
 10
0.0
 20
0.0
 30
0.0
  0
VERTEX
  8
0
 10
162.579766
 20
246.768749
 30
0.0
  0
VERTEX
  8
0
 10
162.487466
 20
245.595799
 30
0.0
  0
SEQEND
  8
0
  0
POLYLINE
  8
0
 62
0
 70
0
 66
1
 10
0.0
 20
0.0
 30
0.0
  0
VERTEX
  8
0
 10
155.079726
 20
239.268779
 30
0.0
  0
VERTEX
  8
0
 10
153.906776
 20
239.361079
 30
0.0
  0
SEQEND
  8
0
  0
POLYLINE
  8
0
 62
0
 70
0
 66
1
 10
0.0
 20
0.0
 30
0.0
  0
VERTEX
  8
0
 10
152.761866
 20
239.635959
 30
0.0
  0
VERTEX
  8
0
 10
151.674786
 20
240.086269
 30
0.0
  0
SEQEND
  8
0
  0
POLYLINE
  8
0
 62
0
 70
0
 66
1
 10
0.0
 20
0.0
 30
0.0
  0
VERTEX
  8
0
 10
160.383026
 20
241.465449
 30
0.0
  0
VERTEX
  8
0
 10
159.488386
 20
240.701279
 30
0.0
  0
SEQEND
  8
0
  0
POLYLINE
  8
0
 62
0
 70
0
 66
1
 10
0.0
 20
0.0
 30
0.0
  0
VERTEX
  8
0
 10
155.07977
 20
247.450028
 30
0.0
  0
VERTEX
  8
0
 10
154.01911
 20
247.889368
 30
0.0
  0
SEQEND
  8
0
  0
POLYLINE
  8
0
 62
0
 70
0
 66
1
 10
0.0
 20
0.0
 30
0.0
  0
VERTEX
  8
0
 10
158.484446
 20
240.086079
 30
0.0
  0
VERTEX
  8
0
 10
157.397346
 20
239.635819
 30
0.0
  0
SEQEND
  8
0
  0
POLYLINE
  8
0
 62
0
 70
0
 66
1
 10
0.0
 20
0.0
 30
0.0
  0
VERTEX
  8
0
 10
156.253766
 20
239.361179
 30
0.0
  0
VERTEX
  8
0
 10
155.079726
 20
239.268779
 30
0.0
  0
SEQEND
  8
0
  0
POLYLINE
  8
0
 62
0
 70
0
 66
1
 10
0.0
 20
0.0
 30
0.0
  0
VERTEX
  8
0
 10
151.674786
 20
240.086269
 30
0.0
  0
VERTEX
  8
0
 10
150.671956
 20
240.700699
 30
0.0
  0
SEQEND
  8
0
  0
POLYLINE
  8
0
 62
0
 70
0
 66
1
 10
0.0
 20
0.0
 30
0.0
  0
VERTEX
  8
0
 10
154.01911
 20
247.889368
 30
0.0
  0
VERTEX
  8
0
 10
153.57977
 20
248.950028
 30
0.0
  0
SEQEND
  8
0
  0
POLYLINE
  8
0
 62
0
 70
0
 66
1
 10
0.0
 20
0.0
 30
0.0
  0
VERTEX
  8
0
 10
148.397056
 20
243.364099
 30
0.0
  0
VERTEX
  8
0
 10
147.946796
 20
244.451199
 30
0.0
  0
SEQEND
  8
0
  0
POLYLINE
  8
0
 62
0
 70
0
 66
1
 10
0.0
 20
0.0
 30
0.0
  0
VERTEX
  8
0
 10
162.212586
 20
244.450889
 30
0.0
  0
VERTEX
  8
0
 10
161.762276
 20
243.363809
 30
0.0
  0
SEQEND
  8
0
  0
POLYLINE
  8
0
 62
0
 70
0
 66
1
 10
0.0
 20
0.0
 30
0.0
  0
VERTEX
  8
0
 10
161.762276
 20
243.363809
 30
0.0
  0
VERTEX
  8
0
 10
161.147846
 20
242.360979
 30
0.0
  0
SEQEND
  8
0
  0
POLYLINE
  8
0
 62
0
 70
0
 66
1
 10
0.0
 20
0.0
 30
0.0
  0
VERTEX
  8
0
 10
161.147846
 20
242.360979
 30
0.0
  0
VERTEX
  8
0
 10
160.383026
 20
241.465449
 30
0.0
  0
SEQEND
  8
0
  0
POLYLINE
  8
0
 62
0
 70
0
 66
1
 10
0.0
 20
0.0
 30
0.0
  0
VERTEX
  8
0
 10
159.488386
 20
240.701279
 30
0.0
  0
VERTEX
  8
0
 10
158.484446
 20
240.086079
 30
0.0
  0
SEQEND
  8
0
  0
POLYLINE
  8
0
 62
0
 70
0
 66
1
 10
0.0
 20
0.0
 30
0.0
  0
VERTEX
  8
0
 10
157.397346
 20
239.635819
 30
0.0
  0
VERTEX
  8
0
 10
156.253766
 20
239.361179
 30
0.0
  0
SEQEND
  8
0
  0
POLYLINE
  8
0
 62
0
 70
0
 66
1
 10
0.0
 20
0.0
 30
0.0
  0
VERTEX
  8
0
 10
162.487466
 20
245.595799
 30
0.0
  0
VERTEX
  8
0
 10
162.212586
 20
244.450889
 30
0.0
  0
SEQEND
  8
0
  0
POLYLINE
  8
0
 62
0
 70
0
 66
1
 10
0.0
 20
0.0
 30
0.0
  0
VERTEX
  8
0
 10
154.01911
 20
250.010688
 30
0.0
  0
VERTEX
  8
0
 10
155.07977
 20
250.450028
 30
0.0
  0
SEQEND
  8
0
  0
POLYLINE
  8
0
 62
0
 70
0
 66
1
 10
0.0
 20
0.0
 30
0.0
  0
VERTEX
  8
0
 10
150.671956
 20
240.700699
 30
0.0
  0
VERTEX
  8
0
 10
149.776426
 20
241.465519
 30
0.0
  0
SEQEND
  8
0
  0
POLYLINE
  8
0
 62
0
 70
0
 66
1
 10
0.0
 20
0.0
 30
0.0
  0
VERTEX
  8
0
 10
149.012256
 20
242.360159
 30
0.0
  0
VERTEX
  8
0
 10
148.397056
 20
243.364099
 30
0.0
  0
SEQEND
  8
0
  0
POLYLINE
  8
0
 62
0
 70
0
 66
1
 10
0.0
 20
0.0
 30
0.0
  0
VERTEX
  8
0
 10
147.946796
 20
244.451199
 30
0.0
  0
VERTEX
  8
0
 10
147.672156
 20
245.594779
 30
0.0
  0
SEQEND
  8
0
  0
POLYLINE
  8
0
 62
0
 70
0
 66
1
 10
0.0
 20
0.0
 30
0.0
  0
VERTEX
  8
0
 10
153.57977
 20
248.950028
 30
0.0
  0
VERTEX
  8
0
 10
154.01911
 20
250.010688
 30
0.0
  0
SEQEND
  8
0
  0
POLYLINE
  8
0
 62
0
 70
0
 66
1
 10
0.0
 20
0.0
 30
0.0
  0
VERTEX
  8
0
 10
147.672156
 20
245.594779
 30
0.0
  0
VERTEX
  8
0
 10
147.579756
 20
246.768819
 30
0.0
  0
SEQEND
  8
0
  0
POLYLINE
  8
0
 62
0
 70
0
 66
1
 10
0.0
 20
0.0
 30
0.0
  0
VERTEX
  8
0
 10
147.579756
 20
246.768819
 30
0.0
  0
VERTEX
  8
0
 10
147.944856
 20
249.086924
 30
0.0
  0
SEQEND
  8
0
  0
POLYLINE
  8
0
 62
0
 70
0
 66
1
 10
0.0
 20
0.0
 30
0.0
  0
VERTEX
  8
0
 10
147.944856
 20
249.086924
 30
0.0
  0
VERTEX
  8
0
 10
149.011576
 20
251.177355
 30
0.0
  0
SEQEND
  8
0
  0
POLYLINE
  8
0
 62
0
 70
0
 66
1
 10
0.0
 20
0.0
 30
0.0
  0
VERTEX
  8
0
 10
149.011576
 20
251.177355
 30
0.0
  0
VERTEX
  8
0
 10
150.671616
 20
252.837284
 30
0.0
  0
SEQEND
  8
0
  0
POLYLINE
  8
0
 62
0
 70
0
 66
1
 10
0.0
 20
0.0
 30
0.0
  0
VERTEX
  8
0
 10
140.283938
 20
228.291636
 30
0.0
  0
VERTEX
  8
0
 10
138.783938
 20
226.791636
 30
0.0
  0
SEQEND
  8
0
  0
POLYLINE
  8
0
 62
0
 70
0
 66
1
 10
0.0
 20
0.0
 30
0.0
  0
VERTEX
  8
0
 10
137.723278
 20
229.352296
 30
0.0
  0
VERTEX
  8
0
 10
138.783938
 20
229.791636
 30
0.0
  0
SEQEND
  8
0
  0
POLYLINE
  8
0
 62
0
 70
0
 66
1
 10
0.0
 20
0.0
 30
0.0
  0
VERTEX
  8
0
 10
140.283938
 20
232.654192
 30
0.0
  0
VERTEX
  8
0
 10
139.844599
 20
231.593532
 30
0.0
  0
SEQEND
  8
0
  0
POLYLINE
  8
0
 62
0
 70
0
 66
1
 10
0.0
 20
0.0
 30
0.0
  0
VERTEX
  8
0
 10
138.783938
 20
231.154192
 30
0.0
  0
VERTEX
  8
0
 10
137.723278
 20
231.593532
 30
0.0
  0
SEQEND
  8
0
  0
POLYLINE
  8
0
 62
0
 70
0
 66
1
 10
0.0
 20
0.0
 30
0.0
  0
VERTEX
  8
0
 10
144.852014
 20
226.065143
 30
0.0
  0
VERTEX
  8
0
 10
144.087194
 20
225.169613
 30
0.0
  0
SEQEND
  8
0
  0
POLYLINE
  8
0
 62
0
 70
0
 66
1
 10
0.0
 20
0.0
 30
0.0
  0
VERTEX
  8
0
 10
141.101514
 20
223.339983
 30
0.0
  0
VERTEX
  8
0
 10
139.957934
 20
223.065343
 30
0.0
  0
SEQEND
  8
0
  0
POLYLINE
  8
0
 62
0
 70
0
 66
1
 10
0.0
 20
0.0
 30
0.0
  0
VERTEX
  8
0
 10
143.192554
 20
224.405443
 30
0.0
  0
VERTEX
  8
0
 10
142.188614
 20
223.790243
 30
0.0
  0
SEQEND
  8
0
  0
POLYLINE
  8
0
 62
0
 70
0
 66
1
 10
0.0
 20
0.0
 30
0.0
  0
VERTEX
  8
0
 10
137.610944
 20
223.065243
 30
0.0
  0
VERTEX
  8
0
 10
136.466034
 20
223.340123
 30
0.0
  0
SEQEND
  8
0
  0
POLYLINE
  8
0
 62
0
 70
0
 66
1
 10
0.0
 20
0.0
 30
0.0
  0
VERTEX
  8
0
 10
138.783938
 20
226.791636
 30
0.0
  0
VERTEX
  8
0
 10
137.723278
 20
227.230976
 30
0.0
  0
SEQEND
  8
0
  0
POLYLINE
  8
0
 62
0
 70
0
 66
1
 10
0.0
 20
0.0
 30
0.0
  0
VERTEX
  8
0
 10
137.723278
 20
227.230976
 30
0.0
  0
VERTEX
  8
0
 10
137.283938
 20
228.291636
 30
0.0
  0
SEQEND
  8
0
  0
POLYLINE
  8
0
 62
0
 70
0
 66
1
 10
0.0
 20
0.0
 30
0.0
  0
VERTEX
  8
0
 10
139.844599
 20
233.714852
 30
0.0
  0
VERTEX
  8
0
 10
140.283938
 20
232.654192
 30
0.0
  0
SEQEND
  8
0
  0
POLYLINE
  8
0
 62
0
 70
0
 66
1
 10
0.0
 20
0.0
 30
0.0
  0
VERTEX
  8
0
 10
162.214466
 20
249.087498
 30
0.0
  0
VERTEX
  8
0
 10
162.579756
 20
246.768819
 30
0.0
  0
SEQEND
  8
0
  0
POLYLINE
  8
0
 62
0
 70
0
 66
1
 10
0.0
 20
0.0
 30
0.0
  0
VERTEX
  8
0
 10
137.723278
 20
231.593532
 30
0.0
  0
VERTEX
  8
0
 10
137.283938
 20
232.654192
 30
0.0
  0
SEQEND
  8
0
  0
POLYLINE
  8
0
 62
0
 70
0
 66
1
 10
0.0
 20
0.0
 30
0.0
  0
VERTEX
  8
0
 10
146.283934
 20
230.472913
 30
0.0
  0
VERTEX
  8
0
 10
146.191634
 20
229.299963
 30
0.0
  0
SEQEND
  8
0
  0
POLYLINE
  8
0
 62
0
 70
0
 66
1
 10
0.0
 20
0.0
 30
0.0
  0
VERTEX
  8
0
 10
137.723278
 20
233.714852
 30
0.0
  0
VERTEX
  8
0
 10
138.783938
 20
234.154192
 30
0.0
  0
SEQEND
  8
0
  0
POLYLINE
  8
0
 62
0
 70
0
 66
1
 10
0.0
 20
0.0
 30
0.0
  0
VERTEX
  8
0
 10
146.191634
 20
229.299963
 30
0.0
  0
VERTEX
  8
0
 10
145.916754
 20
228.155053
 30
0.0
  0
SEQEND
  8
0
  0
POLYLINE
  8
0
 62
0
 70
0
 66
1
 10
0.0
 20
0.0
 30
0.0
  0
VERTEX
  8
0
 10
145.916754
 20
228.155053
 30
0.0
  0
VERTEX
  8
0
 10
145.466444
 20
227.067973
 30
0.0
  0
SEQEND
  8
0
  0
POLYLINE
  8
0
 62
0
 70
0
 66
1
 10
0.0
 20
0.0
 30
0.0
  0
VERTEX
  8
0
 10
145.466444
 20
227.067973
 30
0.0
  0
VERTEX
  8
0
 10
144.852014
 20
226.065143
 30
0.0
  0
SEQEND
  8
0
  0
POLYLINE
  8
0
 62
0
 70
0
 66
1
 10
0.0
 20
0.0
 30
0.0
  0
VERTEX
  8
0
 10
142.188614
 20
223.790243
 30
0.0
  0
VERTEX
  8
0
 10
141.101514
 20
223.339983
 30
0.0
  0
SEQEND
  8
0
  0
POLYLINE
  8
0
 62
0
 70
0
 66
1
 10
0.0
 20
0.0
 30
0.0
  0
VERTEX
  8
0
 10
159.488296
 20
252.836994
 30
0.0
  0
VERTEX
  8
0
 10
161.148226
 20
251.176956
 30
0.0
  0
SEQEND
  8
0
  0
POLYLINE
  8
0
 62
0
 70
0
 66
1
 10
0.0
 20
0.0
 30
0.0
  0
VERTEX
  8
0
 10
155.079756
 20
254.268818
 30
0.0
  0
VERTEX
  8
0
 10
157.397856
 20
253.903716
 30
0.0
  0
SEQEND
  8
0
  0
POLYLINE
  8
0
 62
0
 70
0
 66
1
 10
0.0
 20
0.0
 30
0.0
  0
VERTEX
  8
0
 10
138.783938
 20
229.791636
 30
0.0
  0
VERTEX
  8
0
 10
139.844599
 20
229.352296
 30
0.0
  0
SEQEND
  8
0
  0
POLYLINE
  8
0
 62
0
 70
0
 66
1
 10
0.0
 20
0.0
 30
0.0
  0
VERTEX
  8
0
 10
152.761076
 20
253.903529
 30
0.0
  0
VERTEX
  8
0
 10
155.079756
 20
254.268818
 30
0.0
  0
SEQEND
  8
0
  0
POLYLINE
  8
0
 62
0
 70
0
 66
1
 10
0.0
 20
0.0
 30
0.0
  0
VERTEX
  8
0
 10
157.397856
 20
253.903716
 30
0.0
  0
VERTEX
  8
0
 10
159.488296
 20
252.836994
 30
0.0
  0
SEQEND
  8
0
  0
POLYLINE
  8
0
 62
0
 70
0
 66
1
 10
0.0
 20
0.0
 30
0.0
  0
VERTEX
  8
0
 10
161.148226
 20
251.176956
 30
0.0
  0
VERTEX
  8
0
 10
162.214466
 20
249.087498
 30
0.0
  0
SEQEND
  8
0
  0
POLYLINE
  8
0
 62
0
 70
0
 66
1
 10
0.0
 20
0.0
 30
0.0
  0
VERTEX
  8
0
 10
139.844599
 20
229.352296
 30
0.0
  0
VERTEX
  8
0
 10
140.283938
 20
228.291636
 30
0.0
  0
SEQEND
  8
0
  0
POLYLINE
  8
0
 62
0
 70
0
 66
1
 10
0.0
 20
0.0
 30
0.0
  0
VERTEX
  8
0
 10
137.283938
 20
228.291636
 30
0.0
  0
VERTEX
  8
0
 10
137.723278
 20
229.352296
 30
0.0
  0
SEQEND
  8
0
  0
POLYLINE
  8
0
 62
0
 70
0
 66
1
 10
0.0
 20
0.0
 30
0.0
  0
VERTEX
  8
0
 10
138.783938
 20
234.154192
 30
0.0
  0
VERTEX
  8
0
 10
139.844599
 20
233.714852
 30
0.0
  0
SEQEND
  8
0
  0
POLYLINE
  8
0
 62
0
 70
0
 66
1
 10
0.0
 20
0.0
 30
0.0
  0
VERTEX
  8
0
 10
139.844599
 20
231.593532
 30
0.0
  0
VERTEX
  8
0
 10
138.783938
 20
231.154192
 30
0.0
  0
SEQEND
  8
0
  0
POLYLINE
  8
0
 62
0
 70
0
 66
1
 10
0.0
 20
0.0
 30
0.0
  0
VERTEX
  8
0
 10
137.283938
 20
232.654192
 30
0.0
  0
VERTEX
  8
0
 10
137.723278
 20
233.714852
 30
0.0
  0
SEQEND
  8
0
  0
POLYLINE
  8
0
 62
0
 70
0
 66
1
 10
0.0
 20
0.0
 30
0.0
  0
VERTEX
  8
0
 10
144.087194
 20
225.169613
 30
0.0
  0
VERTEX
  8
0
 10
143.192554
 20
224.405443
 30
0.0
  0
SEQEND
  8
0
  0
POLYLINE
  8
0
 62
0
 70
0
 66
1
 10
0.0
 20
0.0
 30
0.0
  0
VERTEX
  8
0
 10
139.957934
 20
223.065343
 30
0.0
  0
VERTEX
  8
0
 10
138.783894
 20
222.972943
 30
0.0
  0
SEQEND
  8
0
  0
POLYLINE
  8
0
 62
0
 70
0
 66
1
 10
0.0
 20
0.0
 30
0.0
  0
VERTEX
  8
0
 10
138.783894
 20
222.972943
 30
0.0
  0
VERTEX
  8
0
 10
137.610944
 20
223.065243
 30
0.0
  0
SEQEND
  8
0
  0
POLYLINE
  8
0
 62
0
 70
0
 66
1
 10
0.0
 20
0.0
 30
0.0
  0
VERTEX
  8
0
 10
136.466034
 20
223.340123
 30
0.0
  0
VERTEX
  8
0
 10
135.378954
 20
223.790433
 30
0.0
  0
SEQEND
  8
0
  0
POLYLINE
  8
0
 62
0
 70
0
 66
1
 10
0.0
 20
0.0
 30
0.0
  0
VERTEX
  8
0
 10
135.378954
 20
223.790433
 30
0.0
  0
VERTEX
  8
0
 10
134.376124
 20
224.404863
 30
0.0
  0
SEQEND
  8
0
  0
POLYLINE
  8
0
 62
0
 70
0
 66
1
 10
0.0
 20
0.0
 30
0.0
  0
VERTEX
  8
0
 10
134.376124
 20
224.404863
 30
0.0
  0
VERTEX
  8
0
 10
133.480594
 20
225.169683
 30
0.0
  0
SEQEND
  8
0
  0
POLYLINE
  8
0
 62
0
 70
0
 66
1
 10
0.0
 20
0.0
 30
0.0
  0
VERTEX
  8
0
 10
115.355131
 20
244.451199
 30
0.0
  0
VERTEX
  8
0
 10
115.080491
 20
245.594779
 30
0.0
  0
SEQEND
  8
0
  0
POLYLINE
  8
0
 62
0
 70
0
 66
1
 10
0.0
 20
0.0
 30
0.0
  0
VERTEX
  8
0
 10
119.083121
 20
240.086269
 30
0.0
  0
VERTEX
  8
0
 10
118.080291
 20
240.700699
 30
0.0
  0
SEQEND
  8
0
  0
POLYLINE
  8
0
 62
0
 70
0
 66
1
 10
0.0
 20
0.0
 30
0.0
  0
VERTEX
  8
0
 10
118.080291
 20
240.700699
 30
0.0
  0
VERTEX
  8
0
 10
117.184761
 20
241.465519
 30
0.0
  0
SEQEND
  8
0
  0
POLYLINE
  8
0
 62
0
 70
0
 66
1
 10
0.0
 20
0.0
 30
0.0
  0
VERTEX
  8
0
 10
116.420591
 20
242.360159
 30
0.0
  0
VERTEX
  8
0
 10
115.805391
 20
243.364099
 30
0.0
  0
SEQEND
  8
0
  0
POLYLINE
  8
0
 62
0
 70
0
 66
1
 10
0.0
 20
0.0
 30
0.0
  0
VERTEX
  8
0
 10
120.170201
 20
239.635959
 30
0.0
  0
VERTEX
  8
0
 10
119.083121
 20
240.086269
 30
0.0
  0
SEQEND
  8
0
  0
POLYLINE
  8
0
 62
0
 70
0
 66
1
 10
0.0
 20
0.0
 30
0.0
  0
VERTEX
  8
0
 10
155.07977
 20
243.087472
 30
0.0
  0
VERTEX
  8
0
 10
154.01911
 20
243.526812
 30
0.0
  0
SEQEND
  8
0
  0
POLYLINE
  8
0
 62
0
 70
0
 66
1
 10
0.0
 20
0.0
 30
0.0
  0
VERTEX
  8
0
 10
126.896631
 20
252.836994
 30
0.0
  0
VERTEX
  8
0
 10
128.556561
 20
251.176956
 30
0.0
  0
SEQEND
  8
0
  0
POLYLINE
  8
0
 62
0
 70
0
 66
1
 10
0.0
 20
0.0
 30
0.0
  0
VERTEX
  8
0
 10
118.079951
 20
252.837284
 30
0.0
  0
VERTEX
  8
0
 10
120.169411
 20
253.903529
 30
0.0
  0
SEQEND
  8
0
  0
POLYLINE
  8
0
 62
0
 70
0
 66
1
 10
0.0
 20
0.0
 30
0.0
  0
VERTEX
  8
0
 10
122.488061
 20
239.268779
 30
0.0
  0
VERTEX
  8
0
 10
121.315111
 20
239.361079
 30
0.0
  0
SEQEND
  8
0
  0
POLYLINE
  8
0
 62
0
 70
0
 66
1
 10
0.0
 20
0.0
 30
0.0
  0
VERTEX
  8
0
 10
124.806191
 20
253.903716
 30
0.0
  0
VERTEX
  8
0
 10
126.896631
 20
252.836994
 30
0.0
  0
SEQEND
  8
0
  0
POLYLINE
  8
0
 62
0
 70
0
 66
1
 10
0.0
 20
0.0
 30
0.0
  0
VERTEX
  8
0
 10
129.622801
 20
249.087498
 30
0.0
  0
VERTEX
  8
0
 10
129.988091
 20
246.768819
 30
0.0
  0
SEQEND
  8
0
  0
POLYLINE
  8
0
 62
0
 70
0
 66
1
 10
0.0
 20
0.0
 30
0.0
  0
VERTEX
  8
0
 10
155.07977
 20
246.087472
 30
0.0
  0
VERTEX
  8
0
 10
156.14043
 20
245.648132
 30
0.0
  0
SEQEND
  8
0
  0
POLYLINE
  8
0
 62
0
 70
0
 66
1
 10
0.0
 20
0.0
 30
0.0
  0
VERTEX
  8
0
 10
114.988091
 20
246.768819
 30
0.0
  0
VERTEX
  8
0
 10
115.353191
 20
249.086924
 30
0.0
  0
SEQEND
  8
0
  0
POLYLINE
  8
0
 62
0
 70
0
 66
1
 10
0.0
 20
0.0
 30
0.0
  0
VERTEX
  8
0
 10
128.556181
 20
242.360979
 30
0.0
  0
VERTEX
  8
0
 10
127.791361
 20
241.465449
 30
0.0
  0
SEQEND
  8
0
  0
POLYLINE
  8
0
 62
0
 70
0
 66
1
 10
0.0
 20
0.0
 30
0.0
  0
VERTEX
  8
0
 10
123.662101
 20
239.361179
 30
0.0
  0
VERTEX
  8
0
 10
122.488061
 20
239.268779
 30
0.0
  0
SEQEND
  8
0
  0
POLYLINE
  8
0
 62
0
 70
0
 66
1
 10
0.0
 20
0.0
 30
0.0
  0
VERTEX
  8
0
 10
121.315111
 20
239.361079
 30
0.0
  0
VERTEX
  8
0
 10
120.170201
 20
239.635959
 30
0.0
  0
SEQEND
  8
0
  0
POLYLINE
  8
0
 62
0
 70
0
 66
1
 10
0.0
 20
0.0
 30
0.0
  0
VERTEX
  8
0
 10
125.892781
 20
240.086079
 30
0.0
  0
VERTEX
  8
0
 10
124.805681
 20
239.635819
 30
0.0
  0
SEQEND
  8
0
  0
POLYLINE
  8
0
 62
0
 70
0
 66
1
 10
0.0
 20
0.0
 30
0.0
  0
VERTEX
  8
0
 10
115.353191
 20
249.086924
 30
0.0
  0
VERTEX
  8
0
 10
116.419911
 20
251.177355
 30
0.0
  0
SEQEND
  8
0
  0
POLYLINE
  8
0
 62
0
 70
0
 66
1
 10
0.0
 20
0.0
 30
0.0
  0
VERTEX
  8
0
 10
127.791361
 20
241.465449
 30
0.0
  0
VERTEX
  8
0
 10
126.896721
 20
240.701279
 30
0.0
  0
SEQEND
  8
0
  0
POLYLINE
  8
0
 62
0
 70
0
 66
1
 10
0.0
 20
0.0
 30
0.0
  0
VERTEX
  8
0
 10
124.805681
 20
239.635819
 30
0.0
  0
VERTEX
  8
0
 10
123.662101
 20
239.361179
 30
0.0
  0
SEQEND
  8
0
  0
POLYLINE
  8
0
 62
0
 70
0
 66
1
 10
0.0
 20
0.0
 30
0.0
  0
VERTEX
  8
0
 10
120.169411
 20
253.903529
 30
0.0
  0
VERTEX
  8
0
 10
122.488091
 20
254.268818
 30
0.0
  0
SEQEND
  8
0
  0
POLYLINE
  8
0
 62
0
 70
0
 66
1
 10
0.0
 20
0.0
 30
0.0
  0
VERTEX
  8
0
 10
129.170611
 20
243.363809
 30
0.0
  0
VERTEX
  8
0
 10
128.556181
 20
242.360979
 30
0.0
  0
SEQEND
  8
0
  0
POLYLINE
  8
0
 62
0
 70
0
 66
1
 10
0.0
 20
0.0
 30
0.0
  0
VERTEX
  8
0
 10
115.805391
 20
243.364099
 30
0.0
  0
VERTEX
  8
0
 10
115.355131
 20
244.451199
 30
0.0
  0
SEQEND
  8
0
  0
POLYLINE
  8
0
 62
0
 70
0
 66
1
 10
0.0
 20
0.0
 30
0.0
  0
VERTEX
  8
0
 10
126.896721
 20
240.701279
 30
0.0
  0
VERTEX
  8
0
 10
125.892781
 20
240.086079
 30
0.0
  0
SEQEND
  8
0
  0
POLYLINE
  8
0
 62
0
 70
0
 66
1
 10
0.0
 20
0.0
 30
0.0
  0
VERTEX
  8
0
 10
117.184761
 20
241.465519
 30
0.0
  0
VERTEX
  8
0
 10
116.420591
 20
242.360159
 30
0.0
  0
SEQEND
  8
0
  0
POLYLINE
  8
0
 62
0
 70
0
 66
1
 10
0.0
 20
0.0
 30
0.0
  0
VERTEX
  8
0
 10
115.080491
 20
245.594779
 30
0.0
  0
VERTEX
  8
0
 10
114.988091
 20
246.768819
 30
0.0
  0
SEQEND
  8
0
  0
POLYLINE
  8
0
 62
0
 70
0
 66
1
 10
0.0
 20
0.0
 30
0.0
  0
VERTEX
  8
0
 10
122.488091
 20
254.268818
 30
0.0
  0
VERTEX
  8
0
 10
124.806191
 20
253.903716
 30
0.0
  0
SEQEND
  8
0
  0
POLYLINE
  8
0
 62
0
 70
0
 66
1
 10
0.0
 20
0.0
 30
0.0
  0
VERTEX
  8
0
 10
128.556561
 20
251.176956
 30
0.0
  0
VERTEX
  8
0
 10
129.622801
 20
249.087498
 30
0.0
  0
SEQEND
  8
0
  0
POLYLINE
  8
0
 62
0
 70
0
 66
1
 10
0.0
 20
0.0
 30
0.0
  0
VERTEX
  8
0
 10
156.14043
 20
245.648132
 30
0.0
  0
VERTEX
  8
0
 10
156.57977
 20
244.587472
 30
0.0
  0
SEQEND
  8
0
  0
POLYLINE
  8
0
 62
0
 70
0
 66
1
 10
0.0
 20
0.0
 30
0.0
  0
VERTEX
  8
0
 10
156.57977
 20
244.587472
 30
0.0
  0
VERTEX
  8
0
 10
155.07977
 20
243.087472
 30
0.0
  0
SEQEND
  8
0
  0
POLYLINE
  8
0
 62
0
 70
0
 66
1
 10
0.0
 20
0.0
 30
0.0
  0
VERTEX
  8
0
 10
116.419911
 20
251.177355
 30
0.0
  0
VERTEX
  8
0
 10
118.079951
 20
252.837284
 30
0.0
  0
SEQEND
  8
0
  0
POLYLINE
  8
0
 62
0
 70
0
 66
1
 10
0.0
 20
0.0
 30
0.0
  0
VERTEX
  8
0
 10
154.01911
 20
243.526812
 30
0.0
  0
VERTEX
  8
0
 10
153.57977
 20
244.587472
 30
0.0
  0
SEQEND
  8
0
  0
POLYLINE
  8
0
 62
0
 70
0
 66
1
 10
0.0
 20
0.0
 30
0.0
  0
VERTEX
  8
0
 10
153.57977
 20
244.587472
 30
0.0
  0
VERTEX
  8
0
 10
154.01911
 20
245.648132
 30
0.0
  0
SEQEND
  8
0
  0
POLYLINE
  8
0
 62
0
 70
0
 66
1
 10
0.0
 20
0.0
 30
0.0
  0
VERTEX
  8
0
 10
154.01911
 20
245.648132
 30
0.0
  0
VERTEX
  8
0
 10
155.07977
 20
246.087472
 30
0.0
  0
SEQEND
  8
0
  0
POLYLINE
  8
0
 62
0
 70
0
 66
1
 10
0.0
 20
0.0
 30
0.0
  0
VERTEX
  8
0
 10
155.07977
 20
250.450028
 30
0.0
  0
VERTEX
  8
0
 10
156.14043
 20
250.010688
 30
0.0
  0
SEQEND
  8
0
  0
POLYLINE
  8
0
 62
0
 70
0
 66
1
 10
0.0
 20
0.0
 30
0.0
  0
VERTEX
  8
0
 10
156.14043
 20
250.010688
 30
0.0
  0
VERTEX
  8
0
 10
156.57977
 20
248.950028
 30
0.0
  0
SEQEND
  8
0
  0
POLYLINE
  8
0
 62
0
 70
0
 66
1
 10
0.0
 20
0.0
 30
0.0
  0
VERTEX
  8
0
 10
156.57977
 20
248.950028
 30
0.0
  0
VERTEX
  8
0
 10
156.14043
 20
247.889368
 30
0.0
  0
SEQEND
  8
0
  0
POLYLINE
  8
0
 62
0
 70
0
 66
1
 10
0.0
 20
0.0
 30
0.0
  0
VERTEX
  8
0
 10
156.14043
 20
247.889368
 30
0.0
  0
VERTEX
  8
0
 10
155.07977
 20
247.450028
 30
0.0
  0
SEQEND
  8
0
  0
POLYLINE
  8
0
 62
0
 70
0
 66
1
 10
0.0
 20
0.0
 30
0.0
  0
VERTEX
  8
0
 10
66.152027
 20
276.039277
 30
0.0
  0
VERTEX
  8
0
 10
67.516388
 20
275.779373
 30
0.0
  0
SEQEND
  8
0
  0
POLYLINE
  8
0
 62
0
 70
0
 66
1
 10
0.0
 20
0.0
 30
0.0
  0
VERTEX
  8
0
 10
60.575555
 20
277.29619
 30
0.0
  0
VERTEX
  8
0
 10
60.877492
 20
277.22672
 30
0.0
  0
SEQEND
  8
0
  0
POLYLINE
  8
0
 62
0
 70
0
 66
1
 10
0.0
 20
0.0
 30
0.0
  0
VERTEX
  8
0
 10
74.371975
 20
274.680167
 30
0.0
  0
VERTEX
  8
0
 10
75.749068
 20
274.495917
 30
0.0
  0
SEQEND
  8
0
  0
POLYLINE
  8
0
 62
0
 70
0
 66
1
 10
0.0
 20
0.0
 30
0.0
  0
VERTEX
  8
0
 10
77.126404
 20
274.322478
 30
0.0
  0
VERTEX
  8
0
 10
78.505706
 20
274.159166
 30
0.0
  0
SEQEND
  8
0
  0
POLYLINE
  8
0
 62
0
 70
0
 66
1
 10
0.0
 20
0.0
 30
0.0
  0
VERTEX
  8
0
 10
60.877492
 20
277.22672
 30
0.0
  0
VERTEX
  8
0
 10
61.179768
 20
277.15322
 30
0.0
  0
SEQEND
  8
0
  0
POLYLINE
  8
0
 62
0
 70
0
 66
1
 10
0.0
 20
0.0
 30
0.0
  0
VERTEX
  8
0
 10
96.506162
 20
272.812915
 30
0.0
  0
VERTEX
  8
0
 10
97.954944
 20
272.820415
 30
0.0
  0
SEQEND
  8
0
  0
POLYLINE
  8
0
 62
0
 70
0
 66
1
 10
0.0
 20
0.0
 30
0.0
  0
VERTEX
  8
0
 10
61.778835
 20
276.99653
 30
0.0
  0
VERTEX
  8
0
 10
62.078245
 20
276.9131
 30
0.0
  0
SEQEND
  8
0
  0
POLYLINE
  8
0
 62
0
 70
0
 66
1
 10
0.0
 20
0.0
 30
0.0
  0
VERTEX
  8
0
 10
62.078245
 20
276.9131
 30
0.0
  0
VERTEX
  8
0
 10
63.432566
 20
276.605208
 30
0.0
  0
SEQEND
  8
0
  0
POLYLINE
  8
0
 62
0
 70
0
 66
1
 10
0.0
 20
0.0
 30
0.0
  0
VERTEX
  8
0
 10
64.789714
 20
276.314451
 30
0.0
  0
VERTEX
  8
0
 10
66.152027
 20
276.039277
 30
0.0
  0
SEQEND
  8
0
  0
POLYLINE
  8
0
 62
0
 70
0
 66
1
 10
0.0
 20
0.0
 30
0.0
  0
VERTEX
  8
0
 10
67.516388
 20
275.779373
 30
0.0
  0
VERTEX
  8
0
 10
68.8824
 20
275.533913
 30
0.0
  0
SEQEND
  8
0
  0
POLYLINE
  8
0
 62
0
 70
0
 66
1
 10
0.0
 20
0.0
 30
0.0
  0
VERTEX
  8
0
 10
78.505706
 20
274.159166
 30
0.0
  0
VERTEX
  8
0
 10
79.885188
 20
274.005762
 30
0.0
  0
SEQEND
  8
0
  0
POLYLINE
  8
0
 62
0
 70
0
 66
1
 10
0.0
 20
0.0
 30
0.0
  0
VERTEX
  8
0
 10
61.480031
 20
277.07645
 30
0.0
  0
VERTEX
  8
0
 10
61.778835
 20
276.99653
 30
0.0
  0
SEQEND
  8
0
  0
POLYLINE
  8
0
 62
0
 70
0
 66
1
 10
0.0
 20
0.0
 30
0.0
  0
VERTEX
  8
0
 10
70.251905
 20
275.301781
 30
0.0
  0
VERTEX
  8
0
 10
71.623256
 20
275.082552
 30
0.0
  0
SEQEND
  8
0
  0
POLYLINE
  8
0
 62
0
 70
0
 66
1
 10
0.0
 20
0.0
 30
0.0
  0
VERTEX
  8
0
 10
79.885188
 20
274.005762
 30
0.0
  0
VERTEX
  8
0
 10
81.266035
 20
273.861734
 30
0.0
  0
SEQEND
  8
0
  0
POLYLINE
  8
0
 62
0
 70
0
 66
1
 10
0.0
 20
0.0
 30
0.0
  0
VERTEX
  8
0
 10
85.415485
 20
273.482584
 30
0.0
  0
VERTEX
  8
0
 10
86.800531
 20
273.37285
 30
0.0
  0
SEQEND
  8
0
  0
POLYLINE
  8
0
 62
0
 70
0
 66
1
 10
0.0
 20
0.0
 30
0.0
  0
VERTEX
  8
0
 10
86.800531
 20
273.37285
 30
0.0
  0
VERTEX
  8
0
 10
88.186292
 20
273.270995
 30
0.0
  0
SEQEND
  8
0
  0
POLYLINE
  8
0
 62
0
 70
0
 66
1
 10
0.0
 20
0.0
 30
0.0
  0
VERTEX
  8
0
 10
75.749068
 20
274.495917
 30
0.0
  0
VERTEX
  8
0
 10
77.126404
 20
274.322478
 30
0.0
  0
SEQEND
  8
0
  0
POLYLINE
  8
0
 62
0
 70
0
 66
1
 10
0.0
 20
0.0
 30
0.0
  0
VERTEX
  8
0
 10
72.996372
 20
274.87558
 30
0.0
  0
VERTEX
  8
0
 10
74.371975
 20
274.680167
 30
0.0
  0
SEQEND
  8
0
  0
POLYLINE
  8
0
 62
0
 70
0
 66
1
 10
0.0
 20
0.0
 30
0.0
  0
VERTEX
  8
0
 10
71.623256
 20
275.082552
 30
0.0
  0
VERTEX
  8
0
 10
72.996372
 20
274.87558
 30
0.0
  0
SEQEND
  8
0
  0
POLYLINE
  8
0
 62
0
 70
0
 66
1
 10
0.0
 20
0.0
 30
0.0
  0
VERTEX
  8
0
 10
63.432566
 20
276.605208
 30
0.0
  0
VERTEX
  8
0
 10
64.789714
 20
276.314451
 30
0.0
  0
SEQEND
  8
0
  0
POLYLINE
  8
0
 62
0
 70
0
 66
1
 10
0.0
 20
0.0
 30
0.0
  0
VERTEX
  8
0
 10
61.179768
 20
277.15322
 30
0.0
  0
VERTEX
  8
0
 10
61.480031
 20
277.07645
 30
0.0
  0
SEQEND
  8
0
  0
POLYLINE
  8
0
 62
0
 70
0
 66
1
 10
0.0
 20
0.0
 30
0.0
  0
VERTEX
  8
0
 10
82.649481
 20
273.72661
 30
0.0
  0
VERTEX
  8
0
 10
84.031966
 20
273.600396
 30
0.0
  0
SEQEND
  8
0
  0
POLYLINE
  8
0
 62
0
 70
0
 66
1
 10
0.0
 20
0.0
 30
0.0
  0
VERTEX
  8
0
 10
88.186292
 20
273.270995
 30
0.0
  0
VERTEX
  8
0
 10
89.571065
 20
273.176885
 30
0.0
  0
SEQEND
  8
0
  0
POLYLINE
  8
0
 62
0
 70
0
 66
1
 10
0.0
 20
0.0
 30
0.0
  0
VERTEX
  8
0
 10
89.571065
 20
273.176885
 30
0.0
  0
VERTEX
  8
0
 10
90.957884
 20
273.090065
 30
0.0
  0
SEQEND
  8
0
  0
POLYLINE
  8
0
 62
0
 70
0
 66
1
 10
0.0
 20
0.0
 30
0.0
  0
VERTEX
  8
0
 10
84.031966
 20
273.600396
 30
0.0
  0
VERTEX
  8
0
 10
85.415485
 20
273.482584
 30
0.0
  0
SEQEND
  8
0
  0
POLYLINE
  8
0
 62
0
 70
0
 66
1
 10
0.0
 20
0.0
 30
0.0
  0
VERTEX
  8
0
 10
68.8824
 20
275.533913
 30
0.0
  0
VERTEX
  8
0
 10
70.251905
 20
275.301781
 30
0.0
  0
SEQEND
  8
0
  0
POLYLINE
  8
0
 62
0
 70
0
 66
1
 10
0.0
 20
0.0
 30
0.0
  0
VERTEX
  8
0
 10
90.957884
 20
273.090065
 30
0.0
  0
VERTEX
  8
0
 10
92.3446
 20
273.010475
 30
0.0
  0
SEQEND
  8
0
  0
POLYLINE
  8
0
 62
0
 70
0
 66
1
 10
0.0
 20
0.0
 30
0.0
  0
VERTEX
  8
0
 10
92.3446
 20
273.010475
 30
0.0
  0
VERTEX
  8
0
 10
93.73085
 20
272.937915
 30
0.0
  0
SEQEND
  8
0
  0
POLYLINE
  8
0
 62
0
 70
0
 66
1
 10
0.0
 20
0.0
 30
0.0
  0
VERTEX
  8
0
 10
93.73085
 20
272.937915
 30
0.0
  0
VERTEX
  8
0
 10
95.117909
 20
272.872125
 30
0.0
  0
SEQEND
  8
0
  0
POLYLINE
  8
0
 62
0
 70
0
 66
1
 10
0.0
 20
0.0
 30
0.0
  0
VERTEX
  8
0
 10
95.117909
 20
272.872125
 30
0.0
  0
VERTEX
  8
0
 10
96.506162
 20
272.812915
 30
0.0
  0
SEQEND
  8
0
  0
POLYLINE
  8
0
 62
0
 70
0
 66
1
 10
0.0
 20
0.0
 30
0.0
  0
VERTEX
  8
0
 10
81.266035
 20
273.861734
 30
0.0
  0
VERTEX
  8
0
 10
82.649481
 20
273.72661
 30
0.0
  0
SEQEND
  8
0
  0
POLYLINE
  8
0
 62
0
 70
0
 66
1
 10
0.0
 20
0.0
 30
0.0
  0
VERTEX
  8
0
 10
119.60148
 20
274.549299
 30
0.0
  0
VERTEX
  8
0
 10
121.03287
 20
274.776747
 30
0.0
  0
SEQEND
  8
0
  0
POLYLINE
  8
0
 62
0
 70
0
 66
1
 10
0.0
 20
0.0
 30
0.0
  0
VERTEX
  8
0
 10
99.403683
 20
272.840875
 30
0.0
  0
VERTEX
  8
0
 10
100.85157
 20
272.874395
 30
0.0
  0
SEQEND
  8
0
  0
POLYLINE
  8
0
 62
0
 70
0
 66
1
 10
0.0
 20
0.0
 30
0.0
  0
VERTEX
  8
0
 10
113.85624
 20
273.782893
 30
0.0
  0
VERTEX
  8
0
 10
115.29584
 20
273.953208
 30
0.0
  0
SEQEND
  8
0
  0
POLYLINE
  8
0
 62
0
 70
0
 66
1
 10
0.0
 20
0.0
 30
0.0
  0
VERTEX
  8
0
 10
122.46136
 20
275.018555
 30
0.0
  0
VERTEX
  8
0
 10
123.88704
 20
275.274801
 30
0.0
  0
SEQEND
  8
0
  0
POLYLINE
  8
0
 62
0
 70
0
 66
1
 10
0.0
 20
0.0
 30
0.0
  0
VERTEX
  8
0
 10
129.5626
 20
276.445729
 30
0.0
  0
VERTEX
  8
0
 10
130.97268
 20
276.774824
 30
0.0
  0
SEQEND
  8
0
  0
POLYLINE
  8
0
 62
0
 70
0
 66
1
 10
0.0
 20
0.0
 30
0.0
  0
VERTEX
  8
0
 10
123.88704
 20
275.274801
 30
0.0
  0
VERTEX
  8
0
 10
125.31094
 20
275.545754
 30
0.0
  0
SEQEND
  8
0
  0
POLYLINE
  8
0
 62
0
 70
0
 66
1
 10
0.0
 20
0.0
 30
0.0
  0
VERTEX
  8
0
 10
116.73276
 20
274.137594
 30
0.0
  0
VERTEX
  8
0
 10
118.16803
 20
274.336266
 30
0.0
  0
SEQEND
  8
0
  0
POLYLINE
  8
0
 62
0
 70
0
 66
1
 10
0.0
 20
0.0
 30
0.0
  0
VERTEX
  8
0
 10
105.19365
 20
273.054525
 30
0.0
  0
VERTEX
  8
0
 10
106.64098
 20
273.141555
 30
0.0
  0
SEQEND
  8
0
  0
POLYLINE
  8
0
 62
0
 70
0
 66
1
 10
0.0
 20
0.0
 30
0.0
  0
VERTEX
  8
0
 10
125.31094
 20
275.545754
 30
0.0
  0
VERTEX
  8
0
 10
126.73175
 20
275.831243
 30
0.0
  0
SEQEND
  8
0
  0
POLYLINE
  8
0
 62
0
 70
0
 66
1
 10
0.0
 20
0.0
 30
0.0
  0
VERTEX
  8
0
 10
97.954944
 20
272.820415
 30
0.0
  0
VERTEX
  8
0
 10
99.403683
 20
272.840875
 30
0.0
  0
SEQEND
  8
0
  0
POLYLINE
  8
0
 62
0
 70
0
 66
1
 10
0.0
 20
0.0
 30
0.0
  0
VERTEX
  8
0
 10
134.40947
 20
277.511289
 30
0.0
  0
VERTEX
  8
0
 10
134.66403
 20
277.546879
 30
0.0
  0
SEQEND
  8
0
  0
POLYLINE
  8
0
 62
0
 70
0
 66
1
 10
0.0
 20
0.0
 30
0.0
  0
VERTEX
  8
0
 10
102.30023
 20
272.921125
 30
0.0
  0
VERTEX
  8
0
 10
103.74752
 20
272.981135
 30
0.0
  0
SEQEND
  8
0
  0
POLYLINE
  8
0
 62
0
 70
0
 66
1
 10
0.0
 20
0.0
 30
0.0
  0
VERTEX
  8
0
 10
133.89882
 20
277.430609
 30
0.0
  0
VERTEX
  8
0
 10
134.15413
 20
277.472499
 30
0.0
  0
SEQEND
  8
0
  0
POLYLINE
  8
0
 62
0
 70
0
 66
1
 10
0.0
 20
0.0
 30
0.0
  0
VERTEX
  8
0
 10
103.74752
 20
272.981135
 30
0.0
  0
VERTEX
  8
0
 10
105.19365
 20
273.054525
 30
0.0
  0
SEQEND
  8
0
  0
POLYLINE
  8
0
 62
0
 70
0
 66
1
 10
0.0
 20
0.0
 30
0.0
  0
VERTEX
  8
0
 10
110.9741
 20
273.484688
 30
0.0
  0
VERTEX
  8
0
 10
112.41574
 20
273.626767
 30
0.0
  0
SEQEND
  8
0
  0
POLYLINE
  8
0
 62
0
 70
0
 66
1
 10
0.0
 20
0.0
 30
0.0
  0
VERTEX
  8
0
 10
106.64098
 20
273.141555
 30
0.0
  0
VERTEX
  8
0
 10
108.08544
 20
273.242089
 30
0.0
  0
SEQEND
  8
0
  0
POLYLINE
  8
0
 62
0
 70
0
 66
1
 10
0.0
 20
0.0
 30
0.0
  0
VERTEX
  8
0
 10
121.03287
 20
274.776747
 30
0.0
  0
VERTEX
  8
0
 10
122.46136
 20
275.018555
 30
0.0
  0
SEQEND
  8
0
  0
POLYLINE
  8
0
 62
0
 70
0
 66
1
 10
0.0
 20
0.0
 30
0.0
  0
VERTEX
  8
0
 10
128.1496
 20
276.131357
 30
0.0
  0
VERTEX
  8
0
 10
129.5626
 20
276.445729
 30
0.0
  0
SEQEND
  8
0
  0
POLYLINE
  8
0
 62
0
 70
0
 66
1
 10
0.0
 20
0.0
 30
0.0
  0
VERTEX
  8
0
 10
109.53053
 20
273.356481
 30
0.0
  0
VERTEX
  8
0
 10
110.9741
 20
273.484688
 30
0.0
  0
SEQEND
  8
0
  0
POLYLINE
  8
0
 62
0
 70
0
 66
1
 10
0.0
 20
0.0
 30
0.0
  0
VERTEX
  8
0
 10
115.29584
 20
273.953208
 30
0.0
  0
VERTEX
  8
0
 10
116.73276
 20
274.137594
 30
0.0
  0
SEQEND
  8
0
  0
POLYLINE
  8
0
 62
0
 70
0
 66
1
 10
0.0
 20
0.0
 30
0.0
  0
VERTEX
  8
0
 10
132.38086
 20
277.118959
 30
0.0
  0
VERTEX
  8
0
 10
132.63241
 20
277.177779
 30
0.0
  0
SEQEND
  8
0
  0
POLYLINE
  8
0
 62
0
 70
0
 66
1
 10
0.0
 20
0.0
 30
0.0
  0
VERTEX
  8
0
 10
130.97268
 20
276.774824
 30
0.0
  0
VERTEX
  8
0
 10
132.38086
 20
277.118959
 30
0.0
  0
SEQEND
  8
0
  0
POLYLINE
  8
0
 62
0
 70
0
 66
1
 10
0.0
 20
0.0
 30
0.0
  0
VERTEX
  8
0
 10
112.41574
 20
273.626767
 30
0.0
  0
VERTEX
  8
0
 10
113.85624
 20
273.782893
 30
0.0
  0
SEQEND
  8
0
  0
POLYLINE
  8
0
 62
0
 70
0
 66
1
 10
0.0
 20
0.0
 30
0.0
  0
VERTEX
  8
0
 10
118.16803
 20
274.336266
 30
0.0
  0
VERTEX
  8
0
 10
119.60148
 20
274.549299
 30
0.0
  0
SEQEND
  8
0
  0
POLYLINE
  8
0
 62
0
 70
0
 66
1
 10
0.0
 20
0.0
 30
0.0
  0
VERTEX
  8
0
 10
108.08544
 20
273.242089
 30
0.0
  0
VERTEX
  8
0
 10
109.53053
 20
273.356481
 30
0.0
  0
SEQEND
  8
0
  0
POLYLINE
  8
0
 62
0
 70
0
 66
1
 10
0.0
 20
0.0
 30
0.0
  0
VERTEX
  8
0
 10
100.85157
 20
272.874395
 30
0.0
  0
VERTEX
  8
0
 10
102.30023
 20
272.921125
 30
0.0
  0
SEQEND
  8
0
  0
POLYLINE
  8
0
 62
0
 70
0
 66
1
 10
0.0
 20
0.0
 30
0.0
  0
VERTEX
  8
0
 10
126.73175
 20
275.831243
 30
0.0
  0
VERTEX
  8
0
 10
128.1496
 20
276.131357
 30
0.0
  0
SEQEND
  8
0
  0
POLYLINE
  8
0
 62
0
 70
0
 66
1
 10
0.0
 20
0.0
 30
0.0
  0
VERTEX
  8
0
 10
132.63241
 20
277.177779
 30
0.0
  0
VERTEX
  8
0
 10
132.88476
 20
277.233999
 30
0.0
  0
SEQEND
  8
0
  0
POLYLINE
  8
0
 62
0
 70
0
 66
1
 10
0.0
 20
0.0
 30
0.0
  0
VERTEX
  8
0
 10
133.13739
 20
277.287429
 30
0.0
  0
VERTEX
  8
0
 10
133.39042
 20
277.338009
 30
0.0
  0
SEQEND
  8
0
  0
POLYLINE
  8
0
 62
0
 70
0
 66
1
 10
0.0
 20
0.0
 30
0.0
  0
VERTEX
  8
0
 10
133.39042
 20
277.338009
 30
0.0
  0
VERTEX
  8
0
 10
133.644
 20
277.385719
 30
0.0
  0
SEQEND
  8
0
  0
POLYLINE
  8
0
 62
0
 70
0
 66
1
 10
0.0
 20
0.0
 30
0.0
  0
VERTEX
  8
0
 10
133.644
 20
277.385719
 30
0.0
  0
VERTEX
  8
0
 10
133.89882
 20
277.430609
 30
0.0
  0
SEQEND
  8
0
  0
POLYLINE
  8
0
 62
0
 70
0
 66
1
 10
0.0
 20
0.0
 30
0.0
  0
VERTEX
  8
0
 10
132.88476
 20
277.233999
 30
0.0
  0
VERTEX
  8
0
 10
133.13739
 20
277.287429
 30
0.0
  0
SEQEND
  8
0
  0
POLYLINE
  8
0
 62
0
 70
0
 66
1
 10
0.0
 20
0.0
 30
0.0
  0
VERTEX
  8
0
 10
134.15413
 20
277.472499
 30
0.0
  0
VERTEX
  8
0
 10
134.40947
 20
277.511289
 30
0.0
  0
SEQEND
  8
0
  0
POLYLINE
  8
0
 62
0
 70
0
 66
1
 10
0.0
 20
0.0
 30
0.0
  0
VERTEX
  8
0
 10
34.620613
 20
270.74464
 30
0.0
  0
VERTEX
  8
0
 10
36.160798
 20
271.940943
 30
0.0
  0
SEQEND
  8
0
  0
POLYLINE
  8
0
 62
0
 70
0
 66
1
 10
0.0
 20
0.0
 30
0.0
  0
VERTEX
  8
0
 10
33.156946
 20
269.45334
 30
0.0
  0
VERTEX
  8
0
 10
34.620613
 20
270.74464
 30
0.0
  0
SEQEND
  8
0
  0
POLYLINE
  8
0
 62
0
 70
0
 66
1
 10
0.0
 20
0.0
 30
0.0
  0
VERTEX
  8
0
 10
44.813904
 20
276.356677
 30
0.0
  0
VERTEX
  8
0
 10
46.687024
 20
276.899989
 30
0.0
  0
SEQEND
  8
0
  0
POLYLINE
  8
0
 62
0
 70
0
 66
1
 10
0.0
 20
0.0
 30
0.0
  0
VERTEX
  8
0
 10
54.411726
 20
277.868548
 30
0.0
  0
VERTEX
  8
0
 10
54.721501
 20
277.86782
 30
0.0
  0
SEQEND
  8
0
  0
POLYLINE
  8
0
 62
0
 70
0
 66
1
 10
0.0
 20
0.0
 30
0.0
  0
VERTEX
  8
0
 10
27.197279
 20
261.77927
 30
0.0
  0
VERTEX
  8
0
 10
28.192227
 20
263.458079
 30
0.0
  0
SEQEND
  8
0
  0
POLYLINE
  8
0
 62
0
 70
0
 66
1
 10
0.0
 20
0.0
 30
0.0
  0
VERTEX
  8
0
 10
55.34156
 20
277.86142
 30
0.0
  0
VERTEX
  8
0
 10
55.652763
 20
277.85522
 30
0.0
  0
SEQEND
  8
0
  0
POLYLINE
  8
0
 62
0
 70
0
 66
1
 10
0.0
 20
0.0
 30
0.0
  0
VERTEX
  8
0
 10
55.962751
 20
277.84672
 30
0.0
  0
VERTEX
  8
0
 10
56.27324
 20
277.8357
 30
0.0
  0
SEQEND
  8
0
  0
POLYLINE
  8
0
 62
0
 70
0
 66
1
 10
0.0
 20
0.0
 30
0.0
  0
VERTEX
  8
0
 10
56.582146
 20
277.82195
 30
0.0
  0
VERTEX
  8
0
 10
56.891071
 20
277.80515
 30
0.0
  0
SEQEND
  8
0
  0
POLYLINE
  8
0
 62
0
 70
0
 66
1
 10
0.0
 20
0.0
 30
0.0
  0
VERTEX
  8
0
 10
31.777592
 20
268.074015
 30
0.0
  0
VERTEX
  8
0
 10
33.156946
 20
269.45334
 30
0.0
  0
SEQEND
  8
0
  0
POLYLINE
  8
0
 62
0
 70
0
 66
1
 10
0.0
 20
0.0
 30
0.0
  0
VERTEX
  8
0
 10
46.687024
 20
276.899989
 30
0.0
  0
VERTEX
  8
0
 10
48.592345
 20
277.324072
 30
0.0
  0
SEQEND
  8
0
  0
POLYLINE
  8
0
 62
0
 70
0
 66
1
 10
0.0
 20
0.0
 30
0.0
  0
VERTEX
  8
0
 10
57.200488
 20
277.785
 30
0.0
  0
VERTEX
  8
0
 10
57.510934
 20
277.76119
 30
0.0
  0
SEQEND
  8
0
  0
POLYLINE
  8
0
 62
0
 70
0
 66
1
 10
0.0
 20
0.0
 30
0.0
  0
VERTEX
  8
0
 10
59.96885
 20
277.42328
 30
0.0
  0
VERTEX
  8
0
 10
60.273036
 20
277.36169
 30
0.0
  0
SEQEND
  8
0
  0
POLYLINE
  8
0
 62
0
 70
0
 66
1
 10
0.0
 20
0.0
 30
0.0
  0
VERTEX
  8
0
 10
30.487173
 20
266.611476
 30
0.0
  0
VERTEX
  8
0
 10
31.777592
 20
268.074015
 30
0.0
  0
SEQEND
  8
0
  0
POLYLINE
  8
0
 62
0
 70
0
 66
1
 10
0.0
 20
0.0
 30
0.0
  0
VERTEX
  8
0
 10
41.188662
 20
274.920202
 30
0.0
  0
VERTEX
  8
0
 10
42.978656
 20
275.695834
 30
0.0
  0
SEQEND
  8
0
  0
POLYLINE
  8
0
 62
0
 70
0
 66
1
 10
0.0
 20
0.0
 30
0.0
  0
VERTEX
  8
0
 10
37.772761
 20
273.038485
 30
0.0
  0
VERTEX
  8
0
 10
39.451589
 20
274.033413
 30
0.0
  0
SEQEND
  8
0
  0
POLYLINE
  8
0
 62
0
 70
0
 66
1
 10
0.0
 20
0.0
 30
0.0
  0
VERTEX
  8
0
 10
50.520341
 20
277.627034
 30
0.0
  0
VERTEX
  8
0
 10
52.463142
 20
277.808388
 30
0.0
  0
SEQEND
  8
0
  0
POLYLINE
  8
0
 62
0
 70
0
 66
1
 10
0.0
 20
0.0
 30
0.0
  0
VERTEX
  8
0
 10
58.743718
 20
277.62673
 30
0.0
  0
VERTEX
  8
0
 10
59.051314
 20
277.5824
 30
0.0
  0
SEQEND
  8
0
  0
POLYLINE
  8
0
 62
0
 70
0
 66
1
 10
0.0
 20
0.0
 30
0.0
  0
VERTEX
  8
0
 10
57.819896
 20
277.73368
 30
0.0
  0
VERTEX
  8
0
 10
58.12854
 20
277.70219
 30
0.0
  0
SEQEND
  8
0
  0
POLYLINE
  8
0
 62
0
 70
0
 66
1
 10
0.0
 20
0.0
 30
0.0
  0
VERTEX
  8
0
 10
58.12854
 20
277.70219
 30
0.0
  0
VERTEX
  8
0
 10
58.435769
 20
277.66667
 30
0.0
  0
SEQEND
  8
0
  0
POLYLINE
  8
0
 62
0
 70
0
 66
1
 10
0.0
 20
0.0
 30
0.0
  0
VERTEX
  8
0
 10
57.510934
 20
277.76119
 30
0.0
  0
VERTEX
  8
0
 10
57.819896
 20
277.73368
 30
0.0
  0
SEQEND
  8
0
  0
POLYLINE
  8
0
 62
0
 70
0
 66
1
 10
0.0
 20
0.0
 30
0.0
  0
VERTEX
  8
0
 10
56.891071
 20
277.80515
 30
0.0
  0
VERTEX
  8
0
 10
57.200488
 20
277.785
 30
0.0
  0
SEQEND
  8
0
  0
POLYLINE
  8
0
 62
0
 70
0
 66
1
 10
0.0
 20
0.0
 30
0.0
  0
VERTEX
  8
0
 10
28.192227
 20
263.458079
 30
0.0
  0
VERTEX
  8
0
 10
29.289718
 20
265.069927
 30
0.0
  0
SEQEND
  8
0
  0
POLYLINE
  8
0
 62
0
 70
0
 66
1
 10
0.0
 20
0.0
 30
0.0
  0
VERTEX
  8
0
 10
48.592345
 20
277.324072
 30
0.0
  0
VERTEX
  8
0
 10
50.520341
 20
277.627034
 30
0.0
  0
SEQEND
  8
0
  0
POLYLINE
  8
0
 62
0
 70
0
 66
1
 10
0.0
 20
0.0
 30
0.0
  0
VERTEX
  8
0
 10
26.310107
 20
260.041443
 30
0.0
  0
VERTEX
  8
0
 10
27.197279
 20
261.77927
 30
0.0
  0
SEQEND
  8
0
  0
POLYLINE
  8
0
 62
0
 70
0
 66
1
 10
0.0
 20
0.0
 30
0.0
  0
VERTEX
  8
0
 10
29.289718
 20
265.069927
 30
0.0
  0
VERTEX
  8
0
 10
30.487173
 20
266.611476
 30
0.0
  0
SEQEND
  8
0
  0
POLYLINE
  8
0
 62
0
 70
0
 66
1
 10
0.0
 20
0.0
 30
0.0
  0
VERTEX
  8
0
 10
36.160798
 20
271.940943
 30
0.0
  0
VERTEX
  8
0
 10
37.772761
 20
273.038485
 30
0.0
  0
SEQEND
  8
0
  0
POLYLINE
  8
0
 62
0
 70
0
 66
1
 10
0.0
 20
0.0
 30
0.0
  0
VERTEX
  8
0
 10
39.451589
 20
274.033413
 30
0.0
  0
VERTEX
  8
0
 10
41.188662
 20
274.920202
 30
0.0
  0
SEQEND
  8
0
  0
POLYLINE
  8
0
 62
0
 70
0
 66
1
 10
0.0
 20
0.0
 30
0.0
  0
VERTEX
  8
0
 10
42.978656
 20
275.695834
 30
0.0
  0
VERTEX
  8
0
 10
44.813904
 20
276.356677
 30
0.0
  0
SEQEND
  8
0
  0
POLYLINE
  8
0
 62
0
 70
0
 66
1
 10
0.0
 20
0.0
 30
0.0
  0
VERTEX
  8
0
 10
52.463142
 20
277.808388
 30
0.0
  0
VERTEX
  8
0
 10
54.411726
 20
277.868548
 30
0.0
  0
SEQEND
  8
0
  0
POLYLINE
  8
0
 62
0
 70
0
 66
1
 10
0.0
 20
0.0
 30
0.0
  0
VERTEX
  8
0
 10
54.721501
 20
277.86782
 30
0.0
  0
VERTEX
  8
0
 10
55.03164
 20
277.86552
 30
0.0
  0
SEQEND
  8
0
  0
POLYLINE
  8
0
 62
0
 70
0
 66
1
 10
0.0
 20
0.0
 30
0.0
  0
VERTEX
  8
0
 10
55.03164
 20
277.86552
 30
0.0
  0
VERTEX
  8
0
 10
55.34156
 20
277.86142
 30
0.0
  0
SEQEND
  8
0
  0
POLYLINE
  8
0
 62
0
 70
0
 66
1
 10
0.0
 20
0.0
 30
0.0
  0
VERTEX
  8
0
 10
55.652763
 20
277.85522
 30
0.0
  0
VERTEX
  8
0
 10
55.962751
 20
277.84672
 30
0.0
  0
SEQEND
  8
0
  0
POLYLINE
  8
0
 62
0
 70
0
 66
1
 10
0.0
 20
0.0
 30
0.0
  0
VERTEX
  8
0
 10
56.27324
 20
277.8357
 30
0.0
  0
VERTEX
  8
0
 10
56.582146
 20
277.82195
 30
0.0
  0
SEQEND
  8
0
  0
POLYLINE
  8
0
 62
0
 70
0
 66
1
 10
0.0
 20
0.0
 30
0.0
  0
VERTEX
  8
0
 10
58.435769
 20
277.66667
 30
0.0
  0
VERTEX
  8
0
 10
58.743718
 20
277.62673
 30
0.0
  0
SEQEND
  8
0
  0
POLYLINE
  8
0
 62
0
 70
0
 66
1
 10
0.0
 20
0.0
 30
0.0
  0
VERTEX
  8
0
 10
59.051314
 20
277.5824
 30
0.0
  0
VERTEX
  8
0
 10
59.357339
 20
277.53381
 30
0.0
  0
SEQEND
  8
0
  0
POLYLINE
  8
0
 62
0
 70
0
 66
1
 10
0.0
 20
0.0
 30
0.0
  0
VERTEX
  8
0
 10
59.357339
 20
277.53381
 30
0.0
  0
VERTEX
  8
0
 10
59.663282
 20
277.48075
 30
0.0
  0
SEQEND
  8
0
  0
POLYLINE
  8
0
 62
0
 70
0
 66
1
 10
0.0
 20
0.0
 30
0.0
  0
VERTEX
  8
0
 10
59.663282
 20
277.48075
 30
0.0
  0
VERTEX
  8
0
 10
59.96885
 20
277.42328
 30
0.0
  0
SEQEND
  8
0
  0
POLYLINE
  8
0
 62
0
 70
0
 66
1
 10
0.0
 20
0.0
 30
0.0
  0
VERTEX
  8
0
 10
60.273036
 20
277.36169
 30
0.0
  0
VERTEX
  8
0
 10
60.575555
 20
277.29619
 30
0.0
  0
SEQEND
  8
0
  0
POLYLINE
  8
0
 62
0
 70
0
 66
1
 10
0.0
 20
0.0
 30
0.0
  0
VERTEX
  8
0
 10
72.864049
 20
221.844647
 30
0.0
  0
VERTEX
  8
0
 10
72.112426
 20
221.355451
 30
0.0
  0
SEQEND
  8
0
  0
POLYLINE
  8
0
 62
0
 70
0
 66
1
 10
0.0
 20
0.0
 30
0.0
  0
VERTEX
  8
0
 10
72.112426
 20
221.355451
 30
0.0
  0
VERTEX
  8
0
 10
71.352455
 20
220.881173
 30
0.0
  0
SEQEND
  8
0
  0
POLYLINE
  8
0
 62
0
 70
0
 66
1
 10
0.0
 20
0.0
 30
0.0
  0
VERTEX
  8
0
 10
86.661194
 20
228.493293
 30
0.0
  0
VERTEX
  8
0
 10
85.782145
 20
228.26382
 30
0.0
  0
SEQEND
  8
0
  0
POLYLINE
  8
0
 62
0
 70
0
 66
1
 10
0.0
 20
0.0
 30
0.0
  0
VERTEX
  8
0
 10
79.815481
 20
226.066268
 30
0.0
  0
VERTEX
  8
0
 10
78.997752
 20
225.669583
 30
0.0
  0
SEQEND
  8
0
  0
POLYLINE
  8
0
 62
0
 70
0
 66
1
 10
0.0
 20
0.0
 30
0.0
  0
VERTEX
  8
0
 10
90.228251
 20
229.203374
 30
0.0
  0
VERTEX
  8
0
 10
89.330474
 20
229.056866
 30
0.0
  0
SEQEND
  8
0
  0
POLYLINE
  8
0
 62
0
 70
0
 66
1
 10
0.0
 20
0.0
 30
0.0
  0
VERTEX
  8
0
 10
78.189204
 20
225.252354
 30
0.0
  0
VERTEX
  8
0
 10
77.391945
 20
224.815749
 30
0.0
  0
SEQEND
  8
0
  0
POLYLINE
  8
0
 62
0
 70
0
 66
1
 10
0.0
 20
0.0
 30
0.0
  0
VERTEX
  8
0
 10
77.391945
 20
224.815749
 30
0.0
  0
VERTEX
  8
0
 10
76.604736
 20
224.359216
 30
0.0
  0
SEQEND
  8
0
  0
POLYLINE
  8
0
 62
0
 70
0
 66
1
 10
0.0
 20
0.0
 30
0.0
  0
VERTEX
  8
0
 10
81.48067
 20
226.798941
 30
0.0
  0
VERTEX
  8
0
 10
80.64395
 20
226.443106
 30
0.0
  0
SEQEND
  8
0
  0
POLYLINE
  8
0
 62
0
 70
0
 66
1
 10
0.0
 20
0.0
 30
0.0
  0
VERTEX
  8
0
 10
71.352455
 20
220.881173
 30
0.0
  0
VERTEX
  8
0
 10
70.582832
 20
220.421962
 30
0.0
  0
SEQEND
  8
0
  0
POLYLINE
  8
0
 62
0
 70
0
 66
1
 10
0.0
 20
0.0
 30
0.0
  0
VERTEX
  8
0
 10
70.582832
 20
220.421962
 30
0.0
  0
VERTEX
  8
0
 10
69.803052
 20
219.978533
 30
0.0
  0
SEQEND
  8
0
  0
POLYLINE
  8
0
 62
0
 70
0
 66
1
 10
0.0
 20
0.0
 30
0.0
  0
VERTEX
  8
0
 10
84.040221
 20
227.741112
 30
0.0
  0
VERTEX
  8
0
 10
83.179052
 20
227.447967
 30
0.0
  0
SEQEND
  8
0
  0
POLYLINE
  8
0
 62
0
 70
0
 66
1
 10
0.0
 20
0.0
 30
0.0
  0
VERTEX
  8
0
 10
89.330474
 20
229.056866
 30
0.0
  0
VERTEX
  8
0
 10
88.437299
 20
228.889994
 30
0.0
  0
SEQEND
  8
0
  0
POLYLINE
  8
0
 62
0
 70
0
 66
1
 10
0.0
 20
0.0
 30
0.0
  0
VERTEX
  8
0
 10
87.546937
 20
228.702116
 30
0.0
  0
VERTEX
  8
0
 10
86.661194
 20
228.493293
 30
0.0
  0
SEQEND
  8
0
  0
POLYLINE
  8
0
 62
0
 70
0
 66
1
 10
0.0
 20
0.0
 30
0.0
  0
VERTEX
  8
0
 10
83.179052
 20
227.447967
 30
0.0
  0
VERTEX
  8
0
 10
82.325265
 20
227.133705
 30
0.0
  0
SEQEND
  8
0
  0
POLYLINE
  8
0
 62
0
 70
0
 66
1
 10
0.0
 20
0.0
 30
0.0
  0
VERTEX
  8
0
 10
88.437299
 20
228.889994
 30
0.0
  0
VERTEX
  8
0
 10
87.546937
 20
228.702116
 30
0.0
  0
SEQEND
  8
0
  0
POLYLINE
  8
0
 62
0
 70
0
 66
1
 10
0.0
 20
0.0
 30
0.0
  0
VERTEX
  8
0
 10
82.325265
 20
227.133705
 30
0.0
  0
VERTEX
  8
0
 10
81.48067
 20
226.798941
 30
0.0
  0
SEQEND
  8
0
  0
POLYLINE
  8
0
 62
0
 70
0
 66
1
 10
0.0
 20
0.0
 30
0.0
  0
VERTEX
  8
0
 10
76.604736
 20
224.359216
 30
0.0
  0
VERTEX
  8
0
 10
75.829507
 20
223.884024
 30
0.0
  0
SEQEND
  8
0
  0
POLYLINE
  8
0
 62
0
 70
0
 66
1
 10
0.0
 20
0.0
 30
0.0
  0
VERTEX
  8
0
 10
75.829507
 20
223.884024
 30
0.0
  0
VERTEX
  8
0
 10
75.065112
 20
223.389663
 30
0.0
  0
SEQEND
  8
0
  0
POLYLINE
  8
0
 62
0
 70
0
 66
1
 10
0.0
 20
0.0
 30
0.0
  0
VERTEX
  8
0
 10
85.782145
 20
228.26382
 30
0.0
  0
VERTEX
  8
0
 10
84.908387
 20
228.013149
 30
0.0
  0
SEQEND
  8
0
  0
POLYLINE
  8
0
 62
0
 70
0
 66
1
 10
0.0
 20
0.0
 30
0.0
  0
VERTEX
  8
0
 10
80.64395
 20
226.443106
 30
0.0
  0
VERTEX
  8
0
 10
79.815481
 20
226.066268
 30
0.0
  0
SEQEND
  8
0
  0
POLYLINE
  8
0
 62
0
 70
0
 66
1
 10
0.0
 20
0.0
 30
0.0
  0
VERTEX
  8
0
 10
75.065112
 20
223.389663
 30
0.0
  0
VERTEX
  8
0
 10
74.339611
 20
222.86219
 30
0.0
  0
SEQEND
  8
0
  0
POLYLINE
  8
0
 62
0
 70
0
 66
1
 10
0.0
 20
0.0
 30
0.0
  0
VERTEX
  8
0
 10
74.339611
 20
222.86219
 30
0.0
  0
VERTEX
  8
0
 10
73.606414
 20
222.34721
 30
0.0
  0
SEQEND
  8
0
  0
POLYLINE
  8
0
 62
0
 70
0
 66
1
 10
0.0
 20
0.0
 30
0.0
  0
VERTEX
  8
0
 10
78.997752
 20
225.669583
 30
0.0
  0
VERTEX
  8
0
 10
78.189204
 20
225.252354
 30
0.0
  0
SEQEND
  8
0
  0
POLYLINE
  8
0
 62
0
 70
0
 66
1
 10
0.0
 20
0.0
 30
0.0
  0
VERTEX
  8
0
 10
73.606414
 20
222.34721
 30
0.0
  0
VERTEX
  8
0
 10
72.864049
 20
221.844647
 30
0.0
  0
SEQEND
  8
0
  0
POLYLINE
  8
0
 62
0
 70
0
 66
1
 10
0.0
 20
0.0
 30
0.0
  0
VERTEX
  8
0
 10
84.908387
 20
228.013149
 30
0.0
  0
VERTEX
  8
0
 10
84.040221
 20
227.741112
 30
0.0
  0
SEQEND
  8
0
  0
POLYLINE
  8
0
 62
0
 70
0
 66
1
 10
0.0
 20
0.0
 30
0.0
  0
VERTEX
  8
0
 10
144.59401
 20
216.312316
 30
0.0
  0
VERTEX
  8
0
 10
142.6691
 20
216.009855
 30
0.0
  0
SEQEND
  8
0
  0
POLYLINE
  8
0
 62
0
 70
0
 66
1
 10
0.0
 20
0.0
 30
0.0
  0
VERTEX
  8
0
 10
165.95481
 20
231.832181
 30
0.0
  0
VERTEX
  8
0
 10
164.96146
 20
230.156059
 30
0.0
  0
SEQEND
  8
0
  0
POLYLINE
  8
0
 62
0
 70
0
 66
1
 10
0.0
 20
0.0
 30
0.0
  0
VERTEX
  8
0
 10
140.7294
 20
215.828792
 30
0.0
  0
VERTEX
  8
0
 10
138.78394
 20
215.768692
 30
0.0
  0
SEQEND
  8
0
  0
POLYLINE
  8
0
 62
0
 70
0
 66
1
 10
0.0
 20
0.0
 30
0.0
  0
VERTEX
  8
0
 10
138.08111
 20
215.776692
 30
0.0
  0
VERTEX
  8
0
 10
137.37746
 20
215.800582
 30
0.0
  0
SEQEND
  8
0
  0
POLYLINE
  8
0
 62
0
 70
0
 66
1
 10
0.0
 20
0.0
 30
0.0
  0
VERTEX
  8
0
 10
134.57443
 20
216.053782
 30
0.0
  0
VERTEX
  8
0
 10
133.8784
 20
216.155983
 30
0.0
  0
SEQEND
  8
0
  0
POLYLINE
  8
0
 62
0
 70
0
 66
1
 10
0.0
 20
0.0
 30
0.0
  0
VERTEX
  8
0
 10
162.67019
 20
227.007708
 30
0.0
  0
VERTEX
  8
0
 10
161.38185
 20
225.547512
 30
0.0
  0
SEQEND
  8
0
  0
POLYLINE
  8
0
 62
0
 70
0
 66
1
 10
0.0
 20
0.0
 30
0.0
  0
VERTEX
  8
0
 10
166.84056
 20
233.567226
 30
0.0
  0
VERTEX
  8
0
 10
165.95481
 20
231.832181
 30
0.0
  0
SEQEND
  8
0
  0
POLYLINE
  8
0
 62
0
 70
0
 66
1
 10
0.0
 20
0.0
 30
0.0
  0
VERTEX
  8
0
 10
155.39628
 20
220.591001
 30
0.0
  0
VERTEX
  8
0
 10
153.72014
 20
219.597671
 30
0.0
  0
SEQEND
  8
0
  0
POLYLINE
  8
0
 62
0
 70
0
 66
1
 10
0.0
 20
0.0
 30
0.0
  0
VERTEX
  8
0
 10
161.38185
 20
225.547512
 30
0.0
  0
VERTEX
  8
0
 10
160.0047
 20
224.170396
 30
0.0
  0
SEQEND
  8
0
  0
POLYLINE
  8
0
 62
0
 70
0
 66
1
 10
0.0
 20
0.0
 30
0.0
  0
VERTEX
  8
0
 10
142.6691
 20
216.009855
 30
0.0
  0
VERTEX
  8
0
 10
140.7294
 20
215.828792
 30
0.0
  0
SEQEND
  8
0
  0
POLYLINE
  8
0
 62
0
 70
0
 66
1
 10
0.0
 20
0.0
 30
0.0
  0
VERTEX
  8
0
 10
164.96146
 20
230.156059
 30
0.0
  0
VERTEX
  8
0
 10
163.86573
 20
228.546792
 30
0.0
  0
SEQEND
  8
0
  0
POLYLINE
  8
0
 62
0
 70
0
 66
1
 10
0.0
 20
0.0
 30
0.0
  0
VERTEX
  8
0
 10
160.0047
 20
224.170396
 30
0.0
  0
VERTEX
  8
0
 10
158.54337
 20
222.881166
 30
0.0
  0
SEQEND
  8
0
  0
POLYLINE
  8
0
 62
0
 70
0
 66
1
 10
0.0
 20
0.0
 30
0.0
  0
VERTEX
  8
0
 10
148.3664
 20
217.278145
 30
0.0
  0
VERTEX
  8
0
 10
146.49628
 20
216.735713
 30
0.0
  0
SEQEND
  8
0
  0
POLYLINE
  8
0
 62
0
 70
0
 66
1
 10
0.0
 20
0.0
 30
0.0
  0
VERTEX
  8
0
 10
150.1987
 20
217.937924
 30
0.0
  0
VERTEX
  8
0
 10
148.3664
 20
217.278145
 30
0.0
  0
SEQEND
  8
0
  0
POLYLINE
  8
0
 62
0
 70
0
 66
1
 10
0.0
 20
0.0
 30
0.0
  0
VERTEX
  8
0
 10
136.67444
 20
215.840382
 30
0.0
  0
VERTEX
  8
0
 10
135.97261
 20
215.895882
 30
0.0
  0
SEQEND
  8
0
  0
POLYLINE
  8
0
 62
0
 70
0
 66
1
 10
0.0
 20
0.0
 30
0.0
  0
VERTEX
  8
0
 10
135.97261
 20
215.895882
 30
0.0
  0
VERTEX
  8
0
 10
135.27351
 20
215.966982
 30
0.0
  0
SEQEND
  8
0
  0
POLYLINE
  8
0
 62
0
 70
0
 66
1
 10
0.0
 20
0.0
 30
0.0
  0
VERTEX
  8
0
 10
135.27351
 20
215.966982
 30
0.0
  0
VERTEX
  8
0
 10
134.57443
 20
216.053782
 30
0.0
  0
SEQEND
  8
0
  0
POLYLINE
  8
0
 62
0
 70
0
 66
1
 10
0.0
 20
0.0
 30
0.0
  0
VERTEX
  8
0
 10
157.00566
 20
221.686781
 30
0.0
  0
VERTEX
  8
0
 10
155.39628
 20
220.591001
 30
0.0
  0
SEQEND
  8
0
  0
POLYLINE
  8
0
 62
0
 70
0
 66
1
 10
0.0
 20
0.0
 30
0.0
  0
VERTEX
  8
0
 10
146.49628
 20
216.735713
 30
0.0
  0
VERTEX
  8
0
 10
144.59401
 20
216.312316
 30
0.0
  0
SEQEND
  8
0
  0
POLYLINE
  8
0
 62
0
 70
0
 66
1
 10
0.0
 20
0.0
 30
0.0
  0
VERTEX
  8
0
 10
138.78394
 20
215.768692
 30
0.0
  0
VERTEX
  8
0
 10
138.08111
 20
215.776692
 30
0.0
  0
SEQEND
  8
0
  0
POLYLINE
  8
0
 62
0
 70
0
 66
1
 10
0.0
 20
0.0
 30
0.0
  0
VERTEX
  8
0
 10
137.37746
 20
215.800582
 30
0.0
  0
VERTEX
  8
0
 10
136.67444
 20
215.840382
 30
0.0
  0
SEQEND
  8
0
  0
POLYLINE
  8
0
 62
0
 70
0
 66
1
 10
0.0
 20
0.0
 30
0.0
  0
VERTEX
  8
0
 10
151.98584
 20
218.712306
 30
0.0
  0
VERTEX
  8
0
 10
150.1987
 20
217.937924
 30
0.0
  0
SEQEND
  8
0
  0
POLYLINE
  8
0
 62
0
 70
0
 66
1
 10
0.0
 20
0.0
 30
0.0
  0
VERTEX
  8
0
 10
163.86573
 20
228.546792
 30
0.0
  0
VERTEX
  8
0
 10
162.67019
 20
227.007708
 30
0.0
  0
SEQEND
  8
0
  0
POLYLINE
  8
0
 62
0
 70
0
 66
1
 10
0.0
 20
0.0
 30
0.0
  0
VERTEX
  8
0
 10
158.54337
 20
222.881166
 30
0.0
  0
VERTEX
  8
0
 10
157.00566
 20
221.686781
 30
0.0
  0
SEQEND
  8
0
  0
POLYLINE
  8
0
 62
0
 70
0
 66
1
 10
0.0
 20
0.0
 30
0.0
  0
VERTEX
  8
0
 10
153.72014
 20
219.597671
 30
0.0
  0
VERTEX
  8
0
 10
151.98584
 20
218.712306
 30
0.0
  0
SEQEND
  8
0
  0
POLYLINE
  8
0
 62
0
 70
0
 66
1
 10
0.0
 20
0.0
 30
0.0
  0
VERTEX
  8
0
 10
97.072164
 20
246.818452
 30
0.0
  0
VERTEX
  8
0
 10
97.27194
 20
246.818452
 30
0.0
  0
SEQEND
  8
0
  0
POLYLINE
  8
0
 62
0
 70
0
 66
1
 10
0.0
 20
0.0
 30
0.0
  0
VERTEX
  8
0
 10
97.873569
 20
246.818452
 30
0.0
  0
VERTEX
  8
0
 10
98.07293
 20
246.818452
 30
0.0
  0
SEQEND
  8
0
  0
POLYLINE
  8
0
 62
0
 70
0
 66
1
 10
0.0
 20
0.0
 30
0.0
  0
VERTEX
  8
0
 10
98.271947
 20
246.818452
 30
0.0
  0
VERTEX
  8
0
 10
98.472036
 20
246.818452
 30
0.0
  0
SEQEND
  8
0
  0
POLYLINE
  8
0
 62
0
 70
0
 66
1
 10
0.0
 20
0.0
 30
0.0
  0
VERTEX
  8
0
 10
98.07293
 20
246.818452
 30
0.0
  0
VERTEX
  8
0
 10
98.271947
 20
246.818452
 30
0.0
  0
SEQEND
  8
0
  0
POLYLINE
  8
0
 62
0
 70
0
 66
1
 10
0.0
 20
0.0
 30
0.0
  0
VERTEX
  8
0
 10
98.672845
 20
246.818452
 30
0.0
  0
VERTEX
  8
0
 10
98.872859
 20
246.818452
 30
0.0
  0
SEQEND
  8
0
  0
POLYLINE
  8
0
 62
0
 70
0
 66
1
 10
0.0
 20
0.0
 30
0.0
  0
VERTEX
  8
0
 10
97.472129
 20
246.818452
 30
0.0
  0
VERTEX
  8
0
 10
97.673254
 20
246.818452
 30
0.0
  0
SEQEND
  8
0
  0
POLYLINE
  8
0
 62
0
 70
0
 66
1
 10
0.0
 20
0.0
 30
0.0
  0
VERTEX
  8
0
 10
97.27194
 20
246.818452
 30
0.0
  0
VERTEX
  8
0
 10
97.472129
 20
246.818452
 30
0.0
  0
SEQEND
  8
0
  0
POLYLINE
  8
0
 62
0
 70
0
 66
1
 10
0.0
 20
0.0
 30
0.0
  0
VERTEX
  8
0
 10
98.472036
 20
246.818452
 30
0.0
  0
VERTEX
  8
0
 10
98.672845
 20
246.818452
 30
0.0
  0
SEQEND
  8
0
  0
POLYLINE
  8
0
 62
0
 70
0
 66
1
 10
0.0
 20
0.0
 30
0.0
  0
VERTEX
  8
0
 10
98.872859
 20
246.818452
 30
0.0
  0
VERTEX
  8
0
 10
99.072913
 20
246.818452
 30
0.0
  0
SEQEND
  8
0
  0
POLYLINE
  8
0
 62
0
 70
0
 66
1
 10
0.0
 20
0.0
 30
0.0
  0
VERTEX
  8
0
 10
97.673254
 20
246.818452
 30
0.0
  0
VERTEX
  8
0
 10
97.873569
 20
246.818452
 30
0.0
  0
SEQEND
  8
0
  0
POLYLINE
  8
0
 62
0
 70
0
 66
1
 10
0.0
 20
0.0
 30
0.0
  0
VERTEX
  8
0
 10
96.873411
 20
246.818452
 30
0.0
  0
VERTEX
  8
0
 10
97.072164
 20
246.818452
 30
0.0
  0
SEQEND
  8
0
  0
POLYLINE
  8
0
 62
0
 70
0
 66
1
 10
0.0
 20
0.0
 30
0.0
  0
VERTEX
  8
0
 10
141.102024
 20
237.60788
 30
0.0
  0
VERTEX
  8
0
 10
143.192464
 20
236.541158
 30
0.0
  0
SEQEND
  8
0
  0
POLYLINE
  8
0
 62
0
 70
0
 66
1
 10
0.0
 20
0.0
 30
0.0
  0
VERTEX
  8
0
 10
131.649024
 20
232.791088
 30
0.0
  0
VERTEX
  8
0
 10
132.715744
 20
234.881519
 30
0.0
  0
SEQEND
  8
0
  0
POLYLINE
  8
0
 62
0
 70
0
 66
1
 10
0.0
 20
0.0
 30
0.0
  0
VERTEX
  8
0
 10
67.972203
 20
255.236736
 30
0.0
  0
VERTEX
  8
0
 10
70.19386
 20
255.222036
 30
0.0
  0
SEQEND
  8
0
  0
POLYLINE
  8
0
 62
0
 70
0
 66
1
 10
0.0
 20
0.0
 30
0.0
  0
VERTEX
  8
0
 10
138.783924
 20
237.972982
 30
0.0
  0
VERTEX
  8
0
 10
141.102024
 20
237.60788
 30
0.0
  0
SEQEND
  8
0
  0
POLYLINE
  8
0
 62
0
 70
0
 66
1
 10
0.0
 20
0.0
 30
0.0
  0
VERTEX
  8
0
 10
63.528692
 20
255.266136
 30
0.0
  0
VERTEX
  8
0
 10
65.749787
 20
255.251436
 30
0.0
  0
SEQEND
  8
0
  0
POLYLINE
  8
0
 62
0
 70
0
 66
1
 10
0.0
 20
0.0
 30
0.0
  0
VERTEX
  8
0
 10
131.650964
 20
228.155363
 30
0.0
  0
VERTEX
  8
0
 10
131.376324
 20
229.298943
 30
0.0
  0
SEQEND
  8
0
  0
POLYLINE
  8
0
 62
0
 70
0
 66
1
 10
0.0
 20
0.0
 30
0.0
  0
VERTEX
  8
0
 10
132.101224
 20
227.068263
 30
0.0
  0
VERTEX
  8
0
 10
131.650964
 20
228.155363
 30
0.0
  0
SEQEND
  8
0
  0
POLYLINE
  8
0
 62
0
 70
0
 66
1
 10
0.0
 20
0.0
 30
0.0
  0
VERTEX
  8
0
 10
65.749787
 20
255.251436
 30
0.0
  0
VERTEX
  8
0
 10
67.972203
 20
255.236736
 30
0.0
  0
SEQEND
  8
0
  0
POLYLINE
  8
0
 62
0
 70
0
 66
1
 10
0.0
 20
0.0
 30
0.0
  0
VERTEX
  8
0
 10
144.852394
 20
234.88112
 30
0.0
  0
VERTEX
  8
0
 10
145.918634
 20
232.791662
 30
0.0
  0
SEQEND
  8
0
  0
POLYLINE
  8
0
 62
0
 70
0
 66
1
 10
0.0
 20
0.0
 30
0.0
  0
VERTEX
  8
0
 10
76.947265
 20
252.881646
 30
0.0
  0
VERTEX
  8
0
 10
76.947265
 20
250.573876
 30
0.0
  0
SEQEND
  8
0
  0
POLYLINE
  8
0
 62
0
 70
0
 66
1
 10
0.0
 20
0.0
 30
0.0
  0
VERTEX
  8
0
 10
76.947265
 20
248.264736
 30
0.0
  0
VERTEX
  8
0
 10
76.947265
 20
245.956376
 30
0.0
  0
SEQEND
  8
0
  0
POLYLINE
  8
0
 62
0
 70
0
 66
1
 10
0.0
 20
0.0
 30
0.0
  0
VERTEX
  8
0
 10
76.947265
 20
243.648946
 30
0.0
  0
VERTEX
  8
0
 10
76.947265
 20
241.340576
 30
0.0
  0
SEQEND
  8
0
  0
POLYLINE
  8
0
 62
0
 70
0
 66
1
 10
0.0
 20
0.0
 30
0.0
  0
VERTEX
  8
0
 10
76.835677
 20
240.626476
 30
0.0
  0
VERTEX
  8
0
 10
76.507361
 20
239.980646
 30
0.0
  0
SEQEND
  8
0
  0
POLYLINE
  8
0
 62
0
 70
0
 66
1
 10
0.0
 20
0.0
 30
0.0
  0
VERTEX
  8
0
 10
75.996003
 20
239.469336
 30
0.0
  0
VERTEX
  8
0
 10
75.350746
 20
239.141276
 30
0.0
  0
SEQEND
  8
0
  0
POLYLINE
  8
0
 62
0
 70
0
 66
1
 10
0.0
 20
0.0
 30
0.0
  0
VERTEX
  8
0
 10
131.376324
 20
229.298943
 30
0.0
  0
VERTEX
  8
0
 10
131.283924
 20
230.472983
 30
0.0
  0
SEQEND
  8
0
  0
POLYLINE
  8
0
 62
0
 70
0
 66
1
 10
0.0
 20
0.0
 30
0.0
  0
VERTEX
  8
0
 10
131.283924
 20
230.472983
 30
0.0
  0
VERTEX
  8
0
 10
131.649024
 20
232.791088
 30
0.0
  0
SEQEND
  8
0
  0
POLYLINE
  8
0
 62
0
 70
0
 66
1
 10
0.0
 20
0.0
 30
0.0
  0
VERTEX
  8
0
 10
134.375784
 20
236.541448
 30
0.0
  0
VERTEX
  8
0
 10
136.465244
 20
237.607693
 30
0.0
  0
SEQEND
  8
0
  0
POLYLINE
  8
0
 62
0
 70
0
 66
1
 10
0.0
 20
0.0
 30
0.0
  0
VERTEX
  8
0
 10
132.715744
 20
234.881519
 30
0.0
  0
VERTEX
  8
0
 10
134.375784
 20
236.541448
 30
0.0
  0
SEQEND
  8
0
  0
POLYLINE
  8
0
 62
0
 70
0
 66
1
 10
0.0
 20
0.0
 30
0.0
  0
VERTEX
  8
0
 10
136.465244
 20
237.607693
 30
0.0
  0
VERTEX
  8
0
 10
138.783924
 20
237.972982
 30
0.0
  0
SEQEND
  8
0
  0
POLYLINE
  8
0
 62
0
 70
0
 66
1
 10
0.0
 20
0.0
 30
0.0
  0
VERTEX
  8
0
 10
145.918634
 20
232.791662
 30
0.0
  0
VERTEX
  8
0
 10
146.283924
 20
230.472983
 30
0.0
  0
SEQEND
  8
0
  0
POLYLINE
  8
0
 62
0
 70
0
 66
1
 10
0.0
 20
0.0
 30
0.0
  0
VERTEX
  8
0
 10
133.480594
 20
225.169683
 30
0.0
  0
VERTEX
  8
0
 10
132.716424
 20
226.064323
 30
0.0
  0
SEQEND
  8
0
  0
POLYLINE
  8
0
 62
0
 70
0
 66
1
 10
0.0
 20
0.0
 30
0.0
  0
VERTEX
  8
0
 10
132.716424
 20
226.064323
 30
0.0
  0
VERTEX
  8
0
 10
132.101224
 20
227.068263
 30
0.0
  0
SEQEND
  8
0
  0
POLYLINE
  8
0
 62
0
 70
0
 66
1
 10
0.0
 20
0.0
 30
0.0
  0
VERTEX
  8
0
 10
143.192464
 20
236.541158
 30
0.0
  0
VERTEX
  8
0
 10
144.852394
 20
234.88112
 30
0.0
  0
SEQEND
  8
0
  0
POLYLINE
  8
0
 62
0
 70
0
 66
1
 10
0.0
 20
0.0
 30
0.0
  0
VERTEX
  8
0
 10
55.433643
 20
247.117716
 30
0.0
  0
VERTEX
  8
0
 10
57.052341
 20
248.747086
 30
0.0
  0
SEQEND
  8
0
  0
POLYLINE
  8
0
 62
0
 70
0
 66
1
 10
0.0
 20
0.0
 30
0.0
  0
VERTEX
  8
0
 10
57.052341
 20
248.747086
 30
0.0
  0
VERTEX
  8
0
 10
58.672002
 20
250.377426
 30
0.0
  0
SEQEND
  8
0
  0
POLYLINE
  8
0
 62
0
 70
0
 66
1
 10
0.0
 20
0.0
 30
0.0
  0
VERTEX
  8
0
 10
58.672002
 20
250.377426
 30
0.0
  0
VERTEX
  8
0
 10
60.29111
 20
252.007206
 30
0.0
  0
SEQEND
  8
0
  0
POLYLINE
  8
0
 62
0
 70
0
 66
1
 10
0.0
 20
0.0
 30
0.0
  0
VERTEX
  8
0
 10
60.29111
 20
252.007206
 30
0.0
  0
VERTEX
  8
0
 10
61.909571
 20
253.636336
 30
0.0
  0
SEQEND
  8
0
  0
POLYLINE
  8
0
 62
0
 70
0
 66
1
 10
0.0
 20
0.0
 30
0.0
  0
VERTEX
  8
0
 10
61.909571
 20
253.636336
 30
0.0
  0
VERTEX
  8
0
 10
63.528692
 20
255.266136
 30
0.0
  0
SEQEND
  8
0
  0
POLYLINE
  8
0
 62
0
 70
0
 66
1
 10
0.0
 20
0.0
 30
0.0
  0
VERTEX
  8
0
 10
70.19386
 20
255.222036
 30
0.0
  0
VERTEX
  8
0
 10
72.416072
 20
255.207336
 30
0.0
  0
SEQEND
  8
0
  0
POLYLINE
  8
0
 62
0
 70
0
 66
1
 10
0.0
 20
0.0
 30
0.0
  0
VERTEX
  8
0
 10
72.416072
 20
255.207336
 30
0.0
  0
VERTEX
  8
0
 10
74.636305
 20
255.192636
 30
0.0
  0
SEQEND
  8
0
  0
POLYLINE
  8
0
 62
0
 70
0
 66
1
 10
0.0
 20
0.0
 30
0.0
  0
VERTEX
  8
0
 10
75.995069
 20
254.750076
 30
0.0
  0
VERTEX
  8
0
 10
76.506962
 20
254.239816
 30
0.0
  0
SEQEND
  8
0
  0
POLYLINE
  8
0
 62
0
 70
0
 66
1
 10
0.0
 20
0.0
 30
0.0
  0
VERTEX
  8
0
 10
75.350382
 20
255.078016
 30
0.0
  0
VERTEX
  8
0
 10
75.995069
 20
254.750076
 30
0.0
  0
SEQEND
  8
0
  0
POLYLINE
  8
0
 62
0
 70
0
 66
1
 10
0.0
 20
0.0
 30
0.0
  0
VERTEX
  8
0
 10
74.636305
 20
255.192636
 30
0.0
  0
VERTEX
  8
0
 10
75.350382
 20
255.078016
 30
0.0
  0
SEQEND
  8
0
  0
POLYLINE
  8
0
 62
0
 70
0
 66
1
 10
0.0
 20
0.0
 30
0.0
  0
VERTEX
  8
0
 10
76.506962
 20
254.239816
 30
0.0
  0
VERTEX
  8
0
 10
76.835419
 20
253.595796
 30
0.0
  0
SEQEND
  8
0
  0
POLYLINE
  8
0
 62
0
 70
0
 66
1
 10
0.0
 20
0.0
 30
0.0
  0
VERTEX
  8
0
 10
76.835419
 20
253.595796
 30
0.0
  0
VERTEX
  8
0
 10
76.947265
 20
252.881646
 30
0.0
  0
SEQEND
  8
0
  0
POLYLINE
  8
0
 62
0
 70
0
 66
1
 10
0.0
 20
0.0
 30
0.0
  0
VERTEX
  8
0
 10
76.947265
 20
250.573876
 30
0.0
  0
VERTEX
  8
0
 10
76.947265
 20
248.264736
 30
0.0
  0
SEQEND
  8
0
  0
POLYLINE
  8
0
 62
0
 70
0
 66
1
 10
0.0
 20
0.0
 30
0.0
  0
VERTEX
  8
0
 10
76.947265
 20
245.956376
 30
0.0
  0
VERTEX
  8
0
 10
76.947265
 20
243.648946
 30
0.0
  0
SEQEND
  8
0
  0
POLYLINE
  8
0
 62
0
 70
0
 66
1
 10
0.0
 20
0.0
 30
0.0
  0
VERTEX
  8
0
 10
76.947265
 20
241.340576
 30
0.0
  0
VERTEX
  8
0
 10
76.835677
 20
240.626476
 30
0.0
  0
SEQEND
  8
0
  0
POLYLINE
  8
0
 62
0
 70
0
 66
1
 10
0.0
 20
0.0
 30
0.0
  0
VERTEX
  8
0
 10
76.507361
 20
239.980646
 30
0.0
  0
VERTEX
  8
0
 10
75.996003
 20
239.469336
 30
0.0
  0
SEQEND
  8
0
  0
POLYLINE
  8
0
 62
0
 70
0
 66
1
 10
0.0
 20
0.0
 30
0.0
  0
VERTEX
  8
0
 10
66.938876
 20
247.147922
 30
0.0
  0
VERTEX
  8
0
 10
67.378216
 20
246.087262
 30
0.0
  0
SEQEND
  8
0
  0
POLYLINE
  8
0
 62
0
 70
0
 66
1
 10
0.0
 20
0.0
 30
0.0
  0
VERTEX
  8
0
 10
67.378216
 20
246.087262
 30
0.0
  0
VERTEX
  8
0
 10
68.438876
 20
245.647922
 30
0.0
  0
SEQEND
  8
0
  0
POLYLINE
  8
0
 62
0
 70
0
 66
1
 10
0.0
 20
0.0
 30
0.0
  0
VERTEX
  8
0
 10
68.438876
 20
245.647922
 30
0.0
  0
VERTEX
  8
0
 10
69.499536
 20
246.087262
 30
0.0
  0
SEQEND
  8
0
  0
POLYLINE
  8
0
 62
0
 70
0
 66
1
 10
0.0
 20
0.0
 30
0.0
  0
VERTEX
  8
0
 10
72.801432
 20
248.647922
 30
0.0
  0
VERTEX
  8
0
 10
71.740772
 20
248.208582
 30
0.0
  0
SEQEND
  8
0
  0
POLYLINE
  8
0
 62
0
 70
0
 66
1
 10
0.0
 20
0.0
 30
0.0
  0
VERTEX
  8
0
 10
69.499536
 20
246.087262
 30
0.0
  0
VERTEX
  8
0
 10
69.938876
 20
247.147922
 30
0.0
  0
SEQEND
  8
0
  0
POLYLINE
  8
0
 62
0
 70
0
 66
1
 10
0.0
 20
0.0
 30
0.0
  0
VERTEX
  8
0
 10
69.938876
 20
247.147922
 30
0.0
  0
VERTEX
  8
0
 10
69.499536
 20
248.208582
 30
0.0
  0
SEQEND
  8
0
  0
POLYLINE
  8
0
 62
0
 70
0
 66
1
 10
0.0
 20
0.0
 30
0.0
  0
VERTEX
  8
0
 10
69.499536
 20
248.208582
 30
0.0
  0
VERTEX
  8
0
 10
68.438876
 20
248.647922
 30
0.0
  0
SEQEND
  8
0
  0
POLYLINE
  8
0
 62
0
 70
0
 66
1
 10
0.0
 20
0.0
 30
0.0
  0
VERTEX
  8
0
 10
68.438876
 20
248.647922
 30
0.0
  0
VERTEX
  8
0
 10
67.378216
 20
248.208582
 30
0.0
  0
SEQEND
  8
0
  0
POLYLINE
  8
0
 62
0
 70
0
 66
1
 10
0.0
 20
0.0
 30
0.0
  0
VERTEX
  8
0
 10
74.636305
 20
239.029576
 30
0.0
  0
VERTEX
  8
0
 10
72.41521
 20
239.029576
 30
0.0
  0
SEQEND
  8
0
  0
POLYLINE
  8
0
 62
0
 70
0
 66
1
 10
0.0
 20
0.0
 30
0.0
  0
VERTEX
  8
0
 10
65.748925
 20
239.029576
 30
0.0
  0
VERTEX
  8
0
 10
63.528692
 20
239.029576
 30
0.0
  0
SEQEND
  8
0
  0
POLYLINE
  8
0
 62
0
 70
0
 66
1
 10
0.0
 20
0.0
 30
0.0
  0
VERTEX
  8
0
 10
60.290333
 20
242.265136
 30
0.0
  0
VERTEX
  8
0
 10
58.671225
 20
243.882836
 30
0.0
  0
SEQEND
  8
0
  0
POLYLINE
  8
0
 62
0
 70
0
 66
1
 10
0.0
 20
0.0
 30
0.0
  0
VERTEX
  8
0
 10
70.192794
 20
239.029576
 30
0.0
  0
VERTEX
  8
0
 10
67.971137
 20
239.029576
 30
0.0
  0
SEQEND
  8
0
  0
POLYLINE
  8
0
 62
0
 70
0
 66
1
 10
0.0
 20
0.0
 30
0.0
  0
VERTEX
  8
0
 10
57.052764
 20
245.499896
 30
0.0
  0
VERTEX
  8
0
 10
55.433643
 20
247.117616
 30
0.0
  0
SEQEND
  8
0
  0
POLYLINE
  8
0
 62
0
 70
0
 66
1
 10
0.0
 20
0.0
 30
0.0
  0
VERTEX
  8
0
 10
75.350746
 20
239.141276
 30
0.0
  0
VERTEX
  8
0
 10
74.636305
 20
239.029576
 30
0.0
  0
SEQEND
  8
0
  0
POLYLINE
  8
0
 62
0
 70
0
 66
1
 10
0.0
 20
0.0
 30
0.0
  0
VERTEX
  8
0
 10
63.528692
 20
239.029576
 30
0.0
  0
VERTEX
  8
0
 10
61.909994
 20
240.646876
 30
0.0
  0
SEQEND
  8
0
  0
POLYLINE
  8
0
 62
0
 70
0
 66
1
 10
0.0
 20
0.0
 30
0.0
  0
VERTEX
  8
0
 10
71.740772
 20
246.087262
 30
0.0
  0
VERTEX
  8
0
 10
72.801432
 20
245.647922
 30
0.0
  0
SEQEND
  8
0
  0
POLYLINE
  8
0
 62
0
 70
0
 66
1
 10
0.0
 20
0.0
 30
0.0
  0
VERTEX
  8
0
 10
58.671225
 20
243.882836
 30
0.0
  0
VERTEX
  8
0
 10
57.052764
 20
245.499896
 30
0.0
  0
SEQEND
  8
0
  0
POLYLINE
  8
0
 62
0
 70
0
 66
1
 10
0.0
 20
0.0
 30
0.0
  0
VERTEX
  8
0
 10
71.740772
 20
248.208582
 30
0.0
  0
VERTEX
  8
0
 10
71.301432
 20
247.147922
 30
0.0
  0
SEQEND
  8
0
  0
POLYLINE
  8
0
 62
0
 70
0
 66
1
 10
0.0
 20
0.0
 30
0.0
  0
VERTEX
  8
0
 10
67.971137
 20
239.029576
 30
0.0
  0
VERTEX
  8
0
 10
65.748925
 20
239.029576
 30
0.0
  0
SEQEND
  8
0
  0
POLYLINE
  8
0
 62
0
 70
0
 66
1
 10
0.0
 20
0.0
 30
0.0
  0
VERTEX
  8
0
 10
71.301432
 20
247.147922
 30
0.0
  0
VERTEX
  8
0
 10
71.740772
 20
246.087262
 30
0.0
  0
SEQEND
  8
0
  0
POLYLINE
  8
0
 62
0
 70
0
 66
1
 10
0.0
 20
0.0
 30
0.0
  0
VERTEX
  8
0
 10
74.301432
 20
247.147922
 30
0.0
  0
VERTEX
  8
0
 10
73.862092
 20
248.208582
 30
0.0
  0
SEQEND
  8
0
  0
POLYLINE
  8
0
 62
0
 70
0
 66
1
 10
0.0
 20
0.0
 30
0.0
  0
VERTEX
  8
0
 10
72.41521
 20
239.029576
 30
0.0
  0
VERTEX
  8
0
 10
70.192794
 20
239.029576
 30
0.0
  0
SEQEND
  8
0
  0
POLYLINE
  8
0
 62
0
 70
0
 66
1
 10
0.0
 20
0.0
 30
0.0
  0
VERTEX
  8
0
 10
72.801432
 20
245.647922
 30
0.0
  0
VERTEX
  8
0
 10
74.301432
 20
247.147922
 30
0.0
  0
SEQEND
  8
0
  0
POLYLINE
  8
0
 62
0
 70
0
 66
1
 10
0.0
 20
0.0
 30
0.0
  0
VERTEX
  8
0
 10
61.909994
 20
240.646876
 30
0.0
  0
VERTEX
  8
0
 10
60.290333
 20
242.265136
 30
0.0
  0
SEQEND
  8
0
  0
POLYLINE
  8
0
 62
0
 70
0
 66
1
 10
0.0
 20
0.0
 30
0.0
  0
VERTEX
  8
0
 10
73.862092
 20
248.208582
 30
0.0
  0
VERTEX
  8
0
 10
72.801432
 20
248.647922
 30
0.0
  0
SEQEND
  8
0
  0
POLYLINE
  8
0
 62
0
 70
0
 66
1
 10
0.0
 20
0.0
 30
0.0
  0
VERTEX
  8
0
 10
53.20695
 20
224.552755
 30
0.0
  0
VERTEX
  8
0
 10
50.89952
 20
224.552755
 30
0.0
  0
SEQEND
  8
0
  0
POLYLINE
  8
0
 62
0
 70
0
 66
1
 10
0.0
 20
0.0
 30
0.0
  0
VERTEX
  8
0
 10
48.59115
 20
224.552755
 30
0.0
  0
VERTEX
  8
0
 10
47.87705
 20
224.664343
 30
0.0
  0
SEQEND
  8
0
  0
POLYLINE
  8
0
 62
0
 70
0
 66
1
 10
0.0
 20
0.0
 30
0.0
  0
VERTEX
  8
0
 10
47.87705
 20
224.664343
 30
0.0
  0
VERTEX
  8
0
 10
47.23122
 20
224.992659
 30
0.0
  0
SEQEND
  8
0
  0
POLYLINE
  8
0
 62
0
 70
0
 66
1
 10
0.0
 20
0.0
 30
0.0
  0
VERTEX
  8
0
 10
55.99766
 20
244.447679
 30
0.0
  0
VERTEX
  8
0
 10
57.628
 20
242.828018
 30
0.0
  0
SEQEND
  8
0
  0
POLYLINE
  8
0
 62
0
 70
0
 66
1
 10
0.0
 20
0.0
 30
0.0
  0
VERTEX
  8
0
 10
62.48731
 20
233.527817
 30
0.0
  0
VERTEX
  8
0
 10
62.47261
 20
231.30616
 30
0.0
  0
SEQEND
  8
0
  0
POLYLINE
  8
0
 62
0
 70
0
 66
1
 10
0.0
 20
0.0
 30
0.0
  0
VERTEX
  8
0
 10
55.51531
 20
224.552755
 30
0.0
  0
VERTEX
  8
0
 10
53.20695
 20
224.552755
 30
0.0
  0
SEQEND
  8
0
  0
POLYLINE
  8
0
 62
0
 70
0
 66
1
 10
0.0
 20
0.0
 30
0.0
  0
VERTEX
  8
0
 10
62.50201
 20
235.750233
 30
0.0
  0
VERTEX
  8
0
 10
62.48731
 20
233.527817
 30
0.0
  0
SEQEND
  8
0
  0
POLYLINE
  8
0
 62
0
 70
0
 66
1
 10
0.0
 20
0.0
 30
0.0
  0
VERTEX
  8
0
 10
62.51671
 20
237.971328
 30
0.0
  0
VERTEX
  8
0
 10
62.50201
 20
235.750233
 30
0.0
  0
SEQEND
  8
0
  0
POLYLINE
  8
0
 62
0
 70
0
 66
1
 10
0.0
 20
0.0
 30
0.0
  0
VERTEX
  8
0
 10
50.89952
 20
224.552755
 30
0.0
  0
VERTEX
  8
0
 10
48.59115
 20
224.552755
 30
0.0
  0
SEQEND
  8
0
  0
POLYLINE
  8
0
 62
0
 70
0
 66
1
 10
0.0
 20
0.0
 30
0.0
  0
VERTEX
  8
0
 10
67.378216
 20
248.208582
 30
0.0
  0
VERTEX
  8
0
 10
66.938876
 20
247.147922
 30
0.0
  0
SEQEND
  8
0
  0
POLYLINE
  8
0
 62
0
 70
0
 66
1
 10
0.0
 20
0.0
 30
0.0
  0
VERTEX
  8
0
 10
60.84637
 20
224.664601
 30
0.0
  0
VERTEX
  8
0
 10
60.13222
 20
224.552755
 30
0.0
  0
SEQEND
  8
0
  0
POLYLINE
  8
0
 62
0
 70
0
 66
1
 10
0.0
 20
0.0
 30
0.0
  0
VERTEX
  8
0
 10
54.36829
 20
246.066377
 30
0.0
  0
VERTEX
  8
0
 10
55.99766
 20
244.447679
 30
0.0
  0
SEQEND
  8
0
  0
POLYLINE
  8
0
 62
0
 70
0
 66
1
 10
0.0
 20
0.0
 30
0.0
  0
VERTEX
  8
0
 10
62.45791
 20
229.083948
 30
0.0
  0
VERTEX
  8
0
 10
62.44321
 20
226.863715
 30
0.0
  0
SEQEND
  8
0
  0
POLYLINE
  8
0
 62
0
 70
0
 66
1
 10
0.0
 20
0.0
 30
0.0
  0
VERTEX
  8
0
 10
62.32859
 20
226.149638
 30
0.0
  0
VERTEX
  8
0
 10
62.00065
 20
225.504951
 30
0.0
  0
SEQEND
  8
0
  0
POLYLINE
  8
0
 62
0
 70
0
 66
1
 10
0.0
 20
0.0
 30
0.0
  0
VERTEX
  8
0
 10
62.00065
 20
225.504951
 30
0.0
  0
VERTEX
  8
0
 10
61.49039
 20
224.993058
 30
0.0
  0
SEQEND
  8
0
  0
POLYLINE
  8
0
 62
0
 70
0
 66
1
 10
0.0
 20
0.0
 30
0.0
  0
VERTEX
  8
0
 10
55.459156
 20
227.637928
 30
0.0
  0
VERTEX
  8
0
 10
55.898496
 20
228.698588
 30
0.0
  0
SEQEND
  8
0
  0
POLYLINE
  8
0
 62
0
 70
0
 66
1
 10
0.0
 20
0.0
 30
0.0
  0
VERTEX
  8
0
 10
57.628
 20
242.828018
 30
0.0
  0
VERTEX
  8
0
 10
59.25778
 20
241.20891
 30
0.0
  0
SEQEND
  8
0
  0
POLYLINE
  8
0
 62
0
 70
0
 66
1
 10
0.0
 20
0.0
 30
0.0
  0
VERTEX
  8
0
 10
60.88691
 20
239.590449
 30
0.0
  0
VERTEX
  8
0
 10
62.51671
 20
237.971328
 30
0.0
  0
SEQEND
  8
0
  0
POLYLINE
  8
0
 62
0
 70
0
 66
1
 10
0.0
 20
0.0
 30
0.0
  0
VERTEX
  8
0
 10
59.25778
 20
241.20891
 30
0.0
  0
VERTEX
  8
0
 10
60.88691
 20
239.590449
 30
0.0
  0
SEQEND
  8
0
  0
POLYLINE
  8
0
 62
0
 70
0
 66
1
 10
0.0
 20
0.0
 30
0.0
  0
VERTEX
  8
0
 10
60.13222
 20
224.552755
 30
0.0
  0
VERTEX
  8
0
 10
57.82445
 20
224.552755
 30
0.0
  0
SEQEND
  8
0
  0
POLYLINE
  8
0
 62
0
 70
0
 66
1
 10
0.0
 20
0.0
 30
0.0
  0
VERTEX
  8
0
 10
57.82445
 20
224.552755
 30
0.0
  0
VERTEX
  8
0
 10
55.51531
 20
224.552755
 30
0.0
  0
SEQEND
  8
0
  0
POLYLINE
  8
0
 62
0
 70
0
 66
1
 10
0.0
 20
0.0
 30
0.0
  0
VERTEX
  8
0
 10
62.47261
 20
231.30616
 30
0.0
  0
VERTEX
  8
0
 10
62.45791
 20
229.083948
 30
0.0
  0
SEQEND
  8
0
  0
POLYLINE
  8
0
 62
0
 70
0
 66
1
 10
0.0
 20
0.0
 30
0.0
  0
VERTEX
  8
0
 10
62.44321
 20
226.863715
 30
0.0
  0
VERTEX
  8
0
 10
62.32859
 20
226.149638
 30
0.0
  0
SEQEND
  8
0
  0
POLYLINE
  8
0
 62
0
 70
0
 66
1
 10
0.0
 20
0.0
 30
0.0
  0
VERTEX
  8
0
 10
61.49039
 20
224.993058
 30
0.0
  0
VERTEX
  8
0
 10
60.84637
 20
224.664601
 30
0.0
  0
SEQEND
  8
0
  0
POLYLINE
  8
0
 62
0
 70
0
 66
1
 10
0.0
 20
0.0
 30
0.0
  0
VERTEX
  8
0
 10
47.23122
 20
224.992659
 30
0.0
  0
VERTEX
  8
0
 10
46.71991
 20
225.504017
 30
0.0
  0
SEQEND
  8
0
  0
POLYLINE
  8
0
 62
0
 70
0
 66
1
 10
0.0
 20
0.0
 30
0.0
  0
VERTEX
  8
0
 10
46.39185
 20
226.149274
 30
0.0
  0
VERTEX
  8
0
 10
46.28015
 20
226.863715
 30
0.0
  0
SEQEND
  8
0
  0
POLYLINE
  8
0
 62
0
 70
0
 66
1
 10
0.0
 20
0.0
 30
0.0
  0
VERTEX
  8
0
 10
46.28015
 20
226.863715
 30
0.0
  0
VERTEX
  8
0
 10
46.28015
 20
229.08481
 30
0.0
  0
SEQEND
  8
0
  0
POLYLINE
  8
0
 62
0
 70
0
 66
1
 10
0.0
 20
0.0
 30
0.0
  0
VERTEX
  8
0
 10
46.28015
 20
231.307226
 30
0.0
  0
VERTEX
  8
0
 10
46.28015
 20
233.528883
 30
0.0
  0
SEQEND
  8
0
  0
POLYLINE
  8
0
 62
0
 70
0
 66
1
 10
0.0
 20
0.0
 30
0.0
  0
VERTEX
  8
0
 10
46.28015
 20
235.751095
 30
0.0
  0
VERTEX
  8
0
 10
46.28015
 20
237.971328
 30
0.0
  0
SEQEND
  8
0
  0
POLYLINE
  8
0
 62
0
 70
0
 66
1
 10
0.0
 20
0.0
 30
0.0
  0
VERTEX
  8
0
 10
46.28015
 20
237.971328
 30
0.0
  0
VERTEX
  8
0
 10
47.89745
 20
239.590026
 30
0.0
  0
SEQEND
  8
0
  0
POLYLINE
  8
0
 62
0
 70
0
 66
1
 10
0.0
 20
0.0
 30
0.0
  0
VERTEX
  8
0
 10
47.89745
 20
239.590026
 30
0.0
  0
VERTEX
  8
0
 10
49.51571
 20
241.209687
 30
0.0
  0
SEQEND
  8
0
  0
POLYLINE
  8
0
 62
0
 70
0
 66
1
 10
0.0
 20
0.0
 30
0.0
  0
VERTEX
  8
0
 10
51.13341
 20
242.828795
 30
0.0
  0
VERTEX
  8
0
 10
52.75047
 20
244.447256
 30
0.0
  0
SEQEND
  8
0
  0
POLYLINE
  8
0
 62
0
 70
0
 66
1
 10
0.0
 20
0.0
 30
0.0
  0
VERTEX
  8
0
 10
46.28015
 20
233.528883
 30
0.0
  0
VERTEX
  8
0
 10
46.28015
 20
235.751095
 30
0.0
  0
SEQEND
  8
0
  0
POLYLINE
  8
0
 62
0
 70
0
 66
1
 10
0.0
 20
0.0
 30
0.0
  0
VERTEX
  8
0
 10
52.75047
 20
244.447256
 30
0.0
  0
VERTEX
  8
0
 10
54.36819
 20
246.066377
 30
0.0
  0
SEQEND
  8
0
  0
POLYLINE
  8
0
 62
0
 70
0
 66
1
 10
0.0
 20
0.0
 30
0.0
  0
VERTEX
  8
0
 10
46.71991
 20
225.504017
 30
0.0
  0
VERTEX
  8
0
 10
46.39185
 20
226.149274
 30
0.0
  0
SEQEND
  8
0
  0
POLYLINE
  8
0
 62
0
 70
0
 66
1
 10
0.0
 20
0.0
 30
0.0
  0
VERTEX
  8
0
 10
54.398496
 20
230.198588
 30
0.0
  0
VERTEX
  8
0
 10
53.337836
 20
229.759248
 30
0.0
  0
SEQEND
  8
0
  0
POLYLINE
  8
0
 62
0
 70
0
 66
1
 10
0.0
 20
0.0
 30
0.0
  0
VERTEX
  8
0
 10
46.28015
 20
229.08481
 30
0.0
  0
VERTEX
  8
0
 10
46.28015
 20
231.307226
 30
0.0
  0
SEQEND
  8
0
  0
POLYLINE
  8
0
 62
0
 70
0
 66
1
 10
0.0
 20
0.0
 30
0.0
  0
VERTEX
  8
0
 10
53.337836
 20
229.759248
 30
0.0
  0
VERTEX
  8
0
 10
52.898496
 20
228.698588
 30
0.0
  0
SEQEND
  8
0
  0
POLYLINE
  8
0
 62
0
 70
0
 66
1
 10
0.0
 20
0.0
 30
0.0
  0
VERTEX
  8
0
 10
49.51571
 20
241.209687
 30
0.0
  0
VERTEX
  8
0
 10
51.13341
 20
242.828795
 30
0.0
  0
SEQEND
  8
0
  0
POLYLINE
  8
0
 62
0
 70
0
 66
1
 10
0.0
 20
0.0
 30
0.0
  0
VERTEX
  8
0
 10
52.898496
 20
228.698588
 30
0.0
  0
VERTEX
  8
0
 10
54.398496
 20
227.198588
 30
0.0
  0
SEQEND
  8
0
  0
POLYLINE
  8
0
 62
0
 70
0
 66
1
 10
0.0
 20
0.0
 30
0.0
  0
VERTEX
  8
0
 10
54.398496
 20
227.198588
 30
0.0
  0
VERTEX
  8
0
 10
55.459156
 20
227.637928
 30
0.0
  0
SEQEND
  8
0
  0
POLYLINE
  8
0
 62
0
 70
0
 66
1
 10
0.0
 20
0.0
 30
0.0
  0
VERTEX
  8
0
 10
55.459156
 20
229.759248
 30
0.0
  0
VERTEX
  8
0
 10
54.398496
 20
230.198588
 30
0.0
  0
SEQEND
  8
0
  0
POLYLINE
  8
0
 62
0
 70
0
 66
1
 10
0.0
 20
0.0
 30
0.0
  0
VERTEX
  8
0
 10
54.398496
 20
234.561144
 30
0.0
  0
VERTEX
  8
0
 10
53.337836
 20
234.121804
 30
0.0
  0
SEQEND
  8
0
  0
POLYLINE
  8
0
 62
0
 70
0
 66
1
 10
0.0
 20
0.0
 30
0.0
  0
VERTEX
  8
0
 10
55.459156
 20
234.121804
 30
0.0
  0
VERTEX
  8
0
 10
54.398496
 20
234.561144
 30
0.0
  0
SEQEND
  8
0
  0
POLYLINE
  8
0
 62
0
 70
0
 66
1
 10
0.0
 20
0.0
 30
0.0
  0
VERTEX
  8
0
 10
51.168963
 20
251.467778
 30
0.0
  0
VERTEX
  8
0
 10
49.539183
 20
253.086886
 30
0.0
  0
SEQEND
  8
0
  0
POLYLINE
  8
0
 62
0
 70
0
 66
1
 10
0.0
 20
0.0
 30
0.0
  0
VERTEX
  8
0
 10
46.280253
 20
256.324468
 30
0.0
  0
VERTEX
  8
0
 10
46.294953
 20
258.545563
 30
0.0
  0
SEQEND
  8
0
  0
POLYLINE
  8
0
 62
0
 70
0
 66
1
 10
0.0
 20
0.0
 30
0.0
  0
VERTEX
  8
0
 10
46.309653
 20
260.767979
 30
0.0
  0
VERTEX
  8
0
 10
46.324353
 20
262.989636
 30
0.0
  0
SEQEND
  8
0
  0
POLYLINE
  8
0
 62
0
 70
0
 66
1
 10
0.0
 20
0.0
 30
0.0
  0
VERTEX
  8
0
 10
46.294953
 20
258.545563
 30
0.0
  0
VERTEX
  8
0
 10
46.309653
 20
260.767979
 30
0.0
  0
SEQEND
  8
0
  0
POLYLINE
  8
0
 62
0
 70
0
 66
1
 10
0.0
 20
0.0
 30
0.0
  0
VERTEX
  8
0
 10
46.339053
 20
265.211848
 30
0.0
  0
VERTEX
  8
0
 10
46.353753
 20
267.432081
 30
0.0
  0
SEQEND
  8
0
  0
POLYLINE
  8
0
 62
0
 70
0
 66
1
 10
0.0
 20
0.0
 30
0.0
  0
VERTEX
  8
0
 10
46.468373
 20
268.146158
 30
0.0
  0
VERTEX
  8
0
 10
46.796313
 20
268.790845
 30
0.0
  0
SEQEND
  8
0
  0
POLYLINE
  8
0
 62
0
 70
0
 66
1
 10
0.0
 20
0.0
 30
0.0
  0
VERTEX
  8
0
 10
46.796313
 20
268.790845
 30
0.0
  0
VERTEX
  8
0
 10
47.306573
 20
269.302738
 30
0.0
  0
SEQEND
  8
0
  0
POLYLINE
  8
0
 62
0
 70
0
 66
1
 10
0.0
 20
0.0
 30
0.0
  0
VERTEX
  8
0
 10
49.539183
 20
253.086886
 30
0.0
  0
VERTEX
  8
0
 10
47.910053
 20
254.705347
 30
0.0
  0
SEQEND
  8
0
  0
POLYLINE
  8
0
 62
0
 70
0
 66
1
 10
0.0
 20
0.0
 30
0.0
  0
VERTEX
  8
0
 10
46.324353
 20
262.989636
 30
0.0
  0
VERTEX
  8
0
 10
46.339053
 20
265.211848
 30
0.0
  0
SEQEND
  8
0
  0
POLYLINE
  8
0
 62
0
 70
0
 66
1
 10
0.0
 20
0.0
 30
0.0
  0
VERTEX
  8
0
 10
46.353753
 20
267.432081
 30
0.0
  0
VERTEX
  8
0
 10
46.468373
 20
268.146158
 30
0.0
  0
SEQEND
  8
0
  0
POLYLINE
  8
0
 62
0
 70
0
 66
1
 10
0.0
 20
0.0
 30
0.0
  0
VERTEX
  8
0
 10
55.898496
 20
233.061144
 30
0.0
  0
VERTEX
  8
0
 10
55.459156
 20
234.121804
 30
0.0
  0
SEQEND
  8
0
  0
POLYLINE
  8
0
 62
0
 70
0
 66
1
 10
0.0
 20
0.0
 30
0.0
  0
VERTEX
  8
0
 10
52.898496
 20
233.061144
 30
0.0
  0
VERTEX
  8
0
 10
53.337836
 20
232.000484
 30
0.0
  0
SEQEND
  8
0
  0
POLYLINE
  8
0
 62
0
 70
0
 66
1
 10
0.0
 20
0.0
 30
0.0
  0
VERTEX
  8
0
 10
53.337836
 20
234.121804
 30
0.0
  0
VERTEX
  8
0
 10
52.898496
 20
233.061144
 30
0.0
  0
SEQEND
  8
0
  0
POLYLINE
  8
0
 62
0
 70
0
 66
1
 10
0.0
 20
0.0
 30
0.0
  0
VERTEX
  8
0
 10
55.459156
 20
232.000484
 30
0.0
  0
VERTEX
  8
0
 10
55.898496
 20
233.061144
 30
0.0
  0
SEQEND
  8
0
  0
POLYLINE
  8
0
 62
0
 70
0
 66
1
 10
0.0
 20
0.0
 30
0.0
  0
VERTEX
  8
0
 10
55.898496
 20
228.698588
 30
0.0
  0
VERTEX
  8
0
 10
55.459156
 20
229.759248
 30
0.0
  0
SEQEND
  8
0
  0
POLYLINE
  8
0
 62
0
 70
0
 66
1
 10
0.0
 20
0.0
 30
0.0
  0
VERTEX
  8
0
 10
54.398496
 20
231.561144
 30
0.0
  0
VERTEX
  8
0
 10
55.459156
 20
232.000484
 30
0.0
  0
SEQEND
  8
0
  0
POLYLINE
  8
0
 62
0
 70
0
 66
1
 10
0.0
 20
0.0
 30
0.0
  0
VERTEX
  8
0
 10
52.799303
 20
249.848117
 30
0.0
  0
VERTEX
  8
0
 10
51.168963
 20
251.467778
 30
0.0
  0
SEQEND
  8
0
  0
POLYLINE
  8
0
 62
0
 70
0
 66
1
 10
0.0
 20
0.0
 30
0.0
  0
VERTEX
  8
0
 10
53.337836
 20
232.000484
 30
0.0
  0
VERTEX
  8
0
 10
54.398496
 20
231.561144
 30
0.0
  0
SEQEND
  8
0
  0
POLYLINE
  8
0
 62
0
 70
0
 66
1
 10
0.0
 20
0.0
 30
0.0
  0
VERTEX
  8
0
 10
54.428673
 20
248.229419
 30
0.0
  0
VERTEX
  8
0
 10
52.799303
 20
249.848117
 30
0.0
  0
SEQEND
  8
0
  0
POLYLINE
  8
0
 62
0
 70
0
 66
1
 10
0.0
 20
0.0
 30
0.0
  0
VERTEX
  8
0
 10
47.910053
 20
254.705347
 30
0.0
  0
VERTEX
  8
0
 10
46.280253
 20
256.324468
 30
0.0
  0
SEQEND
  8
0
  0
POLYLINE
  8
0
 62
0
 70
0
 66
1
 10
0.0
 20
0.0
 30
0.0
  0
VERTEX
  8
0
 10
50.972513
 20
269.743041
 30
0.0
  0
VERTEX
  8
0
 10
53.281653
 20
269.743041
 30
0.0
  0
SEQEND
  8
0
  0
POLYLINE
  8
0
 62
0
 70
0
 66
1
 10
0.0
 20
0.0
 30
0.0
  0
VERTEX
  8
0
 10
60.205813
 20
269.743041
 30
0.0
  0
VERTEX
  8
0
 10
60.919913
 20
269.631453
 30
0.0
  0
SEQEND
  8
0
  0
POLYLINE
  8
0
 62
0
 70
0
 66
1
 10
0.0
 20
0.0
 30
0.0
  0
VERTEX
  8
0
 10
61.565743
 20
269.303137
 30
0.0
  0
VERTEX
  8
0
 10
62.077053
 20
268.791779
 30
0.0
  0
SEQEND
  8
0
  0
POLYLINE
  8
0
 62
0
 70
0
 66
1
 10
0.0
 20
0.0
 30
0.0
  0
VERTEX
  8
0
 10
54.398467
 20
264.097208
 30
0.0
  0
VERTEX
  8
0
 10
55.459127
 20
264.536548
 30
0.0
  0
SEQEND
  8
0
  0
POLYLINE
  8
0
 62
0
 70
0
 66
1
 10
0.0
 20
0.0
 30
0.0
  0
VERTEX
  8
0
 10
54.398467
 20
259.734652
 30
0.0
  0
VERTEX
  8
0
 10
55.459127
 20
260.173992
 30
0.0
  0
SEQEND
  8
0
  0
POLYLINE
  8
0
 62
0
 70
0
 66
1
 10
0.0
 20
0.0
 30
0.0
  0
VERTEX
  8
0
 10
60.919913
 20
269.631453
 30
0.0
  0
VERTEX
  8
0
 10
61.565743
 20
269.303137
 30
0.0
  0
SEQEND
  8
0
  0
POLYLINE
  8
0
 62
0
 70
0
 66
1
 10
0.0
 20
0.0
 30
0.0
  0
VERTEX
  8
0
 10
62.077053
 20
268.791779
 30
0.0
  0
VERTEX
  8
0
 10
62.405113
 20
268.146522
 30
0.0
  0
SEQEND
  8
0
  0
POLYLINE
  8
0
 62
0
 70
0
 66
1
 10
0.0
 20
0.0
 30
0.0
  0
VERTEX
  8
0
 10
62.405113
 20
268.146522
 30
0.0
  0
VERTEX
  8
0
 10
62.516813
 20
267.432081
 30
0.0
  0
SEQEND
  8
0
  0
POLYLINE
  8
0
 62
0
 70
0
 66
1
 10
0.0
 20
0.0
 30
0.0
  0
VERTEX
  8
0
 10
62.516813
 20
258.544701
 30
0.0
  0
VERTEX
  8
0
 10
62.516813
 20
256.324468
 30
0.0
  0
SEQEND
  8
0
  0
POLYLINE
  8
0
 62
0
 70
0
 66
1
 10
0.0
 20
0.0
 30
0.0
  0
VERTEX
  8
0
 10
62.516813
 20
256.324468
 30
0.0
  0
VERTEX
  8
0
 10
60.899513
 20
254.70577
 30
0.0
  0
SEQEND
  8
0
  0
POLYLINE
  8
0
 62
0
 70
0
 66
1
 10
0.0
 20
0.0
 30
0.0
  0
VERTEX
  8
0
 10
55.459127
 20
264.536548
 30
0.0
  0
VERTEX
  8
0
 10
55.898467
 20
265.597208
 30
0.0
  0
SEQEND
  8
0
  0
POLYLINE
  8
0
 62
0
 70
0
 66
1
 10
0.0
 20
0.0
 30
0.0
  0
VERTEX
  8
0
 10
48.664743
 20
269.743041
 30
0.0
  0
VERTEX
  8
0
 10
50.972513
 20
269.743041
 30
0.0
  0
SEQEND
  8
0
  0
POLYLINE
  8
0
 62
0
 70
0
 66
1
 10
0.0
 20
0.0
 30
0.0
  0
VERTEX
  8
0
 10
55.590013
 20
269.743041
 30
0.0
  0
VERTEX
  8
0
 10
57.897443
 20
269.743041
 30
0.0
  0
SEQEND
  8
0
  0
POLYLINE
  8
0
 62
0
 70
0
 66
1
 10
0.0
 20
0.0
 30
0.0
  0
VERTEX
  8
0
 10
62.516813
 20
267.432081
 30
0.0
  0
VERTEX
  8
0
 10
62.516813
 20
265.210986
 30
0.0
  0
SEQEND
  8
0
  0
POLYLINE
  8
0
 62
0
 70
0
 66
1
 10
0.0
 20
0.0
 30
0.0
  0
VERTEX
  8
0
 10
57.897443
 20
269.743041
 30
0.0
  0
VERTEX
  8
0
 10
60.205813
 20
269.743041
 30
0.0
  0
SEQEND
  8
0
  0
POLYLINE
  8
0
 62
0
 70
0
 66
1
 10
0.0
 20
0.0
 30
0.0
  0
VERTEX
  8
0
 10
62.516813
 20
262.98857
 30
0.0
  0
VERTEX
  8
0
 10
62.516813
 20
260.766913
 30
0.0
  0
SEQEND
  8
0
  0
POLYLINE
  8
0
 62
0
 70
0
 66
1
 10
0.0
 20
0.0
 30
0.0
  0
VERTEX
  8
0
 10
56.046493
 20
249.84854
 30
0.0
  0
VERTEX
  8
0
 10
54.428773
 20
248.229419
 30
0.0
  0
SEQEND
  8
0
  0
POLYLINE
  8
0
 62
0
 70
0
 66
1
 10
0.0
 20
0.0
 30
0.0
  0
VERTEX
  8
0
 10
55.898467
 20
265.597208
 30
0.0
  0
VERTEX
  8
0
 10
54.398467
 20
267.097208
 30
0.0
  0
SEQEND
  8
0
  0
POLYLINE
  8
0
 62
0
 70
0
 66
1
 10
0.0
 20
0.0
 30
0.0
  0
VERTEX
  8
0
 10
54.398467
 20
267.097208
 30
0.0
  0
VERTEX
  8
0
 10
53.337807
 20
266.657868
 30
0.0
  0
SEQEND
  8
0
  0
POLYLINE
  8
0
 62
0
 70
0
 66
1
 10
0.0
 20
0.0
 30
0.0
  0
VERTEX
  8
0
 10
53.337807
 20
266.657868
 30
0.0
  0
VERTEX
  8
0
 10
52.898467
 20
265.597208
 30
0.0
  0
SEQEND
  8
0
  0
POLYLINE
  8
0
 62
0
 70
0
 66
1
 10
0.0
 20
0.0
 30
0.0
  0
VERTEX
  8
0
 10
47.950593
 20
269.631195
 30
0.0
  0
VERTEX
  8
0
 10
48.664743
 20
269.743041
 30
0.0
  0
SEQEND
  8
0
  0
POLYLINE
  8
0
 62
0
 70
0
 66
1
 10
0.0
 20
0.0
 30
0.0
  0
VERTEX
  8
0
 10
53.281653
 20
269.743041
 30
0.0
  0
VERTEX
  8
0
 10
55.590013
 20
269.743041
 30
0.0
  0
SEQEND
  8
0
  0
POLYLINE
  8
0
 62
0
 70
0
 66
1
 10
0.0
 20
0.0
 30
0.0
  0
VERTEX
  8
0
 10
52.898467
 20
265.597208
 30
0.0
  0
VERTEX
  8
0
 10
53.337807
 20
264.536548
 30
0.0
  0
SEQEND
  8
0
  0
POLYLINE
  8
0
 62
0
 70
0
 66
1
 10
0.0
 20
0.0
 30
0.0
  0
VERTEX
  8
0
 10
59.281253
 20
253.086109
 30
0.0
  0
VERTEX
  8
0
 10
57.663553
 20
251.467001
 30
0.0
  0
SEQEND
  8
0
  0
POLYLINE
  8
0
 62
0
 70
0
 66
1
 10
0.0
 20
0.0
 30
0.0
  0
VERTEX
  8
0
 10
62.516813
 20
260.766913
 30
0.0
  0
VERTEX
  8
0
 10
62.516813
 20
258.544701
 30
0.0
  0
SEQEND
  8
0
  0
POLYLINE
  8
0
 62
0
 70
0
 66
1
 10
0.0
 20
0.0
 30
0.0
  0
VERTEX
  8
0
 10
47.306573
 20
269.302738
 30
0.0
  0
VERTEX
  8
0
 10
47.950593
 20
269.631195
 30
0.0
  0
SEQEND
  8
0
  0
POLYLINE
  8
0
 62
0
 70
0
 66
1
 10
0.0
 20
0.0
 30
0.0
  0
VERTEX
  8
0
 10
62.516813
 20
265.210986
 30
0.0
  0
VERTEX
  8
0
 10
62.516813
 20
262.98857
 30
0.0
  0
SEQEND
  8
0
  0
POLYLINE
  8
0
 62
0
 70
0
 66
1
 10
0.0
 20
0.0
 30
0.0
  0
VERTEX
  8
0
 10
57.663553
 20
251.467001
 30
0.0
  0
VERTEX
  8
0
 10
56.046493
 20
249.84854
 30
0.0
  0
SEQEND
  8
0
  0
POLYLINE
  8
0
 62
0
 70
0
 66
1
 10
0.0
 20
0.0
 30
0.0
  0
VERTEX
  8
0
 10
60.899513
 20
254.70577
 30
0.0
  0
VERTEX
  8
0
 10
59.281253
 20
253.086109
 30
0.0
  0
SEQEND
  8
0
  0
POLYLINE
  8
0
 62
0
 70
0
 66
1
 10
0.0
 20
0.0
 30
0.0
  0
VERTEX
  8
0
 10
53.337807
 20
264.536548
 30
0.0
  0
VERTEX
  8
0
 10
54.398467
 20
264.097208
 30
0.0
  0
SEQEND
  8
0
  0
POLYLINE
  8
0
 62
0
 70
0
 66
1
 10
0.0
 20
0.0
 30
0.0
  0
VERTEX
  8
0
 10
96.572913
 20
244.518961
 30
0.0
  0
VERTEX
  8
0
 10
96.572913
 20
244.719525
 30
0.0
  0
SEQEND
  8
0
  0
POLYLINE
  8
0
 62
0
 70
0
 66
1
 10
0.0
 20
0.0
 30
0.0
  0
VERTEX
  8
0
 10
96.572913
 20
245.318259
 30
0.0
  0
VERTEX
  8
0
 10
96.572913
 20
245.518485
 30
0.0
  0
SEQEND
  8
0
  0
POLYLINE
  8
0
 62
0
 70
0
 66
1
 10
0.0
 20
0.0
 30
0.0
  0
VERTEX
  8
0
 10
96.572913
 20
247.717668
 30
0.0
  0
VERTEX
  8
0
 10
96.572913
 20
247.918792
 30
0.0
  0
SEQEND
  8
0
  0
POLYLINE
  8
0
 62
0
 70
0
 66
1
 10
0.0
 20
0.0
 30
0.0
  0
VERTEX
  8
0
 10
96.572913
 20
248.517485
 30
0.0
  0
VERTEX
  8
0
 10
96.572913
 20
248.717575
 30
0.0
  0
SEQEND
  8
0
  0
POLYLINE
  8
0
 62
0
 70
0
 66
1
 10
0.0
 20
0.0
 30
0.0
  0
VERTEX
  8
0
 10
55.898467
 20
261.234652
 30
0.0
  0
VERTEX
  8
0
 10
55.459127
 20
262.295312
 30
0.0
  0
SEQEND
  8
0
  0
POLYLINE
  8
0
 62
0
 70
0
 66
1
 10
0.0
 20
0.0
 30
0.0
  0
VERTEX
  8
0
 10
96.572913
 20
245.518485
 30
0.0
  0
VERTEX
  8
0
 10
96.572913
 20
245.717829
 30
0.0
  0
SEQEND
  8
0
  0
POLYLINE
  8
0
 62
0
 70
0
 66
1
 10
0.0
 20
0.0
 30
0.0
  0
VERTEX
  8
0
 10
96.572913
 20
244.318452
 30
0.0
  0
VERTEX
  8
0
 10
96.572913
 20
244.518961
 30
0.0
  0
SEQEND
  8
0
  0
POLYLINE
  8
0
 62
0
 70
0
 66
1
 10
0.0
 20
0.0
 30
0.0
  0
VERTEX
  8
0
 10
96.572913
 20
245.717829
 30
0.0
  0
VERTEX
  8
0
 10
96.572913
 20
245.918898
 30
0.0
  0
SEQEND
  8
0
  0
POLYLINE
  8
0
 62
0
 70
0
 66
1
 10
0.0
 20
0.0
 30
0.0
  0
VERTEX
  8
0
 10
96.572913
 20
246.318662
 30
0.0
  0
VERTEX
  8
0
 10
96.572913
 20
246.518482
 30
0.0
  0
SEQEND
  8
0
  0
POLYLINE
  8
0
 62
0
 70
0
 66
1
 10
0.0
 20
0.0
 30
0.0
  0
VERTEX
  8
0
 10
96.572913
 20
246.918464
 30
0.0
  0
VERTEX
  8
0
 10
96.572913
 20
247.118949
 30
0.0
  0
SEQEND
  8
0
  0
POLYLINE
  8
0
 62
0
 70
0
 66
1
 10
0.0
 20
0.0
 30
0.0
  0
VERTEX
  8
0
 10
52.898467
 20
261.234652
 30
0.0
  0
VERTEX
  8
0
 10
53.337807
 20
260.173992
 30
0.0
  0
SEQEND
  8
0
  0
POLYLINE
  8
0
 62
0
 70
0
 66
1
 10
0.0
 20
0.0
 30
0.0
  0
VERTEX
  8
0
 10
54.398467
 20
262.734652
 30
0.0
  0
VERTEX
  8
0
 10
53.337807
 20
262.295312
 30
0.0
  0
SEQEND
  8
0
  0
POLYLINE
  8
0
 62
0
 70
0
 66
1
 10
0.0
 20
0.0
 30
0.0
  0
VERTEX
  8
0
 10
96.572913
 20
246.518482
 30
0.0
  0
VERTEX
  8
0
 10
96.572913
 20
246.718578
 30
0.0
  0
SEQEND
  8
0
  0
POLYLINE
  8
0
 62
0
 70
0
 66
1
 10
0.0
 20
0.0
 30
0.0
  0
VERTEX
  8
0
 10
55.459127
 20
262.295312
 30
0.0
  0
VERTEX
  8
0
 10
54.398467
 20
262.734652
 30
0.0
  0
SEQEND
  8
0
  0
POLYLINE
  8
0
 62
0
 70
0
 66
1
 10
0.0
 20
0.0
 30
0.0
  0
VERTEX
  8
0
 10
96.572913
 20
246.718578
 30
0.0
  0
VERTEX
  8
0
 10
96.572913
 20
246.918464
 30
0.0
  0
SEQEND
  8
0
  0
POLYLINE
  8
0
 62
0
 70
0
 66
1
 10
0.0
 20
0.0
 30
0.0
  0
VERTEX
  8
0
 10
96.572913
 20
245.118873
 30
0.0
  0
VERTEX
  8
0
 10
96.572913
 20
245.318259
 30
0.0
  0
SEQEND
  8
0
  0
POLYLINE
  8
0
 62
0
 70
0
 66
1
 10
0.0
 20
0.0
 30
0.0
  0
VERTEX
  8
0
 10
96.572913
 20
247.118949
 30
0.0
  0
VERTEX
  8
0
 10
96.572913
 20
247.317703
 30
0.0
  0
SEQEND
  8
0
  0
POLYLINE
  8
0
 62
0
 70
0
 66
1
 10
0.0
 20
0.0
 30
0.0
  0
VERTEX
  8
0
 10
53.337807
 20
260.173992
 30
0.0
  0
VERTEX
  8
0
 10
54.398467
 20
259.734652
 30
0.0
  0
SEQEND
  8
0
  0
POLYLINE
  8
0
 62
0
 70
0
 66
1
 10
0.0
 20
0.0
 30
0.0
  0
VERTEX
  8
0
 10
53.337807
 20
262.295312
 30
0.0
  0
VERTEX
  8
0
 10
52.898467
 20
261.234652
 30
0.0
  0
SEQEND
  8
0
  0
POLYLINE
  8
0
 62
0
 70
0
 66
1
 10
0.0
 20
0.0
 30
0.0
  0
VERTEX
  8
0
 10
96.572913
 20
245.918898
 30
0.0
  0
VERTEX
  8
0
 10
96.572913
 20
246.119731
 30
0.0
  0
SEQEND
  8
0
  0
POLYLINE
  8
0
 62
0
 70
0
 66
1
 10
0.0
 20
0.0
 30
0.0
  0
VERTEX
  8
0
 10
96.572913
 20
247.317703
 30
0.0
  0
VERTEX
  8
0
 10
96.572913
 20
247.517479
 30
0.0
  0
SEQEND
  8
0
  0
POLYLINE
  8
0
 62
0
 70
0
 66
1
 10
0.0
 20
0.0
 30
0.0
  0
VERTEX
  8
0
 10
96.572913
 20
247.517479
 30
0.0
  0
VERTEX
  8
0
 10
96.572913
 20
247.717668
 30
0.0
  0
SEQEND
  8
0
  0
POLYLINE
  8
0
 62
0
 70
0
 66
1
 10
0.0
 20
0.0
 30
0.0
  0
VERTEX
  8
0
 10
96.572913
 20
246.119731
 30
0.0
  0
VERTEX
  8
0
 10
96.572913
 20
246.318662
 30
0.0
  0
SEQEND
  8
0
  0
POLYLINE
  8
0
 62
0
 70
0
 66
1
 10
0.0
 20
0.0
 30
0.0
  0
VERTEX
  8
0
 10
96.572913
 20
244.719525
 30
0.0
  0
VERTEX
  8
0
 10
96.572913
 20
244.919345
 30
0.0
  0
SEQEND
  8
0
  0
POLYLINE
  8
0
 62
0
 70
0
 66
1
 10
0.0
 20
0.0
 30
0.0
  0
VERTEX
  8
0
 10
96.572913
 20
247.918792
 30
0.0
  0
VERTEX
  8
0
 10
96.572913
 20
248.119108
 30
0.0
  0
SEQEND
  8
0
  0
POLYLINE
  8
0
 62
0
 70
0
 66
1
 10
0.0
 20
0.0
 30
0.0
  0
VERTEX
  8
0
 10
55.459127
 20
260.173992
 30
0.0
  0
VERTEX
  8
0
 10
55.898467
 20
261.234652
 30
0.0
  0
SEQEND
  8
0
  0
POLYLINE
  8
0
 62
0
 70
0
 66
1
 10
0.0
 20
0.0
 30
0.0
  0
VERTEX
  8
0
 10
96.572913
 20
244.919345
 30
0.0
  0
VERTEX
  8
0
 10
96.572913
 20
245.118873
 30
0.0
  0
SEQEND
  8
0
  0
POLYLINE
  8
0
 62
0
 70
0
 66
1
 10
0.0
 20
0.0
 30
0.0
  0
VERTEX
  8
0
 10
96.572913
 20
248.119108
 30
0.0
  0
VERTEX
  8
0
 10
96.572913
 20
248.318469
 30
0.0
  0
SEQEND
  8
0
  0
POLYLINE
  8
0
 62
0
 70
0
 66
1
 10
0.0
 20
0.0
 30
0.0
  0
VERTEX
  8
0
 10
96.572913
 20
248.318469
 30
0.0
  0
VERTEX
  8
0
 10
96.572913
 20
248.517485
 30
0.0
  0
SEQEND
  8
0
  0
POLYLINE
  8
0
 62
0
 70
0
 66
1
 10
0.0
 20
0.0
 30
0.0
  0
VERTEX
  8
0
 10
96.572913
 20
249.118397
 30
0.0
  0
VERTEX
  8
0
 10
96.572913
 20
249.318452
 30
0.0
  0
SEQEND
  8
0
  0
POLYLINE
  8
0
 62
0
 70
0
 66
1
 10
0.0
 20
0.0
 30
0.0
  0
VERTEX
  8
0
 10
94.072914
 20
246.818452
 30
0.0
  0
VERTEX
  8
0
 10
94.273423
 20
246.818452
 30
0.0
  0
SEQEND
  8
0
  0
POLYLINE
  8
0
 62
0
 70
0
 66
1
 10
0.0
 20
0.0
 30
0.0
  0
VERTEX
  8
0
 10
96.572913
 20
248.918384
 30
0.0
  0
VERTEX
  8
0
 10
96.572913
 20
249.118397
 30
0.0
  0
SEQEND
  8
0
  0
POLYLINE
  8
0
 62
0
 70
0
 66
1
 10
0.0
 20
0.0
 30
0.0
  0
VERTEX
  8
0
 10
96.572913
 20
248.717575
 30
0.0
  0
VERTEX
  8
0
 10
96.572913
 20
248.918384
 30
0.0
  0
SEQEND
  8
0
  0
POLYLINE
  8
0
 62
0
 70
0
 66
1
 10
0.0
 20
0.0
 30
0.0
  0
VERTEX
  8
0
 10
94.273423
 20
246.818452
 30
0.0
  0
VERTEX
  8
0
 10
94.473987
 20
246.818452
 30
0.0
  0
SEQEND
  8
0
  0
POLYLINE
  8
0
 62
0
 70
0
 66
1
 10
0.0
 20
0.0
 30
0.0
  0
VERTEX
  8
0
 10
94.673806
 20
246.818452
 30
0.0
  0
VERTEX
  8
0
 10
94.873334
 20
246.818452
 30
0.0
  0
SEQEND
  8
0
  0
POLYLINE
  8
0
 62
0
 70
0
 66
1
 10
0.0
 20
0.0
 30
0.0
  0
VERTEX
  8
0
 10
96.672925
 20
246.818452
 30
0.0
  0
VERTEX
  8
0
 10
96.873411
 20
246.818452
 30
0.0
  0
SEQEND
  8
0
  0
POLYLINE
  8
0
 62
0
 70
0
 66
1
 10
0.0
 20
0.0
 30
0.0
  0
VERTEX
  8
0
 10
94.873334
 20
246.818452
 30
0.0
  0
VERTEX
  8
0
 10
95.072721
 20
246.818452
 30
0.0
  0
SEQEND
  8
0
  0
POLYLINE
  8
0
 62
0
 70
0
 66
1
 10
0.0
 20
0.0
 30
0.0
  0
VERTEX
  8
0
 10
95.272947
 20
246.818452
 30
0.0
  0
VERTEX
  8
0
 10
95.472291
 20
246.818452
 30
0.0
  0
SEQEND
  8
0
  0
POLYLINE
  8
0
 62
0
 70
0
 66
1
 10
0.0
 20
0.0
 30
0.0
  0
VERTEX
  8
0
 10
95.673359
 20
246.818452
 30
0.0
  0
VERTEX
  8
0
 10
95.874193
 20
246.818452
 30
0.0
  0
SEQEND
  8
0
  0
POLYLINE
  8
0
 62
0
 70
0
 66
1
 10
0.0
 20
0.0
 30
0.0
  0
VERTEX
  8
0
 10
95.874193
 20
246.818452
 30
0.0
  0
VERTEX
  8
0
 10
96.073123
 20
246.818452
 30
0.0
  0
SEQEND
  8
0
  0
POLYLINE
  8
0
 62
0
 70
0
 66
1
 10
0.0
 20
0.0
 30
0.0
  0
VERTEX
  8
0
 10
94.473987
 20
246.818452
 30
0.0
  0
VERTEX
  8
0
 10
94.673806
 20
246.818452
 30
0.0
  0
SEQEND
  8
0
  0
POLYLINE
  8
0
 62
0
 70
0
 66
1
 10
0.0
 20
0.0
 30
0.0
  0
VERTEX
  8
0
 10
96.073123
 20
246.818452
 30
0.0
  0
VERTEX
  8
0
 10
96.272943
 20
246.818452
 30
0.0
  0
SEQEND
  8
0
  0
POLYLINE
  8
0
 62
0
 70
0
 66
1
 10
0.0
 20
0.0
 30
0.0
  0
VERTEX
  8
0
 10
95.072721
 20
246.818452
 30
0.0
  0
VERTEX
  8
0
 10
95.272947
 20
246.818452
 30
0.0
  0
SEQEND
  8
0
  0
POLYLINE
  8
0
 62
0
 70
0
 66
1
 10
0.0
 20
0.0
 30
0.0
  0
VERTEX
  8
0
 10
96.272943
 20
246.818452
 30
0.0
  0
VERTEX
  8
0
 10
96.47304
 20
246.818452
 30
0.0
  0
SEQEND
  8
0
  0
POLYLINE
  8
0
 62
0
 70
0
 66
1
 10
0.0
 20
0.0
 30
0.0
  0
VERTEX
  8
0
 10
96.47304
 20
246.818452
 30
0.0
  0
VERTEX
  8
0
 10
96.672925
 20
246.818452
 30
0.0
  0
SEQEND
  8
0
  0
POLYLINE
  8
0
 62
0
 70
0
 66
1
 10
0.0
 20
0.0
 30
0.0
  0
VERTEX
  8
0
 10
95.472291
 20
246.818452
 30
0.0
  0
VERTEX
  8
0
 10
95.673359
 20
246.818452
 30
0.0
  0
SEQEND
  8
0
  0
POLYLINE
  8
0
 62
0
 70
0
 66
1
 10
0.0
 20
0.0
 30
0.0
  0
VERTEX
  8
0
 10
108.723272
 20
236.821061
 30
0.0
  0
VERTEX
  8
0
 10
109.783932
 20
237.260401
 30
0.0
  0
SEQEND
  8
0
  0
POLYLINE
  8
0
 62
0
 70
0
 66
1
 10
0.0
 20
0.0
 30
0.0
  0
VERTEX
  8
0
 10
140.283938
 20
265.245863
 30
0.0
  0
VERTEX
  8
0
 10
139.844599
 20
264.185203
 30
0.0
  0
SEQEND
  8
0
  0
POLYLINE
  8
0
 62
0
 70
0
 66
1
 10
0.0
 20
0.0
 30
0.0
  0
VERTEX
  8
0
 10
145.916754
 20
260.746724
 30
0.0
  0
VERTEX
  8
0
 10
145.466444
 20
259.659644
 30
0.0
  0
SEQEND
  8
0
  0
POLYLINE
  8
0
 62
0
 70
0
 66
1
 10
0.0
 20
0.0
 30
0.0
  0
VERTEX
  8
0
 10
136.466034
 20
255.931794
 30
0.0
  0
VERTEX
  8
0
 10
135.378954
 20
256.382104
 30
0.0
  0
SEQEND
  8
0
  0
POLYLINE
  8
0
 62
0
 70
0
 66
1
 10
0.0
 20
0.0
 30
0.0
  0
VERTEX
  8
0
 10
138.783894
 20
255.564614
 30
0.0
  0
VERTEX
  8
0
 10
137.610944
 20
255.656914
 30
0.0
  0
SEQEND
  8
0
  0
POLYLINE
  8
0
 62
0
 70
0
 66
1
 10
0.0
 20
0.0
 30
0.0
  0
VERTEX
  8
0
 10
140.283938
 20
260.883307
 30
0.0
  0
VERTEX
  8
0
 10
138.783938
 20
259.383307
 30
0.0
  0
SEQEND
  8
0
  0
POLYLINE
  8
0
 62
0
 70
0
 66
1
 10
0.0
 20
0.0
 30
0.0
  0
VERTEX
  8
0
 10
145.466444
 20
259.659644
 30
0.0
  0
VERTEX
  8
0
 10
144.852014
 20
258.656814
 30
0.0
  0
SEQEND
  8
0
  0
POLYLINE
  8
0
 62
0
 70
0
 66
1
 10
0.0
 20
0.0
 30
0.0
  0
VERTEX
  8
0
 10
143.192554
 20
256.997114
 30
0.0
  0
VERTEX
  8
0
 10
142.188614
 20
256.381914
 30
0.0
  0
SEQEND
  8
0
  0
POLYLINE
  8
0
 62
0
 70
0
 66
1
 10
0.0
 20
0.0
 30
0.0
  0
VERTEX
  8
0
 10
138.783938
 20
266.745863
 30
0.0
  0
VERTEX
  8
0
 10
139.844599
 20
266.306523
 30
0.0
  0
SEQEND
  8
0
  0
POLYLINE
  8
0
 62
0
 70
0
 66
1
 10
0.0
 20
0.0
 30
0.0
  0
VERTEX
  8
0
 10
146.191634
 20
261.891634
 30
0.0
  0
VERTEX
  8
0
 10
145.916754
 20
260.746724
 30
0.0
  0
SEQEND
  8
0
  0
POLYLINE
  8
0
 62
0
 70
0
 66
1
 10
0.0
 20
0.0
 30
0.0
  0
VERTEX
  8
0
 10
137.283938
 20
260.883307
 30
0.0
  0
VERTEX
  8
0
 10
137.723278
 20
261.943967
 30
0.0
  0
SEQEND
  8
0
  0
POLYLINE
  8
0
 62
0
 70
0
 66
1
 10
0.0
 20
0.0
 30
0.0
  0
VERTEX
  8
0
 10
144.852014
 20
258.656814
 30
0.0
  0
VERTEX
  8
0
 10
144.087194
 20
257.761284
 30
0.0
  0
SEQEND
  8
0
  0
POLYLINE
  8
0
 62
0
 70
0
 66
1
 10
0.0
 20
0.0
 30
0.0
  0
VERTEX
  8
0
 10
137.723278
 20
261.943967
 30
0.0
  0
VERTEX
  8
0
 10
138.783938
 20
262.383307
 30
0.0
  0
SEQEND
  8
0
  0
POLYLINE
  8
0
 62
0
 70
0
 66
1
 10
0.0
 20
0.0
 30
0.0
  0
VERTEX
  8
0
 10
137.723278
 20
264.185203
 30
0.0
  0
VERTEX
  8
0
 10
137.283938
 20
265.245863
 30
0.0
  0
SEQEND
  8
0
  0
POLYLINE
  8
0
 62
0
 70
0
 66
1
 10
0.0
 20
0.0
 30
0.0
  0
VERTEX
  8
0
 10
139.844599
 20
261.943967
 30
0.0
  0
VERTEX
  8
0
 10
140.283938
 20
260.883307
 30
0.0
  0
SEQEND
  8
0
  0
POLYLINE
  8
0
 62
0
 70
0
 66
1
 10
0.0
 20
0.0
 30
0.0
  0
VERTEX
  8
0
 10
137.723278
 20
259.822647
 30
0.0
  0
VERTEX
  8
0
 10
137.283938
 20
260.883307
 30
0.0
  0
SEQEND
  8
0
  0
POLYLINE
  8
0
 62
0
 70
0
 66
1
 10
0.0
 20
0.0
 30
0.0
  0
VERTEX
  8
0
 10
144.087194
 20
257.761284
 30
0.0
  0
VERTEX
  8
0
 10
143.192554
 20
256.997114
 30
0.0
  0
SEQEND
  8
0
  0
POLYLINE
  8
0
 62
0
 70
0
 66
1
 10
0.0
 20
0.0
 30
0.0
  0
VERTEX
  8
0
 10
138.783938
 20
259.383307
 30
0.0
  0
VERTEX
  8
0
 10
137.723278
 20
259.822647
 30
0.0
  0
SEQEND
  8
0
  0
POLYLINE
  8
0
 62
0
 70
0
 66
1
 10
0.0
 20
0.0
 30
0.0
  0
VERTEX
  8
0
 10
137.283938
 20
265.245863
 30
0.0
  0
VERTEX
  8
0
 10
137.723278
 20
266.306523
 30
0.0
  0
SEQEND
  8
0
  0
POLYLINE
  8
0
 62
0
 70
0
 66
1
 10
0.0
 20
0.0
 30
0.0
  0
VERTEX
  8
0
 10
142.188614
 20
256.381914
 30
0.0
  0
VERTEX
  8
0
 10
141.101514
 20
255.931654
 30
0.0
  0
SEQEND
  8
0
  0
POLYLINE
  8
0
 62
0
 70
0
 66
1
 10
0.0
 20
0.0
 30
0.0
  0
VERTEX
  8
0
 10
138.783938
 20
263.745863
 30
0.0
  0
VERTEX
  8
0
 10
137.723278
 20
264.185203
 30
0.0
  0
SEQEND
  8
0
  0
POLYLINE
  8
0
 62
0
 70
0
 66
1
 10
0.0
 20
0.0
 30
0.0
  0
VERTEX
  8
0
 10
141.101514
 20
255.931654
 30
0.0
  0
VERTEX
  8
0
 10
139.957934
 20
255.657014
 30
0.0
  0
SEQEND
  8
0
  0
POLYLINE
  8
0
 62
0
 70
0
 66
1
 10
0.0
 20
0.0
 30
0.0
  0
VERTEX
  8
0
 10
139.957934
 20
255.657014
 30
0.0
  0
VERTEX
  8
0
 10
138.783894
 20
255.564614
 30
0.0
  0
SEQEND
  8
0
  0
POLYLINE
  8
0
 62
0
 70
0
 66
1
 10
0.0
 20
0.0
 30
0.0
  0
VERTEX
  8
0
 10
139.844599
 20
264.185203
 30
0.0
  0
VERTEX
  8
0
 10
138.783938
 20
263.745863
 30
0.0
  0
SEQEND
  8
0
  0
POLYLINE
  8
0
 62
0
 70
0
 66
1
 10
0.0
 20
0.0
 30
0.0
  0
VERTEX
  8
0
 10
139.844599
 20
266.306523
 30
0.0
  0
VERTEX
  8
0
 10
140.283938
 20
265.245863
 30
0.0
  0
SEQEND
  8
0
  0
POLYLINE
  8
0
 62
0
 70
0
 66
1
 10
0.0
 20
0.0
 30
0.0
  0
VERTEX
  8
0
 10
138.783938
 20
262.383307
 30
0.0
  0
VERTEX
  8
0
 10
139.844599
 20
261.943967
 30
0.0
  0
SEQEND
  8
0
  0
POLYLINE
  8
0
 62
0
 70
0
 66
1
 10
0.0
 20
0.0
 30
0.0
  0
VERTEX
  8
0
 10
137.723278
 20
266.306523
 30
0.0
  0
VERTEX
  8
0
 10
138.783938
 20
266.745863
 30
0.0
  0
SEQEND
  8
0
  0
POLYLINE
  8
0
 62
0
 70
0
 66
1
 10
0.0
 20
0.0
 30
0.0
  0
VERTEX
  8
0
 10
146.283934
 20
263.064584
 30
0.0
  0
VERTEX
  8
0
 10
146.191634
 20
261.891634
 30
0.0
  0
SEQEND
  8
0
  0
POLYLINE
  8
0
 62
0
 70
0
 66
1
 10
0.0
 20
0.0
 30
0.0
  0
VERTEX
  8
0
 10
137.610944
 20
255.656914
 30
0.0
  0
VERTEX
  8
0
 10
136.466034
 20
255.931794
 30
0.0
  0
SEQEND
  8
0
  0
POLYLINE
  8
0
 62
0
 70
0
 66
1
 10
0.0
 20
0.0
 30
0.0
  0
VERTEX
  8
0
 10
121.427445
 20
245.648132
 30
0.0
  0
VERTEX
  8
0
 10
122.488105
 20
246.087472
 30
0.0
  0
SEQEND
  8
0
  0
POLYLINE
  8
0
 62
0
 70
0
 66
1
 10
0.0
 20
0.0
 30
0.0
  0
VERTEX
  8
0
 10
134.376124
 20
256.996534
 30
0.0
  0
VERTEX
  8
0
 10
133.480594
 20
257.761354
 30
0.0
  0
SEQEND
  8
0
  0
POLYLINE
  8
0
 62
0
 70
0
 66
1
 10
0.0
 20
0.0
 30
0.0
  0
VERTEX
  8
0
 10
132.716424
 20
258.655994
 30
0.0
  0
VERTEX
  8
0
 10
132.101224
 20
259.659934
 30
0.0
  0
SEQEND
  8
0
  0
POLYLINE
  8
0
 62
0
 70
0
 66
1
 10
0.0
 20
0.0
 30
0.0
  0
VERTEX
  8
0
 10
135.378954
 20
256.382104
 30
0.0
  0
VERTEX
  8
0
 10
134.376124
 20
256.996534
 30
0.0
  0
SEQEND
  8
0
  0
POLYLINE
  8
0
 62
0
 70
0
 66
1
 10
0.0
 20
0.0
 30
0.0
  0
VERTEX
  8
0
 10
132.101224
 20
259.659934
 30
0.0
  0
VERTEX
  8
0
 10
131.650964
 20
260.747034
 30
0.0
  0
SEQEND
  8
0
  0
POLYLINE
  8
0
 62
0
 70
0
 66
1
 10
0.0
 20
0.0
 30
0.0
  0
VERTEX
  8
0
 10
122.488105
 20
246.087472
 30
0.0
  0
VERTEX
  8
0
 10
123.548765
 20
245.648132
 30
0.0
  0
SEQEND
  8
0
  0
POLYLINE
  8
0
 62
0
 70
0
 66
1
 10
0.0
 20
0.0
 30
0.0
  0
VERTEX
  8
0
 10
121.427445
 20
243.526812
 30
0.0
  0
VERTEX
  8
0
 10
120.988105
 20
244.587472
 30
0.0
  0
SEQEND
  8
0
  0
POLYLINE
  8
0
 62
0
 70
0
 66
1
 10
0.0
 20
0.0
 30
0.0
  0
VERTEX
  8
0
 10
120.988105
 20
244.587472
 30
0.0
  0
VERTEX
  8
0
 10
121.427445
 20
245.648132
 30
0.0
  0
SEQEND
  8
0
  0
POLYLINE
  8
0
 62
0
 70
0
 66
1
 10
0.0
 20
0.0
 30
0.0
  0
VERTEX
  8
0
 10
120.988105
 20
248.950028
 30
0.0
  0
VERTEX
  8
0
 10
121.427445
 20
250.010688
 30
0.0
  0
SEQEND
  8
0
  0
POLYLINE
  8
0
 62
0
 70
0
 66
1
 10
0.0
 20
0.0
 30
0.0
  0
VERTEX
  8
0
 10
141.102024
 20
270.199551
 30
0.0
  0
VERTEX
  8
0
 10
143.192464
 20
269.132829
 30
0.0
  0
SEQEND
  8
0
  0
POLYLINE
  8
0
 62
0
 70
0
 66
1
 10
0.0
 20
0.0
 30
0.0
  0
VERTEX
  8
0
 10
129.620921
 20
244.450889
 30
0.0
  0
VERTEX
  8
0
 10
129.170611
 20
243.363809
 30
0.0
  0
SEQEND
  8
0
  0
POLYLINE
  8
0
 62
0
 70
0
 66
1
 10
0.0
 20
0.0
 30
0.0
  0
VERTEX
  8
0
 10
133.480594
 20
257.761354
 30
0.0
  0
VERTEX
  8
0
 10
132.716424
 20
258.655994
 30
0.0
  0
SEQEND
  8
0
  0
POLYLINE
  8
0
 62
0
 70
0
 66
1
 10
0.0
 20
0.0
 30
0.0
  0
VERTEX
  8
0
 10
134.375784
 20
269.133119
 30
0.0
  0
VERTEX
  8
0
 10
136.465244
 20
270.199364
 30
0.0
  0
SEQEND
  8
0
  0
POLYLINE
  8
0
 62
0
 70
0
 66
1
 10
0.0
 20
0.0
 30
0.0
  0
VERTEX
  8
0
 10
131.649024
 20
265.382759
 30
0.0
  0
VERTEX
  8
0
 10
132.715744
 20
267.47319
 30
0.0
  0
SEQEND
  8
0
  0
POLYLINE
  8
0
 62
0
 70
0
 66
1
 10
0.0
 20
0.0
 30
0.0
  0
VERTEX
  8
0
 10
136.465244
 20
270.199364
 30
0.0
  0
VERTEX
  8
0
 10
138.783924
 20
270.564653
 30
0.0
  0
SEQEND
  8
0
  0
POLYLINE
  8
0
 62
0
 70
0
 66
1
 10
0.0
 20
0.0
 30
0.0
  0
VERTEX
  8
0
 10
131.650964
 20
260.747034
 30
0.0
  0
VERTEX
  8
0
 10
131.376324
 20
261.890614
 30
0.0
  0
SEQEND
  8
0
  0
POLYLINE
  8
0
 62
0
 70
0
 66
1
 10
0.0
 20
0.0
 30
0.0
  0
VERTEX
  8
0
 10
138.783924
 20
270.564653
 30
0.0
  0
VERTEX
  8
0
 10
141.102024
 20
270.199551
 30
0.0
  0
SEQEND
  8
0
  0
POLYLINE
  8
0
 62
0
 70
0
 66
1
 10
0.0
 20
0.0
 30
0.0
  0
VERTEX
  8
0
 10
131.283924
 20
263.064654
 30
0.0
  0
VERTEX
  8
0
 10
131.649024
 20
265.382759
 30
0.0
  0
SEQEND
  8
0
  0
POLYLINE
  8
0
 62
0
 70
0
 66
1
 10
0.0
 20
0.0
 30
0.0
  0
VERTEX
  8
0
 10
132.715744
 20
267.47319
 30
0.0
  0
VERTEX
  8
0
 10
134.375784
 20
269.133119
 30
0.0
  0
SEQEND
  8
0
  0
POLYLINE
  8
0
 62
0
 70
0
 66
1
 10
0.0
 20
0.0
 30
0.0
  0
VERTEX
  8
0
 10
143.192464
 20
269.132829
 30
0.0
  0
VERTEX
  8
0
 10
144.852394
 20
267.472791
 30
0.0
  0
SEQEND
  8
0
  0
POLYLINE
  8
0
 62
0
 70
0
 66
1
 10
0.0
 20
0.0
 30
0.0
  0
VERTEX
  8
0
 10
144.852394
 20
267.472791
 30
0.0
  0
VERTEX
  8
0
 10
145.918634
 20
265.383333
 30
0.0
  0
SEQEND
  8
0
  0
POLYLINE
  8
0
 62
0
 70
0
 66
1
 10
0.0
 20
0.0
 30
0.0
  0
VERTEX
  8
0
 10
131.376324
 20
261.890614
 30
0.0
  0
VERTEX
  8
0
 10
131.283924
 20
263.064654
 30
0.0
  0
SEQEND
  8
0
  0
POLYLINE
  8
0
 62
0
 70
0
 66
1
 10
0.0
 20
0.0
 30
0.0
  0
VERTEX
  8
0
 10
145.918634
 20
265.383333
 30
0.0
  0
VERTEX
  8
0
 10
146.283924
 20
263.064654
 30
0.0
  0
SEQEND
  8
0
  0
POLYLINE
  8
0
 62
0
 70
0
 66
1
 10
0.0
 20
0.0
 30
0.0
  0
VERTEX
  8
0
 10
123.548765
 20
245.648132
 30
0.0
  0
VERTEX
  8
0
 10
123.988105
 20
244.587472
 30
0.0
  0
SEQEND
  8
0
  0
POLYLINE
  8
0
 62
0
 70
0
 66
1
 10
0.0
 20
0.0
 30
0.0
  0
VERTEX
  8
0
 10
123.988105
 20
244.587472
 30
0.0
  0
VERTEX
  8
0
 10
122.488105
 20
243.087472
 30
0.0
  0
SEQEND
  8
0
  0
POLYLINE
  8
0
 62
0
 70
0
 66
1
 10
0.0
 20
0.0
 30
0.0
  0
VERTEX
  8
0
 10
122.488105
 20
243.087472
 30
0.0
  0
VERTEX
  8
0
 10
121.427445
 20
243.526812
 30
0.0
  0
SEQEND
  8
0
  0
POLYLINE
  8
0
 62
0
 70
0
 66
1
 10
0.0
 20
0.0
 30
0.0
  0
VERTEX
  8
0
 10
122.488105
 20
250.450028
 30
0.0
  0
VERTEX
  8
0
 10
123.548765
 20
250.010688
 30
0.0
  0
SEQEND
  8
0
  0
POLYLINE
  8
0
 62
0
 70
0
 66
1
 10
0.0
 20
0.0
 30
0.0
  0
VERTEX
  8
0
 10
123.548765
 20
250.010688
 30
0.0
  0
VERTEX
  8
0
 10
123.988105
 20
248.950028
 30
0.0
  0
SEQEND
  8
0
  0
POLYLINE
  8
0
 62
0
 70
0
 66
1
 10
0.0
 20
0.0
 30
0.0
  0
VERTEX
  8
0
 10
123.988105
 20
248.950028
 30
0.0
  0
VERTEX
  8
0
 10
123.548765
 20
247.889368
 30
0.0
  0
SEQEND
  8
0
  0
POLYLINE
  8
0
 62
0
 70
0
 66
1
 10
0.0
 20
0.0
 30
0.0
  0
VERTEX
  8
0
 10
123.548765
 20
247.889368
 30
0.0
  0
VERTEX
  8
0
 10
122.488105
 20
247.450028
 30
0.0
  0
SEQEND
  8
0
  0
POLYLINE
  8
0
 62
0
 70
0
 66
1
 10
0.0
 20
0.0
 30
0.0
  0
VERTEX
  8
0
 10
121.427445
 20
247.889368
 30
0.0
  0
VERTEX
  8
0
 10
120.988105
 20
248.950028
 30
0.0
  0
SEQEND
  8
0
  0
POLYLINE
  8
0
 62
0
 70
0
 66
1
 10
0.0
 20
0.0
 30
0.0
  0
VERTEX
  8
0
 10
121.427445
 20
250.010688
 30
0.0
  0
VERTEX
  8
0
 10
122.488105
 20
250.450028
 30
0.0
  0
SEQEND
  8
0
  0
POLYLINE
  8
0
 62
0
 70
0
 66
1
 10
0.0
 20
0.0
 30
0.0
  0
VERTEX
  8
0
 10
122.488105
 20
247.450028
 30
0.0
  0
VERTEX
  8
0
 10
121.427445
 20
247.889368
 30
0.0
  0
SEQEND
  8
0
  0
POLYLINE
  8
0
 62
0
 70
0
 66
1
 10
0.0
 20
0.0
 30
0.0
  0
VERTEX
  8
0
 10
129.988101
 20
246.768749
 30
0.0
  0
VERTEX
  8
0
 10
129.895801
 20
245.595799
 30
0.0
  0
SEQEND
  8
0
  0
POLYLINE
  8
0
 62
0
 70
0
 66
1
 10
0.0
 20
0.0
 30
0.0
  0
VERTEX
  8
0
 10
129.895801
 20
245.595799
 30
0.0
  0
VERTEX
  8
0
 10
129.620921
 20
244.450889
 30
0.0
  0
SEQEND
  8
0
  0
POLYLINE
  8
0
 62
0
 70
0
 66
1
 10
0.0
 20
0.0
 30
0.0
  0
VERTEX
  8
0
 10
104.678375
 20
236.818738
 30
0.0
  0
VERTEX
  8
0
 10
104.239035
 20
235.758078
 30
0.0
  0
SEQEND
  8
0
  0
POLYLINE
  8
0
 62
0
 70
0
 66
1
 10
0.0
 20
0.0
 30
0.0
  0
VERTEX
  8
0
 10
102.117715
 20
233.516842
 30
0.0
  0
VERTEX
  8
0
 10
103.178375
 20
233.956182
 30
0.0
  0
SEQEND
  8
0
  0
POLYLINE
  8
0
 62
0
 70
0
 66
1
 10
0.0
 20
0.0
 30
0.0
  0
VERTEX
  8
0
 10
102.117715
 20
235.758078
 30
0.0
  0
VERTEX
  8
0
 10
101.678375
 20
236.818738
 30
0.0
  0
SEQEND
  8
0
  0
POLYLINE
  8
0
 62
0
 70
0
 66
1
 10
0.0
 20
0.0
 30
0.0
  0
VERTEX
  8
0
 10
98.072811
 20
237.347902
 30
0.0
  0
VERTEX
  8
0
 10
97.633471
 20
236.287242
 30
0.0
  0
SEQEND
  8
0
  0
POLYLINE
  8
0
 62
0
 70
0
 66
1
 10
0.0
 20
0.0
 30
0.0
  0
VERTEX
  8
0
 10
104.239035
 20
233.516842
 30
0.0
  0
VERTEX
  8
0
 10
104.678375
 20
232.456182
 30
0.0
  0
SEQEND
  8
0
  0
POLYLINE
  8
0
 62
0
 70
0
 66
1
 10
0.0
 20
0.0
 30
0.0
  0
VERTEX
  8
0
 10
101.678375
 20
232.456182
 30
0.0
  0
VERTEX
  8
0
 10
102.117715
 20
233.516842
 30
0.0
  0
SEQEND
  8
0
  0
POLYLINE
  8
0
 62
0
 70
0
 66
1
 10
0.0
 20
0.0
 30
0.0
  0
VERTEX
  8
0
 10
102.117715
 20
231.395522
 30
0.0
  0
VERTEX
  8
0
 10
101.678375
 20
232.456182
 30
0.0
  0
SEQEND
  8
0
  0
POLYLINE
  8
0
 62
0
 70
0
 66
1
 10
0.0
 20
0.0
 30
0.0
  0
VERTEX
  8
0
 10
109.783932
 20
237.260401
 30
0.0
  0
VERTEX
  8
0
 10
110.844592
 20
236.821061
 30
0.0
  0
SEQEND
  8
0
  0
POLYLINE
  8
0
 62
0
 70
0
 66
1
 10
0.0
 20
0.0
 30
0.0
  0
VERTEX
  8
0
 10
95.512151
 20
236.287242
 30
0.0
  0
VERTEX
  8
0
 10
95.072811
 20
237.347902
 30
0.0
  0
SEQEND
  8
0
  0
POLYLINE
  8
0
 62
0
 70
0
 66
1
 10
0.0
 20
0.0
 30
0.0
  0
VERTEX
  8
0
 10
96.572811
 20
235.847902
 30
0.0
  0
VERTEX
  8
0
 10
95.512151
 20
236.287242
 30
0.0
  0
SEQEND
  8
0
  0
POLYLINE
  8
0
 62
0
 70
0
 66
1
 10
0.0
 20
0.0
 30
0.0
  0
VERTEX
  8
0
 10
97.633471
 20
238.408562
 30
0.0
  0
VERTEX
  8
0
 10
98.072811
 20
237.347902
 30
0.0
  0
SEQEND
  8
0
  0
POLYLINE
  8
0
 62
0
 70
0
 66
1
 10
0.0
 20
0.0
 30
0.0
  0
VERTEX
  8
0
 10
104.239035
 20
237.879398
 30
0.0
  0
VERTEX
  8
0
 10
104.678375
 20
236.818738
 30
0.0
  0
SEQEND
  8
0
  0
POLYLINE
  8
0
 62
0
 70
0
 66
1
 10
0.0
 20
0.0
 30
0.0
  0
VERTEX
  8
0
 10
109.783932
 20
229.897845
 30
0.0
  0
VERTEX
  8
0
 10
108.723272
 20
230.337185
 30
0.0
  0
SEQEND
  8
0
  0
POLYLINE
  8
0
 62
0
 70
0
 66
1
 10
0.0
 20
0.0
 30
0.0
  0
VERTEX
  8
0
 10
96.572811
 20
238.847902
 30
0.0
  0
VERTEX
  8
0
 10
97.633471
 20
238.408562
 30
0.0
  0
SEQEND
  8
0
  0
POLYLINE
  8
0
 62
0
 70
0
 66
1
 10
0.0
 20
0.0
 30
0.0
  0
VERTEX
  8
0
 10
97.633471
 20
236.287242
 30
0.0
  0
VERTEX
  8
0
 10
96.572811
 20
235.847902
 30
0.0
  0
SEQEND
  8
0
  0
POLYLINE
  8
0
 62
0
 70
0
 66
1
 10
0.0
 20
0.0
 30
0.0
  0
VERTEX
  8
0
 10
95.512151
 20
234.046006
 30
0.0
  0
VERTEX
  8
0
 10
96.572811
 20
234.485346
 30
0.0
  0
SEQEND
  8
0
  0
POLYLINE
  8
0
 62
0
 70
0
 66
1
 10
0.0
 20
0.0
 30
0.0
  0
VERTEX
  8
0
 10
108.723272
 20
230.337185
 30
0.0
  0
VERTEX
  8
0
 10
108.283932
 20
231.397845
 30
0.0
  0
SEQEND
  8
0
  0
POLYLINE
  8
0
 62
0
 70
0
 66
1
 10
0.0
 20
0.0
 30
0.0
  0
VERTEX
  8
0
 10
110.844592
 20
236.821061
 30
0.0
  0
VERTEX
  8
0
 10
111.283932
 20
235.760401
 30
0.0
  0
SEQEND
  8
0
  0
POLYLINE
  8
0
 62
0
 70
0
 66
1
 10
0.0
 20
0.0
 30
0.0
  0
VERTEX
  8
0
 10
95.512151
 20
238.408562
 30
0.0
  0
VERTEX
  8
0
 10
96.572811
 20
238.847902
 30
0.0
  0
SEQEND
  8
0
  0
POLYLINE
  8
0
 62
0
 70
0
 66
1
 10
0.0
 20
0.0
 30
0.0
  0
VERTEX
  8
0
 10
103.178375
 20
238.318738
 30
0.0
  0
VERTEX
  8
0
 10
104.239035
 20
237.879398
 30
0.0
  0
SEQEND
  8
0
  0
POLYLINE
  8
0
 62
0
 70
0
 66
1
 10
0.0
 20
0.0
 30
0.0
  0
VERTEX
  8
0
 10
104.239035
 20
235.758078
 30
0.0
  0
VERTEX
  8
0
 10
103.178375
 20
235.318738
 30
0.0
  0
SEQEND
  8
0
  0
POLYLINE
  8
0
 62
0
 70
0
 66
1
 10
0.0
 20
0.0
 30
0.0
  0
VERTEX
  8
0
 10
102.117715
 20
237.879398
 30
0.0
  0
VERTEX
  8
0
 10
103.178375
 20
238.318738
 30
0.0
  0
SEQEND
  8
0
  0
POLYLINE
  8
0
 62
0
 70
0
 66
1
 10
0.0
 20
0.0
 30
0.0
  0
VERTEX
  8
0
 10
95.072811
 20
237.347902
 30
0.0
  0
VERTEX
  8
0
 10
95.512151
 20
238.408562
 30
0.0
  0
SEQEND
  8
0
  0
POLYLINE
  8
0
 62
0
 70
0
 66
1
 10
0.0
 20
0.0
 30
0.0
  0
VERTEX
  8
0
 10
103.178375
 20
230.956182
 30
0.0
  0
VERTEX
  8
0
 10
102.117715
 20
231.395522
 30
0.0
  0
SEQEND
  8
0
  0
POLYLINE
  8
0
 62
0
 70
0
 66
1
 10
0.0
 20
0.0
 30
0.0
  0
VERTEX
  8
0
 10
104.678375
 20
232.456182
 30
0.0
  0
VERTEX
  8
0
 10
103.178375
 20
230.956182
 30
0.0
  0
SEQEND
  8
0
  0
POLYLINE
  8
0
 62
0
 70
0
 66
1
 10
0.0
 20
0.0
 30
0.0
  0
VERTEX
  8
0
 10
103.178375
 20
233.956182
 30
0.0
  0
VERTEX
  8
0
 10
104.239035
 20
233.516842
 30
0.0
  0
SEQEND
  8
0
  0
POLYLINE
  8
0
 62
0
 70
0
 66
1
 10
0.0
 20
0.0
 30
0.0
  0
VERTEX
  8
0
 10
101.678375
 20
236.818738
 30
0.0
  0
VERTEX
  8
0
 10
102.117715
 20
237.879398
 30
0.0
  0
SEQEND
  8
0
  0
POLYLINE
  8
0
 62
0
 70
0
 66
1
 10
0.0
 20
0.0
 30
0.0
  0
VERTEX
  8
0
 10
103.178375
 20
235.318738
 30
0.0
  0
VERTEX
  8
0
 10
102.117715
 20
235.758078
 30
0.0
  0
SEQEND
  8
0
  0
POLYLINE
  8
0
 62
0
 70
0
 66
1
 10
0.0
 20
0.0
 30
0.0
  0
VERTEX
  8
0
 10
109.783932
 20
232.897845
 30
0.0
  0
VERTEX
  8
0
 10
110.844592
 20
232.458505
 30
0.0
  0
SEQEND
  8
0
  0
POLYLINE
  8
0
 62
0
 70
0
 66
1
 10
0.0
 20
0.0
 30
0.0
  0
VERTEX
  8
0
 10
110.844592
 20
232.458505
 30
0.0
  0
VERTEX
  8
0
 10
111.283932
 20
231.397845
 30
0.0
  0
SEQEND
  8
0
  0
POLYLINE
  8
0
 62
0
 70
0
 66
1
 10
0.0
 20
0.0
 30
0.0
  0
VERTEX
  8
0
 10
111.283932
 20
231.397845
 30
0.0
  0
VERTEX
  8
0
 10
109.783932
 20
229.897845
 30
0.0
  0
SEQEND
  8
0
  0
POLYLINE
  8
0
 62
0
 70
0
 66
1
 10
0.0
 20
0.0
 30
0.0
  0
VERTEX
  8
0
 10
108.283932
 20
231.397845
 30
0.0
  0
VERTEX
  8
0
 10
108.723272
 20
232.458505
 30
0.0
  0
SEQEND
  8
0
  0
POLYLINE
  8
0
 62
0
 70
0
 66
1
 10
0.0
 20
0.0
 30
0.0
  0
VERTEX
  8
0
 10
108.723272
 20
232.458505
 30
0.0
  0
VERTEX
  8
0
 10
109.783932
 20
232.897845
 30
0.0
  0
SEQEND
  8
0
  0
POLYLINE
  8
0
 62
0
 70
0
 66
1
 10
0.0
 20
0.0
 30
0.0
  0
VERTEX
  8
0
 10
109.783932
 20
234.260401
 30
0.0
  0
VERTEX
  8
0
 10
108.723272
 20
234.699741
 30
0.0
  0
SEQEND
  8
0
  0
POLYLINE
  8
0
 62
0
 70
0
 66
1
 10
0.0
 20
0.0
 30
0.0
  0
VERTEX
  8
0
 10
111.283932
 20
235.760401
 30
0.0
  0
VERTEX
  8
0
 10
110.844592
 20
234.699741
 30
0.0
  0
SEQEND
  8
0
  0
POLYLINE
  8
0
 62
0
 70
0
 66
1
 10
0.0
 20
0.0
 30
0.0
  0
VERTEX
  8
0
 10
108.723272
 20
234.699741
 30
0.0
  0
VERTEX
  8
0
 10
108.283932
 20
235.760401
 30
0.0
  0
SEQEND
  8
0
  0
POLYLINE
  8
0
 62
0
 70
0
 66
1
 10
0.0
 20
0.0
 30
0.0
  0
VERTEX
  8
0
 10
110.844592
 20
234.699741
 30
0.0
  0
VERTEX
  8
0
 10
109.783932
 20
234.260401
 30
0.0
  0
SEQEND
  8
0
  0
POLYLINE
  8
0
 62
0
 70
0
 66
1
 10
0.0
 20
0.0
 30
0.0
  0
VERTEX
  8
0
 10
108.283932
 20
235.760401
 30
0.0
  0
VERTEX
  8
0
 10
108.723272
 20
236.821061
 30
0.0
  0
SEQEND
  8
0
  0
POLYLINE
  8
0
 62
0
 70
0
 66
1
 10
0.0
 20
0.0
 30
0.0
  0
VERTEX
  8
0
 10
111.49795
 20
243.320816
 30
0.0
  0
VERTEX
  8
0
 10
111.33731
 20
245.040531
 30
0.0
  0
SEQEND
  8
0
  0
POLYLINE
  8
0
 62
0
 70
0
 66
1
 10
0.0
 20
0.0
 30
0.0
  0
VERTEX
  8
0
 10
113.20836
 20
256.895108
 30
0.0
  0
VERTEX
  8
0
 10
113.89535
 20
258.480488
 30
0.0
  0
SEQEND
  8
0
  0
POLYLINE
  8
0
 62
0
 70
0
 66
1
 10
0.0
 20
0.0
 30
0.0
  0
VERTEX
  8
0
 10
121.25418
 20
225.579127
 30
0.0
  0
VERTEX
  8
0
 10
119.95906
 20
226.721794
 30
0.0
  0
SEQEND
  8
0
  0
POLYLINE
  8
0
 62
0
 70
0
 66
1
 10
0.0
 20
0.0
 30
0.0
  0
VERTEX
  8
0
 10
111.76649
 20
241.612552
 30
0.0
  0
VERTEX
  8
0
 10
111.49795
 20
243.320816
 30
0.0
  0
SEQEND
  8
0
  0
POLYLINE
  8
0
 62
0
 70
0
 66
1
 10
0.0
 20
0.0
 30
0.0
  0
VERTEX
  8
0
 10
118.73761
 20
227.943201
 30
0.0
  0
VERTEX
  8
0
 10
117.59517
 20
229.237958
 30
0.0
  0
SEQEND
  8
0
  0
POLYLINE
  8
0
 62
0
 70
0
 66
1
 10
0.0
 20
0.0
 30
0.0
  0
VERTEX
  8
0
 10
114.68112
 20
233.517807
 30
0.0
  0
VERTEX
  8
0
 10
113.89558
 20
235.056397
 30
0.0
  0
SEQEND
  8
0
  0
POLYLINE
  8
0
 62
0
 70
0
 66
1
 10
0.0
 20
0.0
 30
0.0
  0
VERTEX
  8
0
 10
111.33731
 20
245.040531
 30
0.0
  0
VERTEX
  8
0
 10
111.28391
 20
246.768749
 30
0.0
  0
SEQEND
  8
0
  0
POLYLINE
  8
0
 62
0
 70
0
 66
1
 10
0.0
 20
0.0
 30
0.0
  0
VERTEX
  8
0
 10
119.95906
 20
226.721794
 30
0.0
  0
VERTEX
  8
0
 10
118.73761
 20
227.943201
 30
0.0
  0
SEQEND
  8
0
  0
POLYLINE
  8
0
 62
0
 70
0
 66
1
 10
0.0
 20
0.0
 30
0.0
  0
VERTEX
  8
0
 10
124.04661
 20
223.546892
 30
0.0
  0
VERTEX
  8
0
 10
122.61926
 20
224.51877
 30
0.0
  0
SEQEND
  8
0
  0
POLYLINE
  8
0
 62
0
 70
0
 66
1
 10
0.0
 20
0.0
 30
0.0
  0
VERTEX
  8
0
 10
113.89558
 20
235.056397
 30
0.0
  0
VERTEX
  8
0
 10
113.20851
 20
236.64187
 30
0.0
  0
SEQEND
  8
0
  0
POLYLINE
  8
0
 62
0
 70
0
 66
1
 10
0.0
 20
0.0
 30
0.0
  0
VERTEX
  8
0
 10
111.33731
 20
248.49592
 30
0.0
  0
VERTEX
  8
0
 10
111.49787
 20
250.215529
 30
0.0
  0
SEQEND
  8
0
  0
POLYLINE
  8
0
 62
0
 70
0
 66
1
 10
0.0
 20
0.0
 30
0.0
  0
VERTEX
  8
0
 10
111.49787
 20
250.215529
 30
0.0
  0
VERTEX
  8
0
 10
111.7659
 20
251.921522
 30
0.0
  0
SEQEND
  8
0
  0
POLYLINE
  8
0
 62
0
 70
0
 66
1
 10
0.0
 20
0.0
 30
0.0
  0
VERTEX
  8
0
 10
122.61926
 20
224.51877
 30
0.0
  0
VERTEX
  8
0
 10
121.25418
 20
225.579127
 30
0.0
  0
SEQEND
  8
0
  0
POLYLINE
  8
0
 62
0
 70
0
 66
1
 10
0.0
 20
0.0
 30
0.0
  0
VERTEX
  8
0
 10
112.14139
 20
253.608973
 30
0.0
  0
VERTEX
  8
0
 10
112.62266
 20
255.268468
 30
0.0
  0
SEQEND
  8
0
  0
POLYLINE
  8
0
 62
0
 70
0
 66
1
 10
0.0
 20
0.0
 30
0.0
  0
VERTEX
  8
0
 10
112.62312
 20
238.267435
 30
0.0
  0
VERTEX
  8
0
 10
112.14184
 20
239.92655
 30
0.0
  0
SEQEND
  8
0
  0
POLYLINE
  8
0
 62
0
 70
0
 66
1
 10
0.0
 20
0.0
 30
0.0
  0
VERTEX
  8
0
 10
111.7659
 20
251.921522
 30
0.0
  0
VERTEX
  8
0
 10
112.14139
 20
253.608973
 30
0.0
  0
SEQEND
  8
0
  0
POLYLINE
  8
0
 62
0
 70
0
 66
1
 10
0.0
 20
0.0
 30
0.0
  0
VERTEX
  8
0
 10
111.28391
 20
246.768749
 30
0.0
  0
VERTEX
  8
0
 10
111.33731
 20
248.49592
 30
0.0
  0
SEQEND
  8
0
  0
POLYLINE
  8
0
 62
0
 70
0
 66
1
 10
0.0
 20
0.0
 30
0.0
  0
VERTEX
  8
0
 10
113.20851
 20
236.64187
 30
0.0
  0
VERTEX
  8
0
 10
112.62312
 20
238.267435
 30
0.0
  0
SEQEND
  8
0
  0
POLYLINE
  8
0
 62
0
 70
0
 66
1
 10
0.0
 20
0.0
 30
0.0
  0
VERTEX
  8
0
 10
117.59517
 20
229.237958
 30
0.0
  0
VERTEX
  8
0
 10
116.53468
 20
230.603062
 30
0.0
  0
SEQEND
  8
0
  0
POLYLINE
  8
0
 62
0
 70
0
 66
1
 10
0.0
 20
0.0
 30
0.0
  0
VERTEX
  8
0
 10
112.14184
 20
239.92655
 30
0.0
  0
VERTEX
  8
0
 10
111.76649
 20
241.612552
 30
0.0
  0
SEQEND
  8
0
  0
POLYLINE
  8
0
 62
0
 70
0
 66
1
 10
0.0
 20
0.0
 30
0.0
  0
VERTEX
  8
0
 10
112.62266
 20
255.268468
 30
0.0
  0
VERTEX
  8
0
 10
113.20836
 20
256.895108
 30
0.0
  0
SEQEND
  8
0
  0
POLYLINE
  8
0
 62
0
 70
0
 66
1
 10
0.0
 20
0.0
 30
0.0
  0
VERTEX
  8
0
 10
125.53325
 20
222.665808
 30
0.0
  0
VERTEX
  8
0
 10
124.04661
 20
223.546892
 30
0.0
  0
SEQEND
  8
0
  0
POLYLINE
  8
0
 62
0
 70
0
 66
1
 10
0.0
 20
0.0
 30
0.0
  0
VERTEX
  8
0
 10
115.56245
 20
232.030817
 30
0.0
  0
VERTEX
  8
0
 10
114.68112
 20
233.517807
 30
0.0
  0
SEQEND
  8
0
  0
POLYLINE
  8
0
 62
0
 70
0
 66
1
 10
0.0
 20
0.0
 30
0.0
  0
VERTEX
  8
0
 10
116.53468
 20
230.603062
 30
0.0
  0
VERTEX
  8
0
 10
115.56245
 20
232.030817
 30
0.0
  0
SEQEND
  8
0
  0
POLYLINE
  8
0
 62
0
 70
0
 66
1
 10
0.0
 20
0.0
 30
0.0
  0
VERTEX
  8
0
 10
127.07215
 20
221.880149
 30
0.0
  0
VERTEX
  8
0
 10
125.53325
 20
222.665808
 30
0.0
  0
SEQEND
  8
0
  0
ENDSEC
  0
EOF
