<?xml version="1.0" encoding="UTF-8" standalone="no"?>
<svg
   xmlns:dc="http://purl.org/dc/elements/1.1/"
   xmlns:cc="http://creativecommons.org/ns#"
   xmlns:rdf="http://www.w3.org/1999/02/22-rdf-syntax-ns#"
   xmlns:svg="http://www.w3.org/2000/svg"
   xmlns="http://www.w3.org/2000/svg"
   id="svg4705"
   version="1.1"
   viewBox="0 0 210 297"
   height="297mm"
   width="210mm">
  <defs
     id="defs4699">
    <linearGradient
       id="linearGradient4907">
      <stop
         style="stop-color:#8d8d8c;stop-opacity:1"
         offset="0"
         id="stop4909" />
      <stop
         id="stop4911"
         offset="0.25416961"
         style="stop-color:#f6f6f4;stop-opacity:1" />
      <stop
         style="stop-color:#f3f3ef;stop-opacity:1;"
         offset="1"
         id="stop4913" />
    </linearGradient>
    <linearGradient
       id="linearGradient4887">
      <stop
         id="stop4889"
         offset="0"
         style="stop-color:#5b5b5a;stop-opacity:1;" />
      <stop
         style="stop-color:#5d5d5d;stop-opacity:1;"
         offset="0.31944445"
         id="stop4897" />
      <stop
         id="stop4891"
         offset="1"
         style="stop-color:#f9f9f9;stop-opacity:1;" />
    </linearGradient>
  </defs>
  <metadata
     id="metadata4702">
    <rdf:RDF>
      <cc:Work
         rdf:about="">
        <dc:format>image/svg+xml</dc:format>
        <dc:type
           rdf:resource="http://purl.org/dc/dcmitype/StillImage" />
        <dc:title></dc:title>
      </cc:Work>
    </rdf:RDF>
  </metadata>
  <path
     style="display:inline;fill:none;fill-opacity:1;fill-rule:evenodd;stroke:#fd0000;stroke-width:0.90129471;stroke-linecap:butt;stroke-linejoin:miter;stroke-miterlimit:4;stroke-dasharray:none;stroke-opacity:1;enable-background:new"
     d="m 139.27904,89.617931 c -2.07329,3.6e-4 -84.078332,0.0206 -84.751729,0.0608 -0.698156,0.0418 -1.390704,0.10403 -2.068469,0.18927 -0.691738,0.087 -1.368862,0.19827 -2.041435,0.33123 -0.68113,0.13465 -1.357512,0.29071 -2.021153,0.47318 -0.666632,0.18328 -1.322643,0.38966 -1.973837,0.62189 -0.648387,0.23123 -1.291236,0.49017 -1.926515,0.77061 -0.62711,0.27683 -1.24924,0.58035 -1.865682,0.9058 -0.604062,0.31891 -1.202265,0.66125 -1.798084,1.02747 -0.580292,0.35669 -1.156155,0.73349 -1.730486,1.13564 -0.57309,0.40128 -1.126021,0.81793 -1.662888,1.25054 -0.544258,0.43857 -1.075129,0.89012 -1.581773,1.3587 -0.512619,0.47411 -0.9999,0.96427 -1.473618,1.46686 -0.478486,0.50766 -0.940594,1.033859 -1.378979,1.568249 -0.442153,0.53899 -0.863124,1.08557 -1.264065,1.64937 -0.403755,0.56776 -0.787617,1.15351 -1.149152,1.74401 -0.363538,0.59376 -0.70706,1.19733 -1.027472,1.8116 -0.321741,0.61682 -0.621231,1.24422 -0.899042,1.8792 -0.278718,0.63705 -0.529788,1.28048 -0.763853,1.93328 -0.234569,0.65424 -0.452903,1.31309 -0.642167,1.9806 -0.189502,0.66833 -0.349831,1.34209 -0.493461,2.02115 -0.143685,0.67933 -0.267701,1.36745 -0.365023,2.05495 -0.0973,0.68733 -0.172558,1.37554 -0.22307,2.06847 -0.05041,0.69199 -0.07778,1.38698 -0.08112,2.08199 -0.0034,0.6935 0.01683,1.38802 0.06084,2.082 0.04388,0.69181 0.111392,1.38546 0.202794,2.07522 0.09099,0.68669 0.206235,1.36604 0.344742,2.0482 0.137764,0.67847 0.301499,1.35636 0.486702,2.02791 0.183929,0.66694 0.390749,1.32965 0.621892,1.98735 0.229214,0.65223 0.481027,1.29923 0.757087,1.94004 0.27326,0.63431 0.572723,1.26512 0.892284,1.88596 0.315827,0.61361 0.652515,1.22011 1.013955,1.81836 0.356487,0.59007 0.734401,1.17099 1.135628,1.74401 0.401289,0.57309 0.817941,1.12603 1.250549,1.66289 0.438562,0.54425 0.890117,1.07512 1.358704,1.58177 0.474105,0.51262 0.964262,0.9999 1.466852,1.47362 0.507659,0.47848 1.033863,0.94059 1.568257,1.37898 0.538985,0.44215 1.085566,0.86312 1.649371,1.26406 0.567756,0.40376 1.153512,0.78762 1.744002,1.14915 0.593761,0.36354 1.197333,0.70707 1.811601,1.02748 0.616817,0.32174 1.24422,0.62123 1.879199,0.89904 0.637051,0.27872 1.280478,0.52979 1.93328,0.76385 0.654233,0.23457 1.313091,0.45291 1.980596,0.64217 0.668335,0.18951 1.342087,0.34983 2.021153,0.49346 0.679324,0.14368 1.367451,0.2677 2.054952,0.36503 0.687329,0.0973 1.375538,0.17255 2.068468,0.22307 0.69199,0.0504 1.386978,0.0778 2.081993,0.0811 0.693496,0.003 1.38802,-0.0168 2.081992,-0.0608 0.691813,-0.0439 1.385472,-0.11139 2.075228,-0.20279 0.686682,-0.091 1.366034,-0.20624 2.048193,-0.34474 0.678473,-0.13776 1.356361,-0.3015 2.027919,-0.48671 0.666932,-0.18392 1.32964,-0.39074 1.987354,-0.62189 0.652223,-0.22921 1.299227,-0.48102 1.940031,-0.75708 0.634312,-0.27326 1.265115,-0.57273 1.885964,-0.89229 0.6136,-0.31583 1.220108,-0.65251 1.818359,-1.01395 0.295028,-0.17824 1.17235,-0.89818 1.74401,-0.98016 0.57929,-0.0831 51.184012,-0.33045 51.771102,-0.15547 l 0.6415,0.19119 c 0.35863,0.10689 1.08589,0.59476 1.67709,0.94444 0.6016,0.35583 1.20476,0.69812 1.81836,1.01395 0.62084,0.31956 1.25165,0.61903 1.88596,0.89229 0.64081,0.27606 1.2878,0.52787 1.94003,0.75708 0.65771,0.23115 1.32042,0.43797 1.98736,0.62189 0.67156,0.18521 1.34268,0.34895 2.02115,0.48671 0.68216,0.1385 1.36827,0.25375 2.05495,0.34474 0.68976,0.0914 1.38342,0.1589 2.07523,0.20279 0.69398,0.044 1.3885,0.0642 2.082,0.0608 0.69501,-0.003 1.39,-0.0307 2.08198,-0.0811 0.69294,-0.0506 1.38115,-0.12577 2.06848,-0.22307 0.6875,-0.0973 1.36886,-0.22135 2.04819,-0.36503 0.67907,-0.14363 1.35958,-0.30395 2.02791,-0.49346 0.6675,-0.18926 1.32636,-0.4076 1.9806,-0.64217 0.6528,-0.23406 1.29622,-0.48513 1.93327,-0.76385 0.63498,-0.27781 1.26239,-0.5773 1.8792,-0.89904 0.61428,-0.32041 1.21785,-0.66394 1.81161,-1.02748 0.59048,-0.36153 1.16948,-0.74539 1.73724,-1.14915 0.5638,-0.40094 1.11715,-0.82191 1.65613,-1.26406 0.5344,-0.43839 1.0606,-0.9005 1.56825,-1.37898 0.5026,-0.47372 0.98599,-0.961 1.4601,-1.47362 0.46859,-0.50665 0.9269,-1.03752 1.36546,-1.58177 0.43261,-0.53686 0.84926,-1.0898 1.25055,-1.66289 0.40122,-0.57302 0.77914,-1.15394 1.13563,-1.74401 0.36143,-0.59825 0.69813,-1.20475 1.01396,-1.81836 0.31955,-0.62084 0.61902,-1.25165 0.89228,-1.88596 0.27606,-0.64081 0.52787,-1.28781 0.75709,-1.94004 0.23114,-0.6577 0.43796,-1.32041 0.62189,-1.98735 0.1852,-0.67155 0.34894,-1.34944 0.4867,-2.02791 0.13851,-0.68216 0.25376,-1.36151 0.34474,-2.0482 0.0914,-0.68976 0.1589,-1.38341 0.2028,-2.07522 0.044,-0.69398 0.0642,-1.3885 0.0608,-2.082 -0.003,-0.69501 -0.0307,-1.39 -0.0811,-2.08199 -0.0505,-0.69293 -0.12577,-1.38114 -0.22307,-2.06847 -0.0973,-0.6875 -0.22134,-1.37562 -0.36502,-2.05495 -0.14363,-0.67906 -0.31072,-1.35282 -0.50022,-2.02115 -0.18927,-0.66751 -0.40084,-1.32636 -0.63542,-1.9806 -0.23406,-0.6528 -0.49188,-1.29623 -0.7706,-1.93328 -0.27782,-0.63498 -0.5773,-1.26238 -0.89904,-1.8792 -0.32041,-0.61427 -0.65718,-1.21784 -1.02072,-1.8116 -0.36153,-0.5905 -0.74539,-1.17625 -1.14915,-1.74401 -0.40094,-0.5638 -0.82192,-1.11038 -1.26406,-1.64937 -0.4384,-0.53439 -0.9005,-1.060589 -1.37898,-1.568249 -0.47372,-0.50259 -0.96777,-0.99275 -1.48039,-1.46686 -0.50663,-0.46858 -1.03075,-0.92013 -1.575,-1.3587 -0.53687,-0.43261 -1.0898,-0.84926 -1.66289,-1.25054 -0.57433,-0.40215 -1.1502,-0.77895 -1.73049,-1.13564 -0.59582,-0.36622 -1.20079,-0.70856 -1.80484,-1.02747 -0.61646,-0.32545 -1.23182,-0.62897 -1.85892,-0.9058 -0.63528,-0.28044 -1.27814,-0.53938 -1.92653,-0.77061 -0.65119,-0.23223 -1.31397,-0.43861 -1.98059,-0.62189 -0.66364,-0.18247 -1.33327,-0.33853 -2.0144,-0.47318 -0.67258,-0.13296 -1.35645,-0.24423 -2.04819,-0.33123 -0.67776,-0.0852 -1.36356,-0.14751 -2.06171,-0.18927 -0.60694,-0.0363 -6.64383,-0.0608 -6.71916,-0.0608 z"
     id="path2383" />
</svg>
