  0
SECTION
  2
HEADER
  9
$ACADVER
  1
AC1009
  9
$INSBASE
 10
0.0
 20
0.0
 30
0.0
  9
$EXTMIN
 10
0.0
 20
0.0
 30
0.0
  9
$EXTMAX
 10
0.0
 20
0.0
 30
0.0
  0
ENDSEC
  0
SECTION
  2
TABLES
  0
TABLE
  2
VPORT
 70
0
  0
ENDTAB
  0
TABLE
  2
LTYPE
 70
1
  0
LTYPE
  2
CONTINUOUS
 70
0
  3
Solid line
 72
65
 73
0
 40
0.0
  0
ENDTAB
  0
TABLE
  2
LAYER
 70
1
  0
LAYER
  2
0
 70
64
 62
7
  6
continuous
  0
ENDTAB
  0
TABLE
  2
STYLE
 70
1
  0
STYLE
  2
STANDARD
 70
0
 40
0
 41
1.0
 50
0.0
 71
0
 42
1
 3
ARIAL.TTF
 4

  0
ENDTAB
  0
TABLE
  2
VIEW
 70
0
  0
ENDTAB
  0
ENDSEC
  0
SECTION
  2
BLOCKS
  0
ENDSEC
  0
SECTION
  2
ENTITIES
  0
POLYLINE
  8
0
 62
0
 70
0
 66
1
 10
0.0
 20
0.0
 30
0.0
  0
VERTEX
  8
0
 10
139.27904
 20
207.382069
 30
0.0
  0
VERTEX
  8
0
 10
138.116247738
 20
207.381799088
 30
0.0
  0
VERTEX
  8
0
 10
135.490915617
 20
207.381116344
 30
0.0
  0
VERTEX
  8
0
 10
131.599986522
 20
207.380020671
 30
0.0
  0
VERTEX
  8
0
 10
126.640403333
 20
207.378511972
 30
0.0
  0
VERTEX
  8
0
 10
120.809108934
 20
207.376590148
 30
0.0
  0
VERTEX
  8
0
 10
114.303046208
 20
207.374255102
 30
0.0
  0
VERTEX
  8
0
 10
107.319158036
 20
207.371506737
 30
0.0
  0
VERTEX
  8
0
 10
100.054387302
 20
207.368344954
 30
0.0
  0
VERTEX
  8
0
 10
92.7056768881
 20
207.364769655
 30
0.0
  0
VERTEX
  8
0
 10
85.4699696764
 20
207.360780744
 30
0.0
  0
VERTEX
  8
0
 10
78.5442085498
 20
207.356378123
 30
0.0
  0
VERTEX
  8
0
 10
72.1253363908
 20
207.351561693
 30
0.0
  0
VERTEX
  8
0
 10
66.410296082
 20
207.346331357
 30
0.0
  0
VERTEX
  8
0
 10
61.596030506
 20
207.340687018
 30
0.0
  0
VERTEX
  8
0
 10
57.8794825453
 20
207.334628577
 30
0.0
  0
VERTEX
  8
0
 10
55.4575950824
 20
207.328155937
 30
0.0
  0
VERTEX
  8
0
 10
54.527311
 20
207.321269
 30
0.0
  0
SEQEND
  8
0
  0
POLYLINE
  8
0
 62
0
 70
0
 66
1
 10
0.0
 20
0.0
 30
0.0
  0
VERTEX
  8
0
 10
54.527311
 20
207.321269
 30
0.0
  0
VERTEX
  8
0
 10
52.458842
 20
207.131999
 30
0.0
  0
SEQEND
  8
0
  0
POLYLINE
  8
0
 62
0
 70
0
 66
1
 10
0.0
 20
0.0
 30
0.0
  0
VERTEX
  8
0
 10
52.458842
 20
207.131999
 30
0.0
  0
VERTEX
  8
0
 10
50.417407
 20
206.800769
 30
0.0
  0
SEQEND
  8
0
  0
POLYLINE
  8
0
 62
0
 70
0
 66
1
 10
0.0
 20
0.0
 30
0.0
  0
VERTEX
  8
0
 10
50.417407
 20
206.800769
 30
0.0
  0
VERTEX
  8
0
 10
48.396254
 20
206.327589
 30
0.0
  0
SEQEND
  8
0
  0
POLYLINE
  8
0
 62
0
 70
0
 66
1
 10
0.0
 20
0.0
 30
0.0
  0
VERTEX
  8
0
 10
48.396254
 20
206.327589
 30
0.0
  0
VERTEX
  8
0
 10
46.422417
 20
205.705699
 30
0.0
  0
SEQEND
  8
0
  0
POLYLINE
  8
0
 62
0
 70
0
 66
1
 10
0.0
 20
0.0
 30
0.0
  0
VERTEX
  8
0
 10
46.422417
 20
205.705699
 30
0.0
  0
VERTEX
  8
0
 10
44.495902
 20
204.935089
 30
0.0
  0
SEQEND
  8
0
  0
POLYLINE
  8
0
 62
0
 70
0
 66
1
 10
0.0
 20
0.0
 30
0.0
  0
VERTEX
  8
0
 10
44.495902
 20
204.935089
 30
0.0
  0
VERTEX
  8
0
 10
42.63022
 20
204.029289
 30
0.0
  0
SEQEND
  8
0
  0
POLYLINE
  8
0
 62
0
 70
0
 66
1
 10
0.0
 20
0.0
 30
0.0
  0
VERTEX
  8
0
 10
42.63022
 20
204.029289
 30
0.0
  0
VERTEX
  8
0
 10
40.832136
 20
203.001819
 30
0.0
  0
SEQEND
  8
0
  0
POLYLINE
  8
0
 62
0
 70
0
 66
1
 10
0.0
 20
0.0
 30
0.0
  0
VERTEX
  8
0
 10
40.832136
 20
203.001819
 30
0.0
  0
VERTEX
  8
0
 10
39.10165
 20
201.866179
 30
0.0
  0
SEQEND
  8
0
  0
POLYLINE
  8
0
 62
0
 70
0
 66
1
 10
0.0
 20
0.0
 30
0.0
  0
VERTEX
  8
0
 10
39.10165
 20
201.866179
 30
0.0
  0
VERTEX
  8
0
 10
37.438762
 20
200.615639
 30
0.0
  0
SEQEND
  8
0
  0
POLYLINE
  8
0
 62
0
 70
0
 66
1
 10
0.0
 20
0.0
 30
0.0
  0
VERTEX
  8
0
 10
37.438762
 20
200.615639
 30
0.0
  0
VERTEX
  8
0
 10
35.856989
 20
199.256939
 30
0.0
  0
SEQEND
  8
0
  0
POLYLINE
  8
0
 62
0
 70
0
 66
1
 10
0.0
 20
0.0
 30
0.0
  0
VERTEX
  8
0
 10
35.856989
 20
199.256939
 30
0.0
  0
VERTEX
  8
0
 10
34.383371
 20
197.790079
 30
0.0
  0
SEQEND
  8
0
  0
POLYLINE
  8
0
 62
0
 70
0
 66
1
 10
0.0
 20
0.0
 30
0.0
  0
VERTEX
  8
0
 10
34.383371
 20
197.790079
 30
0.0
  0
VERTEX
  8
0
 10
33.004392
 20
196.22183
 30
0.0
  0
SEQEND
  8
0
  0
POLYLINE
  8
0
 62
0
 70
0
 66
1
 10
0.0
 20
0.0
 30
0.0
  0
VERTEX
  8
0
 10
33.004392
 20
196.22183
 30
0.0
  0
VERTEX
  8
0
 10
31.740327
 20
194.57246
 30
0.0
  0
SEQEND
  8
0
  0
POLYLINE
  8
0
 62
0
 70
0
 66
1
 10
0.0
 20
0.0
 30
0.0
  0
VERTEX
  8
0
 10
31.740327
 20
194.57246
 30
0.0
  0
VERTEX
  8
0
 10
30.591175
 20
192.82845
 30
0.0
  0
SEQEND
  8
0
  0
POLYLINE
  8
0
 62
0
 70
0
 66
1
 10
0.0
 20
0.0
 30
0.0
  0
VERTEX
  8
0
 10
30.591175
 20
192.82845
 30
0.0
  0
VERTEX
  8
0
 10
29.563703
 20
191.01685
 30
0.0
  0
SEQEND
  8
0
  0
POLYLINE
  8
0
 62
0
 70
0
 66
1
 10
0.0
 20
0.0
 30
0.0
  0
VERTEX
  8
0
 10
29.563703
 20
191.01685
 30
0.0
  0
VERTEX
  8
0
 10
28.664661
 20
189.13765
 30
0.0
  0
SEQEND
  8
0
  0
POLYLINE
  8
0
 62
0
 70
0
 66
1
 10
0.0
 20
0.0
 30
0.0
  0
VERTEX
  8
0
 10
28.664661
 20
189.13765
 30
0.0
  0
VERTEX
  8
0
 10
27.900808
 20
187.20437
 30
0.0
  0
SEQEND
  8
0
  0
POLYLINE
  8
0
 62
0
 70
0
 66
1
 10
0.0
 20
0.0
 30
0.0
  0
VERTEX
  8
0
 10
27.900808
 20
187.20437
 30
0.0
  0
VERTEX
  8
0
 10
27.258641
 20
185.22377
 30
0.0
  0
SEQEND
  8
0
  0
POLYLINE
  8
0
 62
0
 70
0
 66
1
 10
0.0
 20
0.0
 30
0.0
  0
VERTEX
  8
0
 10
27.258641
 20
185.22377
 30
0.0
  0
VERTEX
  8
0
 10
26.76518
 20
183.20262
 30
0.0
  0
SEQEND
  8
0
  0
POLYLINE
  8
0
 62
0
 70
0
 66
1
 10
0.0
 20
0.0
 30
0.0
  0
VERTEX
  8
0
 10
26.76518
 20
183.20262
 30
0.0
  0
VERTEX
  8
0
 10
26.400157
 20
181.14767
 30
0.0
  0
SEQEND
  8
0
  0
POLYLINE
  8
0
 62
0
 70
0
 66
1
 10
0.0
 20
0.0
 30
0.0
  0
VERTEX
  8
0
 10
26.400157
 20
181.14767
 30
0.0
  0
VERTEX
  8
0
 10
26.177087
 20
179.0792
 30
0.0
  0
SEQEND
  8
0
  0
POLYLINE
  8
0
 62
0
 70
0
 66
1
 10
0.0
 20
0.0
 30
0.0
  0
VERTEX
  8
0
 10
26.177087
 20
179.0792
 30
0.0
  0
VERTEX
  8
0
 10
26.095967
 20
176.99721
 30
0.0
  0
SEQEND
  8
0
  0
POLYLINE
  8
0
 62
0
 70
0
 66
1
 10
0.0
 20
0.0
 30
0.0
  0
VERTEX
  8
0
 10
26.095967
 20
176.99721
 30
0.0
  0
VERTEX
  8
0
 10
26.156807
 20
174.91521
 30
0.0
  0
SEQEND
  8
0
  0
POLYLINE
  8
0
 62
0
 70
0
 66
1
 10
0.0
 20
0.0
 30
0.0
  0
VERTEX
  8
0
 10
26.156807
 20
174.91521
 30
0.0
  0
VERTEX
  8
0
 10
26.359601
 20
172.83999
 30
0.0
  0
SEQEND
  8
0
  0
POLYLINE
  8
0
 62
0
 70
0
 66
1
 10
0.0
 20
0.0
 30
0.0
  0
VERTEX
  8
0
 10
26.359601
 20
172.83999
 30
0.0
  0
VERTEX
  8
0
 10
26.704343
 20
170.79179
 30
0.0
  0
SEQEND
  8
0
  0
POLYLINE
  8
0
 62
0
 70
0
 66
1
 10
0.0
 20
0.0
 30
0.0
  0
VERTEX
  8
0
 10
26.704343
 20
170.79179
 30
0.0
  0
VERTEX
  8
0
 10
27.191045
 20
168.76388
 30
0.0
  0
SEQEND
  8
0
  0
POLYLINE
  8
0
 62
0
 70
0
 66
1
 10
0.0
 20
0.0
 30
0.0
  0
VERTEX
  8
0
 10
27.191045
 20
168.76388
 30
0.0
  0
VERTEX
  8
0
 10
27.812937
 20
166.77653
 30
0.0
  0
SEQEND
  8
0
  0
POLYLINE
  8
0
 62
0
 70
0
 66
1
 10
0.0
 20
0.0
 30
0.0
  0
VERTEX
  8
0
 10
27.812937
 20
166.77653
 30
0.0
  0
VERTEX
  8
0
 10
28.570024
 20
164.83649
 30
0.0
  0
SEQEND
  8
0
  0
POLYLINE
  8
0
 62
0
 70
0
 66
1
 10
0.0
 20
0.0
 30
0.0
  0
VERTEX
  8
0
 10
28.570024
 20
164.83649
 30
0.0
  0
VERTEX
  8
0
 10
29.462308
 20
162.95053
 30
0.0
  0
SEQEND
  8
0
  0
POLYLINE
  8
0
 62
0
 70
0
 66
1
 10
0.0
 20
0.0
 30
0.0
  0
VERTEX
  8
0
 10
29.462308
 20
162.95053
 30
0.0
  0
VERTEX
  8
0
 10
30.476263
 20
161.13217
 30
0.0
  0
SEQEND
  8
0
  0
POLYLINE
  8
0
 62
0
 70
0
 66
1
 10
0.0
 20
0.0
 30
0.0
  0
VERTEX
  8
0
 10
30.476263
 20
161.13217
 30
0.0
  0
VERTEX
  8
0
 10
31.611891
 20
159.38816
 30
0.0
  0
SEQEND
  8
0
  0
POLYLINE
  8
0
 62
0
 70
0
 66
1
 10
0.0
 20
0.0
 30
0.0
  0
VERTEX
  8
0
 10
31.611891
 20
159.38816
 30
0.0
  0
VERTEX
  8
0
 10
32.86244
 20
157.72527
 30
0.0
  0
SEQEND
  8
0
  0
POLYLINE
  8
0
 62
0
 70
0
 66
1
 10
0.0
 20
0.0
 30
0.0
  0
VERTEX
  8
0
 10
32.86244
 20
157.72527
 30
0.0
  0
VERTEX
  8
0
 10
34.221144
 20
156.1435
 30
0.0
  0
SEQEND
  8
0
  0
POLYLINE
  8
0
 62
0
 70
0
 66
1
 10
0.0
 20
0.0
 30
0.0
  0
VERTEX
  8
0
 10
34.221144
 20
156.1435
 30
0.0
  0
VERTEX
  8
0
 10
35.687996
 20
154.66988
 30
0.0
  0
SEQEND
  8
0
  0
POLYLINE
  8
0
 62
0
 70
0
 66
1
 10
0.0
 20
0.0
 30
0.0
  0
VERTEX
  8
0
 10
35.687996
 20
154.66988
 30
0.0
  0
VERTEX
  8
0
 10
37.256253
 20
153.2909
 30
0.0
  0
SEQEND
  8
0
  0
POLYLINE
  8
0
 62
0
 70
0
 66
1
 10
0.0
 20
0.0
 30
0.0
  0
VERTEX
  8
0
 10
37.256253
 20
153.2909
 30
0.0
  0
VERTEX
  8
0
 10
38.905624
 20
152.02684
 30
0.0
  0
SEQEND
  8
0
  0
POLYLINE
  8
0
 62
0
 70
0
 66
1
 10
0.0
 20
0.0
 30
0.0
  0
VERTEX
  8
0
 10
38.905624
 20
152.02684
 30
0.0
  0
VERTEX
  8
0
 10
40.649626
 20
150.87769
 30
0.0
  0
SEQEND
  8
0
  0
POLYLINE
  8
0
 62
0
 70
0
 66
1
 10
0.0
 20
0.0
 30
0.0
  0
VERTEX
  8
0
 10
40.649626
 20
150.87769
 30
0.0
  0
VERTEX
  8
0
 10
42.461227
 20
149.85021
 30
0.0
  0
SEQEND
  8
0
  0
POLYLINE
  8
0
 62
0
 70
0
 66
1
 10
0.0
 20
0.0
 30
0.0
  0
VERTEX
  8
0
 10
42.461227
 20
149.85021
 30
0.0
  0
VERTEX
  8
0
 10
44.340426
 20
148.95117
 30
0.0
  0
SEQEND
  8
0
  0
POLYLINE
  8
0
 62
0
 70
0
 66
1
 10
0.0
 20
0.0
 30
0.0
  0
VERTEX
  8
0
 10
44.340426
 20
148.95117
 30
0.0
  0
VERTEX
  8
0
 10
46.273706
 20
148.18732
 30
0.0
  0
SEQEND
  8
0
  0
POLYLINE
  8
0
 62
0
 70
0
 66
1
 10
0.0
 20
0.0
 30
0.0
  0
VERTEX
  8
0
 10
46.273706
 20
148.18732
 30
0.0
  0
VERTEX
  8
0
 10
48.254302
 20
147.54515
 30
0.0
  0
SEQEND
  8
0
  0
POLYLINE
  8
0
 62
0
 70
0
 66
1
 10
0.0
 20
0.0
 30
0.0
  0
VERTEX
  8
0
 10
48.254302
 20
147.54515
 30
0.0
  0
VERTEX
  8
0
 10
50.275455
 20
147.05169
 30
0.0
  0
SEQEND
  8
0
  0
POLYLINE
  8
0
 62
0
 70
0
 66
1
 10
0.0
 20
0.0
 30
0.0
  0
VERTEX
  8
0
 10
50.275455
 20
147.05169
 30
0.0
  0
VERTEX
  8
0
 10
52.330407
 20
146.68666
 30
0.0
  0
SEQEND
  8
0
  0
POLYLINE
  8
0
 62
0
 70
0
 66
1
 10
0.0
 20
0.0
 30
0.0
  0
VERTEX
  8
0
 10
52.330407
 20
146.68666
 30
0.0
  0
VERTEX
  8
0
 10
54.398875
 20
146.46359
 30
0.0
  0
SEQEND
  8
0
  0
POLYLINE
  8
0
 62
0
 70
0
 66
1
 10
0.0
 20
0.0
 30
0.0
  0
VERTEX
  8
0
 10
54.398875
 20
146.46359
 30
0.0
  0
VERTEX
  8
0
 10
56.480868
 20
146.38249
 30
0.0
  0
SEQEND
  8
0
  0
POLYLINE
  8
0
 62
0
 70
0
 66
1
 10
0.0
 20
0.0
 30
0.0
  0
VERTEX
  8
0
 10
56.480868
 20
146.38249
 30
0.0
  0
VERTEX
  8
0
 10
58.56286
 20
146.44329
 30
0.0
  0
SEQEND
  8
0
  0
POLYLINE
  8
0
 62
0
 70
0
 66
1
 10
0.0
 20
0.0
 30
0.0
  0
VERTEX
  8
0
 10
58.56286
 20
146.44329
 30
0.0
  0
VERTEX
  8
0
 10
60.638088
 20
146.64608
 30
0.0
  0
SEQEND
  8
0
  0
POLYLINE
  8
0
 62
0
 70
0
 66
1
 10
0.0
 20
0.0
 30
0.0
  0
VERTEX
  8
0
 10
60.638088
 20
146.64608
 30
0.0
  0
VERTEX
  8
0
 10
62.686281
 20
146.99082
 30
0.0
  0
SEQEND
  8
0
  0
POLYLINE
  8
0
 62
0
 70
0
 66
1
 10
0.0
 20
0.0
 30
0.0
  0
VERTEX
  8
0
 10
62.686281
 20
146.99082
 30
0.0
  0
VERTEX
  8
0
 10
64.7142
 20
147.47753
 30
0.0
  0
SEQEND
  8
0
  0
POLYLINE
  8
0
 62
0
 70
0
 66
1
 10
0.0
 20
0.0
 30
0.0
  0
VERTEX
  8
0
 10
64.7142
 20
147.47753
 30
0.0
  0
VERTEX
  8
0
 10
66.701554
 20
148.09942
 30
0.0
  0
SEQEND
  8
0
  0
POLYLINE
  8
0
 62
0
 70
0
 66
1
 10
0.0
 20
0.0
 30
0.0
  0
VERTEX
  8
0
 10
66.701554
 20
148.09942
 30
0.0
  0
VERTEX
  8
0
 10
68.641585
 20
148.8565
 30
0.0
  0
SEQEND
  8
0
  0
POLYLINE
  8
0
 62
0
 70
0
 66
1
 10
0.0
 20
0.0
 30
0.0
  0
VERTEX
  8
0
 10
68.641585
 20
148.8565
 30
0.0
  0
VERTEX
  8
0
 10
70.527549
 20
149.74879
 30
0.0
  0
SEQEND
  8
0
  0
POLYLINE
  8
0
 62
0
 70
0
 66
1
 10
0.0
 20
0.0
 30
0.0
  0
VERTEX
  8
0
 10
70.527549
 20
149.74879
 30
0.0
  0
VERTEX
  8
0
 10
72.345908
 20
150.76274
 30
0.0
  0
SEQEND
  8
0
  0
POLYLINE
  8
0
 62
0
 70
0
 66
1
 10
0.0
 20
0.0
 30
0.0
  0
VERTEX
  8
0
 10
72.345908
 20
150.76274
 30
0.0
  0
VERTEX
  8
0
 10
74.089918
 20
151.7429
 30
0.0
  0
SEQEND
  8
0
  0
POLYLINE
  8
0
 62
0
 70
0
 66
1
 10
0.0
 20
0.0
 30
0.0
  0
VERTEX
  8
0
 10
74.089918
 20
151.7429
 30
0.0
  0
VERTEX
  8
0
 10
75.413042314
 20
151.769195244
 30
0.0
  0
VERTEX
  8
0
 10
78.7657835537
 20
151.800990879
 30
0.0
  0
VERTEX
  8
0
 10
83.6971587107
 20
151.835642667
 30
0.0
  0
VERTEX
  8
0
 10
89.7561847769
 20
151.870506371
 30
0.0
  0
VERTEX
  8
0
 10
96.4918787438
 20
151.902937754
 30
0.0
  0
VERTEX
  8
0
 10
103.453257603
 20
151.930292577
 30
0.0
  0
VERTEX
  8
0
 10
110.189338347
 20
151.949926604
 30
0.0
  0
VERTEX
  8
0
 10
116.249137967
 20
151.959195597
 30
0.0
  0
VERTEX
  8
0
 10
121.181673455
 20
151.955455319
 30
0.0
  0
VERTEX
  8
0
 10
124.535961802
 20
151.936061533
 30
0.0
  0
VERTEX
  8
0
 10
125.86102
 20
151.89837
 30
0.0
  0
SEQEND
  8
0
  0
POLYLINE
  8
0
 62
0
 70
0
 66
1
 10
0.0
 20
0.0
 30
0.0
  0
VERTEX
  8
0
 10
126.50252
 20
151.70718
 30
0.0
  0
VERTEX
  8
0
 10
128.17961
 20
150.76274
 30
0.0
  0
SEQEND
  8
0
  0
POLYLINE
  8
0
 62
0
 70
0
 66
1
 10
0.0
 20
0.0
 30
0.0
  0
VERTEX
  8
0
 10
128.17961
 20
150.76274
 30
0.0
  0
VERTEX
  8
0
 10
129.99797
 20
149.74879
 30
0.0
  0
SEQEND
  8
0
  0
POLYLINE
  8
0
 62
0
 70
0
 66
1
 10
0.0
 20
0.0
 30
0.0
  0
VERTEX
  8
0
 10
129.99797
 20
149.74879
 30
0.0
  0
VERTEX
  8
0
 10
131.88393
 20
148.8565
 30
0.0
  0
SEQEND
  8
0
  0
POLYLINE
  8
0
 62
0
 70
0
 66
1
 10
0.0
 20
0.0
 30
0.0
  0
VERTEX
  8
0
 10
131.88393
 20
148.8565
 30
0.0
  0
VERTEX
  8
0
 10
133.82396
 20
148.09942
 30
0.0
  0
SEQEND
  8
0
  0
POLYLINE
  8
0
 62
0
 70
0
 66
1
 10
0.0
 20
0.0
 30
0.0
  0
VERTEX
  8
0
 10
133.82396
 20
148.09942
 30
0.0
  0
VERTEX
  8
0
 10
135.81132
 20
147.47753
 30
0.0
  0
SEQEND
  8
0
  0
POLYLINE
  8
0
 62
0
 70
0
 66
1
 10
0.0
 20
0.0
 30
0.0
  0
VERTEX
  8
0
 10
135.81132
 20
147.47753
 30
0.0
  0
VERTEX
  8
0
 10
137.83247
 20
146.99082
 30
0.0
  0
SEQEND
  8
0
  0
POLYLINE
  8
0
 62
0
 70
0
 66
1
 10
0.0
 20
0.0
 30
0.0
  0
VERTEX
  8
0
 10
137.83247
 20
146.99082
 30
0.0
  0
VERTEX
  8
0
 10
139.88742
 20
146.64608
 30
0.0
  0
SEQEND
  8
0
  0
POLYLINE
  8
0
 62
0
 70
0
 66
1
 10
0.0
 20
0.0
 30
0.0
  0
VERTEX
  8
0
 10
139.88742
 20
146.64608
 30
0.0
  0
VERTEX
  8
0
 10
141.96265
 20
146.44329
 30
0.0
  0
SEQEND
  8
0
  0
POLYLINE
  8
0
 62
0
 70
0
 66
1
 10
0.0
 20
0.0
 30
0.0
  0
VERTEX
  8
0
 10
141.96265
 20
146.44329
 30
0.0
  0
VERTEX
  8
0
 10
144.04465
 20
146.38249
 30
0.0
  0
SEQEND
  8
0
  0
POLYLINE
  8
0
 62
0
 70
0
 66
1
 10
0.0
 20
0.0
 30
0.0
  0
VERTEX
  8
0
 10
144.04465
 20
146.38249
 30
0.0
  0
VERTEX
  8
0
 10
146.12663
 20
146.46359
 30
0.0
  0
SEQEND
  8
0
  0
POLYLINE
  8
0
 62
0
 70
0
 66
1
 10
0.0
 20
0.0
 30
0.0
  0
VERTEX
  8
0
 10
146.12663
 20
146.46359
 30
0.0
  0
VERTEX
  8
0
 10
148.19511
 20
146.68666
 30
0.0
  0
SEQEND
  8
0
  0
POLYLINE
  8
0
 62
0
 70
0
 66
1
 10
0.0
 20
0.0
 30
0.0
  0
VERTEX
  8
0
 10
148.19511
 20
146.68666
 30
0.0
  0
VERTEX
  8
0
 10
150.2433
 20
147.05169
 30
0.0
  0
SEQEND
  8
0
  0
POLYLINE
  8
0
 62
0
 70
0
 66
1
 10
0.0
 20
0.0
 30
0.0
  0
VERTEX
  8
0
 10
150.2433
 20
147.05169
 30
0.0
  0
VERTEX
  8
0
 10
152.27121
 20
147.54515
 30
0.0
  0
SEQEND
  8
0
  0
POLYLINE
  8
0
 62
0
 70
0
 66
1
 10
0.0
 20
0.0
 30
0.0
  0
VERTEX
  8
0
 10
152.27121
 20
147.54515
 30
0.0
  0
VERTEX
  8
0
 10
154.25181
 20
148.18732
 30
0.0
  0
SEQEND
  8
0
  0
POLYLINE
  8
0
 62
0
 70
0
 66
1
 10
0.0
 20
0.0
 30
0.0
  0
VERTEX
  8
0
 10
154.25181
 20
148.18732
 30
0.0
  0
VERTEX
  8
0
 10
156.18508
 20
148.95117
 30
0.0
  0
SEQEND
  8
0
  0
POLYLINE
  8
0
 62
0
 70
0
 66
1
 10
0.0
 20
0.0
 30
0.0
  0
VERTEX
  8
0
 10
156.18508
 20
148.95117
 30
0.0
  0
VERTEX
  8
0
 10
158.06428
 20
149.85021
 30
0.0
  0
SEQEND
  8
0
  0
POLYLINE
  8
0
 62
0
 70
0
 66
1
 10
0.0
 20
0.0
 30
0.0
  0
VERTEX
  8
0
 10
158.06428
 20
149.85021
 30
0.0
  0
VERTEX
  8
0
 10
159.87589
 20
150.87769
 30
0.0
  0
SEQEND
  8
0
  0
POLYLINE
  8
0
 62
0
 70
0
 66
1
 10
0.0
 20
0.0
 30
0.0
  0
VERTEX
  8
0
 10
159.87589
 20
150.87769
 30
0.0
  0
VERTEX
  8
0
 10
161.61313
 20
152.02684
 30
0.0
  0
SEQEND
  8
0
  0
POLYLINE
  8
0
 62
0
 70
0
 66
1
 10
0.0
 20
0.0
 30
0.0
  0
VERTEX
  8
0
 10
161.61313
 20
152.02684
 30
0.0
  0
VERTEX
  8
0
 10
163.26926
 20
153.2909
 30
0.0
  0
SEQEND
  8
0
  0
POLYLINE
  8
0
 62
0
 70
0
 66
1
 10
0.0
 20
0.0
 30
0.0
  0
VERTEX
  8
0
 10
163.26926
 20
153.2909
 30
0.0
  0
VERTEX
  8
0
 10
164.83751
 20
154.66988
 30
0.0
  0
SEQEND
  8
0
  0
POLYLINE
  8
0
 62
0
 70
0
 66
1
 10
0.0
 20
0.0
 30
0.0
  0
VERTEX
  8
0
 10
164.83751
 20
154.66988
 30
0.0
  0
VERTEX
  8
0
 10
166.29761
 20
156.1435
 30
0.0
  0
SEQEND
  8
0
  0
POLYLINE
  8
0
 62
0
 70
0
 66
1
 10
0.0
 20
0.0
 30
0.0
  0
VERTEX
  8
0
 10
166.29761
 20
156.1435
 30
0.0
  0
VERTEX
  8
0
 10
167.66307
 20
157.72527
 30
0.0
  0
SEQEND
  8
0
  0
POLYLINE
  8
0
 62
0
 70
0
 66
1
 10
0.0
 20
0.0
 30
0.0
  0
VERTEX
  8
0
 10
167.66307
 20
157.72527
 30
0.0
  0
VERTEX
  8
0
 10
168.91362
 20
159.38816
 30
0.0
  0
SEQEND
  8
0
  0
POLYLINE
  8
0
 62
0
 70
0
 66
1
 10
0.0
 20
0.0
 30
0.0
  0
VERTEX
  8
0
 10
168.91362
 20
159.38816
 30
0.0
  0
VERTEX
  8
0
 10
170.04925
 20
161.13217
 30
0.0
  0
SEQEND
  8
0
  0
POLYLINE
  8
0
 62
0
 70
0
 66
1
 10
0.0
 20
0.0
 30
0.0
  0
VERTEX
  8
0
 10
170.04925
 20
161.13217
 30
0.0
  0
VERTEX
  8
0
 10
171.06321
 20
162.95053
 30
0.0
  0
SEQEND
  8
0
  0
POLYLINE
  8
0
 62
0
 70
0
 66
1
 10
0.0
 20
0.0
 30
0.0
  0
VERTEX
  8
0
 10
171.06321
 20
162.95053
 30
0.0
  0
VERTEX
  8
0
 10
171.95549
 20
164.83649
 30
0.0
  0
SEQEND
  8
0
  0
POLYLINE
  8
0
 62
0
 70
0
 66
1
 10
0.0
 20
0.0
 30
0.0
  0
VERTEX
  8
0
 10
171.95549
 20
164.83649
 30
0.0
  0
VERTEX
  8
0
 10
172.71258
 20
166.77653
 30
0.0
  0
SEQEND
  8
0
  0
POLYLINE
  8
0
 62
0
 70
0
 66
1
 10
0.0
 20
0.0
 30
0.0
  0
VERTEX
  8
0
 10
172.71258
 20
166.77653
 30
0.0
  0
VERTEX
  8
0
 10
173.33447
 20
168.76388
 30
0.0
  0
SEQEND
  8
0
  0
POLYLINE
  8
0
 62
0
 70
0
 66
1
 10
0.0
 20
0.0
 30
0.0
  0
VERTEX
  8
0
 10
173.33447
 20
168.76388
 30
0.0
  0
VERTEX
  8
0
 10
173.82117
 20
170.79179
 30
0.0
  0
SEQEND
  8
0
  0
POLYLINE
  8
0
 62
0
 70
0
 66
1
 10
0.0
 20
0.0
 30
0.0
  0
VERTEX
  8
0
 10
173.82117
 20
170.79179
 30
0.0
  0
VERTEX
  8
0
 10
174.16591
 20
172.83999
 30
0.0
  0
SEQEND
  8
0
  0
POLYLINE
  8
0
 62
0
 70
0
 66
1
 10
0.0
 20
0.0
 30
0.0
  0
VERTEX
  8
0
 10
174.16591
 20
172.83999
 30
0.0
  0
VERTEX
  8
0
 10
174.36871
 20
174.91521
 30
0.0
  0
SEQEND
  8
0
  0
POLYLINE
  8
0
 62
0
 70
0
 66
1
 10
0.0
 20
0.0
 30
0.0
  0
VERTEX
  8
0
 10
174.36871
 20
174.91521
 30
0.0
  0
VERTEX
  8
0
 10
174.42951
 20
176.99721
 30
0.0
  0
SEQEND
  8
0
  0
POLYLINE
  8
0
 62
0
 70
0
 66
1
 10
0.0
 20
0.0
 30
0.0
  0
VERTEX
  8
0
 10
174.42951
 20
176.99721
 30
0.0
  0
VERTEX
  8
0
 10
174.34841
 20
179.0792
 30
0.0
  0
SEQEND
  8
0
  0
POLYLINE
  8
0
 62
0
 70
0
 66
1
 10
0.0
 20
0.0
 30
0.0
  0
VERTEX
  8
0
 10
174.34841
 20
179.0792
 30
0.0
  0
VERTEX
  8
0
 10
174.12534
 20
181.14767
 30
0.0
  0
SEQEND
  8
0
  0
POLYLINE
  8
0
 62
0
 70
0
 66
1
 10
0.0
 20
0.0
 30
0.0
  0
VERTEX
  8
0
 10
174.12534
 20
181.14767
 30
0.0
  0
VERTEX
  8
0
 10
173.76032
 20
183.20262
 30
0.0
  0
SEQEND
  8
0
  0
POLYLINE
  8
0
 62
0
 70
0
 66
1
 10
0.0
 20
0.0
 30
0.0
  0
VERTEX
  8
0
 10
173.76032
 20
183.20262
 30
0.0
  0
VERTEX
  8
0
 10
173.2601
 20
185.22377
 30
0.0
  0
SEQEND
  8
0
  0
POLYLINE
  8
0
 62
0
 70
0
 66
1
 10
0.0
 20
0.0
 30
0.0
  0
VERTEX
  8
0
 10
173.2601
 20
185.22377
 30
0.0
  0
VERTEX
  8
0
 10
172.62468
 20
187.20437
 30
0.0
  0
SEQEND
  8
0
  0
POLYLINE
  8
0
 62
0
 70
0
 66
1
 10
0.0
 20
0.0
 30
0.0
  0
VERTEX
  8
0
 10
172.62468
 20
187.20437
 30
0.0
  0
VERTEX
  8
0
 10
171.85408
 20
189.13765
 30
0.0
  0
SEQEND
  8
0
  0
POLYLINE
  8
0
 62
0
 70
0
 66
1
 10
0.0
 20
0.0
 30
0.0
  0
VERTEX
  8
0
 10
171.85408
 20
189.13765
 30
0.0
  0
VERTEX
  8
0
 10
170.95504
 20
191.01685
 30
0.0
  0
SEQEND
  8
0
  0
POLYLINE
  8
0
 62
0
 70
0
 66
1
 10
0.0
 20
0.0
 30
0.0
  0
VERTEX
  8
0
 10
170.95504
 20
191.01685
 30
0.0
  0
VERTEX
  8
0
 10
169.93432
 20
192.82845
 30
0.0
  0
SEQEND
  8
0
  0
POLYLINE
  8
0
 62
0
 70
0
 66
1
 10
0.0
 20
0.0
 30
0.0
  0
VERTEX
  8
0
 10
169.93432
 20
192.82845
 30
0.0
  0
VERTEX
  8
0
 10
168.78517
 20
194.57246
 30
0.0
  0
SEQEND
  8
0
  0
POLYLINE
  8
0
 62
0
 70
0
 66
1
 10
0.0
 20
0.0
 30
0.0
  0
VERTEX
  8
0
 10
168.78517
 20
194.57246
 30
0.0
  0
VERTEX
  8
0
 10
167.52111
 20
196.22183
 30
0.0
  0
SEQEND
  8
0
  0
POLYLINE
  8
0
 62
0
 70
0
 66
1
 10
0.0
 20
0.0
 30
0.0
  0
VERTEX
  8
0
 10
167.52111
 20
196.22183
 30
0.0
  0
VERTEX
  8
0
 10
166.14213
 20
197.790079
 30
0.0
  0
SEQEND
  8
0
  0
POLYLINE
  8
0
 62
0
 70
0
 66
1
 10
0.0
 20
0.0
 30
0.0
  0
VERTEX
  8
0
 10
166.14213
 20
197.790079
 30
0.0
  0
VERTEX
  8
0
 10
164.66174
 20
199.256939
 30
0.0
  0
SEQEND
  8
0
  0
POLYLINE
  8
0
 62
0
 70
0
 66
1
 10
0.0
 20
0.0
 30
0.0
  0
VERTEX
  8
0
 10
164.66174
 20
199.256939
 30
0.0
  0
VERTEX
  8
0
 10
163.08674
 20
200.615639
 30
0.0
  0
SEQEND
  8
0
  0
POLYLINE
  8
0
 62
0
 70
0
 66
1
 10
0.0
 20
0.0
 30
0.0
  0
VERTEX
  8
0
 10
163.08674
 20
200.615639
 30
0.0
  0
VERTEX
  8
0
 10
161.42385
 20
201.866179
 30
0.0
  0
SEQEND
  8
0
  0
POLYLINE
  8
0
 62
0
 70
0
 66
1
 10
0.0
 20
0.0
 30
0.0
  0
VERTEX
  8
0
 10
161.42385
 20
201.866179
 30
0.0
  0
VERTEX
  8
0
 10
159.69336
 20
203.001819
 30
0.0
  0
SEQEND
  8
0
  0
POLYLINE
  8
0
 62
0
 70
0
 66
1
 10
0.0
 20
0.0
 30
0.0
  0
VERTEX
  8
0
 10
159.69336
 20
203.001819
 30
0.0
  0
VERTEX
  8
0
 10
157.88852
 20
204.029289
 30
0.0
  0
SEQEND
  8
0
  0
POLYLINE
  8
0
 62
0
 70
0
 66
1
 10
0.0
 20
0.0
 30
0.0
  0
VERTEX
  8
0
 10
157.88852
 20
204.029289
 30
0.0
  0
VERTEX
  8
0
 10
156.0296
 20
204.935089
 30
0.0
  0
SEQEND
  8
0
  0
POLYLINE
  8
0
 62
0
 70
0
 66
1
 10
0.0
 20
0.0
 30
0.0
  0
VERTEX
  8
0
 10
156.0296
 20
204.935089
 30
0.0
  0
VERTEX
  8
0
 10
154.10307
 20
205.705699
 30
0.0
  0
SEQEND
  8
0
  0
POLYLINE
  8
0
 62
0
 70
0
 66
1
 10
0.0
 20
0.0
 30
0.0
  0
VERTEX
  8
0
 10
154.10307
 20
205.705699
 30
0.0
  0
VERTEX
  8
0
 10
152.12248
 20
206.327589
 30
0.0
  0
SEQEND
  8
0
  0
POLYLINE
  8
0
 62
0
 70
0
 66
1
 10
0.0
 20
0.0
 30
0.0
  0
VERTEX
  8
0
 10
152.12248
 20
206.327589
 30
0.0
  0
VERTEX
  8
0
 10
150.10808
 20
206.800769
 30
0.0
  0
SEQEND
  8
0
  0
POLYLINE
  8
0
 62
0
 70
0
 66
1
 10
0.0
 20
0.0
 30
0.0
  0
VERTEX
  8
0
 10
150.10808
 20
206.800769
 30
0.0
  0
VERTEX
  8
0
 10
148.05989
 20
207.131999
 30
0.0
  0
SEQEND
  8
0
  0
POLYLINE
  8
0
 62
0
 70
0
 66
1
 10
0.0
 20
0.0
 30
0.0
  0
VERTEX
  8
0
 10
148.05989
 20
207.131999
 30
0.0
  0
VERTEX
  8
0
 10
145.99818
 20
207.321269
 30
0.0
  0
SEQEND
  8
0
  0
POLYLINE
  8
0
 62
0
 70
0
 66
1
 10
0.0
 20
0.0
 30
0.0
  0
VERTEX
  8
0
 10
145.99818
 20
207.321269
 30
0.0
  0
VERTEX
  8
0
 10
142.43924625
 20
207.3652815
 30
0.0
  0
VERTEX
  8
0
 10
139.27902
 20
207.382069
 30
0.0
  0
SEQEND
  8
0
  0
ENDSEC
  0
EOF
