  0
SECTION
  2
HEADER
  9
$ACADVER
  1
AC1014
  9
$HANDSEED
  5
FFFF
  9
$MEASUREMENT
 70
     1
  0
ENDSEC
  0
SECTION
  2
TABLES
  0
TABLE
  2
VPORT
  5
8
330
0
100
AcDbSymbolTable
 70
     4
  0
VPORT
  5
2E
330
8
100
AcDbSymbolTableRecord
100
AcDbViewportTableRecord
  2
*ACTIVE
 70
     0
 10
0.0
 20
0.0
 11
1.0
 21
1.0
 12
210.0
 22
148.5
 13
0.0
 23
0.0
 14
10.0
 24
10.0
 15
10.0
 25
10.0
 16
0.0
 26
0.0
 36
1.0
 17
0.0
 27
0.0
 37
0.0
 40
341.0
 41
1.24
 42
50.0
 43
0.0
 44
0.0
 50
0.0
 51
0.0
 71
     0
 72
   100
 73
     1
 74
     3
 75
     0
 76
     0
 77
     0
 78
     0
  0
ENDTAB
  0
TABLE
  2
LTYPE
  5
5
330
0
100
AcDbSymbolTable
 70
     1
  0
LTYPE
  5
14
330
5
100
AcDbSymbolTableRecord
100
AcDbLinetypeTableRecord
  2
BYBLOCK
 70
     0
  3

 72
    65
 73
     0
 40
0.0
  0
LTYPE
  5
15
330
5
100
AcDbSymbolTableRecord
100
AcDbLinetypeTableRecord
  2
BYLAYER
 70
     0
  3

 72
    65
 73
     0
 40
0.0
  0
LTYPE
  5
16
330
5
100
AcDbSymbolTableRecord
100
AcDbLinetypeTableRecord
  2
CONTINUOUS
 70
     0
  3
Solid line
 72
    65
 73
     0
 40
0.0
  0
ENDTAB
  0
TABLE
  2
LAYER
  5
2
100
AcDbSymbolTable
 70
1
  0
LAYER
  5
50
100
AcDbSymbolTableRecord
100
AcDbLayerTableRecord
  2
0
 70
0
  6
CONTINUOUS
  0
ENDTAB
  0
TABLE
  2
STYLE
  5
3
330
0
100
AcDbSymbolTable
 70
     1
  0
STYLE
  5
11
330
3
100
AcDbSymbolTableRecord
100
AcDbTextStyleTableRecord
  2
STANDARD
 70
     0
 40
0.0
 41
1.0
 50
0.0
 71
     0
 42
2.5
  3
txt
  4

  0
ENDTAB
  0
TABLE
  2
VIEW
  5
6
330
0
100
AcDbSymbolTable
 70
     0
  0
ENDTAB
  0
TABLE
  2
UCS
  5
7
330
0
100
AcDbSymbolTable
 70
     0
  0
ENDTAB
  0
TABLE
  2
APPID
  5
9
330
0
100
AcDbSymbolTable
 70
     2
  0
APPID
  5
12
330
9
100
AcDbSymbolTableRecord
100
AcDbRegAppTableRecord
  2
ACAD
 70
     0
  0
ENDTAB
  0
TABLE
  2
DIMSTYLE
  5
A
330
0
100
AcDbSymbolTable
 70
     1
  0
DIMSTYLE
105
27
330
A
100
AcDbSymbolTableRecord
100
AcDbDimStyleTableRecord
  2
ISO-25
 70
     0
  3

  4

  5

  6

  7

 40
1.0
 41
2.5
 42
0.625
 43
3.75
 44
1.25
 45
0.0
 46
0.0
 47
0.0
 48
0.0
140
2.5
141
2.5
142
0.0
143
0.03937007874016
144
1.0
145
0.0
146
1.0
147
0.625
 71
     0
 72
     0
 73
     0
 74
     0
 75
     0
 76
     0
 77
     1
 78
     8
170
     0
171
     3
172
     1
173
     0
174
     0
175
     0
176
     0
177
     0
178
     0
270
     2
271
     2
272
     2
273
     2
274
     3
340
11
275
     0
280
     0
281
     0
282
     0
283
     0
284
     8
285
     0
286
     0
287
     3
288
     0
  0
ENDTAB
  0
TABLE
  2
BLOCK_RECORD
  5
1
330
0
100
AcDbSymbolTable
 70
     1
  0
BLOCK_RECORD
  5
1F
330
1
100
AcDbSymbolTableRecord
100
AcDbBlockTableRecord
  2
*MODEL_SPACE
  0
BLOCK_RECORD
  5
1B
330
1
100
AcDbSymbolTableRecord
100
AcDbBlockTableRecord
  2
*PAPER_SPACE
  0
ENDTAB
  0
ENDSEC
  0
SECTION
  2
BLOCKS
  0
BLOCK
  5
20
330
1F
100
AcDbEntity
  8
0
100
AcDbBlockBegin
  2
*MODEL_SPACE
 70
     0
 10
0.0
 20
0.0
 30
0.0
  3
*MODEL_SPACE
  1

  0
ENDBLK
  5
21
330
1F
100
AcDbEntity
  8
0
100
AcDbBlockEnd
  0
BLOCK
  5
1C
330
1B
100
AcDbEntity
 67
     1
  8
0
100
AcDbBlockBegin
  2
*PAPER_SPACE
  1

  0
ENDBLK
  5
1D
330
1B
100
AcDbEntity
 67
     1
  8
0
100
AcDbBlockEnd
  0
ENDSEC
  0
SECTION
  2
ENTITIES
  0
SPLINE
  5
100
100
AcDbEntity
  8
0
 62
1
100
AcDbSpline
 70
8
 71
3
 72
8
 73
4
 74
0
 40
0
 40
0
 40
0
 40
0
 40
1
 40
1
 40
1
 40
1
 10
139.279040
 20
207.382069
 30
0.0
 10
137.205750
 20
207.381709
 30
0.0
 10
55.200708
 20
207.361469
 30
0.0
 10
54.527311
 20
207.321269
 30
0.0
  0
SPLINE
  5
101
100
AcDbEntity
  8
0
 62
1
100
AcDbSpline
 70
8
 71
3
 72
8
 73
4
 74
0
 40
0
 40
0
 40
0
 40
0
 40
1
 40
1
 40
1
 40
1
 10
54.527311
 20
207.321269
 30
0.0
 10
53.829155
 20
207.279469
 30
0.0
 10
53.136607
 20
207.217239
 30
0.0
 10
52.458842
 20
207.131999
 30
0.0
  0
SPLINE
  5
102
100
AcDbEntity
  8
0
 62
1
100
AcDbSpline
 70
8
 71
3
 72
8
 73
4
 74
0
 40
0
 40
0
 40
0
 40
0
 40
1
 40
1
 40
1
 40
1
 10
52.458842
 20
207.131999
 30
0.0
 10
51.767104
 20
207.044999
 30
0.0
 10
51.089980
 20
206.933729
 30
0.0
 10
50.417407
 20
206.800769
 30
0.0
  0
SPLINE
  5
103
100
AcDbEntity
  8
0
 62
1
100
AcDbSpline
 70
8
 71
3
 72
8
 73
4
 74
0
 40
0
 40
0
 40
0
 40
0
 40
1
 40
1
 40
1
 40
1
 10
50.417407
 20
206.800769
 30
0.0
 10
49.736277
 20
206.666119
 30
0.0
 10
49.059895
 20
206.510059
 30
0.0
 10
48.396254
 20
206.327589
 30
0.0
  0
SPLINE
  5
104
100
AcDbEntity
  8
0
 62
1
100
AcDbSpline
 70
8
 71
3
 72
8
 73
4
 74
0
 40
0
 40
0
 40
0
 40
0
 40
1
 40
1
 40
1
 40
1
 10
48.396254
 20
206.327589
 30
0.0
 10
47.729622
 20
206.144309
 30
0.0
 10
47.073611
 20
205.937929
 30
0.0
 10
46.422417
 20
205.705699
 30
0.0
  0
SPLINE
  5
105
100
AcDbEntity
  8
0
 62
1
100
AcDbSpline
 70
8
 71
3
 72
8
 73
4
 74
0
 40
0
 40
0
 40
0
 40
0
 40
1
 40
1
 40
1
 40
1
 10
46.422417
 20
205.705699
 30
0.0
 10
45.774030
 20
205.474469
 30
0.0
 10
45.131181
 20
205.215529
 30
0.0
 10
44.495902
 20
204.935089
 30
0.0
  0
SPLINE
  5
106
100
AcDbEntity
  8
0
 62
1
100
AcDbSpline
 70
8
 71
3
 72
8
 73
4
 74
0
 40
0
 40
0
 40
0
 40
0
 40
1
 40
1
 40
1
 40
1
 10
44.495902
 20
204.935089
 30
0.0
 10
43.868792
 20
204.658259
 30
0.0
 10
43.246662
 20
204.354739
 30
0.0
 10
42.630220
 20
204.029289
 30
0.0
  0
SPLINE
  5
107
100
AcDbEntity
  8
0
 62
1
100
AcDbSpline
 70
8
 71
3
 72
8
 73
4
 74
0
 40
0
 40
0
 40
0
 40
0
 40
1
 40
1
 40
1
 40
1
 10
42.630220
 20
204.029289
 30
0.0
 10
42.026158
 20
203.710379
 30
0.0
 10
41.427955
 20
203.368039
 30
0.0
 10
40.832136
 20
203.001819
 30
0.0
  0
SPLINE
  5
108
100
AcDbEntity
  8
0
 62
1
100
AcDbSpline
 70
8
 71
3
 72
8
 73
4
 74
0
 40
0
 40
0
 40
0
 40
0
 40
1
 40
1
 40
1
 40
1
 10
40.832136
 20
203.001819
 30
0.0
 10
40.251844
 20
202.645129
 30
0.0
 10
39.675981
 20
202.268329
 30
0.0
 10
39.101650
 20
201.866179
 30
0.0
  0
SPLINE
  5
109
100
AcDbEntity
  8
0
 62
1
100
AcDbSpline
 70
8
 71
3
 72
8
 73
4
 74
0
 40
0
 40
0
 40
0
 40
0
 40
1
 40
1
 40
1
 40
1
 10
39.101650
 20
201.866179
 30
0.0
 10
38.528560
 20
201.464899
 30
0.0
 10
37.975629
 20
201.048249
 30
0.0
 10
37.438762
 20
200.615639
 30
0.0
  0
SPLINE
  5
10a
100
AcDbEntity
  8
0
 62
1
100
AcDbSpline
 70
8
 71
3
 72
8
 73
4
 74
0
 40
0
 40
0
 40
0
 40
0
 40
1
 40
1
 40
1
 40
1
 10
37.438762
 20
200.615639
 30
0.0
 10
36.894504
 20
200.177069
 30
0.0
 10
36.363633
 20
199.725519
 30
0.0
 10
35.856989
 20
199.256939
 30
0.0
  0
SPLINE
  5
10b
100
AcDbEntity
  8
0
 62
1
100
AcDbSpline
 70
8
 71
3
 72
8
 73
4
 74
0
 40
0
 40
0
 40
0
 40
0
 40
1
 40
1
 40
1
 40
1
 10
35.856989
 20
199.256939
 30
0.0
 10
35.344370
 20
198.782829
 30
0.0
 10
34.857089
 20
198.292669
 30
0.0
 10
34.383371
 20
197.790079
 30
0.0
  0
SPLINE
  5
10c
100
AcDbEntity
  8
0
 62
1
100
AcDbSpline
 70
8
 71
3
 72
8
 73
4
 74
0
 40
0
 40
0
 40
0
 40
0
 40
1
 40
1
 40
1
 40
1
 10
34.383371
 20
197.790079
 30
0.0
 10
33.904885
 20
197.282419
 30
0.0
 10
33.442777
 20
196.756220
 30
0.0
 10
33.004392
 20
196.221830
 30
0.0
  0
SPLINE
  5
10d
100
AcDbEntity
  8
0
 62
1
100
AcDbSpline
 70
8
 71
3
 72
8
 73
4
 74
0
 40
0
 40
0
 40
0
 40
0
 40
1
 40
1
 40
1
 40
1
 10
33.004392
 20
196.221830
 30
0.0
 10
32.562239
 20
195.682840
 30
0.0
 10
32.141268
 20
195.136260
 30
0.0
 10
31.740327
 20
194.572460
 30
0.0
  0
SPLINE
  5
10e
100
AcDbEntity
  8
0
 62
1
100
AcDbSpline
 70
8
 71
3
 72
8
 73
4
 74
0
 40
0
 40
0
 40
0
 40
0
 40
1
 40
1
 40
1
 40
1
 10
31.740327
 20
194.572460
 30
0.0
 10
31.336572
 20
194.004700
 30
0.0
 10
30.952710
 20
193.418950
 30
0.0
 10
30.591175
 20
192.828450
 30
0.0
  0
SPLINE
  5
10f
100
AcDbEntity
  8
0
 62
1
100
AcDbSpline
 70
8
 71
3
 72
8
 73
4
 74
0
 40
0
 40
0
 40
0
 40
0
 40
1
 40
1
 40
1
 40
1
 10
30.591175
 20
192.828450
 30
0.0
 10
30.227637
 20
192.234690
 30
0.0
 10
29.884115
 20
191.631120
 30
0.0
 10
29.563703
 20
191.016850
 30
0.0
  0
SPLINE
  5
110
100
AcDbEntity
  8
0
 62
1
100
AcDbSpline
 70
8
 71
3
 72
8
 73
4
 74
0
 40
0
 40
0
 40
0
 40
0
 40
1
 40
1
 40
1
 40
1
 10
29.563703
 20
191.016850
 30
0.0
 10
29.241962
 20
190.400030
 30
0.0
 10
28.942472
 20
189.772630
 30
0.0
 10
28.664661
 20
189.137650
 30
0.0
  0
SPLINE
  5
111
100
AcDbEntity
  8
0
 62
1
100
AcDbSpline
 70
8
 71
3
 72
8
 73
4
 74
0
 40
0
 40
0
 40
0
 40
0
 40
1
 40
1
 40
1
 40
1
 10
28.664661
 20
189.137650
 30
0.0
 10
28.385943
 20
188.500600
 30
0.0
 10
28.134873
 20
187.857170
 30
0.0
 10
27.900808
 20
187.204370
 30
0.0
  0
SPLINE
  5
112
100
AcDbEntity
  8
0
 62
1
100
AcDbSpline
 70
8
 71
3
 72
8
 73
4
 74
0
 40
0
 40
0
 40
0
 40
0
 40
1
 40
1
 40
1
 40
1
 10
27.900808
 20
187.204370
 30
0.0
 10
27.666239
 20
186.550130
 30
0.0
 10
27.447905
 20
185.891280
 30
0.0
 10
27.258641
 20
185.223770
 30
0.0
  0
SPLINE
  5
113
100
AcDbEntity
  8
0
 62
1
100
AcDbSpline
 70
8
 71
3
 72
8
 73
4
 74
0
 40
0
 40
0
 40
0
 40
0
 40
1
 40
1
 40
1
 40
1
 10
27.258641
 20
185.223770
 30
0.0
 10
27.069139
 20
184.555440
 30
0.0
 10
26.908810
 20
183.881680
 30
0.0
 10
26.765180
 20
183.202620
 30
0.0
  0
SPLINE
  5
114
100
AcDbEntity
  8
0
 62
1
100
AcDbSpline
 70
8
 71
3
 72
8
 73
4
 74
0
 40
0
 40
0
 40
0
 40
0
 40
1
 40
1
 40
1
 40
1
 10
26.765180
 20
183.202620
 30
0.0
 10
26.621495
 20
182.523290
 30
0.0
 10
26.497479
 20
181.835170
 30
0.0
 10
26.400157
 20
181.147670
 30
0.0
  0
SPLINE
  5
115
100
AcDbEntity
  8
0
 62
1
100
AcDbSpline
 70
8
 71
3
 72
8
 73
4
 74
0
 40
0
 40
0
 40
0
 40
0
 40
1
 40
1
 40
1
 40
1
 10
26.400157
 20
181.147670
 30
0.0
 10
26.302857
 20
180.460340
 30
0.0
 10
26.227599
 20
179.772130
 30
0.0
 10
26.177087
 20
179.079200
 30
0.0
  0
SPLINE
  5
116
100
AcDbEntity
  8
0
 62
1
100
AcDbSpline
 70
8
 71
3
 72
8
 73
4
 74
0
 40
0
 40
0
 40
0
 40
0
 40
1
 40
1
 40
1
 40
1
 10
26.177087
 20
179.079200
 30
0.0
 10
26.126677
 20
178.387210
 30
0.0
 10
26.099307
 20
177.692220
 30
0.0
 10
26.095967
 20
176.997210
 30
0.0
  0
SPLINE
  5
117
100
AcDbEntity
  8
0
 62
1
100
AcDbSpline
 70
8
 71
3
 72
8
 73
4
 74
0
 40
0
 40
0
 40
0
 40
0
 40
1
 40
1
 40
1
 40
1
 10
26.095967
 20
176.997210
 30
0.0
 10
26.092567
 20
176.303710
 30
0.0
 10
26.112797
 20
175.609190
 30
0.0
 10
26.156807
 20
174.915210
 30
0.0
  0
SPLINE
  5
118
100
AcDbEntity
  8
0
 62
1
100
AcDbSpline
 70
8
 71
3
 72
8
 73
4
 74
0
 40
0
 40
0
 40
0
 40
0
 40
1
 40
1
 40
1
 40
1
 10
26.156807
 20
174.915210
 30
0.0
 10
26.200687
 20
174.223400
 30
0.0
 10
26.268199
 20
173.529750
 30
0.0
 10
26.359601
 20
172.839990
 30
0.0
  0
SPLINE
  5
119
100
AcDbEntity
  8
0
 62
1
100
AcDbSpline
 70
8
 71
3
 72
8
 73
4
 74
0
 40
0
 40
0
 40
0
 40
0
 40
1
 40
1
 40
1
 40
1
 10
26.359601
 20
172.839990
 30
0.0
 10
26.450591
 20
172.153300
 30
0.0
 10
26.565836
 20
171.473950
 30
0.0
 10
26.704343
 20
170.791790
 30
0.0
  0
SPLINE
  5
11a
100
AcDbEntity
  8
0
 62
1
100
AcDbSpline
 70
8
 71
3
 72
8
 73
4
 74
0
 40
0
 40
0
 40
0
 40
0
 40
1
 40
1
 40
1
 40
1
 10
26.704343
 20
170.791790
 30
0.0
 10
26.842107
 20
170.113320
 30
0.0
 10
27.005842
 20
169.435430
 30
0.0
 10
27.191045
 20
168.763880
 30
0.0
  0
SPLINE
  5
11b
100
AcDbEntity
  8
0
 62
1
100
AcDbSpline
 70
8
 71
3
 72
8
 73
4
 74
0
 40
0
 40
0
 40
0
 40
0
 40
1
 40
1
 40
1
 40
1
 10
27.191045
 20
168.763880
 30
0.0
 10
27.374974
 20
168.096940
 30
0.0
 10
27.581794
 20
167.434230
 30
0.0
 10
27.812937
 20
166.776530
 30
0.0
  0
SPLINE
  5
11c
100
AcDbEntity
  8
0
 62
1
100
AcDbSpline
 70
8
 71
3
 72
8
 73
4
 74
0
 40
0
 40
0
 40
0
 40
0
 40
1
 40
1
 40
1
 40
1
 10
27.812937
 20
166.776530
 30
0.0
 10
28.042151
 20
166.124300
 30
0.0
 10
28.293964
 20
165.477300
 30
0.0
 10
28.570024
 20
164.836490
 30
0.0
  0
SPLINE
  5
11d
100
AcDbEntity
  8
0
 62
1
100
AcDbSpline
 70
8
 71
3
 72
8
 73
4
 74
0
 40
0
 40
0
 40
0
 40
0
 40
1
 40
1
 40
1
 40
1
 10
28.570024
 20
164.836490
 30
0.0
 10
28.843284
 20
164.202180
 30
0.0
 10
29.142747
 20
163.571370
 30
0.0
 10
29.462308
 20
162.950530
 30
0.0
  0
SPLINE
  5
11e
100
AcDbEntity
  8
0
 62
1
100
AcDbSpline
 70
8
 71
3
 72
8
 73
4
 74
0
 40
0
 40
0
 40
0
 40
0
 40
1
 40
1
 40
1
 40
1
 10
29.462308
 20
162.950530
 30
0.0
 10
29.778135
 20
162.336920
 30
0.0
 10
30.114823
 20
161.730420
 30
0.0
 10
30.476263
 20
161.132170
 30
0.0
  0
SPLINE
  5
11f
100
AcDbEntity
  8
0
 62
1
100
AcDbSpline
 70
8
 71
3
 72
8
 73
4
 74
0
 40
0
 40
0
 40
0
 40
0
 40
1
 40
1
 40
1
 40
1
 10
30.476263
 20
161.132170
 30
0.0
 10
30.832750
 20
160.542100
 30
0.0
 10
31.210664
 20
159.961180
 30
0.0
 10
31.611891
 20
159.388160
 30
0.0
  0
SPLINE
  5
120
100
AcDbEntity
  8
0
 62
1
100
AcDbSpline
 70
8
 71
3
 72
8
 73
4
 74
0
 40
0
 40
0
 40
0
 40
0
 40
1
 40
1
 40
1
 40
1
 10
31.611891
 20
159.388160
 30
0.0
 10
32.013180
 20
158.815070
 30
0.0
 10
32.429832
 20
158.262130
 30
0.0
 10
32.862440
 20
157.725270
 30
0.0
  0
SPLINE
  5
121
100
AcDbEntity
  8
0
 62
1
100
AcDbSpline
 70
8
 71
3
 72
8
 73
4
 74
0
 40
0
 40
0
 40
0
 40
0
 40
1
 40
1
 40
1
 40
1
 10
32.862440
 20
157.725270
 30
0.0
 10
33.301002
 20
157.181020
 30
0.0
 10
33.752557
 20
156.650150
 30
0.0
 10
34.221144
 20
156.143500
 30
0.0
  0
SPLINE
  5
122
100
AcDbEntity
  8
0
 62
1
100
AcDbSpline
 70
8
 71
3
 72
8
 73
4
 74
0
 40
0
 40
0
 40
0
 40
0
 40
1
 40
1
 40
1
 40
1
 10
34.221144
 20
156.143500
 30
0.0
 10
34.695249
 20
155.630880
 30
0.0
 10
35.185406
 20
155.143600
 30
0.0
 10
35.687996
 20
154.669880
 30
0.0
  0
SPLINE
  5
123
100
AcDbEntity
  8
0
 62
1
100
AcDbSpline
 70
8
 71
3
 72
8
 73
4
 74
0
 40
0
 40
0
 40
0
 40
0
 40
1
 40
1
 40
1
 40
1
 10
35.687996
 20
154.669880
 30
0.0
 10
36.195655
 20
154.191400
 30
0.0
 10
36.721859
 20
153.729290
 30
0.0
 10
37.256253
 20
153.290900
 30
0.0
  0
SPLINE
  5
124
100
AcDbEntity
  8
0
 62
1
100
AcDbSpline
 70
8
 71
3
 72
8
 73
4
 74
0
 40
0
 40
0
 40
0
 40
0
 40
1
 40
1
 40
1
 40
1
 10
37.256253
 20
153.290900
 30
0.0
 10
37.795238
 20
152.848750
 30
0.0
 10
38.341819
 20
152.427780
 30
0.0
 10
38.905624
 20
152.026840
 30
0.0
  0
SPLINE
  5
125
100
AcDbEntity
  8
0
 62
1
100
AcDbSpline
 70
8
 71
3
 72
8
 73
4
 74
0
 40
0
 40
0
 40
0
 40
0
 40
1
 40
1
 40
1
 40
1
 10
38.905624
 20
152.026840
 30
0.0
 10
39.473380
 20
151.623080
 30
0.0
 10
40.059136
 20
151.239220
 30
0.0
 10
40.649626
 20
150.877690
 30
0.0
  0
SPLINE
  5
126
100
AcDbEntity
  8
0
 62
1
100
AcDbSpline
 70
8
 71
3
 72
8
 73
4
 74
0
 40
0
 40
0
 40
0
 40
0
 40
1
 40
1
 40
1
 40
1
 10
40.649626
 20
150.877690
 30
0.0
 10
41.243387
 20
150.514150
 30
0.0
 10
41.846959
 20
150.170620
 30
0.0
 10
42.461227
 20
149.850210
 30
0.0
  0
SPLINE
  5
127
100
AcDbEntity
  8
0
 62
1
100
AcDbSpline
 70
8
 71
3
 72
8
 73
4
 74
0
 40
0
 40
0
 40
0
 40
0
 40
1
 40
1
 40
1
 40
1
 10
42.461227
 20
149.850210
 30
0.0
 10
43.078044
 20
149.528470
 30
0.0
 10
43.705447
 20
149.228980
 30
0.0
 10
44.340426
 20
148.951170
 30
0.0
  0
SPLINE
  5
128
100
AcDbEntity
  8
0
 62
1
100
AcDbSpline
 70
8
 71
3
 72
8
 73
4
 74
0
 40
0
 40
0
 40
0
 40
0
 40
1
 40
1
 40
1
 40
1
 10
44.340426
 20
148.951170
 30
0.0
 10
44.977477
 20
148.672450
 30
0.0
 10
45.620904
 20
148.421380
 30
0.0
 10
46.273706
 20
148.187320
 30
0.0
  0
SPLINE
  5
129
100
AcDbEntity
  8
0
 62
1
100
AcDbSpline
 70
8
 71
3
 72
8
 73
4
 74
0
 40
0
 40
0
 40
0
 40
0
 40
1
 40
1
 40
1
 40
1
 10
46.273706
 20
148.187320
 30
0.0
 10
46.927939
 20
147.952750
 30
0.0
 10
47.586797
 20
147.734410
 30
0.0
 10
48.254302
 20
147.545150
 30
0.0
  0
SPLINE
  5
12a
100
AcDbEntity
  8
0
 62
1
100
AcDbSpline
 70
8
 71
3
 72
8
 73
4
 74
0
 40
0
 40
0
 40
0
 40
0
 40
1
 40
1
 40
1
 40
1
 10
48.254302
 20
147.545150
 30
0.0
 10
48.922637
 20
147.355640
 30
0.0
 10
49.596389
 20
147.195320
 30
0.0
 10
50.275455
 20
147.051690
 30
0.0
  0
SPLINE
  5
12b
100
AcDbEntity
  8
0
 62
1
100
AcDbSpline
 70
8
 71
3
 72
8
 73
4
 74
0
 40
0
 40
0
 40
0
 40
0
 40
1
 40
1
 40
1
 40
1
 10
50.275455
 20
147.051690
 30
0.0
 10
50.954779
 20
146.908010
 30
0.0
 10
51.642906
 20
146.783990
 30
0.0
 10
52.330407
 20
146.686660
 30
0.0
  0
SPLINE
  5
12c
100
AcDbEntity
  8
0
 62
1
100
AcDbSpline
 70
8
 71
3
 72
8
 73
4
 74
0
 40
0
 40
0
 40
0
 40
0
 40
1
 40
1
 40
1
 40
1
 10
52.330407
 20
146.686660
 30
0.0
 10
53.017736
 20
146.589360
 30
0.0
 10
53.705945
 20
146.514110
 30
0.0
 10
54.398875
 20
146.463590
 30
0.0
  0
SPLINE
  5
12d
100
AcDbEntity
  8
0
 62
1
100
AcDbSpline
 70
8
 71
3
 72
8
 73
4
 74
0
 40
0
 40
0
 40
0
 40
0
 40
1
 40
1
 40
1
 40
1
 10
54.398875
 20
146.463590
 30
0.0
 10
55.090865
 20
146.413190
 30
0.0
 10
55.785853
 20
146.385790
 30
0.0
 10
56.480868
 20
146.382490
 30
0.0
  0
SPLINE
  5
12e
100
AcDbEntity
  8
0
 62
1
100
AcDbSpline
 70
8
 71
3
 72
8
 73
4
 74
0
 40
0
 40
0
 40
0
 40
0
 40
1
 40
1
 40
1
 40
1
 10
56.480868
 20
146.382490
 30
0.0
 10
57.174364
 20
146.379490
 30
0.0
 10
57.868888
 20
146.399290
 30
0.0
 10
58.562860
 20
146.443290
 30
0.0
  0
SPLINE
  5
12f
100
AcDbEntity
  8
0
 62
1
100
AcDbSpline
 70
8
 71
3
 72
8
 73
4
 74
0
 40
0
 40
0
 40
0
 40
0
 40
1
 40
1
 40
1
 40
1
 10
58.562860
 20
146.443290
 30
0.0
 10
59.254673
 20
146.487190
 30
0.0
 10
59.948332
 20
146.554680
 30
0.0
 10
60.638088
 20
146.646080
 30
0.0
  0
SPLINE
  5
130
100
AcDbEntity
  8
0
 62
1
100
AcDbSpline
 70
8
 71
3
 72
8
 73
4
 74
0
 40
0
 40
0
 40
0
 40
0
 40
1
 40
1
 40
1
 40
1
 10
60.638088
 20
146.646080
 30
0.0
 10
61.324770
 20
146.737080
 30
0.0
 10
62.004122
 20
146.852320
 30
0.0
 10
62.686281
 20
146.990820
 30
0.0
  0
SPLINE
  5
131
100
AcDbEntity
  8
0
 62
1
100
AcDbSpline
 70
8
 71
3
 72
8
 73
4
 74
0
 40
0
 40
0
 40
0
 40
0
 40
1
 40
1
 40
1
 40
1
 10
62.686281
 20
146.990820
 30
0.0
 10
63.364754
 20
147.128580
 30
0.0
 10
64.042642
 20
147.292320
 30
0.0
 10
64.714200
 20
147.477530
 30
0.0
  0
SPLINE
  5
132
100
AcDbEntity
  8
0
 62
1
100
AcDbSpline
 70
8
 71
3
 72
8
 73
4
 74
0
 40
0
 40
0
 40
0
 40
0
 40
1
 40
1
 40
1
 40
1
 10
64.714200
 20
147.477530
 30
0.0
 10
65.381132
 20
147.661450
 30
0.0
 10
66.043840
 20
147.868270
 30
0.0
 10
66.701554
 20
148.099420
 30
0.0
  0
SPLINE
  5
133
100
AcDbEntity
  8
0
 62
1
100
AcDbSpline
 70
8
 71
3
 72
8
 73
4
 74
0
 40
0
 40
0
 40
0
 40
0
 40
1
 40
1
 40
1
 40
1
 10
66.701554
 20
148.099420
 30
0.0
 10
67.353777
 20
148.328630
 30
0.0
 10
68.000781
 20
148.580440
 30
0.0
 10
68.641585
 20
148.856500
 30
0.0
  0
SPLINE
  5
134
100
AcDbEntity
  8
0
 62
1
100
AcDbSpline
 70
8
 71
3
 72
8
 73
4
 74
0
 40
0
 40
0
 40
0
 40
0
 40
1
 40
1
 40
1
 40
1
 10
68.641585
 20
148.856500
 30
0.0
 10
69.275897
 20
149.129760
 30
0.0
 10
69.906700
 20
149.429230
 30
0.0
 10
70.527549
 20
149.748790
 30
0.0
  0
SPLINE
  5
135
100
AcDbEntity
  8
0
 62
1
100
AcDbSpline
 70
8
 71
3
 72
8
 73
4
 74
0
 40
0
 40
0
 40
0
 40
0
 40
1
 40
1
 40
1
 40
1
 10
70.527549
 20
149.748790
 30
0.0
 10
71.141149
 20
150.064620
 30
0.0
 10
71.747657
 20
150.401300
 30
0.0
 10
72.345908
 20
150.762740
 30
0.0
  0
SPLINE
  5
136
100
AcDbEntity
  8
0
 62
1
100
AcDbSpline
 70
8
 71
3
 72
8
 73
4
 74
0
 40
0
 40
0
 40
0
 40
0
 40
1
 40
1
 40
1
 40
1
 10
72.345908
 20
150.762740
 30
0.0
 10
72.640936
 20
150.940980
 30
0.0
 10
73.518258
 20
151.660920
 30
0.0
 10
74.089918
 20
151.742900
 30
0.0
  0
SPLINE
  5
137
100
AcDbEntity
  8
0
 62
1
100
AcDbSpline
 70
8
 71
3
 72
8
 73
4
 74
0
 40
0
 40
0
 40
0
 40
0
 40
1
 40
1
 40
1
 40
1
 10
74.089918
 20
151.742900
 30
0.0
 10
74.669208
 20
151.826000
 30
0.0
 10
125.273930
 20
152.073350
 30
0.0
 10
125.861020
 20
151.898370
 30
0.0
  0
SPLINE
  5
138
100
AcDbEntity
  8
0
 62
1
100
AcDbSpline
 70
8
 71
3
 72
8
 73
4
 74
0
 40
0
 40
0
 40
0
 40
0
 40
1
 40
1
 40
1
 40
1
 10
126.502520
 20
151.707180
 30
0.0
 10
126.861150
 20
151.600290
 30
0.0
 10
127.588410
 20
151.112420
 30
0.0
 10
128.179610
 20
150.762740
 30
0.0
  0
SPLINE
  5
139
100
AcDbEntity
  8
0
 62
1
100
AcDbSpline
 70
8
 71
3
 72
8
 73
4
 74
0
 40
0
 40
0
 40
0
 40
0
 40
1
 40
1
 40
1
 40
1
 10
128.179610
 20
150.762740
 30
0.0
 10
128.781210
 20
150.406910
 30
0.0
 10
129.384370
 20
150.064620
 30
0.0
 10
129.997970
 20
149.748790
 30
0.0
  0
SPLINE
  5
13a
100
AcDbEntity
  8
0
 62
1
100
AcDbSpline
 70
8
 71
3
 72
8
 73
4
 74
0
 40
0
 40
0
 40
0
 40
0
 40
1
 40
1
 40
1
 40
1
 10
129.997970
 20
149.748790
 30
0.0
 10
130.618810
 20
149.429230
 30
0.0
 10
131.249620
 20
149.129760
 30
0.0
 10
131.883930
 20
148.856500
 30
0.0
  0
SPLINE
  5
13b
100
AcDbEntity
  8
0
 62
1
100
AcDbSpline
 70
8
 71
3
 72
8
 73
4
 74
0
 40
0
 40
0
 40
0
 40
0
 40
1
 40
1
 40
1
 40
1
 10
131.883930
 20
148.856500
 30
0.0
 10
132.524740
 20
148.580440
 30
0.0
 10
133.171730
 20
148.328630
 30
0.0
 10
133.823960
 20
148.099420
 30
0.0
  0
SPLINE
  5
13c
100
AcDbEntity
  8
0
 62
1
100
AcDbSpline
 70
8
 71
3
 72
8
 73
4
 74
0
 40
0
 40
0
 40
0
 40
0
 40
1
 40
1
 40
1
 40
1
 10
133.823960
 20
148.099420
 30
0.0
 10
134.481670
 20
147.868270
 30
0.0
 10
135.144380
 20
147.661450
 30
0.0
 10
135.811320
 20
147.477530
 30
0.0
  0
SPLINE
  5
13d
100
AcDbEntity
  8
0
 62
1
100
AcDbSpline
 70
8
 71
3
 72
8
 73
4
 74
0
 40
0
 40
0
 40
0
 40
0
 40
1
 40
1
 40
1
 40
1
 10
135.811320
 20
147.477530
 30
0.0
 10
136.482880
 20
147.292320
 30
0.0
 10
137.154000
 20
147.128580
 30
0.0
 10
137.832470
 20
146.990820
 30
0.0
  0
SPLINE
  5
13e
100
AcDbEntity
  8
0
 62
1
100
AcDbSpline
 70
8
 71
3
 72
8
 73
4
 74
0
 40
0
 40
0
 40
0
 40
0
 40
1
 40
1
 40
1
 40
1
 10
137.832470
 20
146.990820
 30
0.0
 10
138.514630
 20
146.852320
 30
0.0
 10
139.200740
 20
146.737070
 30
0.0
 10
139.887420
 20
146.646080
 30
0.0
  0
SPLINE
  5
13f
100
AcDbEntity
  8
0
 62
1
100
AcDbSpline
 70
8
 71
3
 72
8
 73
4
 74
0
 40
0
 40
0
 40
0
 40
0
 40
1
 40
1
 40
1
 40
1
 10
139.887420
 20
146.646080
 30
0.0
 10
140.577180
 20
146.554680
 30
0.0
 10
141.270840
 20
146.487180
 30
0.0
 10
141.962650
 20
146.443290
 30
0.0
  0
SPLINE
  5
140
100
AcDbEntity
  8
0
 62
1
100
AcDbSpline
 70
8
 71
3
 72
8
 73
4
 74
0
 40
0
 40
0
 40
0
 40
0
 40
1
 40
1
 40
1
 40
1
 10
141.962650
 20
146.443290
 30
0.0
 10
142.656630
 20
146.399290
 30
0.0
 10
143.351150
 20
146.379090
 30
0.0
 10
144.044650
 20
146.382490
 30
0.0
  0
SPLINE
  5
141
100
AcDbEntity
  8
0
 62
1
100
AcDbSpline
 70
8
 71
3
 72
8
 73
4
 74
0
 40
0
 40
0
 40
0
 40
0
 40
1
 40
1
 40
1
 40
1
 10
144.044650
 20
146.382490
 30
0.0
 10
144.739660
 20
146.385490
 30
0.0
 10
145.434650
 20
146.413190
 30
0.0
 10
146.126630
 20
146.463590
 30
0.0
  0
SPLINE
  5
142
100
AcDbEntity
  8
0
 62
1
100
AcDbSpline
 70
8
 71
3
 72
8
 73
4
 74
0
 40
0
 40
0
 40
0
 40
0
 40
1
 40
1
 40
1
 40
1
 10
146.126630
 20
146.463590
 30
0.0
 10
146.819570
 20
146.514190
 30
0.0
 10
147.507780
 20
146.589360
 30
0.0
 10
148.195110
 20
146.686660
 30
0.0
  0
SPLINE
  5
143
100
AcDbEntity
  8
0
 62
1
100
AcDbSpline
 70
8
 71
3
 72
8
 73
4
 74
0
 40
0
 40
0
 40
0
 40
0
 40
1
 40
1
 40
1
 40
1
 10
148.195110
 20
146.686660
 30
0.0
 10
148.882610
 20
146.783960
 30
0.0
 10
149.563970
 20
146.908010
 30
0.0
 10
150.243300
 20
147.051690
 30
0.0
  0
SPLINE
  5
144
100
AcDbEntity
  8
0
 62
1
100
AcDbSpline
 70
8
 71
3
 72
8
 73
4
 74
0
 40
0
 40
0
 40
0
 40
0
 40
1
 40
1
 40
1
 40
1
 10
150.243300
 20
147.051690
 30
0.0
 10
150.922370
 20
147.195320
 30
0.0
 10
151.602880
 20
147.355640
 30
0.0
 10
152.271210
 20
147.545150
 30
0.0
  0
SPLINE
  5
145
100
AcDbEntity
  8
0
 62
1
100
AcDbSpline
 70
8
 71
3
 72
8
 73
4
 74
0
 40
0
 40
0
 40
0
 40
0
 40
1
 40
1
 40
1
 40
1
 10
152.271210
 20
147.545150
 30
0.0
 10
152.938710
 20
147.734410
 30
0.0
 10
153.597570
 20
147.952750
 30
0.0
 10
154.251810
 20
148.187320
 30
0.0
  0
SPLINE
  5
146
100
AcDbEntity
  8
0
 62
1
100
AcDbSpline
 70
8
 71
3
 72
8
 73
4
 74
0
 40
0
 40
0
 40
0
 40
0
 40
1
 40
1
 40
1
 40
1
 10
154.251810
 20
148.187320
 30
0.0
 10
154.904610
 20
148.421380
 30
0.0
 10
155.548030
 20
148.672450
 30
0.0
 10
156.185080
 20
148.951170
 30
0.0
  0
SPLINE
  5
147
100
AcDbEntity
  8
0
 62
1
100
AcDbSpline
 70
8
 71
3
 72
8
 73
4
 74
0
 40
0
 40
0
 40
0
 40
0
 40
1
 40
1
 40
1
 40
1
 10
156.185080
 20
148.951170
 30
0.0
 10
156.820060
 20
149.228980
 30
0.0
 10
157.447470
 20
149.528470
 30
0.0
 10
158.064280
 20
149.850210
 30
0.0
  0
SPLINE
  5
148
100
AcDbEntity
  8
0
 62
1
100
AcDbSpline
 70
8
 71
3
 72
8
 73
4
 74
0
 40
0
 40
0
 40
0
 40
0
 40
1
 40
1
 40
1
 40
1
 10
158.064280
 20
149.850210
 30
0.0
 10
158.678560
 20
150.170620
 30
0.0
 10
159.282130
 20
150.514150
 30
0.0
 10
159.875890
 20
150.877690
 30
0.0
  0
SPLINE
  5
149
100
AcDbEntity
  8
0
 62
1
100
AcDbSpline
 70
8
 71
3
 72
8
 73
4
 74
0
 40
0
 40
0
 40
0
 40
0
 40
1
 40
1
 40
1
 40
1
 10
159.875890
 20
150.877690
 30
0.0
 10
160.466370
 20
151.239220
 30
0.0
 10
161.045370
 20
151.623080
 30
0.0
 10
161.613130
 20
152.026840
 30
0.0
  0
SPLINE
  5
14a
100
AcDbEntity
  8
0
 62
1
100
AcDbSpline
 70
8
 71
3
 72
8
 73
4
 74
0
 40
0
 40
0
 40
0
 40
0
 40
1
 40
1
 40
1
 40
1
 10
161.613130
 20
152.026840
 30
0.0
 10
162.176930
 20
152.427780
 30
0.0
 10
162.730280
 20
152.848750
 30
0.0
 10
163.269260
 20
153.290900
 30
0.0
  0
SPLINE
  5
14b
100
AcDbEntity
  8
0
 62
1
100
AcDbSpline
 70
8
 71
3
 72
8
 73
4
 74
0
 40
0
 40
0
 40
0
 40
0
 40
1
 40
1
 40
1
 40
1
 10
163.269260
 20
153.290900
 30
0.0
 10
163.803660
 20
153.729290
 30
0.0
 10
164.329860
 20
154.191400
 30
0.0
 10
164.837510
 20
154.669880
 30
0.0
  0
SPLINE
  5
14c
100
AcDbEntity
  8
0
 62
1
100
AcDbSpline
 70
8
 71
3
 72
8
 73
4
 74
0
 40
0
 40
0
 40
0
 40
0
 40
1
 40
1
 40
1
 40
1
 10
164.837510
 20
154.669880
 30
0.0
 10
165.340110
 20
155.143600
 30
0.0
 10
165.823500
 20
155.630880
 30
0.0
 10
166.297610
 20
156.143500
 30
0.0
  0
SPLINE
  5
14d
100
AcDbEntity
  8
0
 62
1
100
AcDbSpline
 70
8
 71
3
 72
8
 73
4
 74
0
 40
0
 40
0
 40
0
 40
0
 40
1
 40
1
 40
1
 40
1
 10
166.297610
 20
156.143500
 30
0.0
 10
166.766200
 20
156.650150
 30
0.0
 10
167.224510
 20
157.181020
 30
0.0
 10
167.663070
 20
157.725270
 30
0.0
  0
SPLINE
  5
14e
100
AcDbEntity
  8
0
 62
1
100
AcDbSpline
 70
8
 71
3
 72
8
 73
4
 74
0
 40
0
 40
0
 40
0
 40
0
 40
1
 40
1
 40
1
 40
1
 10
167.663070
 20
157.725270
 30
0.0
 10
168.095680
 20
158.262130
 30
0.0
 10
168.512330
 20
158.815070
 30
0.0
 10
168.913620
 20
159.388160
 30
0.0
  0
SPLINE
  5
14f
100
AcDbEntity
  8
0
 62
1
100
AcDbSpline
 70
8
 71
3
 72
8
 73
4
 74
0
 40
0
 40
0
 40
0
 40
0
 40
1
 40
1
 40
1
 40
1
 10
168.913620
 20
159.388160
 30
0.0
 10
169.314840
 20
159.961180
 30
0.0
 10
169.692760
 20
160.542100
 30
0.0
 10
170.049250
 20
161.132170
 30
0.0
  0
SPLINE
  5
150
100
AcDbEntity
  8
0
 62
1
100
AcDbSpline
 70
8
 71
3
 72
8
 73
4
 74
0
 40
0
 40
0
 40
0
 40
0
 40
1
 40
1
 40
1
 40
1
 10
170.049250
 20
161.132170
 30
0.0
 10
170.410680
 20
161.730420
 30
0.0
 10
170.747380
 20
162.336920
 30
0.0
 10
171.063210
 20
162.950530
 30
0.0
  0
SPLINE
  5
151
100
AcDbEntity
  8
0
 62
1
100
AcDbSpline
 70
8
 71
3
 72
8
 73
4
 74
0
 40
0
 40
0
 40
0
 40
0
 40
1
 40
1
 40
1
 40
1
 10
171.063210
 20
162.950530
 30
0.0
 10
171.382760
 20
163.571370
 30
0.0
 10
171.682230
 20
164.202180
 30
0.0
 10
171.955490
 20
164.836490
 30
0.0
  0
SPLINE
  5
152
100
AcDbEntity
  8
0
 62
1
100
AcDbSpline
 70
8
 71
3
 72
8
 73
4
 74
0
 40
0
 40
0
 40
0
 40
0
 40
1
 40
1
 40
1
 40
1
 10
171.955490
 20
164.836490
 30
0.0
 10
172.231550
 20
165.477300
 30
0.0
 10
172.483360
 20
166.124300
 30
0.0
 10
172.712580
 20
166.776530
 30
0.0
  0
SPLINE
  5
153
100
AcDbEntity
  8
0
 62
1
100
AcDbSpline
 70
8
 71
3
 72
8
 73
4
 74
0
 40
0
 40
0
 40
0
 40
0
 40
1
 40
1
 40
1
 40
1
 10
172.712580
 20
166.776530
 30
0.0
 10
172.943720
 20
167.434230
 30
0.0
 10
173.150540
 20
168.096940
 30
0.0
 10
173.334470
 20
168.763880
 30
0.0
  0
SPLINE
  5
154
100
AcDbEntity
  8
0
 62
1
100
AcDbSpline
 70
8
 71
3
 72
8
 73
4
 74
0
 40
0
 40
0
 40
0
 40
0
 40
1
 40
1
 40
1
 40
1
 10
173.334470
 20
168.763880
 30
0.0
 10
173.519670
 20
169.435430
 30
0.0
 10
173.683410
 20
170.113320
 30
0.0
 10
173.821170
 20
170.791790
 30
0.0
  0
SPLINE
  5
155
100
AcDbEntity
  8
0
 62
1
100
AcDbSpline
 70
8
 71
3
 72
8
 73
4
 74
0
 40
0
 40
0
 40
0
 40
0
 40
1
 40
1
 40
1
 40
1
 10
173.821170
 20
170.791790
 30
0.0
 10
173.959680
 20
171.473950
 30
0.0
 10
174.074930
 20
172.153300
 30
0.0
 10
174.165910
 20
172.839990
 30
0.0
  0
SPLINE
  5
156
100
AcDbEntity
  8
0
 62
1
100
AcDbSpline
 70
8
 71
3
 72
8
 73
4
 74
0
 40
0
 40
0
 40
0
 40
0
 40
1
 40
1
 40
1
 40
1
 10
174.165910
 20
172.839990
 30
0.0
 10
174.257310
 20
173.529750
 30
0.0
 10
174.324810
 20
174.223400
 30
0.0
 10
174.368710
 20
174.915210
 30
0.0
  0
SPLINE
  5
157
100
AcDbEntity
  8
0
 62
1
100
AcDbSpline
 70
8
 71
3
 72
8
 73
4
 74
0
 40
0
 40
0
 40
0
 40
0
 40
1
 40
1
 40
1
 40
1
 10
174.368710
 20
174.915210
 30
0.0
 10
174.412710
 20
175.609190
 30
0.0
 10
174.432910
 20
176.303710
 30
0.0
 10
174.429510
 20
176.997210
 30
0.0
  0
SPLINE
  5
158
100
AcDbEntity
  8
0
 62
1
100
AcDbSpline
 70
8
 71
3
 72
8
 73
4
 74
0
 40
0
 40
0
 40
0
 40
0
 40
1
 40
1
 40
1
 40
1
 10
174.429510
 20
176.997210
 30
0.0
 10
174.426510
 20
177.692220
 30
0.0
 10
174.398810
 20
178.387210
 30
0.0
 10
174.348410
 20
179.079200
 30
0.0
  0
SPLINE
  5
159
100
AcDbEntity
  8
0
 62
1
100
AcDbSpline
 70
8
 71
3
 72
8
 73
4
 74
0
 40
0
 40
0
 40
0
 40
0
 40
1
 40
1
 40
1
 40
1
 10
174.348410
 20
179.079200
 30
0.0
 10
174.297910
 20
179.772130
 30
0.0
 10
174.222640
 20
180.460340
 30
0.0
 10
174.125340
 20
181.147670
 30
0.0
  0
SPLINE
  5
15a
100
AcDbEntity
  8
0
 62
1
100
AcDbSpline
 70
8
 71
3
 72
8
 73
4
 74
0
 40
0
 40
0
 40
0
 40
0
 40
1
 40
1
 40
1
 40
1
 10
174.125340
 20
181.147670
 30
0.0
 10
174.028040
 20
181.835170
 30
0.0
 10
173.904000
 20
182.523290
 30
0.0
 10
173.760320
 20
183.202620
 30
0.0
  0
SPLINE
  5
15b
100
AcDbEntity
  8
0
 62
1
100
AcDbSpline
 70
8
 71
3
 72
8
 73
4
 74
0
 40
0
 40
0
 40
0
 40
0
 40
1
 40
1
 40
1
 40
1
 10
173.760320
 20
183.202620
 30
0.0
 10
173.616690
 20
183.881680
 30
0.0
 10
173.449600
 20
184.555440
 30
0.0
 10
173.260100
 20
185.223770
 30
0.0
  0
SPLINE
  5
15c
100
AcDbEntity
  8
0
 62
1
100
AcDbSpline
 70
8
 71
3
 72
8
 73
4
 74
0
 40
0
 40
0
 40
0
 40
0
 40
1
 40
1
 40
1
 40
1
 10
173.260100
 20
185.223770
 30
0.0
 10
173.070830
 20
185.891280
 30
0.0
 10
172.859260
 20
186.550130
 30
0.0
 10
172.624680
 20
187.204370
 30
0.0
  0
SPLINE
  5
15d
100
AcDbEntity
  8
0
 62
1
100
AcDbSpline
 70
8
 71
3
 72
8
 73
4
 74
0
 40
0
 40
0
 40
0
 40
0
 40
1
 40
1
 40
1
 40
1
 10
172.624680
 20
187.204370
 30
0.0
 10
172.390620
 20
187.857170
 30
0.0
 10
172.132800
 20
188.500600
 30
0.0
 10
171.854080
 20
189.137650
 30
0.0
  0
SPLINE
  5
15e
100
AcDbEntity
  8
0
 62
1
100
AcDbSpline
 70
8
 71
3
 72
8
 73
4
 74
0
 40
0
 40
0
 40
0
 40
0
 40
1
 40
1
 40
1
 40
1
 10
171.854080
 20
189.137650
 30
0.0
 10
171.576260
 20
189.772630
 30
0.0
 10
171.276780
 20
190.400030
 30
0.0
 10
170.955040
 20
191.016850
 30
0.0
  0
SPLINE
  5
15f
100
AcDbEntity
  8
0
 62
1
100
AcDbSpline
 70
8
 71
3
 72
8
 73
4
 74
0
 40
0
 40
0
 40
0
 40
0
 40
1
 40
1
 40
1
 40
1
 10
170.955040
 20
191.016850
 30
0.0
 10
170.634630
 20
191.631120
 30
0.0
 10
170.297860
 20
192.234690
 30
0.0
 10
169.934320
 20
192.828450
 30
0.0
  0
SPLINE
  5
160
100
AcDbEntity
  8
0
 62
1
100
AcDbSpline
 70
8
 71
3
 72
8
 73
4
 74
0
 40
0
 40
0
 40
0
 40
0
 40
1
 40
1
 40
1
 40
1
 10
169.934320
 20
192.828450
 30
0.0
 10
169.572790
 20
193.418950
 30
0.0
 10
169.188930
 20
194.004700
 30
0.0
 10
168.785170
 20
194.572460
 30
0.0
  0
SPLINE
  5
161
100
AcDbEntity
  8
0
 62
1
100
AcDbSpline
 70
8
 71
3
 72
8
 73
4
 74
0
 40
0
 40
0
 40
0
 40
0
 40
1
 40
1
 40
1
 40
1
 10
168.785170
 20
194.572460
 30
0.0
 10
168.384230
 20
195.136260
 30
0.0
 10
167.963250
 20
195.682840
 30
0.0
 10
167.521110
 20
196.221830
 30
0.0
  0
SPLINE
  5
162
100
AcDbEntity
  8
0
 62
1
100
AcDbSpline
 70
8
 71
3
 72
8
 73
4
 74
0
 40
0
 40
0
 40
0
 40
0
 40
1
 40
1
 40
1
 40
1
 10
167.521110
 20
196.221830
 30
0.0
 10
167.082710
 20
196.756220
 30
0.0
 10
166.620610
 20
197.282419
 30
0.0
 10
166.142130
 20
197.790079
 30
0.0
  0
SPLINE
  5
163
100
AcDbEntity
  8
0
 62
1
100
AcDbSpline
 70
8
 71
3
 72
8
 73
4
 74
0
 40
0
 40
0
 40
0
 40
0
 40
1
 40
1
 40
1
 40
1
 10
166.142130
 20
197.790079
 30
0.0
 10
165.668410
 20
198.292669
 30
0.0
 10
165.174360
 20
198.782829
 30
0.0
 10
164.661740
 20
199.256939
 30
0.0
  0
SPLINE
  5
164
100
AcDbEntity
  8
0
 62
1
100
AcDbSpline
 70
8
 71
3
 72
8
 73
4
 74
0
 40
0
 40
0
 40
0
 40
0
 40
1
 40
1
 40
1
 40
1
 10
164.661740
 20
199.256939
 30
0.0
 10
164.155110
 20
199.725519
 30
0.0
 10
163.630990
 20
200.177069
 30
0.0
 10
163.086740
 20
200.615639
 30
0.0
  0
SPLINE
  5
165
100
AcDbEntity
  8
0
 62
1
100
AcDbSpline
 70
8
 71
3
 72
8
 73
4
 74
0
 40
0
 40
0
 40
0
 40
0
 40
1
 40
1
 40
1
 40
1
 10
163.086740
 20
200.615639
 30
0.0
 10
162.549870
 20
201.048249
 30
0.0
 10
161.996940
 20
201.464899
 30
0.0
 10
161.423850
 20
201.866179
 30
0.0
  0
SPLINE
  5
166
100
AcDbEntity
  8
0
 62
1
100
AcDbSpline
 70
8
 71
3
 72
8
 73
4
 74
0
 40
0
 40
0
 40
0
 40
0
 40
1
 40
1
 40
1
 40
1
 10
161.423850
 20
201.866179
 30
0.0
 10
160.849520
 20
202.268329
 30
0.0
 10
160.273650
 20
202.645129
 30
0.0
 10
159.693360
 20
203.001819
 30
0.0
  0
SPLINE
  5
167
100
AcDbEntity
  8
0
 62
1
100
AcDbSpline
 70
8
 71
3
 72
8
 73
4
 74
0
 40
0
 40
0
 40
0
 40
0
 40
1
 40
1
 40
1
 40
1
 10
159.693360
 20
203.001819
 30
0.0
 10
159.097540
 20
203.368039
 30
0.0
 10
158.492570
 20
203.710379
 30
0.0
 10
157.888520
 20
204.029289
 30
0.0
  0
SPLINE
  5
168
100
AcDbEntity
  8
0
 62
1
100
AcDbSpline
 70
8
 71
3
 72
8
 73
4
 74
0
 40
0
 40
0
 40
0
 40
0
 40
1
 40
1
 40
1
 40
1
 10
157.888520
 20
204.029289
 30
0.0
 10
157.272060
 20
204.354739
 30
0.0
 10
156.656700
 20
204.658259
 30
0.0
 10
156.029600
 20
204.935089
 30
0.0
  0
SPLINE
  5
169
100
AcDbEntity
  8
0
 62
1
100
AcDbSpline
 70
8
 71
3
 72
8
 73
4
 74
0
 40
0
 40
0
 40
0
 40
0
 40
1
 40
1
 40
1
 40
1
 10
156.029600
 20
204.935089
 30
0.0
 10
155.394320
 20
205.215529
 30
0.0
 10
154.751460
 20
205.474469
 30
0.0
 10
154.103070
 20
205.705699
 30
0.0
  0
SPLINE
  5
16a
100
AcDbEntity
  8
0
 62
1
100
AcDbSpline
 70
8
 71
3
 72
8
 73
4
 74
0
 40
0
 40
0
 40
0
 40
0
 40
1
 40
1
 40
1
 40
1
 10
154.103070
 20
205.705699
 30
0.0
 10
153.451880
 20
205.937929
 30
0.0
 10
152.789100
 20
206.144309
 30
0.0
 10
152.122480
 20
206.327589
 30
0.0
  0
SPLINE
  5
16b
100
AcDbEntity
  8
0
 62
1
100
AcDbSpline
 70
8
 71
3
 72
8
 73
4
 74
0
 40
0
 40
0
 40
0
 40
0
 40
1
 40
1
 40
1
 40
1
 10
152.122480
 20
206.327589
 30
0.0
 10
151.458840
 20
206.510059
 30
0.0
 10
150.789210
 20
206.666119
 30
0.0
 10
150.108080
 20
206.800769
 30
0.0
  0
SPLINE
  5
16c
100
AcDbEntity
  8
0
 62
1
100
AcDbSpline
 70
8
 71
3
 72
8
 73
4
 74
0
 40
0
 40
0
 40
0
 40
0
 40
1
 40
1
 40
1
 40
1
 10
150.108080
 20
206.800769
 30
0.0
 10
149.435500
 20
206.933729
 30
0.0
 10
148.751630
 20
207.044999
 30
0.0
 10
148.059890
 20
207.131999
 30
0.0
  0
SPLINE
  5
16d
100
AcDbEntity
  8
0
 62
1
100
AcDbSpline
 70
8
 71
3
 72
8
 73
4
 74
0
 40
0
 40
0
 40
0
 40
0
 40
1
 40
1
 40
1
 40
1
 10
148.059890
 20
207.131999
 30
0.0
 10
147.382130
 20
207.217199
 30
0.0
 10
146.696330
 20
207.279509
 30
0.0
 10
145.998180
 20
207.321269
 30
0.0
  0
SPLINE
  5
16e
100
AcDbEntity
  8
0
 62
1
100
AcDbSpline
 70
8
 71
3
 72
8
 73
4
 74
0
 40
0
 40
0
 40
0
 40
0
 40
1
 40
1
 40
1
 40
1
 10
145.998180
 20
207.321269
 30
0.0
 10
145.391240
 20
207.357569
 30
0.0
 10
139.354350
 20
207.382069
 30
0.0
 10
139.279020
 20
207.382069
 30
0.0
  0
LWPOLYLINE
  5
16f
100
AcDbEntity
  8
0
 62
1
100
AcDbPolyline
 90
2
 70
0
 10
125.861020
 20
151.898370
 30
0.0
 10
126.502520
 20
151.707180
 30
0.0
  0
LWPOLYLINE
  5
170
100
AcDbEntity
  8
0
 62
1
100
AcDbPolyline
 90
1
 70
1
 10
139.279020
 20
207.382069
 30
0.0
  0
ENDSEC
  0
SECTION
  2
OBJECTS
  0
DICTIONARY
  5
C
330
0
100
AcDbDictionary
  3
ACAD_GROUP
350
D
  3
ACAD_MLINESTYLE
350
17
  0
DICTIONARY
  5
D
330
C
100
AcDbDictionary
  0
DICTIONARY
  5
1A
330
C
100
AcDbDictionary
  0
DICTIONARY
  5
17
330
C
100
AcDbDictionary
  3
STANDARD
350
18
  0
DICTIONARY
  5
19
330
C
100
AcDbDictionary
  0
ENDSEC
  0
EOF
