  0
SECTION
  2
HEADER
  9
$ACADVER
  1
AC1009
  9
$INSBASE
 10
0.0
 20
0.0
 30
0.0
  9
$EXTMIN
 10
0.0
 20
0.0
 30
0.0
  9
$EXTMAX
 10
0.0
 20
0.0
 30
0.0
  0
ENDSEC
  0
SECTION
  2
TABLES
  0
TABLE
  2
VPORT
 70
0
  0
ENDTAB
  0
TABLE
  2
LTYPE
 70
1
  0
LTYPE
  2
CONTINUOUS
 70
0
  3
Solid line
 72
65
 73
0
 40
0.0
  0
ENDTAB
  0
TABLE
  2
LAYER
 70
1
  0
LAYER
  2
0
 70
64
 62
7
  6
continuous
  0
ENDTAB
  0
TABLE
  2
STYLE
 70
1
  0
STYLE
  2
STANDARD
 70
0
 40
0
 41
1.0
 50
0.0
 71
0
 42
1
 3
ARIAL.TTF
 4

  0
ENDTAB
  0
TABLE
  2
VIEW
 70
0
  0
ENDTAB
  0
ENDSEC
  0
SECTION
  2
BLOCKS
  0
ENDSEC
  0
SECTION
  2
ENTITIES
  0
POLYLINE
  8
0
 62
0
 70
0
 66
1
 10
0.0
 20
0.0
 30
0.0
  0
VERTEX
  8
0
 10
94.205652
 20
174.83893
 30
0.0
  0
VERTEX
  8
0
 10
94.205652
 20
174.14837
 30
0.0
  0
SEQEND
  8
0
  0
POLYLINE
  8
0
 62
0
 70
0
 66
1
 10
0.0
 20
0.0
 30
0.0
  0
VERTEX
  8
0
 10
126.4954
 20
181.57787
 30
0.0
  0
VERTEX
  8
0
 10
126.63828
 20
181.38737
 30
0.0
  0
SEQEND
  8
0
  0
POLYLINE
  8
0
 62
0
 70
0
 66
1
 10
0.0
 20
0.0
 30
0.0
  0
VERTEX
  8
0
 10
124.06653
 20
180.12531
 30
0.0
  0
VERTEX
  8
0
 10
123.80459
 20
180.43487
 30
0.0
  0
SEQEND
  8
0
  0
POLYLINE
  8
0
 62
0
 70
0
 66
1
 10
0.0
 20
0.0
 30
0.0
  0
VERTEX
  8
0
 10
135.09171
 20
171.00512
 30
0.0
  0
VERTEX
  8
0
 10
135.21078
 20
170.79081
 30
0.0
  0
SEQEND
  8
0
  0
POLYLINE
  8
0
 62
0
 70
0
 66
1
 10
0.0
 20
0.0
 30
0.0
  0
VERTEX
  8
0
 10
133.99634
 20
170.29075
 30
0.0
  0
VERTEX
  8
0
 10
133.87728
 20
170.50506
 30
0.0
  0
SEQEND
  8
0
  0
POLYLINE
  8
0
 62
0
 70
0
 66
1
 10
0.0
 20
0.0
 30
0.0
  0
VERTEX
  8
0
 10
126.04296
 20
182.74468
 30
0.0
  0
VERTEX
  8
0
 10
126.35253
 20
182.48275
 30
0.0
  0
SEQEND
  8
0
  0
POLYLINE
  8
0
 62
0
 70
0
 66
1
 10
0.0
 20
0.0
 30
0.0
  0
VERTEX
  8
0
 10
111.1125
 20
180.62537
 30
0.0
  0
VERTEX
  8
0
 10
107.61206
 20
177.83931
 30
0.0
  0
SEQEND
  8
0
  0
POLYLINE
  8
0
 62
0
 70
0
 66
1
 10
0.0
 20
0.0
 30
0.0
  0
VERTEX
  8
0
 10
115.73215
 20
172.74344
 30
0.0
  0
VERTEX
  8
0
 10
116.06553
 20
172.4815
 30
0.0
  0
SEQEND
  8
0
  0
POLYLINE
  8
0
 62
0
 70
0
 66
1
 10
0.0
 20
0.0
 30
0.0
  0
VERTEX
  8
0
 10
113.87478
 20
170.14787
 30
0.0
  0
VERTEX
  8
0
 10
113.51759
 20
170.36219
 30
0.0
  0
SEQEND
  8
0
  0
POLYLINE
  8
0
 62
0
 70
0
 66
1
 10
0.0
 20
0.0
 30
0.0
  0
VERTEX
  8
0
 10
115.70834
 20
171.148
 30
0.0
  0
VERTEX
  8
0
 10
115.87503
 20
170.93369
 30
0.0
  0
SEQEND
  8
0
  0
POLYLINE
  8
0
 62
0
 70
0
 66
1
 10
0.0
 20
0.0
 30
0.0
  0
VERTEX
  8
0
 10
112.27931
 20
178.50606
 30
0.0
  0
VERTEX
  8
0
 10
112.42218
 20
179.62525
 30
0.0
  0
SEQEND
  8
0
  0
POLYLINE
  8
0
 62
0
 70
0
 66
1
 10
0.0
 20
0.0
 30
0.0
  0
VERTEX
  8
0
 10
121.54248
 20
185.12593
 30
0.0
  0
VERTEX
  8
0
 10
120.13754
 20
185.50693
 30
0.0
  0
SEQEND
  8
0
  0
POLYLINE
  8
0
 62
0
 70
0
 66
1
 10
0.0
 20
0.0
 30
0.0
  0
VERTEX
  8
0
 10
116.27989
 20
176.55343
 30
0.0
  0
VERTEX
  8
0
 10
116.0179
 20
176.55344
 30
0.0
  0
SEQEND
  8
0
  0
POLYLINE
  8
0
 62
0
 70
0
 66
1
 10
0.0
 20
0.0
 30
0.0
  0
VERTEX
  8
0
 10
125.9478
 20
173.48167
 30
0.0
  0
VERTEX
  8
0
 10
127.61467
 20
173.95792
 30
0.0
  0
SEQEND
  8
0
  0
POLYLINE
  8
0
 62
0
 70
0
 66
1
 10
0.0
 20
0.0
 30
0.0
  0
VERTEX
  8
0
 10
115.77983
 20
180.38725
 30
0.0
  0
VERTEX
  8
0
 10
116.01795
 20
180.41105
 30
0.0
  0
SEQEND
  8
0
  0
POLYLINE
  8
0
 62
0
 70
0
 66
1
 10
0.0
 20
0.0
 30
0.0
  0
VERTEX
  8
0
 10
116.82761
 20
179.76812
 30
0.0
  0
VERTEX
  8
0
 10
116.75621
 20
181.00637
 30
0.0
  0
VERTEX
  8
0
 10
117.16103
 20
181.03017
 30
0.0
  0
VERTEX
  8
0
 10
117.23243
 20
179.79192
 30
0.0
  0
SEQEND
  8
0
  0
POLYLINE
  8
0
 62
0
 70
0
 66
1
 10
0.0
 20
0.0
 30
0.0
  0
VERTEX
  8
0
 10
117.42289
 20
175.88667
 30
0.0
  0
VERTEX
  8
0
 10
116.99421
 20
175.88669
 30
0.0
  0
SEQEND
  8
0
  0
POLYLINE
  8
0
 62
0
 70
0
 66
1
 10
0.0
 20
0.0
 30
0.0
  0
VERTEX
  8
0
 10
116.87523
 20
185.95937
 30
0.0
  0
VERTEX
  8
0
 10
116.87523
 20
187.95962
 30
0.0
  0
SEQEND
  8
0
  0
POLYLINE
  8
0
 62
0
 70
0
 66
1
 10
0.0
 20
0.0
 30
0.0
  0
VERTEX
  8
0
 10
124.0905
 20
184.26868
 30
0.0
  0
VERTEX
  8
0
 10
122.68556
 20
184.62587
 30
0.0
  0
VERTEX
  8
0
 10
122.72126
 20
184.76875
 30
0.0
  0
SEQEND
  8
0
  0
POLYLINE
  8
0
 62
0
 70
0
 66
1
 10
0.0
 20
0.0
 30
0.0
  0
VERTEX
  8
0
 10
124.87615
 20
179.79193
 30
0.0
  0
VERTEX
  8
0
 10
124.70946
 20
179.98243
 30
0.0
  0
SEQEND
  8
0
  0
POLYLINE
  8
0
 62
0
 70
0
 66
1
 10
0.0
 20
0.0
 30
0.0
  0
VERTEX
  8
0
 10
95.729652
 20
186.1975
 30
0.0
  0
VERTEX
  8
0
 10
93.443652
 20
181.76837
 30
0.0
  0
SEQEND
  8
0
  0
POLYLINE
  8
0
 62
0
 70
0
 66
1
 10
0.0
 20
0.0
 30
0.0
  0
VERTEX
  8
0
 10
93.443652
 20
181.76837
 30
0.0
  0
VERTEX
  8
0
 10
92.681652
 20
182.13747
 30
0.0
  0
SEQEND
  8
0
  0
POLYLINE
  8
0
 62
0
 70
0
 66
1
 10
0.0
 20
0.0
 30
0.0
  0
VERTEX
  8
0
 10
92.681652
 20
182.13747
 30
0.0
  0
VERTEX
  8
0
 10
92.253027
 20
182.33987
 30
0.0
  0
SEQEND
  8
0
  0
POLYLINE
  8
0
 62
0
 70
0
 66
1
 10
0.0
 20
0.0
 30
0.0
  0
VERTEX
  8
0
 10
92.253027
 20
182.33987
 30
0.0
  0
VERTEX
  8
0
 10
92.634027
 20
183.38762
 30
0.0
  0
SEQEND
  8
0
  0
POLYLINE
  8
0
 62
0
 70
0
 66
1
 10
0.0
 20
0.0
 30
0.0
  0
VERTEX
  8
0
 10
92.634027
 20
183.38762
 30
0.0
  0
VERTEX
  8
0
 10
93.062652
 20
184.55443
 30
0.0
  0
SEQEND
  8
0
  0
POLYLINE
  8
0
 62
0
 70
0
 66
1
 10
0.0
 20
0.0
 30
0.0
  0
VERTEX
  8
0
 10
93.062652
 20
184.55443
 30
0.0
  0
VERTEX
  8
0
 10
91.133839
 20
185.28072
 30
0.0
  0
SEQEND
  8
0
  0
POLYLINE
  8
0
 62
0
 70
0
 66
1
 10
0.0
 20
0.0
 30
0.0
  0
VERTEX
  8
0
 10
91.133839
 20
185.28072
 30
0.0
  0
VERTEX
  8
0
 10
90.181339
 20
185.60218
 30
0.0
  0
SEQEND
  8
0
  0
POLYLINE
  8
0
 62
0
 70
0
 66
1
 10
0.0
 20
0.0
 30
0.0
  0
VERTEX
  8
0
 10
90.181339
 20
185.60218
 30
0.0
  0
VERTEX
  8
0
 10
89.538402
 20
184.44728
 30
0.0
  0
SEQEND
  8
0
  0
POLYLINE
  8
0
 62
0
 70
0
 66
1
 10
0.0
 20
0.0
 30
0.0
  0
VERTEX
  8
0
 10
89.538402
 20
184.44728
 30
0.0
  0
VERTEX
  8
0
 10
88.776402
 20
182.88756
 30
0.0
  0
SEQEND
  8
0
  0
POLYLINE
  8
0
 62
0
 70
0
 66
1
 10
0.0
 20
0.0
 30
0.0
  0
VERTEX
  8
0
 10
88.776402
 20
182.88756
 30
0.0
  0
VERTEX
  8
0
 10
89.419339
 20
181.14925
 30
0.0
  0
SEQEND
  8
0
  0
POLYLINE
  8
0
 62
0
 70
0
 66
1
 10
0.0
 20
0.0
 30
0.0
  0
VERTEX
  8
0
 10
89.419339
 20
181.14925
 30
0.0
  0
VERTEX
  8
0
 10
92.586402
 20
179.43475
 30
0.0
  0
SEQEND
  8
0
  0
POLYLINE
  8
0
 62
0
 70
0
 66
1
 10
0.0
 20
0.0
 30
0.0
  0
VERTEX
  8
0
 10
92.586402
 20
179.43475
 30
0.0
  0
VERTEX
  8
0
 10
94.110402
 20
178.62512
 30
0.0
  0
SEQEND
  8
0
  0
POLYLINE
  8
0
 62
0
 70
0
 66
1
 10
0.0
 20
0.0
 30
0.0
  0
VERTEX
  8
0
 10
94.110402
 20
178.62512
 30
0.0
  0
VERTEX
  8
0
 10
94.181842
 20
176.42247
 30
0.0
  0
SEQEND
  8
0
  0
POLYLINE
  8
0
 62
0
 70
0
 66
1
 10
0.0
 20
0.0
 30
0.0
  0
VERTEX
  8
0
 10
94.181842
 20
176.42247
 30
0.0
  0
VERTEX
  8
0
 10
94.205652
 20
174.83893
 30
0.0
  0
SEQEND
  8
0
  0
POLYLINE
  8
0
 62
0
 70
0
 66
1
 10
0.0
 20
0.0
 30
0.0
  0
VERTEX
  8
0
 10
94.205652
 20
174.14837
 30
0.0
  0
VERTEX
  8
0
 10
92.455432
 20
173.08872
 30
0.0
  0
SEQEND
  8
0
  0
POLYLINE
  8
0
 62
0
 70
0
 66
1
 10
0.0
 20
0.0
 30
0.0
  0
VERTEX
  8
0
 10
92.455432
 20
173.08872
 30
0.0
  0
VERTEX
  8
0
 10
90.848088
 20
172.1005
 30
0.0
  0
SEQEND
  8
0
  0
POLYLINE
  8
0
 62
0
 70
0
 66
1
 10
0.0
 20
0.0
 30
0.0
  0
VERTEX
  8
0
 10
90.848088
 20
172.1005
 30
0.0
  0
VERTEX
  8
0
 10
89.645557
 20
173.04109
 30
0.0
  0
SEQEND
  8
0
  0
POLYLINE
  8
0
 62
0
 70
0
 66
1
 10
0.0
 20
0.0
 30
0.0
  0
VERTEX
  8
0
 10
89.645557
 20
173.04109
 30
0.0
  0
VERTEX
  8
0
 10
88.395401
 20
174.12456
 30
0.0
  0
SEQEND
  8
0
  0
POLYLINE
  8
0
 62
0
 70
0
 66
1
 10
0.0
 20
0.0
 30
0.0
  0
VERTEX
  8
0
 10
88.395401
 20
174.12456
 30
0.0
  0
VERTEX
  8
0
 10
87.990588
 20
172.60056
 30
0.0
  0
SEQEND
  8
0
  0
POLYLINE
  8
0
 62
0
 70
0
 66
1
 10
0.0
 20
0.0
 30
0.0
  0
VERTEX
  8
0
 10
87.990588
 20
172.60056
 30
0.0
  0
VERTEX
  8
0
 10
87.514338
 20
171.00512
 30
0.0
  0
SEQEND
  8
0
  0
POLYLINE
  8
0
 62
0
 70
0
 66
1
 10
0.0
 20
0.0
 30
0.0
  0
VERTEX
  8
0
 10
87.514338
 20
171.00512
 30
0.0
  0
VERTEX
  8
0
 10
86.823776
 20
171.529
 30
0.0
  0
SEQEND
  8
0
  0
POLYLINE
  8
0
 62
0
 70
0
 66
1
 10
0.0
 20
0.0
 30
0.0
  0
VERTEX
  8
0
 10
86.823776
 20
171.529
 30
0.0
  0
VERTEX
  8
0
 10
86.252276
 20
172.02906
 30
0.0
  0
SEQEND
  8
0
  0
POLYLINE
  8
0
 62
0
 70
0
 66
1
 10
0.0
 20
0.0
 30
0.0
  0
VERTEX
  8
0
 10
86.252276
 20
172.02906
 30
0.0
  0
VERTEX
  8
0
 10
86.978557
 20
174.82703
 30
0.0
  0
SEQEND
  8
0
  0
POLYLINE
  8
0
 62
0
 70
0
 66
1
 10
0.0
 20
0.0
 30
0.0
  0
VERTEX
  8
0
 10
86.978557
 20
174.82703
 30
0.0
  0
VERTEX
  8
0
 10
87.847713
 20
177.74406
 30
0.0
  0
SEQEND
  8
0
  0
POLYLINE
  8
0
 62
0
 70
0
 66
1
 10
0.0
 20
0.0
 30
0.0
  0
VERTEX
  8
0
 10
87.847713
 20
177.74406
 30
0.0
  0
VERTEX
  8
0
 10
88.609713
 20
177.30353
 30
0.0
  0
SEQEND
  8
0
  0
POLYLINE
  8
0
 62
0
 70
0
 66
1
 10
0.0
 20
0.0
 30
0.0
  0
VERTEX
  8
0
 10
88.609713
 20
177.30353
 30
0.0
  0
VERTEX
  8
0
 10
89.109776
 20
177.00587
 30
0.0
  0
SEQEND
  8
0
  0
POLYLINE
  8
0
 62
0
 70
0
 66
1
 10
0.0
 20
0.0
 30
0.0
  0
VERTEX
  8
0
 10
89.109776
 20
177.00587
 30
0.0
  0
VERTEX
  8
0
 10
88.990713
 20
176.4939
 30
0.0
  0
SEQEND
  8
0
  0
POLYLINE
  8
0
 62
0
 70
0
 66
1
 10
0.0
 20
0.0
 30
0.0
  0
VERTEX
  8
0
 10
88.990713
 20
176.4939
 30
0.0
  0
VERTEX
  8
0
 10
88.847838
 20
175.98194
 30
0.0
  0
SEQEND
  8
0
  0
POLYLINE
  8
0
 62
0
 70
0
 66
1
 10
0.0
 20
0.0
 30
0.0
  0
VERTEX
  8
0
 10
88.847838
 20
175.98194
 30
0.0
  0
VERTEX
  8
0
 10
89.788432
 20
174.79131
 30
0.0
  0
SEQEND
  8
0
  0
POLYLINE
  8
0
 62
0
 70
0
 66
1
 10
0.0
 20
0.0
 30
0.0
  0
VERTEX
  8
0
 10
89.788432
 20
174.79131
 30
0.0
  0
VERTEX
  8
0
 10
90.419463
 20
174.0055
 30
0.0
  0
SEQEND
  8
0
  0
POLYLINE
  8
0
 62
0
 70
0
 66
1
 10
0.0
 20
0.0
 30
0.0
  0
VERTEX
  8
0
 10
90.419463
 20
174.0055
 30
0.0
  0
VERTEX
  8
0
 10
91.800588
 20
174.66034
 30
0.0
  0
SEQEND
  8
0
  0
POLYLINE
  8
0
 62
0
 70
0
 66
1
 10
0.0
 20
0.0
 30
0.0
  0
VERTEX
  8
0
 10
91.800588
 20
174.66034
 30
0.0
  0
VERTEX
  8
0
 10
92.610213
 20
175.07706
 30
0.0
  0
SEQEND
  8
0
  0
POLYLINE
  8
0
 62
0
 70
0
 66
1
 10
0.0
 20
0.0
 30
0.0
  0
VERTEX
  8
0
 10
92.610213
 20
175.07706
 30
0.0
  0
VERTEX
  8
0
 10
92.622123
 20
175.63665
 30
0.0
  0
SEQEND
  8
0
  0
POLYLINE
  8
0
 62
0
 70
0
 66
1
 10
0.0
 20
0.0
 30
0.0
  0
VERTEX
  8
0
 10
92.622123
 20
175.63665
 30
0.0
  0
VERTEX
  8
0
 10
92.634033
 20
176.17244
 30
0.0
  0
SEQEND
  8
0
  0
POLYLINE
  8
0
 62
0
 70
0
 66
1
 10
0.0
 20
0.0
 30
0.0
  0
VERTEX
  8
0
 10
92.634033
 20
176.17244
 30
0.0
  0
VERTEX
  8
0
 10
92.622123
 20
176.88681
 30
0.0
  0
SEQEND
  8
0
  0
POLYLINE
  8
0
 62
0
 70
0
 66
1
 10
0.0
 20
0.0
 30
0.0
  0
VERTEX
  8
0
 10
92.622123
 20
176.88681
 30
0.0
  0
VERTEX
  8
0
 10
92.586403
 20
177.52975
 30
0.0
  0
SEQEND
  8
0
  0
POLYLINE
  8
0
 62
0
 70
0
 66
1
 10
0.0
 20
0.0
 30
0.0
  0
VERTEX
  8
0
 10
92.586403
 20
177.52975
 30
0.0
  0
VERTEX
  8
0
 10
90.062278
 20
178.7799
 30
0.0
  0
SEQEND
  8
0
  0
POLYLINE
  8
0
 62
0
 70
0
 66
1
 10
0.0
 20
0.0
 30
0.0
  0
VERTEX
  8
0
 10
90.062278
 20
178.7799
 30
0.0
  0
VERTEX
  8
0
 10
88.204903
 20
179.74431
 30
0.0
  0
SEQEND
  8
0
  0
POLYLINE
  8
0
 62
0
 70
0
 66
1
 10
0.0
 20
0.0
 30
0.0
  0
VERTEX
  8
0
 10
88.204903
 20
179.74431
 30
0.0
  0
VERTEX
  8
0
 10
87.407184
 20
181.87553
 30
0.0
  0
SEQEND
  8
0
  0
POLYLINE
  8
0
 62
0
 70
0
 66
1
 10
0.0
 20
0.0
 30
0.0
  0
VERTEX
  8
0
 10
87.407184
 20
181.87553
 30
0.0
  0
VERTEX
  8
0
 10
87.014278
 20
182.93518
 30
0.0
  0
SEQEND
  8
0
  0
POLYLINE
  8
0
 62
0
 70
0
 66
1
 10
0.0
 20
0.0
 30
0.0
  0
VERTEX
  8
0
 10
87.014278
 20
182.93518
 30
0.0
  0
VERTEX
  8
0
 10
88.038215
 20
185.07831
 30
0.0
  0
SEQEND
  8
0
  0
POLYLINE
  8
0
 62
0
 70
0
 66
1
 10
0.0
 20
0.0
 30
0.0
  0
VERTEX
  8
0
 10
88.038215
 20
185.07831
 30
0.0
  0
VERTEX
  8
0
 10
89.871778
 20
187.50718
 30
0.0
  0
SEQEND
  8
0
  0
POLYLINE
  8
0
 62
0
 70
0
 66
1
 10
0.0
 20
0.0
 30
0.0
  0
VERTEX
  8
0
 10
89.871778
 20
187.50718
 30
0.0
  0
VERTEX
  8
0
 10
91.764871
 20
186.84043
 30
0.0
  0
SEQEND
  8
0
  0
POLYLINE
  8
0
 62
0
 70
0
 66
1
 10
0.0
 20
0.0
 30
0.0
  0
VERTEX
  8
0
 10
91.764871
 20
186.84043
 30
0.0
  0
VERTEX
  8
0
 10
93.753215
 20
186.12606
 30
0.0
  0
SEQEND
  8
0
  0
POLYLINE
  8
0
 62
0
 70
0
 66
1
 10
0.0
 20
0.0
 30
0.0
  0
VERTEX
  8
0
 10
93.753215
 20
186.12606
 30
0.0
  0
VERTEX
  8
0
 10
94.169934
 20
186.73328
 30
0.0
  0
SEQEND
  8
0
  0
POLYLINE
  8
0
 62
0
 70
0
 66
1
 10
0.0
 20
0.0
 30
0.0
  0
VERTEX
  8
0
 10
94.169934
 20
186.73328
 30
0.0
  0
VERTEX
  8
0
 10
94.56284
 20
187.31668
 30
0.0
  0
SEQEND
  8
0
  0
POLYLINE
  8
0
 62
0
 70
0
 66
1
 10
0.0
 20
0.0
 30
0.0
  0
VERTEX
  8
0
 10
94.56284
 20
187.31668
 30
0.0
  0
VERTEX
  8
0
 10
95.277215
 20
186.64993
 30
0.0
  0
SEQEND
  8
0
  0
POLYLINE
  8
0
 62
0
 70
0
 66
1
 10
0.0
 20
0.0
 30
0.0
  0
VERTEX
  8
0
 10
95.277215
 20
186.64993
 30
0.0
  0
VERTEX
  8
0
 10
95.729653
 20
186.1975
 30
0.0
  0
SEQEND
  8
0
  0
POLYLINE
  8
0
 62
0
 70
0
 66
1
 10
0.0
 20
0.0
 30
0.0
  0
VERTEX
  8
0
 10
96.396402
 20
184.91162
 30
0.0
  0
VERTEX
  8
0
 10
94.539027
 20
181.19687
 30
0.0
  0
SEQEND
  8
0
  0
POLYLINE
  8
0
 62
0
 70
0
 66
1
 10
0.0
 20
0.0
 30
0.0
  0
VERTEX
  8
0
 10
94.158027
 20
181.38737
 30
0.0
  0
VERTEX
  8
0
 10
95.348652
 20
183.86387
 30
0.0
  0
SEQEND
  8
0
  0
POLYLINE
  8
0
 62
0
 70
0
 66
1
 10
0.0
 20
0.0
 30
0.0
  0
VERTEX
  8
0
 10
95.348652
 20
183.86387
 30
0.0
  0
VERTEX
  8
0
 10
96.063027
 20
185.17356
 30
0.0
  0
SEQEND
  8
0
  0
POLYLINE
  8
0
 62
0
 70
0
 66
1
 10
0.0
 20
0.0
 30
0.0
  0
VERTEX
  8
0
 10
96.682152
 20
183.69718
 30
0.0
  0
VERTEX
  8
0
 10
96.134464
 20
182.56609
 30
0.0
  0
SEQEND
  8
0
  0
POLYLINE
  8
0
 62
0
 70
0
 66
1
 10
0.0
 20
0.0
 30
0.0
  0
VERTEX
  8
0
 10
96.134464
 20
182.56609
 30
0.0
  0
VERTEX
  8
0
 10
95.705839
 20
181.6255
 30
0.0
  0
SEQEND
  8
0
  0
POLYLINE
  8
0
 62
0
 70
0
 66
1
 10
0.0
 20
0.0
 30
0.0
  0
VERTEX
  8
0
 10
95.491527
 20
181.7207
 30
0.0
  0
VERTEX
  8
0
 10
95.920152
 20
182.6732
 30
0.0
  0
SEQEND
  8
0
  0
POLYLINE
  8
0
 62
0
 70
0
 66
1
 10
0.0
 20
0.0
 30
0.0
  0
VERTEX
  8
0
 10
95.920152
 20
182.6732
 30
0.0
  0
VERTEX
  8
0
 10
96.467839
 20
183.8162
 30
0.0
  0
SEQEND
  8
0
  0
POLYLINE
  8
0
 62
0
 70
0
 66
1
 10
0.0
 20
0.0
 30
0.0
  0
VERTEX
  8
0
 10
98.087089
 20
170.48125
 30
0.0
  0
VERTEX
  8
0
 10
95.491527
 20
171.88619
 30
0.0
  0
SEQEND
  8
0
  0
POLYLINE
  8
0
 62
0
 70
0
 66
1
 10
0.0
 20
0.0
 30
0.0
  0
VERTEX
  8
0
 10
95.634402
 20
172.1005
 30
0.0
  0
VERTEX
  8
0
 10
96.908371
 20
171.37422
 30
0.0
  0
SEQEND
  8
0
  0
POLYLINE
  8
0
 62
0
 70
0
 66
1
 10
0.0
 20
0.0
 30
0.0
  0
VERTEX
  8
0
 10
96.908371
 20
171.37422
 30
0.0
  0
VERTEX
  8
0
 10
98.182339
 20
170.69556
 30
0.0
  0
SEQEND
  8
0
  0
POLYLINE
  8
0
 62
0
 70
0
 66
1
 10
0.0
 20
0.0
 30
0.0
  0
VERTEX
  8
0
 10
99.301527
 20
170.9575
 30
0.0
  0
VERTEX
  8
0
 10
97.729902
 20
171.75522
 30
0.0
  0
SEQEND
  8
0
  0
POLYLINE
  8
0
 62
0
 70
0
 66
1
 10
0.0
 20
0.0
 30
0.0
  0
VERTEX
  8
0
 10
97.729902
 20
171.75522
 30
0.0
  0
VERTEX
  8
0
 10
95.801089
 20
172.76725
 30
0.0
  0
SEQEND
  8
0
  0
POLYLINE
  8
0
 62
0
 70
0
 66
1
 10
0.0
 20
0.0
 30
0.0
  0
VERTEX
  8
0
 10
96.039214
 20
173.12444
 30
0.0
  0
VERTEX
  8
0
 10
97.467964
 20
172.36244
 30
0.0
  0
SEQEND
  8
0
  0
POLYLINE
  8
0
 62
0
 70
0
 66
1
 10
0.0
 20
0.0
 30
0.0
  0
VERTEX
  8
0
 10
97.467964
 20
172.36244
 30
0.0
  0
VERTEX
  8
0
 10
99.515839
 20
171.31469
 30
0.0
  0
SEQEND
  8
0
  0
POLYLINE
  8
0
 62
0
 70
0
 66
1
 10
0.0
 20
0.0
 30
0.0
  0
VERTEX
  8
0
 10
105.23084
 20
171.91
 30
0.0
  0
VERTEX
  8
0
 10
103.2544
 20
171.45756
 30
0.0
  0
SEQEND
  8
0
  0
POLYLINE
  8
0
 62
0
 70
0
 66
1
 10
0.0
 20
0.0
 30
0.0
  0
VERTEX
  8
0
 10
103.2544
 20
171.45756
 30
0.0
  0
VERTEX
  8
0
 10
101.39703
 20
170.9575
 30
0.0
  0
SEQEND
  8
0
  0
POLYLINE
  8
0
 62
0
 70
0
 66
1
 10
0.0
 20
0.0
 30
0.0
  0
VERTEX
  8
0
 10
101.39703
 20
170.9575
 30
0.0
  0
VERTEX
  8
0
 10
101.23034
 20
171.56472
 30
0.0
  0
SEQEND
  8
0
  0
POLYLINE
  8
0
 62
0
 70
0
 66
1
 10
0.0
 20
0.0
 30
0.0
  0
VERTEX
  8
0
 10
101.23034
 20
171.56472
 30
0.0
  0
VERTEX
  8
0
 10
101.01603
 20
172.33862
 30
0.0
  0
SEQEND
  8
0
  0
POLYLINE
  8
0
 62
0
 70
0
 66
1
 10
0.0
 20
0.0
 30
0.0
  0
VERTEX
  8
0
 10
101.01603
 20
172.33862
 30
0.0
  0
VERTEX
  8
0
 10
102.20665
 20
172.98156
 30
0.0
  0
SEQEND
  8
0
  0
POLYLINE
  8
0
 62
0
 70
0
 66
1
 10
0.0
 20
0.0
 30
0.0
  0
VERTEX
  8
0
 10
102.20665
 20
172.98156
 30
0.0
  0
VERTEX
  8
0
 10
102.5281225
 20
175.80929125
 30
0.0
  0
VERTEX
  8
0
 10
102.77815
 20
178.81562
 30
0.0
  0
SEQEND
  8
0
  0
POLYLINE
  8
0
 62
0
 70
0
 66
1
 10
0.0
 20
0.0
 30
0.0
  0
VERTEX
  8
0
 10
102.77815
 20
178.81562
 30
0.0
  0
VERTEX
  8
0
 10
101.51609
 20
180.36343
 30
0.0
  0
SEQEND
  8
0
  0
POLYLINE
  8
0
 62
0
 70
0
 66
1
 10
0.0
 20
0.0
 30
0.0
  0
VERTEX
  8
0
 10
101.51609
 20
180.36343
 30
0.0
  0
VERTEX
  8
0
 10
100.56359
 20
179.74431
 30
0.0
  0
SEQEND
  8
0
  0
POLYLINE
  8
0
 62
0
 70
0
 66
1
 10
0.0
 20
0.0
 30
0.0
  0
VERTEX
  8
0
 10
100.56359
 20
179.74431
 30
0.0
  0
VERTEX
  8
0
 10
100.06353
 20
179.36331
 30
0.0
  0
SEQEND
  8
0
  0
POLYLINE
  8
0
 62
0
 70
0
 66
1
 10
0.0
 20
0.0
 30
0.0
  0
VERTEX
  8
0
 10
100.06353
 20
179.36331
 30
0.0
  0
VERTEX
  8
0
 10
99.920652
 20
176.6725
 30
0.0
  0
SEQEND
  8
0
  0
POLYLINE
  8
0
 62
0
 70
0
 66
1
 10
0.0
 20
0.0
 30
0.0
  0
VERTEX
  8
0
 10
99.920652
 20
176.6725
 30
0.0
  0
VERTEX
  8
0
 10
99.682527
 20
173.98169
 30
0.0
  0
SEQEND
  8
0
  0
POLYLINE
  8
0
 62
0
 70
0
 66
1
 10
0.0
 20
0.0
 30
0.0
  0
VERTEX
  8
0
 10
99.682527
 20
173.98169
 30
0.0
  0
VERTEX
  8
0
 10
100.27784
 20
173.56497
 30
0.0
  0
SEQEND
  8
0
  0
POLYLINE
  8
0
 62
0
 70
0
 66
1
 10
0.0
 20
0.0
 30
0.0
  0
VERTEX
  8
0
 10
100.27784
 20
173.56497
 30
0.0
  0
VERTEX
  8
0
 10
100.63503
 20
173.36256
 30
0.0
  0
SEQEND
  8
0
  0
POLYLINE
  8
0
 62
0
 70
0
 66
1
 10
0.0
 20
0.0
 30
0.0
  0
VERTEX
  8
0
 10
100.63503
 20
173.36256
 30
0.0
  0
VERTEX
  8
0
 10
100.33737
 20
172.6839
 30
0.0
  0
SEQEND
  8
0
  0
POLYLINE
  8
0
 62
0
 70
0
 66
1
 10
0.0
 20
0.0
 30
0.0
  0
VERTEX
  8
0
 10
100.33737
 20
172.6839
 30
0.0
  0
VERTEX
  8
0
 10
100.08734
 20
171.98144
 30
0.0
  0
SEQEND
  8
0
  0
POLYLINE
  8
0
 62
0
 70
0
 66
1
 10
0.0
 20
0.0
 30
0.0
  0
VERTEX
  8
0
 10
100.08734
 20
171.98144
 30
0.0
  0
VERTEX
  8
0
 10
97.837058
 20
173.01728
 30
0.0
  0
SEQEND
  8
0
  0
POLYLINE
  8
0
 62
0
 70
0
 66
1
 10
0.0
 20
0.0
 30
0.0
  0
VERTEX
  8
0
 10
97.837058
 20
173.01728
 30
0.0
  0
VERTEX
  8
0
 10
96.063027
 20
173.91025
 30
0.0
  0
SEQEND
  8
0
  0
POLYLINE
  8
0
 62
0
 70
0
 66
1
 10
0.0
 20
0.0
 30
0.0
  0
VERTEX
  8
0
 10
96.063027
 20
173.91025
 30
0.0
  0
VERTEX
  8
0
 10
96.455933
 20
174.86275
 30
0.0
  0
SEQEND
  8
0
  0
POLYLINE
  8
0
 62
0
 70
0
 66
1
 10
0.0
 20
0.0
 30
0.0
  0
VERTEX
  8
0
 10
96.455933
 20
174.86275
 30
0.0
  0
VERTEX
  8
0
 10
96.682152
 20
175.339
 30
0.0
  0
SEQEND
  8
0
  0
POLYLINE
  8
0
 62
0
 70
0
 66
1
 10
0.0
 20
0.0
 30
0.0
  0
VERTEX
  8
0
 10
96.682152
 20
175.339
 30
0.0
  0
VERTEX
  8
0
 10
97.444152
 20
174.93419
 30
0.0
  0
SEQEND
  8
0
  0
POLYLINE
  8
0
 62
0
 70
0
 66
1
 10
0.0
 20
0.0
 30
0.0
  0
VERTEX
  8
0
 10
97.444152
 20
174.93419
 30
0.0
  0
VERTEX
  8
0
 10
97.89659
 20
174.74369
 30
0.0
  0
SEQEND
  8
0
  0
POLYLINE
  8
0
 62
0
 70
0
 66
1
 10
0.0
 20
0.0
 30
0.0
  0
VERTEX
  8
0
 10
97.89659
 20
174.74369
 30
0.0
  0
VERTEX
  8
0
 10
98.218059125
 20
178.553685
 30
0.0
  0
VERTEX
  8
0
 10
98.325215
 20
182.26843
 30
0.0
  0
SEQEND
  8
0
  0
POLYLINE
  8
0
 62
0
 70
0
 66
1
 10
0.0
 20
0.0
 30
0.0
  0
VERTEX
  8
0
 10
98.325215
 20
182.26843
 30
0.0
  0
VERTEX
  8
0
 10
98.301405
 20
184.24487
 30
0.0
  0
SEQEND
  8
0
  0
POLYLINE
  8
0
 62
0
 70
0
 66
1
 10
0.0
 20
0.0
 30
0.0
  0
VERTEX
  8
0
 10
98.301405
 20
184.24487
 30
0.0
  0
VERTEX
  8
0
 10
98.206155
 20
186.1975
 30
0.0
  0
SEQEND
  8
0
  0
POLYLINE
  8
0
 62
0
 70
0
 66
1
 10
0.0
 20
0.0
 30
0.0
  0
VERTEX
  8
0
 10
98.206155
 20
186.1975
 30
0.0
  0
VERTEX
  8
0
 10
97.063155
 20
185.50693
 30
0.0
  0
SEQEND
  8
0
  0
POLYLINE
  8
0
 62
0
 70
0
 66
1
 10
0.0
 20
0.0
 30
0.0
  0
VERTEX
  8
0
 10
96.229717
 20
185.03068
 30
0.0
  0
VERTEX
  8
0
 10
95.729655
 20
186.14987
 30
0.0
  0
SEQEND
  8
0
  0
POLYLINE
  8
0
 62
0
 70
0
 66
1
 10
0.0
 20
0.0
 30
0.0
  0
VERTEX
  8
0
 10
99.68253
 20
188.76925
 30
0.0
  0
VERTEX
  8
0
 10
99.980186
 20
185.75697
 30
0.0
  0
SEQEND
  8
0
  0
POLYLINE
  8
0
 62
0
 70
0
 66
1
 10
0.0
 20
0.0
 30
0.0
  0
VERTEX
  8
0
 10
99.980186
 20
185.75697
 30
0.0
  0
VERTEX
  8
0
 10
100.087343
 20
181.36356
 30
0.0
  0
SEQEND
  8
0
  0
POLYLINE
  8
0
 62
0
 70
0
 66
1
 10
0.0
 20
0.0
 30
0.0
  0
VERTEX
  8
0
 10
100.087343
 20
181.36356
 30
0.0
  0
VERTEX
  8
0
 10
101.647063
 20
182.18509
 30
0.0
  0
SEQEND
  8
0
  0
POLYLINE
  8
0
 62
0
 70
0
 66
1
 10
0.0
 20
0.0
 30
0.0
  0
VERTEX
  8
0
 10
101.647063
 20
182.18509
 30
0.0
  0
VERTEX
  8
0
 10
102.325713
 20
182.55418
 30
0.0
  0
SEQEND
  8
0
  0
POLYLINE
  8
0
 62
0
 70
0
 66
1
 10
0.0
 20
0.0
 30
0.0
  0
VERTEX
  8
0
 10
104.802213
 20
179.29187
 30
0.0
  0
VERTEX
  8
0
 10
104.373593
 20
176.35103
 30
0.0
  0
SEQEND
  8
0
  0
POLYLINE
  8
0
 62
0
 70
0
 66
1
 10
0.0
 20
0.0
 30
0.0
  0
VERTEX
  8
0
 10
104.373593
 20
176.35103
 30
0.0
  0
VERTEX
  8
0
 10
103.921153
 20
173.29112
 30
0.0
  0
SEQEND
  8
0
  0
POLYLINE
  8
0
 62
0
 70
0
 66
1
 10
0.0
 20
0.0
 30
0.0
  0
VERTEX
  8
0
 10
103.921153
 20
173.29112
 30
0.0
  0
VERTEX
  8
0
 10
104.849843
 20
173.48162
 30
0.0
  0
SEQEND
  8
0
  0
POLYLINE
  8
0
 62
0
 70
0
 66
1
 10
0.0
 20
0.0
 30
0.0
  0
VERTEX
  8
0
 10
104.849843
 20
173.48162
 30
0.0
  0
VERTEX
  8
0
 10
105.016533
 20
172.70772
 30
0.0
  0
SEQEND
  8
0
  0
POLYLINE
  8
0
 62
0
 70
0
 66
1
 10
0.0
 20
0.0
 30
0.0
  0
VERTEX
  8
0
 10
105.016533
 20
172.70772
 30
0.0
  0
VERTEX
  8
0
 10
105.230843
 20
171.91
 30
0.0
  0
SEQEND
  8
0
  0
POLYLINE
  8
0
 62
0
 70
0
 66
1
 10
0.0
 20
0.0
 30
0.0
  0
VERTEX
  8
0
 10
100.82553
 20
183.31618
 30
0.0
  0
VERTEX
  8
0
 10
100.87313
 20
184.14962
 30
0.0
  0
SEQEND
  8
0
  0
POLYLINE
  8
0
 62
0
 70
0
 66
1
 10
0.0
 20
0.0
 30
0.0
  0
VERTEX
  8
0
 10
100.87313
 20
184.72112
 30
0.0
  0
VERTEX
  8
0
 10
100.51594
 20
188.79306
 30
0.0
  0
SEQEND
  8
0
  0
POLYLINE
  8
0
 62
0
 70
0
 66
1
 10
0.0
 20
0.0
 30
0.0
  0
VERTEX
  8
0
 10
100.92076
 20
188.86446
 30
0.0
  0
VERTEX
  8
0
 10
101.27794
 20
184.60202
 30
0.0
  0
SEQEND
  8
0
  0
POLYLINE
  8
0
 62
0
 70
0
 66
1
 10
0.0
 20
0.0
 30
0.0
  0
VERTEX
  8
0
 10
101.27794
 20
183.92336
 30
0.0
  0
VERTEX
  8
0
 10
101.23034
 20
183.26852
 30
0.0
  0
SEQEND
  8
0
  0
POLYLINE
  8
0
 62
0
 70
0
 66
1
 10
0.0
 20
0.0
 30
0.0
  0
VERTEX
  8
0
 10
102.01615
 20
184.41156
 30
0.0
  0
VERTEX
  8
0
 10
101.93285
 20
186.14987
 30
0.0
  0
SEQEND
  8
0
  0
POLYLINE
  8
0
 62
0
 70
0
 66
1
 10
0.0
 20
0.0
 30
0.0
  0
VERTEX
  8
0
 10
101.93285
 20
186.14987
 30
0.0
  0
VERTEX
  8
0
 10
101.82569
 20
187.76912
 30
0.0
  0
SEQEND
  8
0
  0
POLYLINE
  8
0
 62
0
 70
0
 66
1
 10
0.0
 20
0.0
 30
0.0
  0
VERTEX
  8
0
 10
102.08763
 20
187.79292
 30
0.0
  0
VERTEX
  8
0
 10
102.18283
 20
186.0546
 30
0.0
  0
SEQEND
  8
0
  0
POLYLINE
  8
0
 62
0
 70
0
 66
1
 10
0.0
 20
0.0
 30
0.0
  0
VERTEX
  8
0
 10
102.18283
 20
186.0546
 30
0.0
  0
VERTEX
  8
0
 10
102.25423
 20
184.41154
 30
0.0
  0
SEQEND
  8
0
  0
POLYLINE
  8
0
 62
0
 70
0
 66
1
 10
0.0
 20
0.0
 30
0.0
  0
VERTEX
  8
0
 10
112.11265
 20
176.95825
 30
0.0
  0
VERTEX
  8
0
 10
110.88631
 20
176.76775
 30
0.0
  0
SEQEND
  8
0
  0
POLYLINE
  8
0
 62
0
 70
0
 66
1
 10
0.0
 20
0.0
 30
0.0
  0
VERTEX
  8
0
 10
110.88631
 20
176.76775
 30
0.0
  0
VERTEX
  8
0
 10
109.77903
 20
176.62487
 30
0.0
  0
SEQEND
  8
0
  0
POLYLINE
  8
0
 62
0
 70
0
 66
1
 10
0.0
 20
0.0
 30
0.0
  0
VERTEX
  8
0
 10
109.77903
 20
176.62487
 30
0.0
  0
VERTEX
  8
0
 10
109.11228
 20
175.95812
 30
0.0
  0
SEQEND
  8
0
  0
POLYLINE
  8
0
 62
0
 70
0
 66
1
 10
0.0
 20
0.0
 30
0.0
  0
VERTEX
  8
0
 10
109.11228
 20
175.95812
 30
0.0
  0
VERTEX
  8
0
 10
108.06453
 20
174.79131
 30
0.0
  0
SEQEND
  8
0
  0
POLYLINE
  8
0
 62
0
 70
0
 66
1
 10
0.0
 20
0.0
 30
0.0
  0
VERTEX
  8
0
 10
108.06453
 20
174.79131
 30
0.0
  0
VERTEX
  8
0
 10
108.56459
 20
174.16028
 30
0.0
  0
SEQEND
  8
0
  0
POLYLINE
  8
0
 62
0
 70
0
 66
1
 10
0.0
 20
0.0
 30
0.0
  0
VERTEX
  8
0
 10
108.56459
 20
174.16028
 30
0.0
  0
VERTEX
  8
0
 10
109.20753
 20
173.31494
 30
0.0
  0
SEQEND
  8
0
  0
POLYLINE
  8
0
 62
0
 70
0
 66
1
 10
0.0
 20
0.0
 30
0.0
  0
VERTEX
  8
0
 10
109.20753
 20
173.31494
 30
0.0
  0
VERTEX
  8
0
 10
110.24337
 20
173.75547
 30
0.0
  0
SEQEND
  8
0
  0
POLYLINE
  8
0
 62
0
 70
0
 66
1
 10
0.0
 20
0.0
 30
0.0
  0
VERTEX
  8
0
 10
110.24337
 20
173.75547
 30
0.0
  0
VERTEX
  8
0
 10
111.8269
 20
174.43412
 30
0.0
  0
SEQEND
  8
0
  0
POLYLINE
  8
0
 62
0
 70
0
 66
1
 10
0.0
 20
0.0
 30
0.0
  0
VERTEX
  8
0
 10
111.8269
 20
174.43412
 30
0.0
  0
VERTEX
  8
0
 10
111.96978
 20
175.56522
 30
0.0
  0
SEQEND
  8
0
  0
POLYLINE
  8
0
 62
0
 70
0
 66
1
 10
0.0
 20
0.0
 30
0.0
  0
VERTEX
  8
0
 10
111.96978
 20
175.56522
 30
0.0
  0
VERTEX
  8
0
 10
112.11265
 20
176.95825
 30
0.0
  0
SEQEND
  8
0
  0
POLYLINE
  8
0
 62
0
 70
0
 66
1
 10
0.0
 20
0.0
 30
0.0
  0
VERTEX
  8
0
 10
115.87503
 20
170.93369
 30
0.0
  0
VERTEX
  8
0
 10
115.39878
 20
170.51697
 30
0.0
  0
SEQEND
  8
0
  0
POLYLINE
  8
0
 62
0
 70
0
 66
1
 10
0.0
 20
0.0
 30
0.0
  0
VERTEX
  8
0
 10
115.39878
 20
170.51697
 30
0.0
  0
VERTEX
  8
0
 10
114.89871
 20
170.02881
 30
0.0
  0
SEQEND
  8
0
  0
POLYLINE
  8
0
 62
0
 70
0
 66
1
 10
0.0
 20
0.0
 30
0.0
  0
VERTEX
  8
0
 10
114.73203
 20
170.21931
 30
0.0
  0
VERTEX
  8
0
 10
115.0535
 20
170.50506
 30
0.0
  0
SEQEND
  8
0
  0
POLYLINE
  8
0
 62
0
 70
0
 66
1
 10
0.0
 20
0.0
 30
0.0
  0
VERTEX
  8
0
 10
115.0535
 20
170.50506
 30
0.0
  0
VERTEX
  8
0
 10
115.70834
 20
171.148
 30
0.0
  0
SEQEND
  8
0
  0
POLYLINE
  8
0
 62
0
 70
0
 66
1
 10
0.0
 20
0.0
 30
0.0
  0
VERTEX
  8
0
 10
116.06553
 20
172.4815
 30
0.0
  0
VERTEX
  8
0
 10
114.88681
 20
171.29087
 30
0.0
  0
SEQEND
  8
0
  0
POLYLINE
  8
0
 62
0
 70
0
 66
1
 10
0.0
 20
0.0
 30
0.0
  0
VERTEX
  8
0
 10
114.88681
 20
171.29087
 30
0.0
  0
VERTEX
  8
0
 10
113.87478
 20
170.14787
 30
0.0
  0
SEQEND
  8
0
  0
POLYLINE
  8
0
 62
0
 70
0
 66
1
 10
0.0
 20
0.0
 30
0.0
  0
VERTEX
  8
0
 10
113.51759
 20
170.36219
 30
0.0
  0
VERTEX
  8
0
 10
114.57725
 20
171.5409
 30
0.0
  0
SEQEND
  8
0
  0
POLYLINE
  8
0
 62
0
 70
0
 66
1
 10
0.0
 20
0.0
 30
0.0
  0
VERTEX
  8
0
 10
114.57725
 20
171.5409
 30
0.0
  0
VERTEX
  8
0
 10
115.73215
 20
172.74344
 30
0.0
  0
SEQEND
  8
0
  0
POLYLINE
  8
0
 62
0
 70
0
 66
1
 10
0.0
 20
0.0
 30
0.0
  0
VERTEX
  8
0
 10
115.32734
 20
173.48162
 30
0.0
  0
VERTEX
  8
0
 10
112.9699
 20
170.83844
 30
0.0
  0
SEQEND
  8
0
  0
POLYLINE
  8
0
 62
0
 70
0
 66
1
 10
0.0
 20
0.0
 30
0.0
  0
VERTEX
  8
0
 10
112.9699
 20
170.83844
 30
0.0
  0
VERTEX
  8
0
 10
112.32696
 20
171.38612
 30
0.0
  0
SEQEND
  8
0
  0
POLYLINE
  8
0
 62
0
 70
0
 66
1
 10
0.0
 20
0.0
 30
0.0
  0
VERTEX
  8
0
 10
112.32696
 20
171.38612
 30
0.0
  0
VERTEX
  8
0
 10
111.73165
 20
171.86237
 30
0.0
  0
SEQEND
  8
0
  0
POLYLINE
  8
0
 62
0
 70
0
 66
1
 10
0.0
 20
0.0
 30
0.0
  0
VERTEX
  8
0
 10
111.73165
 20
171.86237
 30
0.0
  0
VERTEX
  8
0
 10
111.76735
 20
172.51722
 30
0.0
  0
SEQEND
  8
0
  0
POLYLINE
  8
0
 62
0
 70
0
 66
1
 10
0.0
 20
0.0
 30
0.0
  0
VERTEX
  8
0
 10
111.76735
 20
172.51722
 30
0.0
  0
VERTEX
  8
0
 10
111.77925
 20
172.95775
 30
0.0
  0
SEQEND
  8
0
  0
POLYLINE
  8
0
 62
0
 70
0
 66
1
 10
0.0
 20
0.0
 30
0.0
  0
VERTEX
  8
0
 10
111.77925
 20
172.95775
 30
0.0
  0
VERTEX
  8
0
 10
110.10047
 20
172.20765
 30
0.0
  0
SEQEND
  8
0
  0
POLYLINE
  8
0
 62
0
 70
0
 66
1
 10
0.0
 20
0.0
 30
0.0
  0
VERTEX
  8
0
 10
110.10047
 20
172.20765
 30
0.0
  0
VERTEX
  8
0
 10
108.30263
 20
171.45756
 30
0.0
  0
SEQEND
  8
0
  0
POLYLINE
  8
0
 62
0
 70
0
 66
1
 10
0.0
 20
0.0
 30
0.0
  0
VERTEX
  8
0
 10
108.30263
 20
171.45756
 30
0.0
  0
VERTEX
  8
0
 10
107.2906
 20
172.89822
 30
0.0
  0
SEQEND
  8
0
  0
POLYLINE
  8
0
 62
0
 70
0
 66
1
 10
0.0
 20
0.0
 30
0.0
  0
VERTEX
  8
0
 10
107.2906
 20
172.89822
 30
0.0
  0
VERTEX
  8
0
 10
106.13569
 20
174.71987
 30
0.0
  0
SEQEND
  8
0
  0
POLYLINE
  8
0
 62
0
 70
0
 66
1
 10
0.0
 20
0.0
 30
0.0
  0
VERTEX
  8
0
 10
106.13569
 20
174.71987
 30
0.0
  0
VERTEX
  8
0
 10
107.50491
 20
176.32722
 30
0.0
  0
SEQEND
  8
0
  0
POLYLINE
  8
0
 62
0
 70
0
 66
1
 10
0.0
 20
0.0
 30
0.0
  0
VERTEX
  8
0
 10
107.50491
 20
176.32722
 30
0.0
  0
VERTEX
  8
0
 10
108.87413
 20
177.88694
 30
0.0
  0
SEQEND
  8
0
  0
POLYLINE
  8
0
 62
0
 70
0
 66
1
 10
0.0
 20
0.0
 30
0.0
  0
VERTEX
  8
0
 10
108.87413
 20
177.88694
 30
0.0
  0
VERTEX
  8
0
 10
110.60053
 20
178.2084
 30
0.0
  0
SEQEND
  8
0
  0
POLYLINE
  8
0
 62
0
 70
0
 66
1
 10
0.0
 20
0.0
 30
0.0
  0
VERTEX
  8
0
 10
110.60053
 20
178.2084
 30
0.0
  0
VERTEX
  8
0
 10
112.27931
 20
178.50606
 30
0.0
  0
SEQEND
  8
0
  0
POLYLINE
  8
0
 62
0
 70
0
 66
1
 10
0.0
 20
0.0
 30
0.0
  0
VERTEX
  8
0
 10
112.42218
 20
179.62525
 30
0.0
  0
VERTEX
  8
0
 10
111.62447
 20
180.20865
 30
0.0
  0
SEQEND
  8
0
  0
POLYLINE
  8
0
 62
0
 70
0
 66
1
 10
0.0
 20
0.0
 30
0.0
  0
VERTEX
  8
0
 10
111.62447
 20
180.20865
 30
0.0
  0
VERTEX
  8
0
 10
111.1125
 20
180.62537
 30
0.0
  0
SEQEND
  8
0
  0
POLYLINE
  8
0
 62
0
 70
0
 66
1
 10
0.0
 20
0.0
 30
0.0
  0
VERTEX
  8
0
 10
107.61206
 20
177.83931
 30
0.0
  0
VERTEX
  8
0
 10
107.04056
 20
178.41081
 30
0.0
  0
SEQEND
  8
0
  0
POLYLINE
  8
0
 62
0
 70
0
 66
1
 10
0.0
 20
0.0
 30
0.0
  0
VERTEX
  8
0
 10
107.04056
 20
178.41081
 30
0.0
  0
VERTEX
  8
0
 10
106.63575
 20
178.86325
 30
0.0
  0
SEQEND
  8
0
  0
POLYLINE
  8
0
 62
0
 70
0
 66
1
 10
0.0
 20
0.0
 30
0.0
  0
VERTEX
  8
0
 10
106.63575
 20
178.86325
 30
0.0
  0
VERTEX
  8
0
 10
108.0645
 20
182.74468
 30
0.0
  0
SEQEND
  8
0
  0
POLYLINE
  8
0
 62
0
 70
0
 66
1
 10
0.0
 20
0.0
 30
0.0
  0
VERTEX
  8
0
 10
108.0645
 20
182.74468
 30
0.0
  0
VERTEX
  8
0
 10
108.92175
 20
182.30415
 30
0.0
  0
SEQEND
  8
0
  0
POLYLINE
  8
0
 62
0
 70
0
 66
1
 10
0.0
 20
0.0
 30
0.0
  0
VERTEX
  8
0
 10
108.92175
 20
182.30415
 30
0.0
  0
VERTEX
  8
0
 10
109.35037
 20
182.10175
 30
0.0
  0
SEQEND
  8
0
  0
POLYLINE
  8
0
 62
0
 70
0
 66
1
 10
0.0
 20
0.0
 30
0.0
  0
VERTEX
  8
0
 10
109.35037
 20
182.10175
 30
0.0
  0
VERTEX
  8
0
 10
109.05272
 20
181.22068
 30
0.0
  0
SEQEND
  8
0
  0
POLYLINE
  8
0
 62
0
 70
0
 66
1
 10
0.0
 20
0.0
 30
0.0
  0
VERTEX
  8
0
 10
109.05272
 20
181.22068
 30
0.0
  0
VERTEX
  8
0
 10
108.75506
 20
180.45868
 30
0.0
  0
SEQEND
  8
0
  0
POLYLINE
  8
0
 62
0
 70
0
 66
1
 10
0.0
 20
0.0
 30
0.0
  0
VERTEX
  8
0
 10
108.75506
 20
180.45868
 30
0.0
  0
VERTEX
  8
0
 10
110.3624
 20
181.57787
 30
0.0
  0
SEQEND
  8
0
  0
POLYLINE
  8
0
 62
0
 70
0
 66
1
 10
0.0
 20
0.0
 30
0.0
  0
VERTEX
  8
0
 10
110.3624
 20
181.57787
 30
0.0
  0
VERTEX
  8
0
 10
111.61256
 20
182.50656
 30
0.0
  0
SEQEND
  8
0
  0
POLYLINE
  8
0
 62
0
 70
0
 66
1
 10
0.0
 20
0.0
 30
0.0
  0
VERTEX
  8
0
 10
111.61256
 20
182.50656
 30
0.0
  0
VERTEX
  8
0
 10
113.04131
 20
181.19687
 30
0.0
  0
SEQEND
  8
0
  0
POLYLINE
  8
0
 62
0
 70
0
 66
1
 10
0.0
 20
0.0
 30
0.0
  0
VERTEX
  8
0
 10
113.04131
 20
181.19687
 30
0.0
  0
VERTEX
  8
0
 10
114.13668
 20
180.03006
 30
0.0
  0
SEQEND
  8
0
  0
POLYLINE
  8
0
 62
0
 70
0
 66
1
 10
0.0
 20
0.0
 30
0.0
  0
VERTEX
  8
0
 10
114.13668
 20
180.03006
 30
0.0
  0
VERTEX
  8
0
 10
113.76759
 20
176.62487
 30
0.0
  0
SEQEND
  8
0
  0
POLYLINE
  8
0
 62
0
 70
0
 66
1
 10
0.0
 20
0.0
 30
0.0
  0
VERTEX
  8
0
 10
113.76759
 20
176.62487
 30
0.0
  0
VERTEX
  8
0
 10
113.44612
 20
173.50544
 30
0.0
  0
SEQEND
  8
0
  0
POLYLINE
  8
0
 62
0
 70
0
 66
1
 10
0.0
 20
0.0
 30
0.0
  0
VERTEX
  8
0
 10
113.44612
 20
173.50544
 30
0.0
  0
VERTEX
  8
0
 10
114.05334
 20
174.07694
 30
0.0
  0
SEQEND
  8
0
  0
POLYLINE
  8
0
 62
0
 70
0
 66
1
 10
0.0
 20
0.0
 30
0.0
  0
VERTEX
  8
0
 10
114.05334
 20
174.07694
 30
0.0
  0
VERTEX
  8
0
 10
114.49387
 20
174.52937
 30
0.0
  0
SEQEND
  8
0
  0
POLYLINE
  8
0
 62
0
 70
0
 66
1
 10
0.0
 20
0.0
 30
0.0
  0
VERTEX
  8
0
 10
114.49387
 20
174.52937
 30
0.0
  0
VERTEX
  8
0
 10
115.06537
 20
173.80309
 30
0.0
  0
SEQEND
  8
0
  0
POLYLINE
  8
0
 62
0
 70
0
 66
1
 10
0.0
 20
0.0
 30
0.0
  0
VERTEX
  8
0
 10
115.06537
 20
173.80309
 30
0.0
  0
VERTEX
  8
0
 10
115.32731
 20
173.48162
 30
0.0
  0
SEQEND
  8
0
  0
POLYLINE
  8
0
 62
0
 70
0
 66
1
 10
0.0
 20
0.0
 30
0.0
  0
VERTEX
  8
0
 10
116.0179
 20
176.55344
 30
0.0
  0
VERTEX
  8
0
 10
115.9227
 20
178.35128
 30
0.0
  0
SEQEND
  8
0
  0
POLYLINE
  8
0
 62
0
 70
0
 66
1
 10
0.0
 20
0.0
 30
0.0
  0
VERTEX
  8
0
 10
115.9227
 20
178.35128
 30
0.0
  0
VERTEX
  8
0
 10
115.77983
 20
180.38725
 30
0.0
  0
SEQEND
  8
0
  0
POLYLINE
  8
0
 62
0
 70
0
 66
1
 10
0.0
 20
0.0
 30
0.0
  0
VERTEX
  8
0
 10
116.01795
 20
180.41105
 30
0.0
  0
VERTEX
  8
0
 10
116.12511
 20
178.89896
 30
0.0
  0
SEQEND
  8
0
  0
POLYLINE
  8
0
 62
0
 70
0
 66
1
 10
0.0
 20
0.0
 30
0.0
  0
VERTEX
  8
0
 10
116.12511
 20
178.89896
 30
0.0
  0
VERTEX
  8
0
 10
116.27989
 20
176.55343
 30
0.0
  0
SEQEND
  8
0
  0
POLYLINE
  8
0
 62
0
 70
0
 66
1
 10
0.0
 20
0.0
 30
0.0
  0
VERTEX
  8
0
 10
116.99421
 20
175.88669
 30
0.0
  0
VERTEX
  8
0
 10
116.91091
 20
177.92265
 30
0.0
  0
SEQEND
  8
0
  0
POLYLINE
  8
0
 62
0
 70
0
 66
1
 10
0.0
 20
0.0
 30
0.0
  0
VERTEX
  8
0
 10
116.91091
 20
177.92265
 30
0.0
  0
VERTEX
  8
0
 10
116.82761
 20
179.76812
 30
0.0
  0
SEQEND
  8
0
  0
POLYLINE
  8
0
 62
0
 70
0
 66
1
 10
0.0
 20
0.0
 30
0.0
  0
VERTEX
  8
0
 10
117.23243
 20
179.79192
 30
0.0
  0
VERTEX
  8
0
 10
117.35149
 20
177.52973
 30
0.0
  0
SEQEND
  8
0
  0
POLYLINE
  8
0
 62
0
 70
0
 66
1
 10
0.0
 20
0.0
 30
0.0
  0
VERTEX
  8
0
 10
117.35149
 20
177.52973
 30
0.0
  0
VERTEX
  8
0
 10
117.42289
 20
175.88667
 30
0.0
  0
SEQEND
  8
0
  0
POLYLINE
  8
0
 62
0
 70
0
 66
1
 10
0.0
 20
0.0
 30
0.0
  0
VERTEX
  8
0
 10
127.66221
 20
172.62437
 30
0.0
  0
VERTEX
  8
0
 10
125.49528
 20
171.81475
 30
0.0
  0
SEQEND
  8
0
  0
POLYLINE
  8
0
 62
0
 70
0
 66
1
 10
0.0
 20
0.0
 30
0.0
  0
VERTEX
  8
0
 10
125.49528
 20
171.81475
 30
0.0
  0
VERTEX
  8
0
 10
123.35215
 20
170.90987
 30
0.0
  0
SEQEND
  8
0
  0
POLYLINE
  8
0
 62
0
 70
0
 66
1
 10
0.0
 20
0.0
 30
0.0
  0
VERTEX
  8
0
 10
123.35215
 20
170.90987
 30
0.0
  0
VERTEX
  8
0
 10
123.30455
 20
171.69569
 30
0.0
  0
SEQEND
  8
0
  0
POLYLINE
  8
0
 62
0
 70
0
 66
1
 10
0.0
 20
0.0
 30
0.0
  0
VERTEX
  8
0
 10
123.30455
 20
171.69569
 30
0.0
  0
VERTEX
  8
0
 10
123.23315
 20
172.45769
 30
0.0
  0
SEQEND
  8
0
  0
POLYLINE
  8
0
 62
0
 70
0
 66
1
 10
0.0
 20
0.0
 30
0.0
  0
VERTEX
  8
0
 10
123.23315
 20
172.45769
 30
0.0
  0
VERTEX
  8
0
 10
124.25709
 20
173.02919
 30
0.0
  0
SEQEND
  8
0
  0
POLYLINE
  8
0
 62
0
 70
0
 66
1
 10
0.0
 20
0.0
 30
0.0
  0
VERTEX
  8
0
 10
124.25709
 20
173.02919
 30
0.0
  0
VERTEX
  8
0
 10
122.99503
 20
175.27947
 30
0.0
  0
SEQEND
  8
0
  0
POLYLINE
  8
0
 62
0
 70
0
 66
1
 10
0.0
 20
0.0
 30
0.0
  0
VERTEX
  8
0
 10
122.99503
 20
175.27947
 30
0.0
  0
VERTEX
  8
0
 10
121.11384
 20
178.64894
 30
0.0
  0
SEQEND
  8
0
  0
POLYLINE
  8
0
 62
0
 70
0
 66
1
 10
0.0
 20
0.0
 30
0.0
  0
VERTEX
  8
0
 10
121.11384
 20
178.64894
 30
0.0
  0
VERTEX
  8
0
 10
120.6614
 20
178.26794
 30
0.0
  0
SEQEND
  8
0
  0
POLYLINE
  8
0
 62
0
 70
0
 66
1
 10
0.0
 20
0.0
 30
0.0
  0
VERTEX
  8
0
 10
120.6614
 20
178.26794
 30
0.0
  0
VERTEX
  8
0
 10
120.06609
 20
177.69644
 30
0.0
  0
SEQEND
  8
0
  0
POLYLINE
  8
0
 62
0
 70
0
 66
1
 10
0.0
 20
0.0
 30
0.0
  0
VERTEX
  8
0
 10
120.06609
 20
177.69644
 30
0.0
  0
VERTEX
  8
0
 10
119.99469
 20
176.52962
 30
0.0
  0
SEQEND
  8
0
  0
POLYLINE
  8
0
 62
0
 70
0
 66
1
 10
0.0
 20
0.0
 30
0.0
  0
VERTEX
  8
0
 10
119.99469
 20
176.52962
 30
0.0
  0
VERTEX
  8
0
 10
119.97089
 20
175.21994
 30
0.0
  0
SEQEND
  8
0
  0
POLYLINE
  8
0
 62
0
 70
0
 66
1
 10
0.0
 20
0.0
 30
0.0
  0
VERTEX
  8
0
 10
119.97089
 20
175.21994
 30
0.0
  0
VERTEX
  8
0
 10
119.98279
 20
174.27934
 30
0.0
  0
SEQEND
  8
0
  0
POLYLINE
  8
0
 62
0
 70
0
 66
1
 10
0.0
 20
0.0
 30
0.0
  0
VERTEX
  8
0
 10
119.98279
 20
174.27934
 30
0.0
  0
VERTEX
  8
0
 10
120.01849
 20
173.26731
 30
0.0
  0
SEQEND
  8
0
  0
POLYLINE
  8
0
 62
0
 70
0
 66
1
 10
0.0
 20
0.0
 30
0.0
  0
VERTEX
  8
0
 10
120.01849
 20
173.26731
 30
0.0
  0
VERTEX
  8
0
 10
121.63774
 20
172.41006
 30
0.0
  0
SEQEND
  8
0
  0
POLYLINE
  8
0
 62
0
 70
0
 66
1
 10
0.0
 20
0.0
 30
0.0
  0
VERTEX
  8
0
 10
121.63774
 20
172.41006
 30
0.0
  0
VERTEX
  8
0
 10
121.25674
 20
171.81475
 30
0.0
  0
SEQEND
  8
0
  0
POLYLINE
  8
0
 62
0
 70
0
 66
1
 10
0.0
 20
0.0
 30
0.0
  0
VERTEX
  8
0
 10
121.25674
 20
171.81475
 30
0.0
  0
VERTEX
  8
0
 10
120.85193
 20
171.07656
 30
0.0
  0
SEQEND
  8
0
  0
POLYLINE
  8
0
 62
0
 70
0
 66
1
 10
0.0
 20
0.0
 30
0.0
  0
VERTEX
  8
0
 10
120.85193
 20
171.07656
 30
0.0
  0
VERTEX
  8
0
 10
118.8993
 20
171.69569
 30
0.0
  0
SEQEND
  8
0
  0
POLYLINE
  8
0
 62
0
 70
0
 66
1
 10
0.0
 20
0.0
 30
0.0
  0
VERTEX
  8
0
 10
118.8993
 20
171.69569
 30
0.0
  0
VERTEX
  8
0
 10
116.51805
 20
172.33862
 30
0.0
  0
SEQEND
  8
0
  0
POLYLINE
  8
0
 62
0
 70
0
 66
1
 10
0.0
 20
0.0
 30
0.0
  0
VERTEX
  8
0
 10
116.51805
 20
172.33862
 30
0.0
  0
VERTEX
  8
0
 10
116.81571
 20
173.0649
 30
0.0
  0
SEQEND
  8
0
  0
POLYLINE
  8
0
 62
0
 70
0
 66
1
 10
0.0
 20
0.0
 30
0.0
  0
VERTEX
  8
0
 10
116.81571
 20
173.0649
 30
0.0
  0
VERTEX
  8
0
 10
117.06574
 20
173.91025
 30
0.0
  0
SEQEND
  8
0
  0
POLYLINE
  8
0
 62
0
 70
0
 66
1
 10
0.0
 20
0.0
 30
0.0
  0
VERTEX
  8
0
 10
117.06574
 20
173.91025
 30
0.0
  0
VERTEX
  8
0
 10
117.64915
 20
173.73165
 30
0.0
  0
SEQEND
  8
0
  0
POLYLINE
  8
0
 62
0
 70
0
 66
1
 10
0.0
 20
0.0
 30
0.0
  0
VERTEX
  8
0
 10
117.64915
 20
173.73165
 30
0.0
  0
VERTEX
  8
0
 10
118.3278
 20
173.57687
 30
0.0
  0
SEQEND
  8
0
  0
POLYLINE
  8
0
 62
0
 70
0
 66
1
 10
0.0
 20
0.0
 30
0.0
  0
VERTEX
  8
0
 10
118.3278
 20
173.57687
 30
0.0
  0
VERTEX
  8
0
 10
118.3992
 20
175.24375
 30
0.0
  0
SEQEND
  8
0
  0
POLYLINE
  8
0
 62
0
 70
0
 66
1
 10
0.0
 20
0.0
 30
0.0
  0
VERTEX
  8
0
 10
118.3992
 20
175.24375
 30
0.0
  0
VERTEX
  8
0
 10
118.3278
 20
178.91087
 30
0.0
  0
SEQEND
  8
0
  0
POLYLINE
  8
0
 62
0
 70
0
 66
1
 10
0.0
 20
0.0
 30
0.0
  0
VERTEX
  8
0
 10
118.3278
 20
178.91087
 30
0.0
  0
VERTEX
  8
0
 10
118.2444675
 20
181.89933875
 30
0.0
  0
VERTEX
  8
0
 10
118.1373
 20
185.67362
 30
0.0
  0
SEQEND
  8
0
  0
POLYLINE
  8
0
 62
0
 70
0
 66
1
 10
0.0
 20
0.0
 30
0.0
  0
VERTEX
  8
0
 10
118.1373
 20
185.67362
 30
0.0
  0
VERTEX
  8
0
 10
116.87523
 20
185.95937
 30
0.0
  0
SEQEND
  8
0
  0
POLYLINE
  8
0
 62
0
 70
0
 66
1
 10
0.0
 20
0.0
 30
0.0
  0
VERTEX
  8
0
 10
116.87523
 20
187.95962
 30
0.0
  0
VERTEX
  8
0
 10
118.69689
 20
187.45956
 30
0.0
  0
SEQEND
  8
0
  0
POLYLINE
  8
0
 62
0
 70
0
 66
1
 10
0.0
 20
0.0
 30
0.0
  0
VERTEX
  8
0
 10
118.69689
 20
187.45956
 30
0.0
  0
VERTEX
  8
0
 10
121.92348
 20
186.53087
 30
0.0
  0
SEQEND
  8
0
  0
POLYLINE
  8
0
 62
0
 70
0
 66
1
 10
0.0
 20
0.0
 30
0.0
  0
VERTEX
  8
0
 10
121.92348
 20
186.53087
 30
0.0
  0
VERTEX
  8
0
 10
121.68536
 20
185.69743
 30
0.0
  0
SEQEND
  8
0
  0
POLYLINE
  8
0
 62
0
 70
0
 66
1
 10
0.0
 20
0.0
 30
0.0
  0
VERTEX
  8
0
 10
121.68536
 20
185.69743
 30
0.0
  0
VERTEX
  8
0
 10
121.54248
 20
185.12593
 30
0.0
  0
SEQEND
  8
0
  0
POLYLINE
  8
0
 62
0
 70
0
 66
1
 10
0.0
 20
0.0
 30
0.0
  0
VERTEX
  8
0
 10
120.13754
 20
185.50693
 30
0.0
  0
VERTEX
  8
0
 10
120.05424
 20
182.92328
 30
0.0
  0
SEQEND
  8
0
  0
POLYLINE
  8
0
 62
0
 70
0
 66
1
 10
0.0
 20
0.0
 30
0.0
  0
VERTEX
  8
0
 10
120.05424
 20
182.92328
 30
0.0
  0
VERTEX
  8
0
 10
119.97094
 20
179.88718
 30
0.0
  0
SEQEND
  8
0
  0
POLYLINE
  8
0
 62
0
 70
0
 66
1
 10
0.0
 20
0.0
 30
0.0
  0
VERTEX
  8
0
 10
119.97094
 20
179.88718
 30
0.0
  0
VERTEX
  8
0
 10
121.85212
 20
181.816
 30
0.0
  0
SEQEND
  8
0
  0
POLYLINE
  8
0
 62
0
 70
0
 66
1
 10
0.0
 20
0.0
 30
0.0
  0
VERTEX
  8
0
 10
121.85212
 20
181.816
 30
0.0
  0
VERTEX
  8
0
 10
124.0905
 20
184.26868
 30
0.0
  0
SEQEND
  8
0
  0
POLYLINE
  8
0
 62
0
 70
0
 66
1
 10
0.0
 20
0.0
 30
0.0
  0
VERTEX
  8
0
 10
122.72126
 20
184.76875
 30
0.0
  0
VERTEX
  8
0
 10
122.73316
 20
184.86405
 30
0.0
  0
SEQEND
  8
0
  0
POLYLINE
  8
0
 62
0
 70
0
 66
1
 10
0.0
 20
0.0
 30
0.0
  0
VERTEX
  8
0
 10
122.73316
 20
184.86405
 30
0.0
  0
VERTEX
  8
0
 10
122.78076
 20
185.36411
 30
0.0
  0
SEQEND
  8
0
  0
POLYLINE
  8
0
 62
0
 70
0
 66
1
 10
0.0
 20
0.0
 30
0.0
  0
VERTEX
  8
0
 10
122.78076
 20
185.36411
 30
0.0
  0
VERTEX
  8
0
 10
122.82836
 20
186.07848
 30
0.0
  0
SEQEND
  8
0
  0
POLYLINE
  8
0
 62
0
 70
0
 66
1
 10
0.0
 20
0.0
 30
0.0
  0
VERTEX
  8
0
 10
122.82836
 20
186.07848
 30
0.0
  0
VERTEX
  8
0
 10
125.15008
 20
185.69748
 30
0.0
  0
SEQEND
  8
0
  0
POLYLINE
  8
0
 62
0
 70
0
 66
1
 10
0.0
 20
0.0
 30
0.0
  0
VERTEX
  8
0
 10
125.15008
 20
185.69748
 30
0.0
  0
VERTEX
  8
0
 10
127.2813
 20
185.48317
 30
0.0
  0
SEQEND
  8
0
  0
POLYLINE
  8
0
 62
0
 70
0
 66
1
 10
0.0
 20
0.0
 30
0.0
  0
VERTEX
  8
0
 10
127.2813
 20
185.48317
 30
0.0
  0
VERTEX
  8
0
 10
127.07889
 20
184.82833
 30
0.0
  0
SEQEND
  8
0
  0
POLYLINE
  8
0
 62
0
 70
0
 66
1
 10
0.0
 20
0.0
 30
0.0
  0
VERTEX
  8
0
 10
127.07889
 20
184.82833
 30
0.0
  0
VERTEX
  8
0
 10
126.75742
 20
183.88773
 30
0.0
  0
SEQEND
  8
0
  0
POLYLINE
  8
0
 62
0
 70
0
 66
1
 10
0.0
 20
0.0
 30
0.0
  0
VERTEX
  8
0
 10
126.75742
 20
183.88773
 30
0.0
  0
VERTEX
  8
0
 10
125.90017
 20
184.03061
 30
0.0
  0
SEQEND
  8
0
  0
POLYLINE
  8
0
 62
0
 70
0
 66
1
 10
0.0
 20
0.0
 30
0.0
  0
VERTEX
  8
0
 10
125.90017
 20
184.03061
 30
0.0
  0
VERTEX
  8
0
 10
124.19758
 20
182.20895
 30
0.0
  0
SEQEND
  8
0
  0
POLYLINE
  8
0
 62
0
 70
0
 66
1
 10
0.0
 20
0.0
 30
0.0
  0
VERTEX
  8
0
 10
124.19758
 20
182.20895
 30
0.0
  0
VERTEX
  8
0
 10
122.37592
 20
180.17298
 30
0.0
  0
SEQEND
  8
0
  0
POLYLINE
  8
0
 62
0
 70
0
 66
1
 10
0.0
 20
0.0
 30
0.0
  0
VERTEX
  8
0
 10
122.37592
 20
180.17298
 30
0.0
  0
VERTEX
  8
0
 10
124.17377
 20
176.69636
 30
0.0
  0
SEQEND
  8
0
  0
POLYLINE
  8
0
 62
0
 70
0
 66
1
 10
0.0
 20
0.0
 30
0.0
  0
VERTEX
  8
0
 10
124.17377
 20
176.69636
 30
0.0
  0
VERTEX
  8
0
 10
125.9478
 20
173.48167
 30
0.0
  0
SEQEND
  8
0
  0
POLYLINE
  8
0
 62
0
 70
0
 66
1
 10
0.0
 20
0.0
 30
0.0
  0
VERTEX
  8
0
 10
127.61467
 20
173.95792
 30
0.0
  0
VERTEX
  8
0
 10
127.65037
 20
173.36261
 30
0.0
  0
SEQEND
  8
0
  0
POLYLINE
  8
0
 62
0
 70
0
 66
1
 10
0.0
 20
0.0
 30
0.0
  0
VERTEX
  8
0
 10
127.65037
 20
173.36261
 30
0.0
  0
VERTEX
  8
0
 10
127.66227
 20
172.62442
 30
0.0
  0
SEQEND
  8
0
  0
POLYLINE
  8
0
 62
0
 70
0
 66
1
 10
0.0
 20
0.0
 30
0.0
  0
VERTEX
  8
0
 10
126.63828
 20
181.38737
 30
0.0
  0
VERTEX
  8
0
 10
125.74531
 20
180.58965
 30
0.0
  0
SEQEND
  8
0
  0
POLYLINE
  8
0
 62
0
 70
0
 66
1
 10
0.0
 20
0.0
 30
0.0
  0
VERTEX
  8
0
 10
125.74531
 20
180.58965
 30
0.0
  0
VERTEX
  8
0
 10
124.87615
 20
179.79193
 30
0.0
  0
SEQEND
  8
0
  0
POLYLINE
  8
0
 62
0
 70
0
 66
1
 10
0.0
 20
0.0
 30
0.0
  0
VERTEX
  8
0
 10
124.70946
 20
179.98243
 30
0.0
  0
VERTEX
  8
0
 10
125.56671
 20
180.76825
 30
0.0
  0
SEQEND
  8
0
  0
POLYLINE
  8
0
 62
0
 70
0
 66
1
 10
0.0
 20
0.0
 30
0.0
  0
VERTEX
  8
0
 10
125.56671
 20
180.76825
 30
0.0
  0
VERTEX
  8
0
 10
126.4954
 20
181.57787
 30
0.0
  0
SEQEND
  8
0
  0
POLYLINE
  8
0
 62
0
 70
0
 66
1
 10
0.0
 20
0.0
 30
0.0
  0
VERTEX
  8
0
 10
126.35253
 20
182.48275
 30
0.0
  0
VERTEX
  8
0
 10
125.20953
 20
181.2564
 30
0.0
  0
SEQEND
  8
0
  0
POLYLINE
  8
0
 62
0
 70
0
 66
1
 10
0.0
 20
0.0
 30
0.0
  0
VERTEX
  8
0
 10
125.20953
 20
181.2564
 30
0.0
  0
VERTEX
  8
0
 10
124.06653
 20
180.12531
 30
0.0
  0
SEQEND
  8
0
  0
POLYLINE
  8
0
 62
0
 70
0
 66
1
 10
0.0
 20
0.0
 30
0.0
  0
VERTEX
  8
0
 10
123.80459
 20
180.43487
 30
0.0
  0
VERTEX
  8
0
 10
124.93568
 20
181.55406
 30
0.0
  0
SEQEND
  8
0
  0
POLYLINE
  8
0
 62
0
 70
0
 66
1
 10
0.0
 20
0.0
 30
0.0
  0
VERTEX
  8
0
 10
124.93568
 20
181.55406
 30
0.0
  0
VERTEX
  8
0
 10
126.04296
 20
182.74468
 30
0.0
  0
SEQEND
  8
0
  0
POLYLINE
  8
0
 62
0
 70
0
 66
1
 10
0.0
 20
0.0
 30
0.0
  0
VERTEX
  8
0
 10
133.68678
 20
178.36319
 30
0.0
  0
VERTEX
  8
0
 10
133.66298
 20
179.55381
 30
0.0
  0
SEQEND
  8
0
  0
POLYLINE
  8
0
 62
0
 70
0
 66
1
 10
0.0
 20
0.0
 30
0.0
  0
VERTEX
  8
0
 10
133.66298
 20
179.55381
 30
0.0
  0
VERTEX
  8
0
 10
133.59158
 20
180.673
 30
0.0
  0
SEQEND
  8
0
  0
POLYLINE
  8
0
 62
0
 70
0
 66
1
 10
0.0
 20
0.0
 30
0.0
  0
VERTEX
  8
0
 10
133.59158
 20
180.673
 30
0.0
  0
VERTEX
  8
0
 10
132.72242
 20
180.80397
 30
0.0
  0
SEQEND
  8
0
  0
POLYLINE
  8
0
 62
0
 70
0
 66
1
 10
0.0
 20
0.0
 30
0.0
  0
VERTEX
  8
0
 10
132.72242
 20
180.80397
 30
0.0
  0
VERTEX
  8
0
 10
131.71039
 20
180.91112
 30
0.0
  0
SEQEND
  8
0
  0
POLYLINE
  8
0
 62
0
 70
0
 66
1
 10
0.0
 20
0.0
 30
0.0
  0
VERTEX
  8
0
 10
131.71039
 20
180.91112
 30
0.0
  0
VERTEX
  8
0
 10
130.93648
 20
179.61334
 30
0.0
  0
SEQEND
  8
0
  0
POLYLINE
  8
0
 62
0
 70
0
 66
1
 10
0.0
 20
0.0
 30
0.0
  0
VERTEX
  8
0
 10
130.93648
 20
179.61334
 30
0.0
  0
VERTEX
  8
0
 10
130.06733
 20
178.14887
 30
0.0
  0
SEQEND
  8
0
  0
POLYLINE
  8
0
 62
0
 70
0
 66
1
 10
0.0
 20
0.0
 30
0.0
  0
VERTEX
  8
0
 10
130.06733
 20
178.14887
 30
0.0
  0
VERTEX
  8
0
 10
132.17473
 20
178.26794
 30
0.0
  0
SEQEND
  8
0
  0
POLYLINE
  8
0
 62
0
 70
0
 66
1
 10
0.0
 20
0.0
 30
0.0
  0
VERTEX
  8
0
 10
132.17473
 20
178.26794
 30
0.0
  0
VERTEX
  8
0
 10
133.68683
 20
178.36324
 30
0.0
  0
SEQEND
  8
0
  0
POLYLINE
  8
0
 62
0
 70
0
 66
1
 10
0.0
 20
0.0
 30
0.0
  0
VERTEX
  8
0
 10
135.21078
 20
170.79081
 30
0.0
  0
VERTEX
  8
0
 10
134.66309
 20
170.54078
 30
0.0
  0
SEQEND
  8
0
  0
POLYLINE
  8
0
 62
0
 70
0
 66
1
 10
0.0
 20
0.0
 30
0.0
  0
VERTEX
  8
0
 10
134.66309
 20
170.54078
 30
0.0
  0
VERTEX
  8
0
 10
133.99634
 20
170.29075
 30
0.0
  0
SEQEND
  8
0
  0
POLYLINE
  8
0
 62
0
 70
0
 66
1
 10
0.0
 20
0.0
 30
0.0
  0
VERTEX
  8
0
 10
133.87728
 20
170.50506
 30
0.0
  0
VERTEX
  8
0
 10
134.47259
 20
170.73128
 30
0.0
  0
SEQEND
  8
0
  0
POLYLINE
  8
0
 62
0
 70
0
 66
1
 10
0.0
 20
0.0
 30
0.0
  0
VERTEX
  8
0
 10
134.47259
 20
170.73128
 30
0.0
  0
VERTEX
  8
0
 10
135.09171
 20
171.00512
 30
0.0
  0
SEQEND
  8
0
  0
POLYLINE
  8
0
 62
0
 70
0
 66
1
 10
0.0
 20
0.0
 30
0.0
  0
VERTEX
  8
0
 10
135.52034
 20
172.05287
 30
0.0
  0
VERTEX
  8
0
 10
134.44878
 20
171.50519
 30
0.0
  0
SEQEND
  8
0
  0
POLYLINE
  8
0
 62
0
 70
0
 66
1
 10
0.0
 20
0.0
 30
0.0
  0
VERTEX
  8
0
 10
134.44878
 20
171.50519
 30
0.0
  0
VERTEX
  8
0
 10
132.92478
 20
170.74319
 30
0.0
  0
SEQEND
  8
0
  0
POLYLINE
  8
0
 62
0
 70
0
 66
1
 10
0.0
 20
0.0
 30
0.0
  0
VERTEX
  8
0
 10
132.71046
 20
171.10037
 30
0.0
  0
VERTEX
  8
0
 10
134.27018
 20
171.88619
 30
0.0
  0
SEQEND
  8
0
  0
POLYLINE
  8
0
 62
0
 70
0
 66
1
 10
0.0
 20
0.0
 30
0.0
  0
VERTEX
  8
0
 10
134.27018
 20
171.88619
 30
0.0
  0
VERTEX
  8
0
 10
135.32984
 20
172.41006
 30
0.0
  0
SEQEND
  8
0
  0
POLYLINE
  8
0
 62
0
 70
0
 66
1
 10
0.0
 20
0.0
 30
0.0
  0
VERTEX
  8
0
 10
135.54414
 20
176.98206
 30
0.0
  0
VERTEX
  8
0
 10
132.13895
 20
176.863
 30
0.0
  0
SEQEND
  8
0
  0
POLYLINE
  8
0
 62
0
 70
0
 66
1
 10
0.0
 20
0.0
 30
0.0
  0
VERTEX
  8
0
 10
132.13895
 20
176.863
 30
0.0
  0
VERTEX
  8
0
 10
130.18633
 20
176.6725
 30
0.0
  0
SEQEND
  8
0
  0
POLYLINE
  8
0
 62
0
 70
0
 66
1
 10
0.0
 20
0.0
 30
0.0
  0
VERTEX
  8
0
 10
130.18633
 20
176.6725
 30
0.0
  0
VERTEX
  8
0
 10
130.41254
 20
175.58903
 30
0.0
  0
SEQEND
  8
0
  0
POLYLINE
  8
0
 62
0
 70
0
 66
1
 10
0.0
 20
0.0
 30
0.0
  0
VERTEX
  8
0
 10
130.41254
 20
175.58903
 30
0.0
  0
VERTEX
  8
0
 10
130.66258
 20
174.60081
 30
0.0
  0
SEQEND
  8
0
  0
POLYLINE
  8
0
 62
0
 70
0
 66
1
 10
0.0
 20
0.0
 30
0.0
  0
VERTEX
  8
0
 10
130.66258
 20
174.60081
 30
0.0
  0
VERTEX
  8
0
 10
131.48411
 20
173.92215
 30
0.0
  0
SEQEND
  8
0
  0
POLYLINE
  8
0
 62
0
 70
0
 66
1
 10
0.0
 20
0.0
 30
0.0
  0
VERTEX
  8
0
 10
131.48411
 20
173.92215
 30
0.0
  0
VERTEX
  8
0
 10
132.16276
 20
173.434
 30
0.0
  0
SEQEND
  8
0
  0
POLYLINE
  8
0
 62
0
 70
0
 66
1
 10
0.0
 20
0.0
 30
0.0
  0
VERTEX
  8
0
 10
132.16276
 20
173.434
 30
0.0
  0
VERTEX
  8
0
 10
133.81773
 20
174.18409
 30
0.0
  0
SEQEND
  8
0
  0
POLYLINE
  8
0
 62
0
 70
0
 66
1
 10
0.0
 20
0.0
 30
0.0
  0
VERTEX
  8
0
 10
133.81773
 20
174.18409
 30
0.0
  0
VERTEX
  8
0
 10
135.11551
 20
174.81512
 30
0.0
  0
SEQEND
  8
0
  0
POLYLINE
  8
0
 62
0
 70
0
 66
1
 10
0.0
 20
0.0
 30
0.0
  0
VERTEX
  8
0
 10
135.11551
 20
174.81512
 30
0.0
  0
VERTEX
  8
0
 10
135.18691
 20
174.02931
 30
0.0
  0
SEQEND
  8
0
  0
POLYLINE
  8
0
 62
0
 70
0
 66
1
 10
0.0
 20
0.0
 30
0.0
  0
VERTEX
  8
0
 10
135.18691
 20
174.02931
 30
0.0
  0
VERTEX
  8
0
 10
135.23451
 20
173.29112
 30
0.0
  0
SEQEND
  8
0
  0
POLYLINE
  8
0
 62
0
 70
0
 66
1
 10
0.0
 20
0.0
 30
0.0
  0
VERTEX
  8
0
 10
135.23451
 20
173.29112
 30
0.0
  0
VERTEX
  8
0
 10
132.09126
 20
171.7195
 30
0.0
  0
SEQEND
  8
0
  0
POLYLINE
  8
0
 62
0
 70
0
 66
1
 10
0.0
 20
0.0
 30
0.0
  0
VERTEX
  8
0
 10
132.09126
 20
171.7195
 30
0.0
  0
VERTEX
  8
0
 10
130.76967
 20
172.54103
 30
0.0
  0
SEQEND
  8
0
  0
POLYLINE
  8
0
 62
0
 70
0
 66
1
 10
0.0
 20
0.0
 30
0.0
  0
VERTEX
  8
0
 10
130.76967
 20
172.54103
 30
0.0
  0
VERTEX
  8
0
 10
129.16233
 20
173.55306
 30
0.0
  0
SEQEND
  8
0
  0
POLYLINE
  8
0
 62
0
 70
0
 66
1
 10
0.0
 20
0.0
 30
0.0
  0
VERTEX
  8
0
 10
129.16233
 20
173.55306
 30
0.0
  0
VERTEX
  8
0
 10
128.09076
 20
178.05362
 30
0.0
  0
SEQEND
  8
0
  0
POLYLINE
  8
0
 62
0
 70
0
 66
1
 10
0.0
 20
0.0
 30
0.0
  0
VERTEX
  8
0
 10
128.09076
 20
178.05362
 30
0.0
  0
VERTEX
  8
0
 10
130.32914
 20
181.38737
 30
0.0
  0
SEQEND
  8
0
  0
POLYLINE
  8
0
 62
0
 70
0
 66
1
 10
0.0
 20
0.0
 30
0.0
  0
VERTEX
  8
0
 10
132.09126
 20
182.48275
 30
0.0
  0
VERTEX
  8
0
 10
134.92495
 20
181.83981
 30
0.0
  0
SEQEND
  8
0
  0
POLYLINE
  8
0
 62
0
 70
0
 66
1
 10
0.0
 20
0.0
 30
0.0
  0
VERTEX
  8
0
 10
134.92495
 20
181.83981
 30
0.0
  0
VERTEX
  8
0
 10
135.27023
 20
179.10137
 30
0.0
  0
SEQEND
  8
0
  0
POLYLINE
  8
0
 62
0
 70
0
 66
1
 10
0.0
 20
0.0
 30
0.0
  0
VERTEX
  8
0
 10
135.27023
 20
179.10137
 30
0.0
  0
VERTEX
  8
0
 10
135.54407
 20
176.98206
 30
0.0
  0
SEQEND
  8
0
  0
POLYLINE
  8
0
 62
0
 70
0
 66
1
 10
0.0
 20
0.0
 30
0.0
  0
VERTEX
  8
0
 10
136.68714
 20
175.74376
 30
0.0
  0
VERTEX
  8
0
 10
137.02051
 20
174.94604
 30
0.0
  0
SEQEND
  8
0
  0
POLYLINE
  8
0
 62
0
 70
0
 66
1
 10
0.0
 20
0.0
 30
0.0
  0
VERTEX
  8
0
 10
137.02051
 20
174.94604
 30
0.0
  0
VERTEX
  8
0
 10
137.44914
 20
173.95782
 30
0.0
  0
SEQEND
  8
0
  0
POLYLINE
  8
0
 62
0
 70
0
 66
1
 10
0.0
 20
0.0
 30
0.0
  0
VERTEX
  8
0
 10
138.68739
 20
173.02921
 30
0.0
  0
VERTEX
  8
0
 10
138.15161
 20
174.30318
 30
0.0
  0
SEQEND
  8
0
  0
POLYLINE
  8
0
 62
0
 70
0
 66
1
 10
0.0
 20
0.0
 30
0.0
  0
VERTEX
  8
0
 10
138.15161
 20
174.30318
 30
0.0
  0
VERTEX
  8
0
 10
137.25864
 20
176.52965
 30
0.0
  0
SEQEND
  8
0
  0
POLYLINE
  8
0
 62
0
 70
0
 66
1
 10
0.0
 20
0.0
 30
0.0
  0
VERTEX
  8
0
 10
137.63964
 20
176.69633
 30
0.0
  0
VERTEX
  8
0
 10
138.53261
 20
174.46987
 30
0.0
  0
SEQEND
  8
0
  0
POLYLINE
  8
0
 62
0
 70
0
 66
1
 10
0.0
 20
0.0
 30
0.0
  0
VERTEX
  8
0
 10
138.53261
 20
174.46987
 30
0.0
  0
VERTEX
  8
0
 10
139.06839
 20
173.1959
 30
0.0
  0
SEQEND
  8
0
  0
POLYLINE
  8
0
 62
0
 70
0
 66
1
 10
0.0
 20
0.0
 30
0.0
  0
VERTEX
  8
0
 10
145.06914
 20
180.67303
 30
0.0
  0
VERTEX
  8
0
 10
144.99774
 20
179.12521
 30
0.0
  0
SEQEND
  8
0
  0
POLYLINE
  8
0
 62
0
 70
0
 66
1
 10
0.0
 20
0.0
 30
0.0
  0
VERTEX
  8
0
 10
144.99774
 20
179.12521
 30
0.0
  0
VERTEX
  8
0
 10
144.56912
 20
178.99425
 30
0.0
  0
SEQEND
  8
0
  0
POLYLINE
  8
0
 62
0
 70
0
 66
1
 10
0.0
 20
0.0
 30
0.0
  0
VERTEX
  8
0
 10
144.56912
 20
178.99425
 30
0.0
  0
VERTEX
  8
0
 10
144.11668
 20
178.88709
 30
0.0
  0
SEQEND
  8
0
  0
POLYLINE
  8
0
 62
0
 70
0
 66
1
 10
0.0
 20
0.0
 30
0.0
  0
VERTEX
  8
0
 10
144.11668
 20
178.88709
 30
0.0
  0
VERTEX
  8
0
 10
143.1284625
 20
175.425345
 30
0.0
  0
VERTEX
  8
0
 10
142.2593
 20
172.422
 30
0.0
  0
SEQEND
  8
0
  0
POLYLINE
  8
0
 62
0
 70
0
 66
1
 10
0.0
 20
0.0
 30
0.0
  0
VERTEX
  8
0
 10
142.2593
 20
172.422
 30
0.0
  0
VERTEX
  8
0
 10
140.83055
 20
167.71903
 30
0.0
  0
SEQEND
  8
0
  0
POLYLINE
  8
0
 62
0
 70
0
 66
1
 10
0.0
 20
0.0
 30
0.0
  0
VERTEX
  8
0
 10
140.83055
 20
167.71903
 30
0.0
  0
VERTEX
  8
0
 10
137.52062
 20
166.43315
 30
0.0
  0
SEQEND
  8
0
  0
POLYLINE
  8
0
 62
0
 70
0
 66
1
 10
0.0
 20
0.0
 30
0.0
  0
VERTEX
  8
0
 10
137.52062
 20
166.43315
 30
0.0
  0
VERTEX
  8
0
 10
135.90137
 20
169.12397
 30
0.0
  0
SEQEND
  8
0
  0
POLYLINE
  8
0
 62
0
 70
0
 66
1
 10
0.0
 20
0.0
 30
0.0
  0
VERTEX
  8
0
 10
135.90137
 20
169.12397
 30
0.0
  0
VERTEX
  8
0
 10
137.03246
 20
169.39781
 30
0.0
  0
SEQEND
  8
0
  0
POLYLINE
  8
0
 62
0
 70
0
 66
1
 10
0.0
 20
0.0
 30
0.0
  0
VERTEX
  8
0
 10
137.03246
 20
169.39781
 30
0.0
  0
VERTEX
  8
0
 10
137.66349
 20
169.52878
 30
0.0
  0
SEQEND
  8
0
  0
POLYLINE
  8
0
 62
0
 70
0
 66
1
 10
0.0
 20
0.0
 30
0.0
  0
VERTEX
  8
0
 10
137.66349
 20
169.52878
 30
0.0
  0
VERTEX
  8
0
 10
137.91352
 20
168.95728
 30
0.0
  0
SEQEND
  8
0
  0
POLYLINE
  8
0
 62
0
 70
0
 66
1
 10
0.0
 20
0.0
 30
0.0
  0
VERTEX
  8
0
 10
137.91352
 20
168.95728
 30
0.0
  0
VERTEX
  8
0
 10
138.2588
 20
168.19528
 30
0.0
  0
SEQEND
  8
0
  0
POLYLINE
  8
0
 62
0
 70
0
 66
1
 10
0.0
 20
0.0
 30
0.0
  0
VERTEX
  8
0
 10
138.2588
 20
168.19528
 30
0.0
  0
VERTEX
  8
0
 10
139.30655
 20
168.57628
 30
0.0
  0
SEQEND
  8
0
  0
POLYLINE
  8
0
 62
0
 70
0
 66
1
 10
0.0
 20
0.0
 30
0.0
  0
VERTEX
  8
0
 10
139.30655
 20
168.57628
 30
0.0
  0
VERTEX
  8
0
 10
140.23524
 20
172.48153
 30
0.0
  0
SEQEND
  8
0
  0
POLYLINE
  8
0
 62
0
 70
0
 66
1
 10
0.0
 20
0.0
 30
0.0
  0
VERTEX
  8
0
 10
140.23524
 20
172.48153
 30
0.0
  0
VERTEX
  8
0
 10
139.50896
 20
174.38653
 30
0.0
  0
SEQEND
  8
0
  0
POLYLINE
  8
0
 62
0
 70
0
 66
1
 10
0.0
 20
0.0
 30
0.0
  0
VERTEX
  8
0
 10
139.50896
 20
174.38653
 30
0.0
  0
VERTEX
  8
0
 10
137.92543
 20
178.22034
 30
0.0
  0
SEQEND
  8
0
  0
POLYLINE
  8
0
 62
0
 70
0
 66
1
 10
0.0
 20
0.0
 30
0.0
  0
VERTEX
  8
0
 10
137.92543
 20
178.22034
 30
0.0
  0
VERTEX
  8
0
 10
137.3063
 20
177.83934
 30
0.0
  0
SEQEND
  8
0
  0
POLYLINE
  8
0
 62
0
 70
0
 66
1
 10
0.0
 20
0.0
 30
0.0
  0
VERTEX
  8
0
 10
137.3063
 20
177.83934
 30
0.0
  0
VERTEX
  8
0
 10
136.85387
 20
177.55359
 30
0.0
  0
SEQEND
  8
0
  0
POLYLINE
  8
0
 62
0
 70
0
 66
1
 10
0.0
 20
0.0
 30
0.0
  0
VERTEX
  8
0
 10
136.85387
 20
177.55359
 30
0.0
  0
VERTEX
  8
0
 10
136.50859
 20
178.1489
 30
0.0
  0
SEQEND
  8
0
  0
POLYLINE
  8
0
 62
0
 70
0
 66
1
 10
0.0
 20
0.0
 30
0.0
  0
VERTEX
  8
0
 10
136.50859
 20
178.1489
 30
0.0
  0
VERTEX
  8
0
 10
136.23474
 20
178.64897
 30
0.0
  0
SEQEND
  8
0
  0
POLYLINE
  8
0
 62
0
 70
0
 66
1
 10
0.0
 20
0.0
 30
0.0
  0
VERTEX
  8
0
 10
136.23474
 20
178.64897
 30
0.0
  0
VERTEX
  8
0
 10
137.71112
 20
179.73243
 30
0.0
  0
SEQEND
  8
0
  0
POLYLINE
  8
0
 62
0
 70
0
 66
1
 10
0.0
 20
0.0
 30
0.0
  0
VERTEX
  8
0
 10
137.71112
 20
179.73243
 30
0.0
  0
VERTEX
  8
0
 10
140.37812
 20
181.60171
 30
0.0
  0
SEQEND
  8
0
  0
POLYLINE
  8
0
 62
0
 70
0
 66
1
 10
0.0
 20
0.0
 30
0.0
  0
VERTEX
  8
0
 10
140.37812
 20
181.60171
 30
0.0
  0
VERTEX
  8
0
 10
140.66387
 20
180.17296
 30
0.0
  0
SEQEND
  8
0
  0
POLYLINE
  8
0
 62
0
 70
0
 66
1
 10
0.0
 20
0.0
 30
0.0
  0
VERTEX
  8
0
 10
140.66387
 20
180.17296
 30
0.0
  0
VERTEX
  8
0
 10
139.9733
 20
179.55384
 30
0.0
  0
SEQEND
  8
0
  0
POLYLINE
  8
0
 62
0
 70
0
 66
1
 10
0.0
 20
0.0
 30
0.0
  0
VERTEX
  8
0
 10
139.9733
 20
179.55384
 30
0.0
  0
VERTEX
  8
0
 10
139.56849
 20
179.22046
 30
0.0
  0
SEQEND
  8
0
  0
POLYLINE
  8
0
 62
0
 70
0
 66
1
 10
0.0
 20
0.0
 30
0.0
  0
VERTEX
  8
0
 10
139.56849
 20
179.22046
 30
0.0
  0
VERTEX
  8
0
 10
140.3543
 20
176.86303
 30
0.0
  0
SEQEND
  8
0
  0
POLYLINE
  8
0
 62
0
 70
0
 66
1
 10
0.0
 20
0.0
 30
0.0
  0
VERTEX
  8
0
 10
140.3543
 20
176.86303
 30
0.0
  0
VERTEX
  8
0
 10
141.18774
 20
174.50559
 30
0.0
  0
SEQEND
  8
0
  0
POLYLINE
  8
0
 62
0
 70
0
 66
1
 10
0.0
 20
0.0
 30
0.0
  0
VERTEX
  8
0
 10
141.18774
 20
174.50559
 30
0.0
  0
VERTEX
  8
0
 10
142.08071
 20
177.25593
 30
0.0
  0
SEQEND
  8
0
  0
POLYLINE
  8
0
 62
0
 70
0
 66
1
 10
0.0
 20
0.0
 30
0.0
  0
VERTEX
  8
0
 10
142.08071
 20
177.25593
 30
0.0
  0
VERTEX
  8
0
 10
142.54505
 20
178.69659
 30
0.0
  0
SEQEND
  8
0
  0
POLYLINE
  8
0
 62
0
 70
0
 66
1
 10
0.0
 20
0.0
 30
0.0
  0
VERTEX
  8
0
 10
142.54505
 20
178.69659
 30
0.0
  0
VERTEX
  8
0
 10
141.93784
 20
178.58943
 30
0.0
  0
SEQEND
  8
0
  0
POLYLINE
  8
0
 62
0
 70
0
 66
1
 10
0.0
 20
0.0
 30
0.0
  0
VERTEX
  8
0
 10
141.93784
 20
178.58943
 30
0.0
  0
VERTEX
  8
0
 10
141.54493
 20
178.50613
 30
0.0
  0
SEQEND
  8
0
  0
POLYLINE
  8
0
 62
0
 70
0
 66
1
 10
0.0
 20
0.0
 30
0.0
  0
VERTEX
  8
0
 10
141.54493
 20
178.50613
 30
0.0
  0
VERTEX
  8
0
 10
141.37824
 20
179.38719
 30
0.0
  0
SEQEND
  8
0
  0
POLYLINE
  8
0
 62
0
 70
0
 66
1
 10
0.0
 20
0.0
 30
0.0
  0
VERTEX
  8
0
 10
141.37824
 20
179.38719
 30
0.0
  0
VERTEX
  8
0
 10
141.30684
 20
179.86344
 30
0.0
  0
SEQEND
  8
0
  0
POLYLINE
  8
0
 62
0
 70
0
 66
1
 10
0.0
 20
0.0
 30
0.0
  0
VERTEX
  8
0
 10
141.30684
 20
179.86344
 30
0.0
  0
VERTEX
  8
0
 10
143.24756
 20
180.28016
 30
0.0
  0
SEQEND
  8
0
  0
POLYLINE
  8
0
 62
0
 70
0
 66
1
 10
0.0
 20
0.0
 30
0.0
  0
VERTEX
  8
0
 10
143.24756
 20
180.28016
 30
0.0
  0
VERTEX
  8
0
 10
145.06921
 20
180.67307
 30
0.0
  0
SEQEND
  8
0
  0
POLYLINE
  8
0
 62
0
 70
0
 66
1
 10
0.0
 20
0.0
 30
0.0
  0
VERTEX
  8
0
 10
144.40239
 20
175.38665
 30
0.0
  0
VERTEX
  8
0
 10
143.05699
 20
170.82656
 30
0.0
  0
SEQEND
  8
0
  0
POLYLINE
  8
0
 62
0
 70
0
 66
1
 10
0.0
 20
0.0
 30
0.0
  0
VERTEX
  8
0
 10
143.05699
 20
170.82656
 30
0.0
  0
VERTEX
  8
0
 10
142.42595
 20
168.52865
 30
0.0
  0
SEQEND
  8
0
  0
POLYLINE
  8
0
 62
0
 70
0
 66
1
 10
0.0
 20
0.0
 30
0.0
  0
VERTEX
  8
0
 10
142.04495
 20
168.64772
 30
0.0
  0
VERTEX
  8
0
 10
143.12842
 20
172.67203
 30
0.0
  0
SEQEND
  8
0
  0
POLYLINE
  8
0
 62
0
 70
0
 66
1
 10
0.0
 20
0.0
 30
0.0
  0
VERTEX
  8
0
 10
143.12842
 20
172.67203
 30
0.0
  0
VERTEX
  8
0
 10
143.99758
 20
175.52953
 30
0.0
  0
SEQEND
  8
0
  0
POLYLINE
  8
0
 62
0
 70
0
 66
1
 10
0.0
 20
0.0
 30
0.0
  0
VERTEX
  8
0
 10
144.97389
 20
173.83884
 30
0.0
  0
VERTEX
  8
0
 10
144.35477
 20
171.82668
 30
0.0
  0
SEQEND
  8
0
  0
POLYLINE
  8
0
 62
0
 70
0
 66
1
 10
0.0
 20
0.0
 30
0.0
  0
VERTEX
  8
0
 10
144.35477
 20
171.82668
 30
0.0
  0
VERTEX
  8
0
 10
143.6642
 20
169.79072
 30
0.0
  0
SEQEND
  8
0
  0
POLYLINE
  8
0
 62
0
 70
0
 66
1
 10
0.0
 20
0.0
 30
0.0
  0
VERTEX
  8
0
 10
143.44989
 20
169.88602
 30
0.0
  0
VERTEX
  8
0
 10
144.28333
 20
172.41014
 30
0.0
  0
SEQEND
  8
0
  0
POLYLINE
  8
0
 62
0
 70
0
 66
1
 10
0.0
 20
0.0
 30
0.0
  0
VERTEX
  8
0
 10
144.28333
 20
172.41014
 30
0.0
  0
VERTEX
  8
0
 10
144.75958
 20
173.91033
 30
0.0
  0
SEQEND
  8
0
  0
POLYLINE
  8
0
 62
0
 70
0
 66
1
 10
0.0
 20
0.0
 30
0.0
  0
VERTEX
  8
0
 10
111.1125
 20
180.62537
 30
0.0
  0
VERTEX
  8
0
 10
107.61206
 20
177.83931
 30
0.0
  0
SEQEND
  8
0
  0
POLYLINE
  8
0
 62
0
 70
0
 66
1
 10
0.0
 20
0.0
 30
0.0
  0
VERTEX
  8
0
 10
116.82761
 20
179.76812
 30
0.0
  0
VERTEX
  8
0
 10
116.75621
 20
181.00637
 30
0.0
  0
VERTEX
  8
0
 10
117.16103
 20
181.03017
 30
0.0
  0
VERTEX
  8
0
 10
117.23243
 20
179.79192
 30
0.0
  0
SEQEND
  8
0
  0
POLYLINE
  8
0
 62
0
 70
0
 66
1
 10
0.0
 20
0.0
 30
0.0
  0
VERTEX
  8
0
 10
115.70834
 20
171.148
 30
0.0
  0
VERTEX
  8
0
 10
115.87503
 20
170.93369
 30
0.0
  0
SEQEND
  8
0
  0
POLYLINE
  8
0
 62
0
 70
0
 66
1
 10
0.0
 20
0.0
 30
0.0
  0
VERTEX
  8
0
 10
115.77983
 20
180.38725
 30
0.0
  0
VERTEX
  8
0
 10
116.01795
 20
180.41105
 30
0.0
  0
SEQEND
  8
0
  0
POLYLINE
  8
0
 62
0
 70
0
 66
1
 10
0.0
 20
0.0
 30
0.0
  0
VERTEX
  8
0
 10
113.87478
 20
170.14787
 30
0.0
  0
VERTEX
  8
0
 10
113.51759
 20
170.36219
 30
0.0
  0
SEQEND
  8
0
  0
POLYLINE
  8
0
 62
0
 70
0
 66
1
 10
0.0
 20
0.0
 30
0.0
  0
VERTEX
  8
0
 10
115.73215
 20
172.74344
 30
0.0
  0
VERTEX
  8
0
 10
116.06553
 20
172.4815
 30
0.0
  0
SEQEND
  8
0
  0
POLYLINE
  8
0
 62
0
 70
0
 66
1
 10
0.0
 20
0.0
 30
0.0
  0
VERTEX
  8
0
 10
112.27931
 20
178.50606
 30
0.0
  0
VERTEX
  8
0
 10
112.42218
 20
179.62525
 30
0.0
  0
SEQEND
  8
0
  0
POLYLINE
  8
0
 62
0
 70
0
 66
1
 10
0.0
 20
0.0
 30
0.0
  0
VERTEX
  8
0
 10
116.27989
 20
176.55343
 30
0.0
  0
VERTEX
  8
0
 10
116.0179
 20
176.55344
 30
0.0
  0
SEQEND
  8
0
  0
POLYLINE
  8
0
 62
0
 70
0
 66
1
 10
0.0
 20
0.0
 30
0.0
  0
VERTEX
  8
0
 10
116.87523
 20
185.95937
 30
0.0
  0
VERTEX
  8
0
 10
116.87523
 20
187.95962
 30
0.0
  0
SEQEND
  8
0
  0
POLYLINE
  8
0
 62
0
 70
0
 66
1
 10
0.0
 20
0.0
 30
0.0
  0
VERTEX
  8
0
 10
121.54248
 20
185.12593
 30
0.0
  0
VERTEX
  8
0
 10
120.13754
 20
185.50693
 30
0.0
  0
SEQEND
  8
0
  0
POLYLINE
  8
0
 62
0
 70
0
 66
1
 10
0.0
 20
0.0
 30
0.0
  0
VERTEX
  8
0
 10
114.89871
 20
170.02881
 30
0.0
  0
VERTEX
  8
0
 10
114.73203
 20
170.21931
 30
0.0
  0
SEQEND
  8
0
  0
POLYLINE
  8
0
 62
0
 70
0
 66
1
 10
0.0
 20
0.0
 30
0.0
  0
VERTEX
  8
0
 10
117.42289
 20
175.88667
 30
0.0
  0
VERTEX
  8
0
 10
116.99421
 20
175.88669
 30
0.0
  0
SEQEND
  8
0
  0
POLYLINE
  8
0
 62
0
 70
0
 66
1
 10
0.0
 20
0.0
 30
0.0
  0
VERTEX
  8
0
 10
137.25864
 20
176.52965
 30
0.0
  0
VERTEX
  8
0
 10
137.63964
 20
176.69633
 30
0.0
  0
SEQEND
  8
0
  0
POLYLINE
  8
0
 62
0
 70
0
 66
1
 10
0.0
 20
0.0
 30
0.0
  0
VERTEX
  8
0
 10
142.42595
 20
168.52865
 30
0.0
  0
VERTEX
  8
0
 10
142.04495
 20
168.64772
 30
0.0
  0
SEQEND
  8
0
  0
POLYLINE
  8
0
 62
0
 70
0
 66
1
 10
0.0
 20
0.0
 30
0.0
  0
VERTEX
  8
0
 10
143.99758
 20
175.52953
 30
0.0
  0
VERTEX
  8
0
 10
144.40239
 20
175.38665
 30
0.0
  0
SEQEND
  8
0
  0
POLYLINE
  8
0
 62
0
 70
0
 66
1
 10
0.0
 20
0.0
 30
0.0
  0
VERTEX
  8
0
 10
139.06839
 20
173.1959
 30
0.0
  0
VERTEX
  8
0
 10
138.68739
 20
173.02921
 30
0.0
  0
SEQEND
  8
0
  0
POLYLINE
  8
0
 62
0
 70
0
 66
1
 10
0.0
 20
0.0
 30
0.0
  0
VERTEX
  8
0
 10
143.6642
 20
169.79072
 30
0.0
  0
VERTEX
  8
0
 10
143.44989
 20
169.88602
 30
0.0
  0
SEQEND
  8
0
  0
POLYLINE
  8
0
 62
0
 70
0
 66
1
 10
0.0
 20
0.0
 30
0.0
  0
VERTEX
  8
0
 10
137.44914
 20
173.95782
 30
0.0
  0
VERTEX
  8
0
 10
137.80633
 20
173.17201
 30
0.0
  0
VERTEX
  8
0
 10
137.59201
 20
173.07681
 30
0.0
  0
SEQEND
  8
0
  0
POLYLINE
  8
0
 62
0
 70
0
 66
1
 10
0.0
 20
0.0
 30
0.0
  0
VERTEX
  8
0
 10
144.75958
 20
173.91033
 30
0.0
  0
VERTEX
  8
0
 10
144.97389
 20
173.83884
 30
0.0
  0
SEQEND
  8
0
  0
POLYLINE
  8
0
 62
0
 70
0
 66
1
 10
0.0
 20
0.0
 30
0.0
  0
VERTEX
  8
0
 10
96.063027
 20
185.17356
 30
0.0
  0
VERTEX
  8
0
 10
96.396402
 20
184.91162
 30
0.0
  0
SEQEND
  8
0
  0
POLYLINE
  8
0
 62
0
 70
0
 66
1
 10
0.0
 20
0.0
 30
0.0
  0
VERTEX
  8
0
 10
95.705839
 20
181.6255
 30
0.0
  0
VERTEX
  8
0
 10
95.491527
 20
181.7207
 30
0.0
  0
SEQEND
  8
0
  0
POLYLINE
  8
0
 62
0
 70
0
 66
1
 10
0.0
 20
0.0
 30
0.0
  0
VERTEX
  8
0
 10
95.491527
 20
171.88619
 30
0.0
  0
VERTEX
  8
0
 10
95.634402
 20
172.1005
 30
0.0
  0
SEQEND
  8
0
  0
POLYLINE
  8
0
 62
0
 70
0
 66
1
 10
0.0
 20
0.0
 30
0.0
  0
VERTEX
  8
0
 10
94.539027
 20
181.19687
 30
0.0
  0
VERTEX
  8
0
 10
94.158027
 20
181.38737
 30
0.0
  0
SEQEND
  8
0
  0
POLYLINE
  8
0
 62
0
 70
0
 66
1
 10
0.0
 20
0.0
 30
0.0
  0
VERTEX
  8
0
 10
96.467839
 20
183.8162
 30
0.0
  0
VERTEX
  8
0
 10
96.682152
 20
183.69718
 30
0.0
  0
SEQEND
  8
0
  0
POLYLINE
  8
0
 62
0
 70
0
 66
1
 10
0.0
 20
0.0
 30
0.0
  0
VERTEX
  8
0
 10
96.063027
 20
185.17356
 30
0.0
  0
VERTEX
  8
0
 10
96.396402
 20
184.91162
 30
0.0
  0
SEQEND
  8
0
  0
POLYLINE
  8
0
 62
0
 70
0
 66
1
 10
0.0
 20
0.0
 30
0.0
  0
VERTEX
  8
0
 10
94.205652
 20
174.83893
 30
0.0
  0
VERTEX
  8
0
 10
94.205652
 20
174.14837
 30
0.0
  0
SEQEND
  8
0
  0
POLYLINE
  8
0
 62
0
 70
0
 66
1
 10
0.0
 20
0.0
 30
0.0
  0
VERTEX
  8
0
 10
94.539027
 20
181.19687
 30
0.0
  0
VERTEX
  8
0
 10
94.158027
 20
181.38737
 30
0.0
  0
SEQEND
  8
0
  0
POLYLINE
  8
0
 62
0
 70
0
 66
1
 10
0.0
 20
0.0
 30
0.0
  0
VERTEX
  8
0
 10
99.515839
 20
171.31469
 30
0.0
  0
VERTEX
  8
0
 10
99.301527
 20
170.9575
 30
0.0
  0
SEQEND
  8
0
  0
POLYLINE
  8
0
 62
0
 70
0
 66
1
 10
0.0
 20
0.0
 30
0.0
  0
VERTEX
  8
0
 10
95.491527
 20
171.88619
 30
0.0
  0
VERTEX
  8
0
 10
95.634402
 20
172.1005
 30
0.0
  0
SEQEND
  8
0
  0
POLYLINE
  8
0
 62
0
 70
0
 66
1
 10
0.0
 20
0.0
 30
0.0
  0
VERTEX
  8
0
 10
95.705839
 20
181.6255
 30
0.0
  0
VERTEX
  8
0
 10
95.491527
 20
181.7207
 30
0.0
  0
SEQEND
  8
0
  0
POLYLINE
  8
0
 62
0
 70
0
 66
1
 10
0.0
 20
0.0
 30
0.0
  0
VERTEX
  8
0
 10
98.182339
 20
170.69556
 30
0.0
  0
VERTEX
  8
0
 10
98.087089
 20
170.48125
 30
0.0
  0
SEQEND
  8
0
  0
POLYLINE
  8
0
 62
0
 70
0
 66
1
 10
0.0
 20
0.0
 30
0.0
  0
VERTEX
  8
0
 10
95.801089
 20
172.76725
 30
0.0
  0
VERTEX
  8
0
 10
96.039214
 20
173.12444
 30
0.0
  0
SEQEND
  8
0
  0
POLYLINE
  8
0
 62
0
 70
0
 66
1
 10
0.0
 20
0.0
 30
0.0
  0
VERTEX
  8
0
 10
95.729655
 20
186.14987
 30
0.0
  0
VERTEX
  8
0
 10
99.68253
 20
188.76925
 30
0.0
  0
SEQEND
  8
0
  0
POLYLINE
  8
0
 62
0
 70
0
 66
1
 10
0.0
 20
0.0
 30
0.0
  0
VERTEX
  8
0
 10
96.467839
 20
183.8162
 30
0.0
  0
VERTEX
  8
0
 10
96.682152
 20
183.69718
 30
0.0
  0
SEQEND
  8
0
  0
POLYLINE
  8
0
 62
0
 70
0
 66
1
 10
0.0
 20
0.0
 30
0.0
  0
VERTEX
  8
0
 10
101.82569
 20
187.76912
 30
0.0
  0
VERTEX
  8
0
 10
102.08763
 20
187.79292
 30
0.0
  0
SEQEND
  8
0
  0
POLYLINE
  8
0
 62
0
 70
0
 66
1
 10
0.0
 20
0.0
 30
0.0
  0
VERTEX
  8
0
 10
102.325713
 20
182.55418
 30
0.0
  0
VERTEX
  8
0
 10
104.802213
 20
179.29187
 30
0.0
  0
SEQEND
  8
0
  0
POLYLINE
  8
0
 62
0
 70
0
 66
1
 10
0.0
 20
0.0
 30
0.0
  0
VERTEX
  8
0
 10
100.87313
 20
184.14962
 30
0.0
  0
VERTEX
  8
0
 10
100.87313
 20
184.72112
 30
0.0
  0
SEQEND
  8
0
  0
POLYLINE
  8
0
 62
0
 70
0
 66
1
 10
0.0
 20
0.0
 30
0.0
  0
VERTEX
  8
0
 10
100.51594
 20
188.79306
 30
0.0
  0
VERTEX
  8
0
 10
100.92076
 20
188.86446
 30
0.0
  0
SEQEND
  8
0
  0
POLYLINE
  8
0
 62
0
 70
0
 66
1
 10
0.0
 20
0.0
 30
0.0
  0
VERTEX
  8
0
 10
97.063155
 20
185.50693
 30
0.0
  0
VERTEX
  8
0
 10
96.229717
 20
185.03068
 30
0.0
  0
SEQEND
  8
0
  0
POLYLINE
  8
0
 62
0
 70
0
 66
1
 10
0.0
 20
0.0
 30
0.0
  0
VERTEX
  8
0
 10
101.27794
 20
184.60202
 30
0.0
  0
VERTEX
  8
0
 10
101.27794
 20
183.92336
 30
0.0
  0
SEQEND
  8
0
  0
POLYLINE
  8
0
 62
0
 70
0
 66
1
 10
0.0
 20
0.0
 30
0.0
  0
VERTEX
  8
0
 10
101.23034
 20
183.26852
 30
0.0
  0
VERTEX
  8
0
 10
100.82553
 20
183.31618
 30
0.0
  0
SEQEND
  8
0
  0
POLYLINE
  8
0
 62
0
 70
0
 66
1
 10
0.0
 20
0.0
 30
0.0
  0
VERTEX
  8
0
 10
102.25423
 20
184.41154
 30
0.0
  0
VERTEX
  8
0
 10
102.01615
 20
184.41156
 30
0.0
  0
SEQEND
  8
0
  0
POLYLINE
  8
0
 62
0
 70
0
 66
1
 10
0.0
 20
0.0
 30
0.0
  0
VERTEX
  8
0
 10
114.89871
 20
170.02881
 30
0.0
  0
VERTEX
  8
0
 10
114.73203
 20
170.21931
 30
0.0
  0
SEQEND
  8
0
  0
POLYLINE
  8
0
 62
0
 70
0
 66
1
 10
0.0
 20
0.0
 30
0.0
  0
VERTEX
  8
0
 10
101.27794
 20
184.60202
 30
0.0
  0
VERTEX
  8
0
 10
101.27794
 20
183.92336
 30
0.0
  0
SEQEND
  8
0
  0
POLYLINE
  8
0
 62
0
 70
0
 66
1
 10
0.0
 20
0.0
 30
0.0
  0
VERTEX
  8
0
 10
97.063155
 20
185.50693
 30
0.0
  0
VERTEX
  8
0
 10
96.229717
 20
185.03068
 30
0.0
  0
SEQEND
  8
0
  0
POLYLINE
  8
0
 62
0
 70
0
 66
1
 10
0.0
 20
0.0
 30
0.0
  0
VERTEX
  8
0
 10
101.82569
 20
187.76912
 30
0.0
  0
VERTEX
  8
0
 10
102.08763
 20
187.79292
 30
0.0
  0
SEQEND
  8
0
  0
POLYLINE
  8
0
 62
0
 70
0
 66
1
 10
0.0
 20
0.0
 30
0.0
  0
VERTEX
  8
0
 10
99.515839
 20
171.31469
 30
0.0
  0
VERTEX
  8
0
 10
99.301527
 20
170.9575
 30
0.0
  0
SEQEND
  8
0
  0
POLYLINE
  8
0
 62
0
 70
0
 66
1
 10
0.0
 20
0.0
 30
0.0
  0
VERTEX
  8
0
 10
102.325713
 20
182.55418
 30
0.0
  0
VERTEX
  8
0
 10
104.802213
 20
179.29187
 30
0.0
  0
SEQEND
  8
0
  0
POLYLINE
  8
0
 62
0
 70
0
 66
1
 10
0.0
 20
0.0
 30
0.0
  0
VERTEX
  8
0
 10
95.729655
 20
186.14987
 30
0.0
  0
VERTEX
  8
0
 10
99.68253
 20
188.76925
 30
0.0
  0
SEQEND
  8
0
  0
POLYLINE
  8
0
 62
0
 70
0
 66
1
 10
0.0
 20
0.0
 30
0.0
  0
VERTEX
  8
0
 10
100.51594
 20
188.79306
 30
0.0
  0
VERTEX
  8
0
 10
100.92076
 20
188.86446
 30
0.0
  0
SEQEND
  8
0
  0
POLYLINE
  8
0
 62
0
 70
0
 66
1
 10
0.0
 20
0.0
 30
0.0
  0
VERTEX
  8
0
 10
101.23034
 20
183.26852
 30
0.0
  0
VERTEX
  8
0
 10
100.82553
 20
183.31618
 30
0.0
  0
SEQEND
  8
0
  0
POLYLINE
  8
0
 62
0
 70
0
 66
1
 10
0.0
 20
0.0
 30
0.0
  0
VERTEX
  8
0
 10
102.25423
 20
184.41154
 30
0.0
  0
VERTEX
  8
0
 10
102.01615
 20
184.41156
 30
0.0
  0
SEQEND
  8
0
  0
POLYLINE
  8
0
 62
0
 70
0
 66
1
 10
0.0
 20
0.0
 30
0.0
  0
VERTEX
  8
0
 10
98.182339
 20
170.69556
 30
0.0
  0
VERTEX
  8
0
 10
98.087089
 20
170.48125
 30
0.0
  0
SEQEND
  8
0
  0
POLYLINE
  8
0
 62
0
 70
0
 66
1
 10
0.0
 20
0.0
 30
0.0
  0
VERTEX
  8
0
 10
95.801089
 20
172.76725
 30
0.0
  0
VERTEX
  8
0
 10
96.039214
 20
173.12444
 30
0.0
  0
SEQEND
  8
0
  0
POLYLINE
  8
0
 62
0
 70
0
 66
1
 10
0.0
 20
0.0
 30
0.0
  0
VERTEX
  8
0
 10
100.87313
 20
184.14962
 30
0.0
  0
VERTEX
  8
0
 10
100.87313
 20
184.72112
 30
0.0
  0
SEQEND
  8
0
  0
POLYLINE
  8
0
 62
0
 70
0
 66
1
 10
0.0
 20
0.0
 30
0.0
  0
VERTEX
  8
0
 10
135.32984
 20
172.41006
 30
0.0
  0
VERTEX
  8
0
 10
135.52034
 20
172.05287
 30
0.0
  0
SEQEND
  8
0
  0
POLYLINE
  8
0
 62
0
 70
0
 66
1
 10
0.0
 20
0.0
 30
0.0
  0
VERTEX
  8
0
 10
139.06839
 20
173.1959
 30
0.0
  0
VERTEX
  8
0
 10
138.68739
 20
173.02921
 30
0.0
  0
SEQEND
  8
0
  0
POLYLINE
  8
0
 62
0
 70
0
 66
1
 10
0.0
 20
0.0
 30
0.0
  0
VERTEX
  8
0
 10
143.99758
 20
175.52953
 30
0.0
  0
VERTEX
  8
0
 10
144.40239
 20
175.38665
 30
0.0
  0
SEQEND
  8
0
  0
POLYLINE
  8
0
 62
0
 70
0
 66
1
 10
0.0
 20
0.0
 30
0.0
  0
VERTEX
  8
0
 10
137.44914
 20
173.95782
 30
0.0
  0
VERTEX
  8
0
 10
137.80633
 20
173.17201
 30
0.0
  0
VERTEX
  8
0
 10
137.59201
 20
173.07681
 30
0.0
  0
SEQEND
  8
0
  0
POLYLINE
  8
0
 62
0
 70
0
 66
1
 10
0.0
 20
0.0
 30
0.0
  0
VERTEX
  8
0
 10
130.32914
 20
181.38737
 30
0.0
  0
VERTEX
  8
0
 10
132.09126
 20
182.48275
 30
0.0
  0
SEQEND
  8
0
  0
POLYLINE
  8
0
 62
0
 70
0
 66
1
 10
0.0
 20
0.0
 30
0.0
  0
VERTEX
  8
0
 10
132.92478
 20
170.74319
 30
0.0
  0
VERTEX
  8
0
 10
132.71046
 20
171.10037
 30
0.0
  0
SEQEND
  8
0
  0
POLYLINE
  8
0
 62
0
 70
0
 66
1
 10
0.0
 20
0.0
 30
0.0
  0
VERTEX
  8
0
 10
137.59201
 20
173.07681
 30
0.0
  0
VERTEX
  8
0
 10
136.75858
 20
174.91037
 30
0.0
  0
VERTEX
  8
0
 10
136.44901
 20
175.64856
 30
0.0
  0
VERTEX
  8
0
 10
136.68714
 20
175.74376
 30
0.0
  0
SEQEND
  8
0
  0
POLYLINE
  8
0
 62
0
 70
0
 66
1
 10
0.0
 20
0.0
 30
0.0
  0
VERTEX
  8
0
 10
137.25864
 20
176.52965
 30
0.0
  0
VERTEX
  8
0
 10
137.63964
 20
176.69633
 30
0.0
  0
SEQEND
  8
0
  0
POLYLINE
  8
0
 62
0
 70
0
 66
1
 10
0.0
 20
0.0
 30
0.0
  0
VERTEX
  8
0
 10
142.42595
 20
168.52865
 30
0.0
  0
VERTEX
  8
0
 10
142.04495
 20
168.64772
 30
0.0
  0
SEQEND
  8
0
  0
POLYLINE
  8
0
 62
0
 70
0
 66
1
 10
0.0
 20
0.0
 30
0.0
  0
VERTEX
  8
0
 10
143.6642
 20
169.79072
 30
0.0
  0
VERTEX
  8
0
 10
143.44989
 20
169.88602
 30
0.0
  0
SEQEND
  8
0
  0
POLYLINE
  8
0
 62
0
 70
0
 66
1
 10
0.0
 20
0.0
 30
0.0
  0
VERTEX
  8
0
 10
144.75958
 20
173.91033
 30
0.0
  0
VERTEX
  8
0
 10
144.97389
 20
173.83884
 30
0.0
  0
SEQEND
  8
0
  0
POLYLINE
  8
0
 62
0
 70
0
 66
1
 10
0.0
 20
0.0
 30
0.0
  0
VERTEX
  8
0
 10
124.0905
 20
184.26868
 30
0.0
  0
VERTEX
  8
0
 10
122.68556
 20
184.62587
 30
0.0
  0
VERTEX
  8
0
 10
122.72126
 20
184.76875
 30
0.0
  0
SEQEND
  8
0
  0
POLYLINE
  8
0
 62
0
 70
0
 66
1
 10
0.0
 20
0.0
 30
0.0
  0
VERTEX
  8
0
 10
124.87615
 20
179.79193
 30
0.0
  0
VERTEX
  8
0
 10
124.70946
 20
179.98243
 30
0.0
  0
SEQEND
  8
0
  0
POLYLINE
  8
0
 62
0
 70
0
 66
1
 10
0.0
 20
0.0
 30
0.0
  0
VERTEX
  8
0
 10
135.09171
 20
171.00512
 30
0.0
  0
VERTEX
  8
0
 10
135.21078
 20
170.79081
 30
0.0
  0
SEQEND
  8
0
  0
POLYLINE
  8
0
 62
0
 70
0
 66
1
 10
0.0
 20
0.0
 30
0.0
  0
VERTEX
  8
0
 10
135.32984
 20
172.41006
 30
0.0
  0
VERTEX
  8
0
 10
135.52034
 20
172.05287
 30
0.0
  0
SEQEND
  8
0
  0
POLYLINE
  8
0
 62
0
 70
0
 66
1
 10
0.0
 20
0.0
 30
0.0
  0
VERTEX
  8
0
 10
130.32914
 20
181.38737
 30
0.0
  0
VERTEX
  8
0
 10
132.09126
 20
182.48275
 30
0.0
  0
SEQEND
  8
0
  0
POLYLINE
  8
0
 62
0
 70
0
 66
1
 10
0.0
 20
0.0
 30
0.0
  0
VERTEX
  8
0
 10
126.4954
 20
181.57787
 30
0.0
  0
VERTEX
  8
0
 10
126.63828
 20
181.38737
 30
0.0
  0
SEQEND
  8
0
  0
POLYLINE
  8
0
 62
0
 70
0
 66
1
 10
0.0
 20
0.0
 30
0.0
  0
VERTEX
  8
0
 10
137.59201
 20
173.07681
 30
0.0
  0
VERTEX
  8
0
 10
136.75858
 20
174.91037
 30
0.0
  0
VERTEX
  8
0
 10
136.44901
 20
175.64856
 30
0.0
  0
VERTEX
  8
0
 10
136.68714
 20
175.74376
 30
0.0
  0
SEQEND
  8
0
  0
POLYLINE
  8
0
 62
0
 70
0
 66
1
 10
0.0
 20
0.0
 30
0.0
  0
VERTEX
  8
0
 10
132.92478
 20
170.74319
 30
0.0
  0
VERTEX
  8
0
 10
132.71046
 20
171.10037
 30
0.0
  0
SEQEND
  8
0
  0
POLYLINE
  8
0
 62
0
 70
0
 66
1
 10
0.0
 20
0.0
 30
0.0
  0
VERTEX
  8
0
 10
125.9478
 20
173.48167
 30
0.0
  0
VERTEX
  8
0
 10
127.61467
 20
173.95792
 30
0.0
  0
SEQEND
  8
0
  0
POLYLINE
  8
0
 62
0
 70
0
 66
1
 10
0.0
 20
0.0
 30
0.0
  0
VERTEX
  8
0
 10
124.06653
 20
180.12531
 30
0.0
  0
VERTEX
  8
0
 10
123.80459
 20
180.43487
 30
0.0
  0
SEQEND
  8
0
  0
POLYLINE
  8
0
 62
0
 70
0
 66
1
 10
0.0
 20
0.0
 30
0.0
  0
VERTEX
  8
0
 10
126.04296
 20
182.74468
 30
0.0
  0
VERTEX
  8
0
 10
126.35253
 20
182.48275
 30
0.0
  0
SEQEND
  8
0
  0
POLYLINE
  8
0
 62
0
 70
0
 66
1
 10
0.0
 20
0.0
 30
0.0
  0
VERTEX
  8
0
 10
133.99634
 20
170.29075
 30
0.0
  0
VERTEX
  8
0
 10
133.87728
 20
170.50506
 30
0.0
  0
SEQEND
  8
0
  0
ENDSEC
  0
EOF
