  0
SECTION
  2
HEADER
  9
$ACADVER
  1
AC1009
  9
$INSBASE
 10
0.0
 20
0.0
 30
0.0
  9
$EXTMIN
 10
0.0
 20
0.0
 30
0.0
  9
$EXTMAX
 10
0.0
 20
0.0
 30
0.0
  0
ENDSEC
  0
SECTION
  2
TABLES
  0
TABLE
  2
VPORT
 70
0
  0
ENDTAB
  0
TABLE
  2
LTYPE
 70
1
  0
LTYPE
  2
CONTINUOUS
 70
0
  3
Solid line
 72
65
 73
0
 40
0.0
  0
ENDTAB
  0
TABLE
  2
LAYER
 70
1
  0
LAYER
  2
0
 70
64
 62
7
  6
continuous
  0
ENDTAB
  0
TABLE
  2
STYLE
 70
1
  0
STYLE
  2
STANDARD
 70
0
 40
0
 41
1.0
 50
0.0
 71
0
 42
1
 3
ARIAL.TTF
 4

  0
ENDTAB
  0
TABLE
  2
VIEW
 70
0
  0
ENDTAB
  0
ENDSEC
  0
SECTION
  2
BLOCKS
  0
ENDSEC
  0
SECTION
  2
ENTITIES
  0
POLYLINE
  8
0
 62
0
 70
0
 66
1
 10
0.0
 20
0.0
 30
0.0
  0
VERTEX
  8
0
 10
0.203729
 20
4.066644
 30
0.0
  0
VERTEX
  8
0
 10
1.327144
 20
6.032488
 30
0.0
  0
SEQEND
  8
0
  0
POLYLINE
  8
0
 62
0
 70
0
 66
1
 10
0.0
 20
0.0
 30
0.0
  0
VERTEX
  8
0
 10
1.327144
 20
6.032488
 30
0.0
  0
VERTEX
  8
0
 10
2.450647
 20
7.998486
 30
0.0
  0
SEQEND
  8
0
  0
POLYLINE
  8
0
 62
0
 70
0
 66
1
 10
0.0
 20
0.0
 30
0.0
  0
VERTEX
  8
0
 10
2.450647
 20
7.998486
 30
0.0
  0
VERTEX
  8
0
 10
3.574174
 20
9.964524
 30
0.0
  0
SEQEND
  8
0
  0
POLYLINE
  8
0
 62
0
 70
0
 66
1
 10
0.0
 20
0.0
 30
0.0
  0
VERTEX
  8
0
 10
3.574174
 20
9.964524
 30
0.0
  0
VERTEX
  8
0
 10
4.697633
 20
11.930446
 30
0.0
  0
SEQEND
  8
0
  0
POLYLINE
  8
0
 62
0
 70
0
 66
1
 10
0.0
 20
0.0
 30
0.0
  0
VERTEX
  8
0
 10
4.697633
 20
11.930446
 30
0.0
  0
VERTEX
  8
0
 10
5.820833
 20
13.895914
 30
0.0
  0
SEQEND
  8
0
  0
POLYLINE
  8
0
 62
0
 70
0
 66
1
 10
0.0
 20
0.0
 30
0.0
  0
VERTEX
  8
0
 10
5.820833
 20
13.895914
 30
0.0
  0
VERTEX
  8
0
 10
6.585996
 20
13.447092
 30
0.0
  0
SEQEND
  8
0
  0
POLYLINE
  8
0
 62
0
 70
0
 66
1
 10
0.0
 20
0.0
 30
0.0
  0
VERTEX
  8
0
 10
6.585996
 20
13.447092
 30
0.0
  0
VERTEX
  8
0
 10
7.395575
 20
13.083646
 30
0.0
  0
SEQEND
  8
0
  0
POLYLINE
  8
0
 62
0
 70
0
 66
1
 10
0.0
 20
0.0
 30
0.0
  0
VERTEX
  8
0
 10
7.395575
 20
13.083646
 30
0.0
  0
VERTEX
  8
0
 10
8.238963
 20
12.80731
 30
0.0
  0
SEQEND
  8
0
  0
POLYLINE
  8
0
 62
0
 70
0
 66
1
 10
0.0
 20
0.0
 30
0.0
  0
VERTEX
  8
0
 10
8.238963
 20
12.80731
 30
0.0
  0
VERTEX
  8
0
 10
9.108362
 20
12.631442
 30
0.0
  0
SEQEND
  8
0
  0
POLYLINE
  8
0
 62
0
 70
0
 66
1
 10
0.0
 20
0.0
 30
0.0
  0
VERTEX
  8
0
 10
9.108362
 20
12.631442
 30
0.0
  0
VERTEX
  8
0
 10
9.993313
 20
12.572998
 30
0.0
  0
SEQEND
  8
0
  0
POLYLINE
  8
0
 62
0
 70
0
 66
1
 10
0.0
 20
0.0
 30
0.0
  0
VERTEX
  8
0
 10
9.993313
 20
12.572998
 30
0.0
  0
VERTEX
  8
0
 10
10.085949
 20
12.573148
 30
0.0
  0
SEQEND
  8
0
  0
POLYLINE
  8
0
 62
0
 70
0
 66
1
 10
0.0
 20
0.0
 30
0.0
  0
VERTEX
  8
0
 10
10.085949
 20
12.573148
 30
0.0
  0
VERTEX
  8
0
 10
10.178758
 20
12.574205
 30
0.0
  0
SEQEND
  8
0
  0
POLYLINE
  8
0
 62
0
 70
0
 66
1
 10
0.0
 20
0.0
 30
0.0
  0
VERTEX
  8
0
 10
10.178758
 20
12.574205
 30
0.0
  0
VERTEX
  8
0
 10
10.271583
 20
12.577062
 30
0.0
  0
SEQEND
  8
0
  0
POLYLINE
  8
0
 62
0
 70
0
 66
1
 10
0.0
 20
0.0
 30
0.0
  0
VERTEX
  8
0
 10
10.271583
 20
12.577062
 30
0.0
  0
VERTEX
  8
0
 10
10.364069
 20
12.582565
 30
0.0
  0
SEQEND
  8
0
  0
POLYLINE
  8
0
 62
0
 70
0
 66
1
 10
0.0
 20
0.0
 30
0.0
  0
VERTEX
  8
0
 10
10.364069
 20
12.582565
 30
0.0
  0
VERTEX
  8
0
 10
10.456333
 20
12.591519
 30
0.0
  0
SEQEND
  8
0
  0
POLYLINE
  8
0
 62
0
 70
0
 66
1
 10
0.0
 20
0.0
 30
0.0
  0
VERTEX
  8
0
 10
10.456333
 20
12.591519
 30
0.0
  0
VERTEX
  8
0
 10
11.323848
 20
12.730606
 30
0.0
  0
SEQEND
  8
0
  0
POLYLINE
  8
0
 62
0
 70
0
 66
1
 10
0.0
 20
0.0
 30
0.0
  0
VERTEX
  8
0
 10
11.323848
 20
12.730606
 30
0.0
  0
VERTEX
  8
0
 10
12.169882
 20
12.968594
 30
0.0
  0
SEQEND
  8
0
  0
POLYLINE
  8
0
 62
0
 70
0
 66
1
 10
0.0
 20
0.0
 30
0.0
  0
VERTEX
  8
0
 10
12.169882
 20
12.968594
 30
0.0
  0
VERTEX
  8
0
 10
12.984519
 20
13.297495
 30
0.0
  0
SEQEND
  8
0
  0
POLYLINE
  8
0
 62
0
 70
0
 66
1
 10
0.0
 20
0.0
 30
0.0
  0
VERTEX
  8
0
 10
21.907342
 20
16.008317
 30
0.0
  0
VERTEX
  8
0
 10
22.262042
 20
15.364352
 30
0.0
  0
SEQEND
  8
0
  0
POLYLINE
  8
0
 62
0
 70
0
 66
1
 10
0.0
 20
0.0
 30
0.0
  0
VERTEX
  8
0
 10
20.981327
 20
17.142815
 30
0.0
  0
VERTEX
  8
0
 10
21.489073
 20
16.612527
 30
0.0
  0
SEQEND
  8
0
  0
POLYLINE
  8
0
 62
0
 70
0
 66
1
 10
0.0
 20
0.0
 30
0.0
  0
VERTEX
  8
0
 10
14.440958
 20
14.268977
 30
0.0
  0
VERTEX
  8
0
 10
15.361584
 20
15.151082
 30
0.0
  0
SEQEND
  8
0
  0
POLYLINE
  8
0
 62
0
 70
0
 66
1
 10
0.0
 20
0.0
 30
0.0
  0
VERTEX
  8
0
 10
20.362639
 20
17.534713
 30
0.0
  0
VERTEX
  8
0
 10
20.981327
 20
17.142815
 30
0.0
  0
SEQEND
  8
0
  0
POLYLINE
  8
0
 62
0
 70
0
 66
1
 10
0.0
 20
0.0
 30
0.0
  0
VERTEX
  8
0
 10
15.361584
 20
15.151082
 30
0.0
  0
VERTEX
  8
0
 10
16.29798
 20
16.016353
 30
0.0
  0
SEQEND
  8
0
  0
POLYLINE
  8
0
 62
0
 70
0
 66
1
 10
0.0
 20
0.0
 30
0.0
  0
VERTEX
  8
0
 10
21.489073
 20
16.612527
 30
0.0
  0
VERTEX
  8
0
 10
21.907342
 20
16.008317
 30
0.0
  0
SEQEND
  8
0
  0
POLYLINE
  8
0
 62
0
 70
0
 66
1
 10
0.0
 20
0.0
 30
0.0
  0
VERTEX
  8
0
 10
12.984519
 20
13.297495
 30
0.0
  0
VERTEX
  8
0
 10
13.75141
 20
13.726039
 30
0.0
  0
SEQEND
  8
0
  0
POLYLINE
  8
0
 62
0
 70
0
 66
1
 10
0.0
 20
0.0
 30
0.0
  0
VERTEX
  8
0
 10
17.295396
 20
16.809761
 30
0.0
  0
VERTEX
  8
0
 10
18.406571
 20
17.429326
 30
0.0
  0
SEQEND
  8
0
  0
POLYLINE
  8
0
 62
0
 70
0
 66
1
 10
0.0
 20
0.0
 30
0.0
  0
VERTEX
  8
0
 10
13.75141
 20
13.726039
 30
0.0
  0
VERTEX
  8
0
 10
14.440958
 20
14.268977
 30
0.0
  0
SEQEND
  8
0
  0
POLYLINE
  8
0
 62
0
 70
0
 66
1
 10
0.0
 20
0.0
 30
0.0
  0
VERTEX
  8
0
 10
18.406571
 20
17.429326
 30
0.0
  0
VERTEX
  8
0
 10
19.647958
 20
17.684748
 30
0.0
  0
SEQEND
  8
0
  0
POLYLINE
  8
0
 62
0
 70
0
 66
1
 10
0.0
 20
0.0
 30
0.0
  0
VERTEX
  8
0
 10
16.29798
 20
16.016353
 30
0.0
  0
VERTEX
  8
0
 10
17.295396
 20
16.809761
 30
0.0
  0
SEQEND
  8
0
  0
POLYLINE
  8
0
 62
0
 70
0
 66
1
 10
0.0
 20
0.0
 30
0.0
  0
VERTEX
  8
0
 10
19.647958
 20
17.684748
 30
0.0
  0
VERTEX
  8
0
 10
20.362639
 20
17.534713
 30
0.0
  0
SEQEND
  8
0
  0
POLYLINE
  8
0
 62
0
 70
0
 66
1
 10
0.0
 20
0.0
 30
0.0
  0
VERTEX
  8
0
 10
22.638428
 20
14.913888
 30
0.0
  0
VERTEX
  8
0
 10
22.899947
 20
14.780178
 30
0.0
  0
SEQEND
  8
0
  0
POLYLINE
  8
0
 62
0
 70
0
 66
1
 10
0.0
 20
0.0
 30
0.0
  0
VERTEX
  8
0
 10
23.883082
 20
15.308389
 30
0.0
  0
VERTEX
  8
0
 10
23.916295
 20
15.428871
 30
0.0
  0
SEQEND
  8
0
  0
POLYLINE
  8
0
 62
0
 70
0
 66
1
 10
0.0
 20
0.0
 30
0.0
  0
VERTEX
  8
0
 10
23.471187
 20
14.858998
 30
0.0
  0
VERTEX
  8
0
 10
23.580042
 20
14.920397
 30
0.0
  0
SEQEND
  8
0
  0
POLYLINE
  8
0
 62
0
 70
0
 66
1
 10
0.0
 20
0.0
 30
0.0
  0
VERTEX
  8
0
 10
23.192964
 20
14.763663
 30
0.0
  0
VERTEX
  8
0
 10
23.471187
 20
14.858998
 30
0.0
  0
SEQEND
  8
0
  0
POLYLINE
  8
0
 62
0
 70
0
 66
1
 10
0.0
 20
0.0
 30
0.0
  0
VERTEX
  8
0
 10
23.580042
 20
14.920397
 30
0.0
  0
VERTEX
  8
0
 10
23.67779
 20
14.998017
 30
0.0
  0
SEQEND
  8
0
  0
POLYLINE
  8
0
 62
0
 70
0
 66
1
 10
0.0
 20
0.0
 30
0.0
  0
VERTEX
  8
0
 10
22.899947
 20
14.780178
 30
0.0
  0
VERTEX
  8
0
 10
23.192964
 20
14.763663
 30
0.0
  0
SEQEND
  8
0
  0
POLYLINE
  8
0
 62
0
 70
0
 66
1
 10
0.0
 20
0.0
 30
0.0
  0
VERTEX
  8
0
 10
22.262042
 20
15.364352
 30
0.0
  0
VERTEX
  8
0
 10
22.42854
 20
15.120565
 30
0.0
  0
SEQEND
  8
0
  0
POLYLINE
  8
0
 62
0
 70
0
 66
1
 10
0.0
 20
0.0
 30
0.0
  0
VERTEX
  8
0
 10
23.67779
 20
14.998017
 30
0.0
  0
VERTEX
  8
0
 10
23.76231
 20
15.090187
 30
0.0
  0
SEQEND
  8
0
  0
POLYLINE
  8
0
 62
0
 70
0
 66
1
 10
0.0
 20
0.0
 30
0.0
  0
VERTEX
  8
0
 10
23.831279
 20
15.194436
 30
0.0
  0
VERTEX
  8
0
 10
23.883082
 20
15.308389
 30
0.0
  0
SEQEND
  8
0
  0
POLYLINE
  8
0
 62
0
 70
0
 66
1
 10
0.0
 20
0.0
 30
0.0
  0
VERTEX
  8
0
 10
23.76231
 20
15.090187
 30
0.0
  0
VERTEX
  8
0
 10
23.831279
 20
15.194436
 30
0.0
  0
SEQEND
  8
0
  0
POLYLINE
  8
0
 62
0
 70
0
 66
1
 10
0.0
 20
0.0
 30
0.0
  0
VERTEX
  8
0
 10
22.42854
 20
15.120565
 30
0.0
  0
VERTEX
  8
0
 10
22.638428
 20
14.913888
 30
0.0
  0
SEQEND
  8
0
  0
POLYLINE
  8
0
 62
0
 70
0
 66
1
 10
0.0
 20
0.0
 30
0.0
  0
VERTEX
  8
0
 10
23.916295
 20
15.428871
 30
0.0
  0
VERTEX
  8
0
 10
23.930174
 20
15.552915
 30
0.0
  0
SEQEND
  8
0
  0
POLYLINE
  8
0
 62
0
 70
0
 66
1
 10
0.0
 20
0.0
 30
0.0
  0
VERTEX
  8
0
 10
21.754874
 20
18.665682
 30
0.0
  0
VERTEX
  8
0
 10
20.724718
 20
19.204012
 30
0.0
  0
SEQEND
  8
0
  0
POLYLINE
  8
0
 62
0
 70
0
 66
1
 10
0.0
 20
0.0
 30
0.0
  0
VERTEX
  8
0
 10
19.579167
 20
19.393956
 30
0.0
  0
VERTEX
  8
0
 10
18.177301
 20
19.150712
 30
0.0
  0
SEQEND
  8
0
  0
POLYLINE
  8
0
 62
0
 70
0
 66
1
 10
0.0
 20
0.0
 30
0.0
  0
VERTEX
  8
0
 10
16.8848
 20
18.548146
 30
0.0
  0
VERTEX
  8
0
 10
15.711241
 20
17.735058
 30
0.0
  0
SEQEND
  8
0
  0
POLYLINE
  8
0
 62
0
 70
0
 66
1
 10
0.0
 20
0.0
 30
0.0
  0
VERTEX
  8
0
 10
23.854833
 20
15.917331
 30
0.0
  0
VERTEX
  8
0
 10
23.313092
 20
16.94867
 30
0.0
  0
SEQEND
  8
0
  0
POLYLINE
  8
0
 62
0
 70
0
 66
1
 10
0.0
 20
0.0
 30
0.0
  0
VERTEX
  8
0
 10
23.924409
 20
15.677838
 30
0.0
  0
VERTEX
  8
0
 10
23.899113
 20
15.80025
 30
0.0
  0
SEQEND
  8
0
  0
POLYLINE
  8
0
 62
0
 70
0
 66
1
 10
0.0
 20
0.0
 30
0.0
  0
VERTEX
  8
0
 10
22.61578
 20
17.882275
 30
0.0
  0
VERTEX
  8
0
 10
21.754874
 20
18.665682
 30
0.0
  0
SEQEND
  8
0
  0
POLYLINE
  8
0
 62
0
 70
0
 66
1
 10
0.0
 20
0.0
 30
0.0
  0
VERTEX
  8
0
 10
23.313092
 20
16.94867
 30
0.0
  0
VERTEX
  8
0
 10
22.61578
 20
17.882275
 30
0.0
  0
SEQEND
  8
0
  0
POLYLINE
  8
0
 62
0
 70
0
 66
1
 10
0.0
 20
0.0
 30
0.0
  0
VERTEX
  8
0
 10
23.930174
 20
15.552915
 30
0.0
  0
VERTEX
  8
0
 10
23.924409
 20
15.677838
 30
0.0
  0
SEQEND
  8
0
  0
POLYLINE
  8
0
 62
0
 70
0
 66
1
 10
0.0
 20
0.0
 30
0.0
  0
VERTEX
  8
0
 10
18.177301
 20
19.150712
 30
0.0
  0
VERTEX
  8
0
 10
16.8848
 20
18.548146
 30
0.0
  0
SEQEND
  8
0
  0
POLYLINE
  8
0
 62
0
 70
0
 66
1
 10
0.0
 20
0.0
 30
0.0
  0
VERTEX
  8
0
 10
23.899113
 20
15.80025
 30
0.0
  0
VERTEX
  8
0
 10
23.854833
 20
15.917331
 30
0.0
  0
SEQEND
  8
0
  0
POLYLINE
  8
0
 62
0
 70
0
 66
1
 10
0.0
 20
0.0
 30
0.0
  0
VERTEX
  8
0
 10
20.724718
 20
19.204012
 30
0.0
  0
VERTEX
  8
0
 10
19.579167
 20
19.393956
 30
0.0
  0
SEQEND
  8
0
  0
POLYLINE
  8
0
 62
0
 70
0
 66
1
 10
0.0
 20
0.0
 30
0.0
  0
VERTEX
  8
0
 10
15.711241
 20
17.735058
 30
0.0
  0
VERTEX
  8
0
 10
14.634168
 20
16.796684
 30
0.0
  0
SEQEND
  8
0
  0
POLYLINE
  8
0
 62
0
 70
0
 66
1
 10
0.0
 20
0.0
 30
0.0
  0
VERTEX
  8
0
 10
13.607521
 20
15.80356
 30
0.0
  0
VERTEX
  8
0
 10
13.139228
 20
15.401139
 30
0.0
  0
SEQEND
  8
0
  0
POLYLINE
  8
0
 62
0
 70
0
 66
1
 10
0.0
 20
0.0
 30
0.0
  0
VERTEX
  8
0
 10
11.513491
 20
14.536732
 30
0.0
  0
VERTEX
  8
0
 10
10.922
 20
14.358935
 30
0.0
  0
SEQEND
  8
0
  0
POLYLINE
  8
0
 62
0
 70
0
 66
1
 10
0.0
 20
0.0
 30
0.0
  0
VERTEX
  8
0
 10
10.922
 20
14.358935
 30
0.0
  0
VERTEX
  8
0
 10
10.032596
 20
14.248867
 30
0.0
  0
SEQEND
  8
0
  0
POLYLINE
  8
0
 62
0
 70
0
 66
1
 10
0.0
 20
0.0
 30
0.0
  0
VERTEX
  8
0
 10
12.638986
 20
15.039676
 30
0.0
  0
VERTEX
  8
0
 10
12.090439
 20
14.756793
 30
0.0
  0
SEQEND
  8
0
  0
POLYLINE
  8
0
 62
0
 70
0
 66
1
 10
0.0
 20
0.0
 30
0.0
  0
VERTEX
  8
0
 10
10.032596
 20
14.248867
 30
0.0
  0
VERTEX
  8
0
 10
9.140124
 20
14.343702
 30
0.0
  0
SEQEND
  8
0
  0
POLYLINE
  8
0
 62
0
 70
0
 66
1
 10
0.0
 20
0.0
 30
0.0
  0
VERTEX
  8
0
 10
9.140124
 20
14.343702
 30
0.0
  0
VERTEX
  8
0
 10
8.275783
 20
14.58658
 30
0.0
  0
SEQEND
  8
0
  0
POLYLINE
  8
0
 62
0
 70
0
 66
1
 10
0.0
 20
0.0
 30
0.0
  0
VERTEX
  8
0
 10
8.275783
 20
14.58658
 30
0.0
  0
VERTEX
  8
0
 10
7.448951
 20
14.937844
 30
0.0
  0
SEQEND
  8
0
  0
POLYLINE
  8
0
 62
0
 70
0
 66
1
 10
0.0
 20
0.0
 30
0.0
  0
VERTEX
  8
0
 10
7.448951
 20
14.937844
 30
0.0
  0
VERTEX
  8
0
 10
6.6675
 20
15.380227
 30
0.0
  0
SEQEND
  8
0
  0
POLYLINE
  8
0
 62
0
 70
0
 66
1
 10
0.0
 20
0.0
 30
0.0
  0
VERTEX
  8
0
 10
13.139228
 20
15.401139
 30
0.0
  0
VERTEX
  8
0
 10
12.638986
 20
15.039676
 30
0.0
  0
SEQEND
  8
0
  0
POLYLINE
  8
0
 62
0
 70
0
 66
1
 10
0.0
 20
0.0
 30
0.0
  0
VERTEX
  8
0
 10
12.090439
 20
14.756793
 30
0.0
  0
VERTEX
  8
0
 10
11.513491
 20
14.536732
 30
0.0
  0
SEQEND
  8
0
  0
POLYLINE
  8
0
 62
0
 70
0
 66
1
 10
0.0
 20
0.0
 30
0.0
  0
VERTEX
  8
0
 10
14.634168
 20
16.796684
 30
0.0
  0
VERTEX
  8
0
 10
13.607521
 20
15.80356
 30
0.0
  0
SEQEND
  8
0
  0
POLYLINE
  8
0
 62
0
 70
0
 66
1
 10
0.0
 20
0.0
 30
0.0
  0
VERTEX
  8
0
 10
6.6675
 20
15.380227
 30
0.0
  0
VERTEX
  8
0
 10
8.94377
 20
19.400379
 30
0.0
  0
SEQEND
  8
0
  0
POLYLINE
  8
0
 62
0
 70
0
 66
1
 10
0.0
 20
0.0
 30
0.0
  0
VERTEX
  8
0
 10
18.174229
 20
35.411831
 30
0.0
  0
VERTEX
  8
0
 10
19.187839
 20
33.65935525
 30
0.0
  0
VERTEX
  8
0
 10
21.799531
 20
29.143884
 30
0.0
  0
SEQEND
  8
0
  0
POLYLINE
  8
0
 62
0
 70
0
 66
1
 10
0.0
 20
0.0
 30
0.0
  0
VERTEX
  8
0
 10
21.799531
 20
29.143884
 30
0.0
  0
VERTEX
  8
0
 10
23.531291875
 20
26.149765875
 30
0.0
  0
VERTEX
  8
0
 10
25.424827
 20
22.875948
 30
0.0
  0
SEQEND
  8
0
  0
POLYLINE
  8
0
 62
0
 70
0
 66
1
 10
0.0
 20
0.0
 30
0.0
  0
VERTEX
  8
0
 10
29.050095
 20
16.608061
 30
0.0
  0
VERTEX
  8
0
 10
30.943716625
 20
13.334094375
 30
0.0
  0
VERTEX
  8
0
 10
32.675552
 20
10.339847
 30
0.0
  0
SEQEND
  8
0
  0
POLYLINE
  8
0
 62
0
 70
0
 66
1
 10
0.0
 20
0.0
 30
0.0
  0
VERTEX
  8
0
 10
11.246407
 20
23.406401
 30
0.0
  0
VERTEX
  8
0
 10
13.553328
 20
27.409466
 30
0.0
  0
SEQEND
  8
0
  0
POLYLINE
  8
0
 62
0
 70
0
 66
1
 10
0.0
 20
0.0
 30
0.0
  0
VERTEX
  8
0
 10
33.206619
 20
4.071935
 30
0.0
  0
VERTEX
  8
0
 10
30.112691
 20
4.071935
 30
0.0
  0
SEQEND
  8
0
  0
POLYLINE
  8
0
 62
0
 70
0
 66
1
 10
0.0
 20
0.0
 30
0.0
  0
VERTEX
  8
0
 10
25.424827
 20
22.875948
 30
0.0
  0
VERTEX
  8
0
 10
27.237459875
 20
19.742006375
 30
0.0
  0
VERTEX
  8
0
 10
29.050095
 20
16.608061
 30
0.0
  0
SEQEND
  8
0
  0
POLYLINE
  8
0
 62
0
 70
0
 66
1
 10
0.0
 20
0.0
 30
0.0
  0
VERTEX
  8
0
 10
8.94377
 20
19.400379
 30
0.0
  0
VERTEX
  8
0
 10
11.246407
 20
23.406401
 30
0.0
  0
SEQEND
  8
0
  0
POLYLINE
  8
0
 62
0
 70
0
 66
1
 10
0.0
 20
0.0
 30
0.0
  0
VERTEX
  8
0
 10
32.675552
 20
10.339847
 30
0.0
  0
VERTEX
  8
0
 10
35.287229375
 20
5.824400375
 30
0.0
  0
VERTEX
  8
0
 10
36.300833
 20
4.071935
 30
0.0
  0
SEQEND
  8
0
  0
POLYLINE
  8
0
 62
0
 70
0
 66
1
 10
0.0
 20
0.0
 30
0.0
  0
VERTEX
  8
0
 10
15.862869
 20
31.411301
 30
0.0
  0
VERTEX
  8
0
 10
18.174229
 20
35.411831
 30
0.0
  0
SEQEND
  8
0
  0
POLYLINE
  8
0
 62
0
 70
0
 66
1
 10
0.0
 20
0.0
 30
0.0
  0
VERTEX
  8
0
 10
36.300833
 20
4.071935
 30
0.0
  0
VERTEX
  8
0
 10
33.206619
 20
4.071935
 30
0.0
  0
SEQEND
  8
0
  0
POLYLINE
  8
0
 62
0
 70
0
 66
1
 10
0.0
 20
0.0
 30
0.0
  0
VERTEX
  8
0
 10
13.553328
 20
27.409466
 30
0.0
  0
VERTEX
  8
0
 10
15.862869
 20
31.411301
 30
0.0
  0
SEQEND
  8
0
  0
POLYLINE
  8
0
 62
0
 70
0
 66
1
 10
0.0
 20
0.0
 30
0.0
  0
VERTEX
  8
0
 10
30.112691
 20
4.071935
 30
0.0
  0
VERTEX
  8
0
 10
27.018741
 20
4.071935
 30
0.0
  0
SEQEND
  8
0
  0
POLYLINE
  8
0
 62
0
 70
0
 66
1
 10
0.0
 20
0.0
 30
0.0
  0
VERTEX
  8
0
 10
18.476522
 20
7.58763
 30
0.0
  0
VERTEX
  8
0
 10
18.174229
 20
8.130644
 30
0.0
  0
SEQEND
  8
0
  0
POLYLINE
  8
0
 62
0
 70
0
 66
1
 10
0.0
 20
0.0
 30
0.0
  0
VERTEX
  8
0
 10
23.924911
 20
4.071935
 30
0.0
  0
VERTEX
  8
0
 10
20.830646
 20
4.071935
 30
0.0
  0
SEQEND
  8
0
  0
POLYLINE
  8
0
 62
0
 70
0
 66
1
 10
0.0
 20
0.0
 30
0.0
  0
VERTEX
  8
0
 10
20.625285
 20
4.352297
 30
0.0
  0
VERTEX
  8
0
 10
20.432632
 20
4.643305
 30
0.0
  0
SEQEND
  8
0
  0
POLYLINE
  8
0
 62
0
 70
0
 66
1
 10
0.0
 20
0.0
 30
0.0
  0
VERTEX
  8
0
 10
19.515936
 20
6.037491
 30
0.0
  0
VERTEX
  8
0
 10
19.167631
 20
6.552863
 30
0.0
  0
SEQEND
  8
0
  0
POLYLINE
  8
0
 62
0
 70
0
 66
1
 10
0.0
 20
0.0
 30
0.0
  0
VERTEX
  8
0
 10
18.817877
 20
7.067566
 30
0.0
  0
VERTEX
  8
0
 10
18.476522
 20
7.58763
 30
0.0
  0
SEQEND
  8
0
  0
POLYLINE
  8
0
 62
0
 70
0
 66
1
 10
0.0
 20
0.0
 30
0.0
  0
VERTEX
  8
0
 10
20.830646
 20
4.071935
 30
0.0
  0
VERTEX
  8
0
 10
20.625285
 20
4.352297
 30
0.0
  0
SEQEND
  8
0
  0
POLYLINE
  8
0
 62
0
 70
0
 66
1
 10
0.0
 20
0.0
 30
0.0
  0
VERTEX
  8
0
 10
20.241669
 20
4.935024
 30
0.0
  0
VERTEX
  8
0
 10
20.050739
 20
5.227263
 30
0.0
  0
SEQEND
  8
0
  0
POLYLINE
  8
0
 62
0
 70
0
 66
1
 10
0.0
 20
0.0
 30
0.0
  0
VERTEX
  8
0
 10
27.018741
 20
4.071935
 30
0.0
  0
VERTEX
  8
0
 10
23.924911
 20
4.071935
 30
0.0
  0
SEQEND
  8
0
  0
POLYLINE
  8
0
 62
0
 70
0
 66
1
 10
0.0
 20
0.0
 30
0.0
  0
VERTEX
  8
0
 10
20.432632
 20
4.643305
 30
0.0
  0
VERTEX
  8
0
 10
20.241669
 20
4.935024
 30
0.0
  0
SEQEND
  8
0
  0
POLYLINE
  8
0
 62
0
 70
0
 66
1
 10
0.0
 20
0.0
 30
0.0
  0
VERTEX
  8
0
 10
20.050739
 20
5.227263
 30
0.0
  0
VERTEX
  8
0
 10
19.859625
 20
5.519206
 30
0.0
  0
SEQEND
  8
0
  0
POLYLINE
  8
0
 62
0
 70
0
 66
1
 10
0.0
 20
0.0
 30
0.0
  0
VERTEX
  8
0
 10
19.167631
 20
6.552863
 30
0.0
  0
VERTEX
  8
0
 10
18.817877
 20
7.067566
 30
0.0
  0
SEQEND
  8
0
  0
POLYLINE
  8
0
 62
0
 70
0
 66
1
 10
0.0
 20
0.0
 30
0.0
  0
VERTEX
  8
0
 10
19.859625
 20
5.519206
 30
0.0
  0
VERTEX
  8
0
 10
19.515936
 20
6.037491
 30
0.0
  0
SEQEND
  8
0
  0
POLYLINE
  8
0
 62
0
 70
0
 66
1
 10
0.0
 20
0.0
 30
0.0
  0
VERTEX
  8
0
 10
19.001776
 20
9.914358
 30
0.0
  0
VERTEX
  8
0
 10
19.363872
 20
10.468089
 30
0.0
  0
SEQEND
  8
0
  0
POLYLINE
  8
0
 62
0
 70
0
 66
1
 10
0.0
 20
0.0
 30
0.0
  0
VERTEX
  8
0
 10
18.229884
 20
8.657519
 30
0.0
  0
VERTEX
  8
0
 10
18.348228
 20
8.902098
 30
0.0
  0
SEQEND
  8
0
  0
POLYLINE
  8
0
 62
0
 70
0
 66
1
 10
0.0
 20
0.0
 30
0.0
  0
VERTEX
  8
0
 10
19.363872
 20
10.468089
 30
0.0
  0
VERTEX
  8
0
 10
19.725844
 20
11.021631
 30
0.0
  0
SEQEND
  8
0
  0
POLYLINE
  8
0
 62
0
 70
0
 66
1
 10
0.0
 20
0.0
 30
0.0
  0
VERTEX
  8
0
 10
18.152182
 20
8.397818
 30
0.0
  0
VERTEX
  8
0
 10
18.229884
 20
8.657519
 30
0.0
  0
SEQEND
  8
0
  0
POLYLINE
  8
0
 62
0
 70
0
 66
1
 10
0.0
 20
0.0
 30
0.0
  0
VERTEX
  8
0
 10
18.487992
 20
9.135412
 30
0.0
  0
VERTEX
  8
0
 10
18.639896
 20
9.360956
 30
0.0
  0
SEQEND
  8
0
  0
POLYLINE
  8
0
 62
0
 70
0
 66
1
 10
0.0
 20
0.0
 30
0.0
  0
VERTEX
  8
0
 10
20.087671
 20
11.574951
 30
0.0
  0
VERTEX
  8
0
 10
20.449646
 20
12.128498
 30
0.0
  0
SEQEND
  8
0
  0
POLYLINE
  8
0
 62
0
 70
0
 66
1
 10
0.0
 20
0.0
 30
0.0
  0
VERTEX
  8
0
 10
20.449646
 20
12.128498
 30
0.0
  0
VERTEX
  8
0
 10
20.615103
 20
12.396394
 30
0.0
  0
SEQEND
  8
0
  0
POLYLINE
  8
0
 62
0
 70
0
 66
1
 10
0.0
 20
0.0
 30
0.0
  0
VERTEX
  8
0
 10
19.725844
 20
11.021631
 30
0.0
  0
VERTEX
  8
0
 10
20.087671
 20
11.574951
 30
0.0
  0
SEQEND
  8
0
  0
POLYLINE
  8
0
 62
0
 70
0
 66
1
 10
0.0
 20
0.0
 30
0.0
  0
VERTEX
  8
0
 10
18.348228
 20
8.902098
 30
0.0
  0
VERTEX
  8
0
 10
18.487992
 20
9.135412
 30
0.0
  0
SEQEND
  8
0
  0
POLYLINE
  8
0
 62
0
 70
0
 66
1
 10
0.0
 20
0.0
 30
0.0
  0
VERTEX
  8
0
 10
18.174229
 20
8.130644
 30
0.0
  0
VERTEX
  8
0
 10
18.152182
 20
8.397818
 30
0.0
  0
SEQEND
  8
0
  0
POLYLINE
  8
0
 62
0
 70
0
 66
1
 10
0.0
 20
0.0
 30
0.0
  0
VERTEX
  8
0
 10
18.639896
 20
9.360956
 30
0.0
  0
VERTEX
  8
0
 10
19.001776
 20
9.914358
 30
0.0
  0
SEQEND
  8
0
  0
POLYLINE
  8
0
 62
0
 70
0
 66
1
 10
0.0
 20
0.0
 30
0.0
  0
VERTEX
  8
0
 10
20.615103
 20
12.396394
 30
0.0
  0
VERTEX
  8
0
 10
20.735723
 20
12.686865
 30
0.0
  0
SEQEND
  8
0
  0
POLYLINE
  8
0
 62
0
 70
0
 66
1
 10
0.0
 20
0.0
 30
0.0
  0
VERTEX
  8
0
 10
19.395918
 20
13.446074
 30
0.0
  0
VERTEX
  8
0
 10
19.147931
 20
13.187771
 30
0.0
  0
SEQEND
  8
0
  0
POLYLINE
  8
0
 62
0
 70
0
 66
1
 10
0.0
 20
0.0
 30
0.0
  0
VERTEX
  8
0
 10
20.624686
 20
13.281618
 30
0.0
  0
VERTEX
  8
0
 10
20.388792
 20
13.488456
 30
0.0
  0
SEQEND
  8
0
  0
POLYLINE
  8
0
 62
0
 70
0
 66
1
 10
0.0
 20
0.0
 30
0.0
  0
VERTEX
  8
0
 10
19.707464
 20
13.620471
 30
0.0
  0
VERTEX
  8
0
 10
19.395918
 20
13.446074
 30
0.0
  0
SEQEND
  8
0
  0
POLYLINE
  8
0
 62
0
 70
0
 66
1
 10
0.0
 20
0.0
 30
0.0
  0
VERTEX
  8
0
 10
20.735723
 20
12.686865
 30
0.0
  0
VERTEX
  8
0
 10
20.755254
 20
12.998562
 30
0.0
  0
SEQEND
  8
0
  0
POLYLINE
  8
0
 62
0
 70
0
 66
1
 10
0.0
 20
0.0
 30
0.0
  0
VERTEX
  8
0
 10
20.388792
 20
13.488456
 30
0.0
  0
VERTEX
  8
0
 10
20.062037
 20
13.633023
 30
0.0
  0
SEQEND
  8
0
  0
POLYLINE
  8
0
 62
0
 70
0
 66
1
 10
0.0
 20
0.0
 30
0.0
  0
VERTEX
  8
0
 10
20.755254
 20
12.998562
 30
0.0
  0
VERTEX
  8
0
 10
20.624686
 20
13.281618
 30
0.0
  0
SEQEND
  8
0
  0
POLYLINE
  8
0
 62
0
 70
0
 66
1
 10
0.0
 20
0.0
 30
0.0
  0
VERTEX
  8
0
 10
20.062037
 20
13.633023
 30
0.0
  0
VERTEX
  8
0
 10
19.707464
 20
13.620471
 30
0.0
  0
SEQEND
  8
0
  0
POLYLINE
  8
0
 62
0
 70
0
 66
1
 10
0.0
 20
0.0
 30
0.0
  0
VERTEX
  8
0
 10
19.147931
 20
13.187771
 30
0.0
  0
VERTEX
  8
0
 10
18.938875
 20
12.895789
 30
0.0
  0
SEQEND
  8
0
  0
POLYLINE
  8
0
 62
0
 70
0
 66
1
 10
0.0
 20
0.0
 30
0.0
  0
VERTEX
  8
0
 10
18.66011
 20
12.469022
 30
0.0
  0
VERTEX
  8
0
 10
18.385064
 20
12.039768
 30
0.0
  0
SEQEND
  8
0
  0
POLYLINE
  8
0
 62
0
 70
0
 66
1
 10
0.0
 20
0.0
 30
0.0
  0
VERTEX
  8
0
 10
18.938875
 20
12.895789
 30
0.0
  0
VERTEX
  8
0
 10
18.66011
 20
12.469022
 30
0.0
  0
SEQEND
  8
0
  0
POLYLINE
  8
0
 62
0
 70
0
 66
1
 10
0.0
 20
0.0
 30
0.0
  0
VERTEX
  8
0
 10
18.385064
 20
12.039768
 30
0.0
  0
VERTEX
  8
0
 10
18.110959
 20
11.609923
 30
0.0
  0
SEQEND
  8
0
  0
POLYLINE
  8
0
 62
0
 70
0
 66
1
 10
0.0
 20
0.0
 30
0.0
  0
VERTEX
  8
0
 10
18.110959
 20
11.609923
 30
0.0
  0
VERTEX
  8
0
 10
17.837186
 20
11.179908
 30
0.0
  0
SEQEND
  8
0
  0
POLYLINE
  8
0
 62
0
 70
0
 66
1
 10
0.0
 20
0.0
 30
0.0
  0
VERTEX
  8
0
 10
17.837186
 20
11.179908
 30
0.0
  0
VERTEX
  8
0
 10
17.563042
 20
10.750019
 30
0.0
  0
SEQEND
  8
0
  0
POLYLINE
  8
0
 62
0
 70
0
 66
1
 10
0.0
 20
0.0
 30
0.0
  0
VERTEX
  8
0
 10
17.563042
 20
10.750019
 30
0.0
  0
VERTEX
  8
0
 10
17.256832
 20
10.298706
 30
0.0
  0
SEQEND
  8
0
  0
POLYLINE
  8
0
 62
0
 70
0
 66
1
 10
0.0
 20
0.0
 30
0.0
  0
VERTEX
  8
0
 10
16.962195
 20
9.839786
 30
0.0
  0
VERTEX
  8
0
 10
16.709043
 20
9.356544
 30
0.0
  0
SEQEND
  8
0
  0
POLYLINE
  8
0
 62
0
 70
0
 66
1
 10
0.0
 20
0.0
 30
0.0
  0
VERTEX
  8
0
 10
16.528
 20
8.842379
 30
0.0
  0
VERTEX
  8
0
 10
16.459729
 20
8.302623
 30
0.0
  0
SEQEND
  8
0
  0
POLYLINE
  8
0
 62
0
 70
0
 66
1
 10
0.0
 20
0.0
 30
0.0
  0
VERTEX
  8
0
 10
17.202099
 20
6.393137
 30
0.0
  0
VERTEX
  8
0
 10
17.592224
 20
5.819388
 30
0.0
  0
SEQEND
  8
0
  0
POLYLINE
  8
0
 62
0
 70
0
 66
1
 10
0.0
 20
0.0
 30
0.0
  0
VERTEX
  8
0
 10
17.256832
 20
10.298706
 30
0.0
  0
VERTEX
  8
0
 10
16.962195
 20
9.839786
 30
0.0
  0
SEQEND
  8
0
  0
POLYLINE
  8
0
 62
0
 70
0
 66
1
 10
0.0
 20
0.0
 30
0.0
  0
VERTEX
  8
0
 10
16.83786
 20
6.983419
 30
0.0
  0
VERTEX
  8
0
 10
17.202099
 20
6.393137
 30
0.0
  0
SEQEND
  8
0
  0
POLYLINE
  8
0
 62
0
 70
0
 66
1
 10
0.0
 20
0.0
 30
0.0
  0
VERTEX
  8
0
 10
17.592224
 20
5.819388
 30
0.0
  0
VERTEX
  8
0
 10
17.975792
 20
5.241394
 30
0.0
  0
SEQEND
  8
0
  0
POLYLINE
  8
0
 62
0
 70
0
 66
1
 10
0.0
 20
0.0
 30
0.0
  0
VERTEX
  8
0
 10
17.975792
 20
5.241394
 30
0.0
  0
VERTEX
  8
0
 10
18.12586
 20
5.005504
 30
0.0
  0
SEQEND
  8
0
  0
POLYLINE
  8
0
 62
0
 70
0
 66
1
 10
0.0
 20
0.0
 30
0.0
  0
VERTEX
  8
0
 10
16.459729
 20
8.302623
 30
0.0
  0
VERTEX
  8
0
 10
16.562348
 20
7.618794
 30
0.0
  0
SEQEND
  8
0
  0
POLYLINE
  8
0
 62
0
 70
0
 66
1
 10
0.0
 20
0.0
 30
0.0
  0
VERTEX
  8
0
 10
16.709043
 20
9.356544
 30
0.0
  0
VERTEX
  8
0
 10
16.528
 20
8.842379
 30
0.0
  0
SEQEND
  8
0
  0
POLYLINE
  8
0
 62
0
 70
0
 66
1
 10
0.0
 20
0.0
 30
0.0
  0
VERTEX
  8
0
 10
16.562348
 20
7.618794
 30
0.0
  0
VERTEX
  8
0
 10
16.83786
 20
6.983419
 30
0.0
  0
SEQEND
  8
0
  0
POLYLINE
  8
0
 62
0
 70
0
 66
1
 10
0.0
 20
0.0
 30
0.0
  0
VERTEX
  8
0
 10
18.275177
 20
4.769369
 30
0.0
  0
VERTEX
  8
0
 10
18.423891
 20
4.532835
 30
0.0
  0
SEQEND
  8
0
  0
POLYLINE
  8
0
 62
0
 70
0
 66
1
 10
0.0
 20
0.0
 30
0.0
  0
VERTEX
  8
0
 10
18.423891
 20
4.532835
 30
0.0
  0
VERTEX
  8
0
 10
18.571869
 20
4.296115
 30
0.0
  0
SEQEND
  8
0
  0
POLYLINE
  8
0
 62
0
 70
0
 66
1
 10
0.0
 20
0.0
 30
0.0
  0
VERTEX
  8
0
 10
11.310982
 20
4.058706
 30
0.0
  0
VERTEX
  8
0
 10
7.60687
 20
4.058706
 30
0.0
  0
SEQEND
  8
0
  0
POLYLINE
  8
0
 62
0
 70
0
 66
1
 10
0.0
 20
0.0
 30
0.0
  0
VERTEX
  8
0
 10
7.60687
 20
4.058706
 30
0.0
  0
VERTEX
  8
0
 10
3.902865
 20
4.058706
 30
0.0
  0
SEQEND
  8
0
  0
POLYLINE
  8
0
 62
0
 70
0
 66
1
 10
0.0
 20
0.0
 30
0.0
  0
VERTEX
  8
0
 10
18.12586
 20
5.005504
 30
0.0
  0
VERTEX
  8
0
 10
18.275177
 20
4.769369
 30
0.0
  0
SEQEND
  8
0
  0
POLYLINE
  8
0
 62
0
 70
0
 66
1
 10
0.0
 20
0.0
 30
0.0
  0
VERTEX
  8
0
 10
18.571869
 20
4.296115
 30
0.0
  0
VERTEX
  8
0
 10
18.719271
 20
4.058706
 30
0.0
  0
SEQEND
  8
0
  0
POLYLINE
  8
0
 62
0
 70
0
 66
1
 10
0.0
 20
0.0
 30
0.0
  0
VERTEX
  8
0
 10
3.902865
 20
4.058706
 30
0.0
  0
VERTEX
  8
0
 10
0.198437
 20
4.058706
 30
0.0
  0
SEQEND
  8
0
  0
POLYLINE
  8
0
 62
0
 70
0
 66
1
 10
0.0
 20
0.0
 30
0.0
  0
VERTEX
  8
0
 10
18.719271
 20
4.058706
 30
0.0
  0
VERTEX
  8
0
 10
15.015123
 20
4.058706
 30
0.0
  0
SEQEND
  8
0
  0
POLYLINE
  8
0
 62
0
 70
0
 66
1
 10
0.0
 20
0.0
 30
0.0
  0
VERTEX
  8
0
 10
0.198437
 20
4.058706
 30
0.0
  0
VERTEX
  8
0
 10
0.199458
 20
4.060236
 30
0.0
  0
SEQEND
  8
0
  0
POLYLINE
  8
0
 62
0
 70
0
 66
1
 10
0.0
 20
0.0
 30
0.0
  0
VERTEX
  8
0
 10
0.199458
 20
4.060236
 30
0.0
  0
VERTEX
  8
0
 10
0.200423
 20
4.061684
 30
0.0
  0
SEQEND
  8
0
  0
POLYLINE
  8
0
 62
0
 70
0
 66
1
 10
0.0
 20
0.0
 30
0.0
  0
VERTEX
  8
0
 10
15.015123
 20
4.058706
 30
0.0
  0
VERTEX
  8
0
 10
11.310982
 20
4.058706
 30
0.0
  0
SEQEND
  8
0
  0
POLYLINE
  8
0
 62
0
 70
0
 66
1
 10
0.0
 20
0.0
 30
0.0
  0
VERTEX
  8
0
 10
0.200423
 20
4.061684
 30
0.0
  0
VERTEX
  8
0
 10
0.201573
 20
4.063409
 30
0.0
  0
SEQEND
  8
0
  0
POLYLINE
  8
0
 62
0
 70
0
 66
1
 10
0.0
 20
0.0
 30
0.0
  0
VERTEX
  8
0
 10
22.955352
 20
10.538019
 30
0.0
  0
VERTEX
  8
0
 10
23.208257
 20
10.996956
 30
0.0
  0
SEQEND
  8
0
  0
POLYLINE
  8
0
 62
0
 70
0
 66
1
 10
0.0
 20
0.0
 30
0.0
  0
VERTEX
  8
0
 10
0.201573
 20
4.063409
 30
0.0
  0
VERTEX
  8
0
 10
0.202757
 20
4.065185
 30
0.0
  0
SEQEND
  8
0
  0
POLYLINE
  8
0
 62
0
 70
0
 66
1
 10
0.0
 20
0.0
 30
0.0
  0
VERTEX
  8
0
 10
22.480993
 20
9.806052
 30
0.0
  0
VERTEX
  8
0
 10
22.609731
 20
9.928838
 30
0.0
  0
SEQEND
  8
0
  0
POLYLINE
  8
0
 62
0
 70
0
 66
1
 10
0.0
 20
0.0
 30
0.0
  0
VERTEX
  8
0
 10
22.714479
 20
10.072685
 30
0.0
  0
VERTEX
  8
0
 10
22.955352
 20
10.538019
 30
0.0
  0
SEQEND
  8
0
  0
POLYLINE
  8
0
 62
0
 70
0
 66
1
 10
0.0
 20
0.0
 30
0.0
  0
VERTEX
  8
0
 10
23.749483
 20
11.894397
 30
0.0
  0
VERTEX
  8
0
 10
24.037396
 20
12.332227
 30
0.0
  0
SEQEND
  8
0
  0
POLYLINE
  8
0
 62
0
 70
0
 66
1
 10
0.0
 20
0.0
 30
0.0
  0
VERTEX
  8
0
 10
22.332077
 20
9.70805
 30
0.0
  0
VERTEX
  8
0
 10
22.480993
 20
9.806052
 30
0.0
  0
SEQEND
  8
0
  0
POLYLINE
  8
0
 62
0
 70
0
 66
1
 10
0.0
 20
0.0
 30
0.0
  0
VERTEX
  8
0
 10
21.994812
 20
9.599081
 30
0.0
  0
VERTEX
  8
0
 10
22.168266
 20
9.638348
 30
0.0
  0
SEQEND
  8
0
  0
POLYLINE
  8
0
 62
0
 70
0
 66
1
 10
0.0
 20
0.0
 30
0.0
  0
VERTEX
  8
0
 10
23.473122
 20
11.449341
 30
0.0
  0
VERTEX
  8
0
 10
23.749483
 20
11.894397
 30
0.0
  0
SEQEND
  8
0
  0
POLYLINE
  8
0
 62
0
 70
0
 66
1
 10
0.0
 20
0.0
 30
0.0
  0
VERTEX
  8
0
 10
23.208257
 20
10.996956
 30
0.0
  0
VERTEX
  8
0
 10
23.473122
 20
11.449341
 30
0.0
  0
SEQEND
  8
0
  0
POLYLINE
  8
0
 62
0
 70
0
 66
1
 10
0.0
 20
0.0
 30
0.0
  0
VERTEX
  8
0
 10
22.609731
 20
9.928838
 30
0.0
  0
VERTEX
  8
0
 10
22.714479
 20
10.072685
 30
0.0
  0
SEQEND
  8
0
  0
POLYLINE
  8
0
 62
0
 70
0
 66
1
 10
0.0
 20
0.0
 30
0.0
  0
VERTEX
  8
0
 10
0.202757
 20
4.065185
 30
0.0
  0
VERTEX
  8
0
 10
0.203729
 20
4.066644
 30
0.0
  0
SEQEND
  8
0
  0
POLYLINE
  8
0
 62
0
 70
0
 66
1
 10
0.0
 20
0.0
 30
0.0
  0
VERTEX
  8
0
 10
22.168266
 20
9.638348
 30
0.0
  0
VERTEX
  8
0
 10
22.332077
 20
9.70805
 30
0.0
  0
SEQEND
  8
0
  0
POLYLINE
  8
0
 62
0
 70
0
 66
1
 10
0.0
 20
0.0
 30
0.0
  0
VERTEX
  8
0
 10
24.037396
 20
12.332227
 30
0.0
  0
VERTEX
  8
0
 10
24.334217
 20
12.708573
 30
0.0
  0
SEQEND
  8
0
  0
POLYLINE
  8
0
 62
0
 70
0
 66
1
 10
0.0
 20
0.0
 30
0.0
  0
VERTEX
  8
0
 10
25.029255
 20
13.365775
 30
0.0
  0
VERTEX
  8
0
 10
25.439846
 20
13.61213
 30
0.0
  0
SEQEND
  8
0
  0
POLYLINE
  8
0
 62
0
 70
0
 66
1
 10
0.0
 20
0.0
 30
0.0
  0
VERTEX
  8
0
 10
27.050947
 20
13.749383
 30
0.0
  0
VERTEX
  8
0
 10
27.331458
 20
13.665727
 30
0.0
  0
SEQEND
  8
0
  0
POLYLINE
  8
0
 62
0
 70
0
 66
1
 10
0.0
 20
0.0
 30
0.0
  0
VERTEX
  8
0
 10
27.331458
 20
13.665727
 30
0.0
  0
VERTEX
  8
0
 10
27.643447
 20
13.574801
 30
0.0
  0
SEQEND
  8
0
  0
POLYLINE
  8
0
 62
0
 70
0
 66
1
 10
0.0
 20
0.0
 30
0.0
  0
VERTEX
  8
0
 10
27.643447
 20
13.574801
 30
0.0
  0
VERTEX
  8
0
 10
27.961204
 20
13.507325
 30
0.0
  0
SEQEND
  8
0
  0
POLYLINE
  8
0
 62
0
 70
0
 66
1
 10
0.0
 20
0.0
 30
0.0
  0
VERTEX
  8
0
 10
24.334217
 20
12.708573
 30
0.0
  0
VERTEX
  8
0
 10
24.662324
 20
13.057793
 30
0.0
  0
SEQEND
  8
0
  0
POLYLINE
  8
0
 62
0
 70
0
 66
1
 10
0.0
 20
0.0
 30
0.0
  0
VERTEX
  8
0
 10
25.439846
 20
13.61213
 30
0.0
  0
VERTEX
  8
0
 10
25.889479
 20
13.776852
 30
0.0
  0
SEQEND
  8
0
  0
POLYLINE
  8
0
 62
0
 70
0
 66
1
 10
0.0
 20
0.0
 30
0.0
  0
VERTEX
  8
0
 10
25.889479
 20
13.776852
 30
0.0
  0
VERTEX
  8
0
 10
26.179371
 20
13.816531
 30
0.0
  0
SEQEND
  8
0
  0
POLYLINE
  8
0
 62
0
 70
0
 66
1
 10
0.0
 20
0.0
 30
0.0
  0
VERTEX
  8
0
 10
26.179371
 20
13.816531
 30
0.0
  0
VERTEX
  8
0
 10
26.471584
 20
13.825178
 30
0.0
  0
SEQEND
  8
0
  0
POLYLINE
  8
0
 62
0
 70
0
 66
1
 10
0.0
 20
0.0
 30
0.0
  0
VERTEX
  8
0
 10
26.471584
 20
13.825178
 30
0.0
  0
VERTEX
  8
0
 10
26.763226
 20
13.802725
 30
0.0
  0
SEQEND
  8
0
  0
POLYLINE
  8
0
 62
0
 70
0
 66
1
 10
0.0
 20
0.0
 30
0.0
  0
VERTEX
  8
0
 10
24.662324
 20
13.057793
 30
0.0
  0
VERTEX
  8
0
 10
25.029255
 20
13.365775
 30
0.0
  0
SEQEND
  8
0
  0
POLYLINE
  8
0
 62
0
 70
0
 66
1
 10
0.0
 20
0.0
 30
0.0
  0
VERTEX
  8
0
 10
26.763226
 20
13.802725
 30
0.0
  0
VERTEX
  8
0
 10
27.050947
 20
13.749383
 30
0.0
  0
SEQEND
  8
0
  0
POLYLINE
  8
0
 62
0
 70
0
 66
1
 10
0.0
 20
0.0
 30
0.0
  0
VERTEX
  8
0
 10
28.530021
 20
15.277039
 30
0.0
  0
VERTEX
  8
0
 10
28.32805
 20
15.596379
 30
0.0
  0
SEQEND
  8
0
  0
POLYLINE
  8
0
 62
0
 70
0
 66
1
 10
0.0
 20
0.0
 30
0.0
  0
VERTEX
  8
0
 10
27.917685
 20
16.232032
 30
0.0
  0
VERTEX
  8
0
 10
27.711203
 20
16.548731
 30
0.0
  0
SEQEND
  8
0
  0
POLYLINE
  8
0
 62
0
 70
0
 66
1
 10
0.0
 20
0.0
 30
0.0
  0
VERTEX
  8
0
 10
28.8653
 20
14.748549
 30
0.0
  0
VERTEX
  8
0
 10
28.709087
 20
15.019898
 30
0.0
  0
SEQEND
  8
0
  0
POLYLINE
  8
0
 62
0
 70
0
 66
1
 10
0.0
 20
0.0
 30
0.0
  0
VERTEX
  8
0
 10
28.945085
 20
14.138985
 30
0.0
  0
VERTEX
  8
0
 10
28.958425
 20
14.45036
 30
0.0
  0
SEQEND
  8
0
  0
POLYLINE
  8
0
 62
0
 70
0
 66
1
 10
0.0
 20
0.0
 30
0.0
  0
VERTEX
  8
0
 10
28.284902
 20
13.509968
 30
0.0
  0
VERTEX
  8
0
 10
28.584945
 20
13.627558
 30
0.0
  0
SEQEND
  8
0
  0
POLYLINE
  8
0
 62
0
 70
0
 66
1
 10
0.0
 20
0.0
 30
0.0
  0
VERTEX
  8
0
 10
28.123391
 20
15.914526
 30
0.0
  0
VERTEX
  8
0
 10
27.917685
 20
16.232032
 30
0.0
  0
SEQEND
  8
0
  0
POLYLINE
  8
0
 62
0
 70
0
 66
1
 10
0.0
 20
0.0
 30
0.0
  0
VERTEX
  8
0
 10
28.958425
 20
14.45036
 30
0.0
  0
VERTEX
  8
0
 10
28.8653
 20
14.748549
 30
0.0
  0
SEQEND
  8
0
  0
POLYLINE
  8
0
 62
0
 70
0
 66
1
 10
0.0
 20
0.0
 30
0.0
  0
VERTEX
  8
0
 10
28.813125
 20
13.856227
 30
0.0
  0
VERTEX
  8
0
 10
28.945085
 20
14.138985
 30
0.0
  0
SEQEND
  8
0
  0
POLYLINE
  8
0
 62
0
 70
0
 66
1
 10
0.0
 20
0.0
 30
0.0
  0
VERTEX
  8
0
 10
28.32805
 20
15.596379
 30
0.0
  0
VERTEX
  8
0
 10
28.123391
 20
15.914526
 30
0.0
  0
SEQEND
  8
0
  0
POLYLINE
  8
0
 62
0
 70
0
 66
1
 10
0.0
 20
0.0
 30
0.0
  0
VERTEX
  8
0
 10
28.709087
 20
15.019898
 30
0.0
  0
VERTEX
  8
0
 10
28.530021
 20
15.277039
 30
0.0
  0
SEQEND
  8
0
  0
POLYLINE
  8
0
 62
0
 70
0
 66
1
 10
0.0
 20
0.0
 30
0.0
  0
VERTEX
  8
0
 10
28.584945
 20
13.627558
 30
0.0
  0
VERTEX
  8
0
 10
28.813125
 20
13.856227
 30
0.0
  0
SEQEND
  8
0
  0
POLYLINE
  8
0
 62
0
 70
0
 66
1
 10
0.0
 20
0.0
 30
0.0
  0
VERTEX
  8
0
 10
27.961204
 20
13.507325
 30
0.0
  0
VERTEX
  8
0
 10
28.284902
 20
13.509968
 30
0.0
  0
SEQEND
  8
0
  0
POLYLINE
  8
0
 62
0
 70
0
 66
1
 10
0.0
 20
0.0
 30
0.0
  0
VERTEX
  8
0
 10
27.711203
 20
16.548731
 30
0.0
  0
VERTEX
  8
0
 10
27.503438
 20
16.864539
 30
0.0
  0
SEQEND
  8
0
  0
POLYLINE
  8
0
 62
0
 70
0
 66
1
 10
0.0
 20
0.0
 30
0.0
  0
VERTEX
  8
0
 10
26.997664
 20
17.599404
 30
0.0
  0
VERTEX
  8
0
 10
26.655041
 20
17.882043
 30
0.0
  0
SEQEND
  8
0
  0
POLYLINE
  8
0
 62
0
 70
0
 66
1
 10
0.0
 20
0.0
 30
0.0
  0
VERTEX
  8
0
 10
26.655041
 20
17.882043
 30
0.0
  0
VERTEX
  8
0
 10
26.224562
 20
17.972154
 30
0.0
  0
SEQEND
  8
0
  0
POLYLINE
  8
0
 62
0
 70
0
 66
1
 10
0.0
 20
0.0
 30
0.0
  0
VERTEX
  8
0
 10
25.807458
 20
17.822331
 30
0.0
  0
VERTEX
  8
0
 10
25.599578
 20
17.646163
 30
0.0
  0
SEQEND
  8
0
  0
POLYLINE
  8
0
 62
0
 70
0
 66
1
 10
0.0
 20
0.0
 30
0.0
  0
VERTEX
  8
0
 10
26.224562
 20
17.972154
 30
0.0
  0
VERTEX
  8
0
 10
25.807458
 20
17.822331
 30
0.0
  0
SEQEND
  8
0
  0
POLYLINE
  8
0
 62
0
 70
0
 66
1
 10
0.0
 20
0.0
 30
0.0
  0
VERTEX
  8
0
 10
25.599578
 20
17.646163
 30
0.0
  0
VERTEX
  8
0
 10
25.474516
 20
17.404368
 30
0.0
  0
SEQEND
  8
0
  0
POLYLINE
  8
0
 62
0
 70
0
 66
1
 10
0.0
 20
0.0
 30
0.0
  0
VERTEX
  8
0
 10
25.474516
 20
17.404368
 30
0.0
  0
VERTEX
  8
0
 10
25.442833
 20
17.133225
 30
0.0
  0
SEQEND
  8
0
  0
POLYLINE
  8
0
 62
0
 70
0
 66
1
 10
0.0
 20
0.0
 30
0.0
  0
VERTEX
  8
0
 10
25.486652
 20
16.863615
 30
0.0
  0
VERTEX
  8
0
 10
25.595792
 20
16.613185
 30
0.0
  0
SEQEND
  8
0
  0
POLYLINE
  8
0
 62
0
 70
0
 66
1
 10
0.0
 20
0.0
 30
0.0
  0
VERTEX
  8
0
 10
25.595792
 20
16.613185
 30
0.0
  0
VERTEX
  8
0
 10
25.73947
 20
16.394197
 30
0.0
  0
SEQEND
  8
0
  0
POLYLINE
  8
0
 62
0
 70
0
 66
1
 10
0.0
 20
0.0
 30
0.0
  0
VERTEX
  8
0
 10
25.442833
 20
17.133225
 30
0.0
  0
VERTEX
  8
0
 10
25.486652
 20
16.863615
 30
0.0
  0
SEQEND
  8
0
  0
POLYLINE
  8
0
 62
0
 70
0
 66
1
 10
0.0
 20
0.0
 30
0.0
  0
VERTEX
  8
0
 10
27.503438
 20
16.864539
 30
0.0
  0
VERTEX
  8
0
 10
27.265074
 20
17.241943
 30
0.0
  0
SEQEND
  8
0
  0
POLYLINE
  8
0
 62
0
 70
0
 66
1
 10
0.0
 20
0.0
 30
0.0
  0
VERTEX
  8
0
 10
27.265074
 20
17.241943
 30
0.0
  0
VERTEX
  8
0
 10
26.997664
 20
17.599404
 30
0.0
  0
SEQEND
  8
0
  0
POLYLINE
  8
0
 62
0
 70
0
 66
1
 10
0.0
 20
0.0
 30
0.0
  0
VERTEX
  8
0
 10
25.73947
 20
16.394197
 30
0.0
  0
VERTEX
  8
0
 10
25.884819
 20
16.175947
 30
0.0
  0
SEQEND
  8
0
  0
POLYLINE
  8
0
 62
0
 70
0
 66
1
 10
0.0
 20
0.0
 30
0.0
  0
VERTEX
  8
0
 10
25.884819
 20
16.175947
 30
0.0
  0
VERTEX
  8
0
 10
26.030576
 20
15.958295
 30
0.0
  0
SEQEND
  8
0
  0
POLYLINE
  8
0
 62
0
 70
0
 66
1
 10
0.0
 20
0.0
 30
0.0
  0
VERTEX
  8
0
 10
24.628709
 20
15.127074
 30
0.0
  0
VERTEX
  8
0
 10
24.243771
 20
14.917206
 30
0.0
  0
SEQEND
  8
0
  0
POLYLINE
  8
0
 62
0
 70
0
 66
1
 10
0.0
 20
0.0
 30
0.0
  0
VERTEX
  8
0
 10
26.323396
 20
15.523102
 30
0.0
  0
VERTEX
  8
0
 10
25.886018
 20
15.493382
 30
0.0
  0
SEQEND
  8
0
  0
POLYLINE
  8
0
 62
0
 70
0
 66
1
 10
0.0
 20
0.0
 30
0.0
  0
VERTEX
  8
0
 10
25.886018
 20
15.493382
 30
0.0
  0
VERTEX
  8
0
 10
25.454383
 20
15.416751
 30
0.0
  0
SEQEND
  8
0
  0
POLYLINE
  8
0
 62
0
 70
0
 66
1
 10
0.0
 20
0.0
 30
0.0
  0
VERTEX
  8
0
 10
25.454383
 20
15.416751
 30
0.0
  0
VERTEX
  8
0
 10
25.033824
 20
15.294216
 30
0.0
  0
SEQEND
  8
0
  0
POLYLINE
  8
0
 62
0
 70
0
 66
1
 10
0.0
 20
0.0
 30
0.0
  0
VERTEX
  8
0
 10
25.033824
 20
15.294216
 30
0.0
  0
VERTEX
  8
0
 10
24.628709
 20
15.127074
 30
0.0
  0
SEQEND
  8
0
  0
POLYLINE
  8
0
 62
0
 70
0
 66
1
 10
0.0
 20
0.0
 30
0.0
  0
VERTEX
  8
0
 10
26.030576
 20
15.958295
 30
0.0
  0
VERTEX
  8
0
 10
26.176858
 20
15.740594
 30
0.0
  0
SEQEND
  8
0
  0
POLYLINE
  8
0
 62
0
 70
0
 66
1
 10
0.0
 20
0.0
 30
0.0
  0
VERTEX
  8
0
 10
23.810666
 20
14.60497
 30
0.0
  0
VERTEX
  8
0
 10
23.408831
 20
14.252634
 30
0.0
  0
SEQEND
  8
0
  0
POLYLINE
  8
0
 62
0
 70
0
 66
1
 10
0.0
 20
0.0
 30
0.0
  0
VERTEX
  8
0
 10
26.176858
 20
15.740594
 30
0.0
  0
VERTEX
  8
0
 10
26.323396
 20
15.523102
 30
0.0
  0
SEQEND
  8
0
  0
POLYLINE
  8
0
 62
0
 70
0
 66
1
 10
0.0
 20
0.0
 30
0.0
  0
VERTEX
  8
0
 10
23.408831
 20
14.252634
 30
0.0
  0
VERTEX
  8
0
 10
23.042494
 20
13.863861
 30
0.0
  0
SEQEND
  8
0
  0
POLYLINE
  8
0
 62
0
 70
0
 66
1
 10
0.0
 20
0.0
 30
0.0
  0
VERTEX
  8
0
 10
24.243771
 20
14.917206
 30
0.0
  0
VERTEX
  8
0
 10
23.810666
 20
14.60497
 30
0.0
  0
SEQEND
  8
0
  0
POLYLINE
  8
0
 62
0
 70
0
 66
1
 10
0.0
 20
0.0
 30
0.0
  0
VERTEX
  8
0
 10
21.521208
 20
9.723435
 30
0.0
  0
VERTEX
  8
0
 10
21.609613
 20
9.675423
 30
0.0
  0
SEQEND
  8
0
  0
POLYLINE
  8
0
 62
0
 70
0
 66
1
 10
0.0
 20
0.0
 30
0.0
  0
VERTEX
  8
0
 10
22.026759
 20
12.35927
 30
0.0
  0
VERTEX
  8
0
 10
21.631112
 20
11.723085
 30
0.0
  0
SEQEND
  8
0
  0
POLYLINE
  8
0
 62
0
 70
0
 66
1
 10
0.0
 20
0.0
 30
0.0
  0
VERTEX
  8
0
 10
21.702906
 20
9.63777
 30
0.0
  0
VERTEX
  8
0
 10
21.79991
 20
9.610956
 30
0.0
  0
SEQEND
  8
0
  0
POLYLINE
  8
0
 62
0
 70
0
 66
1
 10
0.0
 20
0.0
 30
0.0
  0
VERTEX
  8
0
 10
22.428729
 20
12.991039
 30
0.0
  0
VERTEX
  8
0
 10
22.026759
 20
12.35927
 30
0.0
  0
SEQEND
  8
0
  0
POLYLINE
  8
0
 62
0
 70
0
 66
1
 10
0.0
 20
0.0
 30
0.0
  0
VERTEX
  8
0
 10
21.631112
 20
11.723085
 30
0.0
  0
VERTEX
  8
0
 10
21.294385
 20
11.054856
 30
0.0
  0
SEQEND
  8
0
  0
POLYLINE
  8
0
 62
0
 70
0
 66
1
 10
0.0
 20
0.0
 30
0.0
  0
VERTEX
  8
0
 10
21.609613
 20
9.675423
 30
0.0
  0
VERTEX
  8
0
 10
21.702906
 20
9.63777
 30
0.0
  0
SEQEND
  8
0
  0
POLYLINE
  8
0
 62
0
 70
0
 66
1
 10
0.0
 20
0.0
 30
0.0
  0
VERTEX
  8
0
 10
21.79991
 20
9.610956
 30
0.0
  0
VERTEX
  8
0
 10
21.899199
 20
9.595358
 30
0.0
  0
SEQEND
  8
0
  0
POLYLINE
  8
0
 62
0
 70
0
 66
1
 10
0.0
 20
0.0
 30
0.0
  0
VERTEX
  8
0
 10
21.899199
 20
9.595358
 30
0.0
  0
VERTEX
  8
0
 10
22.000104
 20
9.591144
 30
0.0
  0
SEQEND
  8
0
  0
POLYLINE
  8
0
 62
0
 70
0
 66
1
 10
0.0
 20
0.0
 30
0.0
  0
VERTEX
  8
0
 10
23.042494
 20
13.863861
 30
0.0
  0
VERTEX
  8
0
 10
22.71474
 20
13.441958
 30
0.0
  0
SEQEND
  8
0
  0
POLYLINE
  8
0
 62
0
 70
0
 66
1
 10
0.0
 20
0.0
 30
0.0
  0
VERTEX
  8
0
 10
22.71474
 20
13.441958
 30
0.0
  0
VERTEX
  8
0
 10
22.428729
 20
12.991039
 30
0.0
  0
SEQEND
  8
0
  0
POLYLINE
  8
0
 62
0
 70
0
 66
1
 10
0.0
 20
0.0
 30
0.0
  0
VERTEX
  8
0
 10
21.294385
 20
11.054856
 30
0.0
  0
VERTEX
  8
0
 10
21.139742
 20
10.327925
 30
0.0
  0
SEQEND
  8
0
  0
POLYLINE
  8
0
 62
0
 70
0
 66
1
 10
0.0
 20
0.0
 30
0.0
  0
VERTEX
  8
0
 10
21.139742
 20
10.327925
 30
0.0
  0
VERTEX
  8
0
 10
21.521208
 20
9.723435
 30
0.0
  0
SEQEND
  8
0
  0
POLYLINE
  8
0
 62
0
 70
0
 66
1
 10
0.0
 20
0.0
 30
0.0
  0
VERTEX
  8
0
 10
22.000104
 20
9.591144
 30
0.0
  0
VERTEX
  8
0
 10
21.999084
 20
9.592674
 30
0.0
  0
SEQEND
  8
0
  0
POLYLINE
  8
0
 62
0
 70
0
 66
1
 10
0.0
 20
0.0
 30
0.0
  0
VERTEX
  8
0
 10
21.999084
 20
9.592674
 30
0.0
  0
VERTEX
  8
0
 10
21.998119
 20
9.594122
 30
0.0
  0
SEQEND
  8
0
  0
POLYLINE
  8
0
 62
0
 70
0
 66
1
 10
0.0
 20
0.0
 30
0.0
  0
VERTEX
  8
0
 10
21.998119
 20
9.594122
 30
0.0
  0
VERTEX
  8
0
 10
21.996969
 20
9.595847
 30
0.0
  0
SEQEND
  8
0
  0
POLYLINE
  8
0
 62
0
 70
0
 66
1
 10
0.0
 20
0.0
 30
0.0
  0
VERTEX
  8
0
 10
21.996969
 20
9.595847
 30
0.0
  0
VERTEX
  8
0
 10
21.995785
 20
9.597622
 30
0.0
  0
SEQEND
  8
0
  0
POLYLINE
  8
0
 62
0
 70
0
 66
1
 10
0.0
 20
0.0
 30
0.0
  0
VERTEX
  8
0
 10
21.995785
 20
9.597622
 30
0.0
  0
VERTEX
  8
0
 10
21.994812
 20
9.599081
 30
0.0
  0
SEQEND
  8
0
  0
POLYLINE
  8
0
 62
0
 70
0
 66
1
 10
0.0
 20
0.0
 30
0.0
  0
VERTEX
  8
0
 10
0.0
 20
0.074081
 30
0.0
  0
VERTEX
  8
0
 10
0.196812
 20
0.591506
 30
0.0
  0
SEQEND
  8
0
  0
POLYLINE
  8
0
 62
0
 70
0
 66
1
 10
0.0
 20
0.0
 30
0.0
  0
VERTEX
  8
0
 10
0.196812
 20
0.591506
 30
0.0
  0
VERTEX
  8
0
 10
0.393741
 20
1.10924
 30
0.0
  0
SEQEND
  8
0
  0
POLYLINE
  8
0
 62
0
 70
0
 66
1
 10
0.0
 20
0.0
 30
0.0
  0
VERTEX
  8
0
 10
0.393741
 20
1.10924
 30
0.0
  0
VERTEX
  8
0
 10
0.590603
 20
1.626796
 30
0.0
  0
SEQEND
  8
0
  0
POLYLINE
  8
0
 62
0
 70
0
 66
1
 10
0.0
 20
0.0
 30
0.0
  0
VERTEX
  8
0
 10
0.590603
 20
1.626796
 30
0.0
  0
VERTEX
  8
0
 10
0.787514
 20
2.144481
 30
0.0
  0
SEQEND
  8
0
  0
POLYLINE
  8
0
 62
0
 70
0
 66
1
 10
0.0
 20
0.0
 30
0.0
  0
VERTEX
  8
0
 10
2.030374
 20
2.144281
 30
0.0
  0
VERTEX
  8
0
 10
2.22995
 20
1.626547
 30
0.0
  0
SEQEND
  8
0
  0
POLYLINE
  8
0
 62
0
 70
0
 66
1
 10
0.0
 20
0.0
 30
0.0
  0
VERTEX
  8
0
 10
2.22995
 20
1.626547
 30
0.0
  0
VERTEX
  8
0
 10
2.429458
 20
1.108991
 30
0.0
  0
SEQEND
  8
0
  0
POLYLINE
  8
0
 62
0
 70
0
 66
1
 10
0.0
 20
0.0
 30
0.0
  0
VERTEX
  8
0
 10
2.629016
 20
0.591306
 30
0.0
  0
VERTEX
  8
0
 10
2.828396
 20
0.074081
 30
0.0
  0
SEQEND
  8
0
  0
POLYLINE
  8
0
 62
0
 70
0
 66
1
 10
0.0
 20
0.0
 30
0.0
  0
VERTEX
  8
0
 10
2.429458
 20
1.108991
 30
0.0
  0
VERTEX
  8
0
 10
2.629016
 20
0.591306
 30
0.0
  0
SEQEND
  8
0
  0
POLYLINE
  8
0
 62
0
 70
0
 66
1
 10
0.0
 20
0.0
 30
0.0
  0
VERTEX
  8
0
 10
0.98425
 20
2.661706
 30
0.0
  0
VERTEX
  8
0
 10
1.153551
 20
2.661706
 30
0.0
  0
SEQEND
  8
0
  0
POLYLINE
  8
0
 62
0
 70
0
 66
1
 10
0.0
 20
0.0
 30
0.0
  0
VERTEX
  8
0
 10
1.661586
 20
2.661706
 30
0.0
  0
VERTEX
  8
0
 10
1.830917
 20
2.661706
 30
0.0
  0
SEQEND
  8
0
  0
POLYLINE
  8
0
 62
0
 70
0
 66
1
 10
0.0
 20
0.0
 30
0.0
  0
VERTEX
  8
0
 10
1.153551
 20
2.661706
 30
0.0
  0
VERTEX
  8
0
 10
1.322952
 20
2.661706
 30
0.0
  0
SEQEND
  8
0
  0
POLYLINE
  8
0
 62
0
 70
0
 66
1
 10
0.0
 20
0.0
 30
0.0
  0
VERTEX
  8
0
 10
1.322952
 20
2.661706
 30
0.0
  0
VERTEX
  8
0
 10
1.492123
 20
2.661706
 30
0.0
  0
SEQEND
  8
0
  0
POLYLINE
  8
0
 62
0
 70
0
 66
1
 10
0.0
 20
0.0
 30
0.0
  0
VERTEX
  8
0
 10
1.492123
 20
2.661706
 30
0.0
  0
VERTEX
  8
0
 10
1.661586
 20
2.661706
 30
0.0
  0
SEQEND
  8
0
  0
POLYLINE
  8
0
 62
0
 70
0
 66
1
 10
0.0
 20
0.0
 30
0.0
  0
VERTEX
  8
0
 10
1.830917
 20
2.661706
 30
0.0
  0
VERTEX
  8
0
 10
2.030374
 20
2.144281
 30
0.0
  0
SEQEND
  8
0
  0
POLYLINE
  8
0
 62
0
 70
0
 66
1
 10
0.0
 20
0.0
 30
0.0
  0
VERTEX
  8
0
 10
0.787514
 20
2.144481
 30
0.0
  0
VERTEX
  8
0
 10
0.98425
 20
2.661706
 30
0.0
  0
SEQEND
  8
0
  0
POLYLINE
  8
0
 62
0
 70
0
 66
1
 10
0.0
 20
0.0
 30
0.0
  0
VERTEX
  8
0
 10
2.676554
 20
0.074081
 30
0.0
  0
VERTEX
  8
0
 10
2.524622
 20
0.074081
 30
0.0
  0
SEQEND
  8
0
  0
POLYLINE
  8
0
 62
0
 70
0
 66
1
 10
0.0
 20
0.0
 30
0.0
  0
VERTEX
  8
0
 10
2.524622
 20
0.074081
 30
0.0
  0
VERTEX
  8
0
 10
2.372897
 20
0.074081
 30
0.0
  0
SEQEND
  8
0
  0
POLYLINE
  8
0
 62
0
 70
0
 66
1
 10
0.0
 20
0.0
 30
0.0
  0
VERTEX
  8
0
 10
2.069042
 20
0.074081
 30
0.0
  0
VERTEX
  8
0
 10
2.030949
 20
0.184126
 30
0.0
  0
SEQEND
  8
0
  0
POLYLINE
  8
0
 62
0
 70
0
 66
1
 10
0.0
 20
0.0
 30
0.0
  0
VERTEX
  8
0
 10
2.372897
 20
0.074081
 30
0.0
  0
VERTEX
  8
0
 10
2.22091
 20
0.074081
 30
0.0
  0
SEQEND
  8
0
  0
POLYLINE
  8
0
 62
0
 70
0
 66
1
 10
0.0
 20
0.0
 30
0.0
  0
VERTEX
  8
0
 10
1.992931
 20
0.293955
 30
0.0
  0
VERTEX
  8
0
 10
1.954845
 20
0.403983
 30
0.0
  0
SEQEND
  8
0
  0
POLYLINE
  8
0
 62
0
 70
0
 66
1
 10
0.0
 20
0.0
 30
0.0
  0
VERTEX
  8
0
 10
2.828396
 20
0.074081
 30
0.0
  0
VERTEX
  8
0
 10
2.676554
 20
0.074081
 30
0.0
  0
SEQEND
  8
0
  0
POLYLINE
  8
0
 62
0
 70
0
 66
1
 10
0.0
 20
0.0
 30
0.0
  0
VERTEX
  8
0
 10
2.22091
 20
0.074081
 30
0.0
  0
VERTEX
  8
0
 10
2.069042
 20
0.074081
 30
0.0
  0
SEQEND
  8
0
  0
POLYLINE
  8
0
 62
0
 70
0
 66
1
 10
0.0
 20
0.0
 30
0.0
  0
VERTEX
  8
0
 10
2.030949
 20
0.184126
 30
0.0
  0
VERTEX
  8
0
 10
1.992931
 20
0.293955
 30
0.0
  0
SEQEND
  8
0
  0
POLYLINE
  8
0
 62
0
 70
0
 66
1
 10
0.0
 20
0.0
 30
0.0
  0
VERTEX
  8
0
 10
1.954845
 20
0.403983
 30
0.0
  0
VERTEX
  8
0
 10
1.916682
 20
0.51423
 30
0.0
  0
SEQEND
  8
0
  0
POLYLINE
  8
0
 62
0
 70
0
 66
1
 10
0.0
 20
0.0
 30
0.0
  0
VERTEX
  8
0
 10
1.683846
 20
0.624414
 30
0.0
  0
VERTEX
  8
0
 10
1.489034
 20
0.624414
 30
0.0
  0
SEQEND
  8
0
  0
POLYLINE
  8
0
 62
0
 70
0
 66
1
 10
0.0
 20
0.0
 30
0.0
  0
VERTEX
  8
0
 10
1.878542
 20
0.624414
 30
0.0
  0
VERTEX
  8
0
 10
1.683846
 20
0.624414
 30
0.0
  0
SEQEND
  8
0
  0
POLYLINE
  8
0
 62
0
 70
0
 66
1
 10
0.0
 20
0.0
 30
0.0
  0
VERTEX
  8
0
 10
1.916682
 20
0.51423
 30
0.0
  0
VERTEX
  8
0
 10
1.878542
 20
0.624414
 30
0.0
  0
SEQEND
  8
0
  0
POLYLINE
  8
0
 62
0
 70
0
 66
1
 10
0.0
 20
0.0
 30
0.0
  0
VERTEX
  8
0
 10
1.294488
 20
0.624414
 30
0.0
  0
VERTEX
  8
0
 10
1.099605
 20
0.624414
 30
0.0
  0
SEQEND
  8
0
  0
POLYLINE
  8
0
 62
0
 70
0
 66
1
 10
0.0
 20
0.0
 30
0.0
  0
VERTEX
  8
0
 10
0.560944
 20
0.074081
 30
0.0
  0
VERTEX
  8
0
 10
0.420658
 20
0.074081
 30
0.0
  0
SEQEND
  8
0
  0
POLYLINE
  8
0
 62
0
 70
0
 66
1
 10
0.0
 20
0.0
 30
0.0
  0
VERTEX
  8
0
 10
0.823479
 20
0.40454
 30
0.0
  0
VERTEX
  8
0
 10
0.782748
 20
0.294512
 30
0.0
  0
SEQEND
  8
0
  0
POLYLINE
  8
0
 62
0
 70
0
 66
1
 10
0.0
 20
0.0
 30
0.0
  0
VERTEX
  8
0
 10
0.701146
 20
0.074081
 30
0.0
  0
VERTEX
  8
0
 10
0.560944
 20
0.074081
 30
0.0
  0
SEQEND
  8
0
  0
POLYLINE
  8
0
 62
0
 70
0
 66
1
 10
0.0
 20
0.0
 30
0.0
  0
VERTEX
  8
0
 10
0.741935
 20
0.184265
 30
0.0
  0
VERTEX
  8
0
 10
0.701146
 20
0.074081
 30
0.0
  0
SEQEND
  8
0
  0
POLYLINE
  8
0
 62
0
 70
0
 66
1
 10
0.0
 20
0.0
 30
0.0
  0
VERTEX
  8
0
 10
0.782748
 20
0.294512
 30
0.0
  0
VERTEX
  8
0
 10
0.741935
 20
0.184265
 30
0.0
  0
SEQEND
  8
0
  0
POLYLINE
  8
0
 62
0
 70
0
 66
1
 10
0.0
 20
0.0
 30
0.0
  0
VERTEX
  8
0
 10
0.420658
 20
0.074081
 30
0.0
  0
VERTEX
  8
0
 10
0.280563
 20
0.074081
 30
0.0
  0
SEQEND
  8
0
  0
POLYLINE
  8
0
 62
0
 70
0
 66
1
 10
0.0
 20
0.0
 30
0.0
  0
VERTEX
  8
0
 10
1.099605
 20
0.624414
 30
0.0
  0
VERTEX
  8
0
 10
0.904875
 20
0.624414
 30
0.0
  0
SEQEND
  8
0
  0
POLYLINE
  8
0
 62
0
 70
0
 66
1
 10
0.0
 20
0.0
 30
0.0
  0
VERTEX
  8
0
 10
0.904875
 20
0.624414
 30
0.0
  0
VERTEX
  8
0
 10
0.864137
 20
0.514369
 30
0.0
  0
SEQEND
  8
0
  0
POLYLINE
  8
0
 62
0
 70
0
 66
1
 10
0.0
 20
0.0
 30
0.0
  0
VERTEX
  8
0
 10
0.280563
 20
0.074081
 30
0.0
  0
VERTEX
  8
0
 10
0.140227
 20
0.074081
 30
0.0
  0
SEQEND
  8
0
  0
POLYLINE
  8
0
 62
0
 70
0
 66
1
 10
0.0
 20
0.0
 30
0.0
  0
VERTEX
  8
0
 10
1.489034
 20
0.624414
 30
0.0
  0
VERTEX
  8
0
 10
1.294488
 20
0.624414
 30
0.0
  0
SEQEND
  8
0
  0
POLYLINE
  8
0
 62
0
 70
0
 66
1
 10
0.0
 20
0.0
 30
0.0
  0
VERTEX
  8
0
 10
0.864137
 20
0.514369
 30
0.0
  0
VERTEX
  8
0
 10
0.823479
 20
0.40454
 30
0.0
  0
SEQEND
  8
0
  0
POLYLINE
  8
0
 62
0
 70
0
 66
1
 10
0.0
 20
0.0
 30
0.0
  0
VERTEX
  8
0
 10
0.140227
 20
0.074081
 30
0.0
  0
VERTEX
  8
0
 10
0.0
 20
0.074081
 30
0.0
  0
SEQEND
  8
0
  0
POLYLINE
  8
0
 62
0
 70
0
 66
1
 10
0.0
 20
0.0
 30
0.0
  0
VERTEX
  8
0
 10
1.402292
 20
2.129894
 30
0.0
  0
VERTEX
  8
0
 10
1.333513
 20
1.926733
 30
0.0
  0
SEQEND
  8
0
  0
POLYLINE
  8
0
 62
0
 70
0
 66
1
 10
0.0
 20
0.0
 30
0.0
  0
VERTEX
  8
0
 10
1.058333
 20
1.113894
 30
0.0
  0
VERTEX
  8
0
 10
1.189541
 20
1.113894
 30
0.0
  0
SEQEND
  8
0
  0
POLYLINE
  8
0
 62
0
 70
0
 66
1
 10
0.0
 20
0.0
 30
0.0
  0
VERTEX
  8
0
 10
1.264694
 20
1.723451
 30
0.0
  0
VERTEX
  8
0
 10
1.195968
 20
1.520446
 30
0.0
  0
SEQEND
  8
0
  0
POLYLINE
  8
0
 62
0
 70
0
 66
1
 10
0.0
 20
0.0
 30
0.0
  0
VERTEX
  8
0
 10
1.7145
 20
1.113894
 30
0.0
  0
VERTEX
  8
0
 10
1.65207
 20
1.317054
 30
0.0
  0
SEQEND
  8
0
  0
POLYLINE
  8
0
 62
0
 70
0
 66
1
 10
0.0
 20
0.0
 30
0.0
  0
VERTEX
  8
0
 10
1.527222
 20
1.723341
 30
0.0
  0
VERTEX
  8
0
 10
1.464732
 20
1.926697
 30
0.0
  0
SEQEND
  8
0
  0
POLYLINE
  8
0
 62
0
 70
0
 66
1
 10
0.0
 20
0.0
 30
0.0
  0
VERTEX
  8
0
 10
1.195968
 20
1.520446
 30
0.0
  0
VERTEX
  8
0
 10
1.127124
 20
1.31709
 30
0.0
  0
SEQEND
  8
0
  0
POLYLINE
  8
0
 62
0
 70
0
 66
1
 10
0.0
 20
0.0
 30
0.0
  0
VERTEX
  8
0
 10
1.589604
 20
1.520336
 30
0.0
  0
VERTEX
  8
0
 10
1.527222
 20
1.723341
 30
0.0
  0
SEQEND
  8
0
  0
POLYLINE
  8
0
 62
0
 70
0
 66
1
 10
0.0
 20
0.0
 30
0.0
  0
VERTEX
  8
0
 10
1.65207
 20
1.317054
 30
0.0
  0
VERTEX
  8
0
 10
1.589604
 20
1.520336
 30
0.0
  0
SEQEND
  8
0
  0
POLYLINE
  8
0
 62
0
 70
0
 66
1
 10
0.0
 20
0.0
 30
0.0
  0
VERTEX
  8
0
 10
1.464732
 20
1.926697
 30
0.0
  0
VERTEX
  8
0
 10
1.402292
 20
2.129894
 30
0.0
  0
SEQEND
  8
0
  0
POLYLINE
  8
0
 62
0
 70
0
 66
1
 10
0.0
 20
0.0
 30
0.0
  0
VERTEX
  8
0
 10
1.333513
 20
1.926733
 30
0.0
  0
VERTEX
  8
0
 10
1.264694
 20
1.723451
 30
0.0
  0
SEQEND
  8
0
  0
POLYLINE
  8
0
 62
0
 70
0
 66
1
 10
0.0
 20
0.0
 30
0.0
  0
VERTEX
  8
0
 10
1.127124
 20
1.31709
 30
0.0
  0
VERTEX
  8
0
 10
1.058333
 20
1.113894
 30
0.0
  0
SEQEND
  8
0
  0
POLYLINE
  8
0
 62
0
 70
0
 66
1
 10
0.0
 20
0.0
 30
0.0
  0
VERTEX
  8
0
 10
3.271102
 20
0.148264
 30
0.0
  0
VERTEX
  8
0
 10
3.006333
 20
0.371121
 30
0.0
  0
SEQEND
  8
0
  0
POLYLINE
  8
0
 62
0
 70
0
 66
1
 10
0.0
 20
0.0
 30
0.0
  0
VERTEX
  8
0
 10
1.451935
 20
1.113894
 30
0.0
  0
VERTEX
  8
0
 10
1.583269
 20
1.113894
 30
0.0
  0
SEQEND
  8
0
  0
POLYLINE
  8
0
 62
0
 70
0
 66
1
 10
0.0
 20
0.0
 30
0.0
  0
VERTEX
  8
0
 10
1.189541
 20
1.113894
 30
0.0
  0
VERTEX
  8
0
 10
1.320828
 20
1.113894
 30
0.0
  0
SEQEND
  8
0
  0
POLYLINE
  8
0
 62
0
 70
0
 66
1
 10
0.0
 20
0.0
 30
0.0
  0
VERTEX
  8
0
 10
1.320828
 20
1.113894
 30
0.0
  0
VERTEX
  8
0
 10
1.451935
 20
1.113894
 30
0.0
  0
SEQEND
  8
0
  0
POLYLINE
  8
0
 62
0
 70
0
 66
1
 10
0.0
 20
0.0
 30
0.0
  0
VERTEX
  8
0
 10
1.583269
 20
1.113894
 30
0.0
  0
VERTEX
  8
0
 10
1.7145
 20
1.113894
 30
0.0
  0
SEQEND
  8
0
  0
POLYLINE
  8
0
 62
0
 70
0
 66
1
 10
0.0
 20
0.0
 30
0.0
  0
VERTEX
  8
0
 10
3.598249
 20
0.03243
 30
0.0
  0
VERTEX
  8
0
 10
3.271102
 20
0.148264
 30
0.0
  0
SEQEND
  8
0
  0
POLYLINE
  8
0
 62
0
 70
0
 66
1
 10
0.0
 20
0.0
 30
0.0
  0
VERTEX
  8
0
 10
3.944937
 20
-2e-06
 30
0.0
  0
VERTEX
  8
0
 10
3.598249
 20
0.03243
 30
0.0
  0
SEQEND
  8
0
  0
POLYLINE
  8
0
 62
0
 70
0
 66
1
 10
0.0
 20
0.0
 30
0.0
  0
VERTEX
  8
0
 10
3.006333
 20
0.371121
 30
0.0
  0
VERTEX
  8
0
 10
2.8533
 20
0.681864
 30
0.0
  0
SEQEND
  8
0
  0
POLYLINE
  8
0
 62
0
 70
0
 66
1
 10
0.0
 20
0.0
 30
0.0
  0
VERTEX
  8
0
 10
2.809875
 20
1.026581
 30
0.0
  0
VERTEX
  8
0
 10
2.809875
 20
1.348252
 30
0.0
  0
SEQEND
  8
0
  0
POLYLINE
  8
0
 62
0
 70
0
 66
1
 10
0.0
 20
0.0
 30
0.0
  0
VERTEX
  8
0
 10
2.809875
 20
1.670115
 30
0.0
  0
VERTEX
  8
0
 10
2.809875
 20
1.991868
 30
0.0
  0
SEQEND
  8
0
  0
POLYLINE
  8
0
 62
0
 70
0
 66
1
 10
0.0
 20
0.0
 30
0.0
  0
VERTEX
  8
0
 10
2.809875
 20
1.348252
 30
0.0
  0
VERTEX
  8
0
 10
2.809875
 20
1.670115
 30
0.0
  0
SEQEND
  8
0
  0
POLYLINE
  8
0
 62
0
 70
0
 66
1
 10
0.0
 20
0.0
 30
0.0
  0
VERTEX
  8
0
 10
2.8533
 20
0.681864
 30
0.0
  0
VERTEX
  8
0
 10
2.809875
 20
1.026581
 30
0.0
  0
SEQEND
  8
0
  0
POLYLINE
  8
0
 62
0
 70
0
 66
1
 10
0.0
 20
0.0
 30
0.0
  0
VERTEX
  8
0
 10
3.086129
 20
2.635248
 30
0.0
  0
VERTEX
  8
0
 10
3.224109
 20
2.635248
 30
0.0
  0
SEQEND
  8
0
  0
POLYLINE
  8
0
 62
0
 70
0
 66
1
 10
0.0
 20
0.0
 30
0.0
  0
VERTEX
  8
0
 10
3.224109
 20
2.635248
 30
0.0
  0
VERTEX
  8
0
 10
3.362327
 20
2.635248
 30
0.0
  0
SEQEND
  8
0
  0
POLYLINE
  8
0
 62
0
 70
0
 66
1
 10
0.0
 20
0.0
 30
0.0
  0
VERTEX
  8
0
 10
3.500438
 20
1.739817
 30
0.0
  0
VERTEX
  8
0
 10
3.500438
 20
1.441274
 30
0.0
  0
SEQEND
  8
0
  0
POLYLINE
  8
0
 62
0
 70
0
 66
1
 10
0.0
 20
0.0
 30
0.0
  0
VERTEX
  8
0
 10
2.809875
 20
2.313701
 30
0.0
  0
VERTEX
  8
0
 10
2.809875
 20
2.635248
 30
0.0
  0
SEQEND
  8
0
  0
POLYLINE
  8
0
 62
0
 70
0
 66
1
 10
0.0
 20
0.0
 30
0.0
  0
VERTEX
  8
0
 10
2.809875
 20
2.635248
 30
0.0
  0
VERTEX
  8
0
 10
2.947961
 20
2.635248
 30
0.0
  0
SEQEND
  8
0
  0
POLYLINE
  8
0
 62
0
 70
0
 66
1
 10
0.0
 20
0.0
 30
0.0
  0
VERTEX
  8
0
 10
2.947961
 20
2.635248
 30
0.0
  0
VERTEX
  8
0
 10
3.086129
 20
2.635248
 30
0.0
  0
SEQEND
  8
0
  0
POLYLINE
  8
0
 62
0
 70
0
 66
1
 10
0.0
 20
0.0
 30
0.0
  0
VERTEX
  8
0
 10
3.362327
 20
2.635248
 30
0.0
  0
VERTEX
  8
0
 10
3.500438
 20
2.635248
 30
0.0
  0
SEQEND
  8
0
  0
POLYLINE
  8
0
 62
0
 70
0
 66
1
 10
0.0
 20
0.0
 30
0.0
  0
VERTEX
  8
0
 10
2.809875
 20
1.991868
 30
0.0
  0
VERTEX
  8
0
 10
2.809875
 20
2.313701
 30
0.0
  0
SEQEND
  8
0
  0
POLYLINE
  8
0
 62
0
 70
0
 66
1
 10
0.0
 20
0.0
 30
0.0
  0
VERTEX
  8
0
 10
3.500438
 20
2.635248
 30
0.0
  0
VERTEX
  8
0
 10
3.500438
 20
2.336855
 30
0.0
  0
SEQEND
  8
0
  0
POLYLINE
  8
0
 62
0
 70
0
 66
1
 10
0.0
 20
0.0
 30
0.0
  0
VERTEX
  8
0
 10
3.500438
 20
2.336855
 30
0.0
  0
VERTEX
  8
0
 10
3.500438
 20
2.038285
 30
0.0
  0
SEQEND
  8
0
  0
POLYLINE
  8
0
 62
0
 70
0
 66
1
 10
0.0
 20
0.0
 30
0.0
  0
VERTEX
  8
0
 10
3.500438
 20
2.038285
 30
0.0
  0
VERTEX
  8
0
 10
3.500438
 20
1.739817
 30
0.0
  0
SEQEND
  8
0
  0
POLYLINE
  8
0
 62
0
 70
0
 66
1
 10
0.0
 20
0.0
 30
0.0
  0
VERTEX
  8
0
 10
3.500438
 20
1.441274
 30
0.0
  0
VERTEX
  8
0
 10
3.500438
 20
1.142998
 30
0.0
  0
SEQEND
  8
0
  0
POLYLINE
  8
0
 62
0
 70
0
 66
1
 10
0.0
 20
0.0
 30
0.0
  0
VERTEX
  8
0
 10
4.259657
 20
0.642721
 30
0.0
  0
VERTEX
  8
0
 10
4.344079
 20
0.795744
 30
0.0
  0
SEQEND
  8
0
  0
POLYLINE
  8
0
 62
0
 70
0
 66
1
 10
0.0
 20
0.0
 30
0.0
  0
VERTEX
  8
0
 10
3.547377
 20
0.796437
 30
0.0
  0
VERTEX
  8
0
 10
3.630825
 20
0.643151
 30
0.0
  0
SEQEND
  8
0
  0
POLYLINE
  8
0
 62
0
 70
0
 66
1
 10
0.0
 20
0.0
 30
0.0
  0
VERTEX
  8
0
 10
4.11764
 20
0.542447
 30
0.0
  0
VERTEX
  8
0
 10
4.259657
 20
0.642721
 30
0.0
  0
SEQEND
  8
0
  0
POLYLINE
  8
0
 62
0
 70
0
 66
1
 10
0.0
 20
0.0
 30
0.0
  0
VERTEX
  8
0
 10
4.344079
 20
0.795744
 30
0.0
  0
VERTEX
  8
0
 10
4.382173
 20
0.967529
 30
0.0
  0
SEQEND
  8
0
  0
POLYLINE
  8
0
 62
0
 70
0
 66
1
 10
0.0
 20
0.0
 30
0.0
  0
VERTEX
  8
0
 10
3.772628
 20
0.542391
 30
0.0
  0
VERTEX
  8
0
 10
3.944937
 20
0.513289
 30
0.0
  0
SEQEND
  8
0
  0
POLYLINE
  8
0
 62
0
 70
0
 66
1
 10
0.0
 20
0.0
 30
0.0
  0
VERTEX
  8
0
 10
3.944937
 20
0.513289
 30
0.0
  0
VERTEX
  8
0
 10
4.11764
 20
0.542447
 30
0.0
  0
SEQEND
  8
0
  0
POLYLINE
  8
0
 62
0
 70
0
 66
1
 10
0.0
 20
0.0
 30
0.0
  0
VERTEX
  8
0
 10
4.392083
 20
1.44139
 30
0.0
  0
VERTEX
  8
0
 10
4.392083
 20
1.73996
 30
0.0
  0
SEQEND
  8
0
  0
POLYLINE
  8
0
 62
0
 70
0
 66
1
 10
0.0
 20
0.0
 30
0.0
  0
VERTEX
  8
0
 10
3.630825
 20
0.643151
 30
0.0
  0
VERTEX
  8
0
 10
3.772628
 20
0.542391
 30
0.0
  0
SEQEND
  8
0
  0
POLYLINE
  8
0
 62
0
 70
0
 66
1
 10
0.0
 20
0.0
 30
0.0
  0
VERTEX
  8
0
 10
3.510093
 20
0.967807
 30
0.0
  0
VERTEX
  8
0
 10
3.547377
 20
0.796437
 30
0.0
  0
SEQEND
  8
0
  0
POLYLINE
  8
0
 62
0
 70
0
 66
1
 10
0.0
 20
0.0
 30
0.0
  0
VERTEX
  8
0
 10
4.382173
 20
0.967529
 30
0.0
  0
VERTEX
  8
0
 10
4.392083
 20
1.142998
 30
0.0
  0
SEQEND
  8
0
  0
POLYLINE
  8
0
 62
0
 70
0
 66
1
 10
0.0
 20
0.0
 30
0.0
  0
VERTEX
  8
0
 10
3.500438
 20
1.142998
 30
0.0
  0
VERTEX
  8
0
 10
3.510093
 20
0.967807
 30
0.0
  0
SEQEND
  8
0
  0
POLYLINE
  8
0
 62
0
 70
0
 66
1
 10
0.0
 20
0.0
 30
0.0
  0
VERTEX
  8
0
 10
4.392083
 20
1.142998
 30
0.0
  0
VERTEX
  8
0
 10
4.392083
 20
1.44139
 30
0.0
  0
SEQEND
  8
0
  0
POLYLINE
  8
0
 62
0
 70
0
 66
1
 10
0.0
 20
0.0
 30
0.0
  0
VERTEX
  8
0
 10
4.392083
 20
2.336971
 30
0.0
  0
VERTEX
  8
0
 10
4.392083
 20
2.635248
 30
0.0
  0
SEQEND
  8
0
  0
POLYLINE
  8
0
 62
0
 70
0
 66
1
 10
0.0
 20
0.0
 30
0.0
  0
VERTEX
  8
0
 10
4.668337
 20
2.635248
 30
0.0
  0
VERTEX
  8
0
 10
4.806317
 20
2.635248
 30
0.0
  0
SEQEND
  8
0
  0
POLYLINE
  8
0
 62
0
 70
0
 66
1
 10
0.0
 20
0.0
 30
0.0
  0
VERTEX
  8
0
 10
4.530169
 20
2.635248
 30
0.0
  0
VERTEX
  8
0
 10
4.668337
 20
2.635248
 30
0.0
  0
SEQEND
  8
0
  0
POLYLINE
  8
0
 62
0
 70
0
 66
1
 10
0.0
 20
0.0
 30
0.0
  0
VERTEX
  8
0
 10
4.392083
 20
2.038428
 30
0.0
  0
VERTEX
  8
0
 10
4.392083
 20
2.336971
 30
0.0
  0
SEQEND
  8
0
  0
POLYLINE
  8
0
 62
0
 70
0
 66
1
 10
0.0
 20
0.0
 30
0.0
  0
VERTEX
  8
0
 10
4.806317
 20
2.635248
 30
0.0
  0
VERTEX
  8
0
 10
4.944536
 20
2.635248
 30
0.0
  0
SEQEND
  8
0
  0
POLYLINE
  8
0
 62
0
 70
0
 66
1
 10
0.0
 20
0.0
 30
0.0
  0
VERTEX
  8
0
 10
4.944536
 20
2.635248
 30
0.0
  0
VERTEX
  8
0
 10
5.082646
 20
2.635248
 30
0.0
  0
SEQEND
  8
0
  0
POLYLINE
  8
0
 62
0
 70
0
 66
1
 10
0.0
 20
0.0
 30
0.0
  0
VERTEX
  8
0
 10
5.082646
 20
1.98748
 30
0.0
  0
VERTEX
  8
0
 10
5.082646
 20
1.66361
 30
0.0
  0
SEQEND
  8
0
  0
POLYLINE
  8
0
 62
0
 70
0
 66
1
 10
0.0
 20
0.0
 30
0.0
  0
VERTEX
  8
0
 10
5.082646
 20
1.66361
 30
0.0
  0
VERTEX
  8
0
 10
5.082646
 20
1.33966
 30
0.0
  0
SEQEND
  8
0
  0
POLYLINE
  8
0
 62
0
 70
0
 66
1
 10
0.0
 20
0.0
 30
0.0
  0
VERTEX
  8
0
 10
5.082646
 20
2.635248
 30
0.0
  0
VERTEX
  8
0
 10
5.082646
 20
2.31146
 30
0.0
  0
SEQEND
  8
0
  0
POLYLINE
  8
0
 62
0
 70
0
 66
1
 10
0.0
 20
0.0
 30
0.0
  0
VERTEX
  8
0
 10
5.082646
 20
2.31146
 30
0.0
  0
VERTEX
  8
0
 10
5.082646
 20
1.98748
 30
0.0
  0
SEQEND
  8
0
  0
POLYLINE
  8
0
 62
0
 70
0
 66
1
 10
0.0
 20
0.0
 30
0.0
  0
VERTEX
  8
0
 10
4.392083
 20
1.73996
 30
0.0
  0
VERTEX
  8
0
 10
4.392083
 20
2.038428
 30
0.0
  0
SEQEND
  8
0
  0
POLYLINE
  8
0
 62
0
 70
0
 66
1
 10
0.0
 20
0.0
 30
0.0
  0
VERTEX
  8
0
 10
4.392083
 20
2.635248
 30
0.0
  0
VERTEX
  8
0
 10
4.530169
 20
2.635248
 30
0.0
  0
SEQEND
  8
0
  0
POLYLINE
  8
0
 62
0
 70
0
 66
1
 10
0.0
 20
0.0
 30
0.0
  0
VERTEX
  8
0
 10
5.082646
 20
1.33966
 30
0.0
  0
VERTEX
  8
0
 10
5.082646
 20
1.015998
 30
0.0
  0
SEQEND
  8
0
  0
POLYLINE
  8
0
 62
0
 70
0
 66
1
 10
0.0
 20
0.0
 30
0.0
  0
VERTEX
  8
0
 10
4.292038
 20
0.021688
 30
0.0
  0
VERTEX
  8
0
 10
3.944937
 20
-0.010586
 30
0.0
  0
SEQEND
  8
0
  0
POLYLINE
  8
0
 62
0
 70
0
 66
1
 10
0.0
 20
0.0
 30
0.0
  0
VERTEX
  8
0
 10
5.039002
 20
0.670549
 30
0.0
  0
VERTEX
  8
0
 10
4.885371
 20
0.359694
 30
0.0
  0
SEQEND
  8
0
  0
POLYLINE
  8
0
 62
0
 70
0
 66
1
 10
0.0
 20
0.0
 30
0.0
  0
VERTEX
  8
0
 10
4.885371
 20
0.359694
 30
0.0
  0
VERTEX
  8
0
 10
4.61976
 20
0.137107
 30
0.0
  0
SEQEND
  8
0
  0
POLYLINE
  8
0
 62
0
 70
0
 66
1
 10
0.0
 20
0.0
 30
0.0
  0
VERTEX
  8
0
 10
5.082646
 20
1.015998
 30
0.0
  0
VERTEX
  8
0
 10
5.039002
 20
0.670549
 30
0.0
  0
SEQEND
  8
0
  0
POLYLINE
  8
0
 62
0
 70
0
 66
1
 10
0.0
 20
0.0
 30
0.0
  0
VERTEX
  8
0
 10
4.61976
 20
0.137107
 30
0.0
  0
VERTEX
  8
0
 10
4.292038
 20
0.021688
 30
0.0
  0
SEQEND
  8
0
  0
POLYLINE
  8
0
 62
0
 70
0
 66
1
 10
0.0
 20
0.0
 30
0.0
  0
VERTEX
  8
0
 10
3.944937
 20
-0.008545
 30
0.0
  0
VERTEX
  8
0
 10
3.944937
 20
-0.006615
 30
0.0
  0
SEQEND
  8
0
  0
POLYLINE
  8
0
 62
0
 70
0
 66
1
 10
0.0
 20
0.0
 30
0.0
  0
VERTEX
  8
0
 10
3.944937
 20
-0.006615
 30
0.0
  0
VERTEX
  8
0
 10
3.944937
 20
-0.004315
 30
0.0
  0
SEQEND
  8
0
  0
POLYLINE
  8
0
 62
0
 70
0
 66
1
 10
0.0
 20
0.0
 30
0.0
  0
VERTEX
  8
0
 10
3.944937
 20
-0.001947
 30
0.0
  0
VERTEX
  8
0
 10
3.944937
 20
-2e-06
 30
0.0
  0
SEQEND
  8
0
  0
POLYLINE
  8
0
 62
0
 70
0
 66
1
 10
0.0
 20
0.0
 30
0.0
  0
VERTEX
  8
0
 10
3.944937
 20
-0.004315
 30
0.0
  0
VERTEX
  8
0
 10
3.944937
 20
-0.001947
 30
0.0
  0
SEQEND
  8
0
  0
POLYLINE
  8
0
 62
0
 70
0
 66
1
 10
0.0
 20
0.0
 30
0.0
  0
VERTEX
  8
0
 10
3.944937
 20
-0.010586
 30
0.0
  0
VERTEX
  8
0
 10
3.944937
 20
-0.008545
 30
0.0
  0
SEQEND
  8
0
  0
POLYLINE
  8
0
 62
0
 70
0
 66
1
 10
0.0
 20
0.0
 30
0.0
  0
VERTEX
  8
0
 10
6.201833
 20
0.026456
 30
0.0
  0
VERTEX
  8
0
 10
6.045253
 20
0.030794
 30
0.0
  0
SEQEND
  8
0
  0
POLYLINE
  8
0
 62
0
 70
0
 66
1
 10
0.0
 20
0.0
 30
0.0
  0
VERTEX
  8
0
 10
5.580564
 20
0.099212
 30
0.0
  0
VERTEX
  8
0
 10
5.42925
 20
0.140227
 30
0.0
  0
SEQEND
  8
0
  0
POLYLINE
  8
0
 62
0
 70
0
 66
1
 10
0.0
 20
0.0
 30
0.0
  0
VERTEX
  8
0
 10
5.46573
 20
0.481231
 30
0.0
  0
VERTEX
  8
0
 10
5.47792
 20
0.595189
 30
0.0
  0
SEQEND
  8
0
  0
POLYLINE
  8
0
 62
0
 70
0
 66
1
 10
0.0
 20
0.0
 30
0.0
  0
VERTEX
  8
0
 10
6.045253
 20
0.030794
 30
0.0
  0
VERTEX
  8
0
 10
5.889123
 20
0.0444
 30
0.0
  0
SEQEND
  8
0
  0
POLYLINE
  8
0
 62
0
 70
0
 66
1
 10
0.0
 20
0.0
 30
0.0
  0
VERTEX
  8
0
 10
5.763994
 20
0.600054
 30
0.0
  0
VERTEX
  8
0
 10
5.907765
 20
0.565827
 30
0.0
  0
SEQEND
  8
0
  0
POLYLINE
  8
0
 62
0
 70
0
 66
1
 10
0.0
 20
0.0
 30
0.0
  0
VERTEX
  8
0
 10
5.42925
 20
0.140227
 30
0.0
  0
VERTEX
  8
0
 10
5.441418
 20
0.253976
 30
0.0
  0
SEQEND
  8
0
  0
POLYLINE
  8
0
 62
0
 70
0
 66
1
 10
0.0
 20
0.0
 30
0.0
  0
VERTEX
  8
0
 10
5.624316
 20
0.647979
 30
0.0
  0
VERTEX
  8
0
 10
5.763994
 20
0.600054
 30
0.0
  0
SEQEND
  8
0
  0
POLYLINE
  8
0
 62
0
 70
0
 66
1
 10
0.0
 20
0.0
 30
0.0
  0
VERTEX
  8
0
 10
5.441418
 20
0.253976
 30
0.0
  0
VERTEX
  8
0
 10
5.453563
 20
0.367501
 30
0.0
  0
SEQEND
  8
0
  0
POLYLINE
  8
0
 62
0
 70
0
 66
1
 10
0.0
 20
0.0
 30
0.0
  0
VERTEX
  8
0
 10
5.453563
 20
0.367501
 30
0.0
  0
VERTEX
  8
0
 10
5.46573
 20
0.481231
 30
0.0
  0
SEQEND
  8
0
  0
POLYLINE
  8
0
 62
0
 70
0
 66
1
 10
0.0
 20
0.0
 30
0.0
  0
VERTEX
  8
0
 10
5.47792
 20
0.595189
 30
0.0
  0
VERTEX
  8
0
 10
5.490104
 20
0.709081
 30
0.0
  0
SEQEND
  8
0
  0
POLYLINE
  8
0
 62
0
 70
0
 66
1
 10
0.0
 20
0.0
 30
0.0
  0
VERTEX
  8
0
 10
5.490104
 20
0.709081
 30
0.0
  0
VERTEX
  8
0
 10
5.624316
 20
0.647979
 30
0.0
  0
SEQEND
  8
0
  0
POLYLINE
  8
0
 62
0
 70
0
 66
1
 10
0.0
 20
0.0
 30
0.0
  0
VERTEX
  8
0
 10
5.889123
 20
0.0444
 30
0.0
  0
VERTEX
  8
0
 10
5.733839
 20
0.067268
 30
0.0
  0
SEQEND
  8
0
  0
POLYLINE
  8
0
 62
0
 70
0
 66
1
 10
0.0
 20
0.0
 30
0.0
  0
VERTEX
  8
0
 10
5.733839
 20
0.067268
 30
0.0
  0
VERTEX
  8
0
 10
5.580564
 20
0.099212
 30
0.0
  0
SEQEND
  8
0
  0
POLYLINE
  8
0
 62
0
 70
0
 66
1
 10
0.0
 20
0.0
 30
0.0
  0
VERTEX
  8
0
 10
6.05391
 20
0.545685
 30
0.0
  0
VERTEX
  8
0
 10
6.201833
 20
0.539748
 30
0.0
  0
SEQEND
  8
0
  0
POLYLINE
  8
0
 62
0
 70
0
 66
1
 10
0.0
 20
0.0
 30
0.0
  0
VERTEX
  8
0
 10
5.907765
 20
0.565827
 30
0.0
  0
VERTEX
  8
0
 10
6.05391
 20
0.545685
 30
0.0
  0
SEQEND
  8
0
  0
POLYLINE
  8
0
 62
0
 70
0
 66
1
 10
0.0
 20
0.0
 30
0.0
  0
VERTEX
  8
0
 10
6.201833
 20
0.539748
 30
0.0
  0
VERTEX
  8
0
 10
6.315889
 20
0.54465
 30
0.0
  0
SEQEND
  8
0
  0
POLYLINE
  8
0
 62
0
 70
0
 66
1
 10
0.0
 20
0.0
 30
0.0
  0
VERTEX
  8
0
 10
6.607568
 20
0.693734
 30
0.0
  0
VERTEX
  8
0
 10
6.630458
 20
0.804331
 30
0.0
  0
SEQEND
  8
0
  0
POLYLINE
  8
0
 62
0
 70
0
 66
1
 10
0.0
 20
0.0
 30
0.0
  0
VERTEX
  8
0
 10
6.532645
 20
0.609153
 30
0.0
  0
VERTEX
  8
0
 10
6.607568
 20
0.693734
 30
0.0
  0
SEQEND
  8
0
  0
POLYLINE
  8
0
 62
0
 70
0
 66
1
 10
0.0
 20
0.0
 30
0.0
  0
VERTEX
  8
0
 10
6.064651
 20
1.175764
 30
0.0
  0
VERTEX
  8
0
 10
5.730539
 20
1.315976
 30
0.0
  0
SEQEND
  8
0
  0
POLYLINE
  8
0
 62
0
 70
0
 66
1
 10
0.0
 20
0.0
 30
0.0
  0
VERTEX
  8
0
 10
6.428145
 20
0.563955
 30
0.0
  0
VERTEX
  8
0
 10
6.532645
 20
0.609153
 30
0.0
  0
SEQEND
  8
0
  0
POLYLINE
  8
0
 62
0
 70
0
 66
1
 10
0.0
 20
0.0
 30
0.0
  0
VERTEX
  8
0
 10
5.730539
 20
1.315976
 30
0.0
  0
VERTEX
  8
0
 10
5.479886
 20
1.572043
 30
0.0
  0
SEQEND
  8
0
  0
POLYLINE
  8
0
 62
0
 70
0
 66
1
 10
0.0
 20
0.0
 30
0.0
  0
VERTEX
  8
0
 10
6.409558
 20
1.062831
 30
0.0
  0
VERTEX
  8
0
 10
6.064651
 20
1.175764
 30
0.0
  0
SEQEND
  8
0
  0
POLYLINE
  8
0
 62
0
 70
0
 66
1
 10
0.0
 20
0.0
 30
0.0
  0
VERTEX
  8
0
 10
5.479886
 20
1.572043
 30
0.0
  0
VERTEX
  8
0
 10
5.402792
 20
1.923519
 30
0.0
  0
SEQEND
  8
0
  0
POLYLINE
  8
0
 62
0
 70
0
 66
1
 10
0.0
 20
0.0
 30
0.0
  0
VERTEX
  8
0
 10
6.315889
 20
0.54465
 30
0.0
  0
VERTEX
  8
0
 10
6.428145
 20
0.563955
 30
0.0
  0
SEQEND
  8
0
  0
POLYLINE
  8
0
 62
0
 70
0
 66
1
 10
0.0
 20
0.0
 30
0.0
  0
VERTEX
  8
0
 10
6.630458
 20
0.804331
 30
0.0
  0
VERTEX
  8
0
 10
6.409558
 20
1.062831
 30
0.0
  0
SEQEND
  8
0
  0
POLYLINE
  8
0
 62
0
 70
0
 66
1
 10
0.0
 20
0.0
 30
0.0
  0
VERTEX
  8
0
 10
7.199313
 20
2.619373
 30
0.0
  0
VERTEX
  8
0
 10
7.190847
 20
2.51356
 30
0.0
  0
SEQEND
  8
0
  0
POLYLINE
  8
0
 62
0
 70
0
 66
1
 10
0.0
 20
0.0
 30
0.0
  0
VERTEX
  8
0
 10
5.402792
 20
1.923519
 30
0.0
  0
VERTEX
  8
0
 10
5.461774
 20
2.2263
 30
0.0
  0
SEQEND
  8
0
  0
POLYLINE
  8
0
 62
0
 70
0
 66
1
 10
0.0
 20
0.0
 30
0.0
  0
VERTEX
  8
0
 10
6.220367
 20
2.695428
 30
0.0
  0
VERTEX
  8
0
 10
6.529917
 20
2.717269
 30
0.0
  0
SEQEND
  8
0
  0
POLYLINE
  8
0
 62
0
 70
0
 66
1
 10
0.0
 20
0.0
 30
0.0
  0
VERTEX
  8
0
 10
5.461774
 20
2.2263
 30
0.0
  0
VERTEX
  8
0
 10
5.649095
 20
2.470629
 30
0.0
  0
SEQEND
  8
0
  0
POLYLINE
  8
0
 62
0
 70
0
 66
1
 10
0.0
 20
0.0
 30
0.0
  0
VERTEX
  8
0
 10
6.529917
 20
2.717269
 30
0.0
  0
VERTEX
  8
0
 10
6.665682
 20
2.714791
 30
0.0
  0
SEQEND
  8
0
  0
POLYLINE
  8
0
 62
0
 70
0
 66
1
 10
0.0
 20
0.0
 30
0.0
  0
VERTEX
  8
0
 10
6.665682
 20
2.714791
 30
0.0
  0
VERTEX
  8
0
 10
6.80106
 20
2.703705
 30
0.0
  0
SEQEND
  8
0
  0
POLYLINE
  8
0
 62
0
 70
0
 66
1
 10
0.0
 20
0.0
 30
0.0
  0
VERTEX
  8
0
 10
6.80106
 20
2.703705
 30
0.0
  0
VERTEX
  8
0
 10
6.935657
 20
2.684021
 30
0.0
  0
SEQEND
  8
0
  0
POLYLINE
  8
0
 62
0
 70
0
 66
1
 10
0.0
 20
0.0
 30
0.0
  0
VERTEX
  8
0
 10
6.935657
 20
2.684021
 30
0.0
  0
VERTEX
  8
0
 10
7.068411
 20
2.655905
 30
0.0
  0
SEQEND
  8
0
  0
POLYLINE
  8
0
 62
0
 70
0
 66
1
 10
0.0
 20
0.0
 30
0.0
  0
VERTEX
  8
0
 10
7.068411
 20
2.655905
 30
0.0
  0
VERTEX
  8
0
 10
7.199313
 20
2.619373
 30
0.0
  0
SEQEND
  8
0
  0
POLYLINE
  8
0
 62
0
 70
0
 66
1
 10
0.0
 20
0.0
 30
0.0
  0
VERTEX
  8
0
 10
5.919338
 20
2.620762
 30
0.0
  0
VERTEX
  8
0
 10
6.220367
 20
2.695428
 30
0.0
  0
SEQEND
  8
0
  0
POLYLINE
  8
0
 62
0
 70
0
 66
1
 10
0.0
 20
0.0
 30
0.0
  0
VERTEX
  8
0
 10
7.190847
 20
2.51356
 30
0.0
  0
VERTEX
  8
0
 10
7.182399
 20
2.407955
 30
0.0
  0
SEQEND
  8
0
  0
POLYLINE
  8
0
 62
0
 70
0
 66
1
 10
0.0
 20
0.0
 30
0.0
  0
VERTEX
  8
0
 10
5.649095
 20
2.470629
 30
0.0
  0
VERTEX
  8
0
 10
5.919338
 20
2.620762
 30
0.0
  0
SEQEND
  8
0
  0
POLYLINE
  8
0
 62
0
 70
0
 66
1
 10
0.0
 20
0.0
 30
0.0
  0
VERTEX
  8
0
 10
7.156979
 20
2.090206
 30
0.0
  0
VERTEX
  8
0
 10
7.046229
 20
2.133514
 30
0.0
  0
SEQEND
  8
0
  0
POLYLINE
  8
0
 62
0
 70
0
 66
1
 10
0.0
 20
0.0
 30
0.0
  0
VERTEX
  8
0
 10
7.173935
 20
2.302159
 30
0.0
  0
VERTEX
  8
0
 10
7.165477
 20
2.196427
 30
0.0
  0
SEQEND
  8
0
  0
POLYLINE
  8
0
 62
0
 70
0
 66
1
 10
0.0
 20
0.0
 30
0.0
  0
VERTEX
  8
0
 10
6.577542
 20
2.209269
 30
0.0
  0
VERTEX
  8
0
 10
6.461131
 20
2.205642
 30
0.0
  0
SEQEND
  8
0
  0
POLYLINE
  8
0
 62
0
 70
0
 66
1
 10
0.0
 20
0.0
 30
0.0
  0
VERTEX
  8
0
 10
7.182399
 20
2.407955
 30
0.0
  0
VERTEX
  8
0
 10
7.173935
 20
2.302159
 30
0.0
  0
SEQEND
  8
0
  0
POLYLINE
  8
0
 62
0
 70
0
 66
1
 10
0.0
 20
0.0
 30
0.0
  0
VERTEX
  8
0
 10
7.165477
 20
2.196427
 30
0.0
  0
VERTEX
  8
0
 10
7.156979
 20
2.090206
 30
0.0
  0
SEQEND
  8
0
  0
POLYLINE
  8
0
 62
0
 70
0
 66
1
 10
0.0
 20
0.0
 30
0.0
  0
VERTEX
  8
0
 10
7.046229
 20
2.133514
 30
0.0
  0
VERTEX
  8
0
 10
6.931954
 20
2.167347
 30
0.0
  0
SEQEND
  8
0
  0
POLYLINE
  8
0
 62
0
 70
0
 66
1
 10
0.0
 20
0.0
 30
0.0
  0
VERTEX
  8
0
 10
6.931954
 20
2.167347
 30
0.0
  0
VERTEX
  8
0
 10
6.815096
 20
2.191374
 30
0.0
  0
SEQEND
  8
0
  0
POLYLINE
  8
0
 62
0
 70
0
 66
1
 10
0.0
 20
0.0
 30
0.0
  0
VERTEX
  8
0
 10
6.815096
 20
2.191374
 30
0.0
  0
VERTEX
  8
0
 10
6.69686
 20
2.205363
 30
0.0
  0
SEQEND
  8
0
  0
POLYLINE
  8
0
 62
0
 70
0
 66
1
 10
0.0
 20
0.0
 30
0.0
  0
VERTEX
  8
0
 10
6.69686
 20
2.205363
 30
0.0
  0
VERTEX
  8
0
 10
6.577542
 20
2.209269
 30
0.0
  0
SEQEND
  8
0
  0
POLYLINE
  8
0
 62
0
 70
0
 66
1
 10
0.0
 20
0.0
 30
0.0
  0
VERTEX
  8
0
 10
6.461131
 20
2.205642
 30
0.0
  0
VERTEX
  8
0
 10
6.345894
 20
2.190291
 30
0.0
  0
SEQEND
  8
0
  0
POLYLINE
  8
0
 62
0
 70
0
 66
1
 10
0.0
 20
0.0
 30
0.0
  0
VERTEX
  8
0
 10
6.235681
 20
2.153519
 30
0.0
  0
VERTEX
  8
0
 10
6.147919
 20
2.078966
 30
0.0
  0
SEQEND
  8
0
  0
POLYLINE
  8
0
 62
0
 70
0
 66
1
 10
0.0
 20
0.0
 30
0.0
  0
VERTEX
  8
0
 10
6.345894
 20
2.190291
 30
0.0
  0
VERTEX
  8
0
 10
6.235681
 20
2.153519
 30
0.0
  0
SEQEND
  8
0
  0
POLYLINE
  8
0
 62
0
 70
0
 66
1
 10
0.0
 20
0.0
 30
0.0
  0
VERTEX
  8
0
 10
7.265999
 20
1.253065
 30
0.0
  0
VERTEX
  8
0
 10
7.342188
 20
0.910164
 30
0.0
  0
SEQEND
  8
0
  0
POLYLINE
  8
0
 62
0
 70
0
 66
1
 10
0.0
 20
0.0
 30
0.0
  0
VERTEX
  8
0
 10
7.29031
 20
0.591595
 30
0.0
  0
VERTEX
  8
0
 10
7.113143
 20
0.323401
 30
0.0
  0
SEQEND
  8
0
  0
POLYLINE
  8
0
 62
0
 70
0
 66
1
 10
0.0
 20
0.0
 30
0.0
  0
VERTEX
  8
0
 10
7.342188
 20
0.910164
 30
0.0
  0
VERTEX
  8
0
 10
7.29031
 20
0.591595
 30
0.0
  0
SEQEND
  8
0
  0
POLYLINE
  8
0
 62
0
 70
0
 66
1
 10
0.0
 20
0.0
 30
0.0
  0
VERTEX
  8
0
 10
6.353726
 20
1.737987
 30
0.0
  0
VERTEX
  8
0
 10
6.69371
 20
1.637967
 30
0.0
  0
SEQEND
  8
0
  0
POLYLINE
  8
0
 62
0
 70
0
 66
1
 10
0.0
 20
0.0
 30
0.0
  0
VERTEX
  8
0
 10
7.113143
 20
0.323401
 30
0.0
  0
VERTEX
  8
0
 10
6.838126
 20
0.155084
 30
0.0
  0
SEQEND
  8
0
  0
POLYLINE
  8
0
 62
0
 70
0
 66
1
 10
0.0
 20
0.0
 30
0.0
  0
VERTEX
  8
0
 10
6.524885
 20
0.074879
 30
0.0
  0
VERTEX
  8
0
 10
6.201833
 20
0.052914
 30
0.0
  0
SEQEND
  8
0
  0
POLYLINE
  8
0
 62
0
 70
0
 66
1
 10
0.0
 20
0.0
 30
0.0
  0
VERTEX
  8
0
 10
6.147919
 20
2.078966
 30
0.0
  0
VERTEX
  8
0
 10
6.117167
 20
1.968498
 30
0.0
  0
SEQEND
  8
0
  0
POLYLINE
  8
0
 62
0
 70
0
 66
1
 10
0.0
 20
0.0
 30
0.0
  0
VERTEX
  8
0
 10
6.117167
 20
1.968498
 30
0.0
  0
VERTEX
  8
0
 10
6.353726
 20
1.737987
 30
0.0
  0
SEQEND
  8
0
  0
POLYLINE
  8
0
 62
0
 70
0
 66
1
 10
0.0
 20
0.0
 30
0.0
  0
VERTEX
  8
0
 10
6.69371
 20
1.637967
 30
0.0
  0
VERTEX
  8
0
 10
7.020385
 20
1.502817
 30
0.0
  0
SEQEND
  8
0
  0
POLYLINE
  8
0
 62
0
 70
0
 66
1
 10
0.0
 20
0.0
 30
0.0
  0
VERTEX
  8
0
 10
7.020385
 20
1.502817
 30
0.0
  0
VERTEX
  8
0
 10
7.265999
 20
1.253065
 30
0.0
  0
SEQEND
  8
0
  0
POLYLINE
  8
0
 62
0
 70
0
 66
1
 10
0.0
 20
0.0
 30
0.0
  0
VERTEX
  8
0
 10
6.201833
 20
0.052914
 30
0.0
  0
VERTEX
  8
0
 10
6.201833
 20
0.047813
 30
0.0
  0
SEQEND
  8
0
  0
POLYLINE
  8
0
 62
0
 70
0
 66
1
 10
0.0
 20
0.0
 30
0.0
  0
VERTEX
  8
0
 10
6.838126
 20
0.155084
 30
0.0
  0
VERTEX
  8
0
 10
6.524885
 20
0.074879
 30
0.0
  0
SEQEND
  8
0
  0
POLYLINE
  8
0
 62
0
 70
0
 66
1
 10
0.0
 20
0.0
 30
0.0
  0
VERTEX
  8
0
 10
6.201833
 20
0.047813
 30
0.0
  0
VERTEX
  8
0
 10
6.201833
 20
0.042552
 30
0.0
  0
SEQEND
  8
0
  0
POLYLINE
  8
0
 62
0
 70
0
 66
1
 10
0.0
 20
0.0
 30
0.0
  0
VERTEX
  8
0
 10
6.201833
 20
0.042552
 30
0.0
  0
VERTEX
  8
0
 10
6.201833
 20
0.037257
 30
0.0
  0
SEQEND
  8
0
  0
POLYLINE
  8
0
 62
0
 70
0
 66
1
 10
0.0
 20
0.0
 30
0.0
  0
VERTEX
  8
0
 10
6.201833
 20
0.037257
 30
0.0
  0
VERTEX
  8
0
 10
6.201833
 20
0.031768
 30
0.0
  0
SEQEND
  8
0
  0
POLYLINE
  8
0
 62
0
 70
0
 66
1
 10
0.0
 20
0.0
 30
0.0
  0
VERTEX
  8
0
 10
6.201833
 20
0.031768
 30
0.0
  0
VERTEX
  8
0
 10
6.201833
 20
0.026456
 30
0.0
  0
SEQEND
  8
0
  0
POLYLINE
  8
0
 62
0
 70
0
 66
1
 10
0.0
 20
0.0
 30
0.0
  0
VERTEX
  8
0
 10
8.175625
 20
2.15106
 30
0.0
  0
VERTEX
  8
0
 10
8.047591
 20
2.15106
 30
0.0
  0
SEQEND
  8
0
  0
POLYLINE
  8
0
 62
0
 70
0
 66
1
 10
0.0
 20
0.0
 30
0.0
  0
VERTEX
  8
0
 10
7.535333
 20
2.355078
 30
0.0
  0
VERTEX
  8
0
 10
7.535333
 20
2.457171
 30
0.0
  0
SEQEND
  8
0
  0
POLYLINE
  8
0
 62
0
 70
0
 66
1
 10
0.0
 20
0.0
 30
0.0
  0
VERTEX
  8
0
 10
7.919481
 20
2.15106
 30
0.0
  0
VERTEX
  8
0
 10
7.791546
 20
2.15106
 30
0.0
  0
SEQEND
  8
0
  0
POLYLINE
  8
0
 62
0
 70
0
 66
1
 10
0.0
 20
0.0
 30
0.0
  0
VERTEX
  8
0
 10
7.535333
 20
2.15106
 30
0.0
  0
VERTEX
  8
0
 10
7.535333
 20
2.25317
 30
0.0
  0
SEQEND
  8
0
  0
POLYLINE
  8
0
 62
0
 70
0
 66
1
 10
0.0
 20
0.0
 30
0.0
  0
VERTEX
  8
0
 10
8.047591
 20
2.15106
 30
0.0
  0
VERTEX
  8
0
 10
7.919481
 20
2.15106
 30
0.0
  0
SEQEND
  8
0
  0
POLYLINE
  8
0
 62
0
 70
0
 66
1
 10
0.0
 20
0.0
 30
0.0
  0
VERTEX
  8
0
 10
7.791546
 20
2.15106
 30
0.0
  0
VERTEX
  8
0
 10
7.66339
 20
2.15106
 30
0.0
  0
SEQEND
  8
0
  0
POLYLINE
  8
0
 62
0
 70
0
 66
1
 10
0.0
 20
0.0
 30
0.0
  0
VERTEX
  8
0
 10
7.66339
 20
2.15106
 30
0.0
  0
VERTEX
  8
0
 10
7.535333
 20
2.15106
 30
0.0
  0
SEQEND
  8
0
  0
POLYLINE
  8
0
 62
0
 70
0
 66
1
 10
0.0
 20
0.0
 30
0.0
  0
VERTEX
  8
0
 10
7.535333
 20
2.25317
 30
0.0
  0
VERTEX
  8
0
 10
7.535333
 20
2.355078
 30
0.0
  0
SEQEND
  8
0
  0
POLYLINE
  8
0
 62
0
 70
0
 66
1
 10
0.0
 20
0.0
 30
0.0
  0
VERTEX
  8
0
 10
7.535333
 20
2.661706
 30
0.0
  0
VERTEX
  8
0
 10
7.928958
 20
2.661706
 30
0.0
  0
SEQEND
  8
0
  0
POLYLINE
  8
0
 62
0
 70
0
 66
1
 10
0.0
 20
0.0
 30
0.0
  0
VERTEX
  8
0
 10
8.322816
 20
2.661706
 30
0.0
  0
VERTEX
  8
0
 10
8.71654
 20
2.661706
 30
0.0
  0
SEQEND
  8
0
  0
POLYLINE
  8
0
 62
0
 70
0
 66
1
 10
0.0
 20
0.0
 30
0.0
  0
VERTEX
  8
0
 10
7.535333
 20
2.457171
 30
0.0
  0
VERTEX
  8
0
 10
7.535333
 20
2.559202
 30
0.0
  0
SEQEND
  8
0
  0
POLYLINE
  8
0
 62
0
 70
0
 66
1
 10
0.0
 20
0.0
 30
0.0
  0
VERTEX
  8
0
 10
8.71654
 20
2.661706
 30
0.0
  0
VERTEX
  8
0
 10
9.110362
 20
2.661706
 30
0.0
  0
SEQEND
  8
0
  0
POLYLINE
  8
0
 62
0
 70
0
 66
1
 10
0.0
 20
0.0
 30
0.0
  0
VERTEX
  8
0
 10
9.503833
 20
2.457688
 30
0.0
  0
VERTEX
  8
0
 10
9.503833
 20
2.355595
 30
0.0
  0
SEQEND
  8
0
  0
POLYLINE
  8
0
 62
0
 70
0
 66
1
 10
0.0
 20
0.0
 30
0.0
  0
VERTEX
  8
0
 10
9.503833
 20
2.253564
 30
0.0
  0
VERTEX
  8
0
 10
9.503833
 20
2.15106
 30
0.0
  0
SEQEND
  8
0
  0
POLYLINE
  8
0
 62
0
 70
0
 66
1
 10
0.0
 20
0.0
 30
0.0
  0
VERTEX
  8
0
 10
9.503833
 20
2.355595
 30
0.0
  0
VERTEX
  8
0
 10
9.503833
 20
2.253564
 30
0.0
  0
SEQEND
  8
0
  0
POLYLINE
  8
0
 62
0
 70
0
 66
1
 10
0.0
 20
0.0
 30
0.0
  0
VERTEX
  8
0
 10
9.110362
 20
2.661706
 30
0.0
  0
VERTEX
  8
0
 10
9.503833
 20
2.661706
 30
0.0
  0
SEQEND
  8
0
  0
POLYLINE
  8
0
 62
0
 70
0
 66
1
 10
0.0
 20
0.0
 30
0.0
  0
VERTEX
  8
0
 10
9.503833
 20
2.661706
 30
0.0
  0
VERTEX
  8
0
 10
9.503833
 20
2.559596
 30
0.0
  0
SEQEND
  8
0
  0
POLYLINE
  8
0
 62
0
 70
0
 66
1
 10
0.0
 20
0.0
 30
0.0
  0
VERTEX
  8
0
 10
9.503833
 20
2.559596
 30
0.0
  0
VERTEX
  8
0
 10
9.503833
 20
2.457688
 30
0.0
  0
SEQEND
  8
0
  0
POLYLINE
  8
0
 62
0
 70
0
 66
1
 10
0.0
 20
0.0
 30
0.0
  0
VERTEX
  8
0
 10
7.535333
 20
2.559202
 30
0.0
  0
VERTEX
  8
0
 10
7.535333
 20
2.661706
 30
0.0
  0
SEQEND
  8
0
  0
POLYLINE
  8
0
 62
0
 70
0
 66
1
 10
0.0
 20
0.0
 30
0.0
  0
VERTEX
  8
0
 10
7.928958
 20
2.661706
 30
0.0
  0
VERTEX
  8
0
 10
8.322816
 20
2.661706
 30
0.0
  0
SEQEND
  8
0
  0
POLYLINE
  8
0
 62
0
 70
0
 66
1
 10
0.0
 20
0.0
 30
0.0
  0
VERTEX
  8
0
 10
9.3758
 20
2.15106
 30
0.0
  0
VERTEX
  8
0
 10
9.24769
 20
2.15106
 30
0.0
  0
SEQEND
  8
0
  0
POLYLINE
  8
0
 62
0
 70
0
 66
1
 10
0.0
 20
0.0
 30
0.0
  0
VERTEX
  8
0
 10
9.24769
 20
2.15106
 30
0.0
  0
VERTEX
  8
0
 10
9.119754
 20
2.15106
 30
0.0
  0
SEQEND
  8
0
  0
POLYLINE
  8
0
 62
0
 70
0
 66
1
 10
0.0
 20
0.0
 30
0.0
  0
VERTEX
  8
0
 10
9.119754
 20
2.15106
 30
0.0
  0
VERTEX
  8
0
 10
8.991598
 20
2.15106
 30
0.0
  0
SEQEND
  8
0
  0
POLYLINE
  8
0
 62
0
 70
0
 66
1
 10
0.0
 20
0.0
 30
0.0
  0
VERTEX
  8
0
 10
8.991598
 20
2.15106
 30
0.0
  0
VERTEX
  8
0
 10
8.863542
 20
2.15106
 30
0.0
  0
SEQEND
  8
0
  0
POLYLINE
  8
0
 62
0
 70
0
 66
1
 10
0.0
 20
0.0
 30
0.0
  0
VERTEX
  8
0
 10
9.503833
 20
2.15106
 30
0.0
  0
VERTEX
  8
0
 10
9.3758
 20
2.15106
 30
0.0
  0
SEQEND
  8
0
  0
POLYLINE
  8
0
 62
0
 70
0
 66
1
 10
0.0
 20
0.0
 30
0.0
  0
VERTEX
  8
0
 10
8.863542
 20
2.15106
 30
0.0
  0
VERTEX
  8
0
 10
8.863542
 20
1.735744
 30
0.0
  0
SEQEND
  8
0
  0
POLYLINE
  8
0
 62
0
 70
0
 66
1
 10
0.0
 20
0.0
 30
0.0
  0
VERTEX
  8
0
 10
8.863542
 20
0.074081
 30
0.0
  0
VERTEX
  8
0
 10
8.725985
 20
0.074081
 30
0.0
  0
SEQEND
  8
0
  0
POLYLINE
  8
0
 62
0
 70
0
 66
1
 10
0.0
 20
0.0
 30
0.0
  0
VERTEX
  8
0
 10
8.863542
 20
0.489236
 30
0.0
  0
VERTEX
  8
0
 10
8.863542
 20
0.074081
 30
0.0
  0
SEQEND
  8
0
  0
POLYLINE
  8
0
 62
0
 70
0
 66
1
 10
0.0
 20
0.0
 30
0.0
  0
VERTEX
  8
0
 10
8.863542
 20
1.735744
 30
0.0
  0
VERTEX
  8
0
 10
8.863542
 20
1.320181
 30
0.0
  0
SEQEND
  8
0
  0
POLYLINE
  8
0
 62
0
 70
0
 66
1
 10
0.0
 20
0.0
 30
0.0
  0
VERTEX
  8
0
 10
8.863542
 20
0.90476
 30
0.0
  0
VERTEX
  8
0
 10
8.863542
 20
0.489236
 30
0.0
  0
SEQEND
  8
0
  0
POLYLINE
  8
0
 62
0
 70
0
 66
1
 10
0.0
 20
0.0
 30
0.0
  0
VERTEX
  8
0
 10
8.725985
 20
0.074081
 30
0.0
  0
VERTEX
  8
0
 10
8.588346
 20
0.074081
 30
0.0
  0
SEQEND
  8
0
  0
POLYLINE
  8
0
 62
0
 70
0
 66
1
 10
0.0
 20
0.0
 30
0.0
  0
VERTEX
  8
0
 10
8.863542
 20
1.320181
 30
0.0
  0
VERTEX
  8
0
 10
8.863542
 20
0.90476
 30
0.0
  0
SEQEND
  8
0
  0
POLYLINE
  8
0
 62
0
 70
0
 66
1
 10
0.0
 20
0.0
 30
0.0
  0
VERTEX
  8
0
 10
8.588346
 20
0.074081
 30
0.0
  0
VERTEX
  8
0
 10
8.450895
 20
0.074081
 30
0.0
  0
SEQEND
  8
0
  0
POLYLINE
  8
0
 62
0
 70
0
 66
1
 10
0.0
 20
0.0
 30
0.0
  0
VERTEX
  8
0
 10
8.175625
 20
1.320381
 30
0.0
  0
VERTEX
  8
0
 10
8.175625
 20
1.735905
 30
0.0
  0
SEQEND
  8
0
  0
POLYLINE
  8
0
 62
0
 70
0
 66
1
 10
0.0
 20
0.0
 30
0.0
  0
VERTEX
  8
0
 10
8.313206
 20
0.074081
 30
0.0
  0
VERTEX
  8
0
 10
8.175625
 20
0.074081
 30
0.0
  0
SEQEND
  8
0
  0
POLYLINE
  8
0
 62
0
 70
0
 66
1
 10
0.0
 20
0.0
 30
0.0
  0
VERTEX
  8
0
 10
8.175625
 20
0.90496
 30
0.0
  0
VERTEX
  8
0
 10
8.175625
 20
1.320381
 30
0.0
  0
SEQEND
  8
0
  0
POLYLINE
  8
0
 62
0
 70
0
 66
1
 10
0.0
 20
0.0
 30
0.0
  0
VERTEX
  8
0
 10
9.731375
 20
1.636321
 30
0.0
  0
VERTEX
  8
0
 10
9.731375
 20
2.154536
 30
0.0
  0
SEQEND
  8
0
  0
POLYLINE
  8
0
 62
0
 70
0
 66
1
 10
0.0
 20
0.0
 30
0.0
  0
VERTEX
  8
0
 10
8.175625
 20
0.074081
 30
0.0
  0
VERTEX
  8
0
 10
8.175625
 20
0.489397
 30
0.0
  0
SEQEND
  8
0
  0
POLYLINE
  8
0
 62
0
 70
0
 66
1
 10
0.0
 20
0.0
 30
0.0
  0
VERTEX
  8
0
 10
8.450895
 20
0.074081
 30
0.0
  0
VERTEX
  8
0
 10
8.313206
 20
0.074081
 30
0.0
  0
SEQEND
  8
0
  0
POLYLINE
  8
0
 62
0
 70
0
 66
1
 10
0.0
 20
0.0
 30
0.0
  0
VERTEX
  8
0
 10
9.731375
 20
0.082019
 30
0.0
  0
VERTEX
  8
0
 10
9.731375
 20
0.599973
 30
0.0
  0
SEQEND
  8
0
  0
POLYLINE
  8
0
 62
0
 70
0
 66
1
 10
0.0
 20
0.0
 30
0.0
  0
VERTEX
  8
0
 10
8.175625
 20
0.489397
 30
0.0
  0
VERTEX
  8
0
 10
8.175625
 20
0.90496
 30
0.0
  0
SEQEND
  8
0
  0
POLYLINE
  8
0
 62
0
 70
0
 66
1
 10
0.0
 20
0.0
 30
0.0
  0
VERTEX
  8
0
 10
8.175625
 20
1.735905
 30
0.0
  0
VERTEX
  8
0
 10
8.175625
 20
2.15106
 30
0.0
  0
SEQEND
  8
0
  0
POLYLINE
  8
0
 62
0
 70
0
 66
1
 10
0.0
 20
0.0
 30
0.0
  0
VERTEX
  8
0
 10
9.731375
 20
1.118235
 30
0.0
  0
VERTEX
  8
0
 10
9.731375
 20
1.636321
 30
0.0
  0
SEQEND
  8
0
  0
POLYLINE
  8
0
 62
0
 70
0
 66
1
 10
0.0
 20
0.0
 30
0.0
  0
VERTEX
  8
0
 10
9.731375
 20
0.599973
 30
0.0
  0
VERTEX
  8
0
 10
9.731375
 20
1.118235
 30
0.0
  0
SEQEND
  8
0
  0
POLYLINE
  8
0
 62
0
 70
0
 66
1
 10
0.0
 20
0.0
 30
0.0
  0
VERTEX
  8
0
 10
11.626996
 20
2.450877
 30
0.0
  0
VERTEX
  8
0
 10
11.757084
 20
2.252786
 30
0.0
  0
SEQEND
  8
0
  0
POLYLINE
  8
0
 62
0
 70
0
 66
1
 10
0.0
 20
0.0
 30
0.0
  0
VERTEX
  8
0
 10
11.797771
 20
2.018769
 30
0.0
  0
VERTEX
  8
0
 10
11.788256
 20
1.839613
 30
0.0
  0
SEQEND
  8
0
  0
POLYLINE
  8
0
 62
0
 70
0
 66
1
 10
0.0
 20
0.0
 30
0.0
  0
VERTEX
  8
0
 10
10.717746
 20
2.672289
 30
0.0
  0
VERTEX
  8
0
 10
10.964333
 20
2.672289
 30
0.0
  0
SEQEND
  8
0
  0
POLYLINE
  8
0
 62
0
 70
0
 66
1
 10
0.0
 20
0.0
 30
0.0
  0
VERTEX
  8
0
 10
9.977919
 20
2.672289
 30
0.0
  0
VERTEX
  8
0
 10
10.22461
 20
2.672289
 30
0.0
  0
SEQEND
  8
0
  0
POLYLINE
  8
0
 62
0
 70
0
 66
1
 10
0.0
 20
0.0
 30
0.0
  0
VERTEX
  8
0
 10
9.731375
 20
2.154536
 30
0.0
  0
VERTEX
  8
0
 10
9.731375
 20
2.672289
 30
0.0
  0
SEQEND
  8
0
  0
POLYLINE
  8
0
 62
0
 70
0
 66
1
 10
0.0
 20
0.0
 30
0.0
  0
VERTEX
  8
0
 10
10.22461
 20
2.672289
 30
0.0
  0
VERTEX
  8
0
 10
10.470965
 20
2.672289
 30
0.0
  0
SEQEND
  8
0
  0
POLYLINE
  8
0
 62
0
 70
0
 66
1
 10
0.0
 20
0.0
 30
0.0
  0
VERTEX
  8
0
 10
10.470965
 20
2.672289
 30
0.0
  0
VERTEX
  8
0
 10
10.717746
 20
2.672289
 30
0.0
  0
SEQEND
  8
0
  0
POLYLINE
  8
0
 62
0
 70
0
 66
1
 10
0.0
 20
0.0
 30
0.0
  0
VERTEX
  8
0
 10
10.964333
 20
2.672289
 30
0.0
  0
VERTEX
  8
0
 10
11.201774
 20
2.652001
 30
0.0
  0
SEQEND
  8
0
  0
POLYLINE
  8
0
 62
0
 70
0
 66
1
 10
0.0
 20
0.0
 30
0.0
  0
VERTEX
  8
0
 10
9.731375
 20
2.672289
 30
0.0
  0
VERTEX
  8
0
 10
9.977919
 20
2.672289
 30
0.0
  0
SEQEND
  8
0
  0
POLYLINE
  8
0
 62
0
 70
0
 66
1
 10
0.0
 20
0.0
 30
0.0
  0
VERTEX
  8
0
 10
11.201774
 20
2.652001
 30
0.0
  0
VERTEX
  8
0
 10
11.429691
 20
2.583012
 30
0.0
  0
SEQEND
  8
0
  0
POLYLINE
  8
0
 62
0
 70
0
 66
1
 10
0.0
 20
0.0
 30
0.0
  0
VERTEX
  8
0
 10
11.429691
 20
2.583012
 30
0.0
  0
VERTEX
  8
0
 10
11.626996
 20
2.450877
 30
0.0
  0
SEQEND
  8
0
  0
POLYLINE
  8
0
 62
0
 70
0
 66
1
 10
0.0
 20
0.0
 30
0.0
  0
VERTEX
  8
0
 10
11.757084
 20
2.252786
 30
0.0
  0
VERTEX
  8
0
 10
11.797771
 20
2.018769
 30
0.0
  0
SEQEND
  8
0
  0
POLYLINE
  8
0
 62
0
 70
0
 66
1
 10
0.0
 20
0.0
 30
0.0
  0
VERTEX
  8
0
 10
11.670771
 20
0.78581
 30
0.0
  0
VERTEX
  8
0
 10
11.720503
 20
0.645079
 30
0.0
  0
SEQEND
  8
0
  0
POLYLINE
  8
0
 62
0
 70
0
 66
1
 10
0.0
 20
0.0
 30
0.0
  0
VERTEX
  8
0
 10
11.770265
 20
0.504264
 30
0.0
  0
VERTEX
  8
0
 10
11.819959
 20
0.363641
 30
0.0
  0
SEQEND
  8
0
  0
POLYLINE
  8
0
 62
0
 70
0
 66
1
 10
0.0
 20
0.0
 30
0.0
  0
VERTEX
  8
0
 10
11.788256
 20
1.839613
 30
0.0
  0
VERTEX
  8
0
 10
11.726496
 20
1.671138
 30
0.0
  0
SEQEND
  8
0
  0
POLYLINE
  8
0
 62
0
 70
0
 66
1
 10
0.0
 20
0.0
 30
0.0
  0
VERTEX
  8
0
 10
11.618225
 20
1.528137
 30
0.0
  0
VERTEX
  8
0
 10
11.472919
 20
1.423046
 30
0.0
  0
SEQEND
  8
0
  0
POLYLINE
  8
0
 62
0
 70
0
 66
1
 10
0.0
 20
0.0
 30
0.0
  0
VERTEX
  8
0
 10
11.472919
 20
1.423046
 30
0.0
  0
VERTEX
  8
0
 10
11.303
 20
1.365248
 30
0.0
  0
SEQEND
  8
0
  0
POLYLINE
  8
0
 62
0
 70
0
 66
1
 10
0.0
 20
0.0
 30
0.0
  0
VERTEX
  8
0
 10
11.427794
 20
1.298258
 30
0.0
  0
VERTEX
  8
0
 10
11.512835
 20
1.184207
 30
0.0
  0
SEQEND
  8
0
  0
POLYLINE
  8
0
 62
0
 70
0
 66
1
 10
0.0
 20
0.0
 30
0.0
  0
VERTEX
  8
0
 10
11.569171
 20
1.052919
 30
0.0
  0
VERTEX
  8
0
 10
11.618526
 20
0.918624
 30
0.0
  0
SEQEND
  8
0
  0
POLYLINE
  8
0
 62
0
 70
0
 66
1
 10
0.0
 20
0.0
 30
0.0
  0
VERTEX
  8
0
 10
11.720503
 20
0.645079
 30
0.0
  0
VERTEX
  8
0
 10
11.770265
 20
0.504264
 30
0.0
  0
SEQEND
  8
0
  0
POLYLINE
  8
0
 62
0
 70
0
 66
1
 10
0.0
 20
0.0
 30
0.0
  0
VERTEX
  8
0
 10
11.303
 20
1.365248
 30
0.0
  0
VERTEX
  8
0
 10
11.427794
 20
1.298258
 30
0.0
  0
SEQEND
  8
0
  0
POLYLINE
  8
0
 62
0
 70
0
 66
1
 10
0.0
 20
0.0
 30
0.0
  0
VERTEX
  8
0
 10
11.512835
 20
1.184207
 30
0.0
  0
VERTEX
  8
0
 10
11.569171
 20
1.052919
 30
0.0
  0
SEQEND
  8
0
  0
POLYLINE
  8
0
 62
0
 70
0
 66
1
 10
0.0
 20
0.0
 30
0.0
  0
VERTEX
  8
0
 10
11.726496
 20
1.671138
 30
0.0
  0
VERTEX
  8
0
 10
11.618225
 20
1.528137
 30
0.0
  0
SEQEND
  8
0
  0
POLYLINE
  8
0
 62
0
 70
0
 66
1
 10
0.0
 20
0.0
 30
0.0
  0
VERTEX
  8
0
 10
11.618526
 20
0.918624
 30
0.0
  0
VERTEX
  8
0
 10
11.670771
 20
0.78581
 30
0.0
  0
SEQEND
  8
0
  0
POLYLINE
  8
0
 62
0
 70
0
 66
1
 10
0.0
 20
0.0
 30
0.0
  0
VERTEX
  8
0
 10
11.819959
 20
0.363641
 30
0.0
  0
VERTEX
  8
0
 10
11.869738
 20
0.222774
 30
0.0
  0
SEQEND
  8
0
  0
POLYLINE
  8
0
 62
0
 70
0
 66
1
 10
0.0
 20
0.0
 30
0.0
  0
VERTEX
  8
0
 10
11.919479
 20
0.082019
 30
0.0
  0
VERTEX
  8
0
 10
11.775574
 20
0.082019
 30
0.0
  0
SEQEND
  8
0
  0
POLYLINE
  8
0
 62
0
 70
0
 66
1
 10
0.0
 20
0.0
 30
0.0
  0
VERTEX
  8
0
 10
11.775574
 20
0.082019
 30
0.0
  0
VERTEX
  8
0
 10
11.631582
 20
0.082019
 30
0.0
  0
SEQEND
  8
0
  0
POLYLINE
  8
0
 62
0
 70
0
 66
1
 10
0.0
 20
0.0
 30
0.0
  0
VERTEX
  8
0
 10
11.631582
 20
0.082019
 30
0.0
  0
VERTEX
  8
0
 10
11.487787
 20
0.082019
 30
0.0
  0
SEQEND
  8
0
  0
POLYLINE
  8
0
 62
0
 70
0
 66
1
 10
0.0
 20
0.0
 30
0.0
  0
VERTEX
  8
0
 10
11.199813
 20
0.082019
 30
0.0
  0
VERTEX
  8
0
 10
11.170714
 20
0.175663
 30
0.0
  0
SEQEND
  8
0
  0
POLYLINE
  8
0
 62
0
 70
0
 66
1
 10
0.0
 20
0.0
 30
0.0
  0
VERTEX
  8
0
 10
11.487787
 20
0.082019
 30
0.0
  0
VERTEX
  8
0
 10
11.343743
 20
0.082019
 30
0.0
  0
SEQEND
  8
0
  0
POLYLINE
  8
0
 62
0
 70
0
 66
1
 10
0.0
 20
0.0
 30
0.0
  0
VERTEX
  8
0
 10
11.170714
 20
0.175663
 30
0.0
  0
VERTEX
  8
0
 10
11.141673
 20
0.269123
 30
0.0
  0
SEQEND
  8
0
  0
POLYLINE
  8
0
 62
0
 70
0
 66
1
 10
0.0
 20
0.0
 30
0.0
  0
VERTEX
  8
0
 10
11.869738
 20
0.222774
 30
0.0
  0
VERTEX
  8
0
 10
11.919479
 20
0.082019
 30
0.0
  0
SEQEND
  8
0
  0
POLYLINE
  8
0
 62
0
 70
0
 66
1
 10
0.0
 20
0.0
 30
0.0
  0
VERTEX
  8
0
 10
11.343743
 20
0.082019
 30
0.0
  0
VERTEX
  8
0
 10
11.199813
 20
0.082019
 30
0.0
  0
SEQEND
  8
0
  0
POLYLINE
  8
0
 62
0
 70
0
 66
1
 10
0.0
 20
0.0
 30
0.0
  0
VERTEX
  8
0
 10
11.112579
 20
0.362752
 30
0.0
  0
VERTEX
  8
0
 10
11.083503
 20
0.456325
 30
0.0
  0
SEQEND
  8
0
  0
POLYLINE
  8
0
 62
0
 70
0
 66
1
 10
0.0
 20
0.0
 30
0.0
  0
VERTEX
  8
0
 10
11.141673
 20
0.269123
 30
0.0
  0
VERTEX
  8
0
 10
11.112579
 20
0.362752
 30
0.0
  0
SEQEND
  8
0
  0
POLYLINE
  8
0
 62
0
 70
0
 66
1
 10
0.0
 20
0.0
 30
0.0
  0
VERTEX
  8
0
 10
11.083503
 20
0.456325
 30
0.0
  0
VERTEX
  8
0
 10
11.054292
 20
0.550331
 30
0.0
  0
SEQEND
  8
0
  0
POLYLINE
  8
0
 62
0
 70
0
 66
1
 10
0.0
 20
0.0
 30
0.0
  0
VERTEX
  8
0
 10
10.45108
 20
1.105956
 30
0.0
  0
VERTEX
  8
0
 10
10.421938
 20
1.105956
 30
0.0
  0
SEQEND
  8
0
  0
POLYLINE
  8
0
 62
0
 70
0
 66
1
 10
0.0
 20
0.0
 30
0.0
  0
VERTEX
  8
0
 10
10.94059
 20
0.852871
 30
0.0
  0
VERTEX
  8
0
 10
10.856609
 20
0.990215
 30
0.0
  0
SEQEND
  8
0
  0
POLYLINE
  8
0
 62
0
 70
0
 66
1
 10
0.0
 20
0.0
 30
0.0
  0
VERTEX
  8
0
 10
10.567458
 20
1.105956
 30
0.0
  0
VERTEX
  8
0
 10
10.53836
 20
1.105956
 30
0.0
  0
SEQEND
  8
0
  0
POLYLINE
  8
0
 62
0
 70
0
 66
1
 10
0.0
 20
0.0
 30
0.0
  0
VERTEX
  8
0
 10
10.726486
 20
1.083193
 30
0.0
  0
VERTEX
  8
0
 10
10.567458
 20
1.105956
 30
0.0
  0
SEQEND
  8
0
  0
POLYLINE
  8
0
 62
0
 70
0
 66
1
 10
0.0
 20
0.0
 30
0.0
  0
VERTEX
  8
0
 10
11.054292
 20
0.550331
 30
0.0
  0
VERTEX
  8
0
 10
11.002103
 20
0.703191
 30
0.0
  0
SEQEND
  8
0
  0
POLYLINE
  8
0
 62
0
 70
0
 66
1
 10
0.0
 20
0.0
 30
0.0
  0
VERTEX
  8
0
 10
10.509468
 20
1.105956
 30
0.0
  0
VERTEX
  8
0
 10
10.480101
 20
1.105956
 30
0.0
  0
SEQEND
  8
0
  0
POLYLINE
  8
0
 62
0
 70
0
 66
1
 10
0.0
 20
0.0
 30
0.0
  0
VERTEX
  8
0
 10
10.421938
 20
1.105956
 30
0.0
  0
VERTEX
  8
0
 10
10.421938
 20
0.901208
 30
0.0
  0
SEQEND
  8
0
  0
POLYLINE
  8
0
 62
0
 70
0
 66
1
 10
0.0
 20
0.0
 30
0.0
  0
VERTEX
  8
0
 10
10.53836
 20
1.105956
 30
0.0
  0
VERTEX
  8
0
 10
10.509468
 20
1.105956
 30
0.0
  0
SEQEND
  8
0
  0
POLYLINE
  8
0
 62
0
 70
0
 66
1
 10
0.0
 20
0.0
 30
0.0
  0
VERTEX
  8
0
 10
11.002103
 20
0.703191
 30
0.0
  0
VERTEX
  8
0
 10
10.94059
 20
0.852871
 30
0.0
  0
SEQEND
  8
0
  0
POLYLINE
  8
0
 62
0
 70
0
 66
1
 10
0.0
 20
0.0
 30
0.0
  0
VERTEX
  8
0
 10
10.856609
 20
0.990215
 30
0.0
  0
VERTEX
  8
0
 10
10.726486
 20
1.083193
 30
0.0
  0
SEQEND
  8
0
  0
POLYLINE
  8
0
 62
0
 70
0
 66
1
 10
0.0
 20
0.0
 30
0.0
  0
VERTEX
  8
0
 10
10.480101
 20
1.105956
 30
0.0
  0
VERTEX
  8
0
 10
10.45108
 20
1.105956
 30
0.0
  0
SEQEND
  8
0
  0
POLYLINE
  8
0
 62
0
 70
0
 66
1
 10
0.0
 20
0.0
 30
0.0
  0
VERTEX
  8
0
 10
10.421938
 20
0.901208
 30
0.0
  0
VERTEX
  8
0
 10
10.421938
 20
0.696338
 30
0.0
  0
SEQEND
  8
0
  0
POLYLINE
  8
0
 62
0
 70
0
 66
1
 10
0.0
 20
0.0
 30
0.0
  0
VERTEX
  8
0
 10
10.421938
 20
0.491747
 30
0.0
  0
VERTEX
  8
0
 10
10.421938
 20
0.286803
 30
0.0
  0
SEQEND
  8
0
  0
POLYLINE
  8
0
 62
0
 70
0
 66
1
 10
0.0
 20
0.0
 30
0.0
  0
VERTEX
  8
0
 10
10.283852
 20
0.082019
 30
0.0
  0
VERTEX
  8
0
 10
10.145684
 20
0.082019
 30
0.0
  0
SEQEND
  8
0
  0
POLYLINE
  8
0
 62
0
 70
0
 66
1
 10
0.0
 20
0.0
 30
0.0
  0
VERTEX
  8
0
 10
10.421938
 20
0.696338
 30
0.0
  0
VERTEX
  8
0
 10
10.421938
 20
0.491747
 30
0.0
  0
SEQEND
  8
0
  0
POLYLINE
  8
0
 62
0
 70
0
 66
1
 10
0.0
 20
0.0
 30
0.0
  0
VERTEX
  8
0
 10
10.421938
 20
0.286803
 30
0.0
  0
VERTEX
  8
0
 10
10.421938
 20
0.082019
 30
0.0
  0
SEQEND
  8
0
  0
POLYLINE
  8
0
 62
0
 70
0
 66
1
 10
0.0
 20
0.0
 30
0.0
  0
VERTEX
  8
0
 10
10.872455
 20
1.613572
 30
0.0
  0
VERTEX
  8
0
 10
10.998682
 20
1.662428
 30
0.0
  0
SEQEND
  8
0
  0
POLYLINE
  8
0
 62
0
 70
0
 66
1
 10
0.0
 20
0.0
 30
0.0
  0
VERTEX
  8
0
 10
10.737748
 20
1.597682
 30
0.0
  0
VERTEX
  8
0
 10
10.872455
 20
1.613572
 30
0.0
  0
SEQEND
  8
0
  0
POLYLINE
  8
0
 62
0
 70
0
 66
1
 10
0.0
 20
0.0
 30
0.0
  0
VERTEX
  8
0
 10
10.145684
 20
0.082019
 30
0.0
  0
VERTEX
  8
0
 10
10.007704
 20
0.082019
 30
0.0
  0
SEQEND
  8
0
  0
POLYLINE
  8
0
 62
0
 70
0
 66
1
 10
0.0
 20
0.0
 30
0.0
  0
VERTEX
  8
0
 10
10.421938
 20
0.082019
 30
0.0
  0
VERTEX
  8
0
 10
10.283852
 20
0.082019
 30
0.0
  0
SEQEND
  8
0
  0
POLYLINE
  8
0
 62
0
 70
0
 66
1
 10
0.0
 20
0.0
 30
0.0
  0
VERTEX
  8
0
 10
10.007704
 20
0.082019
 30
0.0
  0
VERTEX
  8
0
 10
9.869485
 20
0.082019
 30
0.0
  0
SEQEND
  8
0
  0
POLYLINE
  8
0
 62
0
 70
0
 66
1
 10
0.0
 20
0.0
 30
0.0
  0
VERTEX
  8
0
 10
9.869485
 20
0.082019
 30
0.0
  0
VERTEX
  8
0
 10
9.731375
 20
0.082019
 30
0.0
  0
SEQEND
  8
0
  0
POLYLINE
  8
0
 62
0
 70
0
 66
1
 10
0.0
 20
0.0
 30
0.0
  0
VERTEX
  8
0
 10
10.601854
 20
1.595435
 30
0.0
  0
VERTEX
  8
0
 10
10.737748
 20
1.597682
 30
0.0
  0
SEQEND
  8
0
  0
POLYLINE
  8
0
 62
0
 70
0
 66
1
 10
0.0
 20
0.0
 30
0.0
  0
VERTEX
  8
0
 10
10.998682
 20
1.662428
 30
0.0
  0
VERTEX
  8
0
 10
11.085505
 20
1.764414
 30
0.0
  0
SEQEND
  8
0
  0
POLYLINE
  8
0
 62
0
 70
0
 66
1
 10
0.0
 20
0.0
 30
0.0
  0
VERTEX
  8
0
 10
11.085505
 20
1.764414
 30
0.0
  0
VERTEX
  8
0
 10
11.109854
 20
1.89706
 30
0.0
  0
SEQEND
  8
0
  0
POLYLINE
  8
0
 62
0
 70
0
 66
1
 10
0.0
 20
0.0
 30
0.0
  0
VERTEX
  8
0
 10
10.733331
 20
2.178022
 30
0.0
  0
VERTEX
  8
0
 10
10.601854
 20
2.18281
 30
0.0
  0
SEQEND
  8
0
  0
POLYLINE
  8
0
 62
0
 70
0
 66
1
 10
0.0
 20
0.0
 30
0.0
  0
VERTEX
  8
0
 10
10.565878
 20
2.18281
 30
0.0
  0
VERTEX
  8
0
 10
10.530157
 20
2.18281
 30
0.0
  0
SEQEND
  8
0
  0
POLYLINE
  8
0
 62
0
 70
0
 66
1
 10
0.0
 20
0.0
 30
0.0
  0
VERTEX
  8
0
 10
10.493848
 20
2.18281
 30
0.0
  0
VERTEX
  8
0
 10
10.457968
 20
2.18281
 30
0.0
  0
SEQEND
  8
0
  0
POLYLINE
  8
0
 62
0
 70
0
 66
1
 10
0.0
 20
0.0
 30
0.0
  0
VERTEX
  8
0
 10
11.079448
 20
2.023661
 30
0.0
  0
VERTEX
  8
0
 10
10.985928
 20
2.113758
 30
0.0
  0
SEQEND
  8
0
  0
POLYLINE
  8
0
 62
0
 70
0
 66
1
 10
0.0
 20
0.0
 30
0.0
  0
VERTEX
  8
0
 10
10.985928
 20
2.113758
 30
0.0
  0
VERTEX
  8
0
 10
10.862974
 20
2.159041
 30
0.0
  0
SEQEND
  8
0
  0
POLYLINE
  8
0
 62
0
 70
0
 66
1
 10
0.0
 20
0.0
 30
0.0
  0
VERTEX
  8
0
 10
11.109854
 20
1.89706
 30
0.0
  0
VERTEX
  8
0
 10
11.079448
 20
2.023661
 30
0.0
  0
SEQEND
  8
0
  0
POLYLINE
  8
0
 62
0
 70
0
 66
1
 10
0.0
 20
0.0
 30
0.0
  0
VERTEX
  8
0
 10
10.862974
 20
2.159041
 30
0.0
  0
VERTEX
  8
0
 10
10.733331
 20
2.178022
 30
0.0
  0
SEQEND
  8
0
  0
POLYLINE
  8
0
 62
0
 70
0
 66
1
 10
0.0
 20
0.0
 30
0.0
  0
VERTEX
  8
0
 10
10.601854
 20
2.18281
 30
0.0
  0
VERTEX
  8
0
 10
10.565878
 20
2.18281
 30
0.0
  0
SEQEND
  8
0
  0
POLYLINE
  8
0
 62
0
 70
0
 66
1
 10
0.0
 20
0.0
 30
0.0
  0
VERTEX
  8
0
 10
10.530157
 20
2.18281
 30
0.0
  0
VERTEX
  8
0
 10
10.493848
 20
2.18281
 30
0.0
  0
SEQEND
  8
0
  0
POLYLINE
  8
0
 62
0
 70
0
 66
1
 10
0.0
 20
0.0
 30
0.0
  0
VERTEX
  8
0
 10
10.457968
 20
2.18281
 30
0.0
  0
VERTEX
  8
0
 10
10.421938
 20
2.18281
 30
0.0
  0
SEQEND
  8
0
  0
POLYLINE
  8
0
 62
0
 70
0
 66
1
 10
0.0
 20
0.0
 30
0.0
  0
VERTEX
  8
0
 10
10.421938
 20
2.065358
 30
0.0
  0
VERTEX
  8
0
 10
10.421938
 20
1.948137
 30
0.0
  0
SEQEND
  8
0
  0
POLYLINE
  8
0
 62
0
 70
0
 66
1
 10
0.0
 20
0.0
 30
0.0
  0
VERTEX
  8
0
 10
10.421938
 20
2.18281
 30
0.0
  0
VERTEX
  8
0
 10
10.421938
 20
2.065358
 30
0.0
  0
SEQEND
  8
0
  0
POLYLINE
  8
0
 62
0
 70
0
 66
1
 10
0.0
 20
0.0
 30
0.0
  0
VERTEX
  8
0
 10
10.421938
 20
1.948137
 30
0.0
  0
VERTEX
  8
0
 10
10.421938
 20
1.830703
 30
0.0
  0
SEQEND
  8
0
  0
POLYLINE
  8
0
 62
0
 70
0
 66
1
 10
0.0
 20
0.0
 30
0.0
  0
VERTEX
  8
0
 10
10.421938
 20
1.830703
 30
0.0
  0
VERTEX
  8
0
 10
10.421938
 20
1.713035
 30
0.0
  0
SEQEND
  8
0
  0
POLYLINE
  8
0
 62
0
 70
0
 66
1
 10
0.0
 20
0.0
 30
0.0
  0
VERTEX
  8
0
 10
10.421938
 20
1.595435
 30
0.0
  0
VERTEX
  8
0
 10
10.457914
 20
1.595435
 30
0.0
  0
SEQEND
  8
0
  0
POLYLINE
  8
0
 62
0
 70
0
 66
1
 10
0.0
 20
0.0
 30
0.0
  0
VERTEX
  8
0
 10
10.457914
 20
1.595435
 30
0.0
  0
VERTEX
  8
0
 10
10.493635
 20
1.595435
 30
0.0
  0
SEQEND
  8
0
  0
POLYLINE
  8
0
 62
0
 70
0
 66
1
 10
0.0
 20
0.0
 30
0.0
  0
VERTEX
  8
0
 10
10.493635
 20
1.595435
 30
0.0
  0
VERTEX
  8
0
 10
10.529943
 20
1.595435
 30
0.0
  0
SEQEND
  8
0
  0
POLYLINE
  8
0
 62
0
 70
0
 66
1
 10
0.0
 20
0.0
 30
0.0
  0
VERTEX
  8
0
 10
10.421938
 20
1.713035
 30
0.0
  0
VERTEX
  8
0
 10
10.421938
 20
1.595435
 30
0.0
  0
SEQEND
  8
0
  0
POLYLINE
  8
0
 62
0
 70
0
 66
1
 10
0.0
 20
0.0
 30
0.0
  0
VERTEX
  8
0
 10
10.565824
 20
1.595435
 30
0.0
  0
VERTEX
  8
0
 10
10.601854
 20
1.595435
 30
0.0
  0
SEQEND
  8
0
  0
POLYLINE
  8
0
 62
0
 70
0
 66
1
 10
0.0
 20
0.0
 30
0.0
  0
VERTEX
  8
0
 10
12.200958
 20
0.591506
 30
0.0
  0
VERTEX
  8
0
 10
12.397887
 20
1.10924
 30
0.0
  0
SEQEND
  8
0
  0
POLYLINE
  8
0
 62
0
 70
0
 66
1
 10
0.0
 20
0.0
 30
0.0
  0
VERTEX
  8
0
 10
12.004146
 20
0.074081
 30
0.0
  0
VERTEX
  8
0
 10
12.200958
 20
0.591506
 30
0.0
  0
SEQEND
  8
0
  0
POLYLINE
  8
0
 62
0
 70
0
 66
1
 10
0.0
 20
0.0
 30
0.0
  0
VERTEX
  8
0
 10
10.529943
 20
1.595435
 30
0.0
  0
VERTEX
  8
0
 10
10.565824
 20
1.595435
 30
0.0
  0
SEQEND
  8
0
  0
POLYLINE
  8
0
 62
0
 70
0
 66
1
 10
0.0
 20
0.0
 30
0.0
  0
VERTEX
  8
0
 10
12.397887
 20
1.10924
 30
0.0
  0
VERTEX
  8
0
 10
12.594749
 20
1.626796
 30
0.0
  0
SEQEND
  8
0
  0
POLYLINE
  8
0
 62
0
 70
0
 66
1
 10
0.0
 20
0.0
 30
0.0
  0
VERTEX
  8
0
 10
12.988396
 20
2.661706
 30
0.0
  0
VERTEX
  8
0
 10
13.157697
 20
2.661706
 30
0.0
  0
SEQEND
  8
0
  0
POLYLINE
  8
0
 62
0
 70
0
 66
1
 10
0.0
 20
0.0
 30
0.0
  0
VERTEX
  8
0
 10
12.79166
 20
2.144481
 30
0.0
  0
VERTEX
  8
0
 10
12.988396
 20
2.661706
 30
0.0
  0
SEQEND
  8
0
  0
POLYLINE
  8
0
 62
0
 70
0
 66
1
 10
0.0
 20
0.0
 30
0.0
  0
VERTEX
  8
0
 10
14.03452
 20
2.144281
 30
0.0
  0
VERTEX
  8
0
 10
14.234096
 20
1.626547
 30
0.0
  0
SEQEND
  8
0
  0
POLYLINE
  8
0
 62
0
 70
0
 66
1
 10
0.0
 20
0.0
 30
0.0
  0
VERTEX
  8
0
 10
13.665732
 20
2.661706
 30
0.0
  0
VERTEX
  8
0
 10
13.835062
 20
2.661706
 30
0.0
  0
SEQEND
  8
0
  0
POLYLINE
  8
0
 62
0
 70
0
 66
1
 10
0.0
 20
0.0
 30
0.0
  0
VERTEX
  8
0
 10
13.496269
 20
2.661706
 30
0.0
  0
VERTEX
  8
0
 10
13.665732
 20
2.661706
 30
0.0
  0
SEQEND
  8
0
  0
POLYLINE
  8
0
 62
0
 70
0
 66
1
 10
0.0
 20
0.0
 30
0.0
  0
VERTEX
  8
0
 10
13.157697
 20
2.661706
 30
0.0
  0
VERTEX
  8
0
 10
13.327098
 20
2.661706
 30
0.0
  0
SEQEND
  8
0
  0
POLYLINE
  8
0
 62
0
 70
0
 66
1
 10
0.0
 20
0.0
 30
0.0
  0
VERTEX
  8
0
 10
13.327098
 20
2.661706
 30
0.0
  0
VERTEX
  8
0
 10
13.496269
 20
2.661706
 30
0.0
  0
SEQEND
  8
0
  0
POLYLINE
  8
0
 62
0
 70
0
 66
1
 10
0.0
 20
0.0
 30
0.0
  0
VERTEX
  8
0
 10
13.835062
 20
2.661706
 30
0.0
  0
VERTEX
  8
0
 10
14.03452
 20
2.144281
 30
0.0
  0
SEQEND
  8
0
  0
POLYLINE
  8
0
 62
0
 70
0
 66
1
 10
0.0
 20
0.0
 30
0.0
  0
VERTEX
  8
0
 10
14.234096
 20
1.626547
 30
0.0
  0
VERTEX
  8
0
 10
14.433604
 20
1.108991
 30
0.0
  0
SEQEND
  8
0
  0
POLYLINE
  8
0
 62
0
 70
0
 66
1
 10
0.0
 20
0.0
 30
0.0
  0
VERTEX
  8
0
 10
12.594749
 20
1.626796
 30
0.0
  0
VERTEX
  8
0
 10
12.79166
 20
2.144481
 30
0.0
  0
SEQEND
  8
0
  0
POLYLINE
  8
0
 62
0
 70
0
 66
1
 10
0.0
 20
0.0
 30
0.0
  0
VERTEX
  8
0
 10
14.433604
 20
1.108991
 30
0.0
  0
VERTEX
  8
0
 10
14.633162
 20
0.591306
 30
0.0
  0
SEQEND
  8
0
  0
POLYLINE
  8
0
 62
0
 70
0
 66
1
 10
0.0
 20
0.0
 30
0.0
  0
VERTEX
  8
0
 10
14.034566
 20
0.184126
 30
0.0
  0
VERTEX
  8
0
 10
13.99602
 20
0.293955
 30
0.0
  0
SEQEND
  8
0
  0
POLYLINE
  8
0
 62
0
 70
0
 66
1
 10
0.0
 20
0.0
 30
0.0
  0
VERTEX
  8
0
 10
14.528768
 20
0.074081
 30
0.0
  0
VERTEX
  8
0
 10
14.377043
 20
0.074081
 30
0.0
  0
SEQEND
  8
0
  0
POLYLINE
  8
0
 62
0
 70
0
 66
1
 10
0.0
 20
0.0
 30
0.0
  0
VERTEX
  8
0
 10
13.918712
 20
0.51423
 30
0.0
  0
VERTEX
  8
0
 10
13.880042
 20
0.624414
 30
0.0
  0
SEQEND
  8
0
  0
POLYLINE
  8
0
 62
0
 70
0
 66
1
 10
0.0
 20
0.0
 30
0.0
  0
VERTEX
  8
0
 10
14.225056
 20
0.074081
 30
0.0
  0
VERTEX
  8
0
 10
14.073187
 20
0.074081
 30
0.0
  0
SEQEND
  8
0
  0
POLYLINE
  8
0
 62
0
 70
0
 66
1
 10
0.0
 20
0.0
 30
0.0
  0
VERTEX
  8
0
 10
14.073187
 20
0.074081
 30
0.0
  0
VERTEX
  8
0
 10
14.034566
 20
0.184126
 30
0.0
  0
SEQEND
  8
0
  0
POLYLINE
  8
0
 62
0
 70
0
 66
1
 10
0.0
 20
0.0
 30
0.0
  0
VERTEX
  8
0
 10
14.832542
 20
0.074081
 30
0.0
  0
VERTEX
  8
0
 10
14.6807
 20
0.074081
 30
0.0
  0
SEQEND
  8
0
  0
POLYLINE
  8
0
 62
0
 70
0
 66
1
 10
0.0
 20
0.0
 30
0.0
  0
VERTEX
  8
0
 10
14.6807
 20
0.074081
 30
0.0
  0
VERTEX
  8
0
 10
14.528768
 20
0.074081
 30
0.0
  0
SEQEND
  8
0
  0
POLYLINE
  8
0
 62
0
 70
0
 66
1
 10
0.0
 20
0.0
 30
0.0
  0
VERTEX
  8
0
 10
13.99602
 20
0.293955
 30
0.0
  0
VERTEX
  8
0
 10
13.957405
 20
0.403983
 30
0.0
  0
SEQEND
  8
0
  0
POLYLINE
  8
0
 62
0
 70
0
 66
1
 10
0.0
 20
0.0
 30
0.0
  0
VERTEX
  8
0
 10
14.633162
 20
0.591306
 30
0.0
  0
VERTEX
  8
0
 10
14.832542
 20
0.074081
 30
0.0
  0
SEQEND
  8
0
  0
POLYLINE
  8
0
 62
0
 70
0
 66
1
 10
0.0
 20
0.0
 30
0.0
  0
VERTEX
  8
0
 10
14.377043
 20
0.074081
 30
0.0
  0
VERTEX
  8
0
 10
14.225056
 20
0.074081
 30
0.0
  0
SEQEND
  8
0
  0
POLYLINE
  8
0
 62
0
 70
0
 66
1
 10
0.0
 20
0.0
 30
0.0
  0
VERTEX
  8
0
 10
13.880042
 20
0.624414
 30
0.0
  0
VERTEX
  8
0
 10
13.685875
 20
0.624414
 30
0.0
  0
SEQEND
  8
0
  0
POLYLINE
  8
0
 62
0
 70
0
 66
1
 10
0.0
 20
0.0
 30
0.0
  0
VERTEX
  8
0
 10
13.957405
 20
0.403983
 30
0.0
  0
VERTEX
  8
0
 10
13.918712
 20
0.51423
 30
0.0
  0
SEQEND
  8
0
  0
POLYLINE
  8
0
 62
0
 70
0
 66
1
 10
0.0
 20
0.0
 30
0.0
  0
VERTEX
  8
0
 10
12.7
 20
0.074081
 30
0.0
  0
VERTEX
  8
0
 10
12.560856
 20
0.074081
 30
0.0
  0
SEQEND
  8
0
  0
POLYLINE
  8
0
 62
0
 70
0
 66
1
 10
0.0
 20
0.0
 30
0.0
  0
VERTEX
  8
0
 10
12.783722
 20
0.294512
 30
0.0
  0
VERTEX
  8
0
 10
12.741849
 20
0.184265
 30
0.0
  0
SEQEND
  8
0
  0
POLYLINE
  8
0
 62
0
 70
0
 66
1
 10
0.0
 20
0.0
 30
0.0
  0
VERTEX
  8
0
 10
13.685875
 20
0.624414
 30
0.0
  0
VERTEX
  8
0
 10
13.491593
 20
0.624414
 30
0.0
  0
SEQEND
  8
0
  0
POLYLINE
  8
0
 62
0
 70
0
 66
1
 10
0.0
 20
0.0
 30
0.0
  0
VERTEX
  8
0
 10
13.491593
 20
0.624414
 30
0.0
  0
VERTEX
  8
0
 10
13.297575
 20
0.624414
 30
0.0
  0
SEQEND
  8
0
  0
POLYLINE
  8
0
 62
0
 70
0
 66
1
 10
0.0
 20
0.0
 30
0.0
  0
VERTEX
  8
0
 10
13.297575
 20
0.624414
 30
0.0
  0
VERTEX
  8
0
 10
13.103222
 20
0.624414
 30
0.0
  0
SEQEND
  8
0
  0
POLYLINE
  8
0
 62
0
 70
0
 66
1
 10
0.0
 20
0.0
 30
0.0
  0
VERTEX
  8
0
 10
13.103222
 20
0.624414
 30
0.0
  0
VERTEX
  8
0
 10
12.909021
 20
0.624414
 30
0.0
  0
SEQEND
  8
0
  0
POLYLINE
  8
0
 62
0
 70
0
 66
1
 10
0.0
 20
0.0
 30
0.0
  0
VERTEX
  8
0
 10
12.909021
 20
0.624414
 30
0.0
  0
VERTEX
  8
0
 10
12.867225
 20
0.514369
 30
0.0
  0
SEQEND
  8
0
  0
POLYLINE
  8
0
 62
0
 70
0
 66
1
 10
0.0
 20
0.0
 30
0.0
  0
VERTEX
  8
0
 10
12.867225
 20
0.514369
 30
0.0
  0
VERTEX
  8
0
 10
12.825511
 20
0.40454
 30
0.0
  0
SEQEND
  8
0
  0
POLYLINE
  8
0
 62
0
 70
0
 66
1
 10
0.0
 20
0.0
 30
0.0
  0
VERTEX
  8
0
 10
12.825511
 20
0.40454
 30
0.0
  0
VERTEX
  8
0
 10
12.783722
 20
0.294512
 30
0.0
  0
SEQEND
  8
0
  0
POLYLINE
  8
0
 62
0
 70
0
 66
1
 10
0.0
 20
0.0
 30
0.0
  0
VERTEX
  8
0
 10
12.741849
 20
0.184265
 30
0.0
  0
VERTEX
  8
0
 10
12.7
 20
0.074081
 30
0.0
  0
SEQEND
  8
0
  0
POLYLINE
  8
0
 62
0
 70
0
 66
1
 10
0.0
 20
0.0
 30
0.0
  0
VERTEX
  8
0
 10
12.421629
 20
0.074081
 30
0.0
  0
VERTEX
  8
0
 10
12.282592
 20
0.074081
 30
0.0
  0
SEQEND
  8
0
  0
POLYLINE
  8
0
 62
0
 70
0
 66
1
 10
0.0
 20
0.0
 30
0.0
  0
VERTEX
  8
0
 10
12.560856
 20
0.074081
 30
0.0
  0
VERTEX
  8
0
 10
12.421629
 20
0.074081
 30
0.0
  0
SEQEND
  8
0
  0
POLYLINE
  8
0
 62
0
 70
0
 66
1
 10
0.0
 20
0.0
 30
0.0
  0
VERTEX
  8
0
 10
12.282592
 20
0.074081
 30
0.0
  0
VERTEX
  8
0
 10
12.143314
 20
0.074081
 30
0.0
  0
SEQEND
  8
0
  0
POLYLINE
  8
0
 62
0
 70
0
 66
1
 10
0.0
 20
0.0
 30
0.0
  0
VERTEX
  8
0
 10
13.592162
 20
1.520336
 30
0.0
  0
VERTEX
  8
0
 10
13.530309
 20
1.723341
 30
0.0
  0
SEQEND
  8
0
  0
POLYLINE
  8
0
 62
0
 70
0
 66
1
 10
0.0
 20
0.0
 30
0.0
  0
VERTEX
  8
0
 10
13.338717
 20
1.926733
 30
0.0
  0
VERTEX
  8
0
 10
13.270957
 20
1.723451
 30
0.0
  0
SEQEND
  8
0
  0
POLYLINE
  8
0
 62
0
 70
0
 66
1
 10
0.0
 20
0.0
 30
0.0
  0
VERTEX
  8
0
 10
13.716
 20
1.113894
 30
0.0
  0
VERTEX
  8
0
 10
13.654099
 20
1.317054
 30
0.0
  0
SEQEND
  8
0
  0
POLYLINE
  8
0
 62
0
 70
0
 66
1
 10
0.0
 20
0.0
 30
0.0
  0
VERTEX
  8
0
 10
13.203288
 20
1.520446
 30
0.0
  0
VERTEX
  8
0
 10
13.135503
 20
1.31709
 30
0.0
  0
SEQEND
  8
0
  0
POLYLINE
  8
0
 62
0
 70
0
 66
1
 10
0.0
 20
0.0
 30
0.0
  0
VERTEX
  8
0
 10
13.135503
 20
1.31709
 30
0.0
  0
VERTEX
  8
0
 10
13.067771
 20
1.113894
 30
0.0
  0
SEQEND
  8
0
  0
POLYLINE
  8
0
 62
0
 70
0
 66
1
 10
0.0
 20
0.0
 30
0.0
  0
VERTEX
  8
0
 10
12.143314
 20
0.074081
 30
0.0
  0
VERTEX
  8
0
 10
12.004146
 20
0.074081
 30
0.0
  0
SEQEND
  8
0
  0
POLYLINE
  8
0
 62
0
 70
0
 66
1
 10
0.0
 20
0.0
 30
0.0
  0
VERTEX
  8
0
 10
13.530309
 20
1.723341
 30
0.0
  0
VERTEX
  8
0
 10
13.468349
 20
1.926697
 30
0.0
  0
SEQEND
  8
0
  0
POLYLINE
  8
0
 62
0
 70
0
 66
1
 10
0.0
 20
0.0
 30
0.0
  0
VERTEX
  8
0
 10
13.654099
 20
1.317054
 30
0.0
  0
VERTEX
  8
0
 10
13.592162
 20
1.520336
 30
0.0
  0
SEQEND
  8
0
  0
POLYLINE
  8
0
 62
0
 70
0
 66
1
 10
0.0
 20
0.0
 30
0.0
  0
VERTEX
  8
0
 10
13.406438
 20
2.129894
 30
0.0
  0
VERTEX
  8
0
 10
13.338717
 20
1.926733
 30
0.0
  0
SEQEND
  8
0
  0
POLYLINE
  8
0
 62
0
 70
0
 66
1
 10
0.0
 20
0.0
 30
0.0
  0
VERTEX
  8
0
 10
13.270957
 20
1.723451
 30
0.0
  0
VERTEX
  8
0
 10
13.203288
 20
1.520446
 30
0.0
  0
SEQEND
  8
0
  0
POLYLINE
  8
0
 62
0
 70
0
 66
1
 10
0.0
 20
0.0
 30
0.0
  0
VERTEX
  8
0
 10
13.468349
 20
1.926697
 30
0.0
  0
VERTEX
  8
0
 10
13.406438
 20
2.129894
 30
0.0
  0
SEQEND
  8
0
  0
POLYLINE
  8
0
 62
0
 70
0
 66
1
 10
0.0
 20
0.0
 30
0.0
  0
VERTEX
  8
0
 10
13.067771
 20
1.113894
 30
0.0
  0
VERTEX
  8
0
 10
13.197392
 20
1.113894
 30
0.0
  0
SEQEND
  8
0
  0
POLYLINE
  8
0
 62
0
 70
0
 66
1
 10
0.0
 20
0.0
 30
0.0
  0
VERTEX
  8
0
 10
13.197392
 20
1.113894
 30
0.0
  0
VERTEX
  8
0
 10
13.32709
 20
1.113894
 30
0.0
  0
SEQEND
  8
0
  0
POLYLINE
  8
0
 62
0
 70
0
 66
1
 10
0.0
 20
0.0
 30
0.0
  0
VERTEX
  8
0
 10
13.32709
 20
1.113894
 30
0.0
  0
VERTEX
  8
0
 10
13.456611
 20
1.113894
 30
0.0
  0
SEQEND
  8
0
  0
POLYLINE
  8
0
 62
0
 70
0
 66
1
 10
0.0
 20
0.0
 30
0.0
  0
VERTEX
  8
0
 10
13.456611
 20
1.113894
 30
0.0
  0
VERTEX
  8
0
 10
13.586356
 20
1.113894
 30
0.0
  0
SEQEND
  8
0
  0
POLYLINE
  8
0
 62
0
 70
0
 66
1
 10
0.0
 20
0.0
 30
0.0
  0
VERTEX
  8
0
 10
15.65434
 20
2.661706
 30
0.0
  0
VERTEX
  8
0
 10
15.792979
 20
2.661706
 30
0.0
  0
SEQEND
  8
0
  0
POLYLINE
  8
0
 62
0
 70
0
 66
1
 10
0.0
 20
0.0
 30
0.0
  0
VERTEX
  8
0
 10
13.586356
 20
1.113894
 30
0.0
  0
VERTEX
  8
0
 10
13.716
 20
1.113894
 30
0.0
  0
SEQEND
  8
0
  0
POLYLINE
  8
0
 62
0
 70
0
 66
1
 10
0.0
 20
0.0
 30
0.0
  0
VERTEX
  8
0
 10
15.792979
 20
2.24639
 30
0.0
  0
VERTEX
  8
0
 10
15.792979
 20
1.830827
 30
0.0
  0
SEQEND
  8
0
  0
POLYLINE
  8
0
 62
0
 70
0
 66
1
 10
0.0
 20
0.0
 30
0.0
  0
VERTEX
  8
0
 10
15.515592
 20
2.661706
 30
0.0
  0
VERTEX
  8
0
 10
15.65434
 20
2.661706
 30
0.0
  0
SEQEND
  8
0
  0
POLYLINE
  8
0
 62
0
 70
0
 66
1
 10
0.0
 20
0.0
 30
0.0
  0
VERTEX
  8
0
 10
15.377083
 20
2.661706
 30
0.0
  0
VERTEX
  8
0
 10
15.515592
 20
2.661706
 30
0.0
  0
SEQEND
  8
0
  0
POLYLINE
  8
0
 62
0
 70
0
 66
1
 10
0.0
 20
0.0
 30
0.0
  0
VERTEX
  8
0
 10
15.792979
 20
2.661706
 30
0.0
  0
VERTEX
  8
0
 10
15.792979
 20
2.24639
 30
0.0
  0
SEQEND
  8
0
  0
POLYLINE
  8
0
 62
0
 70
0
 66
1
 10
0.0
 20
0.0
 30
0.0
  0
VERTEX
  8
0
 10
15.238386
 20
2.661706
 30
0.0
  0
VERTEX
  8
0
 10
15.377083
 20
2.661706
 30
0.0
  0
SEQEND
  8
0
  0
POLYLINE
  8
0
 62
0
 70
0
 66
1
 10
0.0
 20
0.0
 30
0.0
  0
VERTEX
  8
0
 10
15.099771
 20
2.661706
 30
0.0
  0
VERTEX
  8
0
 10
15.238386
 20
2.661706
 30
0.0
  0
SEQEND
  8
0
  0
POLYLINE
  8
0
 62
0
 70
0
 66
1
 10
0.0
 20
0.0
 30
0.0
  0
VERTEX
  8
0
 10
16.432582
 20
0.584727
 30
0.0
  0
VERTEX
  8
0
 10
16.645999
 20
0.584727
 30
0.0
  0
SEQEND
  8
0
  0
POLYLINE
  8
0
 62
0
 70
0
 66
1
 10
0.0
 20
0.0
 30
0.0
  0
VERTEX
  8
0
 10
15.792979
 20
1.830827
 30
0.0
  0
VERTEX
  8
0
 10
15.792979
 20
1.415406
 30
0.0
  0
SEQEND
  8
0
  0
POLYLINE
  8
0
 62
0
 70
0
 66
1
 10
0.0
 20
0.0
 30
0.0
  0
VERTEX
  8
0
 10
16.219532
 20
0.584727
 30
0.0
  0
VERTEX
  8
0
 10
16.432582
 20
0.584727
 30
0.0
  0
SEQEND
  8
0
  0
POLYLINE
  8
0
 62
0
 70
0
 66
1
 10
0.0
 20
0.0
 30
0.0
  0
VERTEX
  8
0
 10
16.85925
 20
0.380709
 30
0.0
  0
VERTEX
  8
0
 10
16.85925
 20
0.278616
 30
0.0
  0
SEQEND
  8
0
  0
POLYLINE
  8
0
 62
0
 70
0
 66
1
 10
0.0
 20
0.0
 30
0.0
  0
VERTEX
  8
0
 10
15.792979
 20
0.999882
 30
0.0
  0
VERTEX
  8
0
 10
15.792979
 20
0.584727
 30
0.0
  0
SEQEND
  8
0
  0
POLYLINE
  8
0
 62
0
 70
0
 66
1
 10
0.0
 20
0.0
 30
0.0
  0
VERTEX
  8
0
 10
15.792979
 20
0.584727
 30
0.0
  0
VERTEX
  8
0
 10
16.006192
 20
0.584727
 30
0.0
  0
SEQEND
  8
0
  0
POLYLINE
  8
0
 62
0
 70
0
 66
1
 10
0.0
 20
0.0
 30
0.0
  0
VERTEX
  8
0
 10
16.85925
 20
0.584727
 30
0.0
  0
VERTEX
  8
0
 10
16.85925
 20
0.482617
 30
0.0
  0
SEQEND
  8
0
  0
POLYLINE
  8
0
 62
0
 70
0
 66
1
 10
0.0
 20
0.0
 30
0.0
  0
VERTEX
  8
0
 10
16.645999
 20
0.584727
 30
0.0
  0
VERTEX
  8
0
 10
16.85925
 20
0.584727
 30
0.0
  0
SEQEND
  8
0
  0
POLYLINE
  8
0
 62
0
 70
0
 66
1
 10
0.0
 20
0.0
 30
0.0
  0
VERTEX
  8
0
 10
15.792979
 20
1.415406
 30
0.0
  0
VERTEX
  8
0
 10
15.792979
 20
0.999882
 30
0.0
  0
SEQEND
  8
0
  0
POLYLINE
  8
0
 62
0
 70
0
 66
1
 10
0.0
 20
0.0
 30
0.0
  0
VERTEX
  8
0
 10
16.006192
 20
0.584727
 30
0.0
  0
VERTEX
  8
0
 10
16.219532
 20
0.584727
 30
0.0
  0
SEQEND
  8
0
  0
POLYLINE
  8
0
 62
0
 70
0
 66
1
 10
0.0
 20
0.0
 30
0.0
  0
VERTEX
  8
0
 10
16.85925
 20
0.482617
 30
0.0
  0
VERTEX
  8
0
 10
16.85925
 20
0.380709
 30
0.0
  0
SEQEND
  8
0
  0
POLYLINE
  8
0
 62
0
 70
0
 66
1
 10
0.0
 20
0.0
 30
0.0
  0
VERTEX
  8
0
 10
16.85925
 20
0.278616
 30
0.0
  0
VERTEX
  8
0
 10
16.85925
 20
0.176585
 30
0.0
  0
SEQEND
  8
0
  0
POLYLINE
  8
0
 62
0
 70
0
 66
1
 10
0.0
 20
0.0
 30
0.0
  0
VERTEX
  8
0
 10
16.85925
 20
0.176585
 30
0.0
  0
VERTEX
  8
0
 10
16.85925
 20
0.074081
 30
0.0
  0
SEQEND
  8
0
  0
POLYLINE
  8
0
 62
0
 70
0
 66
1
 10
0.0
 20
0.0
 30
0.0
  0
VERTEX
  8
0
 10
15.099771
 20
1.626796
 30
0.0
  0
VERTEX
  8
0
 10
15.099771
 20
2.144481
 30
0.0
  0
SEQEND
  8
0
  0
POLYLINE
  8
0
 62
0
 70
0
 66
1
 10
0.0
 20
0.0
 30
0.0
  0
VERTEX
  8
0
 10
17.168813
 20
2.661706
 30
0.0
  0
VERTEX
  8
0
 10
17.306369
 20
2.661706
 30
0.0
  0
SEQEND
  8
0
  0
POLYLINE
  8
0
 62
0
 70
0
 66
1
 10
0.0
 20
0.0
 30
0.0
  0
VERTEX
  8
0
 10
15.803467
 20
0.074081
 30
0.0
  0
VERTEX
  8
0
 10
15.451462
 20
0.074081
 30
0.0
  0
SEQEND
  8
0
  0
POLYLINE
  8
0
 62
0
 70
0
 66
1
 10
0.0
 20
0.0
 30
0.0
  0
VERTEX
  8
0
 10
15.099771
 20
0.074081
 30
0.0
  0
VERTEX
  8
0
 10
15.099771
 20
0.591506
 30
0.0
  0
SEQEND
  8
0
  0
POLYLINE
  8
0
 62
0
 70
0
 66
1
 10
0.0
 20
0.0
 30
0.0
  0
VERTEX
  8
0
 10
15.099771
 20
0.591506
 30
0.0
  0
VERTEX
  8
0
 10
15.099771
 20
1.10924
 30
0.0
  0
SEQEND
  8
0
  0
POLYLINE
  8
0
 62
0
 70
0
 66
1
 10
0.0
 20
0.0
 30
0.0
  0
VERTEX
  8
0
 10
16.155385
 20
0.074081
 30
0.0
  0
VERTEX
  8
0
 10
15.803467
 20
0.074081
 30
0.0
  0
SEQEND
  8
0
  0
POLYLINE
  8
0
 62
0
 70
0
 66
1
 10
0.0
 20
0.0
 30
0.0
  0
VERTEX
  8
0
 10
16.507422
 20
0.074081
 30
0.0
  0
VERTEX
  8
0
 10
16.155385
 20
0.074081
 30
0.0
  0
SEQEND
  8
0
  0
POLYLINE
  8
0
 62
0
 70
0
 66
1
 10
0.0
 20
0.0
 30
0.0
  0
VERTEX
  8
0
 10
16.85925
 20
0.074081
 30
0.0
  0
VERTEX
  8
0
 10
16.507422
 20
0.074081
 30
0.0
  0
SEQEND
  8
0
  0
POLYLINE
  8
0
 62
0
 70
0
 66
1
 10
0.0
 20
0.0
 30
0.0
  0
VERTEX
  8
0
 10
15.099771
 20
1.10924
 30
0.0
  0
VERTEX
  8
0
 10
15.099771
 20
1.626796
 30
0.0
  0
SEQEND
  8
0
  0
POLYLINE
  8
0
 62
0
 70
0
 66
1
 10
0.0
 20
0.0
 30
0.0
  0
VERTEX
  8
0
 10
15.451462
 20
0.074081
 30
0.0
  0
VERTEX
  8
0
 10
15.099771
 20
0.074081
 30
0.0
  0
SEQEND
  8
0
  0
POLYLINE
  8
0
 62
0
 70
0
 66
1
 10
0.0
 20
0.0
 30
0.0
  0
VERTEX
  8
0
 10
15.099771
 20
2.144481
 30
0.0
  0
VERTEX
  8
0
 10
15.099771
 20
2.661706
 30
0.0
  0
SEQEND
  8
0
  0
POLYLINE
  8
0
 62
0
 70
0
 66
1
 10
0.0
 20
0.0
 30
0.0
  0
VERTEX
  8
0
 10
17.306369
 20
2.661706
 30
0.0
  0
VERTEX
  8
0
 10
17.444008
 20
2.661706
 30
0.0
  0
SEQEND
  8
0
  0
POLYLINE
  8
0
 62
0
 70
0
 66
1
 10
0.0
 20
0.0
 30
0.0
  0
VERTEX
  8
0
 10
17.444008
 20
2.661706
 30
0.0
  0
VERTEX
  8
0
 10
17.581459
 20
2.661706
 30
0.0
  0
SEQEND
  8
0
  0
POLYLINE
  8
0
 62
0
 70
0
 66
1
 10
0.0
 20
0.0
 30
0.0
  0
VERTEX
  8
0
 10
17.581459
 20
2.661706
 30
0.0
  0
VERTEX
  8
0
 10
17.719148
 20
2.661706
 30
0.0
  0
SEQEND
  8
0
  0
POLYLINE
  8
0
 62
0
 70
0
 66
1
 10
0.0
 20
0.0
 30
0.0
  0
VERTEX
  8
0
 10
17.719148
 20
2.661706
 30
0.0
  0
VERTEX
  8
0
 10
17.856729
 20
2.661706
 30
0.0
  0
SEQEND
  8
0
  0
POLYLINE
  8
0
 62
0
 70
0
 66
1
 10
0.0
 20
0.0
 30
0.0
  0
VERTEX
  8
0
 10
17.856729
 20
2.144281
 30
0.0
  0
VERTEX
  8
0
 10
17.856729
 20
1.626547
 30
0.0
  0
SEQEND
  8
0
  0
POLYLINE
  8
0
 62
0
 70
0
 66
1
 10
0.0
 20
0.0
 30
0.0
  0
VERTEX
  8
0
 10
17.581534
 20
0.074081
 30
0.0
  0
VERTEX
  8
0
 10
17.444082
 20
0.074081
 30
0.0
  0
SEQEND
  8
0
  0
POLYLINE
  8
0
 62
0
 70
0
 66
1
 10
0.0
 20
0.0
 30
0.0
  0
VERTEX
  8
0
 10
17.856729
 20
0.074081
 30
0.0
  0
VERTEX
  8
0
 10
17.719172
 20
0.074081
 30
0.0
  0
SEQEND
  8
0
  0
POLYLINE
  8
0
 62
0
 70
0
 66
1
 10
0.0
 20
0.0
 30
0.0
  0
VERTEX
  8
0
 10
17.719172
 20
0.074081
 30
0.0
  0
VERTEX
  8
0
 10
17.581534
 20
0.074081
 30
0.0
  0
SEQEND
  8
0
  0
POLYLINE
  8
0
 62
0
 70
0
 66
1
 10
0.0
 20
0.0
 30
0.0
  0
VERTEX
  8
0
 10
17.856729
 20
1.626547
 30
0.0
  0
VERTEX
  8
0
 10
17.856729
 20
1.108991
 30
0.0
  0
SEQEND
  8
0
  0
POLYLINE
  8
0
 62
0
 70
0
 66
1
 10
0.0
 20
0.0
 30
0.0
  0
VERTEX
  8
0
 10
17.856729
 20
1.108991
 30
0.0
  0
VERTEX
  8
0
 10
17.856729
 20
0.591306
 30
0.0
  0
SEQEND
  8
0
  0
POLYLINE
  8
0
 62
0
 70
0
 66
1
 10
0.0
 20
0.0
 30
0.0
  0
VERTEX
  8
0
 10
17.856729
 20
0.591306
 30
0.0
  0
VERTEX
  8
0
 10
17.856729
 20
0.074081
 30
0.0
  0
SEQEND
  8
0
  0
POLYLINE
  8
0
 62
0
 70
0
 66
1
 10
0.0
 20
0.0
 30
0.0
  0
VERTEX
  8
0
 10
17.856729
 20
2.661706
 30
0.0
  0
VERTEX
  8
0
 10
17.856729
 20
2.144281
 30
0.0
  0
SEQEND
  8
0
  0
POLYLINE
  8
0
 62
0
 70
0
 66
1
 10
0.0
 20
0.0
 30
0.0
  0
VERTEX
  8
0
 10
17.444082
 20
0.074081
 30
0.0
  0
VERTEX
  8
0
 10
17.306394
 20
0.074081
 30
0.0
  0
SEQEND
  8
0
  0
POLYLINE
  8
0
 62
0
 70
0
 66
1
 10
0.0
 20
0.0
 30
0.0
  0
VERTEX
  8
0
 10
17.306394
 20
0.074081
 30
0.0
  0
VERTEX
  8
0
 10
17.168813
 20
0.074081
 30
0.0
  0
SEQEND
  8
0
  0
POLYLINE
  8
0
 62
0
 70
0
 66
1
 10
0.0
 20
0.0
 30
0.0
  0
VERTEX
  8
0
 10
17.168813
 20
0.074081
 30
0.0
  0
VERTEX
  8
0
 10
17.168813
 20
0.591506
 30
0.0
  0
SEQEND
  8
0
  0
POLYLINE
  8
0
 62
0
 70
0
 66
1
 10
0.0
 20
0.0
 30
0.0
  0
VERTEX
  8
0
 10
17.168813
 20
0.591506
 30
0.0
  0
VERTEX
  8
0
 10
17.168813
 20
1.10924
 30
0.0
  0
SEQEND
  8
0
  0
POLYLINE
  8
0
 62
0
 70
0
 66
1
 10
0.0
 20
0.0
 30
0.0
  0
VERTEX
  8
0
 10
17.168813
 20
1.10924
 30
0.0
  0
VERTEX
  8
0
 10
17.168813
 20
1.626796
 30
0.0
  0
SEQEND
  8
0
  0
POLYLINE
  8
0
 62
0
 70
0
 66
1
 10
0.0
 20
0.0
 30
0.0
  0
VERTEX
  8
0
 10
17.168813
 20
1.626796
 30
0.0
  0
VERTEX
  8
0
 10
17.168813
 20
2.144481
 30
0.0
  0
SEQEND
  8
0
  0
POLYLINE
  8
0
 62
0
 70
0
 66
1
 10
0.0
 20
0.0
 30
0.0
  0
VERTEX
  8
0
 10
17.168813
 20
2.144481
 30
0.0
  0
VERTEX
  8
0
 10
17.168813
 20
2.661706
 30
0.0
  0
SEQEND
  8
0
  0
POLYLINE
  8
0
 62
0
 70
0
 66
1
 10
0.0
 20
0.0
 30
0.0
  0
VERTEX
  8
0
 10
18.317596
 20
0.591506
 30
0.0
  0
VERTEX
  8
0
 10
18.513995
 20
1.10924
 30
0.0
  0
SEQEND
  8
0
  0
POLYLINE
  8
0
 62
0
 70
0
 66
1
 10
0.0
 20
0.0
 30
0.0
  0
VERTEX
  8
0
 10
18.710328
 20
1.626796
 30
0.0
  0
VERTEX
  8
0
 10
18.90671
 20
2.144481
 30
0.0
  0
SEQEND
  8
0
  0
POLYLINE
  8
0
 62
0
 70
0
 66
1
 10
0.0
 20
0.0
 30
0.0
  0
VERTEX
  8
0
 10
18.513995
 20
1.10924
 30
0.0
  0
VERTEX
  8
0
 10
18.710328
 20
1.626796
 30
0.0
  0
SEQEND
  8
0
  0
POLYLINE
  8
0
 62
0
 70
0
 66
1
 10
0.0
 20
0.0
 30
0.0
  0
VERTEX
  8
0
 10
18.121312
 20
0.074081
 30
0.0
  0
VERTEX
  8
0
 10
18.317596
 20
0.591506
 30
0.0
  0
SEQEND
  8
0
  0
POLYLINE
  8
0
 62
0
 70
0
 66
1
 10
0.0
 20
0.0
 30
0.0
  0
VERTEX
  8
0
 10
18.90671
 20
2.144481
 30
0.0
  0
VERTEX
  8
0
 10
19.102917
 20
2.661706
 30
0.0
  0
SEQEND
  8
0
  0
POLYLINE
  8
0
 62
0
 70
0
 66
1
 10
0.0
 20
0.0
 30
0.0
  0
VERTEX
  8
0
 10
19.946938
 20
2.661706
 30
0.0
  0
VERTEX
  8
0
 10
20.147453
 20
2.144281
 30
0.0
  0
SEQEND
  8
0
  0
POLYLINE
  8
0
 62
0
 70
0
 66
1
 10
0.0
 20
0.0
 30
0.0
  0
VERTEX
  8
0
 10
20.348088
 20
1.626547
 30
0.0
  0
VERTEX
  8
0
 10
20.548654
 20
1.108991
 30
0.0
  0
SEQEND
  8
0
  0
POLYLINE
  8
0
 62
0
 70
0
 66
1
 10
0.0
 20
0.0
 30
0.0
  0
VERTEX
  8
0
 10
19.609203
 20
2.661706
 30
0.0
  0
VERTEX
  8
0
 10
19.778136
 20
2.661706
 30
0.0
  0
SEQEND
  8
0
  0
POLYLINE
  8
0
 62
0
 70
0
 66
1
 10
0.0
 20
0.0
 30
0.0
  0
VERTEX
  8
0
 10
19.778136
 20
2.661706
 30
0.0
  0
VERTEX
  8
0
 10
19.946938
 20
2.661706
 30
0.0
  0
SEQEND
  8
0
  0
POLYLINE
  8
0
 62
0
 70
0
 66
1
 10
0.0
 20
0.0
 30
0.0
  0
VERTEX
  8
0
 10
20.147453
 20
2.144281
 30
0.0
  0
VERTEX
  8
0
 10
20.348088
 20
1.626547
 30
0.0
  0
SEQEND
  8
0
  0
POLYLINE
  8
0
 62
0
 70
0
 66
1
 10
0.0
 20
0.0
 30
0.0
  0
VERTEX
  8
0
 10
20.749271
 20
0.591306
 30
0.0
  0
VERTEX
  8
0
 10
20.949708
 20
0.074081
 30
0.0
  0
SEQEND
  8
0
  0
POLYLINE
  8
0
 62
0
 70
0
 66
1
 10
0.0
 20
0.0
 30
0.0
  0
VERTEX
  8
0
 10
20.949708
 20
0.074081
 30
0.0
  0
VERTEX
  8
0
 10
20.797867
 20
0.074081
 30
0.0
  0
SEQEND
  8
0
  0
POLYLINE
  8
0
 62
0
 70
0
 66
1
 10
0.0
 20
0.0
 30
0.0
  0
VERTEX
  8
0
 10
20.797867
 20
0.074081
 30
0.0
  0
VERTEX
  8
0
 10
20.645935
 20
0.074081
 30
0.0
  0
SEQEND
  8
0
  0
POLYLINE
  8
0
 62
0
 70
0
 66
1
 10
0.0
 20
0.0
 30
0.0
  0
VERTEX
  8
0
 10
19.44056
 20
2.661706
 30
0.0
  0
VERTEX
  8
0
 10
19.609203
 20
2.661706
 30
0.0
  0
SEQEND
  8
0
  0
POLYLINE
  8
0
 62
0
 70
0
 66
1
 10
0.0
 20
0.0
 30
0.0
  0
VERTEX
  8
0
 10
19.271688
 20
2.661706
 30
0.0
  0
VERTEX
  8
0
 10
19.44056
 20
2.661706
 30
0.0
  0
SEQEND
  8
0
  0
POLYLINE
  8
0
 62
0
 70
0
 66
1
 10
0.0
 20
0.0
 30
0.0
  0
VERTEX
  8
0
 10
19.102917
 20
2.661706
 30
0.0
  0
VERTEX
  8
0
 10
19.271688
 20
2.661706
 30
0.0
  0
SEQEND
  8
0
  0
POLYLINE
  8
0
 62
0
 70
0
 66
1
 10
0.0
 20
0.0
 30
0.0
  0
VERTEX
  8
0
 10
20.548654
 20
1.108991
 30
0.0
  0
VERTEX
  8
0
 10
20.749271
 20
0.591306
 30
0.0
  0
SEQEND
  8
0
  0
POLYLINE
  8
0
 62
0
 70
0
 66
1
 10
0.0
 20
0.0
 30
0.0
  0
VERTEX
  8
0
 10
20.074571
 20
0.403983
 30
0.0
  0
VERTEX
  8
0
 10
20.035879
 20
0.51423
 30
0.0
  0
SEQEND
  8
0
  0
POLYLINE
  8
0
 62
0
 70
0
 66
1
 10
0.0
 20
0.0
 30
0.0
  0
VERTEX
  8
0
 10
19.803042
 20
0.624414
 30
0.0
  0
VERTEX
  8
0
 10
19.608759
 20
0.624414
 30
0.0
  0
SEQEND
  8
0
  0
POLYLINE
  8
0
 62
0
 70
0
 66
1
 10
0.0
 20
0.0
 30
0.0
  0
VERTEX
  8
0
 10
20.113187
 20
0.293955
 30
0.0
  0
VERTEX
  8
0
 10
20.074571
 20
0.403983
 30
0.0
  0
SEQEND
  8
0
  0
POLYLINE
  8
0
 62
0
 70
0
 66
1
 10
0.0
 20
0.0
 30
0.0
  0
VERTEX
  8
0
 10
20.645935
 20
0.074081
 30
0.0
  0
VERTEX
  8
0
 10
20.49421
 20
0.074081
 30
0.0
  0
SEQEND
  8
0
  0
POLYLINE
  8
0
 62
0
 70
0
 66
1
 10
0.0
 20
0.0
 30
0.0
  0
VERTEX
  8
0
 10
20.342222
 20
0.074081
 30
0.0
  0
VERTEX
  8
0
 10
20.190354
 20
0.074081
 30
0.0
  0
SEQEND
  8
0
  0
POLYLINE
  8
0
 62
0
 70
0
 66
1
 10
0.0
 20
0.0
 30
0.0
  0
VERTEX
  8
0
 10
20.190354
 20
0.074081
 30
0.0
  0
VERTEX
  8
0
 10
20.151732
 20
0.184126
 30
0.0
  0
SEQEND
  8
0
  0
POLYLINE
  8
0
 62
0
 70
0
 66
1
 10
0.0
 20
0.0
 30
0.0
  0
VERTEX
  8
0
 10
20.151732
 20
0.184126
 30
0.0
  0
VERTEX
  8
0
 10
20.113187
 20
0.293955
 30
0.0
  0
SEQEND
  8
0
  0
POLYLINE
  8
0
 62
0
 70
0
 66
1
 10
0.0
 20
0.0
 30
0.0
  0
VERTEX
  8
0
 10
20.49421
 20
0.074081
 30
0.0
  0
VERTEX
  8
0
 10
20.342222
 20
0.074081
 30
0.0
  0
SEQEND
  8
0
  0
POLYLINE
  8
0
 62
0
 70
0
 66
1
 10
0.0
 20
0.0
 30
0.0
  0
VERTEX
  8
0
 10
20.035879
 20
0.51423
 30
0.0
  0
VERTEX
  8
0
 10
19.997208
 20
0.624414
 30
0.0
  0
SEQEND
  8
0
  0
POLYLINE
  8
0
 62
0
 70
0
 66
1
 10
0.0
 20
0.0
 30
0.0
  0
VERTEX
  8
0
 10
19.997208
 20
0.624414
 30
0.0
  0
VERTEX
  8
0
 10
19.803042
 20
0.624414
 30
0.0
  0
SEQEND
  8
0
  0
POLYLINE
  8
0
 62
0
 70
0
 66
1
 10
0.0
 20
0.0
 30
0.0
  0
VERTEX
  8
0
 10
19.414741
 20
0.624414
 30
0.0
  0
VERTEX
  8
0
 10
19.220388
 20
0.624414
 30
0.0
  0
SEQEND
  8
0
  0
POLYLINE
  8
0
 62
0
 70
0
 66
1
 10
0.0
 20
0.0
 30
0.0
  0
VERTEX
  8
0
 10
19.608759
 20
0.624414
 30
0.0
  0
VERTEX
  8
0
 10
19.414741
 20
0.624414
 30
0.0
  0
SEQEND
  8
0
  0
POLYLINE
  8
0
 62
0
 70
0
 66
1
 10
0.0
 20
0.0
 30
0.0
  0
VERTEX
  8
0
 10
18.90406
 20
0.294512
 30
0.0
  0
VERTEX
  8
0
 10
18.863248
 20
0.184265
 30
0.0
  0
SEQEND
  8
0
  0
POLYLINE
  8
0
 62
0
 70
0
 66
1
 10
0.0
 20
0.0
 30
0.0
  0
VERTEX
  8
0
 10
18.541971
 20
0.074081
 30
0.0
  0
VERTEX
  8
0
 10
18.401876
 20
0.074081
 30
0.0
  0
SEQEND
  8
0
  0
POLYLINE
  8
0
 62
0
 70
0
 66
1
 10
0.0
 20
0.0
 30
0.0
  0
VERTEX
  8
0
 10
18.261539
 20
0.074081
 30
0.0
  0
VERTEX
  8
0
 10
18.121312
 20
0.074081
 30
0.0
  0
SEQEND
  8
0
  0
POLYLINE
  8
0
 62
0
 70
0
 66
1
 10
0.0
 20
0.0
 30
0.0
  0
VERTEX
  8
0
 10
19.026187
 20
0.624414
 30
0.0
  0
VERTEX
  8
0
 10
18.98545
 20
0.514369
 30
0.0
  0
SEQEND
  8
0
  0
POLYLINE
  8
0
 62
0
 70
0
 66
1
 10
0.0
 20
0.0
 30
0.0
  0
VERTEX
  8
0
 10
18.98545
 20
0.514369
 30
0.0
  0
VERTEX
  8
0
 10
18.944792
 20
0.40454
 30
0.0
  0
SEQEND
  8
0
  0
POLYLINE
  8
0
 62
0
 70
0
 66
1
 10
0.0
 20
0.0
 30
0.0
  0
VERTEX
  8
0
 10
18.863248
 20
0.184265
 30
0.0
  0
VERTEX
  8
0
 10
18.822458
 20
0.074081
 30
0.0
  0
SEQEND
  8
0
  0
POLYLINE
  8
0
 62
0
 70
0
 66
1
 10
0.0
 20
0.0
 30
0.0
  0
VERTEX
  8
0
 10
18.822458
 20
0.074081
 30
0.0
  0
VERTEX
  8
0
 10
18.682256
 20
0.074081
 30
0.0
  0
SEQEND
  8
0
  0
POLYLINE
  8
0
 62
0
 70
0
 66
1
 10
0.0
 20
0.0
 30
0.0
  0
VERTEX
  8
0
 10
18.944792
 20
0.40454
 30
0.0
  0
VERTEX
  8
0
 10
18.90406
 20
0.294512
 30
0.0
  0
SEQEND
  8
0
  0
POLYLINE
  8
0
 62
0
 70
0
 66
1
 10
0.0
 20
0.0
 30
0.0
  0
VERTEX
  8
0
 10
18.682256
 20
0.074081
 30
0.0
  0
VERTEX
  8
0
 10
18.541971
 20
0.074081
 30
0.0
  0
SEQEND
  8
0
  0
POLYLINE
  8
0
 62
0
 70
0
 66
1
 10
0.0
 20
0.0
 30
0.0
  0
VERTEX
  8
0
 10
18.401876
 20
0.074081
 30
0.0
  0
VERTEX
  8
0
 10
18.261539
 20
0.074081
 30
0.0
  0
SEQEND
  8
0
  0
POLYLINE
  8
0
 62
0
 70
0
 66
1
 10
0.0
 20
0.0
 30
0.0
  0
VERTEX
  8
0
 10
19.84375
 20
1.113894
 30
0.0
  0
VERTEX
  8
0
 10
19.78132
 20
1.317054
 30
0.0
  0
SEQEND
  8
0
  0
POLYLINE
  8
0
 62
0
 70
0
 66
1
 10
0.0
 20
0.0
 30
0.0
  0
VERTEX
  8
0
 10
19.220388
 20
0.624414
 30
0.0
  0
VERTEX
  8
0
 10
19.026187
 20
0.624414
 30
0.0
  0
SEQEND
  8
0
  0
POLYLINE
  8
0
 62
0
 70
0
 66
1
 10
0.0
 20
0.0
 30
0.0
  0
VERTEX
  8
0
 10
19.78132
 20
1.317054
 30
0.0
  0
VERTEX
  8
0
 10
19.718854
 20
1.520336
 30
0.0
  0
SEQEND
  8
0
  0
POLYLINE
  8
0
 62
0
 70
0
 66
1
 10
0.0
 20
0.0
 30
0.0
  0
VERTEX
  8
0
 10
19.531542
 20
2.129894
 30
0.0
  0
VERTEX
  8
0
 10
19.463821
 20
1.926733
 30
0.0
  0
SEQEND
  8
0
  0
POLYLINE
  8
0
 62
0
 70
0
 66
1
 10
0.0
 20
0.0
 30
0.0
  0
VERTEX
  8
0
 10
19.463821
 20
1.926733
 30
0.0
  0
VERTEX
  8
0
 10
19.396061
 20
1.723451
 30
0.0
  0
SEQEND
  8
0
  0
POLYLINE
  8
0
 62
0
 70
0
 66
1
 10
0.0
 20
0.0
 30
0.0
  0
VERTEX
  8
0
 10
19.593982
 20
1.926697
 30
0.0
  0
VERTEX
  8
0
 10
19.531542
 20
2.129894
 30
0.0
  0
SEQEND
  8
0
  0
POLYLINE
  8
0
 62
0
 70
0
 66
1
 10
0.0
 20
0.0
 30
0.0
  0
VERTEX
  8
0
 10
19.192875
 20
1.113894
 30
0.0
  0
VERTEX
  8
0
 10
19.323025
 20
1.113894
 30
0.0
  0
SEQEND
  8
0
  0
POLYLINE
  8
0
 62
0
 70
0
 66
1
 10
0.0
 20
0.0
 30
0.0
  0
VERTEX
  8
0
 10
19.260607
 20
1.31709
 30
0.0
  0
VERTEX
  8
0
 10
19.192875
 20
1.113894
 30
0.0
  0
SEQEND
  8
0
  0
POLYLINE
  8
0
 62
0
 70
0
 66
1
 10
0.0
 20
0.0
 30
0.0
  0
VERTEX
  8
0
 10
19.656472
 20
1.723341
 30
0.0
  0
VERTEX
  8
0
 10
19.593982
 20
1.926697
 30
0.0
  0
SEQEND
  8
0
  0
POLYLINE
  8
0
 62
0
 70
0
 66
1
 10
0.0
 20
0.0
 30
0.0
  0
VERTEX
  8
0
 10
19.718854
 20
1.520336
 30
0.0
  0
VERTEX
  8
0
 10
19.656472
 20
1.723341
 30
0.0
  0
SEQEND
  8
0
  0
POLYLINE
  8
0
 62
0
 70
0
 66
1
 10
0.0
 20
0.0
 30
0.0
  0
VERTEX
  8
0
 10
19.396061
 20
1.723451
 30
0.0
  0
VERTEX
  8
0
 10
19.328392
 20
1.520446
 30
0.0
  0
SEQEND
  8
0
  0
POLYLINE
  8
0
 62
0
 70
0
 66
1
 10
0.0
 20
0.0
 30
0.0
  0
VERTEX
  8
0
 10
19.328392
 20
1.520446
 30
0.0
  0
VERTEX
  8
0
 10
19.260607
 20
1.31709
 30
0.0
  0
SEQEND
  8
0
  0
POLYLINE
  8
0
 62
0
 70
0
 66
1
 10
0.0
 20
0.0
 30
0.0
  0
VERTEX
  8
0
 10
19.453252
 20
1.113894
 30
0.0
  0
VERTEX
  8
0
 10
19.583302
 20
1.113894
 30
0.0
  0
SEQEND
  8
0
  0
POLYLINE
  8
0
 62
0
 70
0
 66
1
 10
0.0
 20
0.0
 30
0.0
  0
VERTEX
  8
0
 10
19.323025
 20
1.113894
 30
0.0
  0
VERTEX
  8
0
 10
19.453252
 20
1.113894
 30
0.0
  0
SEQEND
  8
0
  0
POLYLINE
  8
0
 62
0
 70
0
 66
1
 10
0.0
 20
0.0
 30
0.0
  0
VERTEX
  8
0
 10
22.24772
 20
2.309878
 30
0.0
  0
VERTEX
  8
0
 10
22.424004
 20
1.957841
 30
0.0
  0
SEQEND
  8
0
  0
POLYLINE
  8
0
 62
0
 70
0
 66
1
 10
0.0
 20
0.0
 30
0.0
  0
VERTEX
  8
0
 10
22.600227
 20
1.605923
 30
0.0
  0
VERTEX
  8
0
 10
22.776494
 20
1.253918
 30
0.0
  0
SEQEND
  8
0
  0
POLYLINE
  8
0
 62
0
 70
0
 66
1
 10
0.0
 20
0.0
 30
0.0
  0
VERTEX
  8
0
 10
21.193125
 20
2.661706
 30
0.0
  0
VERTEX
  8
0
 10
21.368775
 20
2.661706
 30
0.0
  0
SEQEND
  8
0
  0
POLYLINE
  8
0
 62
0
 70
0
 66
1
 10
0.0
 20
0.0
 30
0.0
  0
VERTEX
  8
0
 10
22.424004
 20
1.957841
 30
0.0
  0
VERTEX
  8
0
 10
22.600227
 20
1.605923
 30
0.0
  0
SEQEND
  8
0
  0
POLYLINE
  8
0
 62
0
 70
0
 66
1
 10
0.0
 20
0.0
 30
0.0
  0
VERTEX
  8
0
 10
22.776494
 20
1.253918
 30
0.0
  0
VERTEX
  8
0
 10
22.952604
 20
0.902227
 30
0.0
  0
SEQEND
  8
0
  0
POLYLINE
  8
0
 62
0
 70
0
 66
1
 10
0.0
 20
0.0
 30
0.0
  0
VERTEX
  8
0
 10
22.071542
 20
2.661706
 30
0.0
  0
VERTEX
  8
0
 10
22.24772
 20
2.309878
 30
0.0
  0
SEQEND
  8
0
  0
POLYLINE
  8
0
 62
0
 70
0
 66
1
 10
0.0
 20
0.0
 30
0.0
  0
VERTEX
  8
0
 10
19.713577
 20
1.113894
 30
0.0
  0
VERTEX
  8
0
 10
19.84375
 20
1.113894
 30
0.0
  0
SEQEND
  8
0
  0
POLYLINE
  8
0
 62
0
 70
0
 66
1
 10
0.0
 20
0.0
 30
0.0
  0
VERTEX
  8
0
 10
19.583302
 20
1.113894
 30
0.0
  0
VERTEX
  8
0
 10
19.713577
 20
1.113894
 30
0.0
  0
SEQEND
  8
0
  0
POLYLINE
  8
0
 62
0
 70
0
 66
1
 10
0.0
 20
0.0
 30
0.0
  0
VERTEX
  8
0
 10
21.544529
 20
2.661706
 30
0.0
  0
VERTEX
  8
0
 10
21.720043
 20
2.661706
 30
0.0
  0
SEQEND
  8
0
  0
POLYLINE
  8
0
 62
0
 70
0
 66
1
 10
0.0
 20
0.0
 30
0.0
  0
VERTEX
  8
0
 10
21.720043
 20
2.661706
 30
0.0
  0
VERTEX
  8
0
 10
21.895861
 20
2.661706
 30
0.0
  0
SEQEND
  8
0
  0
POLYLINE
  8
0
 62
0
 70
0
 66
1
 10
0.0
 20
0.0
 30
0.0
  0
VERTEX
  8
0
 10
21.895861
 20
2.661706
 30
0.0
  0
VERTEX
  8
0
 10
22.071542
 20
2.661706
 30
0.0
  0
SEQEND
  8
0
  0
POLYLINE
  8
0
 62
0
 70
0
 66
1
 10
0.0
 20
0.0
 30
0.0
  0
VERTEX
  8
0
 10
21.368775
 20
2.661706
 30
0.0
  0
VERTEX
  8
0
 10
21.544529
 20
2.661706
 30
0.0
  0
SEQEND
  8
0
  0
POLYLINE
  8
0
 62
0
 70
0
 66
1
 10
0.0
 20
0.0
 30
0.0
  0
VERTEX
  8
0
 10
23.574375
 20
2.144281
 30
0.0
  0
VERTEX
  8
0
 10
23.574375
 20
1.626547
 30
0.0
  0
SEQEND
  8
0
  0
POLYLINE
  8
0
 62
0
 70
0
 66
1
 10
0.0
 20
0.0
 30
0.0
  0
VERTEX
  8
0
 10
23.196576
 20
2.661706
 30
0.0
  0
VERTEX
  8
0
 10
23.322397
 20
2.661706
 30
0.0
  0
SEQEND
  8
0
  0
POLYLINE
  8
0
 62
0
 70
0
 66
1
 10
0.0
 20
0.0
 30
0.0
  0
VERTEX
  8
0
 10
22.949429
 20
1.606092
 30
0.0
  0
VERTEX
  8
0
 10
22.947841
 20
1.958009
 30
0.0
  0
SEQEND
  8
0
  0
POLYLINE
  8
0
 62
0
 70
0
 66
1
 10
0.0
 20
0.0
 30
0.0
  0
VERTEX
  8
0
 10
22.946253
 20
2.310014
 30
0.0
  0
VERTEX
  8
0
 10
22.944667
 20
2.661706
 30
0.0
  0
SEQEND
  8
0
  0
POLYLINE
  8
0
 62
0
 70
0
 66
1
 10
0.0
 20
0.0
 30
0.0
  0
VERTEX
  8
0
 10
22.944667
 20
2.661706
 30
0.0
  0
VERTEX
  8
0
 10
23.070584
 20
2.661706
 30
0.0
  0
SEQEND
  8
0
  0
POLYLINE
  8
0
 62
0
 70
0
 66
1
 10
0.0
 20
0.0
 30
0.0
  0
VERTEX
  8
0
 10
23.322397
 20
2.661706
 30
0.0
  0
VERTEX
  8
0
 10
23.448435
 20
2.661706
 30
0.0
  0
SEQEND
  8
0
  0
POLYLINE
  8
0
 62
0
 70
0
 66
1
 10
0.0
 20
0.0
 30
0.0
  0
VERTEX
  8
0
 10
23.448435
 20
2.661706
 30
0.0
  0
VERTEX
  8
0
 10
23.574375
 20
2.661706
 30
0.0
  0
SEQEND
  8
0
  0
POLYLINE
  8
0
 62
0
 70
0
 66
1
 10
0.0
 20
0.0
 30
0.0
  0
VERTEX
  8
0
 10
23.070584
 20
2.661706
 30
0.0
  0
VERTEX
  8
0
 10
23.196576
 20
2.661706
 30
0.0
  0
SEQEND
  8
0
  0
POLYLINE
  8
0
 62
0
 70
0
 66
1
 10
0.0
 20
0.0
 30
0.0
  0
VERTEX
  8
0
 10
22.952604
 20
0.902227
 30
0.0
  0
VERTEX
  8
0
 10
22.951017
 20
1.254055
 30
0.0
  0
SEQEND
  8
0
  0
POLYLINE
  8
0
 62
0
 70
0
 66
1
 10
0.0
 20
0.0
 30
0.0
  0
VERTEX
  8
0
 10
22.951017
 20
1.254055
 30
0.0
  0
VERTEX
  8
0
 10
22.949429
 20
1.606092
 30
0.0
  0
SEQEND
  8
0
  0
POLYLINE
  8
0
 62
0
 70
0
 66
1
 10
0.0
 20
0.0
 30
0.0
  0
VERTEX
  8
0
 10
22.947841
 20
1.958009
 30
0.0
  0
VERTEX
  8
0
 10
22.946253
 20
2.310014
 30
0.0
  0
SEQEND
  8
0
  0
POLYLINE
  8
0
 62
0
 70
0
 66
1
 10
0.0
 20
0.0
 30
0.0
  0
VERTEX
  8
0
 10
23.574375
 20
2.661706
 30
0.0
  0
VERTEX
  8
0
 10
23.574375
 20
2.144281
 30
0.0
  0
SEQEND
  8
0
  0
POLYLINE
  8
0
 62
0
 70
0
 66
1
 10
0.0
 20
0.0
 30
0.0
  0
VERTEX
  8
0
 10
22.717125
 20
0.074081
 30
0.0
  0
VERTEX
  8
0
 10
22.535127
 20
0.428025
 30
0.0
  0
SEQEND
  8
0
  0
POLYLINE
  8
0
 62
0
 70
0
 66
1
 10
0.0
 20
0.0
 30
0.0
  0
VERTEX
  8
0
 10
23.574375
 20
1.108991
 30
0.0
  0
VERTEX
  8
0
 10
23.574375
 20
0.591306
 30
0.0
  0
SEQEND
  8
0
  0
POLYLINE
  8
0
 62
0
 70
0
 66
1
 10
0.0
 20
0.0
 30
0.0
  0
VERTEX
  8
0
 10
23.574375
 20
1.626547
 30
0.0
  0
VERTEX
  8
0
 10
23.574375
 20
1.108991
 30
0.0
  0
SEQEND
  8
0
  0
POLYLINE
  8
0
 62
0
 70
0
 66
1
 10
0.0
 20
0.0
 30
0.0
  0
VERTEX
  8
0
 10
23.402958
 20
0.074081
 30
0.0
  0
VERTEX
  8
0
 10
23.231439
 20
0.074081
 30
0.0
  0
SEQEND
  8
0
  0
POLYLINE
  8
0
 62
0
 70
0
 66
1
 10
0.0
 20
0.0
 30
0.0
  0
VERTEX
  8
0
 10
23.574375
 20
0.591306
 30
0.0
  0
VERTEX
  8
0
 10
23.574375
 20
0.074081
 30
0.0
  0
SEQEND
  8
0
  0
POLYLINE
  8
0
 62
0
 70
0
 66
1
 10
0.0
 20
0.0
 30
0.0
  0
VERTEX
  8
0
 10
22.35302
 20
0.78218
 30
0.0
  0
VERTEX
  8
0
 10
22.170976
 20
1.136214
 30
0.0
  0
SEQEND
  8
0
  0
POLYLINE
  8
0
 62
0
 70
0
 66
1
 10
0.0
 20
0.0
 30
0.0
  0
VERTEX
  8
0
 10
22.535127
 20
0.428025
 30
0.0
  0
VERTEX
  8
0
 10
22.35302
 20
0.78218
 30
0.0
  0
SEQEND
  8
0
  0
POLYLINE
  8
0
 62
0
 70
0
 66
1
 10
0.0
 20
0.0
 30
0.0
  0
VERTEX
  8
0
 10
23.060154
 20
0.074081
 30
0.0
  0
VERTEX
  8
0
 10
22.888572
 20
0.074081
 30
0.0
  0
SEQEND
  8
0
  0
POLYLINE
  8
0
 62
0
 70
0
 66
1
 10
0.0
 20
0.0
 30
0.0
  0
VERTEX
  8
0
 10
23.574375
 20
0.074081
 30
0.0
  0
VERTEX
  8
0
 10
23.402958
 20
0.074081
 30
0.0
  0
SEQEND
  8
0
  0
POLYLINE
  8
0
 62
0
 70
0
 66
1
 10
0.0
 20
0.0
 30
0.0
  0
VERTEX
  8
0
 10
22.888572
 20
0.074081
 30
0.0
  0
VERTEX
  8
0
 10
22.717125
 20
0.074081
 30
0.0
  0
SEQEND
  8
0
  0
POLYLINE
  8
0
 62
0
 70
0
 66
1
 10
0.0
 20
0.0
 30
0.0
  0
VERTEX
  8
0
 10
23.231439
 20
0.074081
 30
0.0
  0
VERTEX
  8
0
 10
23.060154
 20
0.074081
 30
0.0
  0
SEQEND
  8
0
  0
POLYLINE
  8
0
 62
0
 70
0
 66
1
 10
0.0
 20
0.0
 30
0.0
  0
VERTEX
  8
0
 10
22.170976
 20
1.136214
 30
0.0
  0
VERTEX
  8
0
 10
21.988886
 20
1.490336
 30
0.0
  0
SEQEND
  8
0
  0
POLYLINE
  8
0
 62
0
 70
0
 66
1
 10
0.0
 20
0.0
 30
0.0
  0
VERTEX
  8
0
 10
21.574098
 20
0.074081
 30
0.0
  0
VERTEX
  8
0
 10
21.44722
 20
0.074081
 30
0.0
  0
SEQEND
  8
0
  0
POLYLINE
  8
0
 62
0
 70
0
 66
1
 10
0.0
 20
0.0
 30
0.0
  0
VERTEX
  8
0
 10
21.701149
 20
0.074081
 30
0.0
  0
VERTEX
  8
0
 10
21.574098
 20
0.074081
 30
0.0
  0
SEQEND
  8
0
  0
POLYLINE
  8
0
 62
0
 70
0
 66
1
 10
0.0
 20
0.0
 30
0.0
  0
VERTEX
  8
0
 10
21.811191
 20
1.490199
 30
0.0
  0
VERTEX
  8
0
 10
21.815426
 20
1.136044
 30
0.0
  0
SEQEND
  8
0
  0
POLYLINE
  8
0
 62
0
 70
0
 66
1
 10
0.0
 20
0.0
 30
0.0
  0
VERTEX
  8
0
 10
21.815426
 20
1.136044
 30
0.0
  0
VERTEX
  8
0
 10
21.819659
 20
0.78201
 30
0.0
  0
SEQEND
  8
0
  0
POLYLINE
  8
0
 62
0
 70
0
 66
1
 10
0.0
 20
0.0
 30
0.0
  0
VERTEX
  8
0
 10
21.988886
 20
1.490336
 30
0.0
  0
VERTEX
  8
0
 10
21.806958
 20
1.844144
 30
0.0
  0
SEQEND
  8
0
  0
POLYLINE
  8
0
 62
0
 70
0
 66
1
 10
0.0
 20
0.0
 30
0.0
  0
VERTEX
  8
0
 10
21.819659
 20
0.78201
 30
0.0
  0
VERTEX
  8
0
 10
21.823894
 20
0.427888
 30
0.0
  0
SEQEND
  8
0
  0
POLYLINE
  8
0
 62
0
 70
0
 66
1
 10
0.0
 20
0.0
 30
0.0
  0
VERTEX
  8
0
 10
21.320123
 20
0.074081
 30
0.0
  0
VERTEX
  8
0
 10
21.193125
 20
0.074081
 30
0.0
  0
SEQEND
  8
0
  0
POLYLINE
  8
0
 62
0
 70
0
 66
1
 10
0.0
 20
0.0
 30
0.0
  0
VERTEX
  8
0
 10
21.806958
 20
1.844144
 30
0.0
  0
VERTEX
  8
0
 10
21.811191
 20
1.490199
 30
0.0
  0
SEQEND
  8
0
  0
POLYLINE
  8
0
 62
0
 70
0
 66
1
 10
0.0
 20
0.0
 30
0.0
  0
VERTEX
  8
0
 10
21.823894
 20
0.427888
 30
0.0
  0
VERTEX
  8
0
 10
21.828125
 20
0.074081
 30
0.0
  0
SEQEND
  8
0
  0
POLYLINE
  8
0
 62
0
 70
0
 66
1
 10
0.0
 20
0.0
 30
0.0
  0
VERTEX
  8
0
 10
21.828125
 20
0.074081
 30
0.0
  0
VERTEX
  8
0
 10
21.701149
 20
0.074081
 30
0.0
  0
SEQEND
  8
0
  0
POLYLINE
  8
0
 62
0
 70
0
 66
1
 10
0.0
 20
0.0
 30
0.0
  0
VERTEX
  8
0
 10
21.44722
 20
0.074081
 30
0.0
  0
VERTEX
  8
0
 10
21.320123
 20
0.074081
 30
0.0
  0
SEQEND
  8
0
  0
POLYLINE
  8
0
 62
0
 70
0
 66
1
 10
0.0
 20
0.0
 30
0.0
  0
VERTEX
  8
0
 10
21.193125
 20
0.074081
 30
0.0
  0
VERTEX
  8
0
 10
21.193125
 20
0.591506
 30
0.0
  0
SEQEND
  8
0
  0
POLYLINE
  8
0
 62
0
 70
0
 66
1
 10
0.0
 20
0.0
 30
0.0
  0
VERTEX
  8
0
 10
21.193125
 20
2.144481
 30
0.0
  0
VERTEX
  8
0
 10
21.193125
 20
2.661706
 30
0.0
  0
SEQEND
  8
0
  0
POLYLINE
  8
0
 62
0
 70
0
 66
1
 10
0.0
 20
0.0
 30
0.0
  0
VERTEX
  8
0
 10
25.800945
 20
2.661706
 30
0.0
  0
VERTEX
  8
0
 10
26.018599
 20
2.661706
 30
0.0
  0
SEQEND
  8
0
  0
POLYLINE
  8
0
 62
0
 70
0
 66
1
 10
0.0
 20
0.0
 30
0.0
  0
VERTEX
  8
0
 10
21.193125
 20
0.591506
 30
0.0
  0
VERTEX
  8
0
 10
21.193125
 20
1.10924
 30
0.0
  0
SEQEND
  8
0
  0
POLYLINE
  8
0
 62
0
 70
0
 66
1
 10
0.0
 20
0.0
 30
0.0
  0
VERTEX
  8
0
 10
21.193125
 20
1.10924
 30
0.0
  0
VERTEX
  8
0
 10
21.193125
 20
1.626796
 30
0.0
  0
SEQEND
  8
0
  0
POLYLINE
  8
0
 62
0
 70
0
 66
1
 10
0.0
 20
0.0
 30
0.0
  0
VERTEX
  8
0
 10
21.193125
 20
1.626796
 30
0.0
  0
VERTEX
  8
0
 10
21.193125
 20
2.144481
 30
0.0
  0
SEQEND
  8
0
  0
POLYLINE
  8
0
 62
0
 70
0
 66
1
 10
0.0
 20
0.0
 30
0.0
  0
VERTEX
  8
0
 10
25.148646
 20
2.661706
 30
0.0
  0
VERTEX
  8
0
 10
25.366091
 20
2.661706
 30
0.0
  0
SEQEND
  8
0
  0
POLYLINE
  8
0
 62
0
 70
0
 66
1
 10
0.0
 20
0.0
 30
0.0
  0
VERTEX
  8
0
 10
25.366091
 20
2.661706
 30
0.0
  0
VERTEX
  8
0
 10
25.583666
 20
2.661706
 30
0.0
  0
SEQEND
  8
0
  0
POLYLINE
  8
0
 62
0
 70
0
 66
1
 10
0.0
 20
0.0
 30
0.0
  0
VERTEX
  8
0
 10
25.583666
 20
2.661706
 30
0.0
  0
VERTEX
  8
0
 10
25.800945
 20
2.661706
 30
0.0
  0
SEQEND
  8
0
  0
POLYLINE
  8
0
 62
0
 70
0
 66
1
 10
0.0
 20
0.0
 30
0.0
  0
VERTEX
  8
0
 10
26.018599
 20
2.661706
 30
0.0
  0
VERTEX
  8
0
 10
26.236083
 20
2.661706
 30
0.0
  0
SEQEND
  8
0
  0
POLYLINE
  8
0
 62
0
 70
0
 66
1
 10
0.0
 20
0.0
 30
0.0
  0
VERTEX
  8
0
 10
26.236083
 20
2.661706
 30
0.0
  0
VERTEX
  8
0
 10
26.346658
 20
2.317285
 30
0.0
  0
SEQEND
  8
0
  0
POLYLINE
  8
0
 62
0
 70
0
 66
1
 10
0.0
 20
0.0
 30
0.0
  0
VERTEX
  8
0
 10
26.346658
 20
2.317285
 30
0.0
  0
VERTEX
  8
0
 10
26.457298
 20
1.972659
 30
0.0
  0
SEQEND
  8
0
  0
POLYLINE
  8
0
 62
0
 70
0
 66
1
 10
0.0
 20
0.0
 30
0.0
  0
VERTEX
  8
0
 10
26.457298
 20
1.972659
 30
0.0
  0
VERTEX
  8
0
 10
26.567901
 20
1.62815
 30
0.0
  0
SEQEND
  8
0
  0
POLYLINE
  8
0
 62
0
 70
0
 66
1
 10
0.0
 20
0.0
 30
0.0
  0
VERTEX
  8
0
 10
26.567901
 20
1.62815
 30
0.0
  0
VERTEX
  8
0
 10
26.678531
 20
1.283556
 30
0.0
  0
SEQEND
  8
0
  0
POLYLINE
  8
0
 62
0
 70
0
 66
1
 10
0.0
 20
0.0
 30
0.0
  0
VERTEX
  8
0
 10
26.678531
 20
1.283556
 30
0.0
  0
VERTEX
  8
0
 10
26.789062
 20
0.939269
 30
0.0
  0
SEQEND
  8
0
  0
POLYLINE
  8
0
 62
0
 70
0
 66
1
 10
0.0
 20
0.0
 30
0.0
  0
VERTEX
  8
0
 10
26.904928
 20
1.28369
 30
0.0
  0
VERTEX
  8
0
 10
27.020862
 20
1.628316
 30
0.0
  0
SEQEND
  8
0
  0
POLYLINE
  8
0
 62
0
 70
0
 66
1
 10
0.0
 20
0.0
 30
0.0
  0
VERTEX
  8
0
 10
27.020862
 20
1.628316
 30
0.0
  0
VERTEX
  8
0
 10
27.136756
 20
1.972824
 30
0.0
  0
SEQEND
  8
0
  0
POLYLINE
  8
0
 62
0
 70
0
 66
1
 10
0.0
 20
0.0
 30
0.0
  0
VERTEX
  8
0
 10
27.3685
 20
2.661706
 30
0.0
  0
VERTEX
  8
0
 10
27.577481
 20
2.661706
 30
0.0
  0
SEQEND
  8
0
  0
POLYLINE
  8
0
 62
0
 70
0
 66
1
 10
0.0
 20
0.0
 30
0.0
  0
VERTEX
  8
0
 10
27.136756
 20
1.972824
 30
0.0
  0
VERTEX
  8
0
 10
27.25268
 20
2.317418
 30
0.0
  0
SEQEND
  8
0
  0
POLYLINE
  8
0
 62
0
 70
0
 66
1
 10
0.0
 20
0.0
 30
0.0
  0
VERTEX
  8
0
 10
27.577481
 20
2.661706
 30
0.0
  0
VERTEX
  8
0
 10
27.786586
 20
2.661706
 30
0.0
  0
SEQEND
  8
0
  0
POLYLINE
  8
0
 62
0
 70
0
 66
1
 10
0.0
 20
0.0
 30
0.0
  0
VERTEX
  8
0
 10
27.995406
 20
2.661706
 30
0.0
  0
VERTEX
  8
0
 10
28.204587
 20
2.661706
 30
0.0
  0
SEQEND
  8
0
  0
POLYLINE
  8
0
 62
0
 70
0
 66
1
 10
0.0
 20
0.0
 30
0.0
  0
VERTEX
  8
0
 10
28.204587
 20
2.661706
 30
0.0
  0
VERTEX
  8
0
 10
28.413604
 20
2.661706
 30
0.0
  0
SEQEND
  8
0
  0
POLYLINE
  8
0
 62
0
 70
0
 66
1
 10
0.0
 20
0.0
 30
0.0
  0
VERTEX
  8
0
 10
27.786586
 20
2.661706
 30
0.0
  0
VERTEX
  8
0
 10
27.995406
 20
2.661706
 30
0.0
  0
SEQEND
  8
0
  0
POLYLINE
  8
0
 62
0
 70
0
 66
1
 10
0.0
 20
0.0
 30
0.0
  0
VERTEX
  8
0
 10
27.25268
 20
2.317418
 30
0.0
  0
VERTEX
  8
0
 10
27.3685
 20
2.661706
 30
0.0
  0
SEQEND
  8
0
  0
POLYLINE
  8
0
 62
0
 70
0
 66
1
 10
0.0
 20
0.0
 30
0.0
  0
VERTEX
  8
0
 10
26.789062
 20
0.939269
 30
0.0
  0
VERTEX
  8
0
 10
26.904928
 20
1.28369
 30
0.0
  0
SEQEND
  8
0
  0
POLYLINE
  8
0
 62
0
 70
0
 66
1
 10
0.0
 20
0.0
 30
0.0
  0
VERTEX
  8
0
 10
28.413604
 20
2.661706
 30
0.0
  0
VERTEX
  8
0
 10
28.413604
 20
2.144281
 30
0.0
  0
SEQEND
  8
0
  0
POLYLINE
  8
0
 62
0
 70
0
 66
1
 10
0.0
 20
0.0
 30
0.0
  0
VERTEX
  8
0
 10
28.278693
 20
0.074081
 30
0.0
  0
VERTEX
  8
0
 10
28.143701
 20
0.074081
 30
0.0
  0
SEQEND
  8
0
  0
POLYLINE
  8
0
 62
0
 70
0
 66
1
 10
0.0
 20
0.0
 30
0.0
  0
VERTEX
  8
0
 10
28.008893
 20
0.074081
 30
0.0
  0
VERTEX
  8
0
 10
27.873852
 20
0.074081
 30
0.0
  0
SEQEND
  8
0
  0
POLYLINE
  8
0
 62
0
 70
0
 66
1
 10
0.0
 20
0.0
 30
0.0
  0
VERTEX
  8
0
 10
28.413604
 20
0.074081
 30
0.0
  0
VERTEX
  8
0
 10
28.278693
 20
0.074081
 30
0.0
  0
SEQEND
  8
0
  0
POLYLINE
  8
0
 62
0
 70
0
 66
1
 10
0.0
 20
0.0
 30
0.0
  0
VERTEX
  8
0
 10
28.413604
 20
1.108991
 30
0.0
  0
VERTEX
  8
0
 10
28.413604
 20
0.591306
 30
0.0
  0
SEQEND
  8
0
  0
POLYLINE
  8
0
 62
0
 70
0
 66
1
 10
0.0
 20
0.0
 30
0.0
  0
VERTEX
  8
0
 10
28.143701
 20
0.074081
 30
0.0
  0
VERTEX
  8
0
 10
28.008893
 20
0.074081
 30
0.0
  0
SEQEND
  8
0
  0
POLYLINE
  8
0
 62
0
 70
0
 66
1
 10
0.0
 20
0.0
 30
0.0
  0
VERTEX
  8
0
 10
27.873852
 20
0.074081
 30
0.0
  0
VERTEX
  8
0
 10
27.738917
 20
0.074081
 30
0.0
  0
SEQEND
  8
0
  0
POLYLINE
  8
0
 62
0
 70
0
 66
1
 10
0.0
 20
0.0
 30
0.0
  0
VERTEX
  8
0
 10
27.738917
 20
0.074081
 30
0.0
  0
VERTEX
  8
0
 10
27.740504
 20
0.471409
 30
0.0
  0
SEQEND
  8
0
  0
POLYLINE
  8
0
 62
0
 70
0
 66
1
 10
0.0
 20
0.0
 30
0.0
  0
VERTEX
  8
0
 10
27.740504
 20
0.471409
 30
0.0
  0
VERTEX
  8
0
 10
27.742092
 20
0.868973
 30
0.0
  0
SEQEND
  8
0
  0
POLYLINE
  8
0
 62
0
 70
0
 66
1
 10
0.0
 20
0.0
 30
0.0
  0
VERTEX
  8
0
 10
28.413604
 20
2.144281
 30
0.0
  0
VERTEX
  8
0
 10
28.413604
 20
1.626547
 30
0.0
  0
SEQEND
  8
0
  0
POLYLINE
  8
0
 62
0
 70
0
 66
1
 10
0.0
 20
0.0
 30
0.0
  0
VERTEX
  8
0
 10
28.413604
 20
1.626547
 30
0.0
  0
VERTEX
  8
0
 10
28.413604
 20
1.108991
 30
0.0
  0
SEQEND
  8
0
  0
POLYLINE
  8
0
 62
0
 70
0
 66
1
 10
0.0
 20
0.0
 30
0.0
  0
VERTEX
  8
0
 10
28.413604
 20
0.591306
 30
0.0
  0
VERTEX
  8
0
 10
28.413604
 20
0.074081
 30
0.0
  0
SEQEND
  8
0
  0
POLYLINE
  8
0
 62
0
 70
0
 66
1
 10
0.0
 20
0.0
 30
0.0
  0
VERTEX
  8
0
 10
27.745268
 20
1.663928
 30
0.0
  0
VERTEX
  8
0
 10
27.746854
 20
2.061102
 30
0.0
  0
SEQEND
  8
0
  0
POLYLINE
  8
0
 62
0
 70
0
 66
1
 10
0.0
 20
0.0
 30
0.0
  0
VERTEX
  8
0
 10
27.61353
 20
1.663774
 30
0.0
  0
VERTEX
  8
0
 10
27.480126
 20
1.26621
 30
0.0
  0
SEQEND
  8
0
  0
POLYLINE
  8
0
 62
0
 70
0
 66
1
 10
0.0
 20
0.0
 30
0.0
  0
VERTEX
  8
0
 10
27.74368
 20
1.266401
 30
0.0
  0
VERTEX
  8
0
 10
27.745268
 20
1.663928
 30
0.0
  0
SEQEND
  8
0
  0
POLYLINE
  8
0
 62
0
 70
0
 66
1
 10
0.0
 20
0.0
 30
0.0
  0
VERTEX
  8
0
 10
27.742092
 20
0.868973
 30
0.0
  0
VERTEX
  8
0
 10
27.74368
 20
1.266401
 30
0.0
  0
SEQEND
  8
0
  0
POLYLINE
  8
0
 62
0
 70
0
 66
1
 10
0.0
 20
0.0
 30
0.0
  0
VERTEX
  8
0
 10
27.746854
 20
2.061102
 30
0.0
  0
VERTEX
  8
0
 10
27.61353
 20
1.663774
 30
0.0
  0
SEQEND
  8
0
  0
POLYLINE
  8
0
 62
0
 70
0
 66
1
 10
0.0
 20
0.0
 30
0.0
  0
VERTEX
  8
0
 10
27.346768
 20
0.868782
 30
0.0
  0
VERTEX
  8
0
 10
27.213377
 20
0.471254
 30
0.0
  0
SEQEND
  8
0
  0
POLYLINE
  8
0
 62
0
 70
0
 66
1
 10
0.0
 20
0.0
 30
0.0
  0
VERTEX
  8
0
 10
27.213377
 20
0.471254
 30
0.0
  0
VERTEX
  8
0
 10
27.080104
 20
0.074081
 30
0.0
  0
SEQEND
  8
0
  0
POLYLINE
  8
0
 62
0
 70
0
 66
1
 10
0.0
 20
0.0
 30
0.0
  0
VERTEX
  8
0
 10
27.080104
 20
0.074081
 30
0.0
  0
VERTEX
  8
0
 10
26.953129
 20
0.074081
 30
0.0
  0
SEQEND
  8
0
  0
POLYLINE
  8
0
 62
0
 70
0
 66
1
 10
0.0
 20
0.0
 30
0.0
  0
VERTEX
  8
0
 10
26.953129
 20
0.074081
 30
0.0
  0
VERTEX
  8
0
 10
26.826078
 20
0.074081
 30
0.0
  0
SEQEND
  8
0
  0
POLYLINE
  8
0
 62
0
 70
0
 66
1
 10
0.0
 20
0.0
 30
0.0
  0
VERTEX
  8
0
 10
27.480126
 20
1.26621
 30
0.0
  0
VERTEX
  8
0
 10
27.346768
 20
0.868782
 30
0.0
  0
SEQEND
  8
0
  0
POLYLINE
  8
0
 62
0
 70
0
 66
1
 10
0.0
 20
0.0
 30
0.0
  0
VERTEX
  8
0
 10
26.699199
 20
0.074081
 30
0.0
  0
VERTEX
  8
0
 10
26.572102
 20
0.074081
 30
0.0
  0
SEQEND
  8
0
  0
POLYLINE
  8
0
 62
0
 70
0
 66
1
 10
0.0
 20
0.0
 30
0.0
  0
VERTEX
  8
0
 10
26.826078
 20
0.074081
 30
0.0
  0
VERTEX
  8
0
 10
26.699199
 20
0.074081
 30
0.0
  0
SEQEND
  8
0
  0
POLYLINE
  8
0
 62
0
 70
0
 66
1
 10
0.0
 20
0.0
 30
0.0
  0
VERTEX
  8
0
 10
26.572102
 20
0.074081
 30
0.0
  0
VERTEX
  8
0
 10
26.445104
 20
0.074081
 30
0.0
  0
SEQEND
  8
0
  0
POLYLINE
  8
0
 62
0
 70
0
 66
1
 10
0.0
 20
0.0
 30
0.0
  0
VERTEX
  8
0
 10
26.445104
 20
0.074081
 30
0.0
  0
VERTEX
  8
0
 10
26.318658
 20
0.471409
 30
0.0
  0
SEQEND
  8
0
  0
POLYLINE
  8
0
 62
0
 70
0
 66
1
 10
0.0
 20
0.0
 30
0.0
  0
VERTEX
  8
0
 10
26.318658
 20
0.471409
 30
0.0
  0
VERTEX
  8
0
 10
26.192136
 20
0.868973
 30
0.0
  0
SEQEND
  8
0
  0
POLYLINE
  8
0
 62
0
 70
0
 66
1
 10
0.0
 20
0.0
 30
0.0
  0
VERTEX
  8
0
 10
26.192136
 20
0.868973
 30
0.0
  0
VERTEX
  8
0
 10
26.065658
 20
1.266401
 30
0.0
  0
SEQEND
  8
0
  0
POLYLINE
  8
0
 62
0
 70
0
 66
1
 10
0.0
 20
0.0
 30
0.0
  0
VERTEX
  8
0
 10
25.815395
 20
1.663774
 30
0.0
  0
VERTEX
  8
0
 10
25.818042
 20
1.26621
 30
0.0
  0
SEQEND
  8
0
  0
POLYLINE
  8
0
 62
0
 70
0
 66
1
 10
0.0
 20
0.0
 30
0.0
  0
VERTEX
  8
0
 10
25.825979
 20
0.074081
 30
0.0
  0
VERTEX
  8
0
 10
25.690539
 20
0.074081
 30
0.0
  0
SEQEND
  8
0
  0
POLYLINE
  8
0
 62
0
 70
0
 66
1
 10
0.0
 20
0.0
 30
0.0
  0
VERTEX
  8
0
 10
25.823335
 20
0.471254
 30
0.0
  0
VERTEX
  8
0
 10
25.825979
 20
0.074081
 30
0.0
  0
SEQEND
  8
0
  0
POLYLINE
  8
0
 62
0
 70
0
 66
1
 10
0.0
 20
0.0
 30
0.0
  0
VERTEX
  8
0
 10
25.81275
 20
2.061102
 30
0.0
  0
VERTEX
  8
0
 10
25.815395
 20
1.663774
 30
0.0
  0
SEQEND
  8
0
  0
POLYLINE
  8
0
 62
0
 70
0
 66
1
 10
0.0
 20
0.0
 30
0.0
  0
VERTEX
  8
0
 10
26.065658
 20
1.266401
 30
0.0
  0
VERTEX
  8
0
 10
25.939147
 20
1.663928
 30
0.0
  0
SEQEND
  8
0
  0
POLYLINE
  8
0
 62
0
 70
0
 66
1
 10
0.0
 20
0.0
 30
0.0
  0
VERTEX
  8
0
 10
25.818042
 20
1.26621
 30
0.0
  0
VERTEX
  8
0
 10
25.820688
 20
0.868782
 30
0.0
  0
SEQEND
  8
0
  0
POLYLINE
  8
0
 62
0
 70
0
 66
1
 10
0.0
 20
0.0
 30
0.0
  0
VERTEX
  8
0
 10
25.939147
 20
1.663928
 30
0.0
  0
VERTEX
  8
0
 10
25.81275
 20
2.061102
 30
0.0
  0
SEQEND
  8
0
  0
POLYLINE
  8
0
 62
0
 70
0
 66
1
 10
0.0
 20
0.0
 30
0.0
  0
VERTEX
  8
0
 10
25.820688
 20
0.868782
 30
0.0
  0
VERTEX
  8
0
 10
25.823335
 20
0.471254
 30
0.0
  0
SEQEND
  8
0
  0
POLYLINE
  8
0
 62
0
 70
0
 66
1
 10
0.0
 20
0.0
 30
0.0
  0
VERTEX
  8
0
 10
25.148646
 20
2.144481
 30
0.0
  0
VERTEX
  8
0
 10
25.148646
 20
2.661706
 30
0.0
  0
SEQEND
  8
0
  0
POLYLINE
  8
0
 62
0
 70
0
 66
1
 10
0.0
 20
0.0
 30
0.0
  0
VERTEX
  8
0
 10
28.790333
 20
0.591506
 30
0.0
  0
VERTEX
  8
0
 10
28.987262
 20
1.10924
 30
0.0
  0
SEQEND
  8
0
  0
POLYLINE
  8
0
 62
0
 70
0
 66
1
 10
0.0
 20
0.0
 30
0.0
  0
VERTEX
  8
0
 10
28.987262
 20
1.10924
 30
0.0
  0
VERTEX
  8
0
 10
29.184124
 20
1.626796
 30
0.0
  0
SEQEND
  8
0
  0
POLYLINE
  8
0
 62
0
 70
0
 66
1
 10
0.0
 20
0.0
 30
0.0
  0
VERTEX
  8
0
 10
25.148646
 20
1.626796
 30
0.0
  0
VERTEX
  8
0
 10
25.148646
 20
2.144481
 30
0.0
  0
SEQEND
  8
0
  0
POLYLINE
  8
0
 62
0
 70
0
 66
1
 10
0.0
 20
0.0
 30
0.0
  0
VERTEX
  8
0
 10
28.593521
 20
0.074081
 30
0.0
  0
VERTEX
  8
0
 10
28.790333
 20
0.591506
 30
0.0
  0
SEQEND
  8
0
  0
POLYLINE
  8
0
 62
0
 70
0
 66
1
 10
0.0
 20
0.0
 30
0.0
  0
VERTEX
  8
0
 10
25.555017
 20
0.074081
 30
0.0
  0
VERTEX
  8
0
 10
25.419681
 20
0.074081
 30
0.0
  0
SEQEND
  8
0
  0
POLYLINE
  8
0
 62
0
 70
0
 66
1
 10
0.0
 20
0.0
 30
0.0
  0
VERTEX
  8
0
 10
25.28411
 20
0.074081
 30
0.0
  0
VERTEX
  8
0
 10
25.148646
 20
0.074081
 30
0.0
  0
SEQEND
  8
0
  0
POLYLINE
  8
0
 62
0
 70
0
 66
1
 10
0.0
 20
0.0
 30
0.0
  0
VERTEX
  8
0
 10
25.690539
 20
0.074081
 30
0.0
  0
VERTEX
  8
0
 10
25.555017
 20
0.074081
 30
0.0
  0
SEQEND
  8
0
  0
POLYLINE
  8
0
 62
0
 70
0
 66
1
 10
0.0
 20
0.0
 30
0.0
  0
VERTEX
  8
0
 10
25.419681
 20
0.074081
 30
0.0
  0
VERTEX
  8
0
 10
25.28411
 20
0.074081
 30
0.0
  0
SEQEND
  8
0
  0
POLYLINE
  8
0
 62
0
 70
0
 66
1
 10
0.0
 20
0.0
 30
0.0
  0
VERTEX
  8
0
 10
25.148646
 20
0.074081
 30
0.0
  0
VERTEX
  8
0
 10
25.148646
 20
0.591506
 30
0.0
  0
SEQEND
  8
0
  0
POLYLINE
  8
0
 62
0
 70
0
 66
1
 10
0.0
 20
0.0
 30
0.0
  0
VERTEX
  8
0
 10
25.148646
 20
0.591506
 30
0.0
  0
VERTEX
  8
0
 10
25.148646
 20
1.10924
 30
0.0
  0
SEQEND
  8
0
  0
POLYLINE
  8
0
 62
0
 70
0
 66
1
 10
0.0
 20
0.0
 30
0.0
  0
VERTEX
  8
0
 10
25.148646
 20
1.10924
 30
0.0
  0
VERTEX
  8
0
 10
25.148646
 20
1.626796
 30
0.0
  0
SEQEND
  8
0
  0
POLYLINE
  8
0
 62
0
 70
0
 66
1
 10
0.0
 20
0.0
 30
0.0
  0
VERTEX
  8
0
 10
29.747601
 20
2.661706
 30
0.0
  0
VERTEX
  8
0
 10
29.917531
 20
2.661706
 30
0.0
  0
SEQEND
  8
0
  0
POLYLINE
  8
0
 62
0
 70
0
 66
1
 10
0.0
 20
0.0
 30
0.0
  0
VERTEX
  8
0
 10
29.184124
 20
1.626796
 30
0.0
  0
VERTEX
  8
0
 10
29.381035
 20
2.144481
 30
0.0
  0
SEQEND
  8
0
  0
POLYLINE
  8
0
 62
0
 70
0
 66
1
 10
0.0
 20
0.0
 30
0.0
  0
VERTEX
  8
0
 10
29.381035
 20
2.144481
 30
0.0
  0
VERTEX
  8
0
 10
29.577771
 20
2.661706
 30
0.0
  0
SEQEND
  8
0
  0
POLYLINE
  8
0
 62
0
 70
0
 66
1
 10
0.0
 20
0.0
 30
0.0
  0
VERTEX
  8
0
 10
29.577771
 20
2.661706
 30
0.0
  0
VERTEX
  8
0
 10
29.747601
 20
2.661706
 30
0.0
  0
SEQEND
  8
0
  0
POLYLINE
  8
0
 62
0
 70
0
 66
1
 10
0.0
 20
0.0
 30
0.0
  0
VERTEX
  8
0
 10
30.257224
 20
2.661706
 30
0.0
  0
VERTEX
  8
0
 10
30.427083
 20
2.661706
 30
0.0
  0
SEQEND
  8
0
  0
POLYLINE
  8
0
 62
0
 70
0
 66
1
 10
0.0
 20
0.0
 30
0.0
  0
VERTEX
  8
0
 10
30.62707
 20
2.144281
 30
0.0
  0
VERTEX
  8
0
 10
30.827175
 20
1.626547
 30
0.0
  0
SEQEND
  8
0
  0
POLYLINE
  8
0
 62
0
 70
0
 66
1
 10
0.0
 20
0.0
 30
0.0
  0
VERTEX
  8
0
 10
30.087231
 20
2.661706
 30
0.0
  0
VERTEX
  8
0
 10
30.257224
 20
2.661706
 30
0.0
  0
SEQEND
  8
0
  0
POLYLINE
  8
0
 62
0
 70
0
 66
1
 10
0.0
 20
0.0
 30
0.0
  0
VERTEX
  8
0
 10
30.427083
 20
2.661706
 30
0.0
  0
VERTEX
  8
0
 10
30.62707
 20
2.144281
 30
0.0
  0
SEQEND
  8
0
  0
POLYLINE
  8
0
 62
0
 70
0
 66
1
 10
0.0
 20
0.0
 30
0.0
  0
VERTEX
  8
0
 10
30.827175
 20
1.626547
 30
0.0
  0
VERTEX
  8
0
 10
31.027212
 20
1.108991
 30
0.0
  0
SEQEND
  8
0
  0
POLYLINE
  8
0
 62
0
 70
0
 66
1
 10
0.0
 20
0.0
 30
0.0
  0
VERTEX
  8
0
 10
29.917531
 20
2.661706
 30
0.0
  0
VERTEX
  8
0
 10
30.087231
 20
2.661706
 30
0.0
  0
SEQEND
  8
0
  0
POLYLINE
  8
0
 62
0
 70
0
 66
1
 10
0.0
 20
0.0
 30
0.0
  0
VERTEX
  8
0
 10
31.227299
 20
0.591306
 30
0.0
  0
VERTEX
  8
0
 10
31.427208
 20
0.074081
 30
0.0
  0
SEQEND
  8
0
  0
POLYLINE
  8
0
 62
0
 70
0
 66
1
 10
0.0
 20
0.0
 30
0.0
  0
VERTEX
  8
0
 10
31.027212
 20
1.108991
 30
0.0
  0
VERTEX
  8
0
 10
31.227299
 20
0.591306
 30
0.0
  0
SEQEND
  8
0
  0
POLYLINE
  8
0
 62
0
 70
0
 66
1
 10
0.0
 20
0.0
 30
0.0
  0
VERTEX
  8
0
 10
31.275367
 20
0.074081
 30
0.0
  0
VERTEX
  8
0
 10
31.123435
 20
0.074081
 30
0.0
  0
SEQEND
  8
0
  0
POLYLINE
  8
0
 62
0
 70
0
 66
1
 10
0.0
 20
0.0
 30
0.0
  0
VERTEX
  8
0
 10
30.97171
 20
0.074081
 30
0.0
  0
VERTEX
  8
0
 10
30.819722
 20
0.074081
 30
0.0
  0
SEQEND
  8
0
  0
POLYLINE
  8
0
 62
0
 70
0
 66
1
 10
0.0
 20
0.0
 30
0.0
  0
VERTEX
  8
0
 10
30.667854
 20
0.074081
 30
0.0
  0
VERTEX
  8
0
 10
30.629232
 20
0.184126
 30
0.0
  0
SEQEND
  8
0
  0
POLYLINE
  8
0
 62
0
 70
0
 66
1
 10
0.0
 20
0.0
 30
0.0
  0
VERTEX
  8
0
 10
30.552071
 20
0.403983
 30
0.0
  0
VERTEX
  8
0
 10
30.513379
 20
0.51423
 30
0.0
  0
SEQEND
  8
0
  0
POLYLINE
  8
0
 62
0
 70
0
 66
1
 10
0.0
 20
0.0
 30
0.0
  0
VERTEX
  8
0
 10
30.280012
 20
0.624414
 30
0.0
  0
VERTEX
  8
0
 10
30.085201
 20
0.624414
 30
0.0
  0
SEQEND
  8
0
  0
POLYLINE
  8
0
 62
0
 70
0
 66
1
 10
0.0
 20
0.0
 30
0.0
  0
VERTEX
  8
0
 10
30.819722
 20
0.074081
 30
0.0
  0
VERTEX
  8
0
 10
30.667854
 20
0.074081
 30
0.0
  0
SEQEND
  8
0
  0
POLYLINE
  8
0
 62
0
 70
0
 66
1
 10
0.0
 20
0.0
 30
0.0
  0
VERTEX
  8
0
 10
30.629232
 20
0.184126
 30
0.0
  0
VERTEX
  8
0
 10
30.590687
 20
0.293955
 30
0.0
  0
SEQEND
  8
0
  0
POLYLINE
  8
0
 62
0
 70
0
 66
1
 10
0.0
 20
0.0
 30
0.0
  0
VERTEX
  8
0
 10
31.427208
 20
0.074081
 30
0.0
  0
VERTEX
  8
0
 10
31.275367
 20
0.074081
 30
0.0
  0
SEQEND
  8
0
  0
POLYLINE
  8
0
 62
0
 70
0
 66
1
 10
0.0
 20
0.0
 30
0.0
  0
VERTEX
  8
0
 10
31.123435
 20
0.074081
 30
0.0
  0
VERTEX
  8
0
 10
30.97171
 20
0.074081
 30
0.0
  0
SEQEND
  8
0
  0
POLYLINE
  8
0
 62
0
 70
0
 66
1
 10
0.0
 20
0.0
 30
0.0
  0
VERTEX
  8
0
 10
30.513379
 20
0.51423
 30
0.0
  0
VERTEX
  8
0
 10
30.474708
 20
0.624414
 30
0.0
  0
SEQEND
  8
0
  0
POLYLINE
  8
0
 62
0
 70
0
 66
1
 10
0.0
 20
0.0
 30
0.0
  0
VERTEX
  8
0
 10
30.474708
 20
0.624414
 30
0.0
  0
VERTEX
  8
0
 10
30.280012
 20
0.624414
 30
0.0
  0
SEQEND
  8
0
  0
POLYLINE
  8
0
 62
0
 70
0
 66
1
 10
0.0
 20
0.0
 30
0.0
  0
VERTEX
  8
0
 10
30.590687
 20
0.293955
 30
0.0
  0
VERTEX
  8
0
 10
30.552071
 20
0.403983
 30
0.0
  0
SEQEND
  8
0
  0
POLYLINE
  8
0
 62
0
 70
0
 66
1
 10
0.0
 20
0.0
 30
0.0
  0
VERTEX
  8
0
 10
29.890654
 20
0.624414
 30
0.0
  0
VERTEX
  8
0
 10
29.695772
 20
0.624414
 30
0.0
  0
SEQEND
  8
0
  0
POLYLINE
  8
0
 62
0
 70
0
 66
1
 10
0.0
 20
0.0
 30
0.0
  0
VERTEX
  8
0
 10
29.501042
 20
0.624414
 30
0.0
  0
VERTEX
  8
0
 10
29.459775
 20
0.514369
 30
0.0
  0
SEQEND
  8
0
  0
POLYLINE
  8
0
 62
0
 70
0
 66
1
 10
0.0
 20
0.0
 30
0.0
  0
VERTEX
  8
0
 10
30.085201
 20
0.624414
 30
0.0
  0
VERTEX
  8
0
 10
29.890654
 20
0.624414
 30
0.0
  0
SEQEND
  8
0
  0
POLYLINE
  8
0
 62
0
 70
0
 66
1
 10
0.0
 20
0.0
 30
0.0
  0
VERTEX
  8
0
 10
29.459775
 20
0.514369
 30
0.0
  0
VERTEX
  8
0
 10
29.418589
 20
0.40454
 30
0.0
  0
SEQEND
  8
0
  0
POLYLINE
  8
0
 62
0
 70
0
 66
1
 10
0.0
 20
0.0
 30
0.0
  0
VERTEX
  8
0
 10
29.418589
 20
0.40454
 30
0.0
  0
VERTEX
  8
0
 10
29.377328
 20
0.294512
 30
0.0
  0
SEQEND
  8
0
  0
POLYLINE
  8
0
 62
0
 70
0
 66
1
 10
0.0
 20
0.0
 30
0.0
  0
VERTEX
  8
0
 10
29.695772
 20
0.624414
 30
0.0
  0
VERTEX
  8
0
 10
29.501042
 20
0.624414
 30
0.0
  0
SEQEND
  8
0
  0
POLYLINE
  8
0
 62
0
 70
0
 66
1
 10
0.0
 20
0.0
 30
0.0
  0
VERTEX
  8
0
 10
29.377328
 20
0.294512
 30
0.0
  0
VERTEX
  8
0
 10
29.335986
 20
0.184265
 30
0.0
  0
SEQEND
  8
0
  0
POLYLINE
  8
0
 62
0
 70
0
 66
1
 10
0.0
 20
0.0
 30
0.0
  0
VERTEX
  8
0
 10
29.335986
 20
0.184265
 30
0.0
  0
VERTEX
  8
0
 10
29.294667
 20
0.074081
 30
0.0
  0
SEQEND
  8
0
  0
POLYLINE
  8
0
 62
0
 70
0
 66
1
 10
0.0
 20
0.0
 30
0.0
  0
VERTEX
  8
0
 10
29.014179
 20
0.074081
 30
0.0
  0
VERTEX
  8
0
 10
28.874084
 20
0.074081
 30
0.0
  0
SEQEND
  8
0
  0
POLYLINE
  8
0
 62
0
 70
0
 66
1
 10
0.0
 20
0.0
 30
0.0
  0
VERTEX
  8
0
 10
29.294667
 20
0.074081
 30
0.0
  0
VERTEX
  8
0
 10
29.154464
 20
0.074081
 30
0.0
  0
SEQEND
  8
0
  0
POLYLINE
  8
0
 62
0
 70
0
 66
1
 10
0.0
 20
0.0
 30
0.0
  0
VERTEX
  8
0
 10
28.874084
 20
0.074081
 30
0.0
  0
VERTEX
  8
0
 10
28.733748
 20
0.074081
 30
0.0
  0
SEQEND
  8
0
  0
POLYLINE
  8
0
 62
0
 70
0
 66
1
 10
0.0
 20
0.0
 30
0.0
  0
VERTEX
  8
0
 10
29.154464
 20
0.074081
 30
0.0
  0
VERTEX
  8
0
 10
29.014179
 20
0.074081
 30
0.0
  0
SEQEND
  8
0
  0
POLYLINE
  8
0
 62
0
 70
0
 66
1
 10
0.0
 20
0.0
 30
0.0
  0
VERTEX
  8
0
 10
30.184712
 20
1.520336
 30
0.0
  0
VERTEX
  8
0
 10
30.121801
 20
1.723341
 30
0.0
  0
SEQEND
  8
0
  0
POLYLINE
  8
0
 62
0
 70
0
 66
1
 10
0.0
 20
0.0
 30
0.0
  0
VERTEX
  8
0
 10
29.928621
 20
1.926733
 30
0.0
  0
VERTEX
  8
0
 10
29.86139
 20
1.723451
 30
0.0
  0
SEQEND
  8
0
  0
POLYLINE
  8
0
 62
0
 70
0
 66
1
 10
0.0
 20
0.0
 30
0.0
  0
VERTEX
  8
0
 10
29.995813
 20
2.129894
 30
0.0
  0
VERTEX
  8
0
 10
29.928621
 20
1.926733
 30
0.0
  0
SEQEND
  8
0
  0
POLYLINE
  8
0
 62
0
 70
0
 66
1
 10
0.0
 20
0.0
 30
0.0
  0
VERTEX
  8
0
 10
30.121801
 20
1.723341
 30
0.0
  0
VERTEX
  8
0
 10
30.058782
 20
1.926697
 30
0.0
  0
SEQEND
  8
0
  0
POLYLINE
  8
0
 62
0
 70
0
 66
1
 10
0.0
 20
0.0
 30
0.0
  0
VERTEX
  8
0
 10
30.058782
 20
1.926697
 30
0.0
  0
VERTEX
  8
0
 10
29.995813
 20
2.129894
 30
0.0
  0
SEQEND
  8
0
  0
POLYLINE
  8
0
 62
0
 70
0
 66
1
 10
0.0
 20
0.0
 30
0.0
  0
VERTEX
  8
0
 10
29.86139
 20
1.723451
 30
0.0
  0
VERTEX
  8
0
 10
29.79425
 20
1.520446
 30
0.0
  0
SEQEND
  8
0
  0
POLYLINE
  8
0
 62
0
 70
0
 66
1
 10
0.0
 20
0.0
 30
0.0
  0
VERTEX
  8
0
 10
29.659792
 20
1.113894
 30
0.0
  0
VERTEX
  8
0
 10
29.789942
 20
1.113894
 30
0.0
  0
SEQEND
  8
0
  0
POLYLINE
  8
0
 62
0
 70
0
 66
1
 10
0.0
 20
0.0
 30
0.0
  0
VERTEX
  8
0
 10
28.733748
 20
0.074081
 30
0.0
  0
VERTEX
  8
0
 10
28.593521
 20
0.074081
 30
0.0
  0
SEQEND
  8
0
  0
POLYLINE
  8
0
 62
0
 70
0
 66
1
 10
0.0
 20
0.0
 30
0.0
  0
VERTEX
  8
0
 10
29.726995
 20
1.31709
 30
0.0
  0
VERTEX
  8
0
 10
29.659792
 20
1.113894
 30
0.0
  0
SEQEND
  8
0
  0
POLYLINE
  8
0
 62
0
 70
0
 66
1
 10
0.0
 20
0.0
 30
0.0
  0
VERTEX
  8
0
 10
30.310667
 20
1.113894
 30
0.0
  0
VERTEX
  8
0
 10
30.247708
 20
1.317054
 30
0.0
  0
SEQEND
  8
0
  0
POLYLINE
  8
0
 62
0
 70
0
 66
1
 10
0.0
 20
0.0
 30
0.0
  0
VERTEX
  8
0
 10
30.247708
 20
1.317054
 30
0.0
  0
VERTEX
  8
0
 10
30.184712
 20
1.520336
 30
0.0
  0
SEQEND
  8
0
  0
POLYLINE
  8
0
 62
0
 70
0
 66
1
 10
0.0
 20
0.0
 30
0.0
  0
VERTEX
  8
0
 10
29.79425
 20
1.520446
 30
0.0
  0
VERTEX
  8
0
 10
29.726995
 20
1.31709
 30
0.0
  0
SEQEND
  8
0
  0
POLYLINE
  8
0
 62
0
 70
0
 66
1
 10
0.0
 20
0.0
 30
0.0
  0
VERTEX
  8
0
 10
30.050219
 20
1.113894
 30
0.0
  0
VERTEX
  8
0
 10
30.180494
 20
1.113894
 30
0.0
  0
SEQEND
  8
0
  0
POLYLINE
  8
0
 62
0
 70
0
 66
1
 10
0.0
 20
0.0
 30
0.0
  0
VERTEX
  8
0
 10
31.691792
 20
0.074081
 30
0.0
  0
VERTEX
  8
0
 10
31.691792
 20
0.591506
 30
0.0
  0
SEQEND
  8
0
  0
POLYLINE
  8
0
 62
0
 70
0
 66
1
 10
0.0
 20
0.0
 30
0.0
  0
VERTEX
  8
0
 10
31.691792
 20
2.661706
 30
0.0
  0
VERTEX
  8
0
 10
31.880139
 20
2.661706
 30
0.0
  0
SEQEND
  8
0
  0
POLYLINE
  8
0
 62
0
 70
0
 66
1
 10
0.0
 20
0.0
 30
0.0
  0
VERTEX
  8
0
 10
31.691792
 20
1.10924
 30
0.0
  0
VERTEX
  8
0
 10
31.691792
 20
1.626796
 30
0.0
  0
SEQEND
  8
0
  0
POLYLINE
  8
0
 62
0
 70
0
 66
1
 10
0.0
 20
0.0
 30
0.0
  0
VERTEX
  8
0
 10
31.691792
 20
0.591506
 30
0.0
  0
VERTEX
  8
0
 10
31.691792
 20
1.10924
 30
0.0
  0
SEQEND
  8
0
  0
POLYLINE
  8
0
 62
0
 70
0
 66
1
 10
0.0
 20
0.0
 30
0.0
  0
VERTEX
  8
0
 10
29.920169
 20
1.113894
 30
0.0
  0
VERTEX
  8
0
 10
30.050219
 20
1.113894
 30
0.0
  0
SEQEND
  8
0
  0
POLYLINE
  8
0
 62
0
 70
0
 66
1
 10
0.0
 20
0.0
 30
0.0
  0
VERTEX
  8
0
 10
29.789942
 20
1.113894
 30
0.0
  0
VERTEX
  8
0
 10
29.920169
 20
1.113894
 30
0.0
  0
SEQEND
  8
0
  0
POLYLINE
  8
0
 62
0
 70
0
 66
1
 10
0.0
 20
0.0
 30
0.0
  0
VERTEX
  8
0
 10
30.180494
 20
1.113894
 30
0.0
  0
VERTEX
  8
0
 10
30.310667
 20
1.113894
 30
0.0
  0
SEQEND
  8
0
  0
POLYLINE
  8
0
 62
0
 70
0
 66
1
 10
0.0
 20
0.0
 30
0.0
  0
VERTEX
  8
0
 10
31.691792
 20
1.626796
 30
0.0
  0
VERTEX
  8
0
 10
31.691792
 20
2.144481
 30
0.0
  0
SEQEND
  8
0
  0
POLYLINE
  8
0
 62
0
 70
0
 66
1
 10
0.0
 20
0.0
 30
0.0
  0
VERTEX
  8
0
 10
31.691792
 20
2.144481
 30
0.0
  0
VERTEX
  8
0
 10
31.691792
 20
2.661706
 30
0.0
  0
SEQEND
  8
0
  0
POLYLINE
  8
0
 62
0
 70
0
 66
1
 10
0.0
 20
0.0
 30
0.0
  0
VERTEX
  8
0
 10
31.880139
 20
2.661706
 30
0.0
  0
VERTEX
  8
0
 10
32.068598
 20
2.661706
 30
0.0
  0
SEQEND
  8
0
  0
POLYLINE
  8
0
 62
0
 70
0
 66
1
 10
0.0
 20
0.0
 30
0.0
  0
VERTEX
  8
0
 10
32.068598
 20
2.661706
 30
0.0
  0
VERTEX
  8
0
 10
32.2568
 20
2.661706
 30
0.0
  0
SEQEND
  8
0
  0
POLYLINE
  8
0
 62
0
 70
0
 66
1
 10
0.0
 20
0.0
 30
0.0
  0
VERTEX
  8
0
 10
33.906875
 20
2.242627
 30
0.0
  0
VERTEX
  8
0
 10
34.113971
 20
1.834929
 30
0.0
  0
SEQEND
  8
0
  0
POLYLINE
  8
0
 62
0
 70
0
 66
1
 10
0.0
 20
0.0
 30
0.0
  0
VERTEX
  8
0
 10
32.2568
 20
2.661706
 30
0.0
  0
VERTEX
  8
0
 10
32.445328
 20
2.661706
 30
0.0
  0
SEQEND
  8
0
  0
POLYLINE
  8
0
 62
0
 70
0
 66
1
 10
0.0
 20
0.0
 30
0.0
  0
VERTEX
  8
0
 10
33.093364
 20
2.631892
 30
0.0
  0
VERTEX
  8
0
 10
33.536917
 20
2.511483
 30
0.0
  0
SEQEND
  8
0
  0
POLYLINE
  8
0
 62
0
 70
0
 66
1
 10
0.0
 20
0.0
 30
0.0
  0
VERTEX
  8
0
 10
32.445328
 20
2.661706
 30
0.0
  0
VERTEX
  8
0
 10
32.633708
 20
2.661706
 30
0.0
  0
SEQEND
  8
0
  0
POLYLINE
  8
0
 62
0
 70
0
 66
1
 10
0.0
 20
0.0
 30
0.0
  0
VERTEX
  8
0
 10
32.633708
 20
2.661706
 30
0.0
  0
VERTEX
  8
0
 10
33.093364
 20
2.631892
 30
0.0
  0
SEQEND
  8
0
  0
POLYLINE
  8
0
 62
0
 70
0
 66
1
 10
0.0
 20
0.0
 30
0.0
  0
VERTEX
  8
0
 10
33.536917
 20
2.511483
 30
0.0
  0
VERTEX
  8
0
 10
33.906875
 20
2.242627
 30
0.0
  0
SEQEND
  8
0
  0
POLYLINE
  8
0
 62
0
 70
0
 66
1
 10
0.0
 20
0.0
 30
0.0
  0
VERTEX
  8
0
 10
34.168292
 20
1.378477
 30
0.0
  0
VERTEX
  8
0
 10
34.112422
 20
0.9204
 30
0.0
  0
SEQEND
  8
0
  0
POLYLINE
  8
0
 62
0
 70
0
 66
1
 10
0.0
 20
0.0
 30
0.0
  0
VERTEX
  8
0
 10
33.537455
 20
0.235805
 30
0.0
  0
VERTEX
  8
0
 10
33.094751
 20
0.107124
 30
0.0
  0
SEQEND
  8
0
  0
POLYLINE
  8
0
 62
0
 70
0
 66
1
 10
0.0
 20
0.0
 30
0.0
  0
VERTEX
  8
0
 10
34.113971
 20
1.834929
 30
0.0
  0
VERTEX
  8
0
 10
34.168292
 20
1.378477
 30
0.0
  0
SEQEND
  8
0
  0
POLYLINE
  8
0
 62
0
 70
0
 66
1
 10
0.0
 20
0.0
 30
0.0
  0
VERTEX
  8
0
 10
33.904407
 20
0.51127
 30
0.0
  0
VERTEX
  8
0
 10
33.537455
 20
0.235805
 30
0.0
  0
SEQEND
  8
0
  0
POLYLINE
  8
0
 62
0
 70
0
 66
1
 10
0.0
 20
0.0
 30
0.0
  0
VERTEX
  8
0
 10
34.112422
 20
0.9204
 30
0.0
  0
VERTEX
  8
0
 10
33.904407
 20
0.51127
 30
0.0
  0
SEQEND
  8
0
  0
POLYLINE
  8
0
 62
0
 70
0
 66
1
 10
0.0
 20
0.0
 30
0.0
  0
VERTEX
  8
0
 10
33.094751
 20
0.107124
 30
0.0
  0
VERTEX
  8
0
 10
32.633708
 20
0.074081
 30
0.0
  0
SEQEND
  8
0
  0
POLYLINE
  8
0
 62
0
 70
0
 66
1
 10
0.0
 20
0.0
 30
0.0
  0
VERTEX
  8
0
 10
32.633708
 20
0.074081
 30
0.0
  0
VERTEX
  8
0
 10
32.445361
 20
0.074081
 30
0.0
  0
SEQEND
  8
0
  0
POLYLINE
  8
0
 62
0
 70
0
 66
1
 10
0.0
 20
0.0
 30
0.0
  0
VERTEX
  8
0
 10
32.649583
 20
0.584727
 30
0.0
  0
VERTEX
  8
0
 10
32.905039
 20
0.610495
 30
0.0
  0
SEQEND
  8
0
  0
POLYLINE
  8
0
 62
0
 70
0
 66
1
 10
0.0
 20
0.0
 30
0.0
  0
VERTEX
  8
0
 10
32.445361
 20
0.074081
 30
0.0
  0
VERTEX
  8
0
 10
32.256902
 20
0.074081
 30
0.0
  0
SEQEND
  8
0
  0
POLYLINE
  8
0
 62
0
 70
0
 66
1
 10
0.0
 20
0.0
 30
0.0
  0
VERTEX
  8
0
 10
33.446412
 20
1.507094
 30
0.0
  0
VERTEX
  8
0
 10
33.426475
 20
1.63407
 30
0.0
  0
SEQEND
  8
0
  0
POLYLINE
  8
0
 62
0
 70
0
 66
1
 10
0.0
 20
0.0
 30
0.0
  0
VERTEX
  8
0
 10
33.417658
 20
1.123327
 30
0.0
  0
VERTEX
  8
0
 10
33.443333
 20
1.378477
 30
0.0
  0
SEQEND
  8
0
  0
POLYLINE
  8
0
 62
0
 70
0
 66
1
 10
0.0
 20
0.0
 30
0.0
  0
VERTEX
  8
0
 10
32.256902
 20
0.074081
 30
0.0
  0
VERTEX
  8
0
 10
32.0687
 20
0.074081
 30
0.0
  0
SEQEND
  8
0
  0
POLYLINE
  8
0
 62
0
 70
0
 66
1
 10
0.0
 20
0.0
 30
0.0
  0
VERTEX
  8
0
 10
31.880172
 20
0.074081
 30
0.0
  0
VERTEX
  8
0
 10
31.691792
 20
0.074081
 30
0.0
  0
SEQEND
  8
0
  0
POLYLINE
  8
0
 62
0
 70
0
 66
1
 10
0.0
 20
0.0
 30
0.0
  0
VERTEX
  8
0
 10
33.443333
 20
1.378477
 30
0.0
  0
VERTEX
  8
0
 10
33.446412
 20
1.507094
 30
0.0
  0
SEQEND
  8
0
  0
POLYLINE
  8
0
 62
0
 70
0
 66
1
 10
0.0
 20
0.0
 30
0.0
  0
VERTEX
  8
0
 10
33.142546
 20
0.705664
 30
0.0
  0
VERTEX
  8
0
 10
33.322675
 20
0.885903
 30
0.0
  0
SEQEND
  8
0
  0
POLYLINE
  8
0
 62
0
 70
0
 66
1
 10
0.0
 20
0.0
 30
0.0
  0
VERTEX
  8
0
 10
33.322675
 20
0.885903
 30
0.0
  0
VERTEX
  8
0
 10
33.417658
 20
1.123327
 30
0.0
  0
SEQEND
  8
0
  0
POLYLINE
  8
0
 62
0
 70
0
 66
1
 10
0.0
 20
0.0
 30
0.0
  0
VERTEX
  8
0
 10
32.0687
 20
0.074081
 30
0.0
  0
VERTEX
  8
0
 10
31.880172
 20
0.074081
 30
0.0
  0
SEQEND
  8
0
  0
POLYLINE
  8
0
 62
0
 70
0
 66
1
 10
0.0
 20
0.0
 30
0.0
  0
VERTEX
  8
0
 10
32.905039
 20
0.610495
 30
0.0
  0
VERTEX
  8
0
 10
33.142546
 20
0.705664
 30
0.0
  0
SEQEND
  8
0
  0
POLYLINE
  8
0
 62
0
 70
0
 66
1
 10
0.0
 20
0.0
 30
0.0
  0
VERTEX
  8
0
 10
33.237954
 20
1.966847
 30
0.0
  0
VERTEX
  8
0
 10
33.139192
 20
2.049296
 30
0.0
  0
SEQEND
  8
0
  0
POLYLINE
  8
0
 62
0
 70
0
 66
1
 10
0.0
 20
0.0
 30
0.0
  0
VERTEX
  8
0
 10
32.596677
 20
2.172227
 30
0.0
  0
VERTEX
  8
0
 10
32.543603
 20
2.172227
 30
0.0
  0
SEQEND
  8
0
  0
POLYLINE
  8
0
 62
0
 70
0
 66
1
 10
0.0
 20
0.0
 30
0.0
  0
VERTEX
  8
0
 10
33.139192
 20
2.049296
 30
0.0
  0
VERTEX
  8
0
 10
33.027391
 20
2.112708
 30
0.0
  0
SEQEND
  8
0
  0
POLYLINE
  8
0
 62
0
 70
0
 66
1
 10
0.0
 20
0.0
 30
0.0
  0
VERTEX
  8
0
 10
33.383981
 20
1.755916
 30
0.0
  0
VERTEX
  8
0
 10
33.320349
 20
1.868162
 30
0.0
  0
SEQEND
  8
0
  0
POLYLINE
  8
0
 62
0
 70
0
 66
1
 10
0.0
 20
0.0
 30
0.0
  0
VERTEX
  8
0
 10
33.426475
 20
1.63407
 30
0.0
  0
VERTEX
  8
0
 10
33.383981
 20
1.755916
 30
0.0
  0
SEQEND
  8
0
  0
POLYLINE
  8
0
 62
0
 70
0
 66
1
 10
0.0
 20
0.0
 30
0.0
  0
VERTEX
  8
0
 10
33.320349
 20
1.868162
 30
0.0
  0
VERTEX
  8
0
 10
33.237954
 20
1.966847
 30
0.0
  0
SEQEND
  8
0
  0
POLYLINE
  8
0
 62
0
 70
0
 66
1
 10
0.0
 20
0.0
 30
0.0
  0
VERTEX
  8
0
 10
32.905569
 20
2.15527
 30
0.0
  0
VERTEX
  8
0
 10
32.778106
 20
2.175312
 30
0.0
  0
SEQEND
  8
0
  0
POLYLINE
  8
0
 62
0
 70
0
 66
1
 10
0.0
 20
0.0
 30
0.0
  0
VERTEX
  8
0
 10
32.778106
 20
2.175312
 30
0.0
  0
VERTEX
  8
0
 10
32.649583
 20
2.172227
 30
0.0
  0
SEQEND
  8
0
  0
POLYLINE
  8
0
 62
0
 70
0
 66
1
 10
0.0
 20
0.0
 30
0.0
  0
VERTEX
  8
0
 10
33.027391
 20
2.112708
 30
0.0
  0
VERTEX
  8
0
 10
32.905569
 20
2.15527
 30
0.0
  0
SEQEND
  8
0
  0
POLYLINE
  8
0
 62
0
 70
0
 66
1
 10
0.0
 20
0.0
 30
0.0
  0
VERTEX
  8
0
 10
32.649583
 20
2.172227
 30
0.0
  0
VERTEX
  8
0
 10
32.596677
 20
2.172227
 30
0.0
  0
SEQEND
  8
0
  0
POLYLINE
  8
0
 62
0
 70
0
 66
1
 10
0.0
 20
0.0
 30
0.0
  0
VERTEX
  8
0
 10
32.543603
 20
2.172227
 30
0.0
  0
VERTEX
  8
0
 10
32.490769
 20
2.172227
 30
0.0
  0
SEQEND
  8
0
  0
POLYLINE
  8
0
 62
0
 70
0
 66
1
 10
0.0
 20
0.0
 30
0.0
  0
VERTEX
  8
0
 10
32.490769
 20
2.172227
 30
0.0
  0
VERTEX
  8
0
 10
32.437996
 20
2.172227
 30
0.0
  0
SEQEND
  8
0
  0
POLYLINE
  8
0
 62
0
 70
0
 66
1
 10
0.0
 20
0.0
 30
0.0
  0
VERTEX
  8
0
 10
32.543814
 20
0.593188
 30
0.0
  0
VERTEX
  8
0
 10
32.596587
 20
0.588967
 30
0.0
  0
SEQEND
  8
0
  0
POLYLINE
  8
0
 62
0
 70
0
 66
1
 10
0.0
 20
0.0
 30
0.0
  0
VERTEX
  8
0
 10
32.49098
 20
0.597415
 30
0.0
  0
VERTEX
  8
0
 10
32.543814
 20
0.593188
 30
0.0
  0
SEQEND
  8
0
  0
POLYLINE
  8
0
 62
0
 70
0
 66
1
 10
0.0
 20
0.0
 30
0.0
  0
VERTEX
  8
0
 10
32.385
 20
1.545628
 30
0.0
  0
VERTEX
  8
0
 10
32.385
 20
1.232342
 30
0.0
  0
SEQEND
  8
0
  0
POLYLINE
  8
0
 62
0
 70
0
 66
1
 10
0.0
 20
0.0
 30
0.0
  0
VERTEX
  8
0
 10
32.385
 20
2.172227
 30
0.0
  0
VERTEX
  8
0
 10
32.385
 20
1.85902
 30
0.0
  0
SEQEND
  8
0
  0
POLYLINE
  8
0
 62
0
 70
0
 66
1
 10
0.0
 20
0.0
 30
0.0
  0
VERTEX
  8
0
 10
32.437996
 20
2.172227
 30
0.0
  0
VERTEX
  8
0
 10
32.385
 20
2.172227
 30
0.0
  0
SEQEND
  8
0
  0
POLYLINE
  8
0
 62
0
 70
0
 66
1
 10
0.0
 20
0.0
 30
0.0
  0
VERTEX
  8
0
 10
32.385
 20
1.232342
 30
0.0
  0
VERTEX
  8
0
 10
32.385
 20
0.918978
 30
0.0
  0
SEQEND
  8
0
  0
POLYLINE
  8
0
 62
0
 70
0
 66
1
 10
0.0
 20
0.0
 30
0.0
  0
VERTEX
  8
0
 10
32.385
 20
0.918978
 30
0.0
  0
VERTEX
  8
0
 10
32.385
 20
0.605894
 30
0.0
  0
SEQEND
  8
0
  0
POLYLINE
  8
0
 62
0
 70
0
 66
1
 10
0.0
 20
0.0
 30
0.0
  0
VERTEX
  8
0
 10
32.437906
 20
0.601661
 30
0.0
  0
VERTEX
  8
0
 10
32.49098
 20
0.597415
 30
0.0
  0
SEQEND
  8
0
  0
POLYLINE
  8
0
 62
0
 70
0
 66
1
 10
0.0
 20
0.0
 30
0.0
  0
VERTEX
  8
0
 10
32.385
 20
1.85902
 30
0.0
  0
VERTEX
  8
0
 10
32.385
 20
1.545628
 30
0.0
  0
SEQEND
  8
0
  0
POLYLINE
  8
0
 62
0
 70
0
 66
1
 10
0.0
 20
0.0
 30
0.0
  0
VERTEX
  8
0
 10
32.385
 20
0.605894
 30
0.0
  0
VERTEX
  8
0
 10
32.437906
 20
0.601661
 30
0.0
  0
SEQEND
  8
0
  0
POLYLINE
  8
0
 62
0
 70
0
 66
1
 10
0.0
 20
0.0
 30
0.0
  0
VERTEX
  8
0
 10
34.451396
 20
2.661706
 30
0.0
  0
VERTEX
  8
0
 10
34.816451
 20
2.661706
 30
0.0
  0
SEQEND
  8
0
  0
POLYLINE
  8
0
 62
0
 70
0
 66
1
 10
0.0
 20
0.0
 30
0.0
  0
VERTEX
  8
0
 10
32.596587
 20
0.588967
 30
0.0
  0
VERTEX
  8
0
 10
32.649583
 20
0.584727
 30
0.0
  0
SEQEND
  8
0
  0
POLYLINE
  8
0
 62
0
 70
0
 66
1
 10
0.0
 20
0.0
 30
0.0
  0
VERTEX
  8
0
 10
36.277021
 20
2.563829
 30
0.0
  0
VERTEX
  8
0
 10
36.277021
 20
2.466145
 30
0.0
  0
SEQEND
  8
0
  0
POLYLINE
  8
0
 62
0
 70
0
 66
1
 10
0.0
 20
0.0
 30
0.0
  0
VERTEX
  8
0
 10
36.050052
 20
2.172227
 30
0.0
  0
VERTEX
  8
0
 10
35.822948
 20
2.172227
 30
0.0
  0
SEQEND
  8
0
  0
POLYLINE
  8
0
 62
0
 70
0
 66
1
 10
0.0
 20
0.0
 30
0.0
  0
VERTEX
  8
0
 10
36.277021
 20
2.368284
 30
0.0
  0
VERTEX
  8
0
 10
36.277021
 20
2.270482
 30
0.0
  0
SEQEND
  8
0
  0
POLYLINE
  8
0
 62
0
 70
0
 66
1
 10
0.0
 20
0.0
 30
0.0
  0
VERTEX
  8
0
 10
36.277021
 20
2.270482
 30
0.0
  0
VERTEX
  8
0
 10
36.277021
 20
2.172227
 30
0.0
  0
SEQEND
  8
0
  0
POLYLINE
  8
0
 62
0
 70
0
 66
1
 10
0.0
 20
0.0
 30
0.0
  0
VERTEX
  8
0
 10
36.277021
 20
2.661706
 30
0.0
  0
VERTEX
  8
0
 10
36.277021
 20
2.563829
 30
0.0
  0
SEQEND
  8
0
  0
POLYLINE
  8
0
 62
0
 70
0
 66
1
 10
0.0
 20
0.0
 30
0.0
  0
VERTEX
  8
0
 10
35.912108
 20
2.661706
 30
0.0
  0
VERTEX
  8
0
 10
36.277021
 20
2.661706
 30
0.0
  0
SEQEND
  8
0
  0
POLYLINE
  8
0
 62
0
 70
0
 66
1
 10
0.0
 20
0.0
 30
0.0
  0
VERTEX
  8
0
 10
35.181722
 20
2.661706
 30
0.0
  0
VERTEX
  8
0
 10
35.546869
 20
2.661706
 30
0.0
  0
SEQEND
  8
0
  0
POLYLINE
  8
0
 62
0
 70
0
 66
1
 10
0.0
 20
0.0
 30
0.0
  0
VERTEX
  8
0
 10
34.816451
 20
2.661706
 30
0.0
  0
VERTEX
  8
0
 10
35.181722
 20
2.661706
 30
0.0
  0
SEQEND
  8
0
  0
POLYLINE
  8
0
 62
0
 70
0
 66
1
 10
0.0
 20
0.0
 30
0.0
  0
VERTEX
  8
0
 10
35.546869
 20
2.661706
 30
0.0
  0
VERTEX
  8
0
 10
35.912108
 20
2.661706
 30
0.0
  0
SEQEND
  8
0
  0
POLYLINE
  8
0
 62
0
 70
0
 66
1
 10
0.0
 20
0.0
 30
0.0
  0
VERTEX
  8
0
 10
36.277021
 20
2.466145
 30
0.0
  0
VERTEX
  8
0
 10
36.277021
 20
2.368284
 30
0.0
  0
SEQEND
  8
0
  0
POLYLINE
  8
0
 62
0
 70
0
 66
1
 10
0.0
 20
0.0
 30
0.0
  0
VERTEX
  8
0
 10
36.277021
 20
2.172227
 30
0.0
  0
VERTEX
  8
0
 10
36.050052
 20
2.172227
 30
0.0
  0
SEQEND
  8
0
  0
POLYLINE
  8
0
 62
0
 70
0
 66
1
 10
0.0
 20
0.0
 30
0.0
  0
VERTEX
  8
0
 10
35.822948
 20
2.172227
 30
0.0
  0
VERTEX
  8
0
 10
35.596153
 20
2.172227
 30
0.0
  0
SEQEND
  8
0
  0
POLYLINE
  8
0
 62
0
 70
0
 66
1
 10
0.0
 20
0.0
 30
0.0
  0
VERTEX
  8
0
 10
35.141958
 20
2.172227
 30
0.0
  0
VERTEX
  8
0
 10
35.141958
 20
2.065885
 30
0.0
  0
SEQEND
  8
0
  0
POLYLINE
  8
0
 62
0
 70
0
 66
1
 10
0.0
 20
0.0
 30
0.0
  0
VERTEX
  8
0
 10
35.141958
 20
1.959752
 30
0.0
  0
VERTEX
  8
0
 10
35.141958
 20
1.853427
 30
0.0
  0
SEQEND
  8
0
  0
POLYLINE
  8
0
 62
0
 70
0
 66
1
 10
0.0
 20
0.0
 30
0.0
  0
VERTEX
  8
0
 10
35.141958
 20
1.640414
 30
0.0
  0
VERTEX
  8
0
 10
35.35623
 20
1.640414
 30
0.0
  0
SEQEND
  8
0
  0
POLYLINE
  8
0
 62
0
 70
0
 66
1
 10
0.0
 20
0.0
 30
0.0
  0
VERTEX
  8
0
 10
35.141958
 20
1.747167
 30
0.0
  0
VERTEX
  8
0
 10
35.141958
 20
1.640414
 30
0.0
  0
SEQEND
  8
0
  0
POLYLINE
  8
0
 62
0
 70
0
 66
1
 10
0.0
 20
0.0
 30
0.0
  0
VERTEX
  8
0
 10
35.784735
 20
1.640414
 30
0.0
  0
VERTEX
  8
0
 10
35.999212
 20
1.640414
 30
0.0
  0
SEQEND
  8
0
  0
POLYLINE
  8
0
 62
0
 70
0
 66
1
 10
0.0
 20
0.0
 30
0.0
  0
VERTEX
  8
0
 10
35.596153
 20
2.172227
 30
0.0
  0
VERTEX
  8
0
 10
35.368967
 20
2.172227
 30
0.0
  0
SEQEND
  8
0
  0
POLYLINE
  8
0
 62
0
 70
0
 66
1
 10
0.0
 20
0.0
 30
0.0
  0
VERTEX
  8
0
 10
35.368967
 20
2.172227
 30
0.0
  0
VERTEX
  8
0
 10
35.141958
 20
2.172227
 30
0.0
  0
SEQEND
  8
0
  0
POLYLINE
  8
0
 62
0
 70
0
 66
1
 10
0.0
 20
0.0
 30
0.0
  0
VERTEX
  8
0
 10
35.141958
 20
2.065885
 30
0.0
  0
VERTEX
  8
0
 10
35.141958
 20
1.959752
 30
0.0
  0
SEQEND
  8
0
  0
POLYLINE
  8
0
 62
0
 70
0
 66
1
 10
0.0
 20
0.0
 30
0.0
  0
VERTEX
  8
0
 10
35.141958
 20
1.853427
 30
0.0
  0
VERTEX
  8
0
 10
35.141958
 20
1.747167
 30
0.0
  0
SEQEND
  8
0
  0
POLYLINE
  8
0
 62
0
 70
0
 66
1
 10
0.0
 20
0.0
 30
0.0
  0
VERTEX
  8
0
 10
35.35623
 20
1.640414
 30
0.0
  0
VERTEX
  8
0
 10
35.570628
 20
1.640414
 30
0.0
  0
SEQEND
  8
0
  0
POLYLINE
  8
0
 62
0
 70
0
 66
1
 10
0.0
 20
0.0
 30
0.0
  0
VERTEX
  8
0
 10
35.570628
 20
1.640414
 30
0.0
  0
VERTEX
  8
0
 10
35.784735
 20
1.640414
 30
0.0
  0
SEQEND
  8
0
  0
POLYLINE
  8
0
 62
0
 70
0
 66
1
 10
0.0
 20
0.0
 30
0.0
  0
VERTEX
  8
0
 10
35.999212
 20
1.640414
 30
0.0
  0
VERTEX
  8
0
 10
36.213521
 20
1.640414
 30
0.0
  0
SEQEND
  8
0
  0
POLYLINE
  8
0
 62
0
 70
0
 66
1
 10
0.0
 20
0.0
 30
0.0
  0
VERTEX
  8
0
 10
36.213521
 20
1.148289
 30
0.0
  0
VERTEX
  8
0
 10
35.99925
 20
1.148289
 30
0.0
  0
SEQEND
  8
0
  0
POLYLINE
  8
0
 62
0
 70
0
 66
1
 10
0.0
 20
0.0
 30
0.0
  0
VERTEX
  8
0
 10
35.99925
 20
1.148289
 30
0.0
  0
VERTEX
  8
0
 10
35.784851
 20
1.148289
 30
0.0
  0
SEQEND
  8
0
  0
POLYLINE
  8
0
 62
0
 70
0
 66
1
 10
0.0
 20
0.0
 30
0.0
  0
VERTEX
  8
0
 10
35.141958
 20
1.148289
 30
0.0
  0
VERTEX
  8
0
 10
35.141958
 20
1.031366
 30
0.0
  0
SEQEND
  8
0
  0
POLYLINE
  8
0
 62
0
 70
0
 66
1
 10
0.0
 20
0.0
 30
0.0
  0
VERTEX
  8
0
 10
35.784851
 20
1.148289
 30
0.0
  0
VERTEX
  8
0
 10
35.570744
 20
1.148289
 30
0.0
  0
SEQEND
  8
0
  0
POLYLINE
  8
0
 62
0
 70
0
 66
1
 10
0.0
 20
0.0
 30
0.0
  0
VERTEX
  8
0
 10
36.213521
 20
1.443796
 30
0.0
  0
VERTEX
  8
0
 10
36.213521
 20
1.345406
 30
0.0
  0
SEQEND
  8
0
  0
POLYLINE
  8
0
 62
0
 70
0
 66
1
 10
0.0
 20
0.0
 30
0.0
  0
VERTEX
  8
0
 10
36.213521
 20
1.640414
 30
0.0
  0
VERTEX
  8
0
 10
36.213521
 20
1.542008
 30
0.0
  0
SEQEND
  8
0
  0
POLYLINE
  8
0
 62
0
 70
0
 66
1
 10
0.0
 20
0.0
 30
0.0
  0
VERTEX
  8
0
 10
35.570744
 20
1.148289
 30
0.0
  0
VERTEX
  8
0
 10
35.356267
 20
1.148289
 30
0.0
  0
SEQEND
  8
0
  0
POLYLINE
  8
0
 62
0
 70
0
 66
1
 10
0.0
 20
0.0
 30
0.0
  0
VERTEX
  8
0
 10
35.356267
 20
1.148289
 30
0.0
  0
VERTEX
  8
0
 10
35.141958
 20
1.148289
 30
0.0
  0
SEQEND
  8
0
  0
POLYLINE
  8
0
 62
0
 70
0
 66
1
 10
0.0
 20
0.0
 30
0.0
  0
VERTEX
  8
0
 10
36.213521
 20
1.542008
 30
0.0
  0
VERTEX
  8
0
 10
36.213521
 20
1.443796
 30
0.0
  0
SEQEND
  8
0
  0
POLYLINE
  8
0
 62
0
 70
0
 66
1
 10
0.0
 20
0.0
 30
0.0
  0
VERTEX
  8
0
 10
35.141958
 20
1.031366
 30
0.0
  0
VERTEX
  8
0
 10
35.141958
 20
0.914673
 30
0.0
  0
SEQEND
  8
0
  0
POLYLINE
  8
0
 62
0
 70
0
 66
1
 10
0.0
 20
0.0
 30
0.0
  0
VERTEX
  8
0
 10
36.213521
 20
1.345406
 30
0.0
  0
VERTEX
  8
0
 10
36.213521
 20
1.247075
 30
0.0
  0
SEQEND
  8
0
  0
POLYLINE
  8
0
 62
0
 70
0
 66
1
 10
0.0
 20
0.0
 30
0.0
  0
VERTEX
  8
0
 10
36.213521
 20
1.247075
 30
0.0
  0
VERTEX
  8
0
 10
36.213521
 20
1.148289
 30
0.0
  0
SEQEND
  8
0
  0
POLYLINE
  8
0
 62
0
 70
0
 66
1
 10
0.0
 20
0.0
 30
0.0
  0
VERTEX
  8
0
 10
35.141958
 20
0.680631
 30
0.0
  0
VERTEX
  8
0
 10
35.141958
 20
0.56356
 30
0.0
  0
SEQEND
  8
0
  0
POLYLINE
  8
0
 62
0
 70
0
 66
1
 10
0.0
 20
0.0
 30
0.0
  0
VERTEX
  8
0
 10
35.377392
 20
0.56356
 30
0.0
  0
VERTEX
  8
0
 10
35.612966
 20
0.56356
 30
0.0
  0
SEQEND
  8
0
  0
POLYLINE
  8
0
 62
0
 70
0
 66
1
 10
0.0
 20
0.0
 30
0.0
  0
VERTEX
  8
0
 10
35.141958
 20
0.914673
 30
0.0
  0
VERTEX
  8
0
 10
35.141958
 20
0.797768
 30
0.0
  0
SEQEND
  8
0
  0
POLYLINE
  8
0
 62
0
 70
0
 66
1
 10
0.0
 20
0.0
 30
0.0
  0
VERTEX
  8
0
 10
35.612966
 20
0.56356
 30
0.0
  0
VERTEX
  8
0
 10
35.848219
 20
0.56356
 30
0.0
  0
SEQEND
  8
0
  0
POLYLINE
  8
0
 62
0
 70
0
 66
1
 10
0.0
 20
0.0
 30
0.0
  0
VERTEX
  8
0
 10
36.319354
 20
0.465683
 30
0.0
  0
VERTEX
  8
0
 10
36.319354
 20
0.367999
 30
0.0
  0
SEQEND
  8
0
  0
POLYLINE
  8
0
 62
0
 70
0
 66
1
 10
0.0
 20
0.0
 30
0.0
  0
VERTEX
  8
0
 10
35.848219
 20
0.56356
 30
0.0
  0
VERTEX
  8
0
 10
36.083879
 20
0.56356
 30
0.0
  0
SEQEND
  8
0
  0
POLYLINE
  8
0
 62
0
 70
0
 66
1
 10
0.0
 20
0.0
 30
0.0
  0
VERTEX
  8
0
 10
36.319354
 20
0.56356
 30
0.0
  0
VERTEX
  8
0
 10
36.319354
 20
0.465683
 30
0.0
  0
SEQEND
  8
0
  0
POLYLINE
  8
0
 62
0
 70
0
 66
1
 10
0.0
 20
0.0
 30
0.0
  0
VERTEX
  8
0
 10
36.319354
 20
0.367999
 30
0.0
  0
VERTEX
  8
0
 10
36.319354
 20
0.270138
 30
0.0
  0
SEQEND
  8
0
  0
POLYLINE
  8
0
 62
0
 70
0
 66
1
 10
0.0
 20
0.0
 30
0.0
  0
VERTEX
  8
0
 10
35.141958
 20
0.56356
 30
0.0
  0
VERTEX
  8
0
 10
35.377392
 20
0.56356
 30
0.0
  0
SEQEND
  8
0
  0
POLYLINE
  8
0
 62
0
 70
0
 66
1
 10
0.0
 20
0.0
 30
0.0
  0
VERTEX
  8
0
 10
36.319354
 20
0.270138
 30
0.0
  0
VERTEX
  8
0
 10
36.319354
 20
0.172336
 30
0.0
  0
SEQEND
  8
0
  0
POLYLINE
  8
0
 62
0
 70
0
 66
1
 10
0.0
 20
0.0
 30
0.0
  0
VERTEX
  8
0
 10
35.141958
 20
0.797768
 30
0.0
  0
VERTEX
  8
0
 10
35.141958
 20
0.680631
 30
0.0
  0
SEQEND
  8
0
  0
POLYLINE
  8
0
 62
0
 70
0
 66
1
 10
0.0
 20
0.0
 30
0.0
  0
VERTEX
  8
0
 10
36.083879
 20
0.56356
 30
0.0
  0
VERTEX
  8
0
 10
36.319354
 20
0.56356
 30
0.0
  0
SEQEND
  8
0
  0
POLYLINE
  8
0
 62
0
 70
0
 66
1
 10
0.0
 20
0.0
 30
0.0
  0
VERTEX
  8
0
 10
36.319354
 20
0.074081
 30
0.0
  0
VERTEX
  8
0
 10
35.945834
 20
0.074081
 30
0.0
  0
SEQEND
  8
0
  0
POLYLINE
  8
0
 62
0
 70
0
 66
1
 10
0.0
 20
0.0
 30
0.0
  0
VERTEX
  8
0
 10
35.945834
 20
0.074081
 30
0.0
  0
VERTEX
  8
0
 10
35.572092
 20
0.074081
 30
0.0
  0
SEQEND
  8
0
  0
POLYLINE
  8
0
 62
0
 70
0
 66
1
 10
0.0
 20
0.0
 30
0.0
  0
VERTEX
  8
0
 10
36.319354
 20
0.172336
 30
0.0
  0
VERTEX
  8
0
 10
36.319354
 20
0.074081
 30
0.0
  0
SEQEND
  8
0
  0
POLYLINE
  8
0
 62
0
 70
0
 66
1
 10
0.0
 20
0.0
 30
0.0
  0
VERTEX
  8
0
 10
37.263917
 20
0.018519
 30
0.0
  0
VERTEX
  8
0
 10
37.057195
 20
0.05105
 30
0.0
  0
SEQEND
  8
0
  0
POLYLINE
  8
0
 62
0
 70
0
 66
1
 10
0.0
 20
0.0
 30
0.0
  0
VERTEX
  8
0
 10
34.451396
 20
1.10924
 30
0.0
  0
VERTEX
  8
0
 10
34.451396
 20
1.626796
 30
0.0
  0
SEQEND
  8
0
  0
POLYLINE
  8
0
 62
0
 70
0
 66
1
 10
0.0
 20
0.0
 30
0.0
  0
VERTEX
  8
0
 10
34.451396
 20
1.626796
 30
0.0
  0
VERTEX
  8
0
 10
34.451396
 20
2.144481
 30
0.0
  0
SEQEND
  8
0
  0
POLYLINE
  8
0
 62
0
 70
0
 66
1
 10
0.0
 20
0.0
 30
0.0
  0
VERTEX
  8
0
 10
35.572092
 20
0.074081
 30
0.0
  0
VERTEX
  8
0
 10
35.198478
 20
0.074081
 30
0.0
  0
SEQEND
  8
0
  0
POLYLINE
  8
0
 62
0
 70
0
 66
1
 10
0.0
 20
0.0
 30
0.0
  0
VERTEX
  8
0
 10
34.451396
 20
0.074081
 30
0.0
  0
VERTEX
  8
0
 10
34.451396
 20
0.591506
 30
0.0
  0
SEQEND
  8
0
  0
POLYLINE
  8
0
 62
0
 70
0
 66
1
 10
0.0
 20
0.0
 30
0.0
  0
VERTEX
  8
0
 10
35.198478
 20
0.074081
 30
0.0
  0
VERTEX
  8
0
 10
34.824771
 20
0.074081
 30
0.0
  0
SEQEND
  8
0
  0
POLYLINE
  8
0
 62
0
 70
0
 66
1
 10
0.0
 20
0.0
 30
0.0
  0
VERTEX
  8
0
 10
34.824771
 20
0.074081
 30
0.0
  0
VERTEX
  8
0
 10
34.451396
 20
0.074081
 30
0.0
  0
SEQEND
  8
0
  0
POLYLINE
  8
0
 62
0
 70
0
 66
1
 10
0.0
 20
0.0
 30
0.0
  0
VERTEX
  8
0
 10
34.451396
 20
0.591506
 30
0.0
  0
VERTEX
  8
0
 10
34.451396
 20
1.10924
 30
0.0
  0
SEQEND
  8
0
  0
POLYLINE
  8
0
 62
0
 70
0
 66
1
 10
0.0
 20
0.0
 30
0.0
  0
VERTEX
  8
0
 10
34.451396
 20
2.144481
 30
0.0
  0
VERTEX
  8
0
 10
34.451396
 20
2.661706
 30
0.0
  0
SEQEND
  8
0
  0
POLYLINE
  8
0
 62
0
 70
0
 66
1
 10
0.0
 20
0.0
 30
0.0
  0
VERTEX
  8
0
 10
37.468966
 20
1.325322
 30
0.0
  0
VERTEX
  8
0
 10
37.655597
 20
1.230818
 30
0.0
  0
SEQEND
  8
0
  0
POLYLINE
  8
0
 62
0
 70
0
 66
1
 10
0.0
 20
0.0
 30
0.0
  0
VERTEX
  8
0
 10
36.721536
 20
1.080306
 30
0.0
  0
VERTEX
  8
0
 10
36.869416
 20
1.228764
 30
0.0
  0
SEQEND
  8
0
  0
POLYLINE
  8
0
 62
0
 70
0
 66
1
 10
0.0
 20
0.0
 30
0.0
  0
VERTEX
  8
0
 10
37.055514
 20
1.32423
 30
0.0
  0
VERTEX
  8
0
 10
37.26216
 20
1.357308
 30
0.0
  0
SEQEND
  8
0
  0
POLYLINE
  8
0
 62
0
 70
0
 66
1
 10
0.0
 20
0.0
 30
0.0
  0
VERTEX
  8
0
 10
36.626786
 20
0.8938
 30
0.0
  0
VERTEX
  8
0
 10
36.721536
 20
1.080306
 30
0.0
  0
SEQEND
  8
0
  0
POLYLINE
  8
0
 62
0
 70
0
 66
1
 10
0.0
 20
0.0
 30
0.0
  0
VERTEX
  8
0
 10
37.655597
 20
1.230818
 30
0.0
  0
VERTEX
  8
0
 10
37.804251
 20
1.083134
 30
0.0
  0
SEQEND
  8
0
  0
POLYLINE
  8
0
 62
0
 70
0
 66
1
 10
0.0
 20
0.0
 30
0.0
  0
VERTEX
  8
0
 10
36.627332
 20
0.480346
 30
0.0
  0
VERTEX
  8
0
 10
36.594527
 20
0.687036
 30
0.0
  0
SEQEND
  8
0
  0
POLYLINE
  8
0
 62
0
 70
0
 66
1
 10
0.0
 20
0.0
 30
0.0
  0
VERTEX
  8
0
 10
37.26216
 20
1.357308
 30
0.0
  0
VERTEX
  8
0
 10
37.468966
 20
1.325322
 30
0.0
  0
SEQEND
  8
0
  0
POLYLINE
  8
0
 62
0
 70
0
 66
1
 10
0.0
 20
0.0
 30
0.0
  0
VERTEX
  8
0
 10
36.594527
 20
0.687036
 30
0.0
  0
VERTEX
  8
0
 10
36.626786
 20
0.8938
 30
0.0
  0
SEQEND
  8
0
  0
POLYLINE
  8
0
 62
0
 70
0
 66
1
 10
0.0
 20
0.0
 30
0.0
  0
VERTEX
  8
0
 10
36.869416
 20
1.228764
 30
0.0
  0
VERTEX
  8
0
 10
37.055514
 20
1.32423
 30
0.0
  0
SEQEND
  8
0
  0
POLYLINE
  8
0
 62
0
 70
0
 66
1
 10
0.0
 20
0.0
 30
0.0
  0
VERTEX
  8
0
 10
36.870814
 20
0.146047
 30
0.0
  0
VERTEX
  8
0
 10
36.722552
 20
0.294122
 30
0.0
  0
SEQEND
  8
0
  0
POLYLINE
  8
0
 62
0
 70
0
 66
1
 10
0.0
 20
0.0
 30
0.0
  0
VERTEX
  8
0
 10
36.722552
 20
0.294122
 30
0.0
  0
VERTEX
  8
0
 10
36.627332
 20
0.480346
 30
0.0
  0
SEQEND
  8
0
  0
POLYLINE
  8
0
 62
0
 70
0
 66
1
 10
0.0
 20
0.0
 30
0.0
  0
VERTEX
  8
0
 10
37.057195
 20
0.05105
 30
0.0
  0
VERTEX
  8
0
 10
36.870814
 20
0.146047
 30
0.0
  0
SEQEND
  8
0
  0
POLYLINE
  8
0
 62
0
 70
0
 66
1
 10
0.0
 20
0.0
 30
0.0
  0
VERTEX
  8
0
 10
37.470987
 20
0.051885
 30
0.0
  0
VERTEX
  8
0
 10
37.263917
 20
0.018519
 30
0.0
  0
SEQEND
  8
0
  0
POLYLINE
  8
0
 62
0
 70
0
 66
1
 10
0.0
 20
0.0
 30
0.0
  0
VERTEX
  8
0
 10
37.528842
 20
0.169233
 30
0.0
  0
VERTEX
  8
0
 10
37.64492
 20
0.239499
 30
0.0
  0
SEQEND
  8
0
  0
POLYLINE
  8
0
 62
0
 70
0
 66
1
 10
0.0
 20
0.0
 30
0.0
  0
VERTEX
  8
0
 10
37.399368
 20
0.128271
 30
0.0
  0
VERTEX
  8
0
 10
37.528842
 20
0.169233
 30
0.0
  0
SEQEND
  8
0
  0
POLYLINE
  8
0
 62
0
 70
0
 66
1
 10
0.0
 20
0.0
 30
0.0
  0
VERTEX
  8
0
 10
37.263917
 20
0.11906
 30
0.0
  0
VERTEX
  8
0
 10
37.399368
 20
0.128271
 30
0.0
  0
SEQEND
  8
0
  0
POLYLINE
  8
0
 62
0
 70
0
 66
1
 10
0.0
 20
0.0
 30
0.0
  0
VERTEX
  8
0
 10
37.899962
 20
0.897162
 30
0.0
  0
VERTEX
  8
0
 10
37.933312
 20
0.69056
 30
0.0
  0
SEQEND
  8
0
  0
POLYLINE
  8
0
 62
0
 70
0
 66
1
 10
0.0
 20
0.0
 30
0.0
  0
VERTEX
  8
0
 10
37.64492
 20
0.239499
 30
0.0
  0
VERTEX
  8
0
 10
37.741337
 20
0.335336
 30
0.0
  0
SEQEND
  8
0
  0
POLYLINE
  8
0
 62
0
 70
0
 66
1
 10
0.0
 20
0.0
 30
0.0
  0
VERTEX
  8
0
 10
37.741337
 20
0.335336
 30
0.0
  0
VERTEX
  8
0
 10
37.8122
 20
0.450936
 30
0.0
  0
SEQEND
  8
0
  0
POLYLINE
  8
0
 62
0
 70
0
 66
1
 10
0.0
 20
0.0
 30
0.0
  0
VERTEX
  8
0
 10
37.805701
 20
0.296476
 30
0.0
  0
VERTEX
  8
0
 10
37.657473
 20
0.147667
 30
0.0
  0
SEQEND
  8
0
  0
POLYLINE
  8
0
 62
0
 70
0
 66
1
 10
0.0
 20
0.0
 30
0.0
  0
VERTEX
  8
0
 10
37.804251
 20
1.083134
 30
0.0
  0
VERTEX
  8
0
 10
37.899962
 20
0.897162
 30
0.0
  0
SEQEND
  8
0
  0
POLYLINE
  8
0
 62
0
 70
0
 66
1
 10
0.0
 20
0.0
 30
0.0
  0
VERTEX
  8
0
 10
37.900767
 20
0.48337
 30
0.0
  0
VERTEX
  8
0
 10
37.805701
 20
0.296476
 30
0.0
  0
SEQEND
  8
0
  0
POLYLINE
  8
0
 62
0
 70
0
 66
1
 10
0.0
 20
0.0
 30
0.0
  0
VERTEX
  8
0
 10
37.657473
 20
0.147667
 30
0.0
  0
VERTEX
  8
0
 10
37.470987
 20
0.051885
 30
0.0
  0
SEQEND
  8
0
  0
POLYLINE
  8
0
 62
0
 70
0
 66
1
 10
0.0
 20
0.0
 30
0.0
  0
VERTEX
  8
0
 10
37.933312
 20
0.69056
 30
0.0
  0
VERTEX
  8
0
 10
37.900767
 20
0.48337
 30
0.0
  0
SEQEND
  8
0
  0
POLYLINE
  8
0
 62
0
 70
0
 66
1
 10
0.0
 20
0.0
 30
0.0
  0
VERTEX
  8
0
 10
37.603073
 20
1.169936
 30
0.0
  0
VERTEX
  8
0
 10
37.48104
 20
1.229512
 30
0.0
  0
SEQEND
  8
0
  0
POLYLINE
  8
0
 62
0
 70
0
 66
1
 10
0.0
 20
0.0
 30
0.0
  0
VERTEX
  8
0
 10
37.863948
 20
0.715559
 30
0.0
  0
VERTEX
  8
0
 10
37.841789
 20
0.849425
 30
0.0
  0
SEQEND
  8
0
  0
POLYLINE
  8
0
 62
0
 70
0
 66
1
 10
0.0
 20
0.0
 30
0.0
  0
VERTEX
  8
0
 10
37.8122
 20
0.450936
 30
0.0
  0
VERTEX
  8
0
 10
37.853925
 20
0.58013
 30
0.0
  0
SEQEND
  8
0
  0
POLYLINE
  8
0
 62
0
 70
0
 66
1
 10
0.0
 20
0.0
 30
0.0
  0
VERTEX
  8
0
 10
37.853925
 20
0.58013
 30
0.0
  0
VERTEX
  8
0
 10
37.863948
 20
0.715559
 30
0.0
  0
SEQEND
  8
0
  0
POLYLINE
  8
0
 62
0
 70
0
 66
1
 10
0.0
 20
0.0
 30
0.0
  0
VERTEX
  8
0
 10
37.841789
 20
0.849425
 30
0.0
  0
VERTEX
  8
0
 10
37.788587
 20
0.974527
 30
0.0
  0
SEQEND
  8
0
  0
POLYLINE
  8
0
 62
0
 70
0
 66
1
 10
0.0
 20
0.0
 30
0.0
  0
VERTEX
  8
0
 10
37.788587
 20
0.974527
 30
0.0
  0
VERTEX
  8
0
 10
37.707549
 20
1.083237
 30
0.0
  0
SEQEND
  8
0
  0
POLYLINE
  8
0
 62
0
 70
0
 66
1
 10
0.0
 20
0.0
 30
0.0
  0
VERTEX
  8
0
 10
37.707549
 20
1.083237
 30
0.0
  0
VERTEX
  8
0
 10
37.603073
 20
1.169936
 30
0.0
  0
SEQEND
  8
0
  0
POLYLINE
  8
0
 62
0
 70
0
 66
1
 10
0.0
 20
0.0
 30
0.0
  0
VERTEX
  8
0
 10
37.2126
 20
1.255662
 30
0.0
  0
VERTEX
  8
0
 10
37.081576
 20
1.220764
 30
0.0
  0
SEQEND
  8
0
  0
POLYLINE
  8
0
 62
0
 70
0
 66
1
 10
0.0
 20
0.0
 30
0.0
  0
VERTEX
  8
0
 10
36.962291
 20
1.155934
 30
0.0
  0
VERTEX
  8
0
 10
36.861674
 20
1.064733
 30
0.0
  0
SEQEND
  8
0
  0
POLYLINE
  8
0
 62
0
 70
0
 66
1
 10
0.0
 20
0.0
 30
0.0
  0
VERTEX
  8
0
 10
37.48104
 20
1.229512
 30
0.0
  0
VERTEX
  8
0
 10
37.348512
 20
1.258626
 30
0.0
  0
SEQEND
  8
0
  0
POLYLINE
  8
0
 62
0
 70
0
 66
1
 10
0.0
 20
0.0
 30
0.0
  0
VERTEX
  8
0
 10
37.081576
 20
1.220764
 30
0.0
  0
VERTEX
  8
0
 10
36.962291
 20
1.155934
 30
0.0
  0
SEQEND
  8
0
  0
POLYLINE
  8
0
 62
0
 70
0
 66
1
 10
0.0
 20
0.0
 30
0.0
  0
VERTEX
  8
0
 10
37.348512
 20
1.258626
 30
0.0
  0
VERTEX
  8
0
 10
37.2126
 20
1.255662
 30
0.0
  0
SEQEND
  8
0
  0
POLYLINE
  8
0
 62
0
 70
0
 66
1
 10
0.0
 20
0.0
 30
0.0
  0
VERTEX
  8
0
 10
36.741299
 20
0.516299
 30
0.0
  0
VERTEX
  8
0
 10
36.771998
 20
0.433636
 30
0.0
  0
SEQEND
  8
0
  0
POLYLINE
  8
0
 62
0
 70
0
 66
1
 10
0.0
 20
0.0
 30
0.0
  0
VERTEX
  8
0
 10
36.724377
 20
0.602419
 30
0.0
  0
VERTEX
  8
0
 10
36.741299
 20
0.516299
 30
0.0
  0
SEQEND
  8
0
  0
POLYLINE
  8
0
 62
0
 70
0
 66
1
 10
0.0
 20
0.0
 30
0.0
  0
VERTEX
  8
0
 10
36.737751
 20
0.825177
 30
0.0
  0
VERTEX
  8
0
 10
36.721521
 20
0.69056
 30
0.0
  0
SEQEND
  8
0
  0
POLYLINE
  8
0
 62
0
 70
0
 66
1
 10
0.0
 20
0.0
 30
0.0
  0
VERTEX
  8
0
 10
37.091169
 20
0.147829
 30
0.0
  0
VERTEX
  8
0
 10
37.176637
 20
0.126416
 30
0.0
  0
SEQEND
  8
0
  0
POLYLINE
  8
0
 62
0
 70
0
 66
1
 10
0.0
 20
0.0
 30
0.0
  0
VERTEX
  8
0
 10
36.861674
 20
1.064733
 30
0.0
  0
VERTEX
  8
0
 10
36.785448
 20
0.952479
 30
0.0
  0
SEQEND
  8
0
  0
POLYLINE
  8
0
 62
0
 70
0
 66
1
 10
0.0
 20
0.0
 30
0.0
  0
VERTEX
  8
0
 10
36.771998
 20
0.433636
 30
0.0
  0
VERTEX
  8
0
 10
36.815584
 20
0.357063
 30
0.0
  0
SEQEND
  8
0
  0
POLYLINE
  8
0
 62
0
 70
0
 66
1
 10
0.0
 20
0.0
 30
0.0
  0
VERTEX
  8
0
 10
36.936264
 20
0.230047
 30
0.0
  0
VERTEX
  8
0
 10
37.010206
 20
0.182765
 30
0.0
  0
SEQEND
  8
0
  0
POLYLINE
  8
0
 62
0
 70
0
 66
1
 10
0.0
 20
0.0
 30
0.0
  0
VERTEX
  8
0
 10
36.785448
 20
0.952479
 30
0.0
  0
VERTEX
  8
0
 10
36.737751
 20
0.825177
 30
0.0
  0
SEQEND
  8
0
  0
POLYLINE
  8
0
 62
0
 70
0
 66
1
 10
0.0
 20
0.0
 30
0.0
  0
VERTEX
  8
0
 10
36.870582
 20
0.288893
 30
0.0
  0
VERTEX
  8
0
 10
36.936264
 20
0.230047
 30
0.0
  0
SEQEND
  8
0
  0
POLYLINE
  8
0
 62
0
 70
0
 66
1
 10
0.0
 20
0.0
 30
0.0
  0
VERTEX
  8
0
 10
36.721521
 20
0.69056
 30
0.0
  0
VERTEX
  8
0
 10
36.724377
 20
0.602419
 30
0.0
  0
SEQEND
  8
0
  0
POLYLINE
  8
0
 62
0
 70
0
 66
1
 10
0.0
 20
0.0
 30
0.0
  0
VERTEX
  8
0
 10
36.815584
 20
0.357063
 30
0.0
  0
VERTEX
  8
0
 10
36.870582
 20
0.288893
 30
0.0
  0
SEQEND
  8
0
  0
POLYLINE
  8
0
 62
0
 70
0
 66
1
 10
0.0
 20
0.0
 30
0.0
  0
VERTEX
  8
0
 10
37.010206
 20
0.182765
 30
0.0
  0
VERTEX
  8
0
 10
37.091169
 20
0.147829
 30
0.0
  0
SEQEND
  8
0
  0
POLYLINE
  8
0
 62
0
 70
0
 66
1
 10
0.0
 20
0.0
 30
0.0
  0
VERTEX
  8
0
 10
36.999333
 20
0.775108
 30
0.0
  0
VERTEX
  8
0
 10
36.999333
 20
0.93398
 30
0.0
  0
SEQEND
  8
0
  0
POLYLINE
  8
0
 62
0
 70
0
 66
1
 10
0.0
 20
0.0
 30
0.0
  0
VERTEX
  8
0
 10
36.999333
 20
0.457696
 30
0.0
  0
VERTEX
  8
0
 10
36.999333
 20
0.61651
 30
0.0
  0
SEQEND
  8
0
  0
POLYLINE
  8
0
 62
0
 70
0
 66
1
 10
0.0
 20
0.0
 30
0.0
  0
VERTEX
  8
0
 10
37.244775
 20
1.092727
 30
0.0
  0
VERTEX
  8
0
 10
37.30625
 20
1.092727
 30
0.0
  0
SEQEND
  8
0
  0
POLYLINE
  8
0
 62
0
 70
0
 66
1
 10
0.0
 20
0.0
 30
0.0
  0
VERTEX
  8
0
 10
36.999333
 20
0.298977
 30
0.0
  0
VERTEX
  8
0
 10
36.999333
 20
0.457696
 30
0.0
  0
SEQEND
  8
0
  0
POLYLINE
  8
0
 62
0
 70
0
 66
1
 10
0.0
 20
0.0
 30
0.0
  0
VERTEX
  8
0
 10
37.176637
 20
0.126416
 30
0.0
  0
VERTEX
  8
0
 10
37.263917
 20
0.11906
 30
0.0
  0
SEQEND
  8
0
  0
POLYLINE
  8
0
 62
0
 70
0
 66
1
 10
0.0
 20
0.0
 30
0.0
  0
VERTEX
  8
0
 10
36.999333
 20
0.61651
 30
0.0
  0
VERTEX
  8
0
 10
36.999333
 20
0.775108
 30
0.0
  0
SEQEND
  8
0
  0
POLYLINE
  8
0
 62
0
 70
0
 66
1
 10
0.0
 20
0.0
 30
0.0
  0
VERTEX
  8
0
 10
36.999333
 20
1.092727
 30
0.0
  0
VERTEX
  8
0
 10
37.060705
 20
1.092727
 30
0.0
  0
SEQEND
  8
0
  0
POLYLINE
  8
0
 62
0
 70
0
 66
1
 10
0.0
 20
0.0
 30
0.0
  0
VERTEX
  8
0
 10
36.999333
 20
0.93398
 30
0.0
  0
VERTEX
  8
0
 10
36.999333
 20
1.092727
 30
0.0
  0
SEQEND
  8
0
  0
POLYLINE
  8
0
 62
0
 70
0
 66
1
 10
0.0
 20
0.0
 30
0.0
  0
VERTEX
  8
0
 10
37.060705
 20
1.092727
 30
0.0
  0
VERTEX
  8
0
 10
37.12227
 20
1.092727
 30
0.0
  0
SEQEND
  8
0
  0
POLYLINE
  8
0
 62
0
 70
0
 66
1
 10
0.0
 20
0.0
 30
0.0
  0
VERTEX
  8
0
 10
37.12227
 20
1.092727
 30
0.0
  0
VERTEX
  8
0
 10
37.183558
 20
1.092727
 30
0.0
  0
SEQEND
  8
0
  0
POLYLINE
  8
0
 62
0
 70
0
 66
1
 10
0.0
 20
0.0
 30
0.0
  0
VERTEX
  8
0
 10
37.183558
 20
1.092727
 30
0.0
  0
VERTEX
  8
0
 10
37.244775
 20
1.092727
 30
0.0
  0
SEQEND
  8
0
  0
POLYLINE
  8
0
 62
0
 70
0
 66
1
 10
0.0
 20
0.0
 30
0.0
  0
VERTEX
  8
0
 10
37.30625
 20
1.092727
 30
0.0
  0
VERTEX
  8
0
 10
37.38497
 20
1.087106
 30
0.0
  0
SEQEND
  8
0
  0
POLYLINE
  8
0
 62
0
 70
0
 66
1
 10
0.0
 20
0.0
 30
0.0
  0
VERTEX
  8
0
 10
37.571135
 20
0.839406
 30
0.0
  0
VERTEX
  8
0
 10
37.565768
 20
0.806314
 30
0.0
  0
SEQEND
  8
0
  0
POLYLINE
  8
0
 62
0
 70
0
 66
1
 10
0.0
 20
0.0
 30
0.0
  0
VERTEX
  8
0
 10
37.460501
 20
1.065664
 30
0.0
  0
VERTEX
  8
0
 10
37.52403
 20
1.019876
 30
0.0
  0
SEQEND
  8
0
  0
POLYLINE
  8
0
 62
0
 70
0
 66
1
 10
0.0
 20
0.0
 30
0.0
  0
VERTEX
  8
0
 10
37.565768
 20
0.806314
 30
0.0
  0
VERTEX
  8
0
 10
37.554849
 20
0.774462
 30
0.0
  0
SEQEND
  8
0
  0
POLYLINE
  8
0
 62
0
 70
0
 66
1
 10
0.0
 20
0.0
 30
0.0
  0
VERTEX
  8
0
 10
37.570833
 20
0.873123
 30
0.0
  0
VERTEX
  8
0
 10
37.571135
 20
0.839406
 30
0.0
  0
SEQEND
  8
0
  0
POLYLINE
  8
0
 62
0
 70
0
 66
1
 10
0.0
 20
0.0
 30
0.0
  0
VERTEX
  8
0
 10
37.38497
 20
1.087106
 30
0.0
  0
VERTEX
  8
0
 10
37.460501
 20
1.065664
 30
0.0
  0
SEQEND
  8
0
  0
POLYLINE
  8
0
 62
0
 70
0
 66
1
 10
0.0
 20
0.0
 30
0.0
  0
VERTEX
  8
0
 10
37.52403
 20
1.019876
 30
0.0
  0
VERTEX
  8
0
 10
37.560814
 20
0.951067
 30
0.0
  0
SEQEND
  8
0
  0
POLYLINE
  8
0
 62
0
 70
0
 66
1
 10
0.0
 20
0.0
 30
0.0
  0
VERTEX
  8
0
 10
37.560814
 20
0.951067
 30
0.0
  0
VERTEX
  8
0
 10
37.570833
 20
0.873123
 30
0.0
  0
SEQEND
  8
0
  0
POLYLINE
  8
0
 62
0
 70
0
 66
1
 10
0.0
 20
0.0
 30
0.0
  0
VERTEX
  8
0
 10
37.554849
 20
0.774462
 30
0.0
  0
VERTEX
  8
0
 10
37.538857
 20
0.745147
 30
0.0
  0
SEQEND
  8
0
  0
POLYLINE
  8
0
 62
0
 70
0
 66
1
 10
0.0
 20
0.0
 30
0.0
  0
VERTEX
  8
0
 10
37.464478
 20
0.678271
 30
0.0
  0
VERTEX
  8
0
 10
37.433369
 20
0.665387
 30
0.0
  0
SEQEND
  8
0
  0
POLYLINE
  8
0
 62
0
 70
0
 66
1
 10
0.0
 20
0.0
 30
0.0
  0
VERTEX
  8
0
 10
37.517929
 20
0.718669
 30
0.0
  0
VERTEX
  8
0
 10
37.492844
 20
0.696138
 30
0.0
  0
SEQEND
  8
0
  0
POLYLINE
  8
0
 62
0
 70
0
 66
1
 10
0.0
 20
0.0
 30
0.0
  0
VERTEX
  8
0
 10
37.538857
 20
0.745147
 30
0.0
  0
VERTEX
  8
0
 10
37.517929
 20
0.718669
 30
0.0
  0
SEQEND
  8
0
  0
POLYLINE
  8
0
 62
0
 70
0
 66
1
 10
0.0
 20
0.0
 30
0.0
  0
VERTEX
  8
0
 10
37.492844
 20
0.696138
 30
0.0
  0
VERTEX
  8
0
 10
37.464478
 20
0.678271
 30
0.0
  0
SEQEND
  8
0
  0
POLYLINE
  8
0
 62
0
 70
0
 66
1
 10
0.0
 20
0.0
 30
0.0
  0
VERTEX
  8
0
 10
37.502096
 20
0.448118
 30
0.0
  0
VERTEX
  8
0
 10
37.546954
 20
0.378985
 30
0.0
  0
SEQEND
  8
0
  0
POLYLINE
  8
0
 62
0
 70
0
 66
1
 10
0.0
 20
0.0
 30
0.0
  0
VERTEX
  8
0
 10
37.367104
 20
0.656164
 30
0.0
  0
VERTEX
  8
0
 10
37.412075
 20
0.586857
 30
0.0
  0
SEQEND
  8
0
  0
POLYLINE
  8
0
 62
0
 70
0
 66
1
 10
0.0
 20
0.0
 30
0.0
  0
VERTEX
  8
0
 10
37.546954
 20
0.378985
 30
0.0
  0
VERTEX
  8
0
 10
37.592
 20
0.30956
 30
0.0
  0
SEQEND
  8
0
  0
POLYLINE
  8
0
 62
0
 70
0
 66
1
 10
0.0
 20
0.0
 30
0.0
  0
VERTEX
  8
0
 10
37.484085
 20
0.30956
 30
0.0
  0
VERTEX
  8
0
 10
37.457062
 20
0.30956
 30
0.0
  0
SEQEND
  8
0
  0
POLYLINE
  8
0
 62
0
 70
0
 66
1
 10
0.0
 20
0.0
 30
0.0
  0
VERTEX
  8
0
 10
37.433369
 20
0.665387
 30
0.0
  0
VERTEX
  8
0
 10
37.400805
 20
0.657987
 30
0.0
  0
SEQEND
  8
0
  0
POLYLINE
  8
0
 62
0
 70
0
 66
1
 10
0.0
 20
0.0
 30
0.0
  0
VERTEX
  8
0
 10
37.400805
 20
0.657987
 30
0.0
  0
VERTEX
  8
0
 10
37.367104
 20
0.656164
 30
0.0
  0
SEQEND
  8
0
  0
POLYLINE
  8
0
 62
0
 70
0
 66
1
 10
0.0
 20
0.0
 30
0.0
  0
VERTEX
  8
0
 10
37.412075
 20
0.586857
 30
0.0
  0
VERTEX
  8
0
 10
37.457187
 20
0.51733
 30
0.0
  0
SEQEND
  8
0
  0
POLYLINE
  8
0
 62
0
 70
0
 66
1
 10
0.0
 20
0.0
 30
0.0
  0
VERTEX
  8
0
 10
37.457187
 20
0.51733
 30
0.0
  0
VERTEX
  8
0
 10
37.502096
 20
0.448118
 30
0.0
  0
SEQEND
  8
0
  0
POLYLINE
  8
0
 62
0
 70
0
 66
1
 10
0.0
 20
0.0
 30
0.0
  0
VERTEX
  8
0
 10
37.538227
 20
0.30956
 30
0.0
  0
VERTEX
  8
0
 10
37.510996
 20
0.30956
 30
0.0
  0
SEQEND
  8
0
  0
POLYLINE
  8
0
 62
0
 70
0
 66
1
 10
0.0
 20
0.0
 30
0.0
  0
VERTEX
  8
0
 10
37.510996
 20
0.30956
 30
0.0
  0
VERTEX
  8
0
 10
37.484085
 20
0.30956
 30
0.0
  0
SEQEND
  8
0
  0
POLYLINE
  8
0
 62
0
 70
0
 66
1
 10
0.0
 20
0.0
 30
0.0
  0
VERTEX
  8
0
 10
37.565018
 20
0.30956
 30
0.0
  0
VERTEX
  8
0
 10
37.538227
 20
0.30956
 30
0.0
  0
SEQEND
  8
0
  0
POLYLINE
  8
0
 62
0
 70
0
 66
1
 10
0.0
 20
0.0
 30
0.0
  0
VERTEX
  8
0
 10
37.592
 20
0.30956
 30
0.0
  0
VERTEX
  8
0
 10
37.565018
 20
0.30956
 30
0.0
  0
SEQEND
  8
0
  0
POLYLINE
  8
0
 62
0
 70
0
 66
1
 10
0.0
 20
0.0
 30
0.0
  0
VERTEX
  8
0
 10
37.457062
 20
0.30956
 30
0.0
  0
VERTEX
  8
0
 10
37.41315
 20
0.378868
 30
0.0
  0
SEQEND
  8
0
  0
POLYLINE
  8
0
 62
0
 70
0
 66
1
 10
0.0
 20
0.0
 30
0.0
  0
VERTEX
  8
0
 10
37.369099
 20
0.448394
 30
0.0
  0
VERTEX
  8
0
 10
37.325247
 20
0.517606
 30
0.0
  0
SEQEND
  8
0
  0
POLYLINE
  8
0
 62
0
 70
0
 66
1
 10
0.0
 20
0.0
 30
0.0
  0
VERTEX
  8
0
 10
37.237458
 20
0.656164
 30
0.0
  0
VERTEX
  8
0
 10
37.215506
 20
0.656164
 30
0.0
  0
SEQEND
  8
0
  0
POLYLINE
  8
0
 62
0
 70
0
 66
1
 10
0.0
 20
0.0
 30
0.0
  0
VERTEX
  8
0
 10
37.19398
 20
0.656164
 30
0.0
  0
VERTEX
  8
0
 10
37.172501
 20
0.656164
 30
0.0
  0
SEQEND
  8
0
  0
POLYLINE
  8
0
 62
0
 70
0
 66
1
 10
0.0
 20
0.0
 30
0.0
  0
VERTEX
  8
0
 10
37.128979
 20
0.586857
 30
0.0
  0
VERTEX
  8
0
 10
37.128979
 20
0.51733
 30
0.0
  0
SEQEND
  8
0
  0
POLYLINE
  8
0
 62
0
 70
0
 66
1
 10
0.0
 20
0.0
 30
0.0
  0
VERTEX
  8
0
 10
37.41315
 20
0.378868
 30
0.0
  0
VERTEX
  8
0
 10
37.369099
 20
0.448394
 30
0.0
  0
SEQEND
  8
0
  0
POLYLINE
  8
0
 62
0
 70
0
 66
1
 10
0.0
 20
0.0
 30
0.0
  0
VERTEX
  8
0
 10
37.281445
 20
0.58674
 30
0.0
  0
VERTEX
  8
0
 10
37.237458
 20
0.656164
 30
0.0
  0
SEQEND
  8
0
  0
POLYLINE
  8
0
 62
0
 70
0
 66
1
 10
0.0
 20
0.0
 30
0.0
  0
VERTEX
  8
0
 10
37.325247
 20
0.517606
 30
0.0
  0
VERTEX
  8
0
 10
37.281445
 20
0.58674
 30
0.0
  0
SEQEND
  8
0
  0
POLYLINE
  8
0
 62
0
 70
0
 66
1
 10
0.0
 20
0.0
 30
0.0
  0
VERTEX
  8
0
 10
37.215506
 20
0.656164
 30
0.0
  0
VERTEX
  8
0
 10
37.19398
 20
0.656164
 30
0.0
  0
SEQEND
  8
0
  0
POLYLINE
  8
0
 62
0
 70
0
 66
1
 10
0.0
 20
0.0
 30
0.0
  0
VERTEX
  8
0
 10
37.172501
 20
0.656164
 30
0.0
  0
VERTEX
  8
0
 10
37.150794
 20
0.656164
 30
0.0
  0
SEQEND
  8
0
  0
POLYLINE
  8
0
 62
0
 70
0
 66
1
 10
0.0
 20
0.0
 30
0.0
  0
VERTEX
  8
0
 10
37.150794
 20
0.656164
 30
0.0
  0
VERTEX
  8
0
 10
37.128979
 20
0.656164
 30
0.0
  0
SEQEND
  8
0
  0
POLYLINE
  8
0
 62
0
 70
0
 66
1
 10
0.0
 20
0.0
 30
0.0
  0
VERTEX
  8
0
 10
37.128979
 20
0.656164
 30
0.0
  0
VERTEX
  8
0
 10
37.128979
 20
0.586857
 30
0.0
  0
SEQEND
  8
0
  0
POLYLINE
  8
0
 62
0
 70
0
 66
1
 10
0.0
 20
0.0
 30
0.0
  0
VERTEX
  8
0
 10
37.128979
 20
0.378985
 30
0.0
  0
VERTEX
  8
0
 10
37.128979
 20
0.30956
 30
0.0
  0
SEQEND
  8
0
  0
POLYLINE
  8
0
 62
0
 70
0
 66
1
 10
0.0
 20
0.0
 30
0.0
  0
VERTEX
  8
0
 10
37.128979
 20
0.448118
 30
0.0
  0
VERTEX
  8
0
 10
37.128979
 20
0.378985
 30
0.0
  0
SEQEND
  8
0
  0
POLYLINE
  8
0
 62
0
 70
0
 66
1
 10
0.0
 20
0.0
 30
0.0
  0
VERTEX
  8
0
 10
37.051575
 20
0.303242
 30
0.0
  0
VERTEX
  8
0
 10
37.025532
 20
0.301115
 30
0.0
  0
SEQEND
  8
0
  0
POLYLINE
  8
0
 62
0
 70
0
 66
1
 10
0.0
 20
0.0
 30
0.0
  0
VERTEX
  8
0
 10
37.279792
 20
0.743477
 30
0.0
  0
VERTEX
  8
0
 10
37.327195
 20
0.745544
 30
0.0
  0
SEQEND
  8
0
  0
POLYLINE
  8
0
 62
0
 70
0
 66
1
 10
0.0
 20
0.0
 30
0.0
  0
VERTEX
  8
0
 10
37.128979
 20
0.51733
 30
0.0
  0
VERTEX
  8
0
 10
37.128979
 20
0.448118
 30
0.0
  0
SEQEND
  8
0
  0
POLYLINE
  8
0
 62
0
 70
0
 66
1
 10
0.0
 20
0.0
 30
0.0
  0
VERTEX
  8
0
 10
37.128979
 20
0.30956
 30
0.0
  0
VERTEX
  8
0
 10
37.103055
 20
0.307444
 30
0.0
  0
SEQEND
  8
0
  0
POLYLINE
  8
0
 62
0
 70
0
 66
1
 10
0.0
 20
0.0
 30
0.0
  0
VERTEX
  8
0
 10
37.103055
 20
0.307444
 30
0.0
  0
VERTEX
  8
0
 10
37.077315
 20
0.305343
 30
0.0
  0
SEQEND
  8
0
  0
POLYLINE
  8
0
 62
0
 70
0
 66
1
 10
0.0
 20
0.0
 30
0.0
  0
VERTEX
  8
0
 10
37.077315
 20
0.305343
 30
0.0
  0
VERTEX
  8
0
 10
37.051575
 20
0.303242
 30
0.0
  0
SEQEND
  8
0
  0
POLYLINE
  8
0
 62
0
 70
0
 66
1
 10
0.0
 20
0.0
 30
0.0
  0
VERTEX
  8
0
 10
37.025532
 20
0.301115
 30
0.0
  0
VERTEX
  8
0
 10
36.999333
 20
0.298977
 30
0.0
  0
SEQEND
  8
0
  0
POLYLINE
  8
0
 62
0
 70
0
 66
1
 10
0.0
 20
0.0
 30
0.0
  0
VERTEX
  8
0
 10
37.414259
 20
0.778136
 30
0.0
  0
VERTEX
  8
0
 10
37.437879
 20
0.818482
 30
0.0
  0
SEQEND
  8
0
  0
POLYLINE
  8
0
 62
0
 70
0
 66
1
 10
0.0
 20
0.0
 30
0.0
  0
VERTEX
  8
0
 10
37.327195
 20
0.745544
 30
0.0
  0
VERTEX
  8
0
 10
37.373368
 20
0.754627
 30
0.0
  0
SEQEND
  8
0
  0
POLYLINE
  8
0
 62
0
 70
0
 66
1
 10
0.0
 20
0.0
 30
0.0
  0
VERTEX
  8
0
 10
37.373368
 20
0.754627
 30
0.0
  0
VERTEX
  8
0
 10
37.414259
 20
0.778136
 30
0.0
  0
SEQEND
  8
0
  0
POLYLINE
  8
0
 62
0
 70
0
 66
1
 10
0.0
 20
0.0
 30
0.0
  0
VERTEX
  8
0
 10
37.370854
 20
0.970289
 30
0.0
  0
VERTEX
  8
0
 10
37.325701
 20
0.979441
 30
0.0
  0
SEQEND
  8
0
  0
POLYLINE
  8
0
 62
0
 70
0
 66
1
 10
0.0
 20
0.0
 30
0.0
  0
VERTEX
  8
0
 10
37.279792
 20
0.981602
 30
0.0
  0
VERTEX
  8
0
 10
37.249635
 20
0.981602
 30
0.0
  0
SEQEND
  8
0
  0
POLYLINE
  8
0
 62
0
 70
0
 66
1
 10
0.0
 20
0.0
 30
0.0
  0
VERTEX
  8
0
 10
37.443833
 20
0.865185
 30
0.0
  0
VERTEX
  8
0
 10
37.436676
 20
0.91073
 30
0.0
  0
SEQEND
  8
0
  0
POLYLINE
  8
0
 62
0
 70
0
 66
1
 10
0.0
 20
0.0
 30
0.0
  0
VERTEX
  8
0
 10
37.436676
 20
0.91073
 30
0.0
  0
VERTEX
  8
0
 10
37.411041
 20
0.948467
 30
0.0
  0
SEQEND
  8
0
  0
POLYLINE
  8
0
 62
0
 70
0
 66
1
 10
0.0
 20
0.0
 30
0.0
  0
VERTEX
  8
0
 10
37.411041
 20
0.948467
 30
0.0
  0
VERTEX
  8
0
 10
37.370854
 20
0.970289
 30
0.0
  0
SEQEND
  8
0
  0
POLYLINE
  8
0
 62
0
 70
0
 66
1
 10
0.0
 20
0.0
 30
0.0
  0
VERTEX
  8
0
 10
37.437879
 20
0.818482
 30
0.0
  0
VERTEX
  8
0
 10
37.443833
 20
0.865185
 30
0.0
  0
SEQEND
  8
0
  0
POLYLINE
  8
0
 62
0
 70
0
 66
1
 10
0.0
 20
0.0
 30
0.0
  0
VERTEX
  8
0
 10
37.128979
 20
0.981602
 30
0.0
  0
VERTEX
  8
0
 10
37.128979
 20
0.933986
 30
0.0
  0
SEQEND
  8
0
  0
POLYLINE
  8
0
 62
0
 70
0
 66
1
 10
0.0
 20
0.0
 30
0.0
  0
VERTEX
  8
0
 10
37.325701
 20
0.979441
 30
0.0
  0
VERTEX
  8
0
 10
37.279792
 20
0.981602
 30
0.0
  0
SEQEND
  8
0
  0
POLYLINE
  8
0
 62
0
 70
0
 66
1
 10
0.0
 20
0.0
 30
0.0
  0
VERTEX
  8
0
 10
37.159181
 20
0.981602
 30
0.0
  0
VERTEX
  8
0
 10
37.128979
 20
0.981602
 30
0.0
  0
SEQEND
  8
0
  0
POLYLINE
  8
0
 62
0
 70
0
 66
1
 10
0.0
 20
0.0
 30
0.0
  0
VERTEX
  8
0
 10
37.189257
 20
0.981602
 30
0.0
  0
VERTEX
  8
0
 10
37.159181
 20
0.981602
 30
0.0
  0
SEQEND
  8
0
  0
POLYLINE
  8
0
 62
0
 70
0
 66
1
 10
0.0
 20
0.0
 30
0.0
  0
VERTEX
  8
0
 10
37.249635
 20
0.981602
 30
0.0
  0
VERTEX
  8
0
 10
37.219692
 20
0.981602
 30
0.0
  0
SEQEND
  8
0
  0
POLYLINE
  8
0
 62
0
 70
0
 66
1
 10
0.0
 20
0.0
 30
0.0
  0
VERTEX
  8
0
 10
37.219692
 20
0.981602
 30
0.0
  0
VERTEX
  8
0
 10
37.189257
 20
0.981602
 30
0.0
  0
SEQEND
  8
0
  0
POLYLINE
  8
0
 62
0
 70
0
 66
1
 10
0.0
 20
0.0
 30
0.0
  0
VERTEX
  8
0
 10
37.128979
 20
0.88622
 30
0.0
  0
VERTEX
  8
0
 10
37.128979
 20
0.838669
 30
0.0
  0
SEQEND
  8
0
  0
POLYLINE
  8
0
 62
0
 70
0
 66
1
 10
0.0
 20
0.0
 30
0.0
  0
VERTEX
  8
0
 10
37.219513
 20
0.743477
 30
0.0
  0
VERTEX
  8
0
 10
37.24959
 20
0.743477
 30
0.0
  0
SEQEND
  8
0
  0
POLYLINE
  8
0
 62
0
 70
0
 66
1
 10
0.0
 20
0.0
 30
0.0
  0
VERTEX
  8
0
 10
37.24959
 20
0.743477
 30
0.0
  0
VERTEX
  8
0
 10
37.279792
 20
0.743477
 30
0.0
  0
SEQEND
  8
0
  0
POLYLINE
  8
0
 62
0
 70
0
 66
1
 10
0.0
 20
0.0
 30
0.0
  0
VERTEX
  8
0
 10
37.128979
 20
0.933986
 30
0.0
  0
VERTEX
  8
0
 10
37.128979
 20
0.88622
 30
0.0
  0
SEQEND
  8
0
  0
POLYLINE
  8
0
 62
0
 70
0
 66
1
 10
0.0
 20
0.0
 30
0.0
  0
VERTEX
  8
0
 10
37.128979
 20
0.743477
 30
0.0
  0
VERTEX
  8
0
 10
37.159136
 20
0.743477
 30
0.0
  0
SEQEND
  8
0
  0
POLYLINE
  8
0
 62
0
 70
0
 66
1
 10
0.0
 20
0.0
 30
0.0
  0
VERTEX
  8
0
 10
37.159136
 20
0.743477
 30
0.0
  0
VERTEX
  8
0
 10
37.189079
 20
0.743477
 30
0.0
  0
SEQEND
  8
0
  0
POLYLINE
  8
0
 62
0
 70
0
 66
1
 10
0.0
 20
0.0
 30
0.0
  0
VERTEX
  8
0
 10
37.128979
 20
0.838669
 30
0.0
  0
VERTEX
  8
0
 10
37.128979
 20
0.791173
 30
0.0
  0
SEQEND
  8
0
  0
POLYLINE
  8
0
 62
0
 70
0
 66
1
 10
0.0
 20
0.0
 30
0.0
  0
VERTEX
  8
0
 10
37.189079
 20
0.743477
 30
0.0
  0
VERTEX
  8
0
 10
37.219513
 20
0.743477
 30
0.0
  0
SEQEND
  8
0
  0
POLYLINE
  8
0
 62
0
 70
0
 66
1
 10
0.0
 20
0.0
 30
0.0
  0
VERTEX
  8
0
 10
37.128979
 20
0.791173
 30
0.0
  0
VERTEX
  8
0
 10
37.128979
 20
0.743477
 30
0.0
  0
SEQEND
  8
0
  0
ENDSEC
  0
EOF
