  0
SECTION
  2
HEADER
  9
$ACADVER
  1
AC1014
  9
$HANDSEED
  5
FFFF
  9
$MEASUREMENT
 70
     1
  0
ENDSEC
  0
SECTION
  2
TABLES
  0
TABLE
  2
VPORT
  5
8
330
0
100
AcDbSymbolTable
 70
     4
  0
VPORT
  5
2E
330
8
100
AcDbSymbolTableRecord
100
AcDbViewportTableRecord
  2
*ACTIVE
 70
     0
 10
0.0
 20
0.0
 11
1.0
 21
1.0
 12
210.0
 22
148.5
 13
0.0
 23
0.0
 14
10.0
 24
10.0
 15
10.0
 25
10.0
 16
0.0
 26
0.0
 36
1.0
 17
0.0
 27
0.0
 37
0.0
 40
341.0
 41
1.24
 42
50.0
 43
0.0
 44
0.0
 50
0.0
 51
0.0
 71
     0
 72
   100
 73
     1
 74
     3
 75
     0
 76
     0
 77
     0
 78
     0
  0
ENDTAB
  0
TABLE
  2
LTYPE
  5
5
330
0
100
AcDbSymbolTable
 70
     1
  0
LTYPE
  5
14
330
5
100
AcDbSymbolTableRecord
100
AcDbLinetypeTableRecord
  2
BYBLOCK
 70
     0
  3

 72
    65
 73
     0
 40
0.0
  0
LTYPE
  5
15
330
5
100
AcDbSymbolTableRecord
100
AcDbLinetypeTableRecord
  2
BYLAYER
 70
     0
  3

 72
    65
 73
     0
 40
0.0
  0
LTYPE
  5
16
330
5
100
AcDbSymbolTableRecord
100
AcDbLinetypeTableRecord
  2
CONTINUOUS
 70
     0
  3
Solid line
 72
    65
 73
     0
 40
0.0
  0
ENDTAB
  0
TABLE
  2
LAYER
  5
2
100
AcDbSymbolTable
 70
1
  0
LAYER
  5
50
100
AcDbSymbolTableRecord
100
AcDbLayerTableRecord
  2
0
 70
0
  6
CONTINUOUS
  0
ENDTAB
  0
TABLE
  2
STYLE
  5
3
330
0
100
AcDbSymbolTable
 70
     1
  0
STYLE
  5
11
330
3
100
AcDbSymbolTableRecord
100
AcDbTextStyleTableRecord
  2
STANDARD
 70
     0
 40
0.0
 41
1.0
 50
0.0
 71
     0
 42
2.5
  3
txt
  4

  0
ENDTAB
  0
TABLE
  2
VIEW
  5
6
330
0
100
AcDbSymbolTable
 70
     0
  0
ENDTAB
  0
TABLE
  2
UCS
  5
7
330
0
100
AcDbSymbolTable
 70
     0
  0
ENDTAB
  0
TABLE
  2
APPID
  5
9
330
0
100
AcDbSymbolTable
 70
     2
  0
APPID
  5
12
330
9
100
AcDbSymbolTableRecord
100
AcDbRegAppTableRecord
  2
ACAD
 70
     0
  0
ENDTAB
  0
TABLE
  2
DIMSTYLE
  5
A
330
0
100
AcDbSymbolTable
 70
     1
  0
DIMSTYLE
105
27
330
A
100
AcDbSymbolTableRecord
100
AcDbDimStyleTableRecord
  2
ISO-25
 70
     0
  3

  4

  5

  6

  7

 40
1.0
 41
2.5
 42
0.625
 43
3.75
 44
1.25
 45
0.0
 46
0.0
 47
0.0
 48
0.0
140
2.5
141
2.5
142
0.0
143
0.03937007874016
144
1.0
145
0.0
146
1.0
147
0.625
 71
     0
 72
     0
 73
     0
 74
     0
 75
     0
 76
     0
 77
     1
 78
     8
170
     0
171
     3
172
     1
173
     0
174
     0
175
     0
176
     0
177
     0
178
     0
270
     2
271
     2
272
     2
273
     2
274
     3
340
11
275
     0
280
     0
281
     0
282
     0
283
     0
284
     8
285
     0
286
     0
287
     3
288
     0
  0
ENDTAB
  0
TABLE
  2
BLOCK_RECORD
  5
1
330
0
100
AcDbSymbolTable
 70
     1
  0
BLOCK_RECORD
  5
1F
330
1
100
AcDbSymbolTableRecord
100
AcDbBlockTableRecord
  2
*MODEL_SPACE
  0
BLOCK_RECORD
  5
1B
330
1
100
AcDbSymbolTableRecord
100
AcDbBlockTableRecord
  2
*PAPER_SPACE
  0
ENDTAB
  0
ENDSEC
  0
SECTION
  2
BLOCKS
  0
BLOCK
  5
20
330
1F
100
AcDbEntity
  8
0
100
AcDbBlockBegin
  2
*MODEL_SPACE
 70
     0
 10
0.0
 20
0.0
 30
0.0
  3
*MODEL_SPACE
  1

  0
ENDBLK
  5
21
330
1F
100
AcDbEntity
  8
0
100
AcDbBlockEnd
  0
BLOCK
  5
1C
330
1B
100
AcDbEntity
 67
     1
  8
0
100
AcDbBlockBegin
  2
*PAPER_SPACE
  1

  0
ENDBLK
  5
1D
330
1B
100
AcDbEntity
 67
     1
  8
0
100
AcDbBlockEnd
  0
ENDSEC
  0
SECTION
  2
ENTITIES
  0
SPLINE
  5
100
100
AcDbEntity
  8
0
 62
7
100
AcDbSpline
 70
8
 71
3
 72
8
 73
4
 74
0
 40
0
 40
0
 40
0
 40
0
 40
1
 40
1
 40
1
 40
1
 10
72.603321
 20
30.210732
 30
0.0
 10
72.603321
 20
31.904340
 30
0.0
 10
70.062217
 20
31.904340
 30
0.0
 10
70.062217
 20
30.210732
 30
0.0
  0
SPLINE
  5
101
100
AcDbEntity
  8
0
 62
7
100
AcDbSpline
 70
8
 71
3
 72
8
 73
4
 74
0
 40
0
 40
0
 40
0
 40
0
 40
1
 40
1
 40
1
 40
1
 10
70.062217
 20
30.210732
 30
0.0
 10
70.062217
 20
28.517123
 30
0.0
 10
72.603321
 20
28.517123
 30
0.0
 10
72.603321
 20
30.210732
 30
0.0
  0
SPLINE
  5
102
100
AcDbEntity
  8
0
 62
7
100
AcDbSpline
 70
8
 71
3
 72
8
 73
4
 74
0
 40
0
 40
0
 40
0
 40
0
 40
1
 40
1
 40
1
 40
1
 10
90.080980
 20
54.929980
 30
0.0
 10
90.080980
 20
55.606597
 30
0.0
 10
89.063985
 20
55.606597
 30
0.0
 10
89.063985
 20
54.929980
 30
0.0
  0
SPLINE
  5
103
100
AcDbEntity
  8
0
 62
7
100
AcDbSpline
 70
8
 71
3
 72
8
 73
4
 74
0
 40
0
 40
0
 40
0
 40
0
 40
1
 40
1
 40
1
 40
1
 10
89.063985
 20
54.929980
 30
0.0
 10
89.063985
 20
54.251986
 30
0.0
 10
90.080980
 20
54.251986
 30
0.0
 10
90.080980
 20
54.929980
 30
0.0
  0
SPLINE
  5
104
100
AcDbEntity
  8
0
 62
7
100
AcDbSpline
 70
8
 71
3
 72
8
 73
4
 74
0
 40
0
 40
0
 40
0
 40
0
 40
1
 40
1
 40
1
 40
1
 10
92.620701
 20
54.929980
 30
0.0
 10
92.620701
 20
55.606597
 30
0.0
 10
91.605089
 20
55.606597
 30
0.0
 10
91.605089
 20
54.929980
 30
0.0
  0
SPLINE
  5
105
100
AcDbEntity
  8
0
 62
7
100
AcDbSpline
 70
8
 71
3
 72
8
 73
4
 74
0
 40
0
 40
0
 40
0
 40
0
 40
1
 40
1
 40
1
 40
1
 10
91.605089
 20
54.929980
 30
0.0
 10
91.605089
 20
54.251986
 30
0.0
 10
92.620701
 20
54.251986
 30
0.0
 10
92.620701
 20
54.929980
 30
0.0
  0
SPLINE
  5
106
100
AcDbEntity
  8
0
 62
7
100
AcDbSpline
 70
8
 71
3
 72
8
 73
4
 74
0
 40
0
 40
0
 40
0
 40
0
 40
1
 40
1
 40
1
 40
1
 10
95.160426
 20
54.929980
 30
0.0
 10
95.160426
 20
55.606597
 30
0.0
 10
94.144814
 20
55.606597
 30
0.0
 10
94.144814
 20
54.929980
 30
0.0
  0
SPLINE
  5
107
100
AcDbEntity
  8
0
 62
7
100
AcDbSpline
 70
8
 71
3
 72
8
 73
4
 74
0
 40
0
 40
0
 40
0
 40
0
 40
1
 40
1
 40
1
 40
1
 10
94.144814
 20
54.929980
 30
0.0
 10
94.144814
 20
54.251986
 30
0.0
 10
95.160426
 20
54.251986
 30
0.0
 10
95.160426
 20
54.929980
 30
0.0
  0
SPLINE
  5
108
100
AcDbEntity
  8
0
 62
7
100
AcDbSpline
 70
8
 71
3
 72
8
 73
4
 74
0
 40
0
 40
0
 40
0
 40
0
 40
1
 40
1
 40
1
 40
1
 10
95.160426
 20
57.469705
 30
0.0
 10
95.160426
 20
58.147700
 30
0.0
 10
94.144814
 20
58.147700
 30
0.0
 10
94.144814
 20
57.469705
 30
0.0
  0
SPLINE
  5
109
100
AcDbEntity
  8
0
 62
7
100
AcDbSpline
 70
8
 71
3
 72
8
 73
4
 74
0
 40
0
 40
0
 40
0
 40
0
 40
1
 40
1
 40
1
 40
1
 10
94.144814
 20
57.469705
 30
0.0
 10
94.144814
 20
56.793088
 30
0.0
 10
95.160426
 20
56.793088
 30
0.0
 10
95.160426
 20
57.469705
 30
0.0
  0
SPLINE
  5
10a
100
AcDbEntity
  8
0
 62
7
100
AcDbSpline
 70
8
 71
3
 72
8
 73
4
 74
0
 40
0
 40
0
 40
0
 40
0
 40
1
 40
1
 40
1
 40
1
 10
92.620701
 20
57.469705
 30
0.0
 10
92.620701
 20
58.147700
 30
0.0
 10
91.605089
 20
58.147700
 30
0.0
 10
91.605089
 20
57.469705
 30
0.0
  0
SPLINE
  5
10b
100
AcDbEntity
  8
0
 62
7
100
AcDbSpline
 70
8
 71
3
 72
8
 73
4
 74
0
 40
0
 40
0
 40
0
 40
0
 40
1
 40
1
 40
1
 40
1
 10
91.605089
 20
57.469705
 30
0.0
 10
91.605089
 20
56.793088
 30
0.0
 10
92.620701
 20
56.793088
 30
0.0
 10
92.620701
 20
57.469705
 30
0.0
  0
SPLINE
  5
10c
100
AcDbEntity
  8
0
 62
7
100
AcDbSpline
 70
8
 71
3
 72
8
 73
4
 74
0
 40
0
 40
0
 40
0
 40
0
 40
1
 40
1
 40
1
 40
1
 10
90.080980
 20
57.469705
 30
0.0
 10
90.080980
 20
58.147700
 30
0.0
 10
89.063985
 20
58.147700
 30
0.0
 10
89.063985
 20
57.469705
 30
0.0
  0
SPLINE
  5
10d
100
AcDbEntity
  8
0
 62
7
100
AcDbSpline
 70
8
 71
3
 72
8
 73
4
 74
0
 40
0
 40
0
 40
0
 40
0
 40
1
 40
1
 40
1
 40
1
 10
89.063985
 20
57.469705
 30
0.0
 10
89.063985
 20
56.793088
 30
0.0
 10
90.080980
 20
56.793088
 30
0.0
 10
90.080980
 20
57.469705
 30
0.0
  0
SPLINE
  5
10e
100
AcDbEntity
  8
0
 62
7
100
AcDbSpline
 70
8
 71
3
 72
8
 73
4
 74
0
 40
0
 40
0
 40
0
 40
0
 40
1
 40
1
 40
1
 40
1
 10
106.883398
 20
48.212044
 30
0.0
 10
106.883398
 20
50.211578
 30
0.0
 10
103.883411
 20
50.211578
 30
0.0
 10
103.883411
 20
48.212044
 30
0.0
  0
SPLINE
  5
10f
100
AcDbEntity
  8
0
 62
7
100
AcDbSpline
 70
8
 71
3
 72
8
 73
4
 74
0
 40
0
 40
0
 40
0
 40
0
 40
1
 40
1
 40
1
 40
1
 10
103.883411
 20
48.212044
 30
0.0
 10
103.883411
 20
46.211133
 30
0.0
 10
106.883398
 20
46.211133
 30
0.0
 10
106.883398
 20
48.212044
 30
0.0
  0
SPLINE
  5
110
100
AcDbEntity
  8
0
 62
7
100
AcDbSpline
 70
8
 71
3
 72
8
 73
4
 74
0
 40
0
 40
0
 40
0
 40
0
 40
1
 40
1
 40
1
 40
1
 10
124.282507
 20
51.661274
 30
0.0
 10
124.282507
 20
53.660807
 30
0.0
 10
121.282520
 20
53.660807
 30
0.0
 10
121.282520
 20
51.661274
 30
0.0
  0
SPLINE
  5
111
100
AcDbEntity
  8
0
 62
7
100
AcDbSpline
 70
8
 71
3
 72
8
 73
4
 74
0
 40
0
 40
0
 40
0
 40
0
 40
1
 40
1
 40
1
 40
1
 10
121.282520
 20
51.661274
 30
0.0
 10
121.282520
 20
49.660362
 30
0.0
 10
124.282507
 20
49.660362
 30
0.0
 10
124.282507
 20
51.661274
 30
0.0
  0
SPLINE
  5
112
100
AcDbEntity
  8
0
 62
7
100
AcDbSpline
 70
8
 71
3
 72
8
 73
4
 74
0
 40
0
 40
0
 40
0
 40
0
 40
1
 40
1
 40
1
 40
1
 10
141.684375
 20
48.212044
 30
0.0
 10
141.684375
 20
50.211578
 30
0.0
 10
138.684385
 20
50.211578
 30
0.0
 10
138.684385
 20
48.212044
 30
0.0
  0
SPLINE
  5
113
100
AcDbEntity
  8
0
 62
7
100
AcDbSpline
 70
8
 71
3
 72
8
 73
4
 74
0
 40
0
 40
0
 40
0
 40
0
 40
1
 40
1
 40
1
 40
1
 10
138.684385
 20
48.212044
 30
0.0
 10
138.684385
 20
46.211133
 30
0.0
 10
141.684375
 20
46.211133
 30
0.0
 10
141.684375
 20
48.212044
 30
0.0
  0
SPLINE
  5
114
100
AcDbEntity
  8
0
 62
7
100
AcDbSpline
 70
8
 71
3
 72
8
 73
4
 74
0
 40
0
 40
0
 40
0
 40
0
 40
1
 40
1
 40
1
 40
1
 10
140.581944
 20
36.410525
 30
0.0
 10
140.581944
 20
38.410059
 30
0.0
 10
137.581954
 20
38.410059
 30
0.0
 10
137.581954
 20
36.410525
 30
0.0
  0
SPLINE
  5
115
100
AcDbEntity
  8
0
 62
7
100
AcDbSpline
 70
8
 71
3
 72
8
 73
4
 74
0
 40
0
 40
0
 40
0
 40
0
 40
1
 40
1
 40
1
 40
1
 10
137.581954
 20
36.410525
 30
0.0
 10
137.581954
 20
34.410992
 30
0.0
 10
140.581944
 20
34.410992
 30
0.0
 10
140.581944
 20
36.410525
 30
0.0
  0
SPLINE
  5
116
100
AcDbEntity
  8
0
 62
7
100
AcDbSpline
 70
8
 71
3
 72
8
 73
4
 74
0
 40
0
 40
0
 40
0
 40
0
 40
1
 40
1
 40
1
 40
1
 10
124.282507
 20
21.161156
 30
0.0
 10
124.282507
 20
23.160687
 30
0.0
 10
121.282520
 20
23.160687
 30
0.0
 10
121.282520
 20
21.161156
 30
0.0
  0
SPLINE
  5
117
100
AcDbEntity
  8
0
 62
7
100
AcDbSpline
 70
8
 71
3
 72
8
 73
4
 74
0
 40
0
 40
0
 40
0
 40
0
 40
1
 40
1
 40
1
 40
1
 10
121.282520
 20
21.161156
 30
0.0
 10
121.282520
 20
19.160243
 30
0.0
 10
124.282507
 20
19.160243
 30
0.0
 10
124.282507
 20
21.161156
 30
0.0
  0
SPLINE
  5
118
100
AcDbEntity
  8
0
 62
7
100
AcDbSpline
 70
8
 71
3
 72
8
 73
4
 74
0
 40
0
 40
0
 40
0
 40
0
 40
1
 40
1
 40
1
 40
1
 10
106.883398
 20
20.111089
 30
0.0
 10
106.883398
 20
22.110622
 30
0.0
 10
103.883411
 20
22.110622
 30
0.0
 10
103.883411
 20
20.111089
 30
0.0
  0
SPLINE
  5
119
100
AcDbEntity
  8
0
 62
7
100
AcDbSpline
 70
8
 71
3
 72
8
 73
4
 74
0
 40
0
 40
0
 40
0
 40
0
 40
1
 40
1
 40
1
 40
1
 10
103.883411
 20
20.111089
 30
0.0
 10
103.883411
 20
18.111555
 30
0.0
 10
106.883398
 20
18.111555
 30
0.0
 10
106.883398
 20
20.111089
 30
0.0
  0
SPLINE
  5
11a
100
AcDbEntity
  8
0
 62
7
100
AcDbSpline
 70
8
 71
3
 72
8
 73
4
 74
0
 40
0
 40
0
 40
0
 40
0
 40
1
 40
1
 40
1
 40
1
 10
95.283073
 20
18.321016
 30
0.0
 10
95.283073
 20
20.320550
 30
0.0
 10
92.284462
 20
20.320550
 30
0.0
 10
92.284462
 20
18.321016
 30
0.0
  0
SPLINE
  5
11b
100
AcDbEntity
  8
0
 62
7
100
AcDbSpline
 70
8
 71
3
 72
8
 73
4
 74
0
 40
0
 40
0
 40
0
 40
0
 40
1
 40
1
 40
1
 40
1
 10
92.284462
 20
18.321016
 30
0.0
 10
92.284462
 20
16.321486
 30
0.0
 10
95.283073
 20
16.321486
 30
0.0
 10
95.283073
 20
18.321016
 30
0.0
  0
SPLINE
  5
11c
100
AcDbEntity
  8
0
 62
7
100
AcDbSpline
 70
8
 71
3
 72
8
 73
4
 74
0
 40
0
 40
0
 40
0
 40
0
 40
1
 40
1
 40
1
 40
1
 10
88.682269
 20
19.559873
 30
0.0
 10
88.682269
 20
21.560786
 30
0.0
 10
85.682282
 20
21.560786
 30
0.0
 10
85.682282
 20
19.559873
 30
0.0
  0
SPLINE
  5
11d
100
AcDbEntity
  8
0
 62
7
100
AcDbSpline
 70
8
 71
3
 72
8
 73
4
 74
0
 40
0
 40
0
 40
0
 40
0
 40
1
 40
1
 40
1
 40
1
 10
85.682282
 20
19.559873
 30
0.0
 10
85.682282
 20
17.560339
 30
0.0
 10
88.682269
 20
17.560339
 30
0.0
 10
88.682269
 20
19.559873
 30
0.0
  0
SPLINE
  5
11e
100
AcDbEntity
  8
0
 62
7
100
AcDbSpline
 70
8
 71
3
 72
8
 73
4
 74
0
 40
0
 40
0
 40
0
 40
0
 40
1
 40
1
 40
1
 40
1
 10
82.082845
 20
20.360513
 30
0.0
 10
82.082845
 20
22.360047
 30
0.0
 10
79.082854
 20
22.360047
 30
0.0
 10
79.082854
 20
20.360513
 30
0.0
  0
SPLINE
  5
11f
100
AcDbEntity
  8
0
 62
7
100
AcDbSpline
 70
8
 71
3
 72
8
 73
4
 74
0
 40
0
 40
0
 40
0
 40
0
 40
1
 40
1
 40
1
 40
1
 10
79.082854
 20
20.360513
 30
0.0
 10
79.082854
 20
18.360983
 30
0.0
 10
82.082845
 20
18.360983
 30
0.0
 10
82.082845
 20
20.360513
 30
0.0
  0
SPLINE
  5
120
100
AcDbEntity
  8
0
 62
7
100
AcDbSpline
 70
8
 71
3
 72
8
 73
4
 74
0
 40
0
 40
0
 40
0
 40
0
 40
1
 40
1
 40
1
 40
1
 10
75.484799
 20
19.559873
 30
0.0
 10
75.484799
 20
21.560786
 30
0.0
 10
72.484809
 20
21.560786
 30
0.0
 10
72.484809
 20
19.559873
 30
0.0
  0
SPLINE
  5
121
100
AcDbEntity
  8
0
 62
7
100
AcDbSpline
 70
8
 71
3
 72
8
 73
4
 74
0
 40
0
 40
0
 40
0
 40
0
 40
1
 40
1
 40
1
 40
1
 10
72.484809
 20
19.559873
 30
0.0
 10
72.484809
 20
17.560339
 30
0.0
 10
75.484799
 20
17.560339
 30
0.0
 10
75.484799
 20
19.559873
 30
0.0
  0
SPLINE
  5
122
100
AcDbEntity
  8
0
 62
7
100
AcDbSpline
 70
8
 71
3
 72
8
 73
4
 74
0
 40
0
 40
0
 40
0
 40
0
 40
1
 40
1
 40
1
 40
1
 10
68.882616
 20
18.321016
 30
0.0
 10
68.882616
 20
20.320550
 30
0.0
 10
65.882629
 20
20.320550
 30
0.0
 10
65.882629
 20
18.321016
 30
0.0
  0
SPLINE
  5
123
100
AcDbEntity
  8
0
 62
7
100
AcDbSpline
 70
8
 71
3
 72
8
 73
4
 74
0
 40
0
 40
0
 40
0
 40
0
 40
1
 40
1
 40
1
 40
1
 10
65.882629
 20
18.321016
 30
0.0
 10
65.882629
 20
16.321486
 30
0.0
 10
68.882616
 20
16.321486
 30
0.0
 10
68.882616
 20
18.321016
 30
0.0
  0
SPLINE
  5
124
100
AcDbEntity
  8
0
 62
7
100
AcDbSpline
 70
8
 71
3
 72
8
 73
4
 74
0
 40
0
 40
0
 40
0
 40
0
 40
1
 40
1
 40
1
 40
1
 10
107.983073
 20
36.410525
 30
0.0
 10
107.983073
 20
38.410059
 30
0.0
 10
104.984462
 20
38.410059
 30
0.0
 10
104.984462
 20
36.410525
 30
0.0
  0
SPLINE
  5
125
100
AcDbEntity
  8
0
 62
7
100
AcDbSpline
 70
8
 71
3
 72
8
 73
4
 74
0
 40
0
 40
0
 40
0
 40
0
 40
1
 40
1
 40
1
 40
1
 10
104.984462
 20
36.410525
 30
0.0
 10
104.984462
 20
34.410992
 30
0.0
 10
107.983073
 20
34.410992
 30
0.0
 10
107.983073
 20
36.410525
 30
0.0
  0
SPLINE
  5
126
100
AcDbEntity
  8
0
 62
7
100
AcDbSpline
 70
8
 71
3
 72
8
 73
4
 74
0
 40
0
 40
0
 40
0
 40
0
 40
1
 40
1
 40
1
 40
1
 10
141.684375
 20
20.111089
 30
0.0
 10
141.684375
 20
22.110622
 30
0.0
 10
138.684385
 20
22.110622
 30
0.0
 10
138.684385
 20
20.111089
 30
0.0
  0
SPLINE
  5
127
100
AcDbEntity
  8
0
 62
7
100
AcDbSpline
 70
8
 71
3
 72
8
 73
4
 74
0
 40
0
 40
0
 40
0
 40
0
 40
1
 40
1
 40
1
 40
1
 10
138.684385
 20
20.111089
 30
0.0
 10
138.684385
 20
18.111555
 30
0.0
 10
141.684375
 20
18.111555
 30
0.0
 10
141.684375
 20
20.111089
 30
0.0
  0
SPLINE
  5
128
100
AcDbEntity
  8
0
 62
7
100
AcDbSpline
 70
8
 71
3
 72
8
 73
4
 74
0
 40
0
 40
0
 40
0
 40
0
 40
1
 40
1
 40
1
 40
1
 10
58.381967
 20
34.211176
 30
0.0
 10
58.381967
 20
36.210710
 30
0.0
 10
55.383356
 20
36.210710
 30
0.0
 10
55.383356
 20
34.211176
 30
0.0
  0
SPLINE
  5
129
100
AcDbEntity
  8
0
 62
7
100
AcDbSpline
 70
8
 71
3
 72
8
 73
4
 74
0
 40
0
 40
0
 40
0
 40
0
 40
1
 40
1
 40
1
 40
1
 10
55.383356
 20
34.211176
 30
0.0
 10
55.383356
 20
32.211641
 30
0.0
 10
58.381967
 20
32.211641
 30
0.0
 10
58.381967
 20
34.211176
 30
0.0
  0
SPLINE
  5
12a
100
AcDbEntity
  8
0
 62
7
100
AcDbSpline
 70
8
 71
3
 72
8
 73
4
 74
0
 40
0
 40
0
 40
0
 40
0
 40
1
 40
1
 40
1
 40
1
 10
55.438477
 20
49.766471
 30
0.0
 10
55.438477
 20
51.766005
 30
0.0
 10
52.438487
 20
51.766005
 30
0.0
 10
52.438487
 20
49.766471
 30
0.0
  0
SPLINE
  5
12b
100
AcDbEntity
  8
0
 62
7
100
AcDbSpline
 70
8
 71
3
 72
8
 73
4
 74
0
 40
0
 40
0
 40
0
 40
0
 40
1
 40
1
 40
1
 40
1
 10
52.438487
 20
49.766471
 30
0.0
 10
52.438487
 20
47.765560
 30
0.0
 10
55.438477
 20
47.765560
 30
0.0
 10
55.438477
 20
49.766471
 30
0.0
  0
SPLINE
  5
12c
100
AcDbEntity
  8
0
 62
7
100
AcDbSpline
 70
8
 71
3
 72
8
 73
4
 74
0
 40
0
 40
0
 40
0
 40
0
 40
1
 40
1
 40
1
 40
1
 10
39.883182
 20
52.610742
 30
0.0
 10
39.883182
 20
54.610276
 30
0.0
 10
36.884571
 20
54.610276
 30
0.0
 10
36.884571
 20
52.610742
 30
0.0
  0
SPLINE
  5
12d
100
AcDbEntity
  8
0
 62
7
100
AcDbSpline
 70
8
 71
3
 72
8
 73
4
 74
0
 40
0
 40
0
 40
0
 40
0
 40
1
 40
1
 40
1
 40
1
 10
36.884571
 20
52.610742
 30
0.0
 10
36.884571
 20
50.611209
 30
0.0
 10
39.883182
 20
50.611209
 30
0.0
 10
39.883182
 20
52.610742
 30
0.0
  0
SPLINE
  5
12e
100
AcDbEntity
  8
0
 62
7
100
AcDbSpline
 70
8
 71
3
 72
8
 73
4
 74
0
 40
0
 40
0
 40
0
 40
0
 40
1
 40
1
 40
1
 40
1
 10
24.329264
 20
49.766471
 30
0.0
 10
24.329264
 20
51.766005
 30
0.0
 10
21.329275
 20
51.766005
 30
0.0
 10
21.329275
 20
49.766471
 30
0.0
  0
SPLINE
  5
12f
100
AcDbEntity
  8
0
 62
7
100
AcDbSpline
 70
8
 71
3
 72
8
 73
4
 74
0
 40
0
 40
0
 40
0
 40
0
 40
1
 40
1
 40
1
 40
1
 10
21.329275
 20
49.766471
 30
0.0
 10
21.329275
 20
47.765560
 30
0.0
 10
24.329264
 20
47.765560
 30
0.0
 10
24.329264
 20
49.766471
 30
0.0
  0
SPLINE
  5
130
100
AcDbEntity
  8
0
 62
7
100
AcDbSpline
 70
8
 71
3
 72
8
 73
4
 74
0
 40
0
 40
0
 40
0
 40
0
 40
1
 40
1
 40
1
 40
1
 10
21.483616
 20
34.211176
 30
0.0
 10
21.483616
 20
36.210710
 30
0.0
 10
18.483626
 20
36.210710
 30
0.0
 10
18.483626
 20
34.211176
 30
0.0
  0
SPLINE
  5
131
100
AcDbEntity
  8
0
 62
7
100
AcDbSpline
 70
8
 71
3
 72
8
 73
4
 74
0
 40
0
 40
0
 40
0
 40
0
 40
1
 40
1
 40
1
 40
1
 10
18.483626
 20
34.211176
 30
0.0
 10
18.483626
 20
32.211641
 30
0.0
 10
21.483616
 20
32.211641
 30
0.0
 10
21.483616
 20
34.211176
 30
0.0
  0
SPLINE
  5
132
100
AcDbEntity
  8
0
 62
7
100
AcDbSpline
 70
8
 71
3
 72
8
 73
4
 74
0
 40
0
 40
0
 40
0
 40
0
 40
1
 40
1
 40
1
 40
1
 10
24.329264
 20
18.655880
 30
0.0
 10
24.329264
 20
20.655414
 30
0.0
 10
21.329275
 20
20.655414
 30
0.0
 10
21.329275
 20
18.655880
 30
0.0
  0
SPLINE
  5
133
100
AcDbEntity
  8
0
 62
7
100
AcDbSpline
 70
8
 71
3
 72
8
 73
4
 74
0
 40
0
 40
0
 40
0
 40
0
 40
1
 40
1
 40
1
 40
1
 10
21.329275
 20
18.655880
 30
0.0
 10
21.329275
 20
16.656346
 30
0.0
 10
24.329264
 20
16.656346
 30
0.0
 10
24.329264
 20
18.655880
 30
0.0
  0
SPLINE
  5
134
100
AcDbEntity
  8
0
 62
7
100
AcDbSpline
 70
8
 71
3
 72
8
 73
4
 74
0
 40
0
 40
0
 40
0
 40
0
 40
1
 40
1
 40
1
 40
1
 10
39.883182
 20
15.811609
 30
0.0
 10
39.883182
 20
17.811143
 30
0.0
 10
36.884571
 20
17.811143
 30
0.0
 10
36.884571
 20
15.811609
 30
0.0
  0
SPLINE
  5
135
100
AcDbEntity
  8
0
 62
7
100
AcDbSpline
 70
8
 71
3
 72
8
 73
4
 74
0
 40
0
 40
0
 40
0
 40
0
 40
1
 40
1
 40
1
 40
1
 10
36.884571
 20
15.811609
 30
0.0
 10
36.884571
 20
13.812075
 30
0.0
 10
39.883182
 20
13.812075
 30
0.0
 10
39.883182
 20
15.811609
 30
0.0
  0
SPLINE
  5
136
100
AcDbEntity
  8
0
 62
7
100
AcDbSpline
 70
8
 71
3
 72
8
 73
4
 74
0
 40
0
 40
0
 40
0
 40
0
 40
1
 40
1
 40
1
 40
1
 10
55.438477
 20
18.655880
 30
0.0
 10
55.438477
 20
20.655414
 30
0.0
 10
52.438487
 20
20.655414
 30
0.0
 10
52.438487
 20
18.655880
 30
0.0
  0
SPLINE
  5
137
100
AcDbEntity
  8
0
 62
7
100
AcDbSpline
 70
8
 71
3
 72
8
 73
4
 74
0
 40
0
 40
0
 40
0
 40
0
 40
1
 40
1
 40
1
 40
1
 10
52.438487
 20
18.655880
 30
0.0
 10
52.438487
 20
16.656346
 30
0.0
 10
55.438477
 20
16.656346
 30
0.0
 10
55.438477
 20
18.655880
 30
0.0
  0
LWPOLYLINE
  5
138
100
AcDbEntity
  8
0
 62
5
100
AcDbPolyline
 90
300
 70
1
 10
18.632449
 20
10.284308
 30
0.0
 10
20.174483
 20
9.088169
 30
0.0
 10
21.785402
 20
7.991246
 30
0.0
 10
23.463859
 20
6.994931
 30
0.0
 10
25.201575
 20
6.108852
 30
0.0
 10
26.991640
 20
5.331636
 30
0.0
 10
28.828568
 20
4.670171
 30
0.0
 10
30.699938
 20
4.127225
 30
0.0
 10
32.605751
 20
3.702791
 30
0.0
 10
34.533636
 20
3.401000
 30
0.0
 10
36.473917
 20
3.220477
 30
0.0
 10
38.423850
 20
3.159841
 30
0.0
 10
39.320953
 20
3.172245
 30
0.0
 10
40.218057
 20
3.212207
 30
0.0
 10
41.112391
 20
3.283864
 30
0.0
 10
42.003980
 20
3.377572
 30
0.0
 10
42.890059
 20
3.502974
 30
0.0
 10
43.773393
 20
3.654556
 30
0.0
 10
44.652565
 20
3.832324
 30
0.0
 10
45.523478
 20
4.036272
 30
0.0
 10
46.393022
 20
4.266406
 30
0.0
 10
47.251542
 20
4.521341
 30
0.0
 10
48.101807
 20
4.799711
 30
0.0
 10
48.945165
 20
5.105629
 30
0.0
 10
49.780239
 20
5.430852
 30
0.0
 10
50.605690
 20
5.778119
 30
0.0
 10
51.421485
 20
6.146038
 30
0.0
 10
52.229029
 20
6.534658
 30
0.0
 10
53.029661
 20
6.943930
 30
0.0
 10
53.816529
 20
7.368364
 30
0.0
 10
54.596485
 20
7.812102
 30
0.0
 10
55.366818
 20
8.272374
 30
0.0
 10
56.126126
 20
8.747785
 30
0.0
 10
56.877151
 20
9.235616
 30
0.0
 10
57.619900
 20
9.738589
 30
0.0
 10
58.353022
 20
10.253980
 30
0.0
 10
59.079257
 20
10.779023
 30
0.0
 10
59.841306
 20
11.275109
 30
0.0
 10
60.618522
 20
11.749151
 30
0.0
 10
61.406761
 20
12.206654
 30
0.0
 10
62.201880
 20
12.643510
 30
0.0
 10
63.012168
 20
13.061036
 30
0.0
 10
63.829360
 20
13.456539
 30
0.0
 10
64.657556
 20
13.835507
 30
0.0
 10
65.492655
 20
14.191029
 30
0.0
 10
66.338753
 20
14.523134
 30
0.0
 10
67.193135
 20
14.838705
 30
0.0
 10
68.053024
 20
15.133623
 30
0.0
 10
68.922568
 20
15.405100
 30
0.0
 10
69.796254
 20
15.653131
 30
0.0
 10
70.675447
 20
15.884652
 30
0.0
 10
71.561526
 20
16.092727
 30
0.0
 10
72.450350
 20
16.281527
 30
0.0
 10
73.344708
 20
16.448253
 30
0.0
 10
74.240439
 20
16.592956
 30
0.0
 10
75.143057
 20
16.721123
 30
0.0
 10
76.047039
 20
16.827221
 30
0.0
 10
76.951029
 20
16.914036
 30
0.0
 10
77.857780
 20
16.980179
 30
0.0
 10
78.767280
 20
17.028414
 30
0.0
 10
79.676801
 20
17.055973
 30
0.0
 10
80.586301
 20
17.065625
 30
0.0
 10
81.691480
 20
17.047718
 30
0.0
 10
82.792545
 20
16.999483
 30
0.0
 10
83.893582
 20
16.918178
 30
0.0
 10
84.990510
 20
16.806545
 30
0.0
 10
86.084664
 20
16.664608
 30
0.0
 10
87.174705
 20
16.489602
 30
0.0
 10
88.259207
 20
16.284272
 30
0.0
 10
89.336827
 20
16.047261
 30
0.0
 10
90.407564
 20
15.782671
 30
0.0
 10
91.470046
 20
15.486405
 30
0.0
 10
92.524248
 20
15.163927
 30
0.0
 10
93.570171
 20
14.811146
 30
0.0
 10
94.606466
 20
14.432202
 30
0.0
 10
95.633081
 20
14.025675
 30
0.0
 10
96.648700
 20
13.594334
 30
0.0
 10
97.654667
 20
13.139596
 30
0.0
 10
98.648241
 20
12.655906
 30
0.0
 10
99.628018
 20
12.154306
 30
0.0
 10
100.598171
 20
11.627891
 30
0.0
 10
101.555906
 20
11.082172
 30
0.0
 10
102.503986
 20
10.515805
 30
0.0
 10
103.438300
 20
9.928758
 30
0.0
 10
104.360218
 20
9.321038
 30
0.0
 10
105.269714
 20
8.696808
 30
0.0
 10
106.166818
 20
8.056016
 30
0.0
 10
106.752492
 20
7.667396
 30
0.0
 10
107.351932
 20
7.296707
 30
0.0
 10
107.959652
 20
6.941185
 30
0.0
 10
108.576999
 20
6.606311
 30
0.0
 10
109.204023
 20
6.283858
 30
0.0
 10
109.839301
 20
5.979312
 30
0.0
 10
110.478697
 20
5.689932
 30
0.0
 10
111.126372
 20
5.417058
 30
0.0
 10
111.782327
 20
5.160747
 30
0.0
 10
112.442396
 20
4.919599
 30
0.0
 10
113.108003
 20
4.693588
 30
0.0
 10
113.779095
 20
4.482758
 30
0.0
 10
114.457099
 20
4.289834
 30
0.0
 10
115.137844
 20
4.109307
 30
0.0
 10
115.821358
 20
3.946701
 30
0.0
 10
116.508985
 20
3.796496
 30
0.0
 10
117.199385
 20
3.665580
 30
0.0
 10
117.891179
 20
3.548447
 30
0.0
 10
118.587086
 20
3.443718
 30
0.0
 10
119.288507
 20
3.358279
 30
0.0
 10
119.985790
 20
3.286619
 30
0.0
 10
120.687211
 20
3.230122
 30
0.0
 10
121.391373
 20
3.192914
 30
0.0
 10
122.094191
 20
3.166731
 30
0.0
 10
122.798357
 20
3.159841
 30
0.0
 10
124.744148
 20
3.220477
 30
0.0
 10
126.681660
 20
3.401000
 30
0.0
 10
128.606804
 20
3.702791
 30
0.0
 10
130.509874
 20
4.127225
 30
0.0
 10
132.378475
 20
4.668799
 30
0.0
 10
134.212658
 20
5.328871
 30
0.0
 10
135.998585
 20
6.103341
 30
0.0
 10
137.733532
 20
6.989420
 30
0.0
 10
139.409244
 20
7.982966
 30
0.0
 10
141.020165
 20
9.077149
 30
0.0
 10
142.556660
 20
10.271887
 30
0.0
 10
144.017390
 20
11.561748
 30
0.0
 10
145.394045
 20
12.938404
 30
0.0
 10
146.683906
 20
14.399133
 30
0.0
 10
147.878648
 20
15.938398
 30
0.0
 10
148.975572
 20
17.546549
 30
0.0
 10
149.969142
 20
19.222261
 30
0.0
 10
150.855221
 20
20.957208
 30
0.0
 10
151.626926
 20
22.745905
 30
0.0
 10
152.286995
 20
24.578691
 30
0.0
 10
152.831317
 20
26.448688
 30
0.0
 10
153.253006
 20
28.348989
 30
0.0
 10
153.554786
 20
30.274133
 30
0.0
 10
153.738072
 20
32.211645
 30
0.0
 10
153.795959
 20
34.160181
 30
0.0
 10
153.738072
 20
36.105973
 30
0.0
 10
153.554786
 20
38.043510
 30
0.0
 10
153.253006
 20
39.968627
 30
0.0
 10
152.831317
 20
41.871697
 30
0.0
 10
152.286995
 20
43.741696
 30
0.0
 10
151.626926
 20
45.574483
 30
0.0
 10
150.855221
 20
47.360408
 30
0.0
 10
149.969142
 20
49.095355
 30
0.0
 10
148.975572
 20
50.772441
 30
0.0
 10
147.878648
 20
52.381988
 30
0.0
 10
146.683906
 20
53.918510
 30
0.0
 10
145.396814
 20
55.379214
 30
0.0
 10
144.017390
 20
56.758637
 30
0.0
 10
142.559430
 20
58.045731
 30
0.0
 10
141.020165
 20
59.243239
 30
0.0
 10
139.409244
 20
60.337395
 30
0.0
 10
137.733532
 20
61.330967
 30
0.0
 10
135.998585
 20
62.217046
 30
0.0
 10
134.209892
 20
62.991492
 30
0.0
 10
132.378475
 20
63.650216
 30
0.0
 10
130.509874
 20
64.193141
 30
0.0
 10
128.606804
 20
64.617600
 30
0.0
 10
126.681660
 20
64.919377
 30
0.0
 10
124.744148
 20
65.099895
 30
0.0
 10
122.798357
 20
65.160525
 30
0.0
 10
122.539301
 20
65.157782
 30
0.0
 10
122.280221
 20
65.157782
 30
0.0
 10
122.023911
 20
65.156410
 30
0.0
 10
121.764831
 20
65.150898
 30
0.0
 10
121.508520
 20
65.145387
 30
0.0
 10
121.249440
 20
65.138478
 30
0.0
 10
120.991757
 20
65.130223
 30
0.0
 10
120.732677
 20
65.120571
 30
0.0
 10
120.476366
 20
65.105407
 30
0.0
 10
120.217286
 20
65.090269
 30
0.0
 10
119.960972
 20
65.072336
 30
0.0
 10
119.704661
 20
65.051661
 30
0.0
 10
119.445581
 20
65.026870
 30
0.0
 10
119.189271
 20
65.000683
 30
0.0
 10
118.934332
 20
64.970355
 30
0.0
 10
118.678018
 20
64.937284
 30
0.0
 10
118.421707
 20
64.901470
 30
0.0
 10
118.168166
 20
64.864259
 30
0.0
 10
117.911827
 20
64.820165
 30
0.0
 10
117.656889
 20
64.777442
 30
0.0
 10
117.403347
 20
64.729208
 30
0.0
 10
117.151150
 20
64.678230
 30
0.0
 10
116.897605
 20
64.624483
 30
0.0
 10
116.646808
 20
64.569365
 30
0.0
 10
116.394611
 20
64.510107
 30
0.0
 10
114.984886
 20
64.165582
 30
0.0
 10
113.575158
 20
63.837617
 30
0.0
 10
112.162664
 20
63.522047
 30
0.0
 10
110.746032
 20
63.223013
 30
0.0
 10
109.323911
 20
62.936374
 30
0.0
 10
107.901765
 20
62.666296
 30
0.0
 10
106.474133
 20
62.409959
 30
0.0
 10
105.046473
 20
62.168811
 30
0.0
 10
103.616072
 20
61.940059
 30
0.0
 10
102.181533
 20
61.726470
 30
0.0
 10
100.745618
 20
61.528020
 30
0.0
 10
99.308310
 20
61.343362
 30
0.0
 10
97.871026
 20
61.172496
 30
0.0
 10
96.428228
 20
61.018141
 30
0.0
 10
94.988175
 20
60.876205
 30
0.0
 10
93.545353
 20
60.746691
 30
0.0
 10
92.099814
 20
60.632315
 30
0.0
 10
90.654251
 20
60.533077
 30
0.0
 10
89.207315
 20
60.446260
 30
0.0
 10
87.761748
 20
60.373235
 30
0.0
 10
86.313416
 20
60.312605
 30
0.0
 10
84.866480
 20
60.265742
 30
0.0
 10
83.418172
 20
60.231299
 30
0.0
 10
81.967095
 20
60.210624
 30
0.0
 10
80.520159
 20
60.202343
 30
0.0
 10
79.120058
 20
60.232671
 30
0.0
 10
77.733754
 20
60.258858
 30
0.0
 10
76.387399
 20
60.301581
 30
0.0
 10
75.261544
 20
60.391142
 30
0.0
 10
73.585857
 20
60.538589
 30
0.0
 10
72.198181
 20
60.662617
 30
0.0
 10
70.814614
 20
60.764598
 30
0.0
 10
69.428307
 20
60.873462
 30
0.0
 10
68.046141
 20
60.990582
 30
0.0
 10
66.661206
 20
61.117378
 30
0.0
 10
65.280413
 20
61.252430
 30
0.0
 10
63.898247
 20
61.397109
 30
0.0
 10
62.518847
 20
61.548696
 30
0.0
 10
61.139426
 20
61.714050
 30
0.0
 10
59.762771
 20
61.886313
 30
0.0
 10
58.386091
 20
62.072342
 30
0.0
 10
57.009436
 20
62.268024
 30
0.0
 10
55.635525
 20
62.473357
 30
0.0
 10
54.267149
 20
62.692458
 30
0.0
 10
52.894611
 20
62.925350
 30
0.0
 10
51.530352
 20
63.169267
 30
0.0
 10
50.164721
 20
63.431090
 30
0.0
 10
48.803228
 20
63.705334
 30
0.0
 10
47.447225
 20
63.994716
 30
0.0
 10
46.092618
 20
64.304774
 30
0.0
 10
45.793582
 20
64.388822
 30
0.0
 10
45.493178
 20
64.467384
 30
0.0
 10
45.194142
 20
64.543178
 30
0.0
 10
44.890969
 20
64.617600
 30
0.0
 10
44.589192
 20
64.687856
 30
0.0
 10
44.287391
 20
64.752626
 30
0.0
 10
43.981472
 20
64.816025
 30
0.0
 10
43.676926
 20
64.871143
 30
0.0
 10
43.369611
 20
64.924889
 30
0.0
 10
43.065065
 20
64.973124
 30
0.0
 10
42.757774
 20
65.018590
 30
0.0
 10
42.450459
 20
65.057172
 30
0.0
 10
42.143172
 20
65.093012
 30
0.0
 10
41.833112
 20
65.124711
 30
0.0
 10
41.523056
 20
65.153642
 30
0.0
 10
41.212999
 20
65.175689
 30
0.0
 10
40.902939
 20
65.196364
 30
0.0
 10
40.595628
 20
65.211528
 30
0.0
 10
40.286940
 20
65.226692
 30
0.0
 10
39.976884
 20
65.237716
 30
0.0
 10
39.666824
 20
65.247342
 30
0.0
 10
39.354023
 20
65.252854
 30
0.0
 10
39.043966
 20
65.256994
 30
0.0
 10
38.733906
 20
65.259763
 30
0.0
 10
38.423850
 20
65.259763
 30
0.0
 10
36.476661
 20
65.199133
 30
0.0
 10
34.533636
 20
65.018590
 30
0.0
 10
32.605751
 20
64.714044
 30
0.0
 10
30.699938
 20
64.292378
 30
0.0
 10
28.828568
 20
63.748056
 30
0.0
 10
26.991640
 20
63.085218
 30
0.0
 10
25.201575
 20
62.310747
 30
0.0
 10
23.463859
 20
61.424668
 30
0.0
 10
21.785402
 20
60.428353
 30
0.0
 10
20.174483
 20
59.331428
 30
0.0
 10
18.632449
 20
58.135291
 30
0.0
 10
17.170349
 20
56.845454
 30
0.0
 10
15.790951
 20
55.466031
 30
0.0
 10
14.499717
 20
54.002559
 30
0.0
 10
13.303580
 20
52.460525
 30
0.0
 10
12.206655
 20
50.848235
 30
0.0
 10
11.210340
 20
49.168406
 30
0.0
 10
10.324261
 20
47.432087
 30
0.0
 10
9.547047
 20
45.640625
 30
0.0
 10
8.886967
 20
43.806466
 30
0.0
 10
8.342642
 20
41.932327
 30
0.0
 10
7.919585
 20
40.030629
 30
0.0
 10
7.616416
 20
38.102769
 30
0.0
 10
7.435893
 20
36.159719
 30
0.0
 10
7.375260
 20
34.211184
 30
0.0
 10
7.435893
 20
32.259880
 30
0.0
 10
7.616416
 20
30.316830
 30
0.0
 10
7.919585
 20
28.388970
 30
0.0
 10
8.342642
 20
26.484502
 30
0.0
 10
8.886967
 20
24.611760
 30
0.0
 10
9.547047
 20
22.776205
 30
0.0
 10
10.324261
 20
20.987512
 30
0.0
 10
11.210340
 20
19.249820
 30
0.0
 10
12.203912
 20
17.571364
 30
0.0
 10
13.303580
 20
15.959049
 30
0.0
 10
14.499717
 20
14.419785
 30
0.0
 10
15.790951
 20
12.953570
 30
0.0
 10
17.170349
 20
11.574145
 30
0.0
  0
ENDSEC
  0
SECTION
  2
OBJECTS
  0
DICTIONARY
  5
C
330
0
100
AcDbDictionary
  3
ACAD_GROUP
350
D
  3
ACAD_MLINESTYLE
350
17
  0
DICTIONARY
  5
D
330
C
100
AcDbDictionary
  0
DICTIONARY
  5
1A
330
C
100
AcDbDictionary
  0
DICTIONARY
  5
17
330
C
100
AcDbDictionary
  3
STANDARD
350
18
  0
DICTIONARY
  5
19
330
C
100
AcDbDictionary
  0
ENDSEC
  0
EOF
